<svg width="63" height="63" viewBox="0 0 63 63" fill="none" xmlns="http://www.w3.org/2000/svg">
<path d="M39.9903 37.7524C43.2865 32.5213 42.6623 25.512 38.1106 20.9602C32.8308 15.6799 24.2402 15.6799 18.9598 20.9602C13.6801 26.2406 13.6801 34.8307 18.9598 40.1104C23.511 44.6621 30.5221 45.2857 35.7526 41.9901L44.7618 50.9998L49 46.7623L39.9903 37.7524ZM34.6923 36.6922C31.2976 40.0881 25.7734 40.0881 22.378 36.6922C18.9833 33.2974 18.9839 27.7739 22.3786 24.3785C25.7734 20.9837 31.2976 20.9831 34.6923 24.3779C38.0871 27.7739 38.0871 33.2974 34.6923 36.6922Z" fill="black" fill-opacity="0.5"/>
<rect width="63" height="63" rx="17" fill="black" fill-opacity="0.1"/>
</svg>
