<svg width="34" height="34" viewBox="0 0 34 34" fill="none" xmlns="http://www.w3.org/2000/svg">
<path d="M24.9903 20.7524C28.2865 15.5213 27.6623 8.51203 23.1106 3.96022C17.8308 -1.32007 9.24018 -1.32007 3.95982 3.96022C-1.31994 9.24057 -1.31994 17.8307 3.95982 23.1104C8.51104 27.6621 15.5221 28.2857 20.7526 24.9901L29.7618 33.9998L34 29.7623L24.9903 20.7524ZM19.6923 19.6922C16.2976 23.0881 10.7734 23.0881 7.37801 19.6922C3.98326 16.2974 3.98386 10.7739 7.37861 7.37848C10.7734 3.98373 16.2976 3.98313 19.6923 7.37795C23.0871 10.7739 23.0871 16.2974 19.6923 19.6922Z" fill="black" fill-opacity="0.5"/>
</svg>
