<svg width="100" height="100" viewBox="0 0 100 100" fill="none" xmlns="http://www.w3.org/2000/svg">
<rect x="33" y="74" width="1" height="1" fill="#101010"/>
<rect x="36" y="72" width="1" height="1" fill="#101010"/>
<rect x="33" y="67" width="1" height="1" fill="#101010"/>
<rect x="40" y="74" width="1" height="1" fill="#101010"/>
<rect x="41" y="73" width="1" height="1" fill="#101010"/>
<rect x="42" y="72" width="1" height="1" fill="#101010"/>
<rect x="47" y="69" width="1" height="1" fill="#101010"/>
<rect x="48" y="68" width="1" height="1" fill="#101010"/>
<rect x="44" y="66" width="1" height="1" fill="#101010"/>
<rect x="43" y="65" width="1" height="1" fill="#101010"/>
<rect x="40" y="67" width="1" height="1" fill="#101010"/>
<rect x="38" y="65" width="1" height="1" fill="#101010"/>
<rect x="37" y="64" width="1" height="1" fill="#101010"/>
<rect x="33" y="62" width="1" height="1" fill="#101010"/>
<rect x="37" y="61" width="1" height="1" fill="#101010"/>
<rect x="45" y="63" width="1" height="1" fill="#101010"/>
<rect x="43" y="62" width="1" height="1" fill="#101010"/>
<rect x="50" y="63" width="1" height="1" fill="#101010"/>
<rect x="54" y="64" width="1" height="1" fill="#101010"/>
<rect x="56" y="63" width="1" height="1" fill="#101010"/>
<rect x="56" y="68" width="1" height="1" fill="#101010"/>
<rect x="54" y="74" width="1" height="1" fill="#101010"/>
<rect x="55" y="75" width="1" height="1" fill="#101010"/>
<rect x="57" y="74" width="1" height="1" fill="#101010"/>
<rect x="56" y="76" width="1" height="1" fill="#101010"/>
<rect x="55" y="73" width="1" height="1" fill="#101010"/>
<rect x="57" y="77" width="1" height="1" fill="#101010"/>
<rect x="59" y="80" width="1" height="1" fill="#101010"/>
<rect x="64" y="83" width="1" height="1" fill="#101010"/>
<rect x="71" y="78" width="1" height="1" fill="#101010"/>
<rect x="70" y="77" width="1" height="1" fill="#101010"/>
<rect x="65" y="69" width="1" height="1" fill="#101010"/>
<rect x="63" y="69" width="1" height="1" fill="#101010"/>
<rect x="63" y="64" width="1" height="1" fill="#101010"/>
<rect x="57" y="61" width="1" height="1" fill="#101010"/>
<rect x="52" y="58" width="1" height="1" fill="#101010"/>
<rect x="51" y="55" width="1" height="1" fill="#101010"/>
<rect x="54" y="55" width="1" height="1" fill="#101010"/>
<rect x="59" y="58" width="1" height="1" fill="#101010"/>
<rect x="65" y="55" width="1" height="1" fill="#101010"/>
<rect x="65" y="52" width="1" height="1" fill="#101010"/>
<rect x="66" y="51" width="1" height="1" fill="#101010"/>
<rect x="65" y="50" width="1" height="1" fill="#101010"/>
<rect x="64" y="48" width="1" height="1" fill="#101010"/>
<rect x="68" y="48" width="1" height="1" fill="#101010"/>
<rect x="73" y="48" width="1" height="1" fill="#101010"/>
<rect x="74" y="47" width="1" height="1" fill="#101010"/>
<rect x="66" y="45" width="1" height="1" fill="#101010"/>
<rect x="63" y="45" width="1" height="1" fill="#101010"/>
<rect x="50" y="47" width="1" height="1" fill="#101010"/>
<rect x="45" y="51" width="1" height="1" fill="#101010"/>
<rect x="46" y="50" width="1" height="1" fill="#101010"/>
<rect x="49" y="50" width="1" height="1" fill="#101010"/>
<rect x="50" y="51" width="1" height="1" fill="#101010"/>
<rect x="51" y="52" width="1" height="1" fill="#101010"/>
<rect x="52" y="53" width="1" height="1" fill="#101010"/>
<rect x="44" y="56" width="1" height="1" fill="#101010"/>
<rect x="42" y="54" width="1" height="1" fill="#101010"/>
<rect x="40" y="48" width="1" height="1" fill="#101010"/>
<rect x="38" y="47" width="1" height="1" fill="#101010"/>
<rect x="36" y="56" width="1" height="1" fill="#101010"/>
<rect x="29" y="56" width="1" height="1" fill="#101010"/>
<rect x="19" y="47" width="1" height="1" fill="#101010"/>
<rect x="18" y="46" width="1" height="1" fill="#101010"/>
<rect x="31" y="47" width="1" height="1" fill="#101010"/>
<rect x="32" y="46" width="1" height="1" fill="#101010"/>
<rect x="33" y="44" width="1" height="1" fill="#101010"/>
<rect x="32" y="43" width="1" height="1" fill="#101010"/>
<rect x="31" y="42" width="1" height="1" fill="#101010"/>
<rect x="30" y="43" width="1" height="1" fill="#101010"/>
<rect x="23" y="41" width="1" height="1" fill="#101010"/>
<rect x="22" y="40" width="1" height="1" fill="#101010"/>
<rect x="24" y="38" width="1" height="1" fill="#101010"/>
<rect x="17" y="40" width="1" height="1" fill="#101010"/>
<rect x="15" y="38" width="1" height="1" fill="#101010"/>
<rect x="18" y="35" width="1" height="1" fill="#101010"/>
<rect x="15" y="33" width="1" height="1" fill="#101010"/>
<rect x="12" y="22" width="1" height="1" fill="#101010"/>
<rect x="20" y="33" width="1" height="1" fill="#101010"/>
<rect x="31" y="34" width="1" height="1" fill="#101010"/>
<rect x="33" y="38" width="1" height="1" fill="#101010"/>
<rect x="34" y="37" width="1" height="1" fill="#101010"/>
<rect x="35" y="36" width="1" height="1" fill="#101010"/>
<rect x="39" y="30" width="1" height="1" fill="#101010"/>
<rect x="44" y="26" width="1" height="1" fill="#101010"/>
<rect x="43" y="25" width="1" height="1" fill="#101010"/>
<rect x="42" y="24" width="1" height="1" fill="#101010"/>
<rect x="41" y="23" width="1" height="1" fill="#101010"/>
<rect x="40" y="22" width="1" height="1" fill="#101010"/>
<rect x="38" y="31" width="1" height="1" fill="#101010"/>
<rect x="40" y="41" width="1" height="1" fill="#101010"/>
<rect x="46" y="43" width="1" height="1" fill="#101010"/>
<rect x="48" y="41" width="1" height="1" fill="#101010"/>
<rect x="51" y="40" width="1" height="1" fill="#101010"/>
<rect x="52" y="38" width="1" height="1" fill="#101010"/>
<rect x="62" y="34" width="1" height="1" fill="#101010"/>
<rect x="63" y="35" width="1" height="1" fill="#101010"/>
<rect x="64" y="36" width="1" height="1" fill="#101010"/>
<rect x="19" y="31" width="1" height="1" fill="#101010"/>
<rect x="39" y="46" width="1" height="1" fill="#101010"/>
<rect x="39" y="44" width="1" height="1" fill="#101010"/>
<rect x="64" y="44" width="1" height="1" fill="#101010"/>
<rect x="79" y="37" width="1" height="1" fill="#101010"/>
<rect x="81" y="33" width="1" height="1" fill="#101010"/>
<rect x="81" y="30" width="1" height="1" fill="#101010"/>
<rect x="80" y="29" width="1" height="1" fill="#101010"/>
<rect x="80" y="27" width="1" height="1" fill="#101010"/>
<rect x="75" y="29" width="1" height="1" fill="#101010"/>
<rect x="74" y="30" width="1" height="1" fill="#101010"/>
<rect x="75" y="32" width="1" height="1" fill="#101010"/>
<rect x="74" y="33" width="1" height="1" fill="#101010"/>
<rect x="72" y="33" width="1" height="1" fill="#101010"/>
<rect x="70" y="33" width="1" height="1" fill="#101010"/>
<rect x="72" y="29" width="1" height="1" fill="#101010"/>
<rect x="73" y="27" width="1" height="1" fill="#101010"/>
<rect x="80" y="19" width="1" height="1" fill="#101010"/>
<rect x="11" y="23" width="1" height="5" fill="#101010"/>
<rect x="12" y="28" width="1" height="2" fill="#101010"/>
<rect x="13" y="30" width="2" height="1" fill="#101010"/>
<rect x="15" y="31" width="2" height="1" fill="#101010"/>
<rect x="16" y="32" width="4" height="1" fill="#101010"/>
<rect x="18" y="26" width="1" height="5" fill="#101010"/>
<rect x="20" y="30" width="3" height="1" fill="#101010"/>
<rect x="23" y="31" width="1" height="2" fill="#101010"/>
<rect x="24" y="33" width="1" height="2" fill="#101010"/>
<rect x="19" y="35" width="1" height="2" fill="#101010"/>
<rect x="18" y="37" width="1" height="2" fill="#101010"/>
<rect x="21" y="38" width="1" height="2" fill="#101010"/>
<rect x="25" y="38" width="1" height="2" fill="#101010"/>
<rect x="26" y="40" width="1" height="2" fill="#101010"/>
<rect x="27" y="42" width="1" height="2" fill="#101010"/>
<rect x="17" y="44" width="1" height="2" fill="#101010"/>
<rect x="14" y="34" width="1" height="4" fill="#101010"/>
<rect x="16" y="39" width="1" height="5" fill="#101010"/>
<rect x="22" y="37" width="1" height="1" fill="#101010"/>
<rect x="23" y="35" width="1" height="3" fill="#101010"/>
<rect x="20" y="34" width="3" height="1" fill="#101010"/>
<rect x="18" y="41" width="4" height="1" fill="#101010"/>
<rect x="24" y="42" width="2" height="1" fill="#101010"/>
<rect x="20" y="48" width="2" height="1" fill="#101010"/>
<rect x="22" y="49" width="2" height="1" fill="#101010"/>
<rect x="24" y="50" width="2" height="1" fill="#101010"/>
<rect x="26" y="51" width="2" height="1" fill="#101010"/>
<rect x="29" y="48" width="2" height="1" fill="#101010"/>
<rect x="33" y="45" width="2" height="1" fill="#101010"/>
<rect x="35" y="46" width="2" height="1" fill="#101010"/>
<rect x="37" y="43" width="2" height="1" fill="#101010"/>
<rect x="35" y="42" width="2" height="1" fill="#101010"/>
<rect x="33" y="41" width="2" height="1" fill="#101010"/>
<rect x="32" y="39" width="1" height="2" fill="#101010"/>
<rect x="30" y="40" width="1" height="2" fill="#101010"/>
<rect x="30" y="35" width="1" height="2" fill="#101010"/>
<rect x="36" y="34" width="1" height="2" fill="#101010"/>
<rect x="38" y="39" width="1" height="2" fill="#101010"/>
<rect x="40" y="45" width="1" height="2" fill="#101010"/>
<rect x="37" y="47" width="1" height="2" fill="#101010"/>
<rect x="39" y="49" width="1" height="2" fill="#101010"/>
<rect x="37" y="54" width="1" height="2" fill="#101010"/>
<rect x="41" y="55" width="1" height="2" fill="#101010"/>
<rect x="42" y="57" width="1" height="2" fill="#101010"/>
<rect x="43" y="59" width="1" height="2" fill="#101010"/>
<rect x="44" y="61" width="1" height="2" fill="#101010"/>
<rect x="41" y="65" width="1" height="2" fill="#101010"/>
<rect x="35" y="70" width="1" height="2" fill="#101010"/>
<rect x="36" y="62" width="1" height="2" fill="#101010"/>
<rect x="64" y="65" width="1" height="2" fill="#101010"/>
<rect x="55" y="69" width="1" height="2" fill="#101010"/>
<rect x="58" y="78" width="1" height="2" fill="#101010"/>
<rect x="67" y="74" width="1" height="2" fill="#101010"/>
<rect x="62" y="82" width="2" height="1" fill="#101010"/>
<rect x="60" y="81" width="2" height="1" fill="#101010"/>
<rect x="68" y="76" width="2" height="1" fill="#101010"/>
<rect x="57" y="69" width="2" height="1" fill="#101010"/>
<rect x="61" y="63" width="2" height="1" fill="#101010"/>
<rect x="60" y="59" width="2" height="1" fill="#101010"/>
<rect x="57" y="57" width="2" height="1" fill="#101010"/>
<rect x="63" y="56" width="2" height="1" fill="#101010"/>
<rect x="55" y="56" width="2" height="1" fill="#101010"/>
<rect x="52" y="63" width="2" height="1" fill="#101010"/>
<rect x="45" y="70" width="2" height="1" fill="#101010"/>
<rect x="43" y="71" width="2" height="1" fill="#101010"/>
<rect x="38" y="75" width="2" height="1" fill="#101010"/>
<rect x="34" y="73" width="2" height="1" fill="#101010"/>
<rect x="39" y="64" width="2" height="1" fill="#101010"/>
<rect x="41" y="63" width="2" height="1" fill="#101010"/>
<rect x="34" y="61" width="2" height="1" fill="#101010"/>
<rect x="32" y="69" width="2" height="1" fill="#101010"/>
<rect x="34" y="57" width="2" height="1" fill="#101010"/>
<rect x="34" y="68" width="1" height="2" fill="#101010"/>
<rect x="32" y="75" width="1" height="2" fill="#101010"/>
<rect x="33" y="76" width="5" height="1" fill="#101010"/>
<rect x="30" y="72" width="4" height="1" fill="#101010"/>
<rect x="32" y="63" width="1" height="4" fill="#101010"/>
<rect x="36" y="60" width="3" height="1" fill="#101010"/>
<rect x="42" y="64" width="1" height="1" fill="#101010"/>
<rect x="44" y="67" width="4" height="1" fill="#101010"/>
<rect x="46" y="64" width="4" height="1" fill="#101010"/>
<rect x="35" y="68" width="5" height="1" fill="#101010"/>
<rect x="38" y="51" width="1" height="3" fill="#101010"/>
<rect x="29" y="58" width="5" height="1" fill="#101010"/>
<rect x="41" y="49" width="1" height="3" fill="#101010"/>
<rect x="42" y="52" width="3" height="1" fill="#101010"/>
<rect x="43" y="53" width="1" height="3" fill="#101010"/>
<rect x="29" y="37" width="1" height="3" fill="#101010"/>
<rect x="37" y="27" width="1" height="7" fill="#101010"/>
<rect x="36" y="24" width="1" height="3" fill="#101010"/>
<rect x="35" y="21" width="1" height="3" fill="#101010"/>
<rect x="34" y="17" width="1" height="4" fill="#101010"/>
<rect x="61" y="19" width="1" height="3" fill="#101010"/>
<rect x="60" y="22" width="1" height="3" fill="#101010"/>
<rect x="57" y="34" width="1" height="3" fill="#101010"/>
<rect x="71" y="30" width="1" height="3" fill="#101010"/>
<rect x="72" y="24" width="1" height="3" fill="#101010"/>
<rect x="82" y="22" width="1" height="3" fill="#101010"/>
<rect x="78" y="38" width="1" height="3" fill="#101010"/>
<rect x="59" y="25" width="1" height="4" fill="#101010"/>
<rect x="58" y="29" width="1" height="5" fill="#101010"/>
<rect x="60" y="33" width="2" height="1" fill="#101010"/>
<rect x="58" y="37" width="1" height="2" fill="#101010"/>
<rect x="59" y="39" width="1" height="2" fill="#101010"/>
<rect x="60" y="41" width="1" height="2" fill="#101010"/>
<rect x="49" y="46" width="1" height="2" fill="#101010"/>
<rect x="50" y="45" width="2" height="1" fill="#101010"/>
<rect x="47" y="49" width="2" height="1" fill="#101010"/>
<rect x="51" y="48" width="2" height="1" fill="#101010"/>
<rect x="53" y="49" width="2" height="1" fill="#101010"/>
<rect x="52" y="54" width="2" height="1" fill="#101010"/>
<rect x="59" y="47" width="2" height="1" fill="#101010"/>
<rect x="61" y="46" width="2" height="1" fill="#101010"/>
<rect x="62" y="47" width="2" height="1" fill="#101010"/>
<rect x="65" y="49" width="2" height="1" fill="#101010"/>
<rect x="67" y="50" width="2" height="1" fill="#101010"/>
<rect x="73" y="40" width="2" height="1" fill="#101010"/>
<rect x="74" y="35" width="2" height="1" fill="#101010"/>
<rect x="78" y="28" width="2" height="1" fill="#101010"/>
<rect x="52" y="44" width="3" height="1" fill="#101010"/>
<rect x="55" y="43" width="5" height="1" fill="#101010"/>
<rect x="55" y="48" width="4" height="1" fill="#101010"/>
<rect x="55" y="50" width="3" height="1" fill="#101010"/>
<rect x="65" y="37" width="1" height="2" fill="#101010"/>
<rect x="66" y="39" width="1" height="4" fill="#101010"/>
<rect x="65" y="43" width="1" height="2" fill="#101010"/>
<rect x="64" y="53" width="1" height="2" fill="#101010"/>
<rect x="67" y="44" width="1" height="4" fill="#101010"/>
<rect x="68" y="38" width="1" height="6" fill="#101010"/>
<rect x="69" y="34" width="1" height="4" fill="#101010"/>
<rect x="72" y="37" width="1" height="3" fill="#101010"/>
<rect x="73" y="34" width="1" height="3" fill="#101010"/>
<rect x="73" y="31" width="1" height="2" fill="#101010"/>
<rect x="75" y="38" width="1" height="2" fill="#101010"/>
<rect x="76" y="38" width="2" height="1" fill="#101010"/>
<rect x="76" y="36" width="1" height="2" fill="#101010"/>
<rect x="80" y="34" width="1" height="3" fill="#101010"/>
<rect x="82" y="31" width="1" height="2" fill="#101010"/>
<rect x="81" y="25" width="1" height="2" fill="#101010"/>
<rect x="81" y="20" width="1" height="2" fill="#101010"/>
<rect x="76" y="26" width="1" height="2" fill="#101010"/>
<rect x="75" y="23" width="1" height="3" fill="#101010"/>
<rect x="73" y="23" width="2" height="1" fill="#101010"/>
<rect x="77" y="41" width="1" height="2" fill="#101010"/>
<rect x="76" y="43" width="1" height="2" fill="#101010"/>
<rect x="75" y="45" width="1" height="2" fill="#101010"/>
<rect x="69" y="49" width="4" height="1" fill="#101010"/>
<rect x="45" y="57" width="4" height="1" fill="#101010"/>
<rect x="49" y="56" width="2" height="1" fill="#101010"/>
<rect x="53" y="57" width="2" height="1" fill="#101010"/>
<rect x="55" y="57" width="1" height="2" fill="#101010"/>
<rect x="56" y="59" width="1" height="2" fill="#101010"/>
<rect x="62" y="57" width="1" height="2" fill="#101010"/>
<rect x="51" y="59" width="1" height="4" fill="#101010"/>
<rect x="55" y="65" width="1" height="3" fill="#101010"/>
<rect x="56" y="71" width="1" height="3" fill="#101010"/>
<rect x="57" y="62" width="4" height="1" fill="#101010"/>
<rect x="59" y="70" width="4" height="1" fill="#101010"/>
<rect x="66" y="70" width="1" height="4" fill="#101010"/>
<rect x="65" y="81" width="1" height="3" fill="#101010"/>
<rect x="66" y="80" width="4" height="1" fill="#101010"/>
<rect x="70" y="81" width="2" height="1" fill="#101010"/>
<rect x="72" y="79" width="1" height="3" fill="#101010"/>
<path fill-rule="evenodd" clip-rule="evenodd" d="M77 19H79V20H77V19ZM78 25V26H79H80V25H81V24H82V22H81V21H80V20H79V22H78H77V21H76V23H77V25H78ZM13 24H12V26H13V27H14V28H17V26V25V24H16V25H15V26H14H13V24ZM24 38H23V41H24V42H25H26V40H25V39H24V38ZM73 37H75V40H73V37ZM51 40H50V41H51V40ZM39 40H40V41H39V40Z" fill="#DEDEDE"/>
<path fill-rule="evenodd" clip-rule="evenodd" d="M80 19H79V20H80V21H81V20H80V19ZM77 23H76V26H77V28H78H80V27H81V25H82V24H81V25H80V26H78V25H77V23ZM74 36H75H76V38H75V37H74V36ZM22 38H23V40H22V38ZM19 31H18V26H17V28H15H14V27H13V26H12V27V28H13V30H15V31H17V32H19V31ZM13 23H12V24H13V23ZM15 23H16V24H15V23ZM71 80H70V81H71V80Z" fill="#B4B4B4"/>
<path fill-rule="evenodd" clip-rule="evenodd" d="M77 18H80V19H77V18ZM76 21V19H77V21H76ZM76 21V23H75V21H76ZM13 22H16V23H13V22ZM17 24H16V23H17V24ZM17 24H18V26H17V24ZM63 80H62V82H63V80ZM64 79H65V80H64V79ZM65 80H66V81H65V80ZM68 79H69V80H68V79ZM69 79V78H70V79H69ZM31 70H32V71H31V70ZM31 71V72H30V71H31Z" fill="#5A5A5A"/>
<path fill-rule="evenodd" clip-rule="evenodd" d="M79 20H77V22H79V20ZM15 23H13V26H15V25H16V24H15V23ZM39 41H40V42H39V41ZM40 42H41V43H40V42ZM47 42H48V43H47V42ZM50 41H49V43H50V42H51V41H50ZM55 74H56H57V76H56V75H55V74ZM63 80H65V82V83H64V82H63V80ZM69 79H70V78H71V79H72V81H71V80H70H69V79ZM34 75H33V76H34H36V74H34V75ZM32 71H31V72H32H33V70H32V71ZM46 68H45V69H46V70H47V69H48V68H47H46Z" fill="white"/>
<path fill-rule="evenodd" clip-rule="evenodd" d="M46 30H41V31H40V35H41V36H46V35H47V31H46V30ZM28 50H30V51H32V52H33H34H35V53H34V55H35V56H34V57H33V58H30H29V57H30V55H29V54H28V53H29V52V51H28V50ZM57 53H58V52H61V51H63V50H64H65V51H66V52H65V53H64V55H65V56H64H63V57H62V59H60V58H59V57H58H57V55H58V54H57V53Z" fill="#FFF6AC"/>
<path fill-rule="evenodd" clip-rule="evenodd" d="M37 32H35V33H34H33V34H32V35H31V36H32V37H33H34V36H35V35H36V34H37V32ZM59 64H60V65H61V67H59V66H58V65H59V64Z" fill="#D5B452"/>
<path fill-rule="evenodd" clip-rule="evenodd" d="M60 33H59V34H58V37H59V39H60V41H62V40H64V39H65V37H64V36H63V35H62V34H60V33ZM36 35H35V36H34V37H33H32V36H31V37H30V38H31V39H32H33V38H34V37H35V36H36V35ZM25 37H24V38H25V37ZM23 41H22V42V44H23V46H24V47H25V48H27V47H28V44H27V43V42H26V43H25H24V42H23V41ZM73 33H74V34H73V33ZM73 34V37H72V38V40H73V43H72V45H71V46H70V47H68V45V44H69V38H70V37V34H71V33H72V34H73ZM45 54H44V56H45V57H48H49V55H48V54V53H46V54H45ZM60 67H59V66H58V65H59V64V63H57V64H56V66V67H57V68H60V67ZM36 64H37V66H36V67H34V66H33V63H34V62H36V63V64Z" fill="#B48329"/>
<path fill-rule="evenodd" clip-rule="evenodd" d="M35 31H37V32H35V31ZM33 33V32H35V33H33ZM33 33V34H32V33H33ZM60 32H59V33H60V32ZM40 65H39V66H40V67H41V66H40V65ZM33 66H34V67H33V66ZM34 67H35V68H34V67ZM57 67H56V68H57V67ZM64 67H65V69H64V67ZM25 36H24V37H25V38H26V37H25V36ZM27 39H26V40H27V39ZM27 41H28V42H27V41ZM30 44H28V45V46H29V48H30V46H29V45H30V44Z" fill="#523108"/>
<path fill-rule="evenodd" clip-rule="evenodd" d="M36 17H35V18H36V19H37V20H38V21H39V22H40V21H39V20H38V19H37V18H36V17ZM61 19H60V20H59V21H58V22H57V23H56V24H55V25H54V26H53V27H51V28H49V27H44V28H42V29H44V28H49V29H51V28H53V27H54V26H55V25H56V24H57V23H58V22H59V21H60V20H61V19ZM39 38H38V39H39V40H40V41H41V40H40V39H39V38ZM39 42H40V43H39V42ZM39 42H38V41H39V42ZM46 42H47V43H46V42ZM48 43V44H47V43H48ZM48 42H49V43H48V42ZM48 41V42H47V41H48ZM50 40V41H48V40H50ZM50 40V39H53V40H50ZM51 41H52V42H51V41ZM42 42H41V44H42V42ZM45 44H46V46H45V44ZM45 46V48H44V46H45ZM53 36H54V38H53V36ZM18 36H17V37H18V36ZM17 41H18V42H22V44H23V46H24V47H25V48H26H27V47H28V46H29V49H30V50H28V51H27H26V50H24V49H22V48H20V47H19V46H18V44H17V41ZM28 53V51H29V53H28ZM28 54H27V53H28V54ZM29 55H28V54H29V55ZM29 55H30V56H29V55ZM33 51H30V50H33V51ZM35 51V52H33V51H35ZM36 50V51H35V50H36ZM36 50V49H37V50H36ZM28 57H29V58H28V57ZM40 45H39V44H37V43H35V42H33V41H32V39H31V38H30V40H31V42H32V43H33V44H34V45H35V46H37V47H39V46H40V45ZM44 50H43V51H44V50ZM46 53V54H44V53H45V52H46V51H47V50H49V51H50V52H51V53H52V55H51V56H49V55H48V53H46ZM49 48V47H47V48H49ZM58 51H61V52H58V51ZM63 50H61V51H63V50ZM63 50H65V49H63V50ZM66 39H65H64V40H62V41H61V43H60V44H55V45H52V46H51H50V47H51V48H53V49H55V48H59V47H61V46H63V45H64V44H65V43H66V39ZM69 47H68V48H69V49H73V48H74V47H75V45H76V43H77V41H78V39H76V40H75V41H73V43H72V45H71V46H70V47H69ZM72 32H73V33H72V32ZM74 28H73V29H74V28ZM76 28H78V29H76V28ZM78 32H76V33H78V34H79V33H78V32ZM78 32H79V31H78V32ZM37 72H38V73H37V72ZM45 68H44V69H45V70H46V69H45V68ZM42 64H41V65H40V66H38V65H37V66H36V67H35V68H36H40V66H41V65H42V64ZM36 61H37V62H36V61ZM39 61H38V62H39V61ZM40 60V61H39V60H40ZM41 58H42V57H41V58ZM41 58H40V60H41V58ZM56 64H55V65H56V64ZM57 69V68H59H60V67H61V65H60V64H59V63H61V64H63V65H64V68V69H63V70H59V69H57ZM58 75H57V77H58V75ZM63 77H64V78H63V77ZM64 78V79H65V78H64Z" fill="#735A08"/>
<path fill-rule="evenodd" clip-rule="evenodd" d="M61 20H60V22H59V24H58V25H57V27H56V28H55V29H54V30H53H52V31H53V33H54V38H53V40H52V42H51V43H50V44H46V46H45V48H44V49H43H42V44H41V43H40H39V42H38V40H37H35V39H33V41H35V42H37V43H38H39V44H40V45H41V47H40H39V48H38V49H37V51H39V49H40V48H41V49H42V52H43H45V51H46V50H47V49H49V50H50V51H51V52H52V53H53V52H54V51H55V50H54H53V49H51V48H47V47H49V46H50V45H52V44H55V43H57V42H58V41H59V39H58V37H57V34H58V29H59V25H60V24V22H61V20ZM38 36H37V38H38V36ZM43 50H44V51H43V50ZM33 44H32V45H31V46H30V48H31V47H32V46H33V44ZM54 56V55H52V56H51V57H50V59H49V60H45V59H44V58H43V59H42V58H41V60H40V61H39V62H37V64H38V65H39V64H41V63H43V62H44V61H45V63H46V64H50V63H51V60V59H52V60H53H54V61H55H56V62H57V61H56V59H55V58H53V57H54H55V56H54ZM53 58V59H52V58H53ZM44 61H43V60V59H44V61ZM42 67V66V65H43V66H44V68V69H45V71H43V72H42V73H41V74H40V75H38V76H36V73H38V72H36V70H35V69H36H38H40V68H41V67H42ZM35 70V72H36V73H34V72H33V70H35ZM64 69H65V70H66V74H67V76H66V77H67V78H68H69V79H68V80H65V78H64V77V74H63V70H64V69ZM63 79H64V80H63V79ZM36 51H35V52H36V51ZM32 51H33V52H32V51ZM63 46H64V45H66V46H67V48H68V49H69V50H68H67V49H66H65V48H64V47H63V46ZM75 26H76V29H75V26ZM75 30V29H74V30H73V31H74V33H75V34H74V35H75H76V36H77V38H78H79V37H78V36H77V35H76V33H75V32H76V30H75ZM75 30H74V31H75V30ZM78 31H77V32H78V33H79V32H78V31ZM15 36H16V37H18V39H19V38H20V39H21V40H22V41H21H18V40H17V39H16V38H15V36ZM18 36H19V37H18V36ZM18 35V36H17V35H18ZM20 35H18V34H20V35ZM20 35H21V36H20V35ZM22 33H21V34H22V33ZM22 36H23V37H22V36ZM24 33H23V35H24V33ZM44 26H43V25H42V24H41V23H40V22H39V21H38V23H39V25H40V26V27H41V28V29H42V28H44V26ZM38 26H37V27H38V26ZM36 23H37V24H36V23ZM36 20H35V21H36V20Z" fill="#CDB410"/>
<path fill-rule="evenodd" clip-rule="evenodd" d="M36 18H35V20H36V23H37V25V26H38V27V30V31H39V32H38V34H37V36H36V37H35V38H34V39H35V40H38V38H39V39H40V40H41V42H42V49H44V46H45V44H46V42H47V41H48V40H50V39H52V38H53V36H54V33H53V31H52V30H54V29H55V28H56V27H57V26V25H58V24H59V23V22H60V21H59V22H58V23H57V24H56V25H55V26H54V27H53V28H52H51V29H50H49V28H47H44V29H41V27H40V25H39V23H38V20H37V19H36V18ZM38 38V36H37V37V38H38ZM40 31H39V30H40V31ZM40 31V32V34V35H41V36H46V35H47V31H46V30H44H41V31H40ZM20 31H23V33V34H22V33H20V31ZM20 33V34H18V35H17V36V37H16V36H15V34H16V33H20ZM23 36V35H21V36H20V37H19V38H20V39H21V38H22V36H23ZM30 45H29V46H31V45H32V44V43H31V44H30V45ZM37 51H38V54H37V56H36V57H35H34V56H35V55H34V53H35V52H36V50H37V51ZM34 57V58H33V57H34ZM42 55H43V56H44V57H45V58H49V57H50V59H49V60H45V59H44V58H43V57H42V55ZM54 61V60H52V63H54V64H56V63H57V62H56V61H54ZM56 69H57V70H58H59V71H63V74H64V77H63V78H64V79H63V80H62V81H60V80H59V78H58V74H57V71H56V69ZM66 76H68V77H70V78H67V77H66V76ZM57 54H58V55H57V56H55V55H54V54H53V52H54V51H58V52V53H57V54ZM57 42H58V41H60V43H58H57V42ZM50 42H51V43H50V42ZM50 43V44H48V43H50ZM73 24H75V27V29H74V27H73V24ZM73 30V29H74V30H73ZM73 30V32H72V30H73ZM80 29H76V31V32H77V31H79V34H78V33H76V35H77V36H78V37H80V34H81V33H82V31H81V30H80V29Z" fill="#FFEE18"/>
</svg>
