<svg width="100" height="100" viewBox="0 0 100 100" fill="none" xmlns="http://www.w3.org/2000/svg">
<path fill-rule="evenodd" clip-rule="evenodd" d="M46 30H43V31H42V34H43V35H46V34H47V31H46V30ZM40 35H41V36H40V35ZM47 36H48V37H47V36Z" fill="white"/>
<rect x="38" y="41" width="1" height="1" fill="#E68B94"/>
<path fill-rule="evenodd" clip-rule="evenodd" d="M37 41H38V43H37V41ZM39 41H40V42H39V41ZM42 44V42H41H40V43H41V44H42ZM42 44V45H43V44H42Z" fill="#D5626A"/>
<path fill-rule="evenodd" clip-rule="evenodd" d="M41 40H37V41H36V43H37V44H38V46H39V47H40H42V46H43V45H42V44H43V43H42V44H41V46H40V45H39V44H38V43H37V41H40V42H41V41V40Z" fill="#B44131"/>
<path fill-rule="evenodd" clip-rule="evenodd" d="M42 41H41V42H42V41ZM44 43H43V44H44V43ZM42 46H43V47H42V46ZM41 45H40V43H39V42H38V44H37V43H36V45H37H38V44H39V45H40V46H41V45Z" fill="#732000"/>
<path fill-rule="evenodd" clip-rule="evenodd" d="M39 36H40V38H39V36ZM39 38V39H38V38H39ZM41 36H42V37H41V36ZM46 59H47V61H46V59ZM46 61V62H45V61H46Z" fill="#946A41"/>
<path fill-rule="evenodd" clip-rule="evenodd" d="M45 28H51V29H45V28ZM43 30V29H45V30H43ZM42 31V30H43V31H42ZM41 32V31H42V32H41ZM40 34H41V32H40V34ZM40 34V36H39V34H40ZM51 29H52V30H51V29ZM55 38H56V39H55V38ZM55 40H54V41H55V40ZM48 54H49V55H48V54ZM47 57V55H48V57H47ZM46 59V57H47V59H46ZM46 59V61H45V59H46Z" fill="#AC7B41"/>
<path fill-rule="evenodd" clip-rule="evenodd" d="M53 29H52V30H53V31H54V30H53V29ZM48 37H49V38H48V37ZM38 39H39V40H38V39ZM56 32H55V33H56V32ZM56 34H57V35H56V34ZM56 39H55V40H56V39ZM56 42V43V44H57V45H56V49H55V50H54V51H53V52H52V53H51V54H50V55H49V53H50V52H51V51H52V50H53V49H54V47H55V43H54V42H56ZM48 55H49V56H48V55ZM47 55V54H48V55H47ZM47 57V55H46V57H45V59H44V61H45V59H46V57H47ZM47 57H48V58H47V57ZM32 68H31V70H32V69H33V68H34V71H35V72H36V71H35V68V67H36V68H37V69H39V70H40V69H39V68H38V67H37V66H36V65V64H37V63H38V62H39H41H42V61H41V60H39V61H38H37V62H36V63H35V65H34V66H33V67H32V68ZM48 60H47V61H46V62H45V63H46V64H47V65H48V66H50V67H52H55V66H57V65H58H59V66H60V67V69H59V70H60V69H61V67H62V68H63V70H64V68H63V66H62V65H61V64H63V65H65V64H63V63H61H58V64H56V65H54V66H52V65H50V64H49V63H48V61V60Z" fill="#5A3900"/>
<path fill-rule="evenodd" clip-rule="evenodd" d="M51 29H48V30H50V31H51V32V35H50V36H49V38H48V39H46V40H44V41H43V43H44V44V45H45V44H46H47V43H49H50V42H51H53V41H54V40H55V38H56V34H55V32H54V31H53V30H51V29ZM41 34H40V35H41V34Z" fill="#D5BD62"/>
<path fill-rule="evenodd" clip-rule="evenodd" d="M45 29H48V30H50V31H51V35H50V36H47V38H48V39H46V40H44V41H43V42H42V41H41V40H39V38H40V37H42V35H41V32H42V34H43V35H46V34H47V31H46V30H45V29Z" fill="#F6E673"/>
<path fill-rule="evenodd" clip-rule="evenodd" d="M57 52H56V53H55V55H56V56H58V55H59V54H58V53H57V52Z" fill="#ACEE94"/>
<path fill-rule="evenodd" clip-rule="evenodd" d="M47 48H44V49H42V50H41V51H40V52H39V53H41V52H43V51H44V50H45V49H47V48ZM42 54H41V55H44V54H46V53H47V52H48V51V50H47V51H45V52H44V53H42V54ZM55 52H56V53H55V52ZM55 53V55H56V56H57H58V55H60V56V57H61V59H59V58H57V57H56H55V56H54V53H55ZM61 53H62V56H61V54H60V53H59V52H58V51H59H60H61V53ZM58 53H59V54H58V53ZM58 53V52H57V53H58Z" fill="#7BC552"/>
<path fill-rule="evenodd" clip-rule="evenodd" d="M44 47H45V48H44V47ZM42 49V48H44V49H42ZM41 50V49H42V50H41ZM41 50V51H40V50H41ZM48 48H47V49H48V48ZM45 49H46V50H45V49ZM46 50H47V51H46V50ZM44 51H45V52H44V51ZM44 52V53H43V52H44ZM37 54H41V55H44V54H46V53H47V52H48V50H49V51H50V52H49V53H48V54H47V55H46V56H44V57H40V56H38V55H37V54ZM41 54V53H42V54H41ZM54 53H53V57H54V59H55V60H57V61H59H63H64V60H63V59H64H65V60H66V59H65V58H64V57H63V55H62V58H61V59H59V58H57V57H55V56H54V53ZM55 52H54V53H55V52ZM55 52V51H56V52H55ZM62 58H63V59H62V58ZM60 56H61V57H60V56ZM61 54H59V55H61V54ZM57 50H59V51H57V50ZM62 52H61V53H62V52Z" fill="#62A441"/>
<path fill-rule="evenodd" clip-rule="evenodd" d="M48 47H45V48H48V49H46V50H44V51H43V52H41V53H39V52H40V51H39V52H38V53H35V54H41V53H43V52H44V51H46V50H48H49V51H50H51V50H50V49H49V48H48V47ZM44 58V57H45V56H44V57H42V58H44ZM54 52H53V53H54V52ZM55 51V52H54V51H55ZM59 50V49H56V50H55V51H56V52H58V53H59V54H60V53H59V52H58V51H57V50H59ZM61 51H59V50H61V51ZM62 52H61V51H62V52ZM63 55H62V52H63V55ZM64 57H63V55H64V57ZM65 58H64V57H65V58ZM66 59V58H65V59H63V58H62V56H61V55H60V56H61V58H62V59H63V60H64V61H63V62H64V61H65V60V59H66ZM67 60H66V59H67V60ZM67 60H68V61H67V60ZM57 60H56V61H57V62H58V61H57V60Z" fill="#416A10"/>
<path fill-rule="evenodd" clip-rule="evenodd" d="M55 31H54V32H55V31ZM41 35H42V36H41V35ZM41 36V37H40V36H41ZM49 36H48V37H47V38H48V37H49V36ZM55 33H56V34H55V33ZM57 35H56V39H57V35ZM55 40H56V41H55V40ZM54 43V42H55V41H53V42H50V43H47V44H45V45H44V44H43V47H39V46H38V45H37V46H38V47H39V48H43V47H44V46H45V45H47V44H50V43H54ZM54 43H55V44H54V43ZM57 45H56V48H57V45ZM42 42H43V43H42V42ZM40 42H39V43H40V45H41V43H40V42ZM35 53H34V54H35V53ZM36 54H37V55H36V54ZM38 56H37V55H38V56ZM40 57H38V56H40V57ZM40 57H42V58H40V57ZM45 56H46V57H45V56ZM45 58H44V59H45V58ZM48 53H49V54H48V53ZM50 52H49V53H50V52ZM51 51V52H50V51H51ZM51 50V51H52V50H51ZM50 49H51V50H50V49ZM50 49H49V48H50V49ZM55 49H56V50H55V49ZM54 51V50H55V51H54ZM53 52V51H54V52H53ZM53 57V52H52V53H51V54H50V55H49V56H48V58H47V60H48V58H49V56H50V55H51V54H52V57H53ZM54 59H53V57H54V59ZM55 60H54V59H55V60ZM55 60H56V61H55V60ZM37 63H38V64H37V63ZM37 64V65H36V64H37ZM38 63V62H40V63H38ZM45 63H46V64H45V63ZM46 64H47V65H46V64ZM48 62H49V63H48V62ZM50 64H49V63H50V64ZM52 65H50V64H52V65ZM54 65V66H52V65H54ZM54 65V64H56V65H54ZM57 63H58V64H57V63ZM67 60H65V61H67V60ZM63 61H58V62H63V61ZM44 61H45V62H42V61H41V60H44V61ZM36 67H35V69H36V67Z" fill="black"/>
</svg>
