<svg width="100" height="100" viewBox="0 0 100 100" fill="none" xmlns="http://www.w3.org/2000/svg">
<path d="M60 33H59V34H60V33Z" fill="#526229"/>
<path d="M60 34H59V35H60V34Z" fill="#A4D541"/>
<path d="M61 34H60V35H61V34Z" fill="#101010"/>
<path d="M62 34H61V35H62V34Z" fill="#101010"/>
<path d="M59 34H58V35H59V34Z" fill="#526229"/>
<path d="M58 34H57V35H58V34Z" fill="#526229"/>
<path d="M60 35H59V36H60V35Z" fill="#73AC32"/>
<path d="M61 35H60V36H61V35Z" fill="#526229"/>
<path d="M62 35H61V36H62V35Z" fill="#73AC32"/>
<path d="M59 35H58V36H59V35Z" fill="#73AC32"/>
<path d="M58 35H57V36H58V35Z" fill="#A4D541"/>
<path d="M55 35H54V36H55V35Z" fill="#526229"/>
<path d="M56 35H55V36H56V35Z" fill="#526229"/>
<path d="M57 35H56V36H57V35Z" fill="#526229"/>
<path d="M54 35H53V36H54V35Z" fill="#526229"/>
<path d="M53 35H52V36H53V35Z" fill="#73AC32"/>
<path d="M52 35H51V36H52V35Z" fill="#73AC32"/>
<path d="M51 35H50V36H51V35Z" fill="#73AC32"/>
<path d="M50 35H49V36H50V35Z" fill="#73AC32"/>
<path d="M55 36H54V37H55V36Z" fill="#BDFF74"/>
<path d="M56 36H55V37H56V36Z" fill="#A4D541"/>
<path d="M57 36H56V37H57V36Z" fill="#A4D541"/>
<path d="M54 36H53V37H54V36Z" fill="#BDFF74"/>
<path d="M53 36H52V37H53V36Z" fill="#BDFF74"/>
<path d="M52 36H51V37H52V36Z" fill="#BDFF74"/>
<path d="M51 36H50V37H51V36Z" fill="#BDFF74"/>
<path d="M50 36H49V37H50V36Z" fill="#BDFF74"/>
<path d="M49 36H48V37H49V36Z" fill="#73AC32"/>
<path d="M48 36H47V37H48V36Z" fill="#73AC32"/>
<path d="M49 37H48V38H49V37Z" fill="#BDFF74"/>
<path d="M48 37H47V38H48V37Z" fill="#BDFF74"/>
<path d="M49 38H48V39H49V38Z" fill="#BDFF74"/>
<path d="M48 38H47V39H48V38Z" fill="#BDFF74"/>
<path d="M47 37H46V38H47V37Z" fill="#73AC32"/>
<path d="M47 38H46V39H47V38Z" fill="#BDFF74"/>
<path d="M46 38H45V39H46V38Z" fill="#73AC32"/>
<path d="M49 39H48V40H49V39Z" fill="#317373"/>
<path d="M48 39H47V40H48V39Z" fill="#317373"/>
<path d="M47 39H46V40H47V39Z" fill="#317373"/>
<path d="M46 39H45V40H46V39Z" fill="#317373"/>
<path d="M45 39H44V40H45V39Z" fill="#317373"/>
<path d="M44 39H43V40H44V39Z" fill="#317373"/>
<path d="M43 39H42V40H43V39Z" fill="#317373"/>
<path d="M42 39H41V40H42V39Z" fill="#317373"/>
<path d="M41 39H40V40H41V39Z" fill="#317373"/>
<path d="M49 40H48V41H49V40Z" fill="#19494A"/>
<path d="M48 40H47V41H48V40Z" fill="#62D5B4"/>
<path d="M47 40H46V41H47V40Z" fill="#62D5B4"/>
<path d="M46 40H45V41H46V40Z" fill="#62D5B4"/>
<path d="M45 40H44V41H45V40Z" fill="#83EEC5"/>
<path d="M44 40H43V41H44V40Z" fill="#83EEC5"/>
<path d="M43 40H42V41H43V40Z" fill="#83EEC5"/>
<path d="M42 40H41V41H42V40Z" fill="#83EEC5"/>
<path d="M41 40H40V41H41V40Z" fill="#83EEC5"/>
<path d="M40 40H39V41H40V40Z" fill="#317373"/>
<path d="M39 40H38V41H39V40Z" fill="#317373"/>
<path d="M38 40H37V41H38V40Z" fill="#83EEC5"/>
<path d="M37 40H36V41H37V40Z" fill="#83EEC5"/>
<path d="M36 40H35V41H36V40Z" fill="#83EEC5"/>
<path d="M35 40H34V41H35V40Z" fill="#399494"/>
<path d="M40 41H39V42H40V41Z" fill="#83EEC5"/>
<path d="M39 41H38V42H39V41Z" fill="#83EEC5"/>
<path d="M38 41H37V42H38V41Z" fill="#83EEC5"/>
<path d="M37 41H36V42H37V41Z" fill="#399494"/>
<path d="M36 41H35V42H36V41Z" fill="#83EEC5"/>
<path d="M35 41H34V42H35V41Z" fill="#399494"/>
<path d="M40 42H39V43H40V42Z" fill="#83EEC5"/>
<path d="M39 42H38V43H39V42Z" fill="#83EEC5"/>
<path d="M38 42H37V43H38V42Z" fill="#83EEC5"/>
<path d="M37 42H36V43H37V42Z" fill="#83EEC5"/>
<path d="M36 42H35V43H36V42Z" fill="#317373"/>
<path d="M35 42H34V43H35V42Z" fill="#399494"/>
<path d="M40 43H39V44H40V43Z" fill="#83EEC5"/>
<path d="M39 43H38V44H39V43Z" fill="#83EEC5"/>
<path d="M38 43H37V44H38V43Z" fill="#83EEC5"/>
<path d="M37 43H36V44H37V43Z" fill="#83EEC5"/>
<path d="M36 43H35V44H36V43Z" fill="#83EEC5"/>
<path d="M35 43H34V44H35V43Z" fill="#317373"/>
<path d="M40 44H39V45H40V44Z" fill="#83EEC5"/>
<path d="M39 44H38V45H39V44Z" fill="#83EEC5"/>
<path d="M38 44H37V45H38V44Z" fill="#83EEC5"/>
<path d="M37 44H36V45H37V44Z" fill="#83EEC5"/>
<path d="M36 44H35V45H36V44Z" fill="#83EEC5"/>
<path d="M35 44H34V45H35V44Z" fill="#317373"/>
<path d="M40 45H39V46H40V45Z" fill="#83EEC5"/>
<path d="M39 45H38V46H39V45Z" fill="#83EEC5"/>
<path d="M38 45H37V46H38V45Z" fill="#83EEC5"/>
<path d="M37 45H36V46H37V45Z" fill="#62D5B4"/>
<path d="M36 45H35V46H36V45Z" fill="#83EEC5"/>
<path d="M35 45H34V46H35V45Z" fill="#19494A"/>
<path d="M40 46H39V47H40V46Z" fill="#83EEC5"/>
<path d="M39 46H38V47H39V46Z" fill="#83EEC5"/>
<path d="M38 46H37V47H38V46Z" fill="#62D5B4"/>
<path d="M37 46H36V47H37V46Z" fill="#83EEC5"/>
<path d="M36 46H35V47H36V46Z" fill="#399494"/>
<path d="M35 46H34V47H35V46Z" fill="#EE2039"/>
<path d="M40 47H39V48H40V47Z" fill="#83EEC5"/>
<path d="M39 47H38V48H39V47Z" fill="#83EEC5"/>
<path d="M38 47H37V48H38V47Z" fill="#62D5B4"/>
<path d="M37 47H36V48H37V47Z" fill="#83EEC5"/>
<path d="M36 47H35V48H36V47Z" fill="#399494"/>
<path d="M35 47H34V48H35V47Z" fill="#EE2039"/>
<path d="M40 48H39V49H40V48Z" fill="#83EEC5"/>
<path d="M39 48H38V49H39V48Z" fill="#83EEC5"/>
<path d="M38 48H37V49H38V48Z" fill="#83EEC5"/>
<path d="M37 48H36V49H37V48Z" fill="#399494"/>
<path d="M36 48H35V49H36V48Z" fill="white"/>
<path d="M35 48H34V49H35V48Z" fill="#EE2039"/>
<path d="M40 49H39V50H40V49Z" fill="#83EEC5"/>
<path d="M39 49H38V50H39V49Z" fill="#83EEC5"/>
<path d="M38 49H37V50H38V49Z" fill="#62D5B4"/>
<path d="M37 49H36V50H37V49Z" fill="#399494"/>
<path d="M36 49H35V50H36V49Z" fill="white"/>
<path d="M35 49H34V50H35V49Z" fill="#AC1431"/>
<path d="M40 50H39V51H40V50Z" fill="#62D5B4"/>
<path d="M39 50H38V51H39V50Z" fill="#62D5B4"/>
<path d="M38 50H37V51H38V50Z" fill="#62D5B4"/>
<path d="M37 50H36V51H37V50Z" fill="#399494"/>
<path d="M36 50H35V51H36V50Z" fill="#AC1431"/>
<path d="M35 50H34V51H35V50Z" fill="#AC1431"/>
<path d="M40 51H39V52H40V51Z" fill="#62D5B4"/>
<path d="M39 51H38V52H39V51Z" fill="#62D5B4"/>
<path d="M38 51H37V52H38V51Z" fill="#62D5B4"/>
<path d="M37 51H36V52H37V51Z" fill="#62D5B4"/>
<path d="M36 51H35V52H36V51Z" fill="#62D5B4"/>
<path d="M35 51H34V52H35V51Z" fill="#62D5B4"/>
<path d="M40 52H39V53H40V52Z" fill="#62D5B4"/>
<path d="M39 52H38V53H39V52Z" fill="#399494"/>
<path d="M38 52H37V53H38V52Z" fill="#62D5B4"/>
<path d="M37 52H36V53H37V52Z" fill="#62D5B4"/>
<path d="M36 52H35V53H36V52Z" fill="#19494A"/>
<path d="M35 52H34V53H35V52Z" fill="#101010"/>
<path d="M40 53H39V54H40V53Z" fill="#62D5B4"/>
<path d="M39 53H38V54H39V53Z" fill="#62D5B4"/>
<path d="M38 53H37V54H38V53Z" fill="#AC1431"/>
<path d="M37 53H36V54H37V53Z" fill="#AC1431"/>
<path d="M36 53H35V54H36V53Z" fill="white"/>
<path d="M35 53H34V54H35V53Z" fill="#399494"/>
<path d="M34 45H33V46H34V45Z" fill="#317373"/>
<path d="M34 46H33V47H34V46Z" fill="#19494A"/>
<path d="M34 47H33V48H34V47Z" fill="#19494A"/>
<path d="M34 48H33V49H34V48Z" fill="#CDCDCD"/>
<path d="M34 49H33V50H34V49Z" fill="white"/>
<path d="M34 50H33V51H34V50Z" fill="#62D5B4"/>
<path d="M34 51H33V52H34V51Z" fill="#101010"/>
<path d="M34 52H33V53H34V52Z" fill="#399494"/>
<path d="M33 48H32V49H33V48Z" fill="#317373"/>
<path d="M33 49H32V50H33V49Z" fill="#317373"/>
<path d="M33 50H32V51H33V50Z" fill="#317373"/>
<path d="M33 51H32V52H33V51Z" fill="#19494A"/>
<path d="M33 52H32V53H33V52Z" fill="#19494A"/>
<path d="M34 53H33V54H34V53Z" fill="#19494A"/>
<path d="M40 54H39V55H40V54Z" fill="#AC1431"/>
<path d="M39 54H38V55H39V54Z" fill="#AC1431"/>
<path d="M38 54H37V55H38V54Z" fill="#317373"/>
<path d="M37 54H36V55H37V54Z" fill="#399494"/>
<path d="M36 54H35V55H36V54Z" fill="#399494"/>
<path d="M40 55H39V56H40V55Z" fill="#317373"/>
<path d="M39 55H38V56H39V55Z" fill="#399494"/>
<path d="M38 55H37V56H38V55Z" fill="#399494"/>
<path d="M40 56H39V57H40V56Z" fill="#399494"/>
<path d="M39 56H38V57H39V56Z" fill="#101010"/>
<path d="M38 56H37V57H38V56Z" fill="#101010"/>
<path d="M40 57H39V58H40V57Z" fill="#101010"/>
<path d="M39 57H38V58H39V57Z" fill="#399494"/>
<path d="M38 57H37V58H38V57Z" fill="#19494A"/>
<path d="M40 58H39V59H40V58Z" fill="#62D5B4"/>
<path d="M39 58H38V59H39V58Z" fill="#62D5B4"/>
<path d="M40 59H39V60H40V59Z" fill="#399494"/>
<path d="M39 59H38V60H39V59Z" fill="#317373"/>
<path d="M40 60H39V61H40V60Z" fill="#399494"/>
<path d="M39 60H38V61H39V60Z" fill="#317373"/>
<path d="M40 61H39V62H40V61Z" fill="#62D5B4"/>
<path d="M39 61H38V62H39V61Z" fill="#399494"/>
<path d="M40 62H39V63H40V62Z" fill="#317373"/>
<path d="M39 62H38V63H39V62Z" fill="white"/>
<path d="M40 63H39V64H40V63Z" fill="white"/>
<path d="M39 63H38V64H39V63Z" fill="#19494A"/>
<path d="M40 64H39V65H40V64Z" fill="#101010"/>
<path d="M39 64H38V65H39V64Z" fill="white"/>
<path d="M42 61H41V62H42V61Z" fill="#62D5B4"/>
<path d="M41 61H40V62H41V61Z" fill="#62D5B4"/>
<path d="M42 62H41V63H42V62Z" fill="#399494"/>
<path d="M41 62H40V63H41V62Z" fill="#62D5B4"/>
<path d="M42 63H41V64H42V63Z" fill="white"/>
<path d="M41 63H40V64H41V63Z" fill="#19494A"/>
<path d="M42 64H41V65H42V64Z" fill="#101010"/>
<path d="M41 64H40V65H41V64Z" fill="#101010"/>
<path d="M44 61H43V62H44V61Z" fill="#399494"/>
<path d="M43 61H42V62H43V61Z" fill="#62D5B4"/>
<path d="M44 62H43V63H44V62Z" fill="#399494"/>
<path d="M43 62H42V63H43V62Z" fill="#62D5B4"/>
<path d="M44 63H43V64H44V63Z" fill="#399494"/>
<path d="M45 61H44V62H45V61Z" fill="#399494"/>
<path d="M45 62H44V63H45V62Z" fill="#399494"/>
<path d="M46 61H45V62H46V61Z" fill="#101010"/>
<path d="M46 62H45V63H46V62Z" fill="#101010"/>
<path d="M45 63H44V64H45V63Z" fill="#101010"/>
<path d="M43 63H42V64H43V63Z" fill="#19494A"/>
<path d="M44 64H43V65H44V64Z" fill="#101010"/>
<path d="M43 64H42V65H43V64Z" fill="#101010"/>
<path d="M38 58H37V59H38V58Z" fill="#399494"/>
<path d="M37 55H36V56H37V55Z" fill="#101010"/>
<path d="M36 55H35V56H36V55Z" fill="#101010"/>
<path d="M35 54H34V55H35V54Z" fill="#19494A"/>
<path d="M37 39H36V40H37V39Z" fill="#83EEC5"/>
<path d="M36 39H35V40H36V39Z" fill="#83EEC5"/>
<path d="M39 39H38V40H39V39Z" fill="#19494A"/>
<path d="M38 39H37V40H38V39Z" fill="#19494A"/>
<path d="M37 38H36V39H37V38Z" fill="#19494A"/>
<path d="M36 38H35V39H36V38Z" fill="#19494A"/>
<path d="M35 39H34V40H35V39Z" fill="#399494"/>
<path d="M49 41H48V42H49V41Z" fill="#83EEC5"/>
<path d="M48 41H47V42H48V41Z" fill="#62D5B4"/>
<path d="M47 41H46V42H47V41Z" fill="#62D5B4"/>
<path d="M46 41H45V42H46V41Z" fill="#83EEC5"/>
<path d="M45 41H44V42H45V41Z" fill="#399494"/>
<path d="M44 41H43V42H44V41Z" fill="#399494"/>
<path d="M43 41H42V42H43V41Z" fill="#399494"/>
<path d="M42 41H41V42H42V41Z" fill="#83EEC5"/>
<path d="M41 41H40V42H41V41Z" fill="#83EEC5"/>
<path d="M49 42H48V43H49V42Z" fill="#62D5B4"/>
<path d="M48 42H47V43H48V42Z" fill="#62D5B4"/>
<path d="M47 42H46V43H47V42Z" fill="#83EEC5"/>
<path d="M46 42H45V43H46V42Z" fill="#83EEC5"/>
<path d="M45 42H44V43H45V42Z" fill="#399494"/>
<path d="M44 42H43V43H44V42Z" fill="#399494"/>
<path d="M43 42H42V43H43V42Z" fill="#399494"/>
<path d="M42 42H41V43H42V42Z" fill="#399494"/>
<path d="M41 42H40V43H41V42Z" fill="#83EEC5"/>
<path d="M49 43H48V44H49V43Z" fill="#62D5B4"/>
<path d="M48 43H47V44H48V43Z" fill="#62D5B4"/>
<path d="M47 43H46V44H47V43Z" fill="#83EEC5"/>
<path d="M46 43H45V44H46V43Z" fill="#83EEC5"/>
<path d="M45 43H44V44H45V43Z" fill="#83EEC5"/>
<path d="M44 43H43V44H44V43Z" fill="#399494"/>
<path d="M43 43H42V44H43V43Z" fill="#399494"/>
<path d="M42 43H41V44H42V43Z" fill="#399494"/>
<path d="M41 43H40V44H41V43Z" fill="#399494"/>
<path d="M49 44H48V45H49V44Z" fill="#399494"/>
<path d="M48 44H47V45H48V44Z" fill="#62D5B4"/>
<path d="M47 44H46V45H47V44Z" fill="#83EEC5"/>
<path d="M46 44H45V45H46V44Z" fill="#83EEC5"/>
<path d="M45 44H44V45H45V44Z" fill="#83EEC5"/>
<path d="M44 44H43V45H44V44Z" fill="#83EEC5"/>
<path d="M43 44H42V45H43V44Z" fill="#399494"/>
<path d="M42 44H41V45H42V44Z" fill="#399494"/>
<path d="M41 44H40V45H41V44Z" fill="#399494"/>
<path d="M49 45H48V46H49V45Z" fill="#CDCDCD"/>
<path d="M48 45H47V46H48V45Z" fill="#317373"/>
<path d="M47 45H46V46H47V45Z" fill="#83EEC5"/>
<path d="M46 45H45V46H46V45Z" fill="#62D5B4"/>
<path d="M45 45H44V46H45V45Z" fill="#83EEC5"/>
<path d="M44 45H43V46H44V45Z" fill="#83EEC5"/>
<path d="M43 45H42V46H43V45Z" fill="#83EEC5"/>
<path d="M42 45H41V46H42V45Z" fill="#83EEC5"/>
<path d="M41 45H40V46H41V45Z" fill="#83EEC5"/>
<path d="M49 46H48V47H49V46Z" fill="#AC1431"/>
<path d="M48 46H47V47H48V46Z" fill="#EE2039"/>
<path d="M47 46H46V47H47V46Z" fill="#317373"/>
<path d="M46 46H45V47H46V46Z" fill="#83EEC5"/>
<path d="M45 46H44V47H45V46Z" fill="#62D5B4"/>
<path d="M44 46H43V47H44V46Z" fill="#83EEC5"/>
<path d="M43 46H42V47H43V46Z" fill="#399494"/>
<path d="M42 46H41V47H42V46Z" fill="#399494"/>
<path d="M41 46H40V47H41V46Z" fill="#83EEC5"/>
<path d="M49 47H48V48H49V47Z" fill="#AC1431"/>
<path d="M48 47H47V48H48V47Z" fill="#EE2039"/>
<path d="M47 47H46V48H47V47Z" fill="#317373"/>
<path d="M46 47H45V48H46V47Z" fill="#83EEC5"/>
<path d="M45 47H44V48H45V47Z" fill="#62D5B4"/>
<path d="M44 47H43V48H44V47Z" fill="#83EEC5"/>
<path d="M43 47H42V48H43V47Z" fill="#399494"/>
<path d="M42 47H41V48H42V47Z" fill="#399494"/>
<path d="M41 47H40V48H41V47Z" fill="#399494"/>
<path d="M49 48H48V49H49V48Z" fill="#AC1431"/>
<path d="M48 48H47V49H48V48Z" fill="white"/>
<path d="M47 48H46V49H47V48Z" fill="#EE2039"/>
<path d="M46 48H45V49H46V48Z" fill="#399494"/>
<path d="M45 48H44V49H45V48Z" fill="#83EEC5"/>
<path d="M44 48H43V49H44V48Z" fill="#83EEC5"/>
<path d="M43 48H42V49H43V48Z" fill="#83EEC5"/>
<path d="M42 48H41V49H42V48Z" fill="#399494"/>
<path d="M41 48H40V49H41V48Z" fill="#399494"/>
<path d="M49 49H48V50H49V49Z" fill="#FA6A62"/>
<path d="M48 49H47V50H48V49Z" fill="white"/>
<path d="M47 49H46V50H47V49Z" fill="#AC1431"/>
<path d="M46 49H45V50H46V49Z" fill="#399494"/>
<path d="M45 49H44V50H45V49Z" fill="#62D5B4"/>
<path d="M44 49H43V50H44V49Z" fill="#83EEC5"/>
<path d="M43 49H42V50H43V49Z" fill="#83EEC5"/>
<path d="M42 49H41V50H42V49Z" fill="#83EEC5"/>
<path d="M41 49H40V50H41V49Z" fill="#83EEC5"/>
<path d="M49 50H48V51H49V50Z" fill="#FA6A62"/>
<path d="M48 50H47V51H48V50Z" fill="#AC1431"/>
<path d="M47 50H46V51H47V50Z" fill="#AC1431"/>
<path d="M46 50H45V51H46V50Z" fill="#399494"/>
<path d="M45 50H44V51H45V50Z" fill="#62D5B4"/>
<path d="M44 50H43V51H44V50Z" fill="#62D5B4"/>
<path d="M43 50H42V51H43V50Z" fill="#62D5B4"/>
<path d="M42 50H41V51H42V50Z" fill="#62D5B4"/>
<path d="M41 50H40V51H41V50Z" fill="#62D5B4"/>
<path d="M49 51H48V52H49V51Z" fill="#62D5B4"/>
<path d="M48 51H47V52H48V51Z" fill="#62D5B4"/>
<path d="M47 51H46V52H47V51Z" fill="#62D5B4"/>
<path d="M46 51H45V52H46V51Z" fill="#62D5B4"/>
<path d="M45 51H44V52H45V51Z" fill="#62D5B4"/>
<path d="M44 51H43V52H44V51Z" fill="#62D5B4"/>
<path d="M43 51H42V52H43V51Z" fill="#62D5B4"/>
<path d="M42 51H41V52H42V51Z" fill="#62D5B4"/>
<path d="M41 51H40V52H41V51Z" fill="#62D5B4"/>
<path d="M49 52H48V53H49V52Z" fill="#317373"/>
<path d="M48 52H47V53H48V52Z" fill="#62D5B4"/>
<path d="M47 52H46V53H47V52Z" fill="#62D5B4"/>
<path d="M46 52H45V53H46V52Z" fill="#62D5B4"/>
<path d="M45 52H44V53H45V52Z" fill="#62D5B4"/>
<path d="M44 52H43V53H44V52Z" fill="#62D5B4"/>
<path d="M43 52H42V53H43V52Z" fill="#62D5B4"/>
<path d="M42 52H41V53H42V52Z" fill="#317373"/>
<path d="M41 52H40V53H41V52Z" fill="#62D5B4"/>
<path d="M49 53H48V54H49V53Z" fill="white"/>
<path d="M48 53H47V54H48V53Z" fill="#101010"/>
<path d="M47 53H46V54H47V53Z" fill="#101010"/>
<path d="M46 53H45V54H46V53Z" fill="#101010"/>
<path d="M45 53H44V54H45V53Z" fill="#19494A"/>
<path d="M44 53H43V54H44V53Z" fill="#317373"/>
<path d="M43 53H42V54H43V53Z" fill="#62D5B4"/>
<path d="M42 53H41V54H42V53Z" fill="#62D5B4"/>
<path d="M41 53H40V54H41V53Z" fill="#62D5B4"/>
<path d="M49 54H48V55H49V54Z" fill="#317373"/>
<path d="M48 54H47V55H48V54Z" fill="#AC1431"/>
<path d="M47 54H46V55H47V54Z" fill="#AC1431"/>
<path d="M46 54H45V55H46V54Z" fill="#AC1431"/>
<path d="M45 54H44V55H45V54Z" fill="#AC1431"/>
<path d="M44 54H43V55H44V54Z" fill="#AC1431"/>
<path d="M43 54H42V55H43V54Z" fill="#AC1431"/>
<path d="M42 54H41V55H42V54Z" fill="#AC1431"/>
<path d="M41 54H40V55H41V54Z" fill="#AC1431"/>
<path d="M49 55H48V56H49V55Z" fill="#399494"/>
<path d="M48 55H47V56H48V55Z" fill="#399494"/>
<path d="M47 55H46V56H47V55Z" fill="#317373"/>
<path d="M46 55H45V56H46V55Z" fill="#FA6A62"/>
<path d="M45 55H44V56H45V55Z" fill="#FA6A62"/>
<path d="M44 55H43V56H44V55Z" fill="#FA6A62"/>
<path d="M43 55H42V56H43V55Z" fill="#FA6A62"/>
<path d="M42 55H41V56H42V55Z" fill="#EE2039"/>
<path d="M41 55H40V56H41V55Z" fill="#AC1431"/>
<path d="M49 56H48V57H49V56Z" fill="#101010"/>
<path d="M48 56H47V57H48V56Z" fill="#399494"/>
<path d="M47 56H46V57H47V56Z" fill="#399494"/>
<path d="M46 56H45V57H46V56Z" fill="#399494"/>
<path d="M45 56H44V57H45V56Z" fill="#399494"/>
<path d="M44 56H43V57H44V56Z" fill="#399494"/>
<path d="M43 56H42V57H43V56Z" fill="#399494"/>
<path d="M42 56H41V57H42V56Z" fill="#399494"/>
<path d="M41 56H40V57H41V56Z" fill="#399494"/>
<path d="M49 57H48V58H49V57Z" fill="#399494"/>
<path d="M48 57H47V58H48V57Z" fill="#101010"/>
<path d="M47 57H46V58H47V57Z" fill="#101010"/>
<path d="M46 57H45V58H46V57Z" fill="#101010"/>
<path d="M45 57H44V58H45V57Z" fill="#101010"/>
<path d="M44 57H43V58H44V57Z" fill="#101010"/>
<path d="M43 57H42V58H43V57Z" fill="#101010"/>
<path d="M42 57H41V58H42V57Z" fill="#101010"/>
<path d="M41 57H40V58H41V57Z" fill="#101010"/>
<path d="M49 58H48V59H49V58Z" fill="#399494"/>
<path d="M48 58H47V59H48V58Z" fill="#399494"/>
<path d="M47 58H46V59H47V58Z" fill="#399494"/>
<path d="M46 58H45V59H46V58Z" fill="#399494"/>
<path d="M45 58H44V59H45V58Z" fill="#399494"/>
<path d="M44 58H43V59H44V58Z" fill="#399494"/>
<path d="M43 58H42V59H43V58Z" fill="#19494A"/>
<path d="M42 58H41V59H42V58Z" fill="#399494"/>
<path d="M41 58H40V59H41V58Z" fill="#62D5B4"/>
<path d="M49 59H48V60H49V59Z" fill="#19494A"/>
<path d="M48 59H47V60H48V59Z" fill="#399494"/>
<path d="M47 59H46V60H47V59Z" fill="#399494"/>
<path d="M46 59H45V60H46V59Z" fill="#399494"/>
<path d="M45 59H44V60H45V59Z" fill="#101010"/>
<path d="M44 59H43V60H44V59Z" fill="#19494A"/>
<path d="M43 59H42V60H43V59Z" fill="#399494"/>
<path d="M42 59H41V60H42V59Z" fill="#62D5B4"/>
<path d="M41 59H40V60H41V59Z" fill="#62D5B4"/>
<path d="M49 60H48V61H49V60Z" fill="#19494A"/>
<path d="M48 60H47V61H48V60Z" fill="#101010"/>
<path d="M47 60H46V61H47V60Z" fill="#101010"/>
<path d="M46 60H45V61H46V60Z" fill="#101010"/>
<path d="M45 60H44V61H45V60Z" fill="#399494"/>
<path d="M44 60H43V61H44V60Z" fill="#399494"/>
<path d="M43 60H42V61H43V60Z" fill="#399494"/>
<path d="M42 60H41V61H42V60Z" fill="#62D5B4"/>
<path d="M41 60H40V61H41V60Z" fill="#62D5B4"/>
<path d="M55 37H54V38H55V37Z" fill="#BDFF74"/>
<path d="M56 37H55V38H56V37Z" fill="#BDFF74"/>
<path d="M57 37H56V38H57V37Z" fill="#73AC32"/>
<path d="M54 37H53V38H54V37Z" fill="#BDFF74"/>
<path d="M53 37H52V38H53V37Z" fill="#BDFF74"/>
<path d="M52 37H51V38H52V37Z" fill="#BDFF74"/>
<path d="M51 37H50V38H51V37Z" fill="#BDFF74"/>
<path d="M50 37H49V38H50V37Z" fill="#BDFF74"/>
<path d="M55 38H54V39H55V38Z" fill="#73AC32"/>
<path d="M56 38H55V39H56V38Z" fill="#73AC32"/>
<path d="M57 38H56V39H57V38Z" fill="#BDFF74"/>
<path d="M54 38H53V39H54V38Z" fill="#73AC32"/>
<path d="M53 38H52V39H53V38Z" fill="#101010"/>
<path d="M52 38H51V39H52V38Z" fill="#19494A"/>
<path d="M51 38H50V39H51V38Z" fill="#BDFF74"/>
<path d="M50 38H49V39H50V38Z" fill="#BDFF74"/>
<path d="M55 39H54V40H55V39Z" fill="#BDFF74"/>
<path d="M56 39H55V40H56V39Z" fill="#BDFF74"/>
<path d="M57 39H56V40H57V39Z" fill="#BDFF74"/>
<path d="M54 39H53V40H54V39Z" fill="#101010"/>
<path d="M53 39H52V40H53V39Z" fill="#62D5B4"/>
<path d="M52 39H51V40H52V39Z" fill="#83EEC5"/>
<path d="M51 39H50V40H51V39Z" fill="#19494A"/>
<path d="M50 39H49V40H50V39Z" fill="#19494A"/>
<path d="M55 40H54V41H55V40Z" fill="#BDFF74"/>
<path d="M56 40H55V41H56V40Z" fill="#BDFF74"/>
<path d="M57 40H56V41H57V40Z" fill="#BDFF74"/>
<path d="M54 40H53V41H54V40Z" fill="#101010"/>
<path d="M53 40H52V41H53V40Z" fill="#62D5B4"/>
<path d="M52 40H51V41H52V40Z" fill="#83EEC5"/>
<path d="M51 40H50V41H51V40Z" fill="#83EEC5"/>
<path d="M50 40H49V41H50V40Z" fill="#83EEC5"/>
<path d="M55 41H54V42H55V41Z" fill="#BDFF74"/>
<path d="M56 41H55V42H56V41Z" fill="#BDFF74"/>
<path d="M57 41H56V42H57V41Z" fill="#BDFF74"/>
<path d="M54 41H53V42H54V41Z" fill="#101010"/>
<path d="M53 41H52V42H53V41Z" fill="#62D5B4"/>
<path d="M52 41H51V42H52V41Z" fill="#62D5B4"/>
<path d="M51 41H50V42H51V41Z" fill="#83EEC5"/>
<path d="M50 41H49V42H50V41Z" fill="#83EEC5"/>
<path d="M55 42H54V43H55V42Z" fill="#101010"/>
<path d="M56 42H55V43H56V42Z" fill="#BDFF74"/>
<path d="M57 42H56V43H57V42Z" fill="#BDFF74"/>
<path d="M54 42H53V43H54V42Z" fill="#399494"/>
<path d="M53 42H52V43H53V42Z" fill="#62D5B4"/>
<path d="M52 42H51V43H52V42Z" fill="#62D5B4"/>
<path d="M51 42H50V43H51V42Z" fill="#62D5B4"/>
<path d="M50 42H49V43H50V42Z" fill="#62D5B4"/>
<path d="M55 43H54V44H55V43Z" fill="#101010"/>
<path d="M56 43H55V44H56V43Z" fill="#BDFF74"/>
<path d="M57 43H56V44H57V43Z" fill="#BDFF74"/>
<path d="M54 43H53V44H54V43Z" fill="#399494"/>
<path d="M53 43H52V44H53V43Z" fill="#62D5B4"/>
<path d="M52 43H51V44H52V43Z" fill="#62D5B4"/>
<path d="M51 43H50V44H51V43Z" fill="#62D5B4"/>
<path d="M50 43H49V44H50V43Z" fill="#62D5B4"/>
<path d="M55 44H54V45H55V44Z" fill="#101010"/>
<path d="M56 44H55V45H56V44Z" fill="#BDFF74"/>
<path d="M57 44H56V45H57V44Z" fill="#A4D541"/>
<path d="M54 44H53V45H54V44Z" fill="#399494"/>
<path d="M53 44H52V45H53V44Z" fill="#62D5B4"/>
<path d="M52 44H51V45H52V44Z" fill="#62D5B4"/>
<path d="M51 44H50V45H51V44Z" fill="#62D5B4"/>
<path d="M50 44H49V45H50V44Z" fill="#399494"/>
<path d="M55 45H54V46H55V45Z" fill="#399494"/>
<path d="M56 45H55V46H56V45Z" fill="#101010"/>
<path d="M57 45H56V46H57V45Z" fill="#A4D541"/>
<path d="M54 45H53V46H54V45Z" fill="#399494"/>
<path d="M53 45H52V46H53V45Z" fill="#399494"/>
<path d="M52 45H51V46H52V45Z" fill="#62D5B4"/>
<path d="M51 45H50V46H51V45Z" fill="#19494A"/>
<path d="M50 45H49V46H50V45Z" fill="#CDCDCD"/>
<path d="M55 46H54V47H55V46Z" fill="#399494"/>
<path d="M56 46H55V47H56V46Z" fill="#101010"/>
<path d="M57 46H56V47H57V46Z" fill="#19494A"/>
<path d="M54 46H53V47H54V46Z" fill="#399494"/>
<path d="M53 46H52V47H53V46Z" fill="#399494"/>
<path d="M52 46H51V47H52V46Z" fill="#19494A"/>
<path d="M51 46H50V47H51V46Z" fill="#CDCDCD"/>
<path d="M50 46H49V47H50V46Z" fill="white"/>
<path d="M55 47H54V48H55V47Z" fill="#399494"/>
<path d="M56 47H55V48H56V47Z" fill="#101010"/>
<path d="M57 47H56V48H57V47Z" fill="#19494A"/>
<path d="M54 47H53V48H54V47Z" fill="#399494"/>
<path d="M53 47H52V48H53V47Z" fill="#399494"/>
<path d="M52 47H51V48H52V47Z" fill="#19494A"/>
<path d="M51 47H50V48H51V47Z" fill="white"/>
<path d="M50 47H49V48H50V47Z" fill="white"/>
<path d="M55 48H54V49H55V48Z" fill="#399494"/>
<path d="M56 48H55V49H56V48Z" fill="#19494A"/>
<path d="M57 48H56V49H57V48Z" fill="#399494"/>
<path d="M54 48H53V49H54V48Z" fill="#399494"/>
<path d="M53 48H52V49H53V48Z" fill="#399494"/>
<path d="M52 48H51V49H52V48Z" fill="#CDCDCD"/>
<path d="M51 48H50V49H51V48Z" fill="white"/>
<path d="M50 48H49V49H50V48Z" fill="#AC1431"/>
<path d="M55 49H54V50H55V49Z" fill="#399494"/>
<path d="M56 49H55V50H56V49Z" fill="#317373"/>
<path d="M57 49H56V50H57V49Z" fill="#399494"/>
<path d="M54 49H53V50H54V49Z" fill="#399494"/>
<path d="M53 49H52V50H53V49Z" fill="#399494"/>
<path d="M52 49H51V50H52V49Z" fill="#CDCDCD"/>
<path d="M51 49H50V50H51V49Z" fill="white"/>
<path d="M50 49H49V50H50V49Z" fill="#FA6A62"/>
<path d="M55 50H54V51H55V50Z" fill="#399494"/>
<path d="M56 50H55V51H56V50Z" fill="#399494"/>
<path d="M57 50H56V51H57V50Z" fill="#399494"/>
<path d="M54 50H53V51H54V50Z" fill="#399494"/>
<path d="M53 50H52V51H53V50Z" fill="#399494"/>
<path d="M52 50H51V51H52V50Z" fill="#399494"/>
<path d="M51 50H50V51H51V50Z" fill="#CDCDCD"/>
<path d="M50 50H49V51H50V50Z" fill="#FA6A62"/>
<path d="M55 51H54V52H55V51Z" fill="#399494"/>
<path d="M56 51H55V52H56V51Z" fill="#399494"/>
<path d="M57 51H56V52H57V51Z" fill="#399494"/>
<path d="M54 51H53V52H54V51Z" fill="#399494"/>
<path d="M53 51H52V52H53V51Z" fill="#19494A"/>
<path d="M52 51H51V52H52V51Z" fill="#399494"/>
<path d="M51 51H50V52H51V51Z" fill="#399494"/>
<path d="M50 51H49V52H50V51Z" fill="#62D5B4"/>
<path d="M55 52H54V53H55V52Z" fill="#317373"/>
<path d="M56 52H55V53H56V52Z" fill="#399494"/>
<path d="M57 52H56V53H57V52Z" fill="#399494"/>
<path d="M54 52H53V53H54V52Z" fill="#399494"/>
<path d="M53 52H52V53H53V52Z" fill="#399494"/>
<path d="M52 52H51V53H52V52Z" fill="#101010"/>
<path d="M51 52H50V53H51V52Z" fill="#101010"/>
<path d="M50 52H49V53H50V52Z" fill="#19494A"/>
<path d="M55 53H54V54H55V53Z" fill="#19494A"/>
<path d="M56 53H55V54H56V53Z" fill="#399494"/>
<path d="M57 53H56V54H57V53Z" fill="#399494"/>
<path d="M54 53H53V54H54V53Z" fill="#399494"/>
<path d="M53 53H52V54H53V53Z" fill="#399494"/>
<path d="M52 53H51V54H52V53Z" fill="#399494"/>
<path d="M51 53H50V54H51V53Z" fill="#399494"/>
<path d="M50 53H49V54H50V53Z" fill="#317373"/>
<path d="M55 54H54V55H55V54Z" fill="#399494"/>
<path d="M56 54H55V55H56V54Z" fill="#399494"/>
<path d="M57 54H56V55H57V54Z" fill="#399494"/>
<path d="M54 54H53V55H54V54Z" fill="#19494A"/>
<path d="M53 54H52V55H53V54Z" fill="#399494"/>
<path d="M52 54H51V55H52V54Z" fill="#399494"/>
<path d="M51 54H50V55H51V54Z" fill="#399494"/>
<path d="M50 54H49V55H50V54Z" fill="#399494"/>
<path d="M55 55H54V56H55V55Z" fill="#399494"/>
<path d="M56 55H55V56H56V55Z" fill="#399494"/>
<path d="M57 55H56V56H57V55Z" fill="#399494"/>
<path d="M54 55H53V56H54V55Z" fill="#399494"/>
<path d="M53 55H52V56H53V55Z" fill="#101010"/>
<path d="M52 55H51V56H52V55Z" fill="#101010"/>
<path d="M51 55H50V56H51V55Z" fill="#399494"/>
<path d="M50 55H49V56H50V55Z" fill="#399494"/>
<path d="M55 56H54V57H55V56Z" fill="#317373"/>
<path d="M56 56H55V57H56V56Z" fill="#399494"/>
<path d="M57 56H56V57H57V56Z" fill="#399494"/>
<path d="M54 56H53V57H54V56Z" fill="#399494"/>
<path d="M53 56H52V57H53V56Z" fill="#399494"/>
<path d="M52 56H51V57H52V56Z" fill="#399494"/>
<path d="M51 56H50V57H51V56Z" fill="#101010"/>
<path d="M50 56H49V57H50V56Z" fill="#101010"/>
<path d="M55 57H54V58H55V57Z" fill="#19494A"/>
<path d="M56 57H55V58H56V57Z" fill="#399494"/>
<path d="M57 57H56V58H57V57Z" fill="#399494"/>
<path d="M54 57H53V58H54V57Z" fill="#399494"/>
<path d="M53 57H52V58H53V57Z" fill="#399494"/>
<path d="M52 57H51V58H52V57Z" fill="#399494"/>
<path d="M51 57H50V58H51V57Z" fill="#399494"/>
<path d="M50 57H49V58H50V57Z" fill="#399494"/>
<path d="M55 58H54V59H55V58Z" fill="#399494"/>
<path d="M56 58H55V59H56V58Z" fill="#19494A"/>
<path d="M57 58H56V59H57V58Z" fill="#101010"/>
<path d="M54 58H53V59H54V58Z" fill="#399494"/>
<path d="M53 58H52V59H53V58Z" fill="#399494"/>
<path d="M52 58H51V59H52V58Z" fill="#62D5B4"/>
<path d="M51 58H50V59H51V58Z" fill="#62D5B4"/>
<path d="M50 58H49V59H50V58Z" fill="#19494A"/>
<path d="M55 59H54V60H55V59Z" fill="#399494"/>
<path d="M56 59H55V60H56V59Z" fill="#19494A"/>
<path d="M57 59H56V60H57V59Z" fill="#101010"/>
<path d="M54 59H53V60H54V59Z" fill="#399494"/>
<path d="M53 59H52V60H53V59Z" fill="#62D5B4"/>
<path d="M52 59H51V60H52V59Z" fill="#62D5B4"/>
<path d="M51 59H50V60H51V59Z" fill="#399494"/>
<path d="M50 59H49V60H50V59Z" fill="#399494"/>
<path d="M55 60H54V61H55V60Z" fill="#399494"/>
<path d="M56 60H55V61H56V60Z" fill="#19494A"/>
<path d="M57 60H56V61H57V60Z" fill="#101010"/>
<path d="M54 60H53V61H54V60Z" fill="#399494"/>
<path d="M53 60H52V61H53V60Z" fill="#62D5B4"/>
<path d="M52 60H51V61H52V60Z" fill="#399494"/>
<path d="M51 60H50V61H51V60Z" fill="#399494"/>
<path d="M50 60H49V61H50V60Z" fill="#399494"/>
<path d="M49 61H48V62H49V61Z" fill="#399494"/>
<path d="M55 61H54V62H55V61Z" fill="#399494"/>
<path d="M56 61H55V62H56V61Z" fill="#19494A"/>
<path d="M54 61H53V62H54V61Z" fill="#399494"/>
<path d="M53 61H52V62H53V61Z" fill="#62D5B4"/>
<path d="M52 61H51V62H52V61Z" fill="#399494"/>
<path d="M51 61H50V62H51V61Z" fill="#399494"/>
<path d="M50 61H49V62H50V61Z" fill="#62D5B4"/>
<path d="M49 62H48V63H49V62Z" fill="#399494"/>
<path d="M55 62H54V63H55V62Z" fill="#101010"/>
<path d="M54 62H53V63H54V62Z" fill="#399494"/>
<path d="M53 62H52V63H53V62Z" fill="#62D5B4"/>
<path d="M52 62H51V63H52V62Z" fill="#62D5B4"/>
<path d="M51 62H50V63H51V62Z" fill="#62D5B4"/>
<path d="M50 62H49V63H50V62Z" fill="#62D5B4"/>
<path d="M49 63H48V64H49V63Z" fill="#19494A"/>
<path d="M55 63H54V64H55V63Z" fill="#101010"/>
<path d="M54 63H53V64H54V63Z" fill="#399494"/>
<path d="M53 63H52V64H53V63Z" fill="#399494"/>
<path d="M52 63H51V64H52V63Z" fill="#62D5B4"/>
<path d="M51 63H50V64H51V63Z" fill="#399494"/>
<path d="M50 63H49V64H50V63Z" fill="#62D5B4"/>
<path d="M49 64H48V65H49V64Z" fill="white"/>
<path d="M48 64H47V65H48V64Z" fill="#19494A"/>
<path d="M54 64H53V65H54V64Z" fill="#101010"/>
<path d="M53 64H52V65H53V64Z" fill="white"/>
<path d="M52 64H51V65H52V64Z" fill="#19494A"/>
<path d="M51 64H50V65H51V64Z" fill="white"/>
<path d="M50 64H49V65H50V64Z" fill="#19494A"/>
<path d="M49 65H48V66H49V65Z" fill="#101010"/>
<path d="M53 65H52V66H53V65Z" fill="#101010"/>
<path d="M52 65H51V66H52V65Z" fill="#101010"/>
<path d="M51 65H50V66H51V65Z" fill="#101010"/>
<path d="M50 65H49V66H50V65Z" fill="#101010"/>
<path d="M60 36H59V37H60V36Z" fill="#A4D541"/>
<path d="M61 36H60V37H61V36Z" fill="#526229"/>
<path d="M62 36H61V37H62V36Z" fill="#73AC32"/>
<path d="M59 36H58V37H59V36Z" fill="#73AC32"/>
<path d="M58 36H57V37H58V36Z" fill="#A4D541"/>
<path d="M60 37H59V38H60V37Z" fill="#A4D541"/>
<path d="M61 37H60V38H61V37Z" fill="#73AC32"/>
<path d="M62 37H61V38H62V37Z" fill="#526229"/>
<path d="M59 37H58V38H59V37Z" fill="#A4D541"/>
<path d="M58 37H57V38H58V37Z" fill="#73AC32"/>
<path d="M60 38H59V39H60V38Z" fill="#A4D541"/>
<path d="M61 38H60V39H61V38Z" fill="#73AC32"/>
<path d="M62 38H61V39H62V38Z" fill="#526229"/>
<path d="M59 38H58V39H59V38Z" fill="#A4D541"/>
<path d="M58 38H57V39H58V38Z" fill="#A4D541"/>
<path d="M60 39H59V40H60V39Z" fill="#A4D541"/>
<path d="M61 39H60V40H61V39Z" fill="#A4D541"/>
<path d="M62 39H61V40H62V39Z" fill="#526229"/>
<path d="M59 39H58V40H59V39Z" fill="#A4D541"/>
<path d="M58 39H57V40H58V39Z" fill="#BDFF74"/>
<path d="M60 40H59V41H60V40Z" fill="#A4D541"/>
<path d="M61 40H60V41H61V40Z" fill="#A4D541"/>
<path d="M62 40H61V41H62V40Z" fill="#526229"/>
<path d="M59 40H58V41H59V40Z" fill="#A4D541"/>
<path d="M58 40H57V41H58V40Z" fill="#BDFF74"/>
<path d="M60 41H59V42H60V41Z" fill="#A4D541"/>
<path d="M61 41H60V42H61V41Z" fill="#A4D541"/>
<path d="M62 41H61V42H62V41Z" fill="#73AC32"/>
<path d="M59 41H58V42H59V41Z" fill="#A4D541"/>
<path d="M58 41H57V42H58V41Z" fill="#BDFF74"/>
<path d="M60 42H59V43H60V42Z" fill="#A4D541"/>
<path d="M61 42H60V43H61V42Z" fill="#A4D541"/>
<path d="M62 42H61V43H62V42Z" fill="#73AC32"/>
<path d="M59 42H58V43H59V42Z" fill="#A4D541"/>
<path d="M58 42H57V43H58V42Z" fill="#BDFF74"/>
<path d="M60 43H59V44H60V43Z" fill="#A4D541"/>
<path d="M61 43H60V44H61V43Z" fill="#A4D541"/>
<path d="M62 43H61V44H62V43Z" fill="#73AC32"/>
<path d="M59 43H58V44H59V43Z" fill="#A4D541"/>
<path d="M58 43H57V44H58V43Z" fill="#A4D541"/>
<path d="M60 44H59V45H60V44Z" fill="#A4D541"/>
<path d="M61 44H60V45H61V44Z" fill="#73AC32"/>
<path d="M62 44H61V45H62V44Z" fill="#73AC32"/>
<path d="M59 44H58V45H59V44Z" fill="#A4D541"/>
<path d="M58 44H57V45H58V44Z" fill="#A4D541"/>
<path d="M60 45H59V46H60V45Z" fill="#73AC32"/>
<path d="M61 45H60V46H61V45Z" fill="#73AC32"/>
<path d="M62 45H61V46H62V45Z" fill="#73AC32"/>
<path d="M59 45H58V46H59V45Z" fill="#A4D541"/>
<path d="M58 45H57V46H58V45Z" fill="#A4D541"/>
<path d="M60 46H59V47H60V46Z" fill="#73AC32"/>
<path d="M61 46H60V47H61V46Z" fill="#73AC32"/>
<path d="M62 46H61V47H62V46Z" fill="#73AC32"/>
<path d="M59 46H58V47H59V46Z" fill="#73AC32"/>
<path d="M58 46H57V47H58V46Z" fill="#73AC32"/>
<path d="M60 47H59V48H60V47Z" fill="#73AC32"/>
<path d="M61 47H60V48H61V47Z" fill="#73AC32"/>
<path d="M62 47H61V48H62V47Z" fill="#73AC32"/>
<path d="M59 47H58V48H59V47Z" fill="#73AC32"/>
<path d="M58 47H57V48H58V47Z" fill="#73AC32"/>
<path d="M60 48H59V49H60V48Z" fill="#73AC32"/>
<path d="M61 48H60V49H61V48Z" fill="#73AC32"/>
<path d="M62 48H61V49H62V48Z" fill="#73AC32"/>
<path d="M59 48H58V49H59V48Z" fill="#73AC32"/>
<path d="M58 48H57V49H58V48Z" fill="#19494A"/>
<path d="M60 49H59V50H60V49Z" fill="#73AC32"/>
<path d="M61 49H60V50H61V49Z" fill="#73AC32"/>
<path d="M62 49H61V50H62V49Z" fill="#526229"/>
<path d="M59 49H58V50H59V49Z" fill="#19494A"/>
<path d="M58 49H57V50H58V49Z" fill="#399494"/>
<path d="M60 50H59V51H60V50Z" fill="#19494A"/>
<path d="M61 50H60V51H61V50Z" fill="#19494A"/>
<path d="M62 50H61V51H62V50Z" fill="#73AC32"/>
<path d="M59 50H58V51H59V50Z" fill="#399494"/>
<path d="M58 50H57V51H58V50Z" fill="#399494"/>
<path d="M60 51H59V52H60V51Z" fill="#399494"/>
<path d="M61 51H60V52H61V51Z" fill="#399494"/>
<path d="M62 51H61V52H62V51Z" fill="#19494A"/>
<path d="M59 51H58V52H59V51Z" fill="#399494"/>
<path d="M58 51H57V52H58V51Z" fill="#399494"/>
<path d="M60 52H59V53H60V52Z" fill="#19494A"/>
<path d="M61 52H60V53H61V52Z" fill="#399494"/>
<path d="M62 52H61V53H62V52Z" fill="#399494"/>
<path d="M59 52H58V53H59V52Z" fill="#19494A"/>
<path d="M58 52H57V53H58V52Z" fill="#399494"/>
<path d="M60 53H59V54H60V53Z" fill="#19494A"/>
<path d="M61 53H60V54H61V53Z" fill="#19494A"/>
<path d="M62 53H61V54H62V53Z" fill="#399494"/>
<path d="M59 53H58V54H59V53Z" fill="#19494A"/>
<path d="M58 53H57V54H58V53Z" fill="#399494"/>
<path d="M60 54H59V55H60V54Z" fill="#19494A"/>
<path d="M61 54H60V55H61V54Z" fill="#19494A"/>
<path d="M62 54H61V55H62V54Z" fill="#399494"/>
<path d="M59 54H58V55H59V54Z" fill="#399494"/>
<path d="M58 54H57V55H58V54Z" fill="#399494"/>
<path d="M60 55H59V56H60V55Z" fill="#399494"/>
<path d="M61 55H60V56H61V55Z" fill="#399494"/>
<path d="M62 55H61V56H62V55Z" fill="#399494"/>
<path d="M59 55H58V56H59V55Z" fill="#317373"/>
<path d="M58 55H57V56H58V55Z" fill="#399494"/>
<path d="M60 56H59V57H60V56Z" fill="#399494"/>
<path d="M61 56H60V57H61V56Z" fill="#399494"/>
<path d="M62 56H61V57H62V56Z" fill="#19494A"/>
<path d="M59 56H58V57H59V56Z" fill="#399494"/>
<path d="M58 56H57V57H58V56Z" fill="#19494A"/>
<path d="M60 57H59V58H60V57Z" fill="#399494"/>
<path d="M61 57H60V58H61V57Z" fill="#19494A"/>
<path d="M62 57H61V58H62V57Z" fill="#19494A"/>
<path d="M59 57H58V58H59V57Z" fill="#399494"/>
<path d="M58 57H57V58H58V57Z" fill="#101010"/>
<path d="M60 58H59V59H60V58Z" fill="#399494"/>
<path d="M61 58H60V59H61V58Z" fill="#19494A"/>
<path d="M62 58H61V59H62V58Z" fill="#19494A"/>
<path d="M59 58H58V59H59V58Z" fill="#399494"/>
<path d="M58 58H57V59H58V58Z" fill="#399494"/>
<path d="M60 59H59V60H60V59Z" fill="#399494"/>
<path d="M61 59H60V60H61V59Z" fill="#19494A"/>
<path d="M62 59H61V60H62V59Z" fill="#19494A"/>
<path d="M59 59H58V60H59V59Z" fill="#399494"/>
<path d="M58 59H57V60H58V59Z" fill="#399494"/>
<path d="M60 60H59V61H60V60Z" fill="#399494"/>
<path d="M61 60H60V61H61V60Z" fill="#399494"/>
<path d="M62 60H61V61H62V60Z" fill="#19494A"/>
<path d="M59 60H58V61H59V60Z" fill="#399494"/>
<path d="M58 60H57V61H58V60Z" fill="#399494"/>
<path d="M60 61H59V62H60V61Z" fill="#399494"/>
<path d="M61 61H60V62H61V61Z" fill="#317373"/>
<path d="M62 61H61V62H62V61Z" fill="#399494"/>
<path d="M59 61H58V62H59V61Z" fill="#317373"/>
<path d="M58 61H57V62H58V61Z" fill="#101010"/>
<path d="M60 62H59V63H60V62Z" fill="#19494A"/>
<path d="M61 62H60V63H61V62Z" fill="#CDCDCD"/>
<path d="M62 62H61V63H62V62Z" fill="#19494A"/>
<path d="M63 62H62V63H63V62Z" fill="#CDCDCD"/>
<path d="M63 61H62V62H63V61Z" fill="#317373"/>
<path d="M63 60H62V61H63V60Z" fill="#399494"/>
<path d="M63 59H62V60H63V59Z" fill="#19494A"/>
<path d="M63 58H62V59H63V58Z" fill="#19494A"/>
<path d="M63 57H62V58H63V57Z" fill="#19494A"/>
<path d="M63 56H62V57H63V56Z" fill="#399494"/>
<path d="M63 55H62V56H63V55Z" fill="#399494"/>
<path d="M63 54H62V55H63V54Z" fill="#399494"/>
<path d="M63 53H62V54H63V53Z" fill="#399494"/>
<path d="M63 52H62V53H63V52Z" fill="#19494A"/>
<path d="M63 51H62V52H63V51Z" fill="#73AC32"/>
<path d="M63 50H62V51H63V50Z" fill="#73AC32"/>
<path d="M63 49H62V50H63V49Z" fill="#73AC32"/>
<path d="M63 48H62V49H63V48Z" fill="#526229"/>
<path d="M63 47H62V48H63V47Z" fill="#526229"/>
<path d="M63 46H62V47H63V46Z" fill="#73AC32"/>
<path d="M63 45H62V46H63V45Z" fill="#73AC32"/>
<path d="M63 44H62V45H63V44Z" fill="#73AC32"/>
<path d="M63 43H62V44H63V43Z" fill="#73AC32"/>
<path d="M63 42H62V43H63V42Z" fill="#526229"/>
<path d="M63 41H62V42H63V41Z" fill="#526229"/>
<path d="M63 40H62V41H63V40Z" fill="#73AC32"/>
<path d="M63 39H62V40H63V39Z" fill="#73AC32"/>
<path d="M64 39H63V40H64V39Z" fill="#101010"/>
<path d="M64 40H63V41H64V40Z" fill="#73AC32"/>
<path d="M64 41H63V42H64V41Z" fill="#73AC32"/>
<path d="M64 42H63V43H64V42Z" fill="#73AC32"/>
<path d="M64 43H63V44H64V43Z" fill="#526229"/>
<path d="M64 44H63V45H64V44Z" fill="#526229"/>
<path d="M64 45H63V46H64V45Z" fill="#526229"/>
<path d="M64 46H63V47H64V46Z" fill="#526229"/>
<path d="M64 47H63V48H64V47Z" fill="#73AC32"/>
<path d="M64 48H63V49H64V48Z" fill="#73AC32"/>
<path d="M64 49H63V50H64V49Z" fill="#73AC32"/>
<path d="M64 50H63V51H64V50Z" fill="#73AC32"/>
<path d="M64 51H63V52H64V51Z" fill="#73AC32"/>
<path d="M65 51H64V52H65V51Z" fill="#101010"/>
<path d="M65 50H64V51H65V50Z" fill="#73AC32"/>
<path d="M65 49H64V50H65V49Z" fill="#73AC32"/>
<path d="M65 48H64V49H65V48Z" fill="#73AC32"/>
<path d="M65 47H64V48H65V47Z" fill="#73AC32"/>
<path d="M65 46H64V47H65V46Z" fill="#73AC32"/>
<path d="M65 45H64V46H65V45Z" fill="#73AC32"/>
<path d="M65 44H64V45H65V44Z" fill="#73AC32"/>
<path d="M65 43H64V44H65V43Z" fill="#73AC32"/>
<path d="M65 42H64V43H65V42Z" fill="#73AC32"/>
<path d="M66 42H65V43H66V42Z" fill="#101010"/>
<path d="M66 43H65V44H66V43Z" fill="#101010"/>
<path d="M66 44H65V45H66V44Z" fill="#73AC32"/>
<path d="M66 45H65V46H66V45Z" fill="#73AC32"/>
<path d="M66 46H65V47H66V46Z" fill="#73AC32"/>
<path d="M66 47H65V48H66V47Z" fill="#73AC32"/>
<path d="M66 48H65V49H66V48Z" fill="#73AC32"/>
<path d="M67 44H66V45H67V44Z" fill="#101010"/>
<path d="M67 45H66V46H67V45Z" fill="#101010"/>
<path d="M67 46H66V47H67V46Z" fill="#101010"/>
<path d="M67 47H66V48H67V47Z" fill="#101010"/>
<path d="M67 48H66V49H67V48Z" fill="#101010"/>
<path d="M66 49H65V50H66V49Z" fill="#101010"/>
<path d="M66 50H65V51H66V50Z" fill="#101010"/>
<path d="M65 41H64V42H65V41Z" fill="#101010"/>
<path d="M65 40H64V41H65V40Z" fill="#101010"/>
<path d="M64 52H63V53H64V52Z" fill="#101010"/>
<path d="M64 53H63V54H64V53Z" fill="#19494A"/>
<path d="M64 54H63V55H64V54Z" fill="#399494"/>
<path d="M64 55H63V56H64V55Z" fill="#399494"/>
<path d="M64 56H63V57H64V56Z" fill="#399494"/>
<path d="M64 57H63V58H64V57Z" fill="#399494"/>
<path d="M64 58H63V59H64V58Z" fill="#399494"/>
<path d="M64 59H63V60H64V59Z" fill="#399494"/>
<path d="M64 60H63V61H64V60Z" fill="#399494"/>
<path d="M64 61H63V62H64V61Z" fill="#399494"/>
<path d="M64 62H63V63H64V62Z" fill="#19494A"/>
<path d="M65 61H64V62H65V61Z" fill="#101010"/>
<path d="M65 60H64V61H65V60Z" fill="#101010"/>
<path d="M65 59H64V60H65V59Z" fill="#399494"/>
<path d="M65 58H64V59H65V58Z" fill="#399494"/>
<path d="M65 57H64V58H65V57Z" fill="#399494"/>
<path d="M65 56H64V57H65V56Z" fill="#399494"/>
<path d="M66 56H65V57H66V56Z" fill="#101010"/>
<path d="M66 57H65V58H66V57Z" fill="#101010"/>
<path d="M66 58H65V59H66V58Z" fill="#101010"/>
<path d="M66 59H65V60H66V59Z" fill="#101010"/>
<path d="M65 55H64V56H65V55Z" fill="#19494A"/>
<path d="M65 54H64V55H65V54Z" fill="#19494A"/>
<path d="M63 38H62V39H63V38Z" fill="#101010"/>
<path d="M63 37H62V38H63V37Z" fill="#101010"/>
<path d="M63 36H62V37H63V36Z" fill="#101010"/>
<path d="M63 35H62V36H63V35Z" fill="#101010"/>
<path d="M59 62H58V63H59V62Z" fill="#CDCDCD"/>
<path d="M60 63H59V64H60V63Z" fill="#101010"/>
<path d="M61 63H60V64H61V63Z" fill="#101010"/>
<path d="M62 63H61V64H62V63Z" fill="#101010"/>
<path d="M63 63H62V64H63V63Z" fill="#101010"/>
<path d="M59 63H58V64H59V63Z" fill="#101010"/>
<path d="M58 62H57V63H58V62Z" fill="#19494A"/>
</svg>
