<svg width="100" height="100" viewBox="0 0 100 100" fill="none" xmlns="http://www.w3.org/2000/svg">
<path d="M36 34V36H38V34H36Z" fill="#FFB439"/>
<path d="M45 37V36H46V35H47V34H49V35H48V36H46V37H45Z" fill="#FFB439"/>
<path d="M37 36V37H38V38H40V37H39V35H38V36H37Z" fill="#FF7B41"/>
<path d="M44 37V38H45V37H44Z" fill="#FF7B41"/>
<path d="M46 36V37H47V36H46Z" fill="#FF7B41"/>
<path d="M48 35V36H49V35H48Z" fill="#FF7B41"/>
<path d="M35 35H36V36H37V37H38V38H43V37H44V38H45V37H47V36H49V34H50V37H49V38H46V39H44V40H42V41H39V39H38V38H36V37H35V35Z" fill="#FF4141"/>
<path d="M45 35V36H46V35H45Z" fill="#FF4141"/>
<path d="M39 41H42V40H43V41H42V42H41V43H39V41Z" fill="#7B394A"/>
<path d="M44 39H45V40H44V39Z" fill="#7B394A"/>
<path d="M46 38H47V39H46V38Z" fill="#7B394A"/>
<path d="M36 37V38H35V37H34V34H35V33H38V34H39V35H40V37H43V36H45V37H43V38H40V37H39V35H38V34H36V35H35V37H36Z" fill="#7B394A"/>
<path d="M45 35V34H47V33H50V34H51V35H50V34H47V35H45Z" fill="#7B394A"/>
<path d="M37 39V38H38V39H39V40H38V39H37Z" fill="#7B394A"/>
<path d="M42 36V37H43V36H42Z" fill="#6AD531"/>
<path d="M37 40V41H38V40H37Z" fill="#6AD531"/>
<path d="M36 42H37V43H38V44H37V43H36V42Z" fill="#6AD531"/>
<path d="M42 45V44H43V43H45V42H42V41H45V40H47V39H49V38H51V39H52H53V41H52V40H48V41H47V42H46V46H47V47H46V48H45V47H44V46H43V47H42V48H41V47H40V45H41V46H43V45H42Z" fill="#6AD531"/>
<path d="M37 46V48H36V46H37Z" fill="#6AD531"/>
<path d="M37 49V50H41V49H40V48H38V49H37Z" fill="#6AD531"/>
<path d="M54 51V50H56V52H55V54H53V52H55V51H54Z" fill="#6AD531"/>
<path d="M39 53V52H40V53H41V56H42V57H44V58H42V57H40V53H39Z" fill="#7B834A"/>
<path d="M44 51H43V52H44V51Z" fill="#7B834A"/>
<path d="M47 52H46V53H47V52Z" fill="#7B834A"/>
<path d="M45 56V55H46V54H47V55H46V56H45Z" fill="#7B834A"/>
<path d="M48 54V55H49V54H48Z" fill="#7B834A"/>
<path d="M60 52V51H61V50H62V49H64V50H65V52H64V50H62V51H61V52H60Z" fill="#7B834A"/>
<path d="M61 58V57H60V58H61Z" fill="#7B834A"/>
<path d="M41 59H42V61H43V62H46V63H43V62H42V61H41V59Z" fill="#7B834A"/>
<path d="M49 45H48V46H49V45Z" fill="#7B834A"/>
<path d="M52 45H51V46H52V45Z" fill="#7B834A"/>
<path d="M38 52H39V53H38V55H37V53H38V52Z" fill="#52624A"/>
<path d="M44 58V56H45V58H44Z" fill="#52624A"/>
<path d="M47 55V54H48V55H49V56H48V55H47Z" fill="#52624A"/>
<path d="M41 58V59H40V60H39V59H40V58H41Z" fill="#52624A"/>
<path d="M46 62V61H47V60H50V61H51V62H50V61H47V62H46Z" fill="#52624A"/>
<path d="M45 66V65H46V66H48V65H49V64H50V65H49V66H48V67H46V66H45Z" fill="#52624A"/>
<path d="M49 67V68H52V67H49Z" fill="#52624A"/>
<path d="M61 52V57H62V56H63V54H64V52H65V54H64V56H63V57H62V59H61V57H60V52H61Z" fill="#52624A"/>
<path d="M48 43V44H50V42H49V43H48Z" fill="#52624A"/>
<path d="M40 53V54H39V55H38V53H40Z" fill="#F6EE8B"/>
<path d="M41 54H42V55H44V57H42V58H45V60H42V59H41V61H40V59H41V58H40V57H42V56H41V54Z" fill="#F6EE8B"/>
<path d="M45 56V57H47V55H46V56H45Z" fill="#F6EE8B"/>
<path d="M43 63H47V62H48V61H50V62H49V63H47V64H45V65H44V64H43V63Z" fill="#F6EE8B"/>
<path d="M53 52V51H55V52H56V53H55V52H53Z" fill="#F6EE8B"/>
<path d="M61 51V53H62V54H63V53H64V51H63V50H62V51H61Z" fill="#F6EE8B"/>
<path d="M48 45H47V42H48V41H52V42H53V44H52V42H48V45Z" fill="#F6EE8B"/>
<path d="M37 43V41H38V42H39V43H42V42H45V43H43V44H38V43H37Z" fill="#ACF641"/>
<path d="M37 47V45H40V47H37Z" fill="#ACF641"/>
<path d="M37 43H36V45H37V43Z" fill="#4AC529"/>
<path d="M42 47V48H43V47H42Z" fill="#4AC529"/>
<path d="M46 47V48H47V47H46Z" fill="#4AC529"/>
<path d="M53 42H52V41H48V42H47V46H46V42H47V41H48V40H52V41H53V40H54V41H53V42Z" fill="#4AC529"/>
<path d="M41 44V45H42V44H41Z" fill="#4AC529"/>
<path d="M37 45V44H41V45H42V46H41V45H37Z" fill="#31AC41"/>
<path d="M37 47V49H38V47H37Z" fill="#31AC41"/>
<path d="M40 48V49H41V48H40Z" fill="#31AC41"/>
<path d="M41 50V51H43V50H44V47H43V48H42V50H41Z" fill="#31AC41"/>
<path d="M55 49V50H54V51H53V52H52V54H53V55H55V56H54V57H52V58H50V59H51V60H52V59H53V60H52V62H51V61H50V60H49V58H50V57H49V53H50V51H47V50H46V49H45V48H47V46H48V47H52V46H53V41H54V42H55V46H54V48H53V49H54H55Z" fill="#31AC41"/>
<path d="M54 61V60H55V61H56V62H57V63H58V64H57V65H55V63H54V66H51V63H54V62H55V61H54Z" fill="#31AC41"/>
<path d="M59 63V62H58V60H59V59H61V60H60V61H59V62H60V63H59Z" fill="#31AC41"/>
<path d="M51 38V39H52V38H51Z" fill="#31AC41"/>
<path d="M41 42V43H42V42H41Z" fill="#31AC41"/>
<path d="M44 51V50H46V51H50V50H51V51H50V52H49V53H47V52H45V51H44Z" fill="black"/>
<path d="M52 50V49H53V48H54V47H55V48H54V49H53V50H52Z" fill="black"/>
<path d="M56 42V46H55V42H56Z" fill="black"/>
<path d="M51 42H50V44H48V45H49V46H51V45H52V43H51V42Z" fill="black"/>
<path d="M56 52H57V54H56V56H55V57H54V59H53V58H52V59H50V58H52V57H54V56H55V54H56V52Z" fill="black"/>
<path d="M36 39V38H37V39H38V40H39V42H38V40H37V39H36Z" fill="black"/>
<path d="M45 41H43V40H45V39H47V38H49V37H50V35H51V37H50V38H49V39H47V40H45V41Z" fill="black"/>
<path d="M37 55H38V56H40V58H39V57H38V56H37V55Z" fill="black"/>
<path d="M40 60V61V62H43V64H44V65H45V66H44V65H43V64H42V63H40V62H39V60H40Z" fill="black"/>
<path d="M46 63V62H47V63H50V62H51V63H50V64H47V63H46Z" fill="black"/>
<path d="M43 51V52H39V51H43Z" fill="black"/>
<path d="M37 51V50H36V49H37V50H38V51H37Z" fill="black"/>
<path d="M48 56H49V58H48V59H45V58H48V56Z" fill="black"/>
<path d="M52 62V61H53V60H54V61H53V62H52Z" fill="black"/>
<path d="M56 67V66H57V65H58V66H57V67H56Z" fill="black"/>
<path d="M59 63V64H60V63H59Z" fill="black"/>
<path d="M37 46H36V49H35V46H36V45H37V46Z" fill="#207B4A"/>
<path d="M39 50H38V51H39V50Z" fill="#207B4A"/>
<path d="M44 52V51H45V52H44Z" fill="#207B4A"/>
<path d="M48 54V53H49V52H50V53H49V54H48Z" fill="#207B4A"/>
<path d="M54 48V49H55V48H54Z" fill="#207B4A"/>
<path d="M42 46V45H43V46H44V47H45V48H44V47H43V46H42Z" fill="#207B4A"/>
<path d="M40 48V47H41V48H42V49H41V48H40Z" fill="#207B4A"/>
<path d="M45 50V49H46V50H47V51H46V50H45Z" fill="#207B4A"/>
<path d="M50 57H49V58H50V57Z" fill="#207B4A"/>
<path d="M50 65V63H51V65H50Z" fill="#207B4A"/>
<path d="M53 62V61H55V60H56V61H55V62H53Z" fill="#207B4A"/>
<path d="M57 60H58V59H59V58H60V59H59V60H58V61H57V60Z" fill="#207B4A"/>
<path d="M61 59H62V61H61V63H60V61H61V59Z" fill="#207B4A"/>
<path d="M59 65V64H58V65H59Z" fill="#207B4A"/>
<path d="M55 67V66H56V67H55V68H54V67H55Z" fill="#207B4A"/>
<path d="M49 68V67H48V68H49Z" fill="#207B4A"/>
<path d="M53 38V39H54V40H55V41H54V40H53V39H52V38H53Z" fill="#207B4A"/>
<path d="M36 40H37V42H36V45H35V42H36V40Z" fill="#185A41"/>
<path d="M37 48H36V49H37V48Z" fill="#185A41"/>
<path d="M38 48V47H40V48H38Z" fill="#185A41"/>
<path d="M41 49H42V50H41V51H39V50H41V49Z" fill="#185A41"/>
<path d="M43 51V50H44V48H45V50H44V51H43Z" fill="#185A41"/>
<path d="M50 37V38H52V37H50Z" fill="#185A41"/>
<path d="M55 41H54V42H55V41Z" fill="#185A41"/>
<path d="M55 46H54V47H55V46Z" fill="#185A41"/>
<path d="M55 48H56V50H57V52H56V50H55V48Z" fill="#185A41"/>
<path d="M51 50V51H52V50H51Z" fill="#185A41"/>
<path d="M52 62H51V63H52V62Z" fill="#185A41"/>
<path d="M53 62H54V63H55V66H54V68H52V67H53V66H54V63H53V62Z" fill="#185A41"/>
<path d="M56 61V60H57V61H58V62H59V64H58V62H57V61H56Z" fill="#185A41"/>
<path d="M40 37V36H42V35H45V36H42V37H40Z" fill="#185A41"/>
<path fill-rule="evenodd" clip-rule="evenodd" d="M48 42H49V43H48V42ZM64 50H63V51H64V50ZM62 57H61V53H62V54H63V56H62V57ZM63 54V53H64V54H63ZM60 58H61V59H60V58ZM60 60H61V61H60V60ZM60 61V62H59V61H60ZM53 52H52V54H53V55H55V54H56V53H55V54H53V52ZM58 64V65H57V64H58ZM56 63V64H57V63H58V62H57V61H56V62L55 62V63L56 63ZM56 63V62H57V63H56ZM55 66V65H57V66H55ZM55 66V67H54V66H55ZM53 66H51V65H49V64H45V65H46V66H48V67H53V66ZM50 62V63H49V62H50ZM40 61V62H42V61H43V62H46V61H47V62H48V61H47V60H49V58H48V55H47V57H45V58H48V59H45V60H42V61H40ZM52 59V58H53V59H54V60H53V61H52V60H51V59H52ZM39 54H40V56H38V55H39V54ZM40 52V53H41V54H42V55H44V56H45V55H46V54H48V53H46V52H40ZM47 45H48V46H47V45ZM52 46V47H48V46H52ZM52 46H53V44H52V46ZM51 43V42H52V43H51ZM52 62V63H53V62H52Z" fill="#E6CD94"/>
</svg>
