<svg width="100" height="100" viewBox="0 0 100 100" fill="none" xmlns="http://www.w3.org/2000/svg">
<path d="M39 30H38V31H39V30Z" fill="#B4B4B4"/>
<path d="M49 59H48V60H49V59Z" fill="#B4B4B4"/>
<path d="M50 60H49V61H50V60Z" fill="#B4B4B4"/>
<path d="M49 73H48V74H49V73Z" fill="#B4B4B4"/>
<path d="M48 73H47V74H48V73Z" fill="#B4B4B4"/>
<path d="M46 74H45V75H46V74Z" fill="#B4B4B4"/>
<path d="M45 73H44V74H45V73Z" fill="#B4B4B4"/>
<path d="M43 74H42V75H43V74Z" fill="#B4B4B4"/>
<path d="M42 73H41V74H42V73Z" fill="#B4B4B4"/>
<path d="M24 58H23V59H24V58Z" fill="#B4B4B4"/>
<path d="M24 59H23V60H24V59Z" fill="#B4B4B4"/>
<path d="M24 60H23V61H24V60Z" fill="#B4B4B4"/>
<path d="M22 57H21V58H22V57Z" fill="#B4B4B4"/>
<path d="M22 55H21V56H22V55Z" fill="#B4B4B4"/>
<path d="M23 54H22V55H23V54Z" fill="#B4B4B4"/>
<path d="M27 57H26V58H27V57Z" fill="#B4B4B4"/>
<path d="M28 56H27V57H28V56Z" fill="#B4B4B4"/>
<path d="M23 59H22V60H23V59Z" fill="#B4B4B4"/>
<path d="M55 57H54V58H55V57Z" fill="#B4B4B4"/>
<path d="M54 56H53V57H54V56Z" fill="#B4B4B4"/>
<path d="M55 59H54V60H55V59Z" fill="#B4B4B4"/>
<path d="M46 22H45V23H46V22Z" fill="#941F11"/>
<path d="M47 23H46V24H47V23Z" fill="#941F11"/>
<path d="M45 26H44V27H45V26Z" fill="#941F11"/>
<path d="M43 28H42V29H43V28Z" fill="#941F11"/>
<path d="M44 30H43V31H44V30Z" fill="#941F11"/>
<path d="M45 32H44V33H45V32Z" fill="#941F11"/>
<path d="M40 30H39V31H40V30Z" fill="#941F11"/>
<path d="M39 29H38V30H39V29Z" fill="#941F11"/>
<path d="M38 30H37V31H38V30Z" fill="#941F11"/>
<path d="M36 31H35V32H36V31Z" fill="#941F11"/>
<path d="M35 32H34V33H35V32Z" fill="#941F11"/>
<path d="M36 33H35V34H36V33Z" fill="#941F11"/>
<path d="M34 30H33V31H34V30Z" fill="#941F11"/>
<path d="M37 25H36V26H37V25Z" fill="#941F11"/>
<path d="M36 25H35V26H36V25Z" fill="#941F11"/>
<path d="M35 25H34V26H35V25Z" fill="#941F11"/>
<path d="M34 26H33V27H34V26Z" fill="#941F11"/>
<path d="M33 26H32V27H33V26Z" fill="#941F11"/>
<path d="M32 27H31V28H32V27Z" fill="#941F11"/>
<path d="M31 28H30V29H31V28Z" fill="#941F11"/>
<path d="M30 29H29V30H30V29Z" fill="#941F11"/>
<path d="M30 30H29V31H30V30Z" fill="#941F11"/>
<path d="M30 31H29V32H30V31Z" fill="#941F11"/>
<path d="M31 32H30V33H31V32Z" fill="#941F11"/>
<path d="M29 34H28V35H29V34Z" fill="#941F11"/>
<path d="M28 35H27V36H28V35Z" fill="#941F11"/>
<path d="M28 36H27V37H28V36Z" fill="#941F11"/>
<path d="M28 37H27V38H28V37Z" fill="#941F11"/>
<path d="M33 38H32V39H33V38Z" fill="#941F11"/>
<path d="M34 37H33V38H34V37Z" fill="#941F11"/>
<path d="M42 44H41V45H42V44Z" fill="#941F11"/>
<path d="M43 43H42V44H43V43Z" fill="#941F11"/>
<path d="M44 43H43V44H44V43Z" fill="#941F11"/>
<path d="M45 43H44V44H45V43Z" fill="#941F11"/>
<path d="M46 44H45V45H46V44Z" fill="#941F11"/>
<path d="M47 45H46V46H47V45Z" fill="#941F11"/>
<path d="M48 46H47V47H48V46Z" fill="#941F11"/>
<path d="M49 47H48V48H49V47Z" fill="#941F11"/>
<path d="M50 47H49V48H50V47Z" fill="#941F11"/>
<path d="M51 48H50V49H51V48Z" fill="#941F11"/>
<path d="M52 49H51V50H52V49Z" fill="#941F11"/>
<path d="M54 55H53V56H54V55Z" fill="#941F11"/>
<path d="M43 61H42V62H43V61Z" fill="#941F11"/>
<path d="M42 62H41V63H42V62Z" fill="#941F11"/>
<path d="M42 63H41V64H42V63Z" fill="#941F11"/>
<path d="M41 64H40V65H41V64Z" fill="#941F11"/>
<path d="M34 64H33V65H34V64Z" fill="#941F11"/>
<path d="M33 63H32V64H33V63Z" fill="#941F11"/>
<path d="M33 62H32V63H33V62Z" fill="#941F11"/>
<path d="M32 61H31V62H32V61Z" fill="#941F11"/>
<path d="M32 60H31V61H32V60Z" fill="#941F11"/>
<path d="M31 59H30V60H31V59Z" fill="#941F11"/>
<path d="M30 60H29V61H30V60Z" fill="#941F11"/>
<path d="M29 61H28V62H29V61Z" fill="#941F11"/>
<path d="M28 62H27V63H28V62Z" fill="#941F11"/>
<path d="M23 53H22V54H23V53Z" fill="#941F11"/>
<path d="M24 51H23V52H24V51Z" fill="#941F11"/>
<path d="M25 50H24V51H25V50Z" fill="#941F11"/>
<path d="M26 49H25V50H26V49Z" fill="#941F11"/>
<path d="M27 48H26V49H27V48Z" fill="#941F11"/>
<path d="M28 48H27V49H28V48Z" fill="#941F11"/>
<path d="M29 68H28V69H29V68Z" fill="#941F11"/>
<path d="M41 65H40V66H41V65Z" fill="#941F11"/>
<path d="M46 68H45V69H46V68Z" fill="#941F11"/>
<path d="M44 74H43V75H44V74Z" fill="#941F11"/>
<path d="M36 70H35V71H36V70Z" fill="#941F11"/>
<path d="M47 74H46V75H47V74Z" fill="#941F11"/>
<path d="M50 73H49V74H50V73Z" fill="#941F11"/>
<path d="M47 67H46V68H47V67Z" fill="#941F11"/>
<path d="M47 66H46V67H47V66Z" fill="#941F11"/>
<path d="M55 62H54V63H55V62Z" fill="#941F11"/>
<path d="M56 62H55V63H56V62Z" fill="#941F11"/>
<path d="M57 62H56V63H57V62Z" fill="#941F11"/>
<path d="M58 61H57V62H58V61Z" fill="#941F11"/>
<path d="M59 61H58V62H59V61Z" fill="#941F11"/>
<path d="M60 60H59V61H60V60Z" fill="#941F11"/>
<path d="M61 60H60V61H61V60Z" fill="#941F11"/>
<path d="M62 59H61V60H62V59Z" fill="#941F11"/>
<path d="M63 58H62V59H63V58Z" fill="#941F11"/>
<path d="M64 57H63V58H64V57Z" fill="#941F11"/>
<path d="M65 57H64V58H65V57Z" fill="#941F11"/>
<path d="M65 56H64V57H65V56Z" fill="#941F11"/>
<path d="M65 59H64V60H65V59Z" fill="#941F11"/>
<path d="M65 58H64V59H65V58Z" fill="#941F11"/>
<path d="M64 61H63V62H64V61Z" fill="#941F11"/>
<path d="M63 62H62V63H63V62Z" fill="#941F11"/>
<path d="M62 63H61V64H62V63Z" fill="#941F11"/>
<path d="M61 64H60V65H61V64Z" fill="#941F11"/>
<path d="M64 60H63V61H64V60Z" fill="#941F11"/>
<path d="M65 55H64V56H65V55Z" fill="#941F11"/>
<path d="M66 57H65V58H66V57Z" fill="#941F11"/>
<path d="M66 56H65V57H66V56Z" fill="#941F11"/>
<path d="M66 55H65V56H66V55Z" fill="#941F11"/>
<path d="M66 54H65V55H66V54Z" fill="#941F11"/>
<path d="M44 47H43V48H44V47Z" fill="#941F11"/>
<path d="M43 47H42V48H43V47Z" fill="#941F11"/>
<path d="M31 35H30V36H31V35Z" fill="#941F11"/>
<path d="M47 24H46V25H47V24Z" fill="#101010"/>
<path d="M46 25H45V26H46V25Z" fill="#101010"/>
<path d="M45 27H44V28H45V27Z" fill="#101010"/>
<path d="M44 28H43V29H44V28Z" fill="#101010"/>
<path d="M44 29H43V30H44V29Z" fill="#101010"/>
<path d="M45 30H44V31H45V30Z" fill="#101010"/>
<path d="M45 31H44V32H45V31Z" fill="#101010"/>
<path d="M46 32H45V33H46V32Z" fill="#101010"/>
<path d="M46 33H45V34H46V33Z" fill="#101010"/>
<path d="M46 34H45V35H46V34Z" fill="#101010"/>
<path d="M45 35H44V36H45V35Z" fill="#101010"/>
<path d="M45 36H44V37H45V36Z" fill="#101010"/>
<path d="M44 37H43V38H44V37Z" fill="#101010"/>
<path d="M44 38H43V39H44V38Z" fill="#101010"/>
<path d="M43 39H42V40H43V39Z" fill="#101010"/>
<path d="M43 40H42V41H43V40Z" fill="#101010"/>
<path d="M43 41H42V42H43V41Z" fill="#101010"/>
<path d="M44 42H43V43H44V42Z" fill="#101010"/>
<path d="M38 41H37V42H38V41Z" fill="#101010"/>
<path d="M37 40H36V41H37V40Z" fill="#101010"/>
<path d="M36 40H35V41H36V40Z" fill="#101010"/>
<path d="M35 40H34V41H35V40Z" fill="#101010"/>
<path d="M34 40H33V41H34V40Z" fill="#101010"/>
<path d="M36 37H35V38H36V37Z" fill="#101010"/>
<path d="M35 37H34V38H35V37Z" fill="#101010"/>
<path d="M38 37H37V38H38V37Z" fill="#101010"/>
<path d="M37 37H36V38H37V37Z" fill="#101010"/>
<path d="M32 39H31V40H32V39Z" fill="#101010"/>
<path d="M31 39H30V40H31V39Z" fill="#101010"/>
<path d="M30 39H29V40H30V39Z" fill="#101010"/>
<path d="M29 38H28V39H29V38Z" fill="#101010"/>
<path d="M31 36H30V37H31V36Z" fill="#101010"/>
<path d="M34 31H33V32H34V31Z" fill="#101010"/>
<path d="M36 32H35V33H36V32Z" fill="#101010"/>
<path d="M37 32H36V33H37V32Z" fill="#101010"/>
<path d="M37 31H36V32H37V31Z" fill="#101010"/>
<path d="M38 33H37V34H38V33Z" fill="#101010"/>
<path d="M39 37H38V38H39V37Z" fill="#101010"/>
<path d="M40 36H39V37H40V36Z" fill="#101010"/>
<path d="M33 40H32V41H33V40Z" fill="#101010"/>
<path d="M35 44H34V45H35V44Z" fill="#101010"/>
<path d="M34 44H33V45H34V44Z" fill="#101010"/>
<path d="M32 46H31V47H32V46Z" fill="#101010"/>
<path d="M31 50H30V51H31V50Z" fill="#101010"/>
<path d="M33 45H32V46H33V45Z" fill="#101010"/>
<path d="M31 46H30V47H31V46Z" fill="#101010"/>
<path d="M30 47H29V48H30V47Z" fill="#101010"/>
<path d="M29 47H28V48H29V47Z" fill="#101010"/>
<path d="M33 49H32V50H33V49Z" fill="#101010"/>
<path d="M32 49H31V50H32V49Z" fill="#101010"/>
<path d="M27 58H26V59H27V58Z" fill="#101010"/>
<path d="M26 58H25V59H26V58Z" fill="#101010"/>
<path d="M24 57H23V58H24V57Z" fill="#101010"/>
<path d="M23 57H22V58H23V57Z" fill="#101010"/>
<path d="M37 43H36V44H37V43Z" fill="#101010"/>
<path d="M45 50H44V51H45V50Z" fill="#101010"/>
<path d="M38 42H37V43H38V42Z" fill="#101010"/>
<path d="M45 48H44V49H45V48Z" fill="#101010"/>
<path d="M45 49H44V50H45V49Z" fill="#101010"/>
<path d="M35 46H34V47H35V46Z" fill="#101010"/>
<path d="M35 47H34V48H35V47Z" fill="#101010"/>
<path d="M36 44H35V45H36V44Z" fill="#101010"/>
<path d="M36 45H35V46H36V45Z" fill="#101010"/>
<path d="M34 48H33V49H34V48Z" fill="#101010"/>
<path d="M34 49H33V50H34V49Z" fill="#101010"/>
<path d="M34 50H33V51H34V50Z" fill="#101010"/>
<path d="M30 51H29V52H30V51Z" fill="#101010"/>
<path d="M30 52H29V53H30V52Z" fill="#101010"/>
<path d="M29 53H28V54H29V53Z" fill="#101010"/>
<path d="M29 54H28V55H29V54Z" fill="#101010"/>
<path d="M29 55H28V56H29V55Z" fill="#101010"/>
<path d="M29 56H28V57H29V56Z" fill="#101010"/>
<path d="M26 56H25V57H26V56Z" fill="#101010"/>
<path d="M26 57H25V58H26V57Z" fill="#101010"/>
<path d="M25 59H24V60H25V59Z" fill="#101010"/>
<path d="M25 60H24V61H25V60Z" fill="#101010"/>
<path d="M24 61H23V62H24V61Z" fill="#101010"/>
<path d="M23 52H22V53H23V52Z" fill="#101010"/>
<path d="M22 58H21V59H22V58Z" fill="#101010"/>
<path d="M22 59H21V60H22V59Z" fill="#101010"/>
<path d="M22 53H21V54H22V53Z" fill="#101010"/>
<path d="M22 54H21V55H22V54Z" fill="#101010"/>
<path d="M21 55H20V56H21V55Z" fill="#101010"/>
<path d="M21 56H20V57H21V56Z" fill="#101010"/>
<path d="M21 57H20V58H21V57Z" fill="#101010"/>
<path d="M27 63H26V64H27V63Z" fill="#101010"/>
<path d="M27 64H26V65H27V64Z" fill="#101010"/>
<path d="M27 65H26V66H27V65Z" fill="#101010"/>
<path d="M28 66H27V67H28V66Z" fill="#101010"/>
<path d="M29 67H28V68H29V67Z" fill="#101010"/>
<path d="M30 68H29V69H30V68Z" fill="#101010"/>
<path d="M28 69H27V70H28V69Z" fill="#101010"/>
<path d="M28 69H27V70H28V69Z" fill="#101010"/>
<path d="M28 71H27V72H28V71Z" fill="#101010"/>
<path d="M27 71H26V72H27V71Z" fill="#101010"/>
<path d="M27 70H26V71H27V70Z" fill="#101010"/>
<path d="M26 70H25V71H26V70Z" fill="#101010"/>
<path d="M27 72H26V73H27V72Z" fill="#101010"/>
<path d="M26 72H25V73H26V72Z" fill="#101010"/>
<path d="M28 73H27V74H28V73Z" fill="#101010"/>
<path d="M27 73H26V74H27V73Z" fill="#101010"/>
<path d="M30 73H29V74H30V73Z" fill="#101010"/>
<path d="M29 73H28V74H29V73Z" fill="#101010"/>
<path d="M33 72H32V73H33V72Z" fill="#101010"/>
<path d="M32 72H31V73H32V72Z" fill="#101010"/>
<path d="M35 71H34V72H35V71Z" fill="#101010"/>
<path d="M34 71H33V72H34V71Z" fill="#101010"/>
<path d="M37 66H36V67H37V66Z" fill="#101010"/>
<path d="M36 66H35V67H36V66Z" fill="#101010"/>
<path d="M35 65H34V66H35V65Z" fill="#101010"/>
<path d="M35 67H34V68H35V67Z" fill="#101010"/>
<path d="M36 68H35V69H36V68Z" fill="#101010"/>
<path d="M37 69H36V70H37V69Z" fill="#101010"/>
<path d="M37 70H36V71H37V70Z" fill="#101010"/>
<path d="M36 71H35V72H36V71Z" fill="#101010"/>
<path d="M31 73H30V74H31V73Z" fill="#101010"/>
<path d="M25 72H24V73H25V72Z" fill="#101010"/>
<path d="M25 71H24V72H25V71Z" fill="#101010"/>
<path d="M39 67H38V68H39V67Z" fill="#101010"/>
<path d="M38 67H37V68H38V67Z" fill="#101010"/>
<path d="M41 67H40V68H41V67Z" fill="#101010"/>
<path d="M41 68H40V69H41V68Z" fill="#101010"/>
<path d="M42 69H41V70H42V69Z" fill="#101010"/>
<path d="M41 66H40V67H41V66Z" fill="#101010"/>
<path d="M43 71H42V72H43V71Z" fill="#101010"/>
<path d="M42 72H41V73H42V72Z" fill="#101010"/>
<path d="M43 70H42V71H43V70Z" fill="#101010"/>
<path d="M41 74H40V75H41V74Z" fill="#101010"/>
<path d="M41 75H40V76H41V75Z" fill="#101010"/>
<path d="M42 76H41V77H42V76Z" fill="#101010"/>
<path d="M44 76H43V77H44V76Z" fill="#101010"/>
<path d="M45 77H44V78H45V77Z" fill="#101010"/>
<path d="M41 73H40V74H41V73Z" fill="#101010"/>
<path d="M40 67H39V68H40V67Z" fill="#101010"/>
<path d="M47 76H46V77H47V76Z" fill="#101010"/>
<path d="M46 76H45V77H46V76Z" fill="#101010"/>
<path d="M44 75H43V76H44V75Z" fill="#101010"/>
<path d="M43 75H42V76H43V75Z" fill="#101010"/>
<path d="M48 75H47V76H48V75Z" fill="#101010"/>
<path d="M49 76H48V77H49V76Z" fill="#101010"/>
<path d="M50 75H49V76H50V75Z" fill="#101010"/>
<path d="M50 74H49V75H50V74Z" fill="#101010"/>
<path d="M51 73H50V74H51V73Z" fill="#101010"/>
<path d="M51 72H50V73H51V72Z" fill="#101010"/>
<path d="M51 71H50V72H51V71Z" fill="#101010"/>
<path d="M51 70H50V71H51V70Z" fill="#101010"/>
<path d="M50 68H49V69H50V68Z" fill="#101010"/>
<path d="M50 67H49V68H50V67Z" fill="#101010"/>
<path d="M50 66H49V67H50V66Z" fill="#101010"/>
<path d="M51 65H50V66H51V65Z" fill="#101010"/>
<path d="M51 64H50V65H51V64Z" fill="#101010"/>
<path d="M51 63H50V64H51V63Z" fill="#101010"/>
<path d="M48 59H47V60H48V59Z" fill="#101010"/>
<path d="M48 58H47V59H48V58Z" fill="#101010"/>
<path d="M48 57H47V58H48V57Z" fill="#101010"/>
<path d="M49 53H48V54H49V53Z" fill="#101010"/>
<path d="M49 52H48V53H49V52Z" fill="#101010"/>
<path d="M49 51H48V52H49V51Z" fill="#101010"/>
<path d="M55 55H54V56H55V55Z" fill="#101010"/>
<path d="M55 56H54V57H55V56Z" fill="#101010"/>
<path d="M55 54H54V55H55V54Z" fill="#101010"/>
<path d="M55 53H54V54H55V53Z" fill="#101010"/>
<path d="M56 59H55V60H56V59Z" fill="#101010"/>
<path d="M56 60H55V61H56V60Z" fill="#101010"/>
<path d="M55 60H54V61H55V60Z" fill="#101010"/>
<path d="M55 61H54V62H55V61Z" fill="#101010"/>
<path d="M52 61H51V62H52V61Z" fill="#101010"/>
<path d="M52 62H51V63H52V62Z" fill="#101010"/>
<path d="M51 59H50V60H51V59Z" fill="#101010"/>
<path d="M51 60H50V61H51V60Z" fill="#101010"/>
<path d="M48 54H47V55H48V54Z" fill="#101010"/>
<path d="M48 55H47V56H48V55Z" fill="#101010"/>
<path d="M47 53H46V54H47V53Z" fill="#101010"/>
<path d="M47 54H46V55H47V54Z" fill="#101010"/>
<path d="M46 51H45V52H46V51Z" fill="#101010"/>
<path d="M46 49H45V50H46V49Z" fill="#101010"/>
<path d="M47 49H46V50H47V49Z" fill="#101010"/>
<path d="M48 50H47V51H48V50Z" fill="#101010"/>
<path d="M53 50H52V51H53V50Z" fill="#101010"/>
<path d="M54 51H53V52H54V51Z" fill="#101010"/>
<path d="M54 52H53V53H54V52Z" fill="#101010"/>
<path d="M49 56H48V57H49V56Z" fill="#101010"/>
<path d="M49 60H48V61H49V60Z" fill="#101010"/>
<path d="M50 61H49V62H50V61Z" fill="#101010"/>
<path d="M53 58H52V59H53V58Z" fill="#101010"/>
<path d="M53 59H52V60H53V59Z" fill="#101010"/>
<path d="M54 59H53V60H54V59Z" fill="#101010"/>
<path d="M54 62H53V63H54V62Z" fill="#101010"/>
<path d="M53 63H52V64H53V63Z" fill="#101010"/>
<path d="M46 52H45V53H46V52Z" fill="#101010"/>
<path d="M56 58H55V59H56V58Z" fill="#101010"/>
<path d="M56 57H55V58H56V57Z" fill="#101010"/>
<path d="M47 75H46V76H47V75Z" fill="#101010"/>
<path d="M51 69H50V70H51V69Z" fill="#101010"/>
<path d="M50 69H49V70H50V69Z" fill="#101010"/>
<path d="M53 69H52V70H53V69Z" fill="#101010"/>
<path d="M54 69H53V70H54V69Z" fill="#101010"/>
<path d="M55 68H54V69H55V68Z" fill="#101010"/>
<path d="M56 68H55V69H56V68Z" fill="#101010"/>
<path d="M57 67H56V68H57V67Z" fill="#101010"/>
<path d="M58 67H57V68H58V67Z" fill="#101010"/>
<path d="M59 66H58V67H59V66Z" fill="#101010"/>
<path d="M60 65H59V66H60V65Z" fill="#101010"/>
<path d="M52 69H51V70H52V69Z" fill="#101010"/>
<path d="M24 56H23V57H24V56Z" fill="#101010"/>
<path d="M23 60H22V61H23V60Z" fill="#101010"/>
<path d="M28 57H27V58H28V57Z" fill="#101010"/>
<path d="M33 51H32V52H33V51Z" fill="#101010"/>
<path d="M33 52H32V53H33V52Z" fill="#101010"/>
<path d="M33 53H32V54H33V53Z" fill="#101010"/>
<path d="M32 54H31V55H32V54Z" fill="#101010"/>
<path d="M32 55H31V56H32V55Z" fill="#101010"/>
<path d="M32 56H31V57H32V56Z" fill="#101010"/>
<path d="M32 57H31V58H32V57Z" fill="#101010"/>
<path d="M32 58H31V59H32V58Z" fill="#101010"/>
<path d="M32 59H31V60H32V59Z" fill="#101010"/>
<path d="M50 57H49V58H50V57Z" fill="#6A6A6A"/>
<path d="M51 58H50V59H51V58Z" fill="#6A6A6A"/>
<path d="M52 60H51V61H52V60Z" fill="#6A6A6A"/>
<path d="M54 60H53V61H54V60Z" fill="#6A6A6A"/>
<path d="M46 75H45V76H46V75Z" fill="#6A6A6A"/>
<path d="M30 72H29V73H30V72Z" fill="#6A6A6A"/>
<path d="M23 58H22V59H23V58Z" fill="#6A6A6A"/>
<path d="M25 58H24V59H25V58Z" fill="#6A6A6A"/>
<path d="M26 55H25V56H26V55Z" fill="#6A6A6A"/>
<path d="M27 54H26V55H27V54Z" fill="#6A6A6A"/>
<path d="M49 57H48V58H49V57Z" fill="white"/>
<path d="M49 58H48V59H49V58Z" fill="white"/>
<path d="M50 58H49V59H50V58Z" fill="white"/>
<path d="M50 59H49V60H50V59Z" fill="white"/>
<path d="M53 57H52V58H53V57Z" fill="white"/>
<path d="M54 57H53V58H54V57Z" fill="white"/>
<path d="M54 58H53V59H54V58Z" fill="white"/>
<path d="M55 58H54V59H55V58Z" fill="white"/>
<path d="M53 60H52V61H53V60Z" fill="white"/>
<path d="M53 61H52V62H53V61Z" fill="white"/>
<path d="M54 61H53V62H54V61Z" fill="white"/>
<path d="M53 62H52V63H53V62Z" fill="white"/>
<path d="M49 75H48V76H49V75Z" fill="white"/>
<path d="M49 74H48V75H49V74Z" fill="white"/>
<path d="M48 74H47V75H48V74Z" fill="white"/>
<path d="M45 74H44V75H45V74Z" fill="white"/>
<path d="M45 75H44V76H45V75Z" fill="white"/>
<path d="M42 75H41V76H42V75Z" fill="white"/>
<path d="M42 74H41V75H42V74Z" fill="white"/>
<path d="M29 72H28V73H29V72Z" fill="white"/>
<path d="M28 72H27V73H28V72Z" fill="white"/>
<path d="M26 71H25V72H26V71Z" fill="white"/>
<path d="M22 56H21V57H22V56Z" fill="white"/>
<path d="M23 56H22V57H23V56Z" fill="white"/>
<path d="M23 55H22V56H23V55Z" fill="white"/>
<path d="M24 55H23V56H24V55Z" fill="white"/>
<path d="M27 55V56H28V55H27Z" fill="white"/>
<path d="M27 54V55H28V54H27Z" fill="white"/>
<path d="M39 32V33H40V32H39Z" fill="white"/>
<path d="M39 31V32H40V31H39Z" fill="white"/>
<path d="M38 32V33H39V32H38Z" fill="white"/>
<path d="M38 31V32H39V31H38Z" fill="white"/>
<path d="M37 31V32H38V31H37Z" fill="white"/>
<path d="M26 56V57H27V56H26Z" fill="white"/>
<path d="M26 55V56H27V55H26Z" fill="white"/>
<path d="M29 71H28V72H29V71Z" fill="white"/>
<path d="M45 76H44V77H45V76Z" fill="white"/>
<path d="M45 23H44V24H45V23Z" fill="#FB836A"/>
<path d="M44 24H43V25H44V24Z" fill="#FB836A"/>
<path d="M43 24H42V25H43V24Z" fill="#FB836A"/>
<path d="M35 26H34V27H35V26Z" fill="#FB836A"/>
<path d="M33 27H32V28H33V27Z" fill="#FB836A"/>
<path d="M32 28H31V29H32V28Z" fill="#FB836A"/>
<path d="M36 28H35V29H36V28Z" fill="#FB836A"/>
<path d="M35 29H34V30H35V29Z" fill="#FB836A"/>
<path d="M35 30H34V31H35V30Z" fill="#FB836A"/>
<path d="M35 31H34V32H35V31Z" fill="#FB836A"/>
<path d="M30 34H29V35H30V34Z" fill="#FB836A"/>
<path d="M29 35H28V36H29V35Z" fill="#FB836A"/>
<path d="M25 51H24V52H25V51Z" fill="#FB836A"/>
<path d="M27 52H26V53H27V52Z" fill="#FB836A"/>
<path d="M28 52H27V53H28V52Z" fill="#FB836A"/>
<path d="M29 52H28V53H29V52Z" fill="#FB836A"/>
<path d="M50 52H49V53H50V52Z" fill="#FB836A"/>
<path d="M50 53H49V54H50V53Z" fill="#FB836A"/>
<path d="M50 54H49V55H50V54Z" fill="#FB836A"/>
<path d="M49 54H48V55H49V54Z" fill="#FB836A"/>
<path d="M50 55H49V56H50V55Z" fill="#FB836A"/>
<path d="M66 58H65V59H66V58Z" fill="#FB836A"/>
<path d="M49 55H48V56H49V55Z" fill="#FB836A"/>
<path d="M43 65H42V66H43V65Z" fill="#FB836A"/>
<path d="M42 65H41V66H42V65Z" fill="#FB836A"/>
<path d="M43 64H42V65H43V64Z" fill="#FB836A"/>
<path d="M43 63H42V64H43V63Z" fill="#FB836A"/>
<path d="M30 61H29V62H30V61Z" fill="#FB836A"/>
<path d="M29 62H28V63H29V62Z" fill="#FB836A"/>
<path d="M44 64H43V65H44V64Z" fill="#FB836A"/>
<path d="M42 64H41V65H42V64Z" fill="#FB836A"/>
<path d="M51 53H50V54H51V53Z" fill="#FB836A"/>
<path d="M51 54H50V55H51V54Z" fill="#FB836A"/>
<path d="M28 53H27V54H28V53Z" fill="#FB836A"/>
<path d="M51 67H50V68H51V67Z" fill="#B48B5A"/>
<path d="M51 68H50V69H51V68Z" fill="#B48B5A"/>
<path d="M52 67H51V68H52V67Z" fill="#B48B5A"/>
<path d="M52 68H51V69H52V68Z" fill="#B48B5A"/>
<path d="M53 67H52V68H53V67Z" fill="#B48B5A"/>
<path d="M53 68H52V69H53V68Z" fill="#B48B5A"/>
<path d="M38 65H37V66H38V65Z" fill="#B48B5A"/>
<path d="M38 66H37V67H38V66Z" fill="#B48B5A"/>
<path d="M39 65H38V66H39V65Z" fill="#B48B5A"/>
<path d="M39 66H38V67H39V66Z" fill="#B48B5A"/>
<path d="M40 65H39V66H40V65Z" fill="#B48B5A"/>
<path d="M40 66H39V67H40V66Z" fill="#B48B5A"/>
<path d="M38 63H37V64H38V63Z" fill="#B48B5A"/>
<path d="M38 64H37V65H38V64Z" fill="#B48B5A"/>
<path d="M39 63H38V64H39V63Z" fill="#B48B5A"/>
<path d="M39 64H38V65H39V64Z" fill="#B48B5A"/>
<path d="M40 63H39V64H40V63Z" fill="#B48B5A"/>
<path d="M40 64H39V65H40V64Z" fill="#B48B5A"/>
<path d="M38 61H37V62H38V61Z" fill="#B48B5A"/>
<path d="M38 62H37V63H38V62Z" fill="#B48B5A"/>
<path d="M39 61H38V62H39V61Z" fill="#B48B5A"/>
<path d="M39 62H38V63H39V62Z" fill="#B48B5A"/>
<path d="M40 61H39V62H40V61Z" fill="#B48B5A"/>
<path d="M38 60H37V61H38V60Z" fill="#B48B5A"/>
<path d="M37 65H36V66H37V65Z" fill="#B48B5A"/>
<path d="M37 63H36V64H37V63Z" fill="#B48B5A"/>
<path d="M37 64H36V65H37V64Z" fill="#B48B5A"/>
<path d="M37 61H36V62H37V61Z" fill="#B48B5A"/>
<path d="M37 62H36V63H37V62Z" fill="#B48B5A"/>
<path d="M36 65H35V66H36V65Z" fill="#B48B5A"/>
<path d="M36 63H35V64H36V63Z" fill="#B48B5A"/>
<path d="M36 64H35V65H36V64Z" fill="#B48B5A"/>
<path d="M36 61H35V62H36V61Z" fill="#B48B5A"/>
<path d="M36 62H35V63H36V62Z" fill="#B48B5A"/>
<path d="M35 63H34V64H35V63Z" fill="#B48B5A"/>
<path d="M35 64H34V65H35V64Z" fill="#B48B5A"/>
<path d="M35 61H34V62H35V61Z" fill="#B48B5A"/>
<path d="M35 62H34V63H35V62Z" fill="#B48B5A"/>
<path d="M34 63H33V64H34V63Z" fill="#B48B5A"/>
<path d="M34 61H33V62H34V61Z" fill="#B48B5A"/>
<path d="M34 62H33V63H34V62Z" fill="#B48B5A"/>
<path d="M33 60H32V61H33V60Z" fill="#B48B5A"/>
<path d="M33 61H32V62H33V61Z" fill="#B48B5A"/>
<path d="M37 60H36V61H37V60Z" fill="#B48B5A"/>
<path d="M39 60H38V61H39V60Z" fill="#B48B5A"/>
<path d="M40 60H39V61H40V60Z" fill="#B48B5A"/>
<path d="M39 59H38V60H39V59Z" fill="#B48B5A"/>
<path d="M40 59H39V60H40V59Z" fill="#B48B5A"/>
<path d="M40 58H39V59H40V58Z" fill="#B48B5A"/>
<path d="M40 62H39V63H40V62Z" fill="#B48B5A"/>
<path d="M41 63H40V64H41V63Z" fill="#B48B5A"/>
<path d="M41 61H40V62H41V61Z" fill="#B48B5A"/>
<path d="M41 60H40V61H41V60Z" fill="#B48B5A"/>
<path d="M41 59H40V60H41V59Z" fill="#B48B5A"/>
<path d="M41 58H40V59H41V58Z" fill="#B48B5A"/>
<path d="M42 61H41V62H42V61Z" fill="#B48B5A"/>
<path d="M42 60H41V61H42V60Z" fill="#B48B5A"/>
<path d="M42 59H41V60H42V59Z" fill="#B48B5A"/>
<path d="M42 58H41V59H42V58Z" fill="#B48B5A"/>
<path d="M43 60H42V61H43V60Z" fill="#B48B5A"/>
<path d="M43 59H42V60H43V59Z" fill="#B48B5A"/>
<path d="M43 58H42V59H43V58Z" fill="#B48B5A"/>
<path d="M41 57H40V58H41V57Z" fill="#B48B5A"/>
<path d="M42 57H41V58H42V57Z" fill="#B48B5A"/>
<path d="M43 57H42V58H43V57Z" fill="#B48B5A"/>
<path d="M41 56H40V57H41V56Z" fill="#B48B5A"/>
<path d="M42 56H41V57H42V56Z" fill="#B48B5A"/>
<path d="M42 55H41V56H42V55Z" fill="#B48B5A"/>
<path d="M42 54H41V55H42V54Z" fill="#B48B5A"/>
<path d="M43 56H42V57H43V56Z" fill="#B48B5A"/>
<path d="M41 62H40V63H41V62Z" fill="#B48B5A"/>
<path d="M54 67H53V68H54V67Z" fill="#B48B5A"/>
<path d="M55 67H54V68H55V67Z" fill="#B48B5A"/>
<path d="M56 67H55V68H56V67Z" fill="#B48B5A"/>
<path d="M56 66H55V67H56V66Z" fill="#B48B5A"/>
<path d="M57 66H56V67H57V66Z" fill="#B48B5A"/>
<path d="M58 66H57V67H58V66Z" fill="#B48B5A"/>
<path d="M59 65H58V66H59V65Z" fill="#B48B5A"/>
<path d="M60 64H59V65H60V64Z" fill="#B48B5A"/>
<path d="M61 63H60V64H61V63Z" fill="#B48B5A"/>
<path d="M54 68H53V69H54V68Z" fill="#B48B5A"/>
<path d="M35 48H34V49H35V48Z" fill="#CDAC7B"/>
<path d="M36 46H35V47H36V46Z" fill="#CDAC7B"/>
<path d="M41 50H40V51H41V50Z" fill="#CDAC7B"/>
<path d="M42 53H41V54H42V53Z" fill="#CDAC7B"/>
<path d="M41 54H40V55H41V54Z" fill="#CDAC7B"/>
<path d="M41 55H40V56H41V55Z" fill="#CDAC7B"/>
<path d="M40 56H39V57H40V56Z" fill="#CDAC7B"/>
<path d="M40 57H39V58H40V57Z" fill="#CDAC7B"/>
<path d="M39 58H38V59H39V58Z" fill="#CDAC7B"/>
<path d="M38 59H37V60H38V59Z" fill="#CDAC7B"/>
<path d="M36 60H35V61H36V60Z" fill="#CDAC7B"/>
<path d="M35 60H34V61H35V60Z" fill="#CDAC7B"/>
<path d="M34 60H33V61H34V60Z" fill="#CDAC7B"/>
<path d="M33 59H32V60H33V59Z" fill="#CDAC7B"/>
<path d="M62 41H61V42H62V41Z" fill="#FAA400"/>
<path d="M61 45H60V46H61V45Z" fill="#FAA400"/>
<path d="M61 46H60V47H61V46Z" fill="#FAA400"/>
<path d="M62 46H61V47H62V46Z" fill="#FAA400"/>
<path d="M62 47H61V48H62V47Z" fill="#FAA400"/>
<path d="M63 48H62V49H63V48Z" fill="#FAA400"/>
<path d="M61 49H60V50H61V49Z" fill="#FAA400"/>
<path d="M60 54H59V55H60V54Z" fill="#FAA400"/>
<path d="M62 54H61V55H62V54Z" fill="#FAA400"/>
<path d="M61 56H60V57H61V56Z" fill="#FAA400"/>
<path d="M62 57H61V58H62V57Z" fill="#FAA400"/>
<path d="M64 55H63V56H64V55Z" fill="#FAA400"/>
<path d="M65 53H64V54H65V53Z" fill="#FAA400"/>
<path d="M64 52H63V53H64V52Z" fill="#FAA400"/>
<path d="M65 51H64V52H65V51Z" fill="#FAA400"/>
<path d="M66 51H65V52H66V51Z" fill="#FAA400"/>
<path d="M65 49H64V50H65V49Z" fill="#FAA400"/>
<path d="M66 49H65V50H66V49Z" fill="#FAA400"/>
<path d="M66 48H65V49H66V48Z" fill="#FAA400"/>
<path d="M68 50H67V51H68V50Z" fill="#FAA400"/>
<path d="M68 45H67V46H68V45Z" fill="#FAA400"/>
<path d="M72 43H71V44H72V43Z" fill="#FAA400"/>
<path d="M73 42H72V43H73V42Z" fill="#FAA400"/>
<path d="M73 41H72V42H73V41Z" fill="#FAA400"/>
<path d="M74 41H73V42H74V41Z" fill="#FAA400"/>
<path d="M75 40H74V41H75V40Z" fill="#FAA400"/>
<path d="M75 36H74V37H75V36Z" fill="#FAA400"/>
<path d="M74 35H73V36H74V35Z" fill="#FAA400"/>
<path d="M78 43H77V44H78V43Z" fill="#FAA400"/>
<path d="M79 43H78V44H79V43Z" fill="#FAA400"/>
<path d="M79 42H78V43H79V42Z" fill="#FAA400"/>
<path d="M80 42H79V43H80V42Z" fill="#FAA400"/>
<path d="M69 49H68V50H69V49Z" fill="#FAA400"/>
<path d="M71 48H70V49H71V48Z" fill="#FAA400"/>
<path d="M70 51H69V52H70V51Z" fill="#FAA400"/>
<path d="M69 52H68V53H69V52Z" fill="#FAA400"/>
<path d="M69 53H68V54H69V53Z" fill="#FAA400"/>
<path d="M68 56H67V57H68V56Z" fill="#FAA400"/>
<path d="M75 35H74V36H75V35Z" fill="#FBDE2A"/>
<path d="M72 48H71V49H72V48Z" fill="#FBDE2A"/>
<path d="M71 49H70V50H71V49Z" fill="#FBDE2A"/>
<path d="M70 49H69V50H70V49Z" fill="#FBDE2A"/>
<path d="M70 50H69V51H70V50Z" fill="#FBDE2A"/>
<path d="M69 50H68V51H69V50Z" fill="#FBDE2A"/>
<path d="M69 51H68V52H69V51Z" fill="#FBDE2A"/>
<path d="M68 51H67V52H68V51Z" fill="#FBDE2A"/>
<path d="M68 52H67V53H68V52Z" fill="#FBDE2A"/>
<path d="M68 53H67V54H68V53Z" fill="#FBDE2A"/>
<path d="M68 54H67V55H68V54Z" fill="#FBDE2A"/>
<path d="M68 55H67V56H68V55Z" fill="#FBDE2A"/>
<path d="M63 54H62V55H63V54Z" fill="#FBDE2A"/>
<path d="M63 55H62V56H63V55Z" fill="#FBDE2A"/>
<path d="M61 54H60V55H61V54Z" fill="#FBDE2A"/>
<path d="M61 55H60V56H61V55Z" fill="#FBDE2A"/>
<path d="M60 52H59V53H60V52Z" fill="#FBDE2A"/>
<path d="M60 53H59V54H60V53Z" fill="#FBDE2A"/>
<path d="M61 50H60V51H61V50Z" fill="#FBDE2A"/>
<path d="M61 51H60V52H61V51Z" fill="#FBDE2A"/>
<path d="M62 49H61V50H62V49Z" fill="#FBDE2A"/>
<path d="M62 50H61V51H62V50Z" fill="#FBDE2A"/>
<path d="M63 49H62V50H63V49Z" fill="#FBDE2A"/>
<path d="M63 50H62V51H63V50Z" fill="#FBDE2A"/>
<path d="M64 49H63V50H64V49Z" fill="#FBDE2A"/>
<path d="M64 50H63V51H64V50Z" fill="#FBDE2A"/>
<path d="M65 47H64V48H65V47Z" fill="#FBDE2A"/>
<path d="M65 48H64V49H65V48Z" fill="#FBDE2A"/>
<path d="M66 46H65V47H66V46Z" fill="#FBDE2A"/>
<path d="M66 47H65V48H66V47Z" fill="#FBDE2A"/>
<path d="M61 52H60V53H61V52Z" fill="#FBDE2A"/>
<path d="M61 53H60V54H61V53Z" fill="#FBDE2A"/>
<path d="M62 51H61V52H62V51Z" fill="#FBDE2A"/>
<path d="M62 52H61V53H62V52Z" fill="#FBDE2A"/>
<path d="M62 53H61V54H62V53Z" fill="#FBDE2A"/>
<path d="M63 51H62V52H63V51Z" fill="#FBDE2A"/>
<path d="M64 51H63V52H64V51Z" fill="#FBDE2A"/>
<path d="M65 52H64V53H65V52Z" fill="#FBDE2A"/>
<path d="M64 48H63V49H64V48Z" fill="#FBDE2A"/>
<path d="M67 46H66V47H67V46Z" fill="#FBDE2A"/>
<path d="M63 52H62V53H63V52Z" fill="#FBDE2A"/>
<path d="M63 53H62V54H63V53Z" fill="#FBDE2A"/>
<path d="M64 54H63V55H64V54Z" fill="#FBDE2A"/>
<path d="M64 53H63V54H64V53Z" fill="#FBDE2A"/>
<path d="M67 51H66V52H67V51Z" fill="#FBDE2A"/>
<path d="M67 50H66V51H67V50Z" fill="#FBDE2A"/>
<path d="M66 50H65V51H66V50Z" fill="#FBDE2A"/>
<path d="M74 34H73V35H74V34Z" fill="#FBDE2A"/>
<path d="M66 38H65V39H66V38Z" fill="#FA4002"/>
<path d="M63 43H62V44H63V43Z" fill="#FA4002"/>
<path d="M64 43H63V44H64V43Z" fill="#FA4002"/>
<path d="M67 41H66V42H67V41Z" fill="#FA4002"/>
<path d="M68 41H67V42H68V41Z" fill="#FA4002"/>
<path d="M69 41H68V42H69V41Z" fill="#FA4002"/>
<path d="M70 41H69V42H70V41Z" fill="#FA4002"/>
<path d="M67 42H66V43H67V42Z" fill="#FA4002"/>
<path d="M66 42H65V43H66V42Z" fill="#FA4002"/>
<path d="M68 42H67V43H68V42Z" fill="#FA4002"/>
<path d="M69 42H68V43H69V42Z" fill="#FA4002"/>
<path d="M70 42H69V43H70V42Z" fill="#FA4002"/>
<path d="M71 42H70V43H71V42Z" fill="#FA4002"/>
<path d="M67 43H66V44H67V43Z" fill="#FA4002"/>
<path d="M66 43H65V44H66V43Z" fill="#FA4002"/>
<path d="M68 43H67V44H68V43Z" fill="#FA4002"/>
<path d="M69 43H68V44H69V43Z" fill="#FA4002"/>
<path d="M67 44H66V45H67V44Z" fill="#FA4002"/>
<path d="M66 44H65V45H66V44Z" fill="#FA4002"/>
<path d="M67 45H66V46H67V45Z" fill="#FA4002"/>
<path d="M66 45H65V46H66V45Z" fill="#FA4002"/>
<path d="M65 44H64V45H65V44Z" fill="#FA4002"/>
<path d="M65 45H64V46H65V45Z" fill="#FA4002"/>
<path d="M64 44H63V45H64V44Z" fill="#FA4002"/>
<path d="M64 45H63V46H64V45Z" fill="#FA4002"/>
<path d="M63 44H62V45H63V44Z" fill="#FA4002"/>
<path d="M63 45H62V46H63V45Z" fill="#FA4002"/>
<path d="M65 46H64V47H65V46Z" fill="#FA4002"/>
<path d="M64 46H63V47H64V46Z" fill="#FA4002"/>
<path d="M63 46H62V47H63V46Z" fill="#FA4002"/>
<path d="M64 47H63V48H64V47Z" fill="#FA4002"/>
<path d="M63 47H62V48H63V47Z" fill="#FA4002"/>
<path d="M62 48H61V49H62V48Z" fill="#FA4002"/>
<path d="M65 50H64V51H65V50Z" fill="#FA4002"/>
<path d="M62 55H61V56H62V55Z" fill="#FA4002"/>
<path d="M62 56H61V57H62V56Z" fill="#FA4002"/>
<path d="M63 56H62V57H63V56Z" fill="#FA4002"/>
<path d="M64 56H63V57H64V56Z" fill="#FA4002"/>
<path d="M65 54H64V55H65V54Z" fill="#FA4002"/>
<path d="M66 52H65V53H66V52Z" fill="#FA4002"/>
<path d="M66 53H65V54H66V53Z" fill="#FA4002"/>
<path d="M67 52H66V53H67V52Z" fill="#FA4002"/>
<path d="M67 53H66V54H67V53Z" fill="#FA4002"/>
<path d="M67 54H66V55H67V54Z" fill="#FA4002"/>
<path d="M67 55H66V56H67V55Z" fill="#FA4002"/>
<path d="M67 56H66V57H67V56Z" fill="#FA4002"/>
<path d="M67 57H66V58H67V57Z" fill="#FA4002"/>
<path d="M67 58H66V59H67V58Z" fill="#FA4002"/>
<path d="M68 57H67V58H68V57Z" fill="#FA4002"/>
<path d="M68 58H67V59H68V58Z" fill="#FA4002"/>
<path d="M69 56H68V57H69V56Z" fill="#FA4002"/>
<path d="M69 57H68V58H69V57Z" fill="#FA4002"/>
<path d="M69 54H68V55H69V54Z" fill="#FA4002"/>
<path d="M69 55H68V56H69V55Z" fill="#FA4002"/>
<path d="M70 55H69V56H70V55Z" fill="#FA4002"/>
<path d="M70 56H69V57H70V56Z" fill="#FA4002"/>
<path d="M70 53H69V54H70V53Z" fill="#FA4002"/>
<path d="M70 54H69V55H70V54Z" fill="#FA4002"/>
<path d="M71 53H70V54H71V53Z" fill="#FA4002"/>
<path d="M70 52H69V53H70V52Z" fill="#FA4002"/>
<path d="M71 52H70V53H71V52Z" fill="#FA4002"/>
<path d="M71 51H70V52H71V51Z" fill="#FA4002"/>
<path d="M71 50H70V51H71V50Z" fill="#FA4002"/>
<path d="M71 54H70V55H71V54Z" fill="#FA4002"/>
<path d="M72 50H71V51H72V50Z" fill="#FA4002"/>
<path d="M73 50H72V51H73V50Z" fill="#FA4002"/>
<path d="M72 49H71V50H72V49Z" fill="#FA4002"/>
<path d="M73 49H72V50H73V49Z" fill="#FA4002"/>
<path d="M74 49H73V50H74V49Z" fill="#FA4002"/>
<path d="M73 48H72V49H73V48Z" fill="#FA4002"/>
<path d="M74 48H73V49H74V48Z" fill="#FA4002"/>
<path d="M75 48H74V49H75V48Z" fill="#FA4002"/>
<path d="M73 47H72V48H73V47Z" fill="#FA4002"/>
<path d="M74 47H73V48H74V47Z" fill="#FA4002"/>
<path d="M75 47H74V48H75V47Z" fill="#FA4002"/>
<path d="M73 46H72V47H73V46Z" fill="#FA4002"/>
<path d="M72 47H71V48H72V47Z" fill="#FA4002"/>
<path d="M72 46H71V47H72V46Z" fill="#FA4002"/>
<path d="M71 47H70V48H71V47Z" fill="#FA4002"/>
<path d="M71 46H70V47H71V46Z" fill="#FA4002"/>
<path d="M70 47H69V48H70V47Z" fill="#FA4002"/>
<path d="M70 46H69V47H70V46Z" fill="#FA4002"/>
<path d="M69 47H68V48H69V47Z" fill="#FA4002"/>
<path d="M69 46H68V47H69V46Z" fill="#FA4002"/>
<path d="M70 45H69V46H70V45Z" fill="#FA4002"/>
<path d="M69 45H68V46H69V45Z" fill="#FA4002"/>
<path d="M68 47H67V48H68V47Z" fill="#FA4002"/>
<path d="M70 48H69V49H70V48Z" fill="#FA4002"/>
<path d="M69 48H68V49H69V48Z" fill="#FA4002"/>
<path d="M68 48H67V49H68V48Z" fill="#FA4002"/>
<path d="M68 49H67V50H68V49Z" fill="#FA4002"/>
<path d="M67 47H66V48H67V47Z" fill="#FA4002"/>
<path d="M67 48H66V49H67V48Z" fill="#FA4002"/>
<path d="M67 49H66V50H67V49Z" fill="#FA4002"/>
<path d="M68 46H67V47H68V46Z" fill="#FA4002"/>
<path d="M74 46H73V47H74V46Z" fill="#FA4002"/>
<path d="M75 46H74V47H75V46Z" fill="#FA4002"/>
<path d="M76 46H75V47H76V46Z" fill="#FA4002"/>
<path d="M77 46H76V47H77V46Z" fill="#FA4002"/>
<path d="M77 45H76V46H77V45Z" fill="#FA4002"/>
<path d="M78 45H77V46H78V45Z" fill="#FA4002"/>
<path d="M73 45H72V46H73V45Z" fill="#FA4002"/>
<path d="M74 45H73V46H74V45Z" fill="#FA4002"/>
<path d="M75 45H74V46H75V45Z" fill="#FA4002"/>
<path d="M67 59H66V60H67V59Z" fill="#FA4002"/>
<path d="M66 59H65V60H66V59Z" fill="#FA4002"/>
<path d="M63 57H62V58H63V57Z" fill="#FA4002"/>
<path d="M62 44H61V45H62V44Z" fill="#FA4002"/>
<path d="M62 45H61V46H62V45Z" fill="#FA4002"/>
<path d="M68 44H67V45H68V44Z" fill="#FA4002"/>
<path d="M69 44H68V45H69V44Z" fill="#FA4002"/>
<path d="M70 43H69V44H70V43Z" fill="#FA4002"/>
<path d="M71 43H70V44H71V43Z" fill="#FA4002"/>
<path d="M72 42H71V43H72V42Z" fill="#FA4002"/>
<path d="M74 42H73V43H74V42Z" fill="#FA4002"/>
<path d="M38 32H37V33H38V32Z" fill="#365AFE"/>
<path d="M37 33H36V34H37V33Z" fill="#365AFE"/>
<path d="M45 22H44V23H45V22Z" fill="#CD3939"/>
<path d="M44 23H43V24H44V23Z" fill="#CD3939"/>
<path d="M43 23H42V24H43V23Z" fill="#CD3939"/>
<path d="M42 24H41V25H42V24Z" fill="#CD3939"/>
<path d="M41 24H40V25H41V24Z" fill="#CD3939"/>
<path d="M40 25H39V26H40V25Z" fill="#CD3939"/>
<path d="M39 25H38V26H39V25Z" fill="#CD3939"/>
<path d="M38 25H37V26H38V25Z" fill="#CD3939"/>
<path d="M44 27H43V28H44V27Z" fill="#CD3939"/>
<path d="M44 26H43V27H44V26Z" fill="#CD3939"/>
<path d="M45 25H44V26H45V25Z" fill="#CD3939"/>
<path d="M46 24H45V25H46V24Z" fill="#CD3939"/>
<path d="M43 27H42V28H43V27Z" fill="#CD3939"/>
<path d="M42 27H41V28H42V27Z" fill="#CD3939"/>
<path d="M40 29H39V30H40V29Z" fill="#CD3939"/>
<path d="M37 30H36V31H37V30Z" fill="#CD3939"/>
<path d="M39 33H38V34H39V33Z" fill="#CD3939"/>
<path d="M40 33H39V34H40V33Z" fill="#CD3939"/>
<path d="M34 38H33V39H34V38Z" fill="#CD3939"/>
<path d="M35 38H34V39H35V38Z" fill="#CD3939"/>
<path d="M36 38H35V39H36V38Z" fill="#CD3939"/>
<path d="M37 38H36V39H37V38Z" fill="#CD3939"/>
<path d="M38 38H37V39H38V38Z" fill="#CD3939"/>
<path d="M39 38H38V39H39V38Z" fill="#CD3939"/>
<path d="M40 38H39V39H40V38Z" fill="#CD3939"/>
<path d="M41 38H40V39H41V38Z" fill="#CD3939"/>
<path d="M42 38H41V39H42V38Z" fill="#CD3939"/>
<path d="M43 38H42V39H43V38Z" fill="#CD3939"/>
<path d="M40 37H39V38H40V37Z" fill="#CD3939"/>
<path d="M41 37H40V38H41V37Z" fill="#CD3939"/>
<path d="M42 37H41V38H42V37Z" fill="#CD3939"/>
<path d="M43 37H42V38H43V37Z" fill="#CD3939"/>
<path d="M41 36H40V37H41V36Z" fill="#CD3939"/>
<path d="M42 36H41V37H42V36Z" fill="#CD3939"/>
<path d="M43 36H42V37H43V36Z" fill="#CD3939"/>
<path d="M44 36H43V37H44V36Z" fill="#CD3939"/>
<path d="M42 35H41V36H42V35Z" fill="#CD3939"/>
<path d="M43 35H42V36H43V35Z" fill="#CD3939"/>
<path d="M44 35H43V36H44V35Z" fill="#CD3939"/>
<path d="M44 34H43V35H44V34Z" fill="#CD3939"/>
<path d="M45 34H44V35H45V34Z" fill="#CD3939"/>
<path d="M45 33H44V34H45V33Z" fill="#CD3939"/>
<path d="M33 39H32V40H33V39Z" fill="#CD3939"/>
<path d="M34 39H33V40H34V39Z" fill="#CD3939"/>
<path d="M35 39H34V40H35V39Z" fill="#CD3939"/>
<path d="M36 39H35V40H36V39Z" fill="#CD3939"/>
<path d="M37 39H36V40H37V39Z" fill="#CD3939"/>
<path d="M38 39H37V40H38V39Z" fill="#CD3939"/>
<path d="M39 39H38V40H39V39Z" fill="#CD3939"/>
<path d="M40 39H39V40H40V39Z" fill="#CD3939"/>
<path d="M41 39H40V40H41V39Z" fill="#CD3939"/>
<path d="M42 39H41V40H42V39Z" fill="#CD3939"/>
<path d="M38 40H37V41H38V40Z" fill="#CD3939"/>
<path d="M39 40H38V41H39V40Z" fill="#CD3939"/>
<path d="M40 40H39V41H40V40Z" fill="#CD3939"/>
<path d="M41 40H40V41H41V40Z" fill="#CD3939"/>
<path d="M42 40H41V41H42V40Z" fill="#CD3939"/>
<path d="M39 41H38V42H39V41Z" fill="#CD3939"/>
<path d="M40 41H39V42H40V41Z" fill="#CD3939"/>
<path d="M41 41H40V42H41V41Z" fill="#CD3939"/>
<path d="M42 41H41V42H42V41Z" fill="#CD3939"/>
<path d="M39 42H38V43H39V42Z" fill="#CD3939"/>
<path d="M40 42H39V43H40V42Z" fill="#CD3939"/>
<path d="M41 42H40V43H41V42Z" fill="#CD3939"/>
<path d="M42 42H41V43H42V42Z" fill="#CD3939"/>
<path d="M43 42H42V43H43V42Z" fill="#CD3939"/>
<path d="M39 43H38V44H39V43Z" fill="#CD3939"/>
<path d="M38 43H37V44H38V43Z" fill="#CD3939"/>
<path d="M35 45H34V46H35V45Z" fill="#CD3939"/>
<path d="M44 44H43V45H44V44Z" fill="#CD3939"/>
<path d="M45 44H44V45H45V44Z" fill="#CD3939"/>
<path d="M46 45H45V46H46V45Z" fill="#CD3939"/>
<path d="M47 46H46V47H47V46Z" fill="#CD3939"/>
<path d="M47 47H46V48H47V47Z" fill="#CD3939"/>
<path d="M48 47H47V48H48V47Z" fill="#CD3939"/>
<path d="M46 47H45V48H46V47Z" fill="#CD3939"/>
<path d="M47 48H46V49H47V48Z" fill="#CD3939"/>
<path d="M44 48H43V49H44V48Z" fill="#CD3939"/>
<path d="M44 49H43V50H44V49Z" fill="#CD3939"/>
<path d="M44 50H43V51H44V50Z" fill="#CD3939"/>
<path d="M45 51H44V52H45V51Z" fill="#CD3939"/>
<path d="M45 52H44V53H45V52Z" fill="#CD3939"/>
<path d="M45 53H44V54H45V53Z" fill="#CD3939"/>
<path d="M45 54H44V55H45V54Z" fill="#CD3939"/>
<path d="M45 55H44V56H45V55Z" fill="#CD3939"/>
<path d="M45 56H44V57H45V56Z" fill="#CD3939"/>
<path d="M46 56H45V57H46V56Z" fill="#CD3939"/>
<path d="M46 57H45V58H46V57Z" fill="#CD3939"/>
<path d="M46 58H45V59H46V58Z" fill="#CD3939"/>
<path d="M46 59H45V60H46V59Z" fill="#CD3939"/>
<path d="M45 57H44V58H45V57Z" fill="#CD3939"/>
<path d="M45 58H44V59H45V58Z" fill="#CD3939"/>
<path d="M45 59H44V60H45V59Z" fill="#CD3939"/>
<path d="M44 51H43V52H44V51Z" fill="#CD3939"/>
<path d="M44 52H43V53H44V52Z" fill="#CD3939"/>
<path d="M44 53H43V54H44V53Z" fill="#CD3939"/>
<path d="M44 54H43V55H44V54Z" fill="#CD3939"/>
<path d="M44 55H43V56H44V55Z" fill="#CD3939"/>
<path d="M43 51H42V52H43V51Z" fill="#CD3939"/>
<path d="M43 52H42V53H43V52Z" fill="#CD3939"/>
<path d="M42 52H41V53H42V52Z" fill="#CD3939"/>
<path d="M43 53H42V54H43V53Z" fill="#CD3939"/>
<path d="M43 54H42V55H43V54Z" fill="#CD3939"/>
<path d="M43 55H42V56H43V55Z" fill="#CD3939"/>
<path d="M44 56H43V57H44V56Z" fill="#CD3939"/>
<path d="M44 57H43V58H44V57Z" fill="#CD3939"/>
<path d="M44 58H43V59H44V58Z" fill="#CD3939"/>
<path d="M44 59H43V60H44V59Z" fill="#CD3939"/>
<path d="M44 60H43V61H44V60Z" fill="#CD3939"/>
<path d="M46 53H45V54H46V53Z" fill="#CD3939"/>
<path d="M46 54H45V55H46V54Z" fill="#CD3939"/>
<path d="M46 55H45V56H46V55Z" fill="#CD3939"/>
<path d="M47 55H46V56H47V55Z" fill="#CD3939"/>
<path d="M47 56H46V57H47V56Z" fill="#CD3939"/>
<path d="M48 56H47V57H48V56Z" fill="#CD3939"/>
<path d="M47 57H46V58H47V57Z" fill="#CD3939"/>
<path d="M47 58H46V59H47V58Z" fill="#CD3939"/>
<path d="M47 59H46V60H47V59Z" fill="#CD3939"/>
<path d="M47 60H46V61H47V60Z" fill="#CD3939"/>
<path d="M48 60H47V61H48V60Z" fill="#CD3939"/>
<path d="M48 61H47V62H48V61Z" fill="#CD3939"/>
<path d="M49 61H48V62H49V61Z" fill="#CD3939"/>
<path d="M49 62H48V63H49V62Z" fill="#CD3939"/>
<path d="M50 62H49V63H50V62Z" fill="#CD3939"/>
<path d="M49 63H48V64H49V63Z" fill="#CD3939"/>
<path d="M50 63H49V64H50V63Z" fill="#CD3939"/>
<path d="M49 64H48V65H49V64Z" fill="#CD3939"/>
<path d="M50 64H49V65H50V64Z" fill="#CD3939"/>
<path d="M49 65H48V66H49V65Z" fill="#CD3939"/>
<path d="M49 66H48V67H49V66Z" fill="#CD3939"/>
<path d="M49 67H48V68H49V67Z" fill="#CD3939"/>
<path d="M48 67H47V68H48V67Z" fill="#CD3939"/>
<path d="M49 68H48V69H49V68Z" fill="#CD3939"/>
<path d="M48 68H47V69H48V68Z" fill="#CD3939"/>
<path d="M49 69H48V70H49V69Z" fill="#CD3939"/>
<path d="M48 69H47V70H48V69Z" fill="#CD3939"/>
<path d="M49 70H48V71H49V70Z" fill="#CD3939"/>
<path d="M48 70H47V71H48V70Z" fill="#CD3939"/>
<path d="M49 71H48V72H49V71Z" fill="#CD3939"/>
<path d="M48 71H47V72H48V71Z" fill="#CD3939"/>
<path d="M49 72H48V73H49V72Z" fill="#CD3939"/>
<path d="M50 70H49V71H50V70Z" fill="#CD3939"/>
<path d="M50 71H49V72H50V71Z" fill="#CD3939"/>
<path d="M50 72H49V73H50V72Z" fill="#CD3939"/>
<path d="M48 72H47V73H48V72Z" fill="#CD3939"/>
<path d="M47 68H46V69H47V68Z" fill="#CD3939"/>
<path d="M47 69H46V70H47V69Z" fill="#CD3939"/>
<path d="M47 70H46V71H47V70Z" fill="#CD3939"/>
<path d="M46 69H45V70H46V69Z" fill="#CD3939"/>
<path d="M46 70H45V71H46V70Z" fill="#CD3939"/>
<path d="M45 69H44V70H45V69Z" fill="#CD3939"/>
<path d="M45 70H44V71H45V70Z" fill="#CD3939"/>
<path d="M44 69H43V70H44V69Z" fill="#CD3939"/>
<path d="M43 69H42V70H43V69Z" fill="#CD3939"/>
<path d="M42 68H41V69H42V68Z" fill="#CD3939"/>
<path d="M36 69H35V70H36V69Z" fill="#CD3939"/>
<path d="M34 69H33V70H34V69Z" fill="#CD3939"/>
<path d="M35 69H34V70H35V69Z" fill="#CD3939"/>
<path d="M35 70H34V71H35V70Z" fill="#CD3939"/>
<path d="M34 70H33V71H34V70Z" fill="#CD3939"/>
<path d="M35 68H34V69H35V68Z" fill="#CD3939"/>
<path d="M34 68H33V69H34V68Z" fill="#CD3939"/>
<path d="M33 69H32V70H33V69Z" fill="#CD3939"/>
<path d="M33 70H32V71H33V70Z" fill="#CD3939"/>
<path d="M33 68H32V69H33V68Z" fill="#CD3939"/>
<path d="M32 69H31V70H32V69Z" fill="#CD3939"/>
<path d="M32 70H31V71H32V70Z" fill="#CD3939"/>
<path d="M33 71H32V72H33V71Z" fill="#CD3939"/>
<path d="M32 71H31V72H32V71Z" fill="#CD3939"/>
<path d="M31 71H30V72H31V71Z" fill="#CD3939"/>
<path d="M31 72H30V73H31V72Z" fill="#CD3939"/>
<path d="M30 71H29V72H30V71Z" fill="#CD3939"/>
<path d="M32 68H31V69H32V68Z" fill="#CD3939"/>
<path d="M33 67H32V68H33V67Z" fill="#CD3939"/>
<path d="M33 66H32V67H33V66Z" fill="#CD3939"/>
<path d="M34 67H33V68H34V67Z" fill="#CD3939"/>
<path d="M34 66H33V67H34V66Z" fill="#CD3939"/>
<path d="M35 66H34V67H35V66Z" fill="#CD3939"/>
<path d="M32 67H31V68H32V67Z" fill="#CD3939"/>
<path d="M32 66H31V67H32V66Z" fill="#CD3939"/>
<path d="M31 69H30V70H31V69Z" fill="#CD3939"/>
<path d="M31 68H30V69H31V68Z" fill="#CD3939"/>
<path d="M31 67H30V68H31V67Z" fill="#CD3939"/>
<path d="M31 66H30V67H31V66Z" fill="#CD3939"/>
<path d="M33 65H32V66H33V65Z" fill="#CD3939"/>
<path d="M34 65H33V66H34V65Z" fill="#CD3939"/>
<path d="M32 65H31V66H32V65Z" fill="#CD3939"/>
<path d="M33 64H32V65H33V64Z" fill="#CD3939"/>
<path d="M32 64H31V65H32V64Z" fill="#CD3939"/>
<path d="M31 65H30V66H31V65Z" fill="#CD3939"/>
<path d="M30 67H29V68H30V67Z" fill="#CD3939"/>
<path d="M30 66H29V67H30V66Z" fill="#CD3939"/>
<path d="M30 65H29V66H30V65Z" fill="#CD3939"/>
<path d="M29 66H28V67H29V66Z" fill="#CD3939"/>
<path d="M29 65H28V66H29V65Z" fill="#CD3939"/>
<path d="M28 65H27V66H28V65Z" fill="#CD3939"/>
<path d="M29 64H28V65H29V64Z" fill="#CD3939"/>
<path d="M30 63H29V64H30V63Z" fill="#CD3939"/>
<path d="M44 70H43V71H44V70Z" fill="#CD3939"/>
<path d="M43 72H42V73H43V72Z" fill="#CD3939"/>
<path d="M43 73H42V74H43V73Z" fill="#CD3939"/>
<path d="M44 73H43V74H44V73Z" fill="#CD3939"/>
<path d="M47 71H46V72H47V71Z" fill="#CD3939"/>
<path d="M47 72H46V73H47V72Z" fill="#CD3939"/>
<path d="M46 72H45V73H46V72Z" fill="#CD3939"/>
<path d="M46 73H45V74H46V73Z" fill="#CD3939"/>
<path d="M47 73H46V74H47V73Z" fill="#CD3939"/>
<path d="M50 65H49V66H50V65Z" fill="#CD3939"/>
<path d="M52 65H51V66H52V65Z" fill="#CD3939"/>
<path d="M51 66H50V67H51V66Z" fill="#CD3939"/>
<path d="M52 66H51V67H52V66Z" fill="#CD3939"/>
<path d="M53 65H52V66H53V65Z" fill="#CD3939"/>
<path d="M53 66H52V67H53V66Z" fill="#CD3939"/>
<path d="M54 65H53V66H54V65Z" fill="#CD3939"/>
<path d="M54 66H53V67H54V66Z" fill="#CD3939"/>
<path d="M55 65H54V66H55V65Z" fill="#CD3939"/>
<path d="M55 66H54V67H55V66Z" fill="#CD3939"/>
<path d="M56 64H55V65H56V64Z" fill="#CD3939"/>
<path d="M56 65H55V66H56V65Z" fill="#CD3939"/>
<path d="M57 64H56V65H57V64Z" fill="#CD3939"/>
<path d="M57 65H56V66H57V65Z" fill="#CD3939"/>
<path d="M58 64H57V65H58V64Z" fill="#CD3939"/>
<path d="M58 65H57V66H58V65Z" fill="#CD3939"/>
<path d="M59 63H58V64H59V63Z" fill="#CD3939"/>
<path d="M60 63H59V64H60V63Z" fill="#CD3939"/>
<path d="M61 62H60V63H61V62Z" fill="#CD3939"/>
<path d="M62 62H61V63H62V62Z" fill="#CD3939"/>
<path d="M63 61H62V62H63V61Z" fill="#CD3939"/>
<path d="M59 64H58V65H59V64Z" fill="#CD3939"/>
<path d="M51 62H50V63H51V62Z" fill="#CD3939"/>
<path d="M51 61H50V62H51V61Z" fill="#CD3939"/>
<path d="M48 48H47V49H48V48Z" fill="#CD3939"/>
<path d="M49 48H48V49H49V48Z" fill="#CD3939"/>
<path d="M48 49H47V50H48V49Z" fill="#CD3939"/>
<path d="M49 49H48V50H49V49Z" fill="#CD3939"/>
<path d="M49 50H48V51H49V50Z" fill="#CD3939"/>
<path d="M50 48H49V49H50V48Z" fill="#CD3939"/>
<path d="M51 49H50V50H51V49Z" fill="#CD3939"/>
<path d="M52 50H51V51H52V50Z" fill="#CD3939"/>
<path d="M53 51H52V52H53V51Z" fill="#CD3939"/>
<path d="M54 53H53V54H54V53Z" fill="#CD3939"/>
<path d="M54 54H53V55H54V54Z" fill="#CD3939"/>
<path d="M53 54H52V55H53V54Z" fill="#CD3939"/>
<path d="M53 55H52V56H53V55Z" fill="#CD3939"/>
<path d="M52 55H51V56H52V55Z" fill="#CD3939"/>
<path d="M51 55H50V56H51V55Z" fill="#CD3939"/>
<path d="M53 56H52V57H53V56Z" fill="#CD3939"/>
<path d="M52 56H51V57H52V56Z" fill="#CD3939"/>
<path d="M52 58H51V59H52V58Z" fill="#CD3939"/>
<path d="M52 59H51V60H52V59Z" fill="#CD3939"/>
<path d="M51 56H50V57H51V56Z" fill="#CD3939"/>
<path d="M50 56H49V57H50V56Z" fill="#CD3939"/>
<path d="M52 57H51V58H52V57Z" fill="#CD3939"/>
<path d="M51 57H50V58H51V57Z" fill="#CD3939"/>
<path d="M46 48H45V49H46V48Z" fill="#CD3939"/>
<path d="M45 47H44V48H45V47Z" fill="#CD3939"/>
<path d="M34 45H33V46H34V45Z" fill="#CD3939"/>
<path d="M34 46H33V47H34V46Z" fill="#CD3939"/>
<path d="M33 46H32V47H33V46Z" fill="#CD3939"/>
<path d="M34 47H33V48H34V47Z" fill="#CD3939"/>
<path d="M33 47H32V48H33V47Z" fill="#CD3939"/>
<path d="M32 47H31V48H32V47Z" fill="#CD3939"/>
<path d="M31 47H30V48H31V47Z" fill="#CD3939"/>
<path d="M33 48H32V49H33V48Z" fill="#CD3939"/>
<path d="M32 48H31V49H32V48Z" fill="#CD3939"/>
<path d="M31 48H30V49H31V48Z" fill="#CD3939"/>
<path d="M30 48H29V49H30V48Z" fill="#CD3939"/>
<path d="M31 49H30V50H31V49Z" fill="#CD3939"/>
<path d="M30 49H29V50H30V49Z" fill="#CD3939"/>
<path d="M29 48H28V49H29V48Z" fill="#CD3939"/>
<path d="M29 49H28V50H29V49Z" fill="#CD3939"/>
<path d="M24 52H23V53H24V52Z" fill="#CD3939"/>
<path d="M24 53H23V54H24V53Z" fill="#CD3939"/>
<path d="M25 52H24V53H25V52Z" fill="#CD3939"/>
<path d="M25 53H24V54H25V53Z" fill="#CD3939"/>
<path d="M24 54H23V55H24V54Z" fill="#CD3939"/>
<path d="M25 54H24V55H25V54Z" fill="#CD3939"/>
<path d="M25 55H24V56H25V55Z" fill="#CD3939"/>
<path d="M25 56H24V57H25V56Z" fill="#CD3939"/>
<path d="M25 57H24V58H25V57Z" fill="#CD3939"/>
<path d="M26 53H25V54H26V53Z" fill="#CD3939"/>
<path d="M27 53H26V54H27V53Z" fill="#CD3939"/>
<path d="M26 54H25V55H26V54Z" fill="#CD3939"/>
<path d="M30 50H29V51H30V50Z" fill="#CD3939"/>
<path d="M37 44H36V45H37V44Z" fill="#CD3939"/>
<path d="M40 43H39V44H40V43Z" fill="#CD3939"/>
<path d="M41 43H40V44H41V43Z" fill="#CD3939"/>
<path d="M41 44H40V45H41V44Z" fill="#CD3939"/>
<path d="M42 43H41V44H42V43Z" fill="#CD3939"/>
<path d="M31 30H30V31H31V30Z" fill="#CD3939"/>
<path d="M31 31H30V32H31V31Z" fill="#CD3939"/>
<path d="M30 33H29V34H30V33Z" fill="#CD3939"/>
<path d="M30 38H29V39H30V38Z" fill="#CD3939"/>
<path d="M31 38H30V39H31V38Z" fill="#CD3939"/>
<path d="M32 38H31V39H32V38Z" fill="#CD3939"/>
<path d="M33 37H32V38H33V37Z" fill="#CD3939"/>
<path d="M37 45H36V46H37V45Z" fill="#E6CDAC"/>
<path d="M38 45H37V46H38V45Z" fill="#E6CDAC"/>
<path d="M37 46H36V47H37V46Z" fill="#E6CDAC"/>
<path d="M38 46H37V47H38V46Z" fill="#E6CDAC"/>
<path d="M37 47H36V48H37V47Z" fill="#E6CDAC"/>
<path d="M38 47H37V48H38V47Z" fill="#E6CDAC"/>
<path d="M37 48H36V49H37V48Z" fill="#E6CDAC"/>
<path d="M38 48H37V49H38V48Z" fill="#E6CDAC"/>
<path d="M37 49H36V50H37V49Z" fill="#E6CDAC"/>
<path d="M38 49H37V50H38V49Z" fill="#E6CDAC"/>
<path d="M37 50H36V51H37V50Z" fill="#E6CDAC"/>
<path d="M38 50H37V51H38V50Z" fill="#E6CDAC"/>
<path d="M37 51H36V52H37V51Z" fill="#E6CDAC"/>
<path d="M38 51H37V52H38V51Z" fill="#E6CDAC"/>
<path d="M37 52H36V53H37V52Z" fill="#E6CDAC"/>
<path d="M38 52H37V53H38V52Z" fill="#E6CDAC"/>
<path d="M37 53H36V54H37V53Z" fill="#E6CDAC"/>
<path d="M38 53H37V54H38V53Z" fill="#E6CDAC"/>
<path d="M37 54H36V55H37V54Z" fill="#E6CDAC"/>
<path d="M38 54H37V55H38V54Z" fill="#E6CDAC"/>
<path d="M37 55H36V56H37V55Z" fill="#E6CDAC"/>
<path d="M38 55H37V56H38V55Z" fill="#E6CDAC"/>
<path d="M37 56H36V57H37V56Z" fill="#E6CDAC"/>
<path d="M38 56H37V57H38V56Z" fill="#E6CDAC"/>
<path d="M37 57H36V58H37V57Z" fill="#E6CDAC"/>
<path d="M38 57H37V58H38V57Z" fill="#E6CDAC"/>
<path d="M39 46H38V47H39V46Z" fill="#E6CDAC"/>
<path d="M39 47H38V48H39V47Z" fill="#E6CDAC"/>
<path d="M39 48H38V49H39V48Z" fill="#E6CDAC"/>
<path d="M39 49H38V50H39V49Z" fill="#E6CDAC"/>
<path d="M39 50H38V51H39V50Z" fill="#E6CDAC"/>
<path d="M39 51H38V52H39V51Z" fill="#E6CDAC"/>
<path d="M39 52H38V53H39V52Z" fill="#E6CDAC"/>
<path d="M39 53H38V54H39V53Z" fill="#E6CDAC"/>
<path d="M39 54H38V55H39V54Z" fill="#E6CDAC"/>
<path d="M39 55H38V56H39V55Z" fill="#E6CDAC"/>
<path d="M40 48H39V49H40V48Z" fill="#E6CDAC"/>
<path d="M40 49H39V50H40V49Z" fill="#E6CDAC"/>
<path d="M40 50H39V51H40V50Z" fill="#E6CDAC"/>
<path d="M40 51H39V52H40V51Z" fill="#E6CDAC"/>
<path d="M40 52H39V53H40V52Z" fill="#E6CDAC"/>
<path d="M40 53H39V54H40V53Z" fill="#E6CDAC"/>
<path d="M41 51H40V52H41V51Z" fill="#E6CDAC"/>
<path d="M41 52H40V53H41V52Z" fill="#E6CDAC"/>
<path d="M41 53H40V54H41V53Z" fill="#E6CDAC"/>
<path d="M40 54H39V55H40V54Z" fill="#E6CDAC"/>
<path d="M40 55H39V56H40V55Z" fill="#E6CDAC"/>
<path d="M39 56H38V57H39V56Z" fill="#E6CDAC"/>
<path d="M39 57H38V58H39V57Z" fill="#E6CDAC"/>
<path d="M37 58H36V59H37V58Z" fill="#E6CDAC"/>
<path d="M36 47H35V48H36V47Z" fill="#E6CDAC"/>
<path d="M36 48H35V49H36V48Z" fill="#E6CDAC"/>
<path d="M36 49H35V50H36V49Z" fill="#E6CDAC"/>
<path d="M36 50H35V51H36V50Z" fill="#E6CDAC"/>
<path d="M36 51H35V52H36V51Z" fill="#E6CDAC"/>
<path d="M36 52H35V53H36V52Z" fill="#E6CDAC"/>
<path d="M36 53H35V54H36V53Z" fill="#E6CDAC"/>
<path d="M36 54H35V55H36V54Z" fill="#E6CDAC"/>
<path d="M36 55H35V56H36V55Z" fill="#E6CDAC"/>
<path d="M36 56H35V57H36V56Z" fill="#E6CDAC"/>
<path d="M36 57H35V58H36V57Z" fill="#E6CDAC"/>
<path d="M36 58H35V59H36V58Z" fill="#E6CDAC"/>
<path d="M35 49H34V50H35V49Z" fill="#E6CDAC"/>
<path d="M35 50H34V51H35V50Z" fill="#E6CDAC"/>
<path d="M35 51H34V52H35V51Z" fill="#E6CDAC"/>
<path d="M35 52H34V53H35V52Z" fill="#E6CDAC"/>
<path d="M35 53H34V54H35V53Z" fill="#E6CDAC"/>
<path d="M35 54H34V55H35V54Z" fill="#E6CDAC"/>
<path d="M35 55H34V56H35V55Z" fill="#E6CDAC"/>
<path d="M35 56H34V57H35V56Z" fill="#E6CDAC"/>
<path d="M35 57H34V58H35V57Z" fill="#E6CDAC"/>
<path d="M35 58H34V59H35V58Z" fill="#E6CDAC"/>
<path d="M34 51H33V52H34V51Z" fill="#E6CDAC"/>
<path d="M34 52H33V53H34V52Z" fill="#E6CDAC"/>
<path d="M34 53H33V54H34V53Z" fill="#E6CDAC"/>
<path d="M34 54H33V55H34V54Z" fill="#E6CDAC"/>
<path d="M34 55H33V56H34V55Z" fill="#E6CDAC"/>
<path d="M34 56H33V57H34V56Z" fill="#E6CDAC"/>
<path d="M34 57H33V58H34V57Z" fill="#E6CDAC"/>
<path d="M34 58H33V59H34V58Z" fill="#E6CDAC"/>
<path d="M37 59H36V60H37V59Z" fill="#E6CDAC"/>
<path d="M36 59H35V60H36V59Z" fill="#E6CDAC"/>
<path d="M35 59H34V60H35V59Z" fill="#E6CDAC"/>
<path d="M34 59H33V60H34V59Z" fill="#E6CDAC"/>
<path d="M33 54H32V55H33V54Z" fill="#E6CDAC"/>
<path d="M33 55H32V56H33V55Z" fill="#E6CDAC"/>
<path d="M33 56H32V57H33V56Z" fill="#E6CDAC"/>
<path d="M33 57H32V58H33V57Z" fill="#E6CDAC"/>
<path d="M33 58H32V59H33V58Z" fill="#E6CDAC"/>
<path d="M38 58H37V59H38V58Z" fill="#E6CDAC"/>
<path d="M46 23H45V24H46V23Z" fill="#FA524A"/>
<path d="M45 24H44V25H45V24Z" fill="#FA524A"/>
<path d="M44 25H43V26H44V25Z" fill="#FA524A"/>
<path d="M43 25H42V26H43V25Z" fill="#FA524A"/>
<path d="M42 25H41V26H42V25Z" fill="#FA524A"/>
<path d="M41 25H40V26H41V25Z" fill="#FA524A"/>
<path d="M43 26H42V27H43V26Z" fill="#FA524A"/>
<path d="M42 26H41V27H42V26Z" fill="#FA524A"/>
<path d="M41 26H40V27H41V26Z" fill="#FA524A"/>
<path d="M40 26H39V27H40V26Z" fill="#FA524A"/>
<path d="M39 26H38V27H39V26Z" fill="#FA524A"/>
<path d="M38 26H37V27H38V26Z" fill="#FA524A"/>
<path d="M40 27H39V28H40V27Z" fill="#FA524A"/>
<path d="M39 27H38V28H39V27Z" fill="#FA524A"/>
<path d="M38 27H37V28H38V27Z" fill="#FA524A"/>
<path d="M40 28H39V29H40V28Z" fill="#FA524A"/>
<path d="M41 27H40V28H41V27Z" fill="#FA524A"/>
<path d="M41 28H40V29H41V28Z" fill="#FA524A"/>
<path d="M39 28H38V29H39V28Z" fill="#FA524A"/>
<path d="M38 28H37V29H38V28Z" fill="#FA524A"/>
<path d="M37 26H36V27H37V26Z" fill="#FA524A"/>
<path d="M37 27H36V28H37V27Z" fill="#FA524A"/>
<path d="M36 26H35V27H36V26Z" fill="#FA524A"/>
<path d="M36 27H35V28H36V27Z" fill="#FA524A"/>
<path d="M35 27H34V28H35V27Z" fill="#FA524A"/>
<path d="M35 28H34V29H35V28Z" fill="#FA524A"/>
<path d="M36 29H35V30H36V29Z" fill="#FA524A"/>
<path d="M36 30H35V31H36V30Z" fill="#FA524A"/>
<path d="M34 32H33V33H34V32Z" fill="#FA524A"/>
<path d="M34 33H33V34H34V33Z" fill="#FA524A"/>
<path d="M34 34H33V35H34V34Z" fill="#FA524A"/>
<path d="M34 35H33V36H34V35Z" fill="#FA524A"/>
<path d="M35 33H34V34H35V33Z" fill="#FA524A"/>
<path d="M35 34H34V35H35V34Z" fill="#FA524A"/>
<path d="M35 35H34V36H35V35Z" fill="#FA524A"/>
<path d="M36 34H35V35H36V34Z" fill="#FA524A"/>
<path d="M36 35H35V36H36V35Z" fill="#FA524A"/>
<path d="M37 34H36V35H37V34Z" fill="#FA524A"/>
<path d="M37 35H36V36H37V35Z" fill="#FA524A"/>
<path d="M38 34H37V35H38V34Z" fill="#FA524A"/>
<path d="M38 35H37V36H38V35Z" fill="#FA524A"/>
<path d="M39 34H38V35H39V34Z" fill="#FA524A"/>
<path d="M39 35H38V36H39V35Z" fill="#FA524A"/>
<path d="M34 36H33V37H34V36Z" fill="#FA524A"/>
<path d="M35 36H34V37H35V36Z" fill="#FA524A"/>
<path d="M36 36H35V37H36V36Z" fill="#FA524A"/>
<path d="M37 36H36V37H37V36Z" fill="#FA524A"/>
<path d="M38 36H37V37H38V36Z" fill="#FA524A"/>
<path d="M39 36H38V37H39V36Z" fill="#FA524A"/>
<path d="M40 34H39V35H40V34Z" fill="#FA524A"/>
<path d="M40 35H39V36H40V35Z" fill="#FA524A"/>
<path d="M41 34H40V35H41V34Z" fill="#FA524A"/>
<path d="M41 33H40V34H41V33Z" fill="#FA524A"/>
<path d="M41 32H40V33H41V32Z" fill="#FA524A"/>
<path d="M41 31H40V32H41V31Z" fill="#FA524A"/>
<path d="M41 30H40V31H41V30Z" fill="#FA524A"/>
<path d="M41 29H40V30H41V29Z" fill="#FA524A"/>
<path d="M42 28H41V29H42V28Z" fill="#FA524A"/>
<path d="M42 34H41V35H42V34Z" fill="#FA524A"/>
<path d="M42 33H41V34H42V33Z" fill="#FA524A"/>
<path d="M42 32H41V33H42V32Z" fill="#FA524A"/>
<path d="M42 31H41V32H42V31Z" fill="#FA524A"/>
<path d="M42 30H41V31H42V30Z" fill="#FA524A"/>
<path d="M42 29H41V30H42V29Z" fill="#FA524A"/>
<path d="M43 34H42V35H43V34Z" fill="#FA524A"/>
<path d="M43 33H42V34H43V33Z" fill="#FA524A"/>
<path d="M43 32H42V33H43V32Z" fill="#FA524A"/>
<path d="M43 31H42V32H43V31Z" fill="#FA524A"/>
<path d="M44 33H43V34H44V33Z" fill="#FA524A"/>
<path d="M44 32H43V33H44V32Z" fill="#FA524A"/>
<path d="M44 31H43V32H44V31Z" fill="#FA524A"/>
<path d="M43 30H42V31H43V30Z" fill="#FA524A"/>
<path d="M43 29H42V30H43V29Z" fill="#FA524A"/>
<path d="M41 35H40V36H41V35Z" fill="#FA524A"/>
<path d="M34 27H33V28H34V27Z" fill="#FA524A"/>
<path d="M34 28H33V29H34V28Z" fill="#FA524A"/>
<path d="M34 29H33V30H34V29Z" fill="#FA524A"/>
<path d="M33 28H32V29H33V28Z" fill="#FA524A"/>
<path d="M33 29H32V30H33V29Z" fill="#FA524A"/>
<path d="M32 29H31V30H32V29Z" fill="#FA524A"/>
<path d="M31 29H30V30H31V29Z" fill="#FA524A"/>
<path d="M32 30H31V31H32V30Z" fill="#FA524A"/>
<path d="M32 31H31V32H32V31Z" fill="#FA524A"/>
<path d="M32 32H31V33H32V32Z" fill="#FA524A"/>
<path d="M32 33H31V34H32V33Z" fill="#FA524A"/>
<path d="M32 34H31V35H32V34Z" fill="#FA524A"/>
<path d="M31 33H30V34H31V33Z" fill="#FA524A"/>
<path d="M31 34H30V35H31V34Z" fill="#FA524A"/>
<path d="M30 35H29V36H30V35Z" fill="#FA524A"/>
<path d="M30 36H29V37H30V36Z" fill="#FA524A"/>
<path d="M30 37H29V38H30V37Z" fill="#FA524A"/>
<path d="M29 36H28V37H29V36Z" fill="#FA524A"/>
<path d="M29 37H28V38H29V37Z" fill="#FA524A"/>
<path d="M31 37H30V38H31V37Z" fill="#FA524A"/>
<path d="M32 35H31V36H32V35Z" fill="#FA524A"/>
<path d="M32 36H31V37H32V36Z" fill="#FA524A"/>
<path d="M32 37H31V38H32V37Z" fill="#FA524A"/>
<path d="M33 30H32V31H33V30Z" fill="#FA524A"/>
<path d="M33 31H32V32H33V31Z" fill="#FA524A"/>
<path d="M33 32H32V33H33V32Z" fill="#FA524A"/>
<path d="M33 33H32V34H33V33Z" fill="#FA524A"/>
<path d="M33 34H32V35H33V34Z" fill="#FA524A"/>
<path d="M33 35H32V36H33V35Z" fill="#FA524A"/>
<path d="M33 36H32V37H33V36Z" fill="#FA524A"/>
<path d="M37 28H36V29H37V28Z" fill="#FA524A"/>
<path d="M38 29H37V30H38V29Z" fill="#FA524A"/>
<path d="M37 29H36V30H37V29Z" fill="#FA524A"/>
<path d="M27 49H26V50H27V49Z" fill="#FA524A"/>
<path d="M28 49H27V50H28V49Z" fill="#FA524A"/>
<path d="M28 50H27V51H28V50Z" fill="#FA524A"/>
<path d="M29 50H28V51H29V50Z" fill="#FA524A"/>
<path d="M26 50H25V51H26V50Z" fill="#FA524A"/>
<path d="M27 50H26V51H27V50Z" fill="#FA524A"/>
<path d="M28 51H27V52H28V51Z" fill="#FA524A"/>
<path d="M29 51H28V52H29V51Z" fill="#FA524A"/>
<path d="M26 51H25V52H26V51Z" fill="#FA524A"/>
<path d="M26 52H25V53H26V52Z" fill="#FA524A"/>
<path d="M27 51H26V52H27V51Z" fill="#FA524A"/>
<path d="M43 44H42V45H43V44Z" fill="#FA524A"/>
<path d="M40 44H39V45H40V44Z" fill="#FA524A"/>
<path d="M39 44H38V45H39V44Z" fill="#FA524A"/>
<path d="M38 44H37V45H38V44Z" fill="#FA524A"/>
<path d="M41 45H40V46H41V45Z" fill="#FA524A"/>
<path d="M40 45H39V46H40V45Z" fill="#FA524A"/>
<path d="M39 45H38V46H39V45Z" fill="#FA524A"/>
<path d="M42 46H41V47H42V46Z" fill="#FA524A"/>
<path d="M41 46H40V47H41V46Z" fill="#FA524A"/>
<path d="M40 46H39V47H40V46Z" fill="#FA524A"/>
<path d="M42 47H41V48H42V47Z" fill="#FA524A"/>
<path d="M41 47H40V48H41V47Z" fill="#FA524A"/>
<path d="M40 47H39V48H40V47Z" fill="#FA524A"/>
<path d="M43 48H42V49H43V48Z" fill="#FA524A"/>
<path d="M42 48H41V49H42V48Z" fill="#FA524A"/>
<path d="M41 48H40V49H41V48Z" fill="#FA524A"/>
<path d="M43 49H42V50H43V49Z" fill="#FA524A"/>
<path d="M42 49H41V50H42V49Z" fill="#FA524A"/>
<path d="M43 50H42V51H43V50Z" fill="#FA524A"/>
<path d="M50 49H49V50H50V49Z" fill="#FA524A"/>
<path d="M50 50H49V51H50V50Z" fill="#FA524A"/>
<path d="M50 51H49V52H50V51Z" fill="#FA524A"/>
<path d="M51 50H50V51H51V50Z" fill="#FA524A"/>
<path d="M51 51H50V52H51V51Z" fill="#FA524A"/>
<path d="M51 52H50V53H51V52Z" fill="#FA524A"/>
<path d="M52 51H51V52H52V51Z" fill="#FA524A"/>
<path d="M52 52H51V53H52V52Z" fill="#FA524A"/>
<path d="M52 53H51V54H52V53Z" fill="#FA524A"/>
<path d="M52 54H51V55H52V54Z" fill="#FA524A"/>
<path d="M53 52H52V53H53V52Z" fill="#FA524A"/>
<path d="M53 53H52V54H53V53Z" fill="#FA524A"/>
<path d="M42 50H41V51H42V50Z" fill="#FA524A"/>
<path d="M42 51H41V52H42V51Z" fill="#FA524A"/>
<path d="M41 49H40V50H41V49Z" fill="#FA524A"/>
<path d="M45 46H44V47H45V46Z" fill="#FA524A"/>
<path d="M46 46H45V47H46V46Z" fill="#FA524A"/>
<path d="M44 46H43V47H44V46Z" fill="#FA524A"/>
<path d="M43 46H42V47H43V46Z" fill="#FA524A"/>
<path d="M44 45H43V46H44V45Z" fill="#FA524A"/>
<path d="M45 45H44V46H45V45Z" fill="#FA524A"/>
<path d="M43 45H42V46H43V45Z" fill="#FA524A"/>
<path d="M42 45H41V46H42V45Z" fill="#FA524A"/>
<path d="M28 63H27V64H28V63Z" fill="#FA524A"/>
<path d="M28 64H27V65H28V64Z" fill="#FA524A"/>
<path d="M31 60H30V61H31V60Z" fill="#FA524A"/>
<path d="M31 61H30V62H31V61Z" fill="#FA524A"/>
<path d="M32 62H31V63H32V62Z" fill="#FA524A"/>
<path d="M32 63H31V64H32V63Z" fill="#FA524A"/>
<path d="M31 62H30V63H31V62Z" fill="#FA524A"/>
<path d="M31 63H30V64H31V63Z" fill="#FA524A"/>
<path d="M29 63H28V64H29V63Z" fill="#FA524A"/>
<path d="M30 64H29V65H30V64Z" fill="#FA524A"/>
<path d="M31 64H30V65H31V64Z" fill="#FA524A"/>
<path d="M29 69H28V70H29V69Z" fill="#FA524A"/>
<path d="M30 69H29V70H30V69Z" fill="#FA524A"/>
<path d="M28 70H27V71H28V70Z" fill="#FA524A"/>
<path d="M29 70H28V71H29V70Z" fill="#FA524A"/>
<path d="M30 70H29V71H30V70Z" fill="#FA524A"/>
<path d="M31 70H30V71H31V70Z" fill="#FA524A"/>
<path d="M44 72H43V73H44V72Z" fill="#FA524A"/>
<path d="M45 72H44V73H45V72Z" fill="#FA524A"/>
<path d="M44 71H43V72H44V71Z" fill="#FA524A"/>
<path d="M45 71H44V72H45V71Z" fill="#FA524A"/>
<path d="M46 71H45V72H46V71Z" fill="#FA524A"/>
<path d="M43 68H42V69H43V68Z" fill="#FA524A"/>
<path d="M44 68H43V69H44V68Z" fill="#FA524A"/>
<path d="M45 68H44V69H45V68Z" fill="#FA524A"/>
<path d="M42 67H41V68H42V67Z" fill="#FA524A"/>
<path d="M43 67H42V68H43V67Z" fill="#FA524A"/>
<path d="M44 67H43V68H44V67Z" fill="#FA524A"/>
<path d="M42 66H41V67H42V66Z" fill="#FA524A"/>
<path d="M43 66H42V67H43V66Z" fill="#FA524A"/>
<path d="M44 66H43V67H44V66Z" fill="#FA524A"/>
<path d="M44 65H43V66H44V65Z" fill="#FA524A"/>
<path d="M45 67H44V68H45V67Z" fill="#FA524A"/>
<path d="M45 66H44V67H45V66Z" fill="#FA524A"/>
<path d="M45 65H44V66H45V65Z" fill="#FA524A"/>
<path d="M46 67H45V68H46V67Z" fill="#FA524A"/>
<path d="M46 66H45V67H46V66Z" fill="#FA524A"/>
<path d="M46 65H45V66H46V65Z" fill="#FA524A"/>
<path d="M45 64H44V65H45V64Z" fill="#FA524A"/>
<path d="M46 64H45V65H46V64Z" fill="#FA524A"/>
<path d="M45 63H44V64H45V63Z" fill="#FA524A"/>
<path d="M46 63H45V64H46V63Z" fill="#FA524A"/>
<path d="M45 62H44V63H45V62Z" fill="#FA524A"/>
<path d="M46 62H45V63H46V62Z" fill="#FA524A"/>
<path d="M45 61H44V62H45V61Z" fill="#FA524A"/>
<path d="M44 63H43V64H44V63Z" fill="#FA524A"/>
<path d="M44 62H43V63H44V62Z" fill="#FA524A"/>
<path d="M43 62H42V63H43V62Z" fill="#FA524A"/>
<path d="M44 61H43V62H44V61Z" fill="#FA524A"/>
<path d="M46 61H45V62H46V61Z" fill="#FA524A"/>
<path d="M47 65H46V66H47V65Z" fill="#FA524A"/>
<path d="M47 64H46V65H47V64Z" fill="#FA524A"/>
<path d="M47 63H46V64H47V63Z" fill="#FA524A"/>
<path d="M47 62H46V63H47V62Z" fill="#FA524A"/>
<path d="M47 61H46V62H47V61Z" fill="#FA524A"/>
<path d="M48 66H47V67H48V66Z" fill="#FA524A"/>
<path d="M48 65H47V66H48V65Z" fill="#FA524A"/>
<path d="M48 64H47V65H48V64Z" fill="#FA524A"/>
<path d="M48 63H47V64H48V63Z" fill="#FA524A"/>
<path d="M53 64H52V65H53V64Z" fill="#FA524A"/>
<path d="M48 62H47V63H48V62Z" fill="#FA524A"/>
<path d="M52 64H51V65H52V64Z" fill="#FA524A"/>
<path d="M55 64H54V65H55V64Z" fill="#FA524A"/>
<path d="M54 64H53V65H54V64Z" fill="#FA524A"/>
<path d="M55 63H54V64H55V63Z" fill="#FA524A"/>
<path d="M54 63H53V64H54V63Z" fill="#FA524A"/>
<path d="M57 63H56V64H57V63Z" fill="#FA524A"/>
<path d="M56 63H55V64H56V63Z" fill="#FA524A"/>
<path d="M52 63H51V64H52V63Z" fill="#FA524A"/>
<path d="M58 63H57V64H58V63Z" fill="#FA524A"/>
<path d="M59 62H58V63H59V62Z" fill="#FA524A"/>
<path d="M60 62H59V63H60V62Z" fill="#FA524A"/>
<path d="M60 61H59V62H60V61Z" fill="#FA524A"/>
<path d="M61 61H60V62H61V61Z" fill="#FA524A"/>
<path d="M62 60H61V61H62V60Z" fill="#FA524A"/>
<path d="M62 61H61V62H62V61Z" fill="#FA524A"/>
<path d="M63 60H62V61H63V60Z" fill="#FA524A"/>
<path d="M63 59H62V60H63V59Z" fill="#FA524A"/>
<path d="M64 59H63V60H64V59Z" fill="#FA524A"/>
<path d="M64 58H63V59H64V58Z" fill="#FA524A"/>
<path d="M58 62H57V63H58V62Z" fill="#FA524A"/>
<path d="M45 60H44V61H45V60Z" fill="#FA524A"/>
<path d="M46 60H45V61H46V60Z" fill="#FA524A"/>
<path d="M30 62H29V63H30V62Z" fill="#FA524A"/>
</svg>
