<svg width="100" height="100" viewBox="0 0 100 100" fill="none" xmlns="http://www.w3.org/2000/svg">
<path fill-rule="evenodd" clip-rule="evenodd" d="M51 31H53V32V34H54V33H55V34H57V37H56V38H55V37H54V36H51V37H50V35H51V34H52V32H51V31ZM48 40H47V41H46V43H45V44H43V45H42V46H41V47H40V49H41V48H42V46H43V45H46V46H48V47H49V46H50V47H52V45H51V44H49V43H48V41V40ZM28 42H29V43H28V42ZM31 43V44H29V43H31ZM31 43V42H32V43H31ZM49 31H48V32H49V31ZM46 32H47V33H46V32ZM53 39H52V40H53V39ZM44 65H45V66H44V65ZM44 66V67H43V66H44ZM59 64H60V65H59V64ZM38 53H36V54H35V55H36H38V53ZM36 50H35V52H36V50Z" fill="#E6E6EE"/>
<path fill-rule="evenodd" clip-rule="evenodd" d="M45 31H44V32H43V34H44V33H45V31ZM53 32H54V33H53V32ZM32 37H33V38H32V37ZM30 38H29V39H30V38ZM34 50H33V51H34V50ZM33 39H32V40H29V42V43H31V42H32V40H33V39ZM39 46H40V47H39V46ZM42 48H41V50H43V49H45V48H46V47H45V48H43V46H44V45H43V46H42V48ZM47 46H48V47H49V49H47V47V46ZM54 43V42H55V39H56V42V43H55V44H52V43H54ZM54 46V45H55V44H56V43H58V44V45H57V47H55V46H54ZM54 46V47H53V46H54ZM58 43V42H57V39H56V37H57V36H58V37V38H59V39V40H61V42H60V43H58ZM55 39H54V38H55V39ZM59 32H58V33H57V35H58V33H59V32Z" fill="#D9D9D9"/>
<path fill-rule="evenodd" clip-rule="evenodd" d="M44 30H42V32H44V30ZM51 31H49V32H47V33H45V34H44V36H43V38H42V42H41V43H40V44H39V46H40V47H41V46H42V45H43V44H45V43H46V41H47V40H49V38H50V35H51V34H52V32H51V31ZM30 37H32V38H33V39H32V40H30V37ZM26 39H28V40H29V42H28V43H27V42H25V40H26V39ZM31 43H32V44H33V46H34V48H35V51H34V50H33V49H32V47H31V46H30V44H31V43ZM44 66V67H46V66H44ZM60 64H61V65H60V64ZM63 54H62V55H63V54ZM52 40H53V42H52V40ZM51 40H50V41H51V40ZM57 32H55V34H57V33H58V32H59V31H58H57V32Z" fill="white"/>
<path fill-rule="evenodd" clip-rule="evenodd" d="M46 57H44V58H43V59H44V60H46V59H47V58H46V57Z" fill="#D9D9D9"/>
<path fill-rule="evenodd" clip-rule="evenodd" d="M37 50H40H41V51H40V52H37V50ZM32 51H34V53H32V51ZM44 56H47V57H48V58V59H49V62H47V63H46H43V62H42V58H43V59H44V60H46V59H47V58H46V57H44V56ZM44 57V58H43V57H44ZM60 51H59V52H60V53H61V54H62V53H63V54H64V52H63V51H62H61V50H60V51Z" fill="#C59C4A"/>
<path fill-rule="evenodd" clip-rule="evenodd" d="M55 52H56V53H57V55H58V58H57V59H56H55V60H50V59H49V57H48V55H49V53H50V52H55Z" fill="#F6D5B4"/>
<path fill-rule="evenodd" clip-rule="evenodd" d="M52 51H56V52H52V51ZM56 52H57V53H56V52ZM58 54H57V55H58V54ZM48 54H49V55H48V54ZM58 58H57V59H55V60H54H50V63H54V62H55H56V61H57V59H58V58Z" fill="#CDAC8B"/>
<path fill-rule="evenodd" clip-rule="evenodd" d="M50 38H51V39H50V38ZM53 38H54V42H53V38ZM52 43V42H48V43H52ZM34 52H35V54H34H33V53H34V52ZM37 52H39H40V51H41H43V50H45V49H47V50H49V49H50V48H54V47H55V48H56H57V49H59V50H60V51H59V52H57V51H56V50H55V51H54H52V52H50V53H49V54H48V56H44V54H46V53H41V54H39V53H37V52ZM44 56V57H43V56H44ZM59 52H60V53H59V52ZM41 59H40V60H37V62H39V63H40V62V60H41V64H42V65H43V66H44V65H45V66H47V65H48V63H49V62H47V63H44H43V62H42V60H41V59ZM56 63V62H57V61H58V59H59V57H60V59H61V62H60V64H58V65H56V64H54V63H56ZM63 54H64V55H63V54ZM63 54H62V53H63V54Z" fill="#946A5A"/>
<path fill-rule="evenodd" clip-rule="evenodd" d="M51 37H54V38H51V37ZM34 51H35V52H34V51ZM35 52H36H37V53H36V54H35V52ZM41 54H38V55H41V54ZM41 54H44V53H41V54ZM46 53H45V54H46V53ZM47 56H48V57H47V56ZM49 59V57H48V59H49ZM49 59V63H50V59H49ZM40 59H39V60H40V62H41V60H42V58H43V56H44V55H43V56H42V58H41V60H40V59ZM41 64H42V65H41V64ZM54 63H53V64H54V63ZM55 62H56V63H55V62ZM56 64H55V65H56V64ZM58 64H59V65H58V64ZM62 65H61V66H62V65ZM59 56H60V57H59V59H58V54H59V56ZM57 52H58V54H57V52ZM56 51H57V52H56V51ZM56 51V50H55V51H56ZM58 59V61H57V59H58ZM61 59H60V57H61V59ZM61 62V59H62V62H61ZM61 62V64H60V62H61ZM64 51H63V50H61V49H59V48H57V49H59V50H61V51H63V52H64V54H65V52H64V51Z" fill="#523910"/>
<path fill-rule="evenodd" clip-rule="evenodd" d="M43 29H42V30H43V29ZM44 34H43V35H44V34ZM45 33V34H44V33H45ZM46 32H45V33H46V32ZM46 32H48V31H46V32ZM54 31H53V32H54V33H53V34H54V33H55V32H57V31H59V30H57V31H55V32H54V31ZM55 38H56V39H55V38ZM56 39H57V40H56V39ZM51 39H52V40H51V39ZM50 41H49V42H50V41ZM51 44H52V45H51V44ZM58 42H57V43H58V42ZM55 43H56V44H55V43ZM54 45H53V46H52V47H53V46H54V45ZM50 46H49V47H50V46ZM46 46H47V47H46V46ZM40 43H39V44H40V43Z" fill="#8B836A"/>
<path fill-rule="evenodd" clip-rule="evenodd" d="M43 29H44V30H43V29ZM45 31H44V30H45V31ZM45 31H46V32H45V31ZM43 33H42V34H43V33ZM43 35H44V36H43V35ZM43 36V37H42V36H43ZM30 37H29V38H30V37ZM33 37V36H30V37H33ZM33 37H34V39H33V37ZM32 41H33V42H32V41ZM39 44H38V45H39V44ZM34 46H35V47H34V46ZM34 46H33V44H34V46ZM32 47H31V48H32V47ZM33 49H32V50H33V49ZM40 47H39V46H38V47H39V48H40V47ZM24 41H25V42H24V41ZM27 43H25V42H27V43ZM27 43H28V44H27V43ZM46 47H47V48H46V47ZM50 47H49V48H50V47ZM40 42H41V43H40V42ZM41 42V41H42V42H41ZM41 38H42V39H41V38ZM53 30H52V31H53V30ZM54 31H55V32H54V31ZM58 35H57V36H58V38H59V40H60H61V41H62V40H61V39H60V38H59V36H58V35ZM58 43H59V44H58V43ZM53 44H52V46H53V44ZM56 40H57V43H56V40ZM30 44H29V46H30V44ZM25 38H27V39H26V40H24V39H25V38ZM30 39H28V40H30V39ZM42 30H41V32H42V30Z" fill="#525239"/>
<path fill-rule="evenodd" clip-rule="evenodd" d="M52 30H48V31H52V30ZM59 31H60V33H59V31ZM59 33V35H58V33H59ZM43 33H42V32H43V33ZM42 38H43V37H42V38ZM34 39H33V40H32V41H33V40H34V39ZM25 40H24V41H25V40ZM29 43H28V44H29V43ZM34 47H35V48H34V47ZM41 50H37V52H36V50H35V48H36V49H39V48H40V49H41V50ZM43 50V51H41V50H43ZM45 49V50H43V49H45ZM45 48V49H47V50H49V49H50V48H54V47H55V48H57V47H58V45H59V44H60V43H61V42H62V41H61V42H60V43H59V44H58V45H57V47H55V46H54V47H50V48H49V49H47V48H45ZM45 48H44H43V47V46H44V45H46V47H45V48ZM39 45H38V46H39V45ZM30 46H31V47H30V46ZM32 48H31V49H32V48ZM32 50H33V51H32V50ZM32 53H31V51H32V53ZM33 54H32V53H33V54ZM35 55H33V54H35V55ZM35 55H38V56H35V55ZM38 53H39V54H38V53ZM45 53H44V54H43V55H44V54H45V53ZM41 58H40V59H41V58ZM40 62H41V63V64H39V63H40V62ZM37 62H39V63H37V62ZM37 60V62H36V60H37ZM37 60V59H39V60H37ZM47 66H46V67H43V65H42V67H43V68H46V67H47V66ZM48 65V66H47V65H48ZM48 65V64V63H53V64H49V65H48ZM54 64H55V65H54V64ZM55 62H54V63H55V62ZM56 61H57V62H56V61ZM62 64H61V65H56V66H61V65H62V64ZM64 54H65V55H64V54ZM62 55H64V56H62V55ZM62 55V54H61V53H59V52H58V53H59V54H61V55H62ZM50 38H51V39H50V38ZM50 41H49V42H48V40H49V38H50V37H51V38H53V39H51V40H50V41ZM52 42H50V41H51V40H52V41V42ZM54 42H52V43H49V44H52V43H54V42ZM54 42H55V39H54V42ZM54 37V38H55V37H54ZM54 37V36H51V37H54ZM32 42H33V44H32V42ZM42 39H41V41H42V39ZM55 44H53V45H55V44ZM27 38H29V39H27V38Z" fill="#101010"/>
</svg>
