<svg width="100" height="100" viewBox="0 0 100 100" fill="none" xmlns="http://www.w3.org/2000/svg">
<path fill-rule="evenodd" clip-rule="evenodd" d="M41 28H40V29H41V28ZM31 53H30V54H31V53Z" fill="#D9D9D9"/>
<path fill-rule="evenodd" clip-rule="evenodd" d="M56 17H57V18H56V17ZM55 19V18H56V19H55ZM54 20V19H55V20H54ZM53 21V20H54V21H53ZM51 22V21H53V22H51ZM49 23V22H51V23H49ZM47 24V23H49V24H47ZM41 22V24H42V25H43V26H44V27H45V26H46V25H47V24H46V22H47V21H46V22H45V24V25H44V20H43V17H42V20H43V23H42V22H41ZM40 20H41V22H40V20ZM40 20H39V18H40V20ZM79 22H80V26H79V22ZM78 27V26H79V27H78ZM78 27V28H77V27H78ZM71 26H72V27H71V26ZM73 29H70V28H71V27H69V28H68V29H67V27H68V26H69V25H71V24H73V23H75V22H73V23H71V24H69V25H68V26H67V27H66V29H65V26H64V29H65V30H67V31H68V30H73V29ZM73 29V28H76V29H73ZM74 32H75V33H74V32ZM75 34V33H76V34H75ZM75 34V35H74V34H75ZM76 36H75V38H74V39H75V40H74V41H73V42H72V43H73H74V41H75H76V39H75V38H76V36ZM68 42H69V43H71V44H67V43H68V42ZM67 43H64V42H67V43ZM68 45H67V46H68V45ZM62 50V49H64V50H62ZM61 50H58V51H56V52H58V51H61V50ZM66 51H65V52H66V51ZM64 53H65V54H64V53ZM66 55H65V56H64V58H65V56H66V55ZM64 59H63V61H62V63H61V64H60V66H59V70H60V73H61V70H60V66H61V67H62V68H63V69H64V70H65V69H64V68H63V67H62V66H61V64H62V63H63V61H64V59ZM79 62H78V64H79V62ZM77 65H76V66H77V67H76V68H74V69H76V68H77V67H78V65H77ZM67 70H66V71H67V70ZM71 70H72V71H71V70ZM71 71V72H68V71H71ZM72 70V69H73V70H72ZM68 34H67V35H68V34ZM64 35H65V36H64V35ZM63 36H64V37H63V36ZM60 36H61V37H60V36ZM61 35V34H60V33H59V32H57V31H53V30H52V31H53V32H52V33H54V32H57V33H59V34H60V35H61ZM61 35V36H62V35H61ZM55 28H54V29H55V28ZM54 25H55V26H54V25ZM42 28H43V29H42V28ZM48 28H47V29H48V28ZM47 30H48V32H47V30ZM46 33V32H47V33H46ZM44 34V33H46V34H44ZM42 35V34H44V35H42ZM41 36V35H42V36H41ZM39 37V36H41V37H39ZM38 38V37H39V38H38ZM37 39V38H38V39H37ZM37 39V40H35V39H37ZM46 35H47V36H46V35ZM48 36H47V37H48V41H49V44H50V46H51V44H50V41H49V37H50V36V35H52V34H50V35H48V36ZM48 36V37H49V36H48ZM45 37H46V39H45V37ZM46 44H47V46H46V44ZM57 44H56V45H57V46H58V45H57V44ZM61 45H60V46H61V47H62V46H61V45ZM62 40H61V41H62V42H63V41H62V40ZM47 47H48V48H47V47ZM44 51H43V50H42V49H41V50H42V51H43V52H44V51ZM35 48H36V49H37V50H35V49V48ZM34 45H33V46V47H35V46H34V45ZM38 46V45H36V46H38ZM40 49V48H38V49H40ZM43 46H45V47H43V46ZM34 38H33V40H32V42H31V44H30V46H29V47H28V48H26V47H27V44H28V43H27V44H26V47H25V48H24V47H23V45H22V42H21V45H22V47H23V48H24V49H25V50H26V49H28V48H29V47H30V46H31V44H32V42H33V40H34V38ZM25 37H24V46H25V37ZM29 52H30V53H29V52ZM36 51H35V52H36V51ZM34 53H35V54H34V53ZM34 55H33V56H31V57H33V56H34V55ZM40 55H41V56H40V55ZM41 57H40V58H41V59H42V61H43V59H42V58H41V57ZM46 62H45V60H46V61H47V62H48V61H47V59H46V58H45V60H44V62H45V63H46V64H48V65H49V67H50V65H49V64H51V65H52V66V69H50V70H52V69H53V66H54V67H56V69H57V73H58V69H57V67H56V66H54V65H53V64H51V63H49V64H48V63H46V62ZM50 61H49V62H50V61ZM53 58H52V59H53V58ZM53 61H54V62H53V61ZM54 62H56V63H54V62ZM58 62H57V63H58V62ZM59 61V62H58V61H59ZM59 61V59H60V61H59ZM47 71H46V72H47V71ZM47 71V70H49V71H47ZM29 57H30V58H29V60H28V56H29V57ZM24 52H23V53H24V52ZM19 52H20V53H19V52ZM21 54H20V55H21V56H22V57H24V56H22V55H21V54ZM27 61H28V63H27V61ZM27 64H26V66H27V64ZM51 60H52V62H51V60ZM46 76V77H44V76H46ZM43 76V75H41V76H40V77H41V78H40V79H42V78V77H41V76H43ZM48 86V85H50V84H51V83H50V84H48V85H47V84H46V85V86H48ZM56 85V84H54V85H53V86H52V87H51V88H49V89H51V88H52V87H53V86H54V85H56ZM57 87V85H56V87H57ZM58 88V87H57V88H58ZM59 88V89H58V88H59ZM59 88V87H60V88H59ZM34 75H35V77H34V75ZM35 77H36V78H35V77ZM37 78H38V79H37V78ZM59 81H58V82H59V81ZM59 77H58V78H59V77ZM59 74H60V76H59V74Z" fill="black"/>
<path fill-rule="evenodd" clip-rule="evenodd" d="M67 58H64V59H67V60H71V61H78V62H79V61H78V60H71V59H67V58ZM64 61H63V62H64V63H66V64H68V65H71V66H76V65H71V64H68V63H66V62H64V61ZM63 64H62V65H61V66H62V65H63V66H64V67H66V68H69V69H74V68H69V67H66V66H64V65H63V64ZM66 69H65V70H66V69ZM67 70H68V71H67V70ZM77 64H78V65H77V64Z" fill="#B44141"/>
<path fill-rule="evenodd" clip-rule="evenodd" d="M73 61H74H77V62H78V64H77V65H71V64H73V63H74V62H73V61ZM71 67V66H77V67H76V68H69V67H71ZM69 68V69H71H72V70H71V71H68V70H66V69H68V68H69Z" fill="#FFD5E6"/>
<path fill-rule="evenodd" clip-rule="evenodd" d="M64 59H66H67V60H68H71V61H73V62H74V63H73V64H71H68V63H66V62H64V59ZM62 64V63H63V62H64V63H66V64H68V65H71V67H68H66V66H64V65H63V64H62ZM62 65H61V64H62V65ZM62 65H63V66H64V67H66V68H68V69H66H64V68H63V67H62V65ZM77 61H78V62H77V61Z" fill="#F683A4"/>
<path fill-rule="evenodd" clip-rule="evenodd" d="M40 27H41V28H40V27ZM41 28H42V29H41V28ZM31 51H30V53H28V54H30V53H31V51ZM22 52H23V53H24V54H23H22V52ZM45 74H43V75H45V74ZM35 76H36V77H35V76ZM36 77H37V78H36V77ZM41 77H40V76H39V77H40V78H41V77ZM47 83H48H49V84H48V85H47V83ZM50 86H51V87H50V86ZM51 86V85H52V86H51ZM57 85H58V86H57V85ZM58 86H59V87H58V86ZM46 28H47V29H46V28ZM49 27H48V29H49V28H50V27H49ZM67 33H66V35H67V36H69V35V34H68V35H67V33Z" fill="white"/>
<path fill-rule="evenodd" clip-rule="evenodd" d="M40 13H41V15H40V13ZM40 15V18H39V15H40ZM41 15H42V17H41V15ZM56 17H52V18H49V19H48V20H47V21V22H46V24H47V23H49V21H48V20H49V19H52V18H56V17ZM77 21H71V22H68V23H66V24H65V25H64V26H65V29H66V26H65V25H66V24H68V23H71V22H77V21ZM24 36H25V37H24V36ZM23 38V37H24V38H23ZM22 40V38H23V40H22ZM22 40V42H21V40H22ZM24 43H23V44H22V45H23V47H24V48H25V46H24V43ZM27 49H26V50H27V49ZM46 60H45V62H46V63H47H48V64H49V65H50V67H51V66H52V65H51V64H52V63H51V64H50H49V63H50V62H47V61H46V60ZM59 61H60H61V64H60V66H59V68H58V69H57V67H56V65H57V64H58V62H59V61ZM44 72H45H46V73H45V74H44V72ZM45 74H46V76H45V74ZM44 75H43V76H44V75ZM49 86H50V88H49V86ZM51 84H50V85H51V84ZM59 86H60V87H59V86ZM59 83H58V82H57V83H58V84H59V83ZM59 79H58V80H59V81H60V80H59V79ZM43 60H44V61H43V60ZM28 42H27V43H28V44H27V46V47H26V48H28V47H29V46H30V44H29V43H28V42ZM29 41V42H28V41H29ZM30 40H29V41H30V40ZM32 39V40H30V39H32ZM32 39V38H33V39H32ZM78 23H79V24H78V23ZM75 25V24H78V25H75ZM73 26V25H75V26H73ZM72 27V26H73V27H72ZM72 27V28H73V29H70V28H71V27H72ZM76 27H77V28H76V27ZM53 20H52V21H53V20ZM50 21H51V22H50V21ZM43 20H42V21H41V22H42V23H43V20Z" fill="#414141"/>
<path fill-rule="evenodd" clip-rule="evenodd" d="M40 15H41V17H42V21H41V20H40V15ZM23 38H24V43H23V44H22V40H23V38ZM52 59H53V62H54V63H56V62H57V63H58V64H57V65H56V66H54V65H53V64H52V63H51H50V62H51H52V59ZM39 77H38V78H39V79H40V78H39V77ZM37 78H36V79H37V78ZM47 83H46V84H47V83ZM47 83H48V82H47V83ZM50 85H49V86H50V85ZM29 42H28V43H29V44H31V42H32V41V40H33V39H32V40H30V41H29V42ZM48 20H49V19H52V18H54H55V19H54V20H52V21H50V22H49V21H48V20ZM66 25H65V26H66V27H67V26H68V25H69V24H71V23H73V22H71V23H69H68V24H66V25ZM73 27H72V28H73H75H76V27H78V26H79V24H78V25H75V26H73V27Z" fill="#838383"/>
<path fill-rule="evenodd" clip-rule="evenodd" d="M47 18H46V19H44V20H46V19H47V18ZM39 22H40V24H39V22ZM38 25V24H39V25H38ZM38 26H37V25H38V26ZM39 28H38V26H39V28ZM39 29V28H40V29H39ZM39 30H38V29H39V30ZM39 30H40V31H39V30ZM40 26H41V27H40V26ZM41 27H42V28H41V27ZM49 33H50V34V35H48V34H49V33ZM47 35H48V36H47V35ZM47 35H45V34H47V35ZM51 43H52V44H51V43ZM54 44V45H52V44H54ZM54 44V43H56V44H54ZM59 44H60V45H59V44ZM59 45V46H58V45H59ZM21 46H22V48H21V46ZM20 50V48H21V50H20ZM20 51H19V50H20V51ZM20 53V51H21V53H20ZM20 53V54H19V53H20ZM23 51H22V52H23V51ZM23 55H22V56H23V55ZM28 53H27V54H28V53ZM29 52V53H28V52H29ZM30 51H29V52H30V51ZM30 51H31V50H30V51ZM31 56H30V57H31V56ZM32 55H33V56H32V55ZM33 55V54H34V55H33ZM35 52H36V53H35V52ZM35 52H34V50H35V52ZM34 47H35V48H34V47ZM42 51H41V54H40V55H41V57H42V55H41V54H42V51ZM42 58H43V59H42V58ZM46 56H45V58H46V56ZM51 59H52V60H51V59ZM53 57H52V58H53V57ZM53 60H54V61H53V60ZM57 61H56V62H57V61ZM59 58H60V59H59V58ZM61 60H60V61H61V60ZM61 62H62V63H61V62ZM65 54H64V53H65V52H64V53H63V54H64V55H65V54ZM46 45H45V46H46V45ZM63 50H65V51H63V50ZM33 44H32V45H33V44ZM25 43H26V44H25V43ZM52 33H51V34H52V33ZM45 24H44V25H45V24ZM46 28V27H48V28H46ZM50 27H48V26H50V27ZM53 22H54V23H53V22ZM55 24H54V23H55V24ZM55 24H56V25H55V24ZM55 26H54V27H55V28H56V27H55V26ZM67 30H66V31H67V30ZM66 32H67V33H66V32ZM69 34H67V33H69V34ZM69 34H71V35H69V34ZM69 30H68V31H69V30ZM73 32H74V33H73V32ZM73 32H71V31H70V30H72V31H73V32ZM76 35H75V36H76V35ZM73 40H74V41H73V40ZM72 42H71V43H72V42ZM67 42H68V43H67V42ZM66 41H65V42H66V41ZM63 42H64V43H63V42ZM63 40H62V41H63V40ZM60 39H61V40H60V39ZM60 38H61V37H60V38ZM60 38V39H59V38H60ZM65 30H63V31H65V30Z" fill="#5A4120"/>
<path fill-rule="evenodd" clip-rule="evenodd" d="M45 28H43V29H42V30H41V31H40V33H39V34H37V35H36V36H35V39H36V36H37V35H39V34H40V33H41V31H42V30H43V29H45V30H46V31H47V30V29H45V28ZM54 29H53V30H54V29ZM61 33H62V34H61V33ZM64 34H63V35H64V34ZM62 36H63V37H62V36ZM48 41H49V42H48V41ZM47 43H46V39H45V43H46V44H47V43ZM35 46H36V47H35V46ZM28 54H27V53H25V54H24V61H25V54H27V55H28V56H29V55H28V54ZM28 60H27V61H28V60ZM26 63H27V64H26V63ZM25 65H24V62H23V65H24V66H25V67H26V66H25V65ZM38 48H37V49H38V48ZM40 48H41V49H40V48ZM43 46H42V47H43V46ZM42 49H43V50H42V49ZM43 50H44V51H43V50ZM44 47H45V48H44V47ZM46 49H45V48H46V49ZM46 49H47V50H46V49ZM49 48H48V49H49V48ZM47 46H48V47H47V46ZM50 44H49V45H50V44ZM50 46H51V47H50V46ZM51 47H52V48H51V47ZM55 48H56V49H55V48ZM56 48V47H58V48H56ZM63 46H62V47H63V46ZM64 45V46H63V45H64ZM64 45H65V43H64V45ZM62 49H61V50H62V49ZM65 47H66V48H65V47ZM65 48V49H63V48H65ZM67 45V47H66V45H67ZM67 45V44H68V45H67ZM46 36H47V37H46V36ZM35 75H36V76H35V75ZM35 74V75H34V74H35ZM35 74H36V73H38V72H43V71H44V70H45V69H47V68H49V67H47V68H45V69H44V70H43V71H38V72H36V73H35V74ZM39 74H38V75H37V77H38V75H39V74ZM40 75H41V76H40V75ZM50 69H49V70H50V69ZM59 73H60V74H59V73ZM59 76H58V77H59V76ZM59 85H60V86H59V85ZM59 85H58V84H59V85ZM51 83H52V84H51V83ZM54 79H53V80H51V81H53V80H54V79ZM55 78V79H54V78H55ZM56 76H55V78H56V76ZM56 76V73H57V76H56ZM50 82V81H48V82H50ZM57 78H58V81H57V78ZM38 45H41V46H38V45ZM59 46H61V47H59V46ZM57 28H55V29H57V30H59V31H61V32H63V33H65V35H66V33H65V32H63V31H61V30H59V29H57V28Z" fill="#625A41"/>
<path fill-rule="evenodd" clip-rule="evenodd" d="M54 29H55V30H54V29ZM54 30V31H53V30H54ZM42 31H41V32H42V31ZM43 32H44V33H43V32ZM42 34V33H43V34H42ZM41 35V34H42V35H41ZM41 35V36H40V35H41ZM44 32H47V31H44V32ZM48 36H49V37H48V36ZM48 37V39H47V40H46V39V37H48ZM42 46H41V47H42V46ZM44 51H45V52H44V51ZM27 54H26V55H27V56H28V55H27V54ZM28 59H27V60H28V59ZM24 61H25V62H24V61ZM26 62H27V63H26V62ZM38 76H39V77H38V76ZM39 76V75H40V76H39ZM37 74H38V75H37V74ZM37 75V77H36V75H37ZM38 73V74H40V73H41V72H39V73H38ZM43 74H42V75H43V74ZM43 74H44V73H43V74ZM46 69H45V70H46V69ZM45 71H46V72H45V71ZM48 68H47V69H48V68ZM49 67H50H51V66H52V67V69H50V68H49V67ZM57 73H58V74H57V73ZM58 73V70V68H59V70H60V73H58ZM55 79H54V80H53V81H52V82H53V81H54V80H55V79ZM50 81H51V82H50V81ZM50 82V84H49V82H50ZM52 84H51V85H52V86H53V85H54V84H53V85H52V84ZM55 83H56V84H55V83ZM56 84H58V85H56V84ZM58 81H57V82H58V81ZM35 47H36V46H39V47H40V48H39H37V49H36V48H35V47ZM57 31H58V32H57V31ZM60 32H59V33H60V34H61V35H62V36H64V35H63V34H61V33H60V32ZM56 49H55V50H56V51H58V50H56V49ZM58 47H59V48H58V47ZM61 49H60V50H61V49ZM63 46H64V45H65V43H67V45H66V47H65V48H62V47H63V46Z" fill="#B4A47B"/>
<path fill-rule="evenodd" clip-rule="evenodd" d="M44 29H43V30H42V32H41V33H40V34H39V35H38H37V36H36V39H37V38H38V37H39V36H40V35H41V34H42V33H43V34H44V33H46V32H44V31H45H46V30H45V29H44ZM44 32V33H43V32H44ZM47 39H48V40V42H49V45H50V47H51V49H49V48H48V47V46H47V45V43H46V42V40H47V39ZM59 47H62V48H63V49H60V50H56V48H59V47ZM25 54H26V55H27V56H28V59H27V62H26V65V66H25V65H24V62H25V55V54ZM38 72H39V73H38V72ZM38 73V74H37V75H35V74H36V73H38ZM39 75H38V76H39V75ZM39 75V74H40V73H41V72H43V71H44V70H46V69H48V68H50V69H49V70H47V71H45V72H44V73H43V74H42V75H39ZM55 84V83H56V84H58V83H57V82V80V78H58V76H59V74V73H58V74H57V76H56V78H55V80H54V81H53V82H52V81H51V82H50V83H52V84V85H53V84H55ZM41 47V46H39V47H40V48H41V49H43V50H44V51H46V50V49H45V48H44V47H41ZM55 29H57V30H59V31H61V32H63V33H65V34V35H64V34H62V33H60V32H58V31H54V30H55V29Z" fill="#EEDEAC"/>
<path fill-rule="evenodd" clip-rule="evenodd" d="M47 19H46V21H45V20H44V23H45V22H46V21H47V19ZM41 22H40V24H39V25H38V26H39H42V28H44H46V27H48V26H49H50V28H49V29H47V30H49V29H50V28H51V26H52V23H49V24H47V25H46V26H45V27H44V26H43V25H42V24H41V22ZM40 27H39V28H40V27ZM40 30V31H41V30V29H39V30H40ZM66 31H64V32H65V33H66V32V31ZM68 32H67V33H68H69V34H71V35H70V36H67V35H65V37H66V38H67H70V37H71H73V33H71V31H68V32ZM52 44H51V45V47H53V48H52V49H51V50H49V49H48V48H47V46H46V47H45V48H46V49H47V51H46V53H45V52H43V51H42V52H43V53H42V54H41V55H44V57H45V56H46V55H47V57H48V58H49V57H50V55H51V54H52V55V56H53V55H54V56H56V57H57V56H56V55V54H58V53H57V52H56V51H55V48H56V47H55V46H56V45V44H55V45H54V46H53V45H52V44ZM56 54H55V53H56V54ZM44 55V54H45V55H44ZM51 51H52V52H51V51ZM51 52V53H50V54H49V52H51ZM60 51H58V52H59V53H61V52H60V51ZM61 56V55H59V56H60V57H62V56H61ZM23 54H24V55H23V54ZM21 50H20V51H21V53H22V51H23V52H24V53H25H28V52H29V51H30V50H31H33V49H34V47H33V45H31V46H30V47H29V48H28V49H27V50H25V49H24V48H23V47H22V48H21V50ZM26 44H25V47H26V44Z" fill="#CD9C52"/>
<path fill-rule="evenodd" clip-rule="evenodd" d="M48 19H47V20H48V19ZM53 22H51V23H52V26H51V28H50V29H49V30H48V32H47V33H46V34H47V35H48V34H49V33H50V34H51V33H52V32H53V31H52V30H53V29H54V28H55V27H54V26V25H55V24H54V23H53V22ZM70 30H69V31H70V30ZM66 31H68V32H66V31ZM66 31H65V30H66V31ZM73 32H71V33H73V35V37H70V38H66V37H65V36H64V37H62V36H61V37V38H60V39H61V40H63V42H65V41H66V42H69V43H71V42H73V40H74H75V39H74V38H75V37V35H74V34H75V33H74H73V32ZM26 43H27V44H26V43ZM22 53H20V54H21V55H23V56H24V55H23V54H22V53ZM25 53H24V54H25V53ZM32 44H31V45H32V44ZM34 48H35V50H34V52H35V53H34V54H33V55H32V56H31H30V57H29V56V55H28V54H29H31V50H33V49H34V48ZM44 57H45V60H43V58H41V57H42V55H44V57ZM45 55H44V54H45V55ZM47 55H46V57V59H47V61H48V62H49V61H50V62H51V61V59H52V58V57H53V60H54V62H56V61H57V62H58V61H59V58H60V60H61V61V62H62V61H63V60V59H64V57V56H65V55H64V54H63V53H64V52H65V51H64H63V50H61V51H60V52H61V53H59V52H58H57V53H58V54H56V53H55V54H56V56H54V55H53V56H52V55V54H51V55H50V57H49V58H48V57H47V55ZM56 56H57V57H56V56ZM60 56H59V55H61V56H62V57H60V56ZM56 45H57V46H59V47H55V46H56V45ZM60 46H59V45H60V46ZM50 52H49V54H50V53H51V52H52V51H51V52H50ZM45 51H46V53H45V51ZM49 49H51V50H49V49ZM52 48H51V49H52V48ZM52 48V47H53V48H52ZM64 31H63V32H64V31ZM45 20H46V21H45V20ZM45 23H44V24H45V23ZM41 26H42V27H41V26ZM40 26H39V27H40V26ZM41 29H42V30H41V29ZM46 28H45V29H46V28ZM55 44H54V45H53V46H54V45H55V44ZM46 46H45V47H46V46ZM46 50H47V51H46V50ZM56 50H55V51H56V50ZM42 52H43V53H42V52Z" fill="#A47B5A"/>
<rect x="69" y="35" width="1" height="1" fill="#EEC573"/>
<path fill-rule="evenodd" clip-rule="evenodd" d="M45 75H44V76H45V75ZM37 77H38V78H37V77ZM39 77H40V78H39V77ZM48 82H49V83H48V82ZM51 85H50V86H51V87H50V88H51V87H52V86H51V85ZM58 85H59V86H58V85ZM58 87H57V86H58V87ZM58 87H59V88H58V87ZM59 80H58V81H59V80Z" fill="#D5CDCD"/>
</svg>
