<svg width="100" height="100" viewBox="0 0 100 100" fill="none" xmlns="http://www.w3.org/2000/svg">
<path fill-rule="evenodd" clip-rule="evenodd" d="M34 25H35V26H34V25ZM23 51H22V52H23V51ZM24 54H23V55H24V54ZM26 54H27H28V55H27V56H26V54ZM56 57H57V59H56V57ZM56 59V60H55V59H56ZM58 57H60V59V60H59V59H58V57ZM61 56H63V58V59H62V58H61V56ZM25 81H26V82H25V81ZM28 82H27V84H28V82ZM45 28H44V29H45V28ZM43 25H45V26V27H44V26H43V25Z" fill="#CDCDCD"/>
<path fill-rule="evenodd" clip-rule="evenodd" d="M43 26H42V27H43V26ZM45 27H44V28H45V27ZM22 50H23V51H22V50ZM22 51V52H21V51H22ZM23 53H25V54H23V53ZM56 57H55V59H56V57ZM24 80H25V81H24V80ZM24 82H23V81H24V82ZM25 83H24V82H25V83ZM25 83H26V82H27V84H26H25V83ZM54 85H53V87H54V88H55V87V85V84H54V85ZM56 85H57V84H58V85H59V87H58V88H57V87H56V85ZM62 85H61V84H60V85V87V88H61V87H62V85Z" fill="white"/>
<path fill-rule="evenodd" clip-rule="evenodd" d="M52 10H53V12H52V10ZM53 12V14H54V12H53ZM30 12H28V13H27V14H26V17H27V14H28V13H30V12ZM43 42H44V43H43V42ZM43 44H42V43H43V44ZM43 44H45V47H43V48H40H39H37V47H39V46H40V45H43V44ZM43 49H34V51H33V52H34H43V53H45V49H43ZM33 53H42V54H45H46V59H45V58H42H41V57H33H32V58H31H30V56H31V54H33V53ZM33 58H40V59H44V60H45H46V61H45V62H44V63H40H33H31V64H30V63H29V60H30V59H33V58ZM31 64H32H39H41V65H39V66H32V65H31V64Z" fill="#FFEEBD"/>
<path fill-rule="evenodd" clip-rule="evenodd" d="M39 19H37V20H36V22H37V23H39V22H40V20H39V19ZM38 28H35V29H34V30H33V31H34V32H35H38V31H39V29H38V28ZM27 61H28V66H27V67H25V64H26V62H27V61ZM47 63H48V61H51V62H52V66H51V67H48V66H47V63Z" fill="#F6BD5A"/>
<path fill-rule="evenodd" clip-rule="evenodd" d="M64 27H61V28H60V29H59V31H60V32H61V34H62V35H63V34H64V32H65V31V30H66V29H65V28H64V27ZM59 34H57V35H56V36H57V37H59H60H61V36H60V35H59V34Z" fill="#20A47B"/>
<path fill-rule="evenodd" clip-rule="evenodd" d="M66 24H71V25H72H74V26H72V27H69V28H67V29H65V28H64V27H62H61V28H60V29H58V27H60V26H61H62V25H66V24ZM62 35V34H60V32H59V31H58V29H57V31H56V32H55V34H54V35H53V39H54V38H57V36H56V35H57V34H59V35H60V36H61V37H62V36H63V35H62ZM62 35V36H61V35H62ZM29 26H31H33H34V29H33V30H32V31H31V30H29V29H26V28H24V27H26H27V26H29Z" fill="#186A62"/>
<path fill-rule="evenodd" clip-rule="evenodd" d="M58 29H59V31H58V29ZM60 32H59V31H60V32ZM60 32H61V34H60V32ZM61 35H62V36H61V35ZM62 36V37H63V36H62Z" fill="#104131"/>
<path fill-rule="evenodd" clip-rule="evenodd" d="M39 17H41V18H39V17ZM59 25H58V26H59V25ZM44 35H45V43H44V40H42V39H44V37H42V36H44V35ZM42 37V38H39V37H42ZM42 40V41H39V40H42ZM37 43H38V44H37V43ZM38 44H41V45H38V44ZM36 47H35V48H36V47ZM74 62H75V63H74V62ZM73 64V63H74V64H73ZM71 66V65H72V64H73V68H72V66H71ZM70 69H71V66H70V67H69V68H67V69H65V70H64H62V71H64V72H63V74H62V72H61V74H62V75H63V74H64V72H65V70H67V71H66V73H67V71H68V69H69V71H70V69ZM70 69V68H69V69H70ZM48 73H45V74H36V75H45V74H48V73ZM31 78H30V79H29V80H30V79H31V78ZM54 79H55V81H54V79ZM44 18H42V19H41V20H40V22H41V20H42V19H44V18Z" fill="#9C5A4A"/>
<path fill-rule="evenodd" clip-rule="evenodd" d="M43 43H45V44H43V43ZM43 44V45H41V44H43ZM46 54V53V44H45V47H43V48H36V49H43V48H45V53H43V52H33V53H32V54H33V53H43V54H46ZM47 58H46V54H47V58ZM45 59H47V58H48V60H47H45V59ZM41 58H45V59H41V58ZM32 58V57H41V58H32ZM32 58V59H30V58H32ZM42 63H31V64H29V65H31V64H42V65H46V64H42V63ZM32 68H31V69H32V70H43V69H45V68H43V69H32V68ZM33 71H32V72H33V73H34V74H42H45V75H42H38V76H42V77H45H49H50H52V76H50V75H49V74H45V73H46H47V72H46V71H45V72H42V73H34V72H33V71ZM62 74H60V75H62V74ZM64 72H63V74H62V72V71H64V72ZM67 71V70H65V71V72H64V74H65V73H66V71H67ZM69 69H68V71H67V72H69V71V69ZM70 69V68H69V69H70ZM71 69H70V70H71V69ZM71 69V66H72V69H71ZM73 64H74V66H73V64ZM74 64V63H75V64H74Z" fill="#AC8B41"/>
<path fill-rule="evenodd" clip-rule="evenodd" d="M23 52H24V53H23V52ZM26 80H25V81H26V82H27V81H26V80ZM24 82H23V83H24V82ZM29 83H28V84H29V83ZM58 57H57V58H58V57Z" fill="#626262"/>
<path fill-rule="evenodd" clip-rule="evenodd" d="M52 9H53V10H52V9ZM52 12H51V10H52V12ZM53 12H52V16H51V17H45V18H51V17H52V16H53V12ZM53 12H54V10H53V12ZM30 11H28V12H27V13H26V14H25V17H26V18H27V17H26V14H27V13H28V12H30V13H29V14H30V13H31V12H30V11ZM32 17V18H30V17H32ZM34 19H32V18H34V19ZM34 20V19H35V20H34ZM34 20V21H32V20H34ZM27 25H26V26H27V25ZM44 27H43V29H44V27ZM44 31H45V33H44V31ZM45 34H44V33H43V34H42V35H40V36H42V35H45V34ZM46 33V34H45V33H46ZM46 33V32H47V33H46ZM37 34H38V35H37V34ZM38 38H37V39H36V40H35V41H34V42H33V43H31V44H29V45H27V46H25V47H24V48H23V49H22V50H24V49V48H25V47H27V46H29V45H31V44H33V43H34V42H35V41H36V40H37V39H38V38ZM25 52H24V53H25V52ZM31 53H30V54H31V53ZM28 58H29V59H28V58ZM27 60V59H28V60H27ZM26 62V60H27V62H26ZM25 64V62H26V64H25ZM25 64V68H24V64H25ZM29 77H28V78H26V79H28H29V77ZM30 77H31V78H30V77ZM54 77H53V79H54V77ZM26 53H29V54H26V53ZM34 27H35V28H34V27ZM23 26H24V27H23V26ZM37 17H38V18H37V17ZM39 15H38V17H39V15ZM40 14V15H39V14H40ZM40 14V13H41V14H40ZM42 15H43V16H42V15ZM42 21H41V22H42V21ZM42 20H44V21H42V20ZM46 19H44V20H46V19ZM56 25H58V26H56V25ZM61 24H58V25H61V24ZM61 24H65V23H61V24ZM72 23H71V24H72V23ZM74 24H75V25H74V24ZM78 26H77V27H78V26ZM67 39H68V41H67V39ZM69 38H68V39H69V38ZM70 37V38H69V37H70ZM71 36H70V37H71V36ZM72 35V36H71V35H72ZM74 34H72V35H74V34ZM76 33V34H74V33H76ZM82 33V32H76V33H82ZM83 35V34H82V33H84V34V35H83ZM80 36V35H83V36H80ZM78 37H80V36H78V37ZM77 38V37H78V38H77ZM76 39H77V38H76V39ZM75 41V39H76V41H75ZM75 41V44H74V41H75ZM61 55H63V56H61V55ZM60 56H58V57H60V56ZM57 56V57H55V56H57ZM21 28H20V29H21V28Z" fill="#5A3920"/>
<path fill-rule="evenodd" clip-rule="evenodd" d="M53 14H54V16H53V14ZM52 17V16H53V17H52ZM51 18V17H52V18H51ZM44 19V18H51V19H44ZM42 20V19H44V20H42ZM42 20V21H41V20H42ZM42 35H44V36H42V35ZM42 37H40V36H42V37ZM42 40V39H44V37H42V38H39V40H38V41V44H37V45H36V47V48H34V49H36V48H37V47H39V46H40V45H39H38V44H42V43H43V42H44V40H42ZM42 40V41H39V40H42ZM43 48V49H45V48H43ZM42 53H43V54H42V53ZM32 58H33V59H32V58ZM30 63H29V64H30V63ZM41 64H42V65H43H45V68H43V69H39H32V68H30V65H32V66H39V65H41V64ZM32 70H31V69H32V70ZM32 70V71H33V72H34V73H42V72H45V71H46V70H45V69H43V70H42H34H33H32ZM42 64V63H44V62H45V61H46V60H47V62H46V64H44H42ZM41 58H40V59H41V58ZM44 59H45V60H44V59ZM47 58H46V59H47V58ZM32 52H33V53H32V52ZM34 50H33V51H34V50ZM34 19H32V18H28V17H27V18H28V19H32V20H34V19Z" fill="#EEBD8B"/>
<path fill-rule="evenodd" clip-rule="evenodd" d="M41 16H42V17H41V16ZM27 25H31V26H27V25ZM24 27V26H27V27H24ZM22 28V27H24V28H22ZM22 28V29H21V28H22ZM35 28H34V29H35V28ZM38 33H39V34H38V33ZM40 36V35H36V36H40ZM41 34H42V35H41V34ZM45 33H44V34H45V38V40V41H46V40H47V39H48V38H49V36H50V35H51V34H50V33V32V30H49V28V27V25V22H48V25H47V27H46V28H45V29H44H42V30H44V31H45V32V33ZM46 33H45V34H46V33ZM46 33V32H47V33H46ZM46 43H45V44H46V43ZM53 41H54V42H53V41ZM56 44H55V45H56V44ZM48 57H49V55H50V53H52V55H53V56H54V59H53V58H49V59H48V57ZM54 56V55H53V53H52V52H54V53H57V52H58V49H57V48V47H58V48H59V49H60V51H61V53H62V55H61V56V57H60V56H58V57H57V56H54ZM59 60H58V59H57V60H56V62H57V67H56V68H55V69H54V70H50V69H48V68H47V67H46V68V70H47V72H48V73H49V74H50V75H52V76H53V77H54V79H53V81H52V84V85H54V84H55V85V86H56V85H57V84H58V85H59V86H60V85V84H61V85H62V84V83H60V84H58V83H57V84H55V83H54V84H53V82H54H55V81H56H59V82H61V81H60V79H59V74H60V72H61V65H62V68V70H65V69H67V68H69V67H70V66H71V65H72V64H73V63H74V62H76V59H77V52H76V49H75V46H74V45V44H73V45H69V44H68V41H67V43H66V45V49H67V52V53H66V55H65V56H64V59H63V60H62V59H61V60H60V62H59V60ZM60 62H61V65H60V62ZM55 81H54V79H55V81ZM27 80H26V81H27V82H28V83H29V84H31V83H33V82H35V81H36V80H37V79H38V76H36V75H35H34V74H33V73H32V72H31V70H30V68H29V69H28V70H27H26V72H27V73V74H28V75H29V76H30V77H29V79H30V80H29V81H30V82H29H28V81H27V80ZM30 79H31V77H30V79ZM24 48H25V50H26V51H30V50H32V51V52H31V53H30V54H29V53H26H25V52H24V50V48ZM32 50V49H33V50H32ZM52 35H53V36H52V35ZM54 34H53V35H54V34ZM54 31H55V29H57V31H56V32H55V34H54V31ZM57 29V28H58V29H57ZM59 26H60V27H59V26ZM62 25H61V26H62V25ZM65 24H66V25H65V24ZM71 23H67V24H71V25H74V26H76V27H77V26H76V25H74V24H71V23ZM82 33H81V34H82V35H83V34H82V33ZM80 35H79V36H80V35ZM76 33H77V34H76V33ZM75 34H74V35H75V34ZM72 35H73V36H72V35ZM75 40H74V41H75V40ZM68 39H69V40H68V39Z" fill="#DE7339"/>
<path fill-rule="evenodd" clip-rule="evenodd" d="M40 14H41V15H42V16H41V17H39V15H40V14ZM37 19V18H38V17H39V18H41V17H42H44V18H42V19H41V20H39V19H37ZM36 20V19H37V20H36ZM38 34V35H41V34H42H43V33H44V30H42V25H43V24H45V25H46V27H47V25H48V24V21V20H44V21H42V22H39V23H37V22H36V20H35V22H34V24H35V28H38V29H39V31H38V32H37H34V31H33V32V34H34V35H37V34H38ZM38 34V33H39V34H38ZM65 23H67V24H65V23ZM61 25V24H65V25H61ZM59 26V25H61V26H59ZM59 26V27H58V28H57V29H56V28V26H58H59ZM53 33H54V34H53V33ZM53 34V35H52V34H53ZM51 35H50V36H49V38H48V39H47V40H46V41H45V43H46V49V54H47V57V58H48V57H49V55H50V54V53H51V51H52V52H54V53H57V52H58V49H57V46H56V45H55V43H54V42H53V39H52V36H51V35ZM50 49H51V51H50V49ZM49 47H50V49H49V47ZM49 47H48V45H49V47ZM38 39H37V40H36V41H35V42H34V43H33V44H32H31V45H30H29V46H27V47H26H25V50H26V51H30V50H32V49H33V48H34V47H35V45H36V43H37V40H38V39ZM29 59H28V60H27V61H28V60H29V59ZM29 65H28V66H27V67H25V70H27H28V69H29V66V65ZM26 79H27H29V81H30V82H28V81H27V80H26V79ZM59 81V82H61V83H60V84H58V83H57V84H55V83H54V84H53V83V82H55V81H59ZM46 65H47V66H48V67H50H51V66H52V62H51V61H49H48V60H49V59H50V58H53V59H54V60H55V61H56V62H57V67H56V68H55V69H54V70H50V69H48V68H47V67H46V65ZM47 62H48V63H47V62ZM33 25H31V26H33V25ZM69 38H70V37H71V36H73V35H75V34H77V33H79H81V34H82V35H81H79V36H78V37H77V38H76V39H75V40H74V44H73V45H69V44H68V40H69V38Z" fill="#EE9C39"/>
<path fill-rule="evenodd" clip-rule="evenodd" d="M54 12H55V16H54V12ZM53 17V16H54V17H53ZM52 18V17H53V18H52ZM51 19V18H52V19H51ZM49 22H48V20H46V19H51V20H49V22ZM50 30H49V22H50V30ZM51 34H50V30H51V34ZM52 34H51V36H52V39H53V41H54V43H55V44H56V46H57V47H58V48H59V49H60V51H61V53H62V55H63V59H62V58H61V57H60V60H59V59H58V58H57V59H56V60H55V56H54V55H53V53H52V51H51V49H50V47H49V45H48V47H49V49H50V51H51V53H52V55H53V56H54V60H55V61H56V60H57V59H58V60H59V62H60V65H61V72H60V74H59V79H60V81H61V83H62V87H61V88H60V86H59V87H58V88H57V87H56V86H55V88H54V87H53V85H52V81H53V79H52V81H51V85H52V87H53V88H54V89H55V88H56H57V89H58V88H59H60V89H61V88H62V87H63V83H62V81H61V79H60V76H63V75H65V74H67V73H69V72H70V71H71V70H72V69H73V68H74V66H75V64H76V62H77V59H78V52H77V49H76V46H75V44H74V46H75V49H76V52H77V59H76V62H75V64H74V66H73V68H72V69H71V70H70V71H69V72H67V73H65V74H63V75H60V74H61V72H62V65H61V62H60V61H61V59H62V60H63V59H64V56H65V55H66V53H67V49H66V43H67V41H66V43H65V49H66V53H65V55H64H63V53H62V51H61V49H60V48H59V47H58V46H57V44H56V43H55V41H54V39H57V38H63V37H64V34H65V32H66V30H67V29H69V28H72V27H76V28H78V27H76V26H77V25H76V24H75V25H76V26H72V27H69V28H67V29H66V30H65V32H64V34H63V37H57V38H54V39H53V36H52V34ZM53 33V34H52V33H53ZM54 31V33H53V31H54ZM55 29V31H54V29H55ZM55 29V26H56V29H55ZM29 13H28V14H27V17H28V18H27V19H28V20H32V19H28V18H30V17H28V14H29V13ZM35 20H34V22H33V24H27V25H33V26H34V27H35V26H34V25H35V24H34V22H35V20ZM36 19V20H35V19H36ZM36 19V18H37V19H36ZM41 14H42V15H41V14ZM44 16H42V17H44V18H45V17H44V16ZM45 25V24H43V25H42V26H43V27H42V29H43V27H44V26H43V25H45ZM45 25H46V28H45V25ZM24 25H26V26H24V25ZM23 26H22V27H21V28H22V29H20V30H22V29H26V30H29V31H31V32H32V34H33V35H34V36H36V37H38V40H37V43H36V45H35V47H34V48H33V50H32V52H31V54H30H28V55H27V56H26V53H25V54H24V55H23V53V52H24V50H23V52H21V51H22V50H21V51H20V53H21H22V55V56H24V55H25V57H26H27V56H28V55H30V56H29V60H28V65H29V68H30V70H31V72H32V73H33V74H34V75H36V76H38V79H37V80H36V81H35V82H33V83H31V84H25V83H26V82H25V81H24V80H26V79H24V80H23V81H22V83H23V84H24V85H31V84H33V83H35V82H36V81H37V80H38V79H39V77H42V78H52V77H53V76H52V75H50V74H49V73H48V72H47V70H46V65H47V62H48V60H49V59H50V58H49V59H48V60H47V62H46V65H45V70H46V72H47V73H48V74H49V75H50V76H52V77H42V76H39H38V75H36V74H34V73H33V72H32V70H31V68H30V65H29V60H30V56H31V54H32V52H33V50H34V48H35V47H36V45H37V43H38V40H39V37H40V36H36V35H34V34H33V30H34V29H33V30H32V31H31V30H29V29H26V28H22V27H23V26ZM23 83V81H24V82H25V83H23ZM25 68H24V70H25V72H26V74H27V75H28V76H29V77H30V76H29V75H28V74H27V72H26V70H25V68ZM72 23H74V24H72V23ZM71 22H65V23H71V22Z" fill="black"/>
</svg>
