<svg width="100" height="100" viewBox="0 0 100 100" fill="none" xmlns="http://www.w3.org/2000/svg">
<path fill-rule="evenodd" clip-rule="evenodd" d="M56 34H57V35H58V37H57V38H56V37V35V34ZM44 35H45V37H44V35ZM44 37V38H43V40H42V38V37H44ZM51 45H52V48H51V49H50V50H49H46V49H49V48H50V47H51V45ZM57 49H54V50H53V52H54V53H56V52H57V49ZM59 51H60V52H59V51ZM60 52H61V53H60V52ZM61 54H62V55H61V54ZM32 56H33V57H32V56ZM32 59H33V60H32V59ZM34 62H33V60H34V62ZM34 62H35V63H34V62ZM49 64H48V65H49V66H50V67H51V69H52V70H54V71H60V70H61V69H62V67V66H63V65V64H62V65H61V66H59V67H55V66H54V65H53V66H50V65H49V64ZM55 63H54V64H55V63ZM63 57H62V58H63V57ZM59 35H60V36H59V35ZM60 38H59V39H58V41H60V40H62V39H60V38Z" fill="#DED5DE"/>
<path fill-rule="evenodd" clip-rule="evenodd" d="M57 31H58V34H57V31ZM58 34H60V35H58V34ZM44 32H45V33H44V32ZM43 35H42V37H41V38H42V37H43V35ZM42 40H41V41H42V40ZM50 43H47V44H46V45H45V46H44V49H45V50H46V51H47V50H46V49H45V46H46V45H47V44H50V43ZM54 53H53V54H54V53ZM35 63H37V64H35V63ZM37 64H40V65H37V64ZM52 45H53V46H52V45ZM53 34H52V36H53V34ZM62 35H63V36H62V35ZM62 36V37H61V36H62ZM61 38H62V39H61V38ZM62 40V39H63V40H62ZM60 41H62V40H60V41ZM60 41V42H58V41H60Z" fill="#5A5A5A"/>
<path fill-rule="evenodd" clip-rule="evenodd" d="M56 28H58V29V31H57V29H56V28ZM55 30V29H56V30H55ZM54 32V30H55V32H54ZM54 32V34H53V32H54ZM60 34H63V35H60V34ZM59 38H58V39H57V41H58V39H59V38ZM53 42H52V43H53V42ZM55 53H54V54H55V53ZM59 35H58V34H57V35H58V36H59V35ZM43 32H44V33H43V32ZM43 33V35H42V33H43Z" fill="#9C948B"/>
<path fill-rule="evenodd" clip-rule="evenodd" d="M57 29H56V30H55V32H54V34H53V38H54V40H55V41H57V39H58V38H60V37H61V36H62V35H60V36H58V37H57V38H56V34H57V32V30V29ZM44 33H43V37H44V33ZM51 40H50V42H51V40ZM51 44H47V45H46V46H45V49H49V48H50V47H51V46V44ZM59 50V52H60V53H61V55H62V58H63V64H62V65H61V66H60H59V67H55V66H54V64H55V53H56V52H57V50H59ZM33 57H32V59H33V57ZM44 40H46V42H44V40Z" fill="white"/>
<path fill-rule="evenodd" clip-rule="evenodd" d="M49 36H47V37H45V38H44V40H43V41H44V40H45V39H46V40H47V41H48V40H49V39H50V37H49V36Z" fill="#B4CDFF"/>
<path fill-rule="evenodd" clip-rule="evenodd" d="M45 33H44V35H45V37H46V35H45V33ZM41 38H42V40H41V38ZM44 43H43V45H44H45V44H44V43ZM50 40H49V42H50V44H51V45H52V44H53V43H54V41H53V40H52V39H50V40ZM53 43H52V42H53V43ZM50 40H51V42H50V40ZM52 46H53V48H52V46ZM51 49V48H52V49H51ZM52 51H47V50H50V49H51V50H52V51ZM53 52H52V51H53V52ZM53 52H54V53H53V52ZM55 41H58V42H55V41ZM61 37H60V39H61V37ZM54 55H55V57H54V55ZM49 56H44V57H49V56ZM32 61H33V62H32V61ZM34 63H33V62H34V63ZM34 63H35V64H34V63ZM37 64H36V65H37V66H40V65H37V64ZM42 64H41V65H42V64ZM44 63H45V64H44V63ZM48 65V64H46V65H48ZM49 66V65H48V66H49ZM49 66V67H50V66H49ZM50 68H51V69H50V68ZM51 69H52V70H51V69ZM53 70H54V71H53V70ZM60 71H55V72H60V71ZM62 70V71H60V70H62ZM62 70V69H63V70H62ZM63 67H64V68H63V67ZM65 64H64V67H65V64ZM65 64H66V58H65V64ZM65 53H64V55H65V53ZM63 51H64V52H63V51ZM63 49H62V50H63V49Z" fill="black"/>
<path fill-rule="evenodd" clip-rule="evenodd" d="M49 35H52V36H49V35ZM53 38H52V36H53V38ZM54 40H53V38H54V40ZM54 40H55V41H54V40ZM58 42H59V44H58V42ZM60 46H59V44H60V46ZM61 47H60V46H61V47ZM62 48H61V47H62V48ZM62 48H63V49H62V48ZM64 50H63V51H64V50ZM35 52H36V54H35V52ZM34 55H35V57H34V55ZM36 58H35V57H36V58ZM38 59H36V58H38V59ZM40 59V60H38V59H40ZM42 58V59H40V58H42ZM43 57V58H42V57H43ZM43 57V56H44V57H43ZM33 54H32V56H31V60H32V61H33V60H32V56H33V54ZM35 64H36V65H35V64ZM50 56H49V57H50V56ZM45 63H46V64H45V63ZM44 64V63H42V64H44ZM40 64H41V65H40V64ZM51 67H50V68H51V67ZM52 70H53V71H52V70ZM55 71H54V72H55V71ZM63 68H64V69H63V68ZM53 57H51V58H53V59H54V60H53V62H54V60H55V57H54V58H53V57ZM55 54H54V55H55V54ZM65 56H66V58H65V56ZM65 56H64V55H65V56ZM64 52H65V53H64V52ZM44 39H43V40H44V39ZM42 41H43V43H42V41ZM45 45H44V46H45V45Z" fill="#293183"/>
<path fill-rule="evenodd" clip-rule="evenodd" d="M49 35H47V36H46V37H47V36H49V35ZM49 39H50V40H49V39ZM47 40H46V42H44V43H46V42H47V40ZM54 47H53V48H52V49H51V50H52V51H53V50H54V49H55V48H54V47ZM34 52H35V53H34V52ZM34 54H33V53H34V54ZM34 54H35V55H34V54ZM37 59H38V60H37V59ZM36 62H35V63H36V62ZM37 63H40V62H42V61H43V60H44V58H43V57H44H46H48H49V58H48V59H49V60H48V61H49V62H50V64V65H49V64H48H46V63H44H42V64H37V63ZM50 61V62H51V61H52V60H51V59H52V58H51V57H50V58H49V59H50V60H49V61H50ZM50 61V60H51V61H50ZM50 59H51V58H50V59ZM52 62H53V63H52V62ZM55 60H54V61H55V60ZM62 69H61V70H62V69ZM62 69H63V67H64V64H65V60H64V62H63V66H62V69ZM45 37H44V38H43V39H44V38H45V37ZM43 40H42V41H43V40Z" fill="#5A62BD"/>
<path fill-rule="evenodd" clip-rule="evenodd" d="M52 39H53V40H52V39ZM56 42H58V44H59V46H60V47H61V48H62V50H63V52H64V56H65V60H64V62H63V60V57H62V56V54H61V52H60V51H59V50H57V49H55V48H54V47H55V46H56V42ZM50 57H49V58H48V59H49V60H48V61H49V62H50V66H52V65H53V63H52V62H53V60H54V59H53V58H52V59H51V58H50V57ZM50 59H51V60H50V59ZM50 61V62H51V61H52V60H51V61H50ZM50 61H49V60H50V61ZM50 59H49V58H50V59ZM36 58H35V60H34V62H36V63H40V62H42V61H43V60H44V58H42V59H40V60H37V59H36V58Z" fill="#7383D5"/>
<path fill-rule="evenodd" clip-rule="evenodd" d="M49 36H50H52V38H53V39H52H50V37H49V36ZM53 40H54V41H53V40ZM54 41H55V42H56V46H55V47H53V45H52V44H53V43H54V41ZM35 53H34V54H33V57V60H35V57H34V54H35V53ZM55 61H54V62H53V65H52V66H53V65H54V63H55V61ZM49 42H50V43H49H47V44H46V45H45V44H44V43H46V42H47V41H48V40H49V41V42ZM44 43H43V41H44V43ZM46 39H45V40H46V39Z" fill="#8B9CF6"/>
</svg>
