<svg width="100" height="100" viewBox="0 0 100 100" fill="none" xmlns="http://www.w3.org/2000/svg">
<path fill-rule="evenodd" clip-rule="evenodd" d="M67 32H68V34H67V32ZM67 35H66V36H67V35ZM64 37H65V38H64V37ZM63 39H62V40H63V39ZM42 42H41V43H40V46H41V43H42V42ZM64 47H63V48H64V49H65V50H66V51H67V52H68V51H67V50H66V49H65V48H64V47ZM68 53H69V54H68V53ZM70 56H69V59H68V61H67V62H66V63H65V64H63V65H61V66H56V67H62V66H64V65H65V64H66V63H67V62H68V61H69V59H70V56ZM40 59H39V60H40V59ZM34 68H33V69H34V68ZM37 69V70H35V69H37ZM43 71V70H39V71H43ZM45 69H46V70H45V69ZM48 68H47V69H48V68ZM49 67V68H48V67H49ZM50 66H49V67H50V66ZM53 65V64H52V62H51V64H50V66H51V65H52H53ZM53 65V66H55V65H53ZM56 48H58V49V50H57V49H56V48ZM59 51H58V50H59V51ZM60 52H59V51H60V52ZM61 53H60V52H61V53ZM62 54H61V53H62V54ZM62 54H63V55H62V54ZM56 57V56H54V55H53V56V57H56ZM56 57V58H57V57H56ZM43 53H44V54H43V53ZM47 49H46V50H41V51H46V50H47V49ZM48 48H49V49H48V48ZM36 43H39V44H36V43ZM44 41H46V42H44V41ZM48 44H47V46H48V44ZM45 37H46V39H45V37ZM55 44H54V53H55V44ZM52 58H53V61H52V58Z" fill="#101010"/>
<path fill-rule="evenodd" clip-rule="evenodd" d="M49 32H50V33H49V32ZM51 34H50V33H51V34ZM52 36H51V34H52V36ZM53 39H52V36H53V39ZM54 41H53V39H54V41ZM54 41H55V43H56V45H55V44H54V41ZM61 38H62V41H61V38ZM61 42H60V44H61V42ZM61 45H62V46H61V45ZM51 46H50V47H49V48H50V47H51V46ZM48 49H47V50H48V49ZM45 51H46V52H45V51ZM44 55V52H45V55H44ZM43 57V55H44V57H43ZM42 59V57H43V59H42ZM40 56H41V59H42V60H41V61H39V60H40V56ZM40 56H39V55H40V56ZM30 60H29V63H30V60ZM42 53H43V54H42V53ZM42 53H40V52H42V53ZM54 53H55V54H54V53ZM54 54V55H53V54H54ZM52 57H53V58H52V57ZM59 57H57V58H58V59H61V60H62V64H63V60H62V59H61V58H62V57H63V58H65V59H66V61H67V59H66V58H65V57H63V55H62V57H61V58H59V57ZM68 54H69V55H68V54ZM69 55H70V56H69V55ZM57 46H56V48H57V46ZM36 43H35V44H36V43ZM39 43H40V44H39V43ZM40 43V42H41V43H40ZM42 42H43V43H42V42ZM43 42V41H44V42H43ZM46 42H47V43H46V42ZM47 44V43H48V44H47ZM46 47H47V48H46V47ZM45 48H46V49H45V48ZM40 50H41V51H40V50ZM39 49V50H40V49H39ZM39 47V49H38V47H39ZM39 47H40V46H39V47Z" fill="#5A104A"/>
<rect x="43" y="37" width="1" height="1" fill="white"/>
<path fill-rule="evenodd" clip-rule="evenodd" d="M46 45H42V46H41V47V48H45V47H46V46V45Z" fill="#F6734A"/>
<path fill-rule="evenodd" clip-rule="evenodd" d="M47 44H42V45H41V46H40V47H41V46H42V45H46V47H45V48H46V47H47V45V44Z" fill="#C54118"/>
<path fill-rule="evenodd" clip-rule="evenodd" d="M46 42H43V43H42H41V45H42V44H43H46H47V43H46V42ZM40 48V49H45V48H41V47H40V48Z" fill="#9C1000"/>
<path fill-rule="evenodd" clip-rule="evenodd" d="M65 28H66V29H65V28ZM51 50H50V51H49V53H51V51V50ZM66 31H65V32H66V31ZM64 33H65V34H64V33ZM64 35H63V36H64V35Z" fill="#FFE69C"/>
<path fill-rule="evenodd" clip-rule="evenodd" d="M65 29H66V30H65V29ZM47 37H46V39H47V37ZM45 38H43V39H45V38ZM67 31H66V32H67V31ZM65 33H66V34H65V33ZM62 36H61V37H62V36ZM47 51H48H49V53H48V52H47V51ZM50 50V51H49V50H50ZM50 50V49H53V50V52H52V53H51V52V50H50ZM50 59H51V64H50V66H49H48V67H47H46H45H44V66H43V65H44V64H45V63H46V61H47V60H48H49V59H50Z" fill="#FFD56A"/>
<path fill-rule="evenodd" clip-rule="evenodd" d="M67 32H66V33H67V32ZM65 34H66V35H65V34ZM65 35V37H64V35H65ZM62 36H63V39H62V38H61V37H62V36ZM44 37H45V38H44V37ZM53 48H54V52H53V49H52V48H53ZM53 52V53H52V52H53ZM50 49H48V50H46V51V52H47V53H48V52H47V51H49V50H50V49ZM49 59H48V60H49V59ZM45 62H46V63H45V62ZM32 66H33V67H32V66ZM35 68H33V67H35V68ZM48 67V68H46V69H44V70H38V69H35V68H38H40V67H42V66H44V67H48ZM48 67V66H49V67H48ZM52 60H51V61H52V60ZM60 64H63V65H60V64ZM65 63H63V64H65V63ZM66 62V63H65V62H66ZM67 61H66V62H67V61ZM67 61H68V60H67V61Z" fill="#E6AC5A"/>
<path fill-rule="evenodd" clip-rule="evenodd" d="M65 27H66V28H65V27ZM65 30H64V28H65V30ZM65 31V30H66V31H65ZM66 33V32H65V31H64V33H63V34H62V35H61V36H60V37H61V36H63V37H64V36H63V35H65V36H66V35H65V34H64V33H65H66ZM66 33H67V34H66V33ZM57 65H61V66H57V65Z" fill="#B47B31"/>
<path fill-rule="evenodd" clip-rule="evenodd" d="M66 28H67V31H66V28ZM67 31H68V32H67V31ZM51 61H52V62H51V61ZM30 63H29V64H30V66H31V67H32V68H33V67H32V66H31V64H30V63ZM34 68H35V69H34V68ZM38 69H37V70H38V71H39V70H38V69ZM44 70H43V71H44V70ZM44 70H45V69H44V70ZM47 68H46V69H47V68ZM54 63H52V64H53V65H54V64V63ZM57 65H55V66H57V65ZM64 30H65V31H64V30ZM67 34H66V35H67V34ZM65 36H66V37H65V36ZM64 37H63V39H64V37ZM47 37H48V39H47V37ZM47 36V37H43V36H47ZM43 39H47V40H43V39ZM43 39V37H42V39H43Z" fill="#835210"/>
<path fill-rule="evenodd" clip-rule="evenodd" d="M47 32H42V33H40V34H38V35H37V38H35V39H34V40V41H35V42H36V41H37V42H39V41H40V40H41V39H37V38H38H40H41V37H43V36H47V37H48V36H49V34H48V33H47V32ZM41 53H38V54H36V55H35V56H37V55H38V54H41V53ZM36 57V58H35V60H36V61H39H41V62H39V63H35V62H34V61H33V58H34V57H36ZM42 60V61H41V60H42ZM42 60V59H43V60H42ZM57 40H58V39H59V38H61V39V40H60V41H59V43H57V40Z" fill="#EEA4D5"/>
<path fill-rule="evenodd" clip-rule="evenodd" d="M63 46H62V48H61V49H58V50H59V51H60V52H61V53H62V54H63V55H64H65H66V54H67V53H68V52H67V51H66V50H65V49H64V48H63V46ZM56 57H53V61H52V63H53H54V65H58V64H59V61H58V60H57V59H56V57Z" fill="#7B316A"/>
<path fill-rule="evenodd" clip-rule="evenodd" d="M43 31H47V32H43V31ZM48 32H49V33H48V32ZM37 36H36V37H37V36ZM41 37H42V38H41V37ZM40 38H38V39H40V38ZM36 41H37V42H36V41ZM35 41H34V43H35V41ZM42 41H43V42H42V41ZM47 41H46V42H47V43H48V42H47V41ZM48 46H47V47H48V46ZM40 49H45V50H40V49ZM40 47H39V48H40V47ZM53 41H54V48H53H52V49H51H50H49V48H50V47H51V44H52V39H53V41ZM61 37H60V38H61V37ZM60 41H61V42H60V41ZM61 44H60V45H61V44ZM61 46H62V48H61V46ZM58 48H61V49H58V48ZM58 48H57V47H58V48ZM56 45H55V46H56V45ZM55 42H56V43H55V42ZM69 55H68V53H67V54H66V55H65H63V57H62V58H61V59H59H58V58H57H56V59H57V60H58V61H59V64H58V65H60V64H61H62V60H63V63H65V62H66V59H67V60H68V59H69V55ZM65 58H66V59H65V58ZM65 58V57H63V58H65ZM62 60H61V59H62V60ZM53 53H54V54H53V53ZM46 52H45V53H46V52ZM41 57H42V59H41V57ZM39 58H38V57H36V56H33V55H34V54H38V55H39V54H38V53H40V52H36V53H34V54H33V55H32V56H31V57H30V59H29V60H30V59H31V58H32V57H33H36V58H38V60H39V58Z" fill="#A44A8B"/>
<path fill-rule="evenodd" clip-rule="evenodd" d="M43 31H42V32H40V33H38V34H37V35H36V36H37V35H38V34H40V33H42V32H43V31ZM60 37H59V38H58V39H57V40H56V46H57V47H58V48H59H60H61V45H60V41H61V40H60V41H59V43H58H57V40H58V39H59V38H60V37ZM54 52H53V53H52H51H47V52H46V53H45V55H44V54H43H42V53H41V54H40H39V55H37V56H36V57H38V58H35V59V60H36V61H39V60H38V59V58H39V59H40V58V56H41V57H43V59V60H42V61H41V62H39V63H35V62H34V61H33V58H34V57H32V58H31V59H30V64H31V66H33V67H35V68H39H40V67H42V66H43V65H44V64H45V62H46V61H47V60H48V59H51V60H52V57H53V53H54V52ZM43 57V55H44V57H43ZM40 56V55H39V56H40ZM33 55H34V54H36V55H35V56H33V55ZM39 48H40V49H39V48ZM35 37V38H34V39H33V42H34V39H35V38H37V39H38V38H37V37H35ZM40 38H42V39H43V40H47V39H48V36H49V34H48V33H50V34H51V36H52V44H51V46H50V47H49V48H48V49H46V48H47V47H48V46V44V42H47V41H43H42V42H40V43H35V42H39V41H40V40H41V39H40V38ZM46 49V50H45V49H46ZM48 33H47V31H48V33Z" fill="#CD62B4"/>
</svg>
