<svg width="100" height="100" viewBox="0 0 100 100" fill="none" xmlns="http://www.w3.org/2000/svg">
<path fill-rule="evenodd" clip-rule="evenodd" d="M51 41H52V42H51V41ZM51 42V43H50V42H51ZM42 69H41V70H42V69ZM28 72H30V73H29V74H28V73V72ZM29 74H30V76H29V74ZM32 74H33V75H32V74ZM62 75H63V76H62V75ZM64 77H63V76H64V77ZM65 77V78H64V77H65ZM65 77V76H66V77H65ZM64 74H65V75H64V74ZM71 75H70V76H71V75Z" fill="#C5C5D5"/>
<path fill-rule="evenodd" clip-rule="evenodd" d="M39 34H40V35H41V37H42V38H43V39H42V40H41V39H40V36H39V34ZM44 37H43V38H44V37ZM44 37V36H45V37H44ZM28 41H27V42H28V41ZM41 69H40V71H41V69ZM28 73V72H26V73H25V74H26V73H28ZM28 74H29V76H28V74ZM31 73H29V74H31V73ZM31 73H33V72H31V73ZM67 73H68V74H67V73ZM70 75H69V76H70V75ZM71 74H72V76H71V74Z" fill="#6A6A62"/>
<path fill-rule="evenodd" clip-rule="evenodd" d="M69 18H67V19H65V20H64V22H65V20H67V19H69V20H71V19H69V18ZM67 21H68V22H67V21ZM71 23H72V24H71V23ZM70 25V24H71V25H70ZM70 27H69V26H68V25H70V26V27ZM72 27V28H70V27H72ZM72 27V26H73V27H72ZM64 29H65V30H64V29ZM72 31H69V32H72V31ZM69 33H70V34H69V33ZM63 37H64V38H63V37ZM61 39V38H63V39H61ZM61 39V40H60V39H61ZM59 46H58V48H59V50H60V51H61V50H60V48H59V46ZM60 52H59V53H60V52ZM78 54H76V55H78V54ZM76 56H77V57H76V56ZM72 58H73V59H72V58ZM59 60H60V61H59V60ZM39 62H40V64H39V62ZM34 63H33V64H34V63ZM32 70V69H34V70H32ZM31 71V70H32V71H31ZM31 71V73H30V72H28V71H30H31ZM34 73H33V75H34V73ZM54 67H53V68H54V67ZM55 68H56V69H55V68ZM58 73H57V74H58V75H59V74H58V73ZM64 77H63V78H64V77ZM62 74H63V75H62V74ZM64 73H63V74H64V73ZM65 74H66V75H65V74ZM68 74H67V75H68V74ZM71 73V74H69V73H71ZM68 72H69V73H68V72ZM68 72V71H66V70H64V69H63V70H64V71H66V72H68ZM66 65H65V66H66V65ZM69 62H68V63H69V62ZM70 62H71V63H70V62ZM73 60H72V61H73V60ZM75 58H74V59H75V58ZM53 59H54V60H53V59ZM51 59H50V60H51V59ZM53 57H54V58H53V57ZM56 58H55V59H56V58ZM57 57H58V58H57V57ZM60 56H59V57H60V56ZM56 54H57V55H56V54ZM54 55H56V56H54V55ZM69 37H68V38H69V37ZM67 23H66V24H67V23ZM70 22H69V23H70V22ZM58 36H59V37H58V36ZM58 35V36H56V35H58ZM56 34V35H55V34H56ZM54 33H55V34H54V33ZM54 33V32H53V33H54ZM52 34H51V35H52V34ZM52 40H54V41H52V40ZM50 32H48V33H50V32ZM50 31H48V30H50V31ZM50 31V32H52V31H53V30H54V27H57V26H54V27H53V30H52V31H50ZM51 19H50V20H51V19ZM40 25H41V28H40V25ZM42 31H41V28H42V31ZM43 32V31H42V32H41V33H42V32H43ZM44 33H43V32H44V33ZM44 33H45V34H44V33ZM48 38H49V39H48V38ZM47 40V39H48V40H47ZM46 41V40H47V41H46ZM46 41V42H45V41H46ZM40 40H41V42H40V40ZM40 39V40H39V39H40ZM39 39H38V38H39V39ZM51 43H50V45H49V46H48V47H44V46H43V47H44V48H48V47H49H50V45H51V43ZM41 45H42V46H41V45ZM36 43H35V42H34V43H35V44H36V43ZM34 39H33V40H34V39ZM30 42H31V43H30V42ZM28 43H27V44H28V43ZM34 37H35V38H34V37ZM37 36H35V37H37V36ZM38 35V36H37V35H38ZM39 34H40V33H39V34ZM39 34H38V35H39V34ZM38 31H37V32H38V31ZM35 26H38V27H35V26ZM34 27H35V30H34V27ZM24 39H25V40H24V39ZM24 36H23V37H24V36ZM22 34H23V35H22V34ZM22 31H21V32H22V31ZM27 30H28V31H27V30ZM28 32H27V33H28V32ZM30 26V27H28V26H30ZM21 26H20V28H21V26ZM24 26H26V25H27V27H26H24V26ZM26 25H25V24H26V25ZM28 22H26V23H28V22ZM29 21H30V22H29V21ZM32 20H31V19H30V18H27V19H25V20H27V19H30V20H31V22H32V20ZM47 52H46V53H47V52Z" fill="#5A4A08"/>
<path fill-rule="evenodd" clip-rule="evenodd" d="M30 19H28V20H25V21H27V22H29V21H31V20H30V19ZM29 21H28V20H29V21ZM44 33H42V34H41V36V37H42V38H43V37H44V36H45V35H46V34H45H44V33ZM38 36H39V37H40V39H39V38H38V36ZM40 39H41V40H40V39ZM66 23H64V24H66V23ZM66 20H67V19H69V20H68V21H66V20ZM69 21V20H70V21V22H68V21H69Z" fill="#FFF6B4"/>
<path fill-rule="evenodd" clip-rule="evenodd" d="M50 43H49V44H50V43ZM46 44H47V45H46V44ZM46 45V46H45V47H44V46H43V45H46Z" fill="#B4396A"/>
<path fill-rule="evenodd" clip-rule="evenodd" d="M47 44H50V45H49V46H48V47H45V46H46V45H47V44Z" fill="#E66294"/>
<path fill-rule="evenodd" clip-rule="evenodd" d="M38 39H39V41H38V39ZM39 41H40V42H39V41ZM49 39H48V41H46V42H48V41H49V39ZM52 42H51V44H52V42ZM26 73H28V74H26V73ZM31 74H30V75H32V74H33V73H31V74ZM64 74H63V76H64V77H65V76H66V75H65H64V74ZM68 73H69V74H71V75H69H68V73Z" fill="white"/>
<path fill-rule="evenodd" clip-rule="evenodd" d="M49 19H50V20H49V19ZM48 22V20H49V22H48ZM47 24V22H48V24H47ZM46 27V24H47V27H46ZM46 27V31H45V27H46ZM68 20H69V21H68V20ZM72 21H70V22H72V21ZM74 23H73H72V24H73V25V27H72V26H71V27H72V28H70V29H69V31H73V30H74V29V28H75V27V25H74V23ZM67 33H66V34H67V33ZM64 35H65V36H64V35ZM61 39H62V41H63V43H62V42H61V41H59V40H61V39ZM58 41V40H59V37H58V36H56V35H55V34H54V33H53V34H54V35H55V38H54V39H52V40H54V41H53V43H54V42H56V41H58ZM59 43H58V41H59V43ZM59 43H60V44H59V43ZM56 43H55V44H54V46H53V48H52V49H51V50H53V49H54V48H56V47H57V49H56V53H55V55H56V54H58V53H59V52H60V50H59V48H58V47H57V45H56V44V43ZM77 55H79V57H78V58H77V57V56H76V55H77ZM74 58H73V59H72V60H73V61V62H74V61H75V59H74V58ZM69 62H70V63H71V64H70V65H68V64H67V63H68H69V62ZM36 63H35V64H36V63ZM39 68H40V69V71V72H38V73H36V74H34V73H35V72H37V71H38V69H39V68ZM31 71H32V72H31V71ZM33 65H34V66H33V65ZM34 66H35H36V65H37H38V66V67H37V68H35V67H34V66ZM53 68H54V67H56V68H55V69H53V68ZM58 70H59V71H61V72H60V73H61V74H62V76H61V75H59V74H58V73H57V72V71H58V70ZM62 74V73H63V74H62ZM62 70H63V71H62V70ZM64 73H65V74H64V73ZM67 74H66V76H67V74ZM58 65H59V66H60V67H62V68H60H59V67H58V65ZM61 63H60V64H61V63ZM64 65H65V66H66V67H65H64V65ZM41 63H40V64H41V65H44V66H51V65H54V64H56V63H57V62H56V63H55V61H56V60H58V61H59V60H60V59H61V56H60V57H58V58H56V59H54V60H50V59H48V58H47V59H46V60H45V61H43V62H42V63H41ZM52 58H51V59H52V58ZM53 57V58H52V57H53ZM53 57H55V56H53V57ZM52 55H51V56H52V55ZM52 51H53V52H52V51ZM68 40H70V42H68V41H66H65V40H66V39H68V40ZM65 39V40H64V39H65ZM68 33H69V34H72V37H71V38H69V37H67V36H69V35H68V33ZM69 23H68V24H67V25H65V27H67V26H68V27H69V26H68V24H69V23ZM49 42H48V43H49V42ZM36 57H37V58H39V59H41V61H40V62H39V63H38V62V61H37V59H36V57ZM43 57H42V58H43V57ZM37 55H38V56H37V55ZM40 54H39V55H40V54ZM42 53H43V54H42V53ZM46 53H45V54H46V53ZM37 52H38V53H37V52ZM39 51H40V50H39V51ZM39 51H38V52H39V51ZM42 49H41V50H42V49ZM42 45H43V47H42V45ZM44 48H43V47H44V48ZM44 48H45V49H44V48ZM48 48H47V49H48V48ZM50 47V48H48V47H50ZM51 45H52V44H51V45ZM51 45H50V47H51V45ZM50 38H49V40H50V38ZM47 34H48V35H47V34ZM46 35H45V36H46V35ZM40 34H41V35H40V34ZM40 36H39V37H40V36ZM35 37H36V38H35V37ZM37 39H36V41H37V39ZM41 43H42V44H41V43ZM44 43H43V44H44V43ZM38 44H39V45H38V44ZM37 45H38V46H37V45ZM56 27H57V28H56V27ZM57 29H56V30H57V29ZM54 27H55V28H54V27ZM55 29H54V30H53V31H52V32H53V31H54V30H55V29ZM40 32H39V31H38V29H37V31H38V32H39V33H40V32ZM37 27H38V28H37V27ZM36 27H35V28H36V27ZM35 29H36V30H35V29ZM36 42H35V43H34V44H35V43H36V42ZM34 40H33V39H32V36H31V37H29V38H28V39H29V38H31V39V40H30V42H31V43H32V42H33V41H34V40ZM25 40V39H27V40H25ZM26 37H25V38H26V37ZM26 35H27V36H26V35ZM30 27H29H28V26H27V27H26V29H25V30H27V29H29V30H28V31H29V32H28V33H27V35H29V34H31V32H30V27ZM31 26H32V25H31V26ZM31 26H30V27H31V26ZM26 33H25V34H26V33ZM23 26H24V27H23V26ZM27 24H26V25H27V24ZM23 23H25V24H23V23ZM27 21H24V22H27V21ZM27 19H28V20H27V19ZM28 20V21H29V20H28Z" fill="#C5A410"/>
<path fill-rule="evenodd" clip-rule="evenodd" d="M42 25H41V28H42V31H43V32H44V33H45V31H44V29H43V27H42V25Z" fill="#E6C520"/>
<path fill-rule="evenodd" clip-rule="evenodd" d="M70 20H71V21H70V20ZM70 22H71H73V23H71V24H70V25H69V23H70V22ZM67 22H69V23H67V22ZM67 22H65V21V20H66V21H67V22ZM70 27V25H71V24H73V26H71V27H70ZM67 33H65V32V29H66V27H69H70V29H69V31H66V32H67V33ZM67 33H68V34H67V33ZM64 36H67V37H66V38H67V39H65V38V37H64V36ZM56 47H57V48V49H56V50V51H52V52H50V51H51V50H53V49H54V48H56V47ZM56 52H55V53H54V54H53V55H52V56H50V57H49V58H48V59H51V58H52V57H53V56H54V55H55V54V53H56V52ZM56 61V60H58V61H57V62H56V63H55V62V61H56ZM35 63H34V64H33V65H34V66H36V65H37V64H36H35V63ZM34 69H35V70H37H38V71H37V72H35V73H33V72H32V70H34V69ZM61 72H60V73H61V74H62V73H65V74H67V73H68V72H66V71H64V70H63V71H61V72ZM62 64H59V66H60V67H62H63V65H62V64ZM64 24H67V25H64V24ZM39 35H38V36H37V37H36V38H35V40H36V39H37V42H38V43H39H40V44H41V43H42V44H43V43H44V44H46V43H48V42H50V41H51V40H52V39H54V38H55V35H54V34H53V33H52V32H51H50V31H48H47V29H48V26H49V23H50V20H49V22H48V24H47V27H46V31V33H45V34H46V35H47V34H50V35H49V36H48V37H47V38H46V39H45V40H44V41H43V42H42V41H41V42H39V41H38V36H39V35ZM50 32H48V33H50V32ZM52 33V34V35H51V33H52ZM48 42V41H49V40H50V38H49H48V39H47V40H46V41H45V42H48ZM55 27H56V28H57V29H56V30H55V29H54V28H55V27ZM43 32H42V33H40V34H42V33H43V32ZM37 27H36V28H35V29H36V30H37V29H38V28H37V27ZM36 56H37H38V55H40V54H43V53H45V54V55H44V56H43V57H42V58V59H39V58H37V57H36V56ZM38 50H39V51H38V50ZM39 50H41V49H42H43V48H42V47H41V46H40V48H39V50ZM47 49V48H45V49H47ZM28 41H30V43H29V44H28V43H27V42H28V41ZM28 38H25V36H26V35H27V33H26V34H23V36H24V39H25H28V38ZM26 27H23V26H25H26V25H25V24H28V26H30H31V25H32V23H30V22H31V21H30V22H28V23H26V22H23V23H25V24H22V26H21V27V29V30H22V31H25V29H26V27ZM28 23H30V24H28V23Z" fill="#FFE639"/>
<path fill-rule="evenodd" clip-rule="evenodd" d="M22 30H21V31H22V34H25V33H26V32H25V31H22V30ZM26 36H25V37H26V38H28H29V37H28V36V35H27V36H26ZM30 40H29V39H27V40H25V42H27V41H29H30V40ZM37 44H38V45H37V44ZM38 45H39V46H38V45ZM41 40H42V39H43V38H44V37H45V36H46V35H47H48V34H50V35H49V36H48V37H47V38H46V39H45V40H44V41H43V42H42V41H41V40ZM52 41H53V44H52V41ZM57 44H56V45H57V46H58V45H57V44ZM59 43H58V44H59V43ZM60 42V43H59V42H60ZM60 42V41H61V42H60ZM64 40H65V41H64V40ZM64 40H62V39H63V38H64V39V40ZM66 37V38H68V37H66ZM64 34H65V33H66V34H68V35H69V36H68H65V35H64V34ZM67 31H69V33H67V32H66V31H67ZM36 55H37V56H36V55ZM46 53H44H42V54H39V55H37V53H38V52H39V51H40V50H43V51H44V52H46V53ZM50 51V52H53V51H56V52H55V53H54V54H53V55H51V56H50V57H49V58H47V59H46V60H45V59H44H43V56H44V55H45V54H46V53H47V52H49V51H50ZM50 51H51V50H50V51ZM37 62V61H35V62H34V63H36V62H37ZM38 67H37V68H38V67ZM34 67H35V68H34V67ZM36 69H35V70H36V69ZM57 61H60V64H59V65H58V64H57V61ZM62 67H63V68H62V67ZM60 70H59V71H60V70Z" fill="#394152"/>
<path fill-rule="evenodd" clip-rule="evenodd" d="M27 29H29V30H27V29ZM27 30V31H29V32H27V33H26V32H25V30H27ZM31 34H29V35H28V37H31V35V34ZM31 38H29V40H31V38ZM39 40H40V41H39V40ZM35 40H34V41H33V42H32V43H33V44H34V42H36V44H35V45H37V44H38V43H37V42H36V41H35V40ZM39 44H40V46H39V44ZM39 46V47H38V46H39ZM47 40H48V41H47V40ZM73 31H72V32H70H69V33H70V34H72H73V31ZM68 38H71V40H68V39H67V38H68ZM62 40H64V41H66V42H63V41H62V40ZM60 42H62V43H61V44H60V43V42ZM60 42H59V41H60V42ZM58 42H56V44H57V45H59V44H58V42ZM55 43H54V44H53V45H52V47H51V48H50V49H49H48V50H45V49H42V50H43V51H44V52H48H49V51H50V50H51V49H52V48H53V46H54V44H55V43ZM43 58H42V59H41V61H40V63H42V62H43V61H45V59H43V58ZM53 60V59H55V58H57V57H59V56H61V53H58V54H57V55H56V56H55V57H54V58H52V59H51V60H53ZM38 62V64H39V65H37V64H36V62H38ZM38 66H39V68V69H38V70H36V69H35V68H38V66ZM53 68V67H54V66H51V67H49V68H53ZM57 63H56V64V65H58V64H57V63ZM59 68H62V70V71H60V70H59V68ZM64 67H66V68H64V67ZM67 62H68V63H67V62ZM71 64H70V65H71V64ZM69 61H70V60H71V59H72V60V61H73V62H72V63H71V62H70H69V61ZM75 61H74V62H75V61ZM75 61V60V58H74V56H76V57H77V58H78V59H77V60H76V61H75ZM79 54H78V55H79V54ZM58 67H56V69H58V67ZM68 64H66V66H68V64Z" fill="#292920"/>
<path fill-rule="evenodd" clip-rule="evenodd" d="M24 20H25V21H24V20ZM23 22V21H24V22H23ZM22 24V22H23V24H22ZM22 24V26H21V24H22ZM28 24H27V26H28V24ZM30 23V24H28V23H30ZM32 23V22H30V23H32ZM32 26H33V23H32V26ZM31 27H32V26H31V27ZM31 32H30V27H31V32ZM32 36V32H31V36H32ZM32 36V39H33V36H32ZM21 28H20V31H21V28ZM21 32H22V34H21V32ZM23 35H22V36H23V35ZM23 37H24V39H23V37ZM25 40H24V42H25V43H27V42H25V40ZM29 45V44H30V43H29V44H27V45H29ZM33 44V43H31V44H33ZM35 45H33V44H35V45ZM37 46V45H35V46H37ZM38 47H37V46H38V47ZM40 46H39V47H38V50H37V52H36V55H35V59H36V60H35V61H34V62H33V63H34V62H35V61H36H37V62H38V61H37V59H36V55H37V52H38V50H39V48H40V46ZM40 44V46H41V47H42V48H43V49H44V48H43V47H42V46H41V45H46V44H49V43H50V42H51V41H52V40H51V41H50V42H49V43H46V44H41H40ZM38 43H40V44H38V43ZM37 42V43H38V42H37ZM36 41V42H37V41H36ZM35 40V41H36V40H35ZM35 40V38H34V40H35ZM38 63H39V64H38V63ZM41 65V64H39V65H38V66H39V68H40V69H42V70H41V71H40V72H38V73H36V74H34V75H30V76H28V77H30V76H34V75H36V74H38V73H40V72H41V71H42V70H43V69H42V68H40V66H39V65H41ZM44 66H41V65H44V66ZM51 66V67H49V68H48V67H44V66H51ZM54 65H51V66H54V67H56V66H57V67H58V70H57V69H53V68H50V69H53V70H57V71H56V73H57V71H58V70H59V67H58V66V65H56V64H54V65ZM54 65H56V66H54V65ZM33 64H32V66H33V68H34V69H35V68H34V66H33V64ZM28 74H25V75H28V74ZM59 76V75H61V76H59ZM61 76H63V77H61V76ZM64 78H65V77H66V78V79H64V78ZM67 76V77H66V76H67ZM67 76V75H69V76H67ZM70 77V76H72V77H70ZM63 68H62V70H63V68ZM63 65V68H64V65H66V64H67V63H66V64H64V65H63ZM63 65V64H62V63H61V59H62V53H61V51H60V53H61V59H60V63H61V64H62V65H63ZM68 67V66H70V65H68V66H66V67H68ZM72 63H71V64H72V63ZM72 63H74V62H72V63ZM77 60H76V61H77V60ZM78 59V60H77V59H78ZM79 57H78V59H79V57ZM79 57H80V55H79V57ZM76 56V55H74V56H73V58H74V56H76ZM35 30H37V31H35V30ZM39 27H38V31H39V32H38V34H39V32H40V33H41V32H40V31H39V27ZM42 24H41V25H42V27H43V29H44V31H45V33H46V31H45V29H44V27H43V25H42V24ZM50 20H51V23H50V20ZM49 26V23H50V26H49ZM48 29V26H49V29H48ZM48 29V31H47V29H48ZM57 27H58V30H57V27ZM54 31V30H57V31H54ZM53 32V31H54V32H53ZM52 33V32H53V33H52ZM52 33V34H51V33H52ZM45 49H48V50H45V49ZM50 48H48V49H50V48ZM51 47V48H50V47H51ZM52 45H51V47H52V45ZM53 44V45H52V44H53ZM54 43H53V44H54V43ZM56 42V43H54V42H56ZM58 41H56V42H58V41ZM59 40V41H58V40H59ZM59 40V37H60V40H59ZM57 46H58V47H57V46ZM59 45H58V46H59V45ZM61 44V45H59V44H61ZM61 44H63V43H66V42H68V43H70V42H71V40H70V42H68V41H66V42H63V43H61V44ZM71 37H72V39H71V37ZM73 34H72V37H73V34ZM74 30V34H73V30H74ZM75 28V30H74V28H75ZM75 25H76V28H75V25ZM74 23H75V25H74V23ZM73 22H74V23H73V22ZM72 21H73V22H72V21ZM72 21V20H71V21H72ZM66 39H65V37H64V34H65V30H64V34H63V37H64V39H65V40H66V39ZM66 27H65V25H64V23H67V24H68V25H69V24H68V23H67V22H64V23H63V25H64V27H65V29H66V27ZM67 26H68V27H67V26Z" fill="#101010"/>
</svg>
