<svg width="100" height="100" viewBox="0 0 100 100" fill="none" xmlns="http://www.w3.org/2000/svg">
<path fill-rule="evenodd" clip-rule="evenodd" d="M39 42H40V43H39V42ZM40 43H41V44H40V43ZM39 44H38V45H39V44ZM34 45H35V46H34V45ZM28 52H27V53H28V52ZM28 54H27V55H28V54ZM44 47H45V48H44V47ZM45 50H44V51H45V50ZM42 48H43V50H42V48ZM53 50H52V51H53V50ZM52 48H53V49H52V48ZM53 48V47H54V48H53ZM55 49H56V50H55V49ZM67 51H65V52H67V51ZM68 43H69V44H68V43ZM74 45H73V47H74H76V46H74V45ZM37 54H36V55H37V54Z" fill="#D9D9D9"/>
<path fill-rule="evenodd" clip-rule="evenodd" d="M56 35H57V36H56V35ZM57 37H59V38H57V37ZM59 37V36H61V37H59Z" fill="#E69C00"/>
<path fill-rule="evenodd" clip-rule="evenodd" d="M60 35H57V36H56V37H59V36H60V35Z" fill="#FFCD4A"/>
<path fill-rule="evenodd" clip-rule="evenodd" d="M41 41H40V43H39V44H40V43H41V41ZM32 45H33V46H32V45ZM27 52H26V54H27H28V53H27V52ZM33 54H32V55H33V56H34H36V54H34V55H33V54ZM43 47H44V48H45V50H43V48V47ZM46 49H47V50H46V49ZM51 49H50V50H51V49ZM52 49H53V48H54V47H55V48V51H53V50H52V49ZM60 56H58V57H59V58H61V57H62V56H61V57H60V56ZM65 53H66V54H65V53ZM66 53V52H67V53H66ZM66 41H68V43H66V41ZM70 43H69V44H70V43Z" fill="white"/>
<path fill-rule="evenodd" clip-rule="evenodd" d="M35 37H33V39H32V40H33V41H35V40H36V39H37V38H36V37H35ZM33 48V49H34V51H33V52H30V51H29V49H30H31V48H33ZM44 43H45V42H46V41H49V42H50V44H49V45H47V46H45V45H44V43ZM56 52H55V56H56V55H58H59V52H58V51H56V52ZM63 39H64V38H65H66V37H68V38H69V40H65V41H63V39ZM62 38H59V39H58V40H60V39H62V38ZM56 37H54V38H55V39H56V38V37Z" fill="#FFE6CD"/>
<path fill-rule="evenodd" clip-rule="evenodd" d="M38 35H36V36H38V35ZM39 36H41V37H39V36ZM42 38H41V37H42V38ZM42 38H43V39H42V38ZM41 40H42V41H41V40ZM37 46H38V47H37V46ZM38 50H37V49H36V48H35V47H37V48H38H39V49H38V50ZM38 59V57V50H40V57H39V59H38ZM37 60V59H38V60H37ZM36 61V60H37V61H36ZM36 61V62H35V61H36ZM25 61H26V62H25V61ZM26 62H28V63H26V62ZM34 62H33V63H34V62ZM44 40H43V41H44V40ZM43 56H44V57H43V56ZM44 57H46V58H44V57ZM50 57H51V58H50V57ZM53 56H52V57H53V56ZM53 40H54V41H53V40ZM55 42H54V41H55V42ZM57 49H56V46H55V42H56V44H57V46H58V48H57V49ZM57 49H58V50H57V49ZM51 36H52V37H51V36ZM58 42H57V43H58V42ZM62 49H63V50H62V49ZM68 40H67V41H68V40ZM70 36H71V37H70V36ZM73 37H72V38H73V39H74V38H73V37ZM74 41H73V44H74V41ZM71 47H72V48H71V47ZM67 49H66V50H67V49ZM66 53H67V54H66V53ZM70 57H69V59H70V57ZM68 60H69V61H68V60ZM68 61V62H67V61H68ZM65 62H66V63H65V62ZM62 62H61V61H60V62H59V64H60V62H61V63H62V62ZM60 58H59V59H60V58ZM55 59H56V60H55V59ZM57 61H56V60H57V61ZM57 62V61H58V62H57ZM57 63H56V62H57V63ZM57 63H58V64H57V63Z" fill="#FFB48B"/>
<path fill-rule="evenodd" clip-rule="evenodd" d="M55 33H58V34H59V33H61V35H63V36H62V38H61H60V37H61V36H60V35H59H58H56V36V37H54V36H55V35V33ZM63 35V34H64V35H63ZM46 36H45V37H46V38H47V39H48V38H47V37H46V36ZM34 45H33V46H34V45ZM28 53H29V54H28V53ZM33 54H34V55H33V54ZM39 48H40V49H39V48ZM39 48H38V46H39V48ZM41 51H40V49H41V51ZM42 54H41V51H42V54ZM43 61V54H42V61H41V63H40V64H39V65H38V66H39V65H40V64H41V63H42V61H43ZM44 62H43V61H44V62ZM44 62H45V63H44V62ZM41 46H40V48H41V46ZM41 46V44H42V46H41ZM28 65H29V66H28V65ZM50 37H51V38H50V37ZM58 38H57H56V40H57V39H58V38ZM54 40H55V41H54V40ZM56 42H55V41H56V42ZM57 43H56V42H57V43ZM58 44H57V43H58V44ZM59 46H58V44H59V46ZM59 46H60V48H61V49H58V48H59V46ZM54 52H55V53H54V52ZM65 36H64V37H65V36ZM75 39H74V40H75V42H76V51H75V53H74V54H73V55H72H71V54H72V53H71V54H70V53H69V54H70V55H71V57H72V56H73V55H74V54H75V53H76V51H77V42H76V40H75V39ZM74 45H75V46H74V45ZM65 52H66V53H65V52ZM61 56H60V57H61V56ZM56 64H57V65H56V64ZM54 60H55V62H56V64H55V63H53V62H54V60ZM54 60H53V54H54V60ZM58 66H57V65H58V66ZM60 67H58V66H60V67ZM60 67H67V68H60V67ZM68 66H69V67H68V66ZM70 65H69V66H70V65ZM71 64V65H70V64H71ZM72 62V64H71V62H72ZM72 62H73V58H72V62ZM30 66H37V67H30V66ZM32 43H31V45H32V43ZM38 42H39V44H38V42ZM45 48H46V50H45V48ZM52 48H51V50H52V48ZM52 63H47V64H52V63ZM68 42H70V43H68V42ZM60 42H59V43H60V42ZM40 34H38V35H40V34Z" fill="#101010"/>
<path fill-rule="evenodd" clip-rule="evenodd" d="M38 35H39V36H38V35ZM32 47H33V48H32V47ZM34 47H35V48H34V47ZM36 49H35V50H36V49ZM37 50H38V51H37V50ZM40 49H39V50H40V49ZM37 54H38V55H37V54ZM36 56V55H37V56H36ZM36 56V57H34V56H36ZM36 53H35V54H36V53ZM30 58H29V57H28V58H29V59H30V58ZM25 55H24V56H25V55ZM26 54H27V55H26V54ZM26 54H25V53H26V54ZM26 51H27V52H26V51ZM28 50H27V51H28V50ZM28 50H29V49H28V50ZM31 48H30V49H31V48ZM38 38H37V39H38V38ZM37 41H38V42H37V41ZM40 40H39V41H40V40ZM41 41H42V42H41V41ZM41 44H40V45H41V44ZM45 47H46V48H45V47ZM47 52H46V53H47V54H48V53H47V52ZM51 48H50V49H51V48ZM53 47H51V48H53V47ZM53 47H54V46H53V47ZM57 55H56V56H57V57H58V58H59V57H58V56H57V55ZM62 55H63V56H62V55ZM66 59H65V60H66V59ZM65 54H66V55H65V54ZM65 54H64V53H65V54ZM67 52H68V53H67V52ZM71 54H70V53H69V52H68V51H67V49H68H69V50H72V47V46H73V47H74V50H73V52H72V53H71V54ZM71 55V54H72V53H73V52H74V50H75V47H76V51H75V53H74V54H73V55H72H71ZM62 65H63V67H67V66H69V65H70V64H71V63V62H72V61V59V57H71V55H70V57V59H69V61H68V62H66V63H62H61V62H60V63H61V64H62V65ZM57 64H59V65H60H62V67H60V66H58V65H57V64ZM57 64H56V63H57V64ZM66 50H65V51H66V50ZM68 56H69V57H68V56ZM58 62H59V63H58V62ZM73 44H74V45H73V44ZM67 40H66H65V42H66V41H67V40ZM71 36H72V37H71V36ZM67 36H66V37H67V36ZM64 37H65V38H64V37ZM63 37H62V38H63V37ZM58 42H59V43H58V42ZM58 42H57V41H58V42ZM57 43H56V44H57V46H58V48H59V46H58V44H57V43ZM58 39H57V40H58V39ZM55 40H56V41H55V40ZM54 36H53V35H52V36H53V37H54V36ZM42 35H40V36H41V37H42V38H43V39V40H44V41H45V40H46V39H47V38H46V37H44V36H42V35ZM43 46H42V48H43V46ZM56 47H55V49H56V47ZM55 51V52H53V51H55ZM44 51V50H42V51H44ZM70 41H68V42H70V41ZM75 42H76V45H75V42ZM62 59H61V61H62V59ZM54 58H55V60H54V58ZM54 60V62H53V63H46V62H44V61H43V58V57H44V58H51V57H53V58V60H54ZM55 60H56V62H55V60ZM41 51H40V54V57H39V59H38V60H37V61H36V62H34V63H30H28H27V64H28V65H30V66H34H36H37V65H38H39V64H40V63H41V61H42V54H41V51Z" fill="#EE8362"/>
<path fill-rule="evenodd" clip-rule="evenodd" d="M56 32H58V33H56V32ZM59 33V34H58V33H59ZM61 33H59V32H61V33ZM61 33H62V34H63V35H61V34V33ZM40 35H39V36H38V38H39V36H40V35ZM42 35V34H40V35H42ZM44 36V35H42V36H44ZM44 36H45V37H44V36ZM40 40H41V41H40V40ZM40 41V42H39V41H40ZM37 43H38V44H37V43ZM40 44H39V45H40V44ZM32 45H31V46H32V47H31V48H32V47H37V48H38V47H37V46H32V45ZM32 45V44H35V45H32ZM30 48H29V49H30V48ZM27 51H28V52H27V51ZM28 52H29V53H28V52ZM31 58H30V59H31V60H32V59H31V58ZM25 62H26V63H25V62ZM24 60H25V62H24V60ZM24 60H23V56H24V60ZM27 64H26V63H27V64ZM27 64H28V65H27V64ZM30 65H29V66H30V65ZM38 65H37V66H38V65ZM26 52H25V53H26V52ZM24 54H25V55H24V54ZM34 48H35V49H34V48ZM36 50H35V51V52H34V53H32V54H35V53V52H37V51H36V50ZM39 49H38V50H39V49ZM33 36H34V37H33V36ZM32 39V37H33V39H32ZM32 39H31V43H32V39ZM34 35V36H36V35H38V34H36V35H34ZM42 43H43V44H42V43ZM44 42H43V43H44V42ZM45 41V42H44V41H45ZM46 40H45V41H46V40ZM48 39H46V40H48V39ZM52 39H48V38H52V39ZM52 39V40H54V39V37H53V39H52ZM43 46H44V47H43V46ZM47 48H46V49H47V48ZM43 51H44V52H43V51ZM44 52H46V53H44V52ZM46 62H45V63H46V64H47V63H46V62ZM53 63H52V64H53V63ZM52 52H53V53H52V52ZM52 53V54H48V53H52ZM55 53H54V54H55V53ZM56 61H57V62H56V61ZM58 63H57V62H58V63ZM59 64H58V63H59V64ZM62 65H59V64H60V63H61V64H62V65ZM62 65H63V67H62V65ZM61 61H62V62H61V61ZM68 66H67V67H68V66ZM65 58H66V59H65V58ZM67 57H68V56H67V57ZM67 57H66V58H67V57ZM73 57H72V58H73V57ZM72 52H73V53H72V52ZM74 50V52H73V50H74ZM74 50H75V47H74V50ZM69 52H68V51H67V50H66V51H67V52H68V53H69V52ZM63 49H64H65V53H64V50H63V49ZM63 48V49H61V48H63ZM57 49H56V50H55V52H56V50H57V49ZM57 49H58V48H57V49ZM59 43H58V44H59V43ZM59 41H60V42H59V41ZM61 40V41H60V40H61ZM61 40V39H62V40H61ZM63 38H64V37H63V36H62V37H63V38ZM63 38V39H62V38H63ZM64 35H65V36H64V35ZM65 37V36H66V37H65ZM54 33H55V34H54V33ZM54 35H53V34H54V35ZM54 35V36H55V35H54ZM52 35H51V36H50V37H51V36H52V35ZM57 37H56V38H57V37ZM57 40H58V41H57V40ZM59 38H58V39H59V38ZM59 37H60V38H59V37ZM71 42H70V43H71V42ZM72 36H73V37H72V36ZM74 38H73V37H74V38ZM74 38H75V39H74V38ZM76 45H75V40H74V45H75V46H76V45ZM38 40V41H37V40V39H39V40H38ZM54 46H56V47H54V46ZM38 53H36V54H38V53ZM28 58V57H26V58H28ZM71 47H67V49H69V50H71H72V48H71V47ZM67 35H71V36H67V35ZM62 55H57V56H62V55Z" fill="#943131"/>
<path fill-rule="evenodd" clip-rule="evenodd" d="M54 34H55V35H54V34ZM53 36V35H54V36H53ZM52 39V38H51V37H52V36H53V39H52ZM53 52V51H52V50H50V48H51V47H53V46H54H55V42H54V41H53V40H52V39H48V40H46V41H45V42H44V41H43V39H42V38H41V37H39V38H38V36H36H34V37H36V38H38V39H39V40H38V42H37V40V39H36V40H35V41H33V40H32V44H33H35V46H37H38H39V48H40V49H41V51H42V54H43V56H44V57H46V58H50V57H52V56H53V54H54V58H55V59H56V60H57V61H58V62H60V61H61V59H62V63H65V62H67V61H68V60H69V57H70V54H69V53H67V54H66V55H65V54H64V50H63H62V49H59H58V50H56V51H58V52H59V55H63V56H62V57H61V58H60V59H59V58H58V57H57V56H55V54H54V52H53ZM52 53H53V52H52V53ZM47 53V54H50H52V53H47ZM44 52V53H46H47V52H45H44ZM42 46V51H43V52H44V51H45V50H47V48H46V47H44V46H42ZM41 46V48H40V46H41ZM41 46H42V44H43V43H44V44V45H45V46H46H47V45H49V44H50V42H49V41H48H46V42H45V43H44V42H43V43H42V44H41V43V42H42V40H41H39V42H38V43H37V44H38V45H41V46ZM67 57H69V56H67V57ZM66 58H67V57H66V58ZM66 58H65V60H66V58ZM34 47H33V49H34V51H33V52H30V51H29V50H28V52H29V53V54H28V55H26V54H25V56H24V60H25V61H26V62H28V63H29H31H33V62H35V61H36V60H37V59H38V55H37V56H36V57H35H34V56H33V55H32V53H34V52H35V53H37H38V51H37V49H36V48H35V49H34V47ZM35 49H36V51H37V52H35V51V49ZM29 57H26V58H29V59H31V60H32V59H31V58H29V57ZM55 38H54V39V40H56V42H57V40H56V39H55V38ZM58 40H59H60V41H59V42H58V40ZM61 40V41H60V42V43H59V46H60V48H63V49H65V50H66V49H67V47H68H72V46H73V44V41H74V39H73V38H72V37H70V36H67V37H68V38H69V40H68V41H69H70V42H71V43H70V44H68V43H67H66V42H65V41H63V40V39H64V38H63V39H62V40H61ZM61 40V39H60V40H61ZM63 35H64V37H63V35ZM66 37H65V38H66V37Z" fill="#FFD5AC"/>
</svg>
