<svg width="100" height="100" viewBox="0 0 100 100" fill="none" xmlns="http://www.w3.org/2000/svg">
<path fill-rule="evenodd" clip-rule="evenodd" d="M55 37H54V38H53V40H55V38V37ZM25 41H24V42H25V43H27V42H28V41H26V42H25V41ZM48 70V69H46V70H48ZM44 71V72H46V71H44ZM50 70H51V71H50V70ZM50 79H49V80H48V81H49V80H50V79ZM49 46H50V47H49V46ZM48 45H47V46H48V45ZM45 47H46V48H45V47ZM46 48V49H48V48H46Z" fill="white"/>
<path fill-rule="evenodd" clip-rule="evenodd" d="M85 13H86V14H85V13ZM85 14V15H84V14H85ZM83 16H84V17H83V16ZM82 18V17H83V18H82ZM82 18V19H81V18H82ZM84 24H83V25H84V24ZM85 23H84V24H85V23ZM86 22H85V23H86V22ZM86 22V21H87V22H86ZM81 25H82V26H81V25ZM70 27H69V28H68V29H69V28H70V27ZM28 29H27V18H26V29H27V30H26V35H27V30H28V29ZM30 30H31V32H30V30ZM31 30H32V26H31V30ZM39 35H38H37V34H38V33H39V31H40V30H39V31H38V33H37V34H36V36H35V37H36V36H37H38V37H37V38H36V39H35V40H34V41H35V42H36V41H35V40H36V39H37V38H38V37H39V35ZM23 46V45H25V46H23ZM19 47H20V48H19V47ZM16 49H15V50H16V49ZM13 50H14V51H13V50ZM12 51H10V52H12V51ZM9 52H8V53H9V52ZM22 47V48H24V49H28V48H30V47H32V49H33V50H34V51H35V52H36V53H38V54H39V53H38V52H36V51H35V50H34V49H33V47H35V46H33V45H32H30V47H28V48H24V47H22ZM33 46V47H32V46H33ZM40 50H39V49H38V48H37V47H36V48H37V49H38V50H39V52H40V53H41V52H40V50ZM42 46H43V48H42V46ZM41 45H42V46H41V45ZM40 44H41V45H40V44ZM40 44V43H39V44H40ZM44 49H43V48H44V49ZM45 50H44V49H45V50ZM47 51H45V50H47V51ZM48 51V52H47V51H48ZM50 50V51H48V50H50ZM50 50V49H52V50H50ZM25 40H26V42H25V40ZM24 41H23V38H22V41H23V43H24V41ZM29 33H30V34H29V33ZM36 30H35V31H34V33H35V31H36V30ZM38 42H37V43H38V42ZM37 62H36V63H37V62ZM37 65H38V66H37V65ZM39 64H38V65H39V64ZM39 64H40V63H39V64ZM43 64H42V65H41V67H42V65H43V64ZM47 63H48V64H47V63ZM48 63V62H49V63H48ZM42 68H43V69H42V68ZM43 69H44V70H43V69ZM31 68H32V69H31V68ZM31 69V70H28V69H31ZM35 71H34V70H32V71H30V72H32V71H34V72H35V71ZM36 72H37V73H36V72ZM38 75H37V76H35V77H37V76H38V75ZM39 73H38V75H39V73ZM39 73H40V72H39V73ZM43 72H42V73H43V72ZM44 72H45V73H44V72ZM45 73H46V74H45V73ZM46 70H47V71H46V70ZM47 71H48V72H47V71ZM50 80H51V81H50V80ZM50 81V82H48V81H50ZM51 80H52V78H51V80ZM54 74H53V72H52V76H53V75H54H55V77H56V78H57V79H60V80H61V81H64V80H65V79H64V78H63V77H62V76H61V75H60V74H61V73H60V72H59V73H58V72H56V73V74H57V76H58V78H57V77H56V75H55V70H54V74ZM58 74V76H59V78H60V79H61V80H64V79H63V78H62V77H61V76H60V75H59V74H60V73H59V74H58ZM58 74V73H57V74H58ZM58 59H57V60H58V61H59V62H60V63H59V67H60V63H62V62H60V61H59V60H58V59ZM62 60H63V61H62V60ZM62 60H61V59H62V60ZM66 57V58H68V59H70V58H68V57H66ZM66 57V56H65V57H66ZM54 49H55V50H54V49ZM53 50H54V51H53V50ZM56 39H55V40H56V39ZM54 45H55H56V47H55V46H54V45ZM53 46H54V47H53V46ZM58 62V63H56V62H58ZM64 62V61H66V62H64ZM68 76V77H66V76H68ZM72 78V77H73V76H74V75H73V76H72V77H70V78H72ZM75 53H71V54H75V53ZM75 53V51H76V53H75ZM75 43H77V44H75V43ZM80 42H78V43H80V42ZM81 41V42H80V41H81ZM81 41V40H82V41H81ZM68 48H76V49H68V48ZM69 80H66V81H69V80ZM69 80V79H70V80H69ZM66 39H65V40H66V39ZM67 38H68V39H67V38ZM70 37H69V38H70V37ZM78 46H79V47H78V46ZM78 47V48H77V47H78ZM66 34H67V35H66V34ZM69 33H68V34H69V33ZM69 32H70V33H69V32ZM67 29H66V30H67V29ZM63 74H62V75H63V74ZM64 75H65V76H64V75ZM37 27H36V29H37V27ZM24 34H23V37H24V34ZM57 42H56V44H57V42ZM58 68H59V70H58V68ZM51 71H50V73H51V71ZM44 62H45V64H44V62Z" fill="black"/>
<path fill-rule="evenodd" clip-rule="evenodd" d="M56 44H55V45H56V44ZM52 45H51V46H50V47H51V46H52V45ZM52 48H53V49H52V48Z" fill="#ACA46A"/>
<path fill-rule="evenodd" clip-rule="evenodd" d="M54 36H55V37H54V36ZM53 38V37H54V38H53ZM53 40H52V38H53V40ZM53 42V40H54V42H53ZM52 44V42H53V44H52ZM51 45V44H52V45H51ZM48 45H51V46H49V47H48V46V45ZM47 45V44H48V45H47ZM45 46H46V45H47V48H46V47H45V46ZM44 46V45H45V46H44ZM44 46V48H43V46H44ZM52 70H53V71H52V70ZM50 70V69H52V70H50ZM49 70H50V71H49V70ZM48 69H49V70H48V69ZM46 69V68H48V69H46ZM44 71V70H45V69H46V71H45H44ZM44 71V73H43V71H44ZM48 79H49V80H48V79ZM48 80V81H47V80H48ZM36 74H37V75H36V74ZM36 75V76H35V75H36ZM28 68H29V69H28V68ZM30 68V67H29V68H30ZM31 69V68H30V69H31ZM32 69H31V70H30V71H31V70H32V69ZM32 69V68H33V69H32Z" fill="#625A39"/>
<path fill-rule="evenodd" clip-rule="evenodd" d="M36 11H34V13H33V16H32V17H33V18H34V17H35V16H36V11ZM41 13H40H39V14H38V16H37V18H38V19H40V16H41V13ZM44 18H42V19H41V20H40V21H41V22H42V23H43V25H44V27H46V25H47V23H48V21H46V22H45V23H44H43V20H44V18ZM44 29V30H43V32H44V33H45V31H46V29H44ZM47 35V36H45V38H46V39H47V38H48V37H49V35H47ZM56 36H55V38H56V36ZM28 40H26V41H28V40ZM30 67H31V68H30V67ZM30 68V69H29V68H30ZM32 70H31V71H32V70ZM32 70H33V69H32V70ZM37 75H36V76H37V75ZM37 75H38V74H37V75ZM50 80H49V81H50V80ZM45 72H46V73H45V72ZM48 70H47V71H48V70ZM51 70H52V72H51V70ZM32 46H33V47H32V46ZM33 49V47H35V48H37V49H38V50H39V52H40V53H38V52H37H36V51H35V50H34V49H33ZM44 46H45V48H46V49H47H48V48H47V46H48V47H50H51V46H52V44H53V42H54V40H55H56V41H57V42H56V44H55V45H54V46H53V48H52V49H50V50H48V51H47V50H46H45V49H44V46ZM51 43H49V44H48V45H50V44H51V43ZM47 40H49V42H48V43H47V42H46V41H47V40ZM31 16H30V14H29H28V19H29V18H30V19H31V16Z" fill="#EED5B4"/>
<path fill-rule="evenodd" clip-rule="evenodd" d="M22 41H23V42V43H24V44V45H21V46H20V47H19V48H16V49H14V50H12V51H9V52H7V51H8V50H11V49H12V48H14V47H15V46H16V45H18V44H20V43H21V42H22V41ZM7 52V53H6V52H7ZM33 67H31V68H33V67ZM33 69H35V70H33V69ZM35 70H37V71H39V72H38V74H37V72H36V71H35V70ZM48 70H49V72H48V70ZM51 75H50V74V73V72H49V73V74H48V73H47V72H46V73H47V74V75H48V76H49V79H50V80H51V79V76V75ZM51 75V73H52V75H51Z" fill="#FF836A"/>
<path fill-rule="evenodd" clip-rule="evenodd" d="M31 26H30V28H29V30H28V32H27V36H26V30H25V33H24V37H23V41H24V40H25H26V39H30V38H31V39H32V38H33V39H34V38H33V37H32V36H33V33H34V31H35V29H36V27H35V28H34V29H33V30H32V32H31V33H30V30H31V26ZM30 33V35H29V33H30ZM32 37V38H31V37H32ZM24 46H21V47H20V48H19V49H20V48H22V47H24V46ZM13 47H14V48H13V47ZM10 49H11V50H10V49ZM37 31H38V32H37V31ZM38 31V30H39V31H38ZM33 68H34V69H33V68ZM36 69H35V70H36V69ZM39 70H40V72H39V70ZM39 72V73H38V72H39ZM46 73H47V74H46V73ZM49 72H48V73H49V72ZM51 72H52V73H51V72ZM51 74H50V75H51V76H52V75H51V74ZM49 76H48V77H49V76Z" fill="#E64141"/>
<path fill-rule="evenodd" clip-rule="evenodd" d="M36 32H38V33H37V34H36V35V36H35V37H36V36H38V37H37V38H36V39H35V40H33V39H34V38H33V37H32V36H33V35H34V34H35V33H36V32ZM32 38H33V39H32V38ZM31 38V37H32V38H31ZM31 38V39H30V38H31ZM30 66H33V67H30V66ZM34 68H33V67H34V68ZM34 68H36V69H34V68ZM35 70H34V71H35V70Z" fill="#B42020"/>
<path fill-rule="evenodd" clip-rule="evenodd" d="M30 25H32V26H30V25ZM29 28V26H30V28H29ZM28 30V28H29V30H28ZM27 30H28V32H27V30ZM25 30V29H27V30H25ZM25 30V33H24V34H23V32H24V30H25ZM34 27H35V28H34V27ZM33 29V28H34V29H33ZM32 30V29H33V30H32ZM31 32V30H32V32H31ZM31 32V33H30V32H31ZM35 27V26H37V27H35ZM29 34H30V35H29V34ZM27 35H26V36H27V35ZM22 37H23V38H22V37ZM25 40H24V41H25V40ZM20 42H21V43H20V42ZM18 44V43H20V44H18ZM16 45V44H18V45H16ZM15 46V45H16V46H15ZM13 47V46H15V47H13ZM12 48V47H13V48H12ZM10 49V48H12V49H10ZM8 50V49H10V50H8ZM7 51V50H8V51H7ZM7 52V51H6V52H5V53H6V52H7ZM7 52H8V53H7V52ZM21 42H22V40H21V42ZM14 49H15V50H14V49ZM13 50H12V51H13V50ZM21 46H20V47H21V46ZM21 46V45H23V46H21ZM24 44H25V45H24V44ZM25 46H24V47H25V46ZM36 29H35V30H36V29ZM37 30H38V31H37V30ZM36 32V31H37V32H36ZM35 33V32H36V33H35ZM35 33V34H34V35H33V33H34H35ZM38 30H40V29H38V30ZM36 69H37V70H36V69ZM39 70V71H37V70H39ZM39 70V69H40V70H39ZM36 71H35V72H36V71ZM36 73H37V74H36V73ZM46 71H47V72H46V71ZM48 73H47V72H48V73ZM48 73H49V74H48V73ZM50 71H49V72H50V71ZM50 73H51V74H50V73ZM53 71H52V72H53V71ZM46 74H47V75H46V74ZM48 77H47V75H48V77ZM48 77H49V79H48V77ZM51 76H52V78H51V76ZM10 51H9V53H10V51ZM22 48V49H20V48H22ZM19 49H20V50H17V49H16V48H19V49ZM33 39H26V40H33V41H34V40H33V39ZM37 41H36V42H37V41Z" fill="#7B2020"/>
<path fill-rule="evenodd" clip-rule="evenodd" d="M37 11H36V14H37V11ZM85 12H86V13H85V12ZM82 12V11H85V12H82ZM80 13V12H82V13H80ZM79 14V13H80V14H79ZM78 15V14H79V15H78ZM77 16V15H78V16H77ZM76 17H77V16H76V14H75V13H73V14H72V15H71V16H69V17H68V18H67V19H68V18H69V17H71V16H72V15H73V14H75V16H74V17H73V18H74V17H75V18H76V17ZM76 17H75V16H76V17ZM44 17H43V18H44V21H45V18H44V17ZM40 18H41V19H40V18ZM40 20H39V21H40V20ZM43 22H44V23H43V22ZM42 24V23H43V24H42ZM42 24V25H41V24H42ZM27 28H28V29H27V28ZM48 22H49V23H48V22ZM48 24H47V25H48V24ZM46 26H47V27H46V26ZM45 28V27H46V28H45ZM45 28V29H44V28H45ZM47 30H46V31H45V34H44V36H45V34H46V31H47V30ZM48 37H49V38H48V37ZM49 37V35H50V37H49ZM48 39H47V40H46V41H47V40H48V39ZM34 45H33V46H34V45ZM51 43H52V44H51V43ZM51 43H48V42H49V40H50V42H51V43ZM52 53H51V54H52V53ZM52 51H53V52H52V51ZM55 48H54V49H55V48ZM55 48H56V47H55V48ZM57 44H56V45H57V44ZM56 40H57V41H56V40ZM58 35V40H57V35H58ZM59 32V35H58V32H59ZM60 30V32H59V30H60ZM61 28V30H60V28H61ZM62 27V28H61V27H62ZM63 25V27H62V25H63ZM64 24V25H63V24H64ZM65 23V24H64V23H65ZM66 22H65V23H66V22ZM67 21V22H66V21H67ZM67 21V20H68V21H67ZM57 33H56V34H55V36H56V34H57V33ZM72 19H73V20H72V19ZM85 15H84V16H85V15ZM86 20H87V21H86V20ZM84 20V19H86V20H84ZM82 21V20H84V21H82ZM82 21V22H81V21H82ZM81 19H80V20H79V21H78V22H77V23H76V24H77V23H78V22H79V21H80V20H81V19ZM74 25H75V26H74V25ZM73 26H72V27H73V26ZM74 29H75V30H74V29ZM77 28H76V29H77V28ZM78 27H79V28H78V27ZM81 26H80V27H81V26ZM82 25H83V26H82V25ZM84 29H83V30H82V31H81V32H82V31H83V30H84V29ZM78 32H79V33H78V32ZM76 33H75V34H76V33ZM73 34H74V35H73V34ZM83 35H82V36H80V37H78V38H80V37H82V36H83V35ZM83 35H84V34H83V35ZM78 42H77V43H78V42ZM78 45H79V46H78V45ZM77 48H76V49H77V48ZM67 48H68V49H67V48ZM66 47H65V48H64V47H63V48H64V50H63V51H61V52H63V51H64V50H65V48H66V47ZM67 44H66H65V45H66V47H67V44ZM68 44H67V43H68V44ZM68 41H69V43H68V41ZM68 41V40H65V39H64V40H65V41H68ZM63 43H64V44H63V43ZM60 53H59V54H60V56H59H58V55H57V56H58V57H59V58H60V59H61V58H60V56H61V54H60V53ZM56 58H57V59H56V58ZM58 61H59V62H58V61ZM59 62H60V63H59V62ZM62 61H63V62H62V61ZM63 61V60H64V61H63ZM66 60H67V61H66V60ZM67 59V58H66V57H65V56H64V55H63V56H64V57H65V58H66V59H67ZM67 59V60H68V59H67ZM67 52H68V53H67V52ZM70 53H69V54H70V55H71V57H70V58H71V57H72V55H71V53H70ZM56 61H55V60H54V61H55V62H56V61ZM53 61H52V62H53V61ZM49 62H50V63H49V62ZM44 64H43V63H42V64H43V65H44V64ZM37 58H36V56H37V55H39V54H37V55H36V56H35V58H36V59H37V58ZM41 53H40V54H41V53ZM39 68H40V69H39V68ZM43 68V67H41V62H40V67V68H43ZM44 69V68H43V69H44ZM44 69V70H45V69H44ZM41 71H40V72H41V73H42V72H41V71ZM49 67H48V68H49V67ZM52 67H53V68H52V67ZM54 69H53V68H54V69ZM54 69H55V70H54V69ZM59 67H58V68H59V67ZM59 69H60V70H59V69ZM57 71V69H58V70H59V71H58H57ZM56 72V71H57V72H56ZM57 74H56V72H55V75H56V77H57V78H58V76H59V78H60V79H61V80H62V79H61V76H60V75H61H62V73H61V74H60V73H59V72H58V73H57V74ZM58 74V73H59V74H58ZM58 74V76H57V74H58ZM59 74H60V75H59V74ZM63 71H60V70H63V71ZM66 72H63V71H66V72ZM69 73H66V72H69V73ZM71 74H69V73H71V74ZM71 74H73V75H71V74ZM64 74H63V75H64V74ZM65 75H66V76H65V75ZM69 76H68V77H67V78H68V79H69V78H70V77H69V76ZM69 77V78H68V77H69ZM66 79H65V80H66V79ZM66 38H67V39H66V38ZM69 38H68V39H69V38ZM69 31H70V32H69V31ZM69 30V31H66V30H67V29H68V30H69ZM66 25H67V26H66V25ZM38 42H39V44H38V42ZM36 46H35V48H36V46ZM69 25H70V27H69V25ZM69 24V25H67V24H69ZM53 72H54V74H53V72ZM38 63H37V65H38V63ZM31 16H32V19H31V16ZM27 14H28V18H27V14ZM28 14V13H30V14H28ZM42 13H41V12H40V13H41V17H42V13ZM47 62V63H45V62H47ZM75 51V50H73V49H71V50H73V51H75ZM75 44V43H73V44H75ZM74 39V40H72V39H74ZM74 39V38H76V39H74ZM69 44H72V45H69V44ZM69 35H65V36H69V37H70V35H69ZM35 62H36V63H35V62Z" fill="#623920"/>
<path fill-rule="evenodd" clip-rule="evenodd" d="M31 14H30V16H31V14ZM38 14H37V16H35V17H37V16H38V14ZM36 21V20H34V21H36ZM31 21H32V22H31V21ZM40 21H38V22H40V21ZM40 19H41V20H40V19ZM45 22H44V23H45V22ZM24 43H25V44H24V43ZM28 43H27V44H28V45H29H31V44H32V43H33V41H32V40H31H29V41H28V43ZM54 46H55V47H54V46ZM54 47V48H53V47H54ZM49 68H50H51V69H50V70H49V68ZM44 54H45V55H44V54ZM44 56V55H43V56H42V54H41V55H40V54H39V55H38H37V56H36V58H37V60H36V62H37H38V64H39V63H40V62H41V65H42V63H43V64H44V62H45V61H46V59H47V58H46V57H47V56H46V55H45V56H44ZM44 57H43V56H44V57ZM45 57V58H44V57H45ZM45 57H46V56H45V57ZM66 73V72H64V73H65V74H66V75H68V76H70V77H72V76H73V75H71V74H69V73H66ZM65 76H66V77H65V76ZM66 77H67V78H68V79H69V80H68H67V79H66V77ZM56 59H57V61H56H55V59H54V58H53V56H54V55H55V53H56V49H57V42H58V36H59V33H60V30H61V28H62V27H63V25H64V24H65V23H66V22H67V21H68V20H67V19H68H69V18H70V19H71V21H70V22H69V23H70V22H71V21H72H73V20H75V19H76V20H77V23H76V24H74V25H73V26H72V27H73V26H75V25H76V24H77V25V26H78V27H77V28H75V29H73V30H72V31H73V30H76V29H78V30H77V31H78V32H77V33H74V34H72V35H76V34H77V35V36H78V37H77V38H73V39H71V40H75H76V41H75V42H77V43H72V44H68V43H69V42V41H68V40H66V39H69V38H70V35H68V34H70V30H68V29H69V28H70V25H69V24H67V25H65V26H64V27H65V26H66H67V25H69V28H67V29H66V30H65V31H69V33H67V34H65V35H64V36H66H69V38H66V39H64H63V40H65V41H68V43H67V44H65V43H63H62V44H64V45H66V47H63V46H61V47H62V48H63H64V50H63V51H62V50H61V49H60H59V50H60V51H61V53H60H59V52H58V53H59V54H60V56H59H58V55H57V54H56V55H57V56H58V57H59V58H60V60H59H58V59H57V58H56V57H55V58H56V59ZM63 55H64H65V56H66V57H67V56H66V55H67V54H68V53H67H66V52H67H69V51H70V50H71V49H70H69H67H66V48H73V47V46H74V45H68V44H67V45V46V47H66V48H65V50H64V51H63V52H62V53H61V56H60V58H61V59H62V60H63V58H64V56H63V55ZM63 55V54H62V55H63ZM64 51V52H65H66V51H65H64ZM66 21H67V20H66V21ZM66 21H65V22H64V23H62V24H61V25H60V26H61V27H60V28H61V27H62V26H61V25H62V24H64V23H65V22H66V21ZM59 30V32H58V35H57V39H56V34H57V31H58V30H59ZM59 30H60V29H59V30ZM71 52H70V53H71V52ZM83 24H82V25H83V24ZM79 28H80V29H79V28ZM79 33H80V34H79V33ZM80 36H79V37H80V36ZM84 15H83V16H84V15Z" fill="#B47320"/>
<path fill-rule="evenodd" clip-rule="evenodd" d="M83 12H82V13H81H80V14H79V15H78V16H77V17H76V18H75V19H74V20H75V19H76V20H77V22H78V21H79V20H80V19H81V18H82V17H83V15H84V14H85V12H84H83ZM74 14H73V15H72V16H71V17H70H69V18H68V19H69V18H70V19H71V20H72V18H73V17H74V16H75V14H74ZM32 15H33V16H32V15ZM32 17H33V18H34V17H35V20H34V23H35V21H36V17H37V18H38V19H39V21H38V23H39V22H40V21H41V22H42V24H41V25H42V24H43V25H44V27H45V28H44V29H43V32H44V33H45V34H44V36H45V38H46V39H47V40H46V42H47V43H49V44H47V45H46V46H45V45H44V46H43H42V45H41V44H40V43H39V42H38H37V41H36H35V40H36V39H37V38H38V37H39V35H38H37V34H38V33H39V31H40V29H39H38V30H37V31H36V29H37V26H36H35V27H34V28H33V29H32V25H31H30V26H29V28H28H27V18H28V19H29V18H30V19H31V22H32V17ZM36 31V32H35V31H36ZM41 16H40V17H41V16ZM43 20H44V21H43V20ZM59 29H58V30H59V29ZM60 27V29H59V27H60ZM61 26H60V27H61V26ZM62 25V26H61V25H62ZM62 25V24H63V25H62ZM85 20H86V22H85V23H84V24H82V25H81V26H80H79V27H78V26H77V24H78V23H80V22H82V21H84V20H85ZM80 28H83V29V30H82V31H80V32H78V31H77V30H78V29H80V28ZM80 33H83V34V35H82V36H79V37H78V36H77V35V34H80V33ZM76 39H81V41H80V42H75V41H76V39ZM78 45V46V47H77V48H73V46H74V45H78ZM73 50H70V51H69V52H71V53H75V52V51H73V50ZM70 55H71V57H70V58H68V57H67V56H66V55H67V54H69V55H70ZM67 59H66V58H65V57H64V58H63V60H64V61H66V60H67V59ZM61 59H60V60H59V61H60V62H62V60H61V59ZM57 60H58V62H57H56V61H57V60Z" fill="#D5A45A"/>
<path fill-rule="evenodd" clip-rule="evenodd" d="M36 10H34V11H33V13H32V15H31V16H32V15H33V13H34V11H36V10ZM31 19H32V21H31V19ZM34 21H35V23H34V21ZM36 14H37V16H36V14ZM35 17H36V20H35V17ZM46 20H48V21H46V20ZM46 21V22H45V21H46ZM48 21H49V22H48V21ZM49 35V34H47V35H45V36H47V35H49ZM27 43H25V42H24V43H25V47H24V48H25H27H28V47H30V45H28V44H27V43ZM27 43H28V42H27V43ZM33 43H32V44H31V45H32H33H34V46H35H36V47H37V48H38V49H39V50H40V52H41V54H40V53H39V54H40V55H41V54H42V55V56H43V57H44V58H45V57H46V58H47V59H46V61H45V62H46H47V63H45V64H44V65H42V67H43V68H44V69H46V68H48V69H49V68H51V69H52V70H53V72H54V69H55V71V72H56V71H57V72H60V73H62V74H64V75H61V76H62V77H61V78V79H62V80H64V79H66V80H67V79H66V78V77H65V76H64V75H66V76H68V75H66V74H65V73H64V72H63V71H60V70H59V71H57V69H58V67H59V65V64V63V62H58V63H56V62H55V61H54V60H55V59H54V58H53V56H54V55H55V54V53H56V52V50V49H57V45H56V48H55V47H54V48H53V49H52V50H51H50V51H48V52H47V51H45V50H44V49H43V48H42V46H41V45H40V44H39H38V43H37V42H35V41H33V40H32V41H33V43ZM54 50V48H55V50H54ZM53 51V50H54V51H53ZM53 51V52H52V51H53ZM63 78H64V79H63V78ZM63 78V77H62V78H63ZM53 68H54V69H53V68ZM53 68H52V67H53V68ZM49 68H48V67H49V68ZM48 63V64H47V63H48ZM48 63V62H50V63H48ZM46 56V57H47V56H46ZM45 56H46V55H45V54H44V55H43V56H44V57H45V56ZM45 56H44V55H45V56ZM52 62H53V61H52V62ZM51 53H52V54H51V53ZM42 69V68H40V71H41V72H42H43V71H44V70H43V69H42ZM35 60H36V62H35V60ZM36 60V59H37V60H36ZM57 40H58V42H57V40ZM56 39H57V40H56V39ZM56 39H55V38H56V39ZM63 47V46H61V47H62V48H63V47ZM59 50V49H61V50H62V51H60V50H59ZM66 51V52H64V51H66ZM66 52V53H67V52H66ZM68 52V53V54H69V55H70V54H69V53H70V52H68ZM64 43H65V45H64V43ZM68 33H67V35H68V33ZM56 31H57V33H56V31ZM58 29H57V31H58V29ZM59 27V29H58V27H59ZM60 25H59V27H60V25ZM61 24H60V25H61V24ZM61 24H62V23H61V24ZM74 33H75V34H76V35H75H74V33ZM79 33V34H78H77H76V33H77V32H78V33H79ZM83 33H81H80H79V32H80V31H81V32H83V33ZM83 33H84V34H83V33ZM78 37H77V38H76V39H74V38H73V39H74V40H76V39H77H78H81V40H82V39H81V38H78V37ZM75 28H76V30H75V28ZM78 27H77V29H78H79V28H80H83V29H84V28H83V27H80V26H79V28H78V27ZM73 43H72V45H73H78V44H73V43ZM76 24H74V25H73V26H74V25H76V24ZM78 22H80V23H78V22ZM80 22V21H81V22H80ZM77 23H78V24H77V23ZM73 20H71V21H70V22H69V23H70V22H71V21H73V20ZM73 19V20H74V19H75V18H74V19H73ZM73 19H72V18H73V19ZM70 76H69V77H70V76ZM37 62H38V63H37V62ZM56 57H55V58H56V57ZM57 54H56V55H57V54ZM58 52H59V53H58V52ZM61 53H60V54H61V53ZM61 53H62V52H61V53ZM63 54H62V55H63V54ZM64 55H65V56H64V55ZM66 48H67V49H66V48ZM65 47H64V48H65V47ZM63 43H62V44H63V43ZM63 39H64V40H63V39ZM48 38H47V39H48V40H49V39H48V38ZM51 44H50V45H51V44ZM68 44H69V45H68V44ZM72 40H71V39H72V40ZM59 36H58V35H59V36ZM59 33H60V32H59V33ZM65 36H64V35H65V36ZM65 35V34H66V35H65ZM66 31H65V30H66V31ZM69 34H70V33H69V34ZM73 35H72V34H73V35ZM74 30H73V29H74V30ZM72 31H73V30H72V31ZM70 31H69V30H70V31ZM67 29H68V28H67V29ZM65 27H64V26H65V27ZM66 26H65V25H66V26ZM64 23H63V22H64V23ZM65 22H64V21H65V22ZM66 21H65V20H66V21ZM67 20H66V19H67V20ZM29 41H28V40H29V41ZM43 30H44V29H43V30ZM47 30H46V29H47V30ZM46 29H45V28H46V29ZM47 26H46V25H47V26ZM47 24H48V23H47V24ZM44 22H43V21H44V22ZM38 23H39V22H38V23ZM40 20H39V19H40V20ZM40 18H41V19H42V18H43V17H42V18H41V17H40V18ZM40 13H39V12H40V13ZM38 14H39V13H38V14Z" fill="#8B5231"/>
</svg>
