<svg width="100" height="100" viewBox="0 0 100 100" fill="none" xmlns="http://www.w3.org/2000/svg">
<path fill-rule="evenodd" clip-rule="evenodd" d="M52 31H51V32H52V31ZM58 34H59V35H58V34ZM59 35H60V36H59V35ZM40 38H39V39H40V40H41V39H40V38ZM47 57H48H49H51V62H50V63H49V62V58H48V60H47V57ZM48 41H47V42H46V43H47V44H48V43H49V42H48V41ZM59 40H58V41H59V40ZM59 40H60V39H59V40ZM40 33H42V34H40V33ZM48 38H46V39H48V38ZM52 40V41H50V40H52Z" fill="#F6EEBD"/>
<path fill-rule="evenodd" clip-rule="evenodd" d="M48 31H49V32H48V31ZM44 35H43V36H44V35ZM40 38H41V39H40V38ZM40 40H39V39H40V40ZM40 40H41V41H40V40ZM30 43H29V44H28H27V46H28V47H29V48H30V47H31V45H30V43ZM33 49H32V50H33V51H34V52H35V51H36V50H37V49H36V48H35H34H33V49ZM53 31H52V32H53V31ZM58 35H59V36H58V35ZM57 37H56V38H57V37ZM59 40H60V41H59V40ZM52 41H51V42H52V41ZM50 39H51V40H50V39ZM48 37H46V38H48V37ZM40 34H42V35H40V34ZM47 41H46V42H47V41ZM48 43H49V44H48V43ZM60 50H59V51H60V52H61H62V51H63V50H64V49H63V48H62H61V49H60V50Z" fill="#FFBD41"/>
<path fill-rule="evenodd" clip-rule="evenodd" d="M47 34H51V35H47V34ZM32 42H36V44H37V45H36V46H34V47H32H31V45H30V43H31H32V42ZM37 50V49H36V48H34V47H36V46H37H38V45H39V47H40V48H41V49H40H39V50H38H37ZM36 51V50H37V51H36ZM35 52V51H36V52H35ZM35 52V53H34V54H33V55H32V54H31V51H32V50H33V51H34V52H35ZM27 45H26V46H25V48H24V52H25V54H26V50H27V49H28V48H29V47H28V46H27V45ZM59 49H57V50H60V49H61V48H62V47H60V48H59V49ZM61 52H62V51H63V50H64V51H65V52H64V53H63V54H62V53H61V52ZM69 40H68V42H69V43H70V41H71V38H70V36H69V40Z" fill="#FF7300"/>
<path fill-rule="evenodd" clip-rule="evenodd" d="M39 33H40V35H41H42V36H41V37H40H39V36H38V34H39V33ZM42 35V34H43V35H42ZM57 33H54V34H53V35H54V36H57V35H58V34H57V33ZM43 36H44V37H43V36ZM52 39H51V40H52V39ZM50 41H51V42H50V41ZM59 39H58V40H59V39ZM59 34H60V35H59V34ZM48 38H49V41H48H46V42H45V41H44V38H45V37H46V39H48V38Z" fill="#CD734A"/>
<path fill-rule="evenodd" clip-rule="evenodd" d="M69 33H66V34H67V35H68V36V39H69V36H70V38H71V36H70V35H69V34V33ZM32 42H31V43H32V42ZM27 43H29V44H27V43ZM27 44V45H26V44H27ZM32 48H33V49H32V48ZM33 48V47H34V48H33ZM35 46H36V47H35V46ZM36 42H37V43H38V45H37V44H36V42ZM39 45H41V46H43V47H44V48H40V47H39V45ZM54 47H53V48H54H55V49H58H59V48H60V47H61V46H62V47H65V46H67V45H68V44H69V42H68V41H67V42H65V43H61V44H60V45H61V46H60H59V45H58V46H54V47ZM66 53H65V52H64V53H63V55H64V57H65V58H66V53Z" fill="#C57329"/>
<path fill-rule="evenodd" clip-rule="evenodd" d="M47 30H46V31H45V32H46H47V33H46V34H47V33H48H51V34H52V33H53V32H55V30H53V32H48V31H47V30ZM41 31H40V32H38V33H37V34H36V36H37V34H38V33H40V32H41V31ZM36 38H37V39H38V40H39H40V41H41V43H40H39H38V42H37V40H36V38ZM40 45V44H38V45H36V46H38V45H40ZM33 56V55H32V54H31V51H32V49H31V51H30V54H31V55V56H33ZM34 57H33V56H34V57ZM34 57H35V58H34V57ZM27 55H28V56H26V55H25V54H26V53H27V54V55ZM24 52H25V54H24V52ZM24 48V52H23V48H24ZM25 46V48H24V46H25ZM25 46V45H26V46H25ZM36 41H32V42H36V41ZM29 42H31V43H29V42ZM42 45H41V46H42V45ZM41 48H42V49H41V48ZM40 49H39V50H40V49ZM37 50H38V51H37V50ZM36 52V51H37V52H36ZM36 52V53H35V52H36ZM27 50H26V51H27V50ZM28 49V50H27V49H28ZM28 49V48H29V49H28ZM31 47H30V48H31V47ZM34 46H35V47H34V46ZM42 39H41V40H42V44H43V46H44V47H46V48H51V47H53V46H54V44H55V40H54V38H53V37H52V38H53V43H52V44H51H50V45H46V44H44V43H43V40H42V39ZM43 38H44V39H43V38ZM46 35H45V36H46V35ZM52 35H51V36H50V37H51V36H52V35ZM54 48H55V49H54V48ZM57 49H56V50H57V49ZM58 50H59V51H58V50ZM64 55H63V56H64V55ZM65 58H66V59H65V60H64V57H65V58ZM63 61V60H64V61H63ZM63 61V62H62V61H63ZM66 52H65V53H66V52ZM63 48H64V49H63V48ZM62 47H63V48H62V47ZM61 46H62V47H61V46ZM61 46H59V45H61V46ZM64 49H65V51H64V49ZM66 46H65V47H66V46ZM68 44H69V45H68V44ZM69 44V43H70V44H69ZM70 41H71V42H70V41ZM69 39H68V40H67V41H65V42H62V43H65V42H67V41H68V40H69V39ZM71 35H70V34H69V35H70V36H71V35ZM72 37H71V39H72V37ZM61 36H62V41H61V43H60V44H58H56V40H58V41H60V38H61V36Z" fill="#8B3918"/>
<path fill-rule="evenodd" clip-rule="evenodd" d="M51 28H48V29H47V30H48V29H51V28ZM53 29H54V30H53V29ZM55 31H58V32H55V31ZM55 32V33H54V32H55ZM60 33H58V32H60V33ZM61 34H60V33H61V34ZM62 36H61V34H62V36ZM62 36H63V38H62V36ZM45 32H46V33H45V32ZM45 32H41V31H45V32ZM35 36H36V37H35V36ZM39 43H41V44H39V43ZM42 40H41V43H42V40ZM43 38V40H42V38H43ZM44 37V38H43V37H44ZM46 36H44V37H46V36ZM51 36H46V35H51V36ZM51 36V37H52V36H51ZM43 44H42V45H43V44ZM50 33H48V34H50V33ZM54 39H55V40H54V39ZM55 44H54V45H55V44ZM51 47H52V48H51V47ZM58 44H56V45H58V44Z" fill="#5A2900"/>
<path fill-rule="evenodd" clip-rule="evenodd" d="M53 29H48V30H47V31H48H49V32H51V31H53V29ZM38 33H39V34H38V33ZM43 35V38H42V39H41V38H39V39V40H38V39H37V38H36V36H37V34H38V36H39V37H41V36H42V35H43ZM43 35V34H42V33H40V32H45V33H46V34V35H45V36H44V35H43ZM44 37H45V38H44V37ZM54 33H53V34H52V36H53V37H54V38H55V40H57H58V39H60V38H61V34H60V33H58V32H55V33H57V34H60V36H58V35H57V36H56H54V35H53V34H54V33ZM49 41H48V42H49V44H47V43H46V42H45V41H44V39H43V43H44V44H45H46V45H47H50V44H52V43H53V38H52V37H50V36H49H48H46V37H48V38H49V39V41ZM50 42V39H52V42H50ZM56 37V38H57V37H56Z" fill="#AC5239"/>
<path fill-rule="evenodd" clip-rule="evenodd" d="M42 50H44V51H42V50ZM42 52V51H40V52H39V53H38V54V55V59H39V60H40V61H41H42V62H47H49V60V59H48V60H47V59H41V58H40V55H41V54H42H53V55H56V56H54V60H53V59H52H51V62H52V61H53H54V60H56V56H57V52H56V51H55V50H52V51H53V52H51V51H44V52H42ZM53 52V53H56V52H53ZM42 52V53H40V52H42ZM34 60H35V62H34V63H32V61H34V60ZM38 69H37V70H38V71H40H41V70H43V69H41V68H40V69H38ZM56 69V70H54V71H58V72H60V71H61V70H58V69H56Z" fill="#7B83A4"/>
<path fill-rule="evenodd" clip-rule="evenodd" d="M39 50H40V51H39V50ZM39 51V52H38V51H39ZM37 53H38V58V59H36V58H37V53ZM34 60V59H36V60H34ZM32 61V60H34V61H32ZM32 63H31V61H32V63ZM32 63H34V64H32V63ZM38 60H39V61H38V60ZM43 64H42V65H43V66H44V65H43V64ZM43 67H40V68H37V69H36V70H37V69H40V68H43V67ZM42 70H43V71H42V70ZM45 69H44V70H45V69ZM45 50H44V51H45V50ZM50 50H51V51H50V50ZM56 52H55V53H56V52ZM56 55V56H54V55H56ZM53 57V56H54V57H53ZM52 58H53V57H52V56H49V57H52V58ZM52 58V59H51V58H52ZM57 58H56V56H57V58ZM57 58H58V60H57V58ZM49 58H48V59H49V58ZM42 58H47V59H42V58ZM42 57V58H41V57H42ZM41 57H40V56H41V57ZM54 59H53V60H54V61H55V60H54V59ZM61 55H60V58H61V55ZM59 52H60V54H59V52ZM59 52H58V51H59V52ZM59 60H60V61H59V60ZM56 64H55V65H56V64ZM55 68H58V69H55V68ZM61 70H58V69H61V70ZM61 70H62V71H61V70ZM57 71H56V72H57V71Z" fill="#10314A"/>
<path fill-rule="evenodd" clip-rule="evenodd" d="M44 48H45H46V49H50H51V48H53V49H55V50H52V51H51V50H50V51H46H45V50H44H42V51H40V50H41V49H44V48ZM39 52V51H40V52H39ZM39 52V53H38V52H39ZM57 51V50H55V51H56V52H57V58H56V60H55V61H52V62H50V63H49V62H45H44H43H42V61H41H40V60H39V59H38V60H37V59H36V60H35V62H34V63H35H36V62H37V61H38V60H39V62H40V63H41V64H43V65H44V67H43V68H41V69H43V70H44V69H46V67H45V65H49H52V66H53V68H52V69V70H56V69H55V68H54V65H55V64H57V63H58V62H59V61V60H60V54H59V52H58V51H57ZM57 58H58V60H57V58ZM40 55H41V54H53V55H54V56H53H52V55H42V56H41H40V55ZM41 57H40V58H41V59H42V58H41V57ZM38 70H37V71H38V70ZM42 70H41V71H42V70ZM53 58H52V59H53V58ZM58 71H57V72H58V71ZM60 71H61V72H60V71Z" fill="#4A6A7B"/>
<path fill-rule="evenodd" clip-rule="evenodd" d="M51 28H53V29H51V28ZM36 37H35V40H36V42H37V43H38V44H39V43H38V42H37V40H36V37ZM71 39H72V41H71V39ZM42 43H41V44H40V45H41H42V46H43V47H44V48H42V49H44V48H46V49H51V48H46V47H44V46H43V45H42V43ZM26 51H27V53H26V51ZM34 54H33V56H32V57H33V58H34V57H33V56H34V54ZM34 54V53H35V54H34ZM39 62V61H37V62H36V63H34V64H36V63H37V62H39ZM40 63V62H39V63H40ZM41 64V63H40V64H41ZM41 64V65H42V64H41ZM45 65H46H52V66H46V67H45V65ZM46 69V67H47V69H46ZM46 69V70H45V69H46ZM52 68V66H53V68H52ZM52 70H51V68H52V70ZM54 71H52V70H54V71ZM54 71H56V72H54V71ZM37 71H42V72H37V71ZM37 71H36V70H37V71ZM55 65H54V68H55V65ZM57 73V72H61V73H57ZM61 72V71H62V72H61ZM62 41H61V43H60V44H58V45H56V40H55V45H54V46H53V47H52V48H53V49H54V48H53V47H54V46H58V45H60V44H61V43H62V41ZM62 41H63V38H62V41ZM61 58H60V60H61V58ZM53 57H54V59H53V57ZM42 51V52H40V53H42V52H44V51H42ZM53 52V51H51V52H53ZM53 52V53H55V52H53ZM63 47H65V48H63V47ZM49 56H42V57H49V56ZM66 53H67V58H66V53ZM47 29H46V30H45V31H46V30H47V29ZM47 32H46V33H47V34H46V35H47V34H48V33H47V32ZM54 29H55V30H54V29ZM55 30H56V31H55V30ZM53 32H54V33H53V32ZM52 34V33H53V34H52ZM51 34H52V35H51V34ZM51 34H50V33H51V34ZM52 36H53V37H52V36ZM53 38V37H54V38H53ZM54 39V38H55V39H54ZM70 42H71V43H70V42ZM68 45H67V46H66V47H67V46H68V45ZM66 51H65V52H66V51ZM56 49H55V50H56V49ZM57 51H58V50H57V51ZM60 52H59V51H60V52ZM60 53V52H61V53H60ZM62 54V53H61V54H60V55H61V54H62ZM62 54H63V55H62V54ZM63 57H64V56H63V57ZM66 60H65V59H66V60ZM64 61H65V60H64V61ZM64 61H63V62H64V61ZM59 62H60V61H59V62ZM58 63V62H59V63H58ZM57 64H58V63H57V64ZM57 64H56V65H57V64ZM43 71H44V70H43V71ZM43 67H44V66H43V67ZM38 60H37V59H38V60ZM28 56H29V55H28V54H27V55H28V56ZM29 49H30V48H29V49ZM38 51H39V50H38V51ZM41 50H40V49H41V50ZM33 48H31V47H33V48Z" fill="#101010"/>
<path fill-rule="evenodd" clip-rule="evenodd" d="M42 55H52V56H42V55ZM42 57H41V56H42V57ZM42 57V58H47V57H42ZM52 57V56H53V57H52ZM52 57V58H51V57H52Z" fill="#B45AC5"/>
</svg>
