<svg width="100" height="100" viewBox="0 0 100 100" fill="none" xmlns="http://www.w3.org/2000/svg">
<path fill-rule="evenodd" clip-rule="evenodd" d="M42 34H43V35H42V34ZM39 37H40V38H39V37ZM46 38H45V39H46V38Z" fill="#8B0000"/>
<rect x="42" y="35" width="1" height="1" fill="#F66A6A"/>
<path fill-rule="evenodd" clip-rule="evenodd" d="M41 33H43V34H41V33ZM41 35H40V34H41V35ZM41 35H42V36H41V35ZM39 36H40V37H39V36ZM46 37H45V38H46V37Z" fill="#DE1818"/>
<path fill-rule="evenodd" clip-rule="evenodd" d="M42 34H41V35H42V34ZM39 36H38V37H39V36ZM45 36H46V37H45V36ZM46 37H47V36H48V37V38H46V37ZM20 47H18V48V49H19V48H20V47ZM27 51H26V53H27V51ZM56 77H57V79H56V77ZM65 77H64V79H65V77ZM66 75H67V76H66V75ZM55 52H54V54H55V52ZM60 56H61V59H60V56ZM69 57H68V59H69V57Z" fill="white"/>
<path fill-rule="evenodd" clip-rule="evenodd" d="M56 52H55V53H56V52ZM61 57H62V58H61V57ZM63 77H64V78H63V77ZM46 68H47V69H46V68ZM37 75H36V76H37V75ZM32 74H34V75H32V74ZM68 57H67V58H68V57Z" fill="#D9D9D9"/>
<path fill-rule="evenodd" clip-rule="evenodd" d="M42 37H40V38H39V39H38V40H36V41H35V42H34V45H35V42H36V41H38V40H39V39H40V38H42V39H43V40H44V41H47V42H48V41H47V40H44V39H43V38H42V37ZM20 48H21V49H20V48ZM22 50H21V49H22V50ZM24 51H22V50H24V51ZM24 51H25V52H24V51ZM32 72H31V73H32V72ZM34 75V74H36V75H34ZM59 78H58V79H59V78ZM61 78H59V77H61V78ZM61 78V79H63V78H61ZM66 56H67V57H66V56ZM59 51H58V52H57V53H58V52H59V51ZM40 40H41V41H40V40Z" fill="#736A10"/>
<path fill-rule="evenodd" clip-rule="evenodd" d="M41 39H42V40H41V39ZM42 43H43V44H42V43ZM45 42H44V43H45V42ZM46 41H47V42H46V41ZM37 44H36V45H37V44Z" fill="#A4A439"/>
<path fill-rule="evenodd" clip-rule="evenodd" d="M43 39H42V40H41V41H42V42H40V43H36V44H35V45H36V44H42V43H44V42H46V41H44V40H43V39ZM24 47H22V48H24V49H25V48H24V47ZM60 52H61V53H60V52ZM66 54H64V55H66V54ZM64 74H65V75H64V74ZM62 76H61V75H59V76H61V77H62V76ZM34 72H32V73H34V74H38V73H40V72H37V73H34V72Z" fill="#D5D56A"/>
<path fill-rule="evenodd" clip-rule="evenodd" d="M42 38H40V39H39V40H38V41H36V42H35V44H36V43H40V42H42V41H40V40H41V39H42V38ZM24 48H21V49H22V50H24V51H25V50V49H24V48ZM59 52H60V54H59V55H58V54H57V53H58V52H59ZM64 55H66V57H64V58H63V55H64ZM61 76H58V77V78H59V77H61V78H62V77H61V76Z" fill="#FFFFA4"/>
<path fill-rule="evenodd" clip-rule="evenodd" d="M49 22H48V27H49V22ZM41 23H40V24H41V26H42V27H43V28H44V27H43V26H42V24H41V23ZM37 32H38V34H39V35H38V40H37V32ZM45 42H47V43H45V42ZM43 44V43H45V44H43ZM37 45V44H43V45H37ZM37 45V46H34V45H37ZM22 46H24V47H22V46ZM20 48V47H22V48H20ZM19 49V48H20V49H19ZM19 49V50H17V49H19ZM24 47H25V48H24V47ZM20 51H19V52H20V51ZM26 53H27V54H26V53ZM28 51H27V53H28V51ZM28 51H29V48H28V51ZM55 23H56V26H55V23ZM54 29V26H55V29H54ZM54 29V30H53V29H54ZM49 35V34H47V35H45V36H47V35H49ZM51 40H50V41H51V40ZM52 39V40H51V39H52ZM53 37H52V39H53V37ZM54 36H53V37H54V36ZM55 35H54V36H55V35ZM56 34V35H55V34H56ZM57 33H56V34H57V33ZM58 32V33H57V32H58ZM59 31H58V32H59V31ZM59 31H60V30H59V31ZM63 48H58V49H57V50H55V51H54V52H53V54H54V55H55V54H57V55H58V56H59V55H58V54H57V53H55V54H54V52H55V51H57V50H58V49H63V48ZM69 57H70V59H69V57ZM68 59H69V60H68V59ZM67 58H68V59H67V58ZM64 58V57H67V58H64ZM61 59V58H64V59H61ZM61 62H60V60H59V59H58V58H60V59H61V60V62ZM62 65H61V62H62V65ZM63 68H62V65H63V68ZM64 71H63V68H64V71ZM65 72H64V71H65V72ZM66 73H65V72H66V73ZM67 74V73H66V74H67ZM67 76V74H68V76H67ZM66 77V76H67V77H66ZM65 79V77H66V79H65ZM64 79H65V80H64V79ZM63 78H64V79H63V78ZM63 78H62V77H63V78ZM56 79H57V80H56V79ZM56 79H55V75H56V79ZM57 79V77H58V79H57ZM56 67H55V66H53V65H52V63H51V65H47V64H45V63H44V64H45V65H47V66H53V67H55V68H56V70H57V72H58V70H57V68H56V67ZM44 71H43V72H42V74H40V75H37V74H36V75H32V74H31V75H32V76H35V77H37V76H40V75H42V74H43V72H44V71ZM46 70H44V71H46V70ZM46 70V69H47V68H48V69V70H46ZM37 76H36V75H37V76ZM44 66H45V68H44V67H43V65H44V66Z" fill="#101010"/>
<path fill-rule="evenodd" clip-rule="evenodd" d="M48 21H47V22H46V24H45V26H44V28H45V26H46V24H47V22H48V21ZM56 22H54V23H53V24H52V25H51V26H50V27H48V28H47V29H48V28H50V27H51V26H52V25H53V24H54V23H56V22ZM60 29H56V30H53V31H56V30H60V29ZM75 35H74V36H73V38H72V41H71V43H69V42H65V43H69V44H70V47H69V49H68V50H67V52H68V54H69V57H70V56H71V54H72V52H73V50H74V48H75V45H76V36H75V35ZM75 36V45H74V48H73V50H72V52H71V54H70H69V52H68V50H69V49H70V47H71V44V43H72V41H73V38H74V36H75ZM58 46H63V47H58V46ZM56 48V47H58V48H56ZM56 48V49H55V48H56ZM63 47H64V48H63V47ZM61 52V51H59V52H61ZM61 53H62V52H61V53ZM60 54H61V53H60V54ZM60 54H59V58H60V54ZM64 54V53H66V54H64ZM63 55V54H64V55H63ZM63 55V58H62V55H63ZM67 56H66V54H67V56ZM67 56H68V57H67V56ZM53 58H54V59H53V58ZM53 59V61H52V59H53ZM43 62H42V63H43V64H44V65H45V64H44V63H43V62ZM36 66H37V67H36V66ZM38 69H37V67H38V69ZM38 70V69H39V70H38ZM36 71V70H38V71H36ZM36 71V72H32V71H36ZM31 73H32V74H31V73ZM48 68V67H46H45V69H46V68H48ZM51 62H52V63H51V62ZM58 67H57V68H58V69H59V68H58V67ZM61 66H60V67H61V66ZM56 71H57V73H56V71ZM56 73V75H55V73H56ZM65 75H66V77H65V75ZM61 59H62V61H64V62H62H61V59ZM66 61H64V60H66V61ZM66 60V59H67V60H66ZM58 42H61V43H58V42ZM58 41V42H53V41H58ZM53 41H52V40H53V41ZM52 44H51V46H52V44ZM52 44H53V43H52V44ZM50 40H49V41H50V40ZM40 45H41V46H40V45ZM42 48V47H41V46H42V45H43V48H42ZM42 48V50H41V48H42ZM40 53H41V58H40V53ZM19 50H18V51H19V50ZM17 47H18V49H17V47ZM26 48H25V53H26V48ZM22 43H23V44H22V43ZM27 42V43H23V42H27ZM29 41V42H27V41H29ZM30 40H29V41H30V40ZM31 39V40H30V39H31ZM31 39H34V40H37V39H34V38H31V39ZM34 42H33V43H31V44H30V45H29V47H28V48H29V47H30V45H31V44H33V43H34V42ZM38 37H39V38H38V37ZM40 35H39V36H40V35ZM43 37H44V38H43V37ZM44 38H45V39H44V38ZM44 37V36H45V37H44ZM47 38H46V39H47V38ZM48 35H49V37H48V35ZM39 24H40V27H39V24ZM39 27H38V32H39V27Z" fill="#31526A"/>
<path fill-rule="evenodd" clip-rule="evenodd" d="M45 28H42V29H40V30H39V32H38V34H41V33H43V34H44V33H45V32H46V30V29H45V28ZM56 43H54V44H53V45H54V46H56V45H57V44H56V43ZM42 50H43V51H44V54H42V51V50ZM54 58H55H56V59H57V60H58V62H59V64H60V65H59H58V66H57H56V65H55V64H54V63H53V59H54V58ZM39 59V60H38V61H37V63H36V66H37V65H40V64H42V61H41V59H39ZM28 46H27V47H26V51H28V47V46ZM20 46H19V47H22V46H23V45V44H22V45H20V46Z" fill="#A4C5FF"/>
<path fill-rule="evenodd" clip-rule="evenodd" d="M41 24H40V27H39V30H40V29H41H42V28H43V27H42V26H41V24ZM57 30H58H59V31H58V32H57V33H56V34H55V35H54V36H53V37H52V39H51V40H49V41H51V40H52V41H53V42H54V43H53H52V44H51V46H52V47H53V48H54V49H55H56V48H58V49H57V50H55V51H52V50H50V49H48V48H46V47H44V46H43V44H45V43H47V42H48V41H47V40H44V39H47V38H48V37H49V36H50V35H51H52V34H53V33H54H55V32H56V31H57V30ZM43 38H44V39H43V38ZM43 38H42V37H43V38ZM55 51H57V50H59V51H58V52H57V53H56V52H55V51ZM38 38H39V39H38V38ZM31 39H33H34V40H35H36V41H35V42H34H33V41H31V39ZM22 44H20V45H19V46H18V47H19V46H20V45H22V44ZM21 49H20V51H21V49ZM42 45H41V46H42V45ZM42 50H41V53H42V50ZM35 63H36V66H35V63ZM37 61H36V63H37V61ZM38 60V61H37V60H38ZM39 59H38V60H39V59ZM39 59V58H41V57H42V58H47V57H50V56H52V55H53V54H54V55H55V54H57V55H58V56H59V58H58V59H57V58H54H53V59H52V62H51V63V64V65H47V64H45V63H43V62H42V61H41V59H39ZM34 73V74H32V73H34ZM34 73V72H35V73H34ZM36 71H37V72H36V71ZM38 74H37V75H38V74ZM40 73V74H38V73H40ZM40 73V72V71H39H38V70H39V69H38V67H37V65H38V66H41V65H43V66V67H44V68H45V69H46V70H45H44V71H43V72H41V73H40ZM56 76V77H58V76H59V75H61V76H62V77H65V76V75H67V74H65V73H64V74H63V75H64V76H62V75H61V74H59V75H58V76H56ZM64 75V74H65V75H64ZM56 73H57V74H56V73ZM57 68H56V66H57H58V65H60V64H61V65H62V67V68H63V71H64V72H63H59V73H57V72H58V70H57V68ZM58 68V67H57V68H58ZM58 68V69H59V68H58ZM61 67H60V66H61V67ZM66 58H67V59H66V60H64V61H62V59H64V58H66ZM60 55H62V56V57H61V56H60V55ZM62 55H63V54H62V55ZM69 57V56V54H71V52H72V50H73V48H74V47H73V48H71V47H70V49H69V50H68V52H69V54H67V56H68V57H69ZM66 44H65V45H64V47H65V45H66V44ZM65 42H61V43H65V42ZM61 51H62V52H61V51ZM57 46H58V47H57V46Z" fill="#7B7BB4"/>
<path fill-rule="evenodd" clip-rule="evenodd" d="M48 22H47V24H46V26H45V29H46V32H45V33H44V34H43V36H41V35H40V34H39V35H40V37H41H44V36H45V35H47V34H49V35V36H50V35H52V34H53V33H55V32H56V31H57V30H56V31H55H53V29H54V27V26H55V23H54V24H53V25H52V26H51V27H50V28H48V24V22ZM48 28V29H47V28H48ZM31 41H33V43H31V44H30V45H29V46V47H28V46H27V47H26V48H25V47H24V46H23V43H27V42H29V41H30V40H31V41ZM46 48H47H48V49H50V50H52V51H53H54V52H53V55H52V56H50V57H47V58H42V57H41V53H42V54H44V51H43V50H42V48H43V46H44V47H46V48ZM57 58H56V59H57V60H58V62H59V64H61V62H60V60H59V59H57V58ZM52 61H53V63H54V64H55V65H56V67H55V66H54H53V65H52V61ZM43 63H42V64H40V65H38V66H41V65H44V64H43V63ZM40 71H37V72H35V73H37V72H40V71ZM40 74V75H38V74H40ZM40 74V73H41V72H42V73V74H40ZM57 74H56V76H57H58V75H59V74H61V75H62V76H64V75H63V74H64V73H65V74H66V73H65V72H64H59V73H58H57V74ZM58 43H64H66H69V44H70V47H69V49H68V50H67V52H68V54H66V53H64V54H62V55H60V54H61V53H62V51H59V50H58V49H59H63V48H64V47H65V45H66V44H65V45H64V46V47H63V46H57V47H56V48H55V49H54V48H53V47H52V44H53V45H54V46H56V45H57V44H56V43H54V42H58V43ZM54 43V44H53V43H54ZM72 43H71V48H73V47H74V45H75V38V36H74V38H73V41H72V43Z" fill="#8BACD5"/>
<path fill-rule="evenodd" clip-rule="evenodd" d="M39 35H38V36H39V35ZM45 37H44V38H45V37ZM46 36H47V37H46V36ZM47 36V35H48V36H47Z" fill="#D5D5D5"/>
</svg>
