<svg width="100" height="100" viewBox="0 0 100 100" fill="none" xmlns="http://www.w3.org/2000/svg">
<path fill-rule="evenodd" clip-rule="evenodd" d="M30 54H25V55H30V56H31V58H30V59H26V60H30V59H31V58H32V56H31V55H30V54ZM29 57H28V58H29V57Z" fill="#AC5273"/>
<path fill-rule="evenodd" clip-rule="evenodd" d="M26 55H25V57H26V58V59H30V58H31V56H30V55H29H26ZM27 58V57H26V56H29V57H30V58H27Z" fill="#F6838B"/>
<rect x="34" y="52" width="1" height="2" fill="#41ACA4"/>
<path fill-rule="evenodd" clip-rule="evenodd" d="M36 51H37V52H36V51ZM37 54H38V52H37V54ZM37 54V55H35V54H37Z" fill="#006A62"/>
<path fill-rule="evenodd" clip-rule="evenodd" d="M53 42H54V44H53V42ZM53 44V49H52V44H53ZM38 48H37V49H38V50H39V52H40V50H39V49H38V48ZM26 49H25V50H24V51H23V52H24V51H25V50H26V49ZM26 56H29V57H26V56ZM29 57H30V58H29V57ZM33 52H34V53H33V52ZM34 52V51H36V52H34ZM51 51H50V52H51V51ZM51 51H52V50H51V51ZM54 54H53V55H54V54ZM55 53V54H54V53H55ZM57 52H55V53H57V52ZM59 51V52H57V51H59ZM59 51V50H62V51H59Z" fill="#AC1000"/>
<path fill-rule="evenodd" clip-rule="evenodd" d="M58 34H59V35H58V34ZM60 35H59V36H58V37H59V36H60V35ZM60 35V34H61V35H60ZM49 38H50V39H49V38ZM50 39H51V40H50V39ZM48 46H47V47H48V46ZM43 56H42V57H41V58H42V57H43V56ZM40 58H38V59H40V58ZM19 59H23V60H19V59ZM24 61H25V62H24V61ZM52 59H53V60H52V59ZM52 62H51V60H52V62ZM53 64H52V62H53V64ZM53 64H54V65H53V64ZM54 61H53V60H54V61ZM56 61V62H54V61H56ZM56 60H57V61H56V60ZM55 59H56V60H55V59ZM55 59H54V58H55V59ZM52 57H51V56H50V57H51V58H52V57ZM62 36H63V37H62V36ZM62 37V39H61V37H62ZM60 40H61V41H60V40ZM59 41H58V42H59V41ZM69 44H71V45H69V44ZM71 44V43H72V44H71ZM70 46H71V47H70V46ZM71 47H74V48H71V47ZM74 49H75V50H74V49ZM73 50H72V51H73V50ZM69 51H70V52H69V51ZM75 54H74V55H75V54ZM75 52H76V53H75V52ZM77 50H76V51H77V50Z" fill="#EEEEEE"/>
<path fill-rule="evenodd" clip-rule="evenodd" d="M59 34H60V35H59V34ZM59 35V36H58V35H59ZM64 36H63V37H62V40H61V41H60H59V42H57V45H56V47H58V48H60V49H62V48H63V46H64V44H61V43H62V40H63V39H64V36ZM60 45V44H61V45H60ZM60 45V46V47H59V45H60ZM71 44H72V46H73V47H71V46H69V45H71V44ZM75 49H76V50V51V52H75V53V54H74V55H73V54H71V55H70V56H69V57H64V56H63H62V55H63V54H66V53H68V52H70V51H73V50H75V49ZM24 52H25V55H24V52ZM22 57H25V58H24V59H20V58H22V57ZM24 59H26V60H28V61H27V63H25V61H24V59ZM42 57V58H40V59H30V60H29V61H30V62H31V63H33V64H35V65H41V64H43V63H45V62H46V61V60H45V59V58H44V57H42ZM53 56H51V57H52V58H55V59H56V60H57V61H56V62H54V61H53V60H52V59H51V58H50V59H51V60H52V62H53V64H54V66H57V65H58V62H59V60H58V59H57V58H55V57H53V56ZM50 40H51V41H50V43H49V45H48V43H47V40H48V38H49V39H50V40ZM48 46H49H50V48H51V50H50V51H49V49H48V46ZM49 54V53H47V54H49ZM42 39H43V40H38V41H37V42H36V43H34V42H35V41V40V39H36V38H38V37H41V38H42V39ZM34 43V44H33V43H34ZM39 52V51H37V52H39ZM39 54H40V55H39V54ZM39 55V56H38V55H39Z" fill="#D5D5DE"/>
<path fill-rule="evenodd" clip-rule="evenodd" d="M52 33H49V34H48V38H47V40H46V41H47V40H48V38H49V34H52V33ZM38 36H41V37H38V36ZM36 38V37H38V38H36ZM35 39V38H36V39H35ZM34 42V39H35V42H34ZM34 42V43H33V42H34ZM42 38H41V37H42V38ZM43 39H42V38H43V39ZM43 39H45V40H43V39ZM29 47H28V48H27V49H28V48H29V47ZM26 51H25V52H26V51ZM24 58H25V59H24V58ZM24 59V62H23V59H24ZM18 59H19V60H18V59ZM18 60V62H17V60H18ZM36 42H37V43H36V42ZM37 42V41H38V42H37ZM59 45H60V47H59V45ZM61 44H60V45H61V44ZM64 44H61V43H64V44ZM65 44V45H64V44H65ZM66 43V44H65V43H66ZM66 43V42H68V43H66ZM49 58H50V59H49V58ZM50 59H51V60H50V59ZM34 54H35V55H34V54ZM38 55V56H35V55H38ZM39 54H38V55H39V54ZM39 54V52H40V54H39Z" fill="#8B8B94"/>
<path fill-rule="evenodd" clip-rule="evenodd" d="M57 29H54V30H53V31H52V33H53V31H54V30H57V31H58V33H59V34H62V35H63V36H64V39H63V40H62V43H63V40H64V39H65V36H64V35H63V34H62V33H59V31H58V30H57V29ZM25 38H26V40H25V38ZM27 43H26V40H27V43ZM28 45H27V43H28V45ZM28 45H29V47H28V45ZM26 49H27V50H26V49ZM26 50V51H25V50H26ZM22 56H24V57H22V56ZM20 58V57H22V58H20ZM20 58V59H19V58H20ZM27 61H28V63H27V61ZM25 64V63H27V64H25ZM23 64H25V65H23V64ZM22 63H23V64H22V63ZM20 63V62H22V63H20ZM18 63H20V64H18V63ZM18 63H17V62H18V63ZM40 40H38V41H40V42H42V41H43V40H42V41H40V40ZM34 43H41V44H34V43ZM44 45H41V44H44V45ZM46 46H44V45H46V46ZM47 47H46V46H47V47ZM48 49H47V47H48V49ZM49 51H48V49H49V51ZM49 51H50V53H49V51ZM46 53H45V54H46V53ZM43 56H44V57H43V56ZM45 58H44V57H45V58ZM46 60H45V58H46V60ZM47 62H46V60H47V62ZM48 64H47V62H48V64ZM48 64H49V67H48V64ZM80 52H81V53H80V52ZM79 51H80V52H79V51ZM77 50H79V51H77V50ZM76 48H77V50H76V48ZM75 47H76V48H75V47ZM73 46H75V47H73V46ZM72 43H73V46H72V43ZM70 42H72V43H70V42ZM70 42H68V41H70V42Z" fill="#52525A"/>
<path fill-rule="evenodd" clip-rule="evenodd" d="M29 40H28V41H27V43H28V45H29V47H30H31H32V46H33V44H32V43H31V42H30V41H29V40ZM40 40H42V41H40V40ZM51 55H50V56H49V57H50V56H51V55ZM66 53H63V54H61V55H63V54H66V53ZM68 52H67V53H68V52ZM62 48H63V49H62V48ZM60 49H62V50H60V49ZM60 49H59V48H60V49ZM58 48V47H56V45H57V42H56V45H55V47H56V48H58ZM50 41H51V43H50V41ZM50 43V45H49V43H50Z" fill="#CDB47B"/>
<path fill-rule="evenodd" clip-rule="evenodd" d="M53 36H55V37H53V36ZM56 39H55V37H56V39ZM57 40H56V39H57V40ZM57 40H58V42H57V40ZM53 38H52V39H51V41H52V39H53V38ZM35 44H36V46H35V44ZM34 47V46H35V47H34ZM32 48V47H34V48H32ZM30 49V48H32V49H30ZM30 49V50H28V49H30ZM24 51H25V52H24V51ZM38 44H37V46H38V47H39V48H41V49H43V50H46V49H47V47H46V49H43V48H41V47H39V46H38V44ZM37 50V49H35V50H34V51H36V50H37ZM43 53H42V55H43V54H45V53H43ZM48 57H45V58H48V57ZM63 48H66V47H67V49H66H63V48ZM69 49H67V50H68V52H69V50V49ZM69 47H70V49H69V47ZM69 47V46H67V47H69Z" fill="#FFC57B"/>
<path fill-rule="evenodd" clip-rule="evenodd" d="M53 37H55V39H56V40H57V42H54V40H53V42H52V39H53V37ZM35 44H34V45H33V46H32V47H29V48H28V49H30V48H32V47H34V46H35V45V44ZM37 49H38V50H39V51H36V50H37V49ZM38 44H41V45H44V46H46V49H44H43V48H41V47H39V46H38V44ZM49 56H48V55H47V54H44H43V56H44V57H47V56H48V57H49V56ZM67 49H64H63V50H64V51H65V52H67H68V50H67V49ZM67 49V47H69V49H67Z" fill="#EE7B41"/>
<path fill-rule="evenodd" clip-rule="evenodd" d="M54 40H53V42H52V41H51V43H50V46H51V48H52V44H53V45V49H52V51H51V52H50V54H51V55H53V56H56V55H58V54H63V53H67V52H65V51H64V50H63V49H62V50V51H59V50H60V49H59V48H56V47H55V45H56V42H54V40ZM57 52V51H59V52H57ZM55 53V52H57V53H55ZM54 54V53H55V54H54ZM54 54H53V55H54V54ZM54 42V44H53V42H54ZM37 48H35V49H34V50H33V52H34V50H35V49H37V48ZM49 57H48V56H50V55H48V56H47V57H48V58H49V57Z" fill="#D54110"/>
<path fill-rule="evenodd" clip-rule="evenodd" d="M27 37H25V38H27V39H28V40H29V41H30V42H31V43H32V44H33V45H34V44H33V43H32V42H31V41H30V40H29V39H28V38H27V37ZM23 52H24V55H23V52ZM25 57H24V55H25V57ZM25 57H26V59H25V57ZM28 57H27V58H28V57ZM28 60H29V61H28V60ZM30 62H29V61H30V62ZM31 63H30V62H31V63ZM33 64H31V63H33V64ZM35 65H33V64H35V65ZM41 65V66H35V65H41ZM43 64V65H41V64H43ZM45 63V64H43V63H45ZM45 63V62H46V63H45ZM37 52H35V53H36V54H37V53V52ZM50 67H49V68H50V67ZM52 66V67H50V66H52ZM54 66V65H52V66H54ZM57 66H54V67H57V66ZM58 65H57V66H58V65ZM59 62V65H58V62H59ZM59 60V62H60V60H59ZM58 59H59V60H58V59ZM57 58V59H58V58H57ZM53 56V57H55V58H57V57H56V56H58V55H61V56H62V57H64V58H69V57H70V56H71V55H73V56H76V55H78V54H80V53H78V54H76V55H73V54H71V55H70V56H69V57H64V56H62V55H61V54H58V55H56V56H53ZM51 55V54H50V53H49V54H47V53H46V54H47V55H51ZM51 55V56H53V55H51ZM43 40H46V41H43V40ZM47 43H46V41H47V43ZM48 45H47V43H48V45ZM48 45V46H50V48H51V50H50V51H51V50H52V48H51V46H50V45H48Z" fill="#101010"/>
<path fill-rule="evenodd" clip-rule="evenodd" d="M57 30H54V31H53V33H52V34H49V38H50V39H52V38H53V36H55V37H56V39H57V40H58V41H60V40H62V39H61V37H62V36H63V35H62V34H61V35H60V36H59V37H58V36V34H59V33H58V31H57V30ZM27 38H26V40H27V41H28V39H27V38ZM36 44H37V46H38V47H39V48H41V49H42H43V50H46V49H48V50V51H49V53H48H42V55H43V56H42V57H41V58H38V59H32H31V58H32V56H31V55H30V54H26H25V52H26V50H27V49H28V50H30V49H32V48H34V47H35V46H36V44ZM34 49V50H33V53H34V54V55H35V56H38H39V55H40V50H39V49H38V48H35V49H34ZM20 60H18V63H20V62H22V63H23V64H25V62H23V60H20ZM36 53H35V54H36V53ZM37 54H38V55H37V54ZM38 54V52H39V54H38ZM38 42H37V43H38H40H41V44H42H44V45H46V46H48V45H47V43H46V41H42V42H40V41H38V42ZM79 51H76V53H75V55H76V54H78V53H79H80V52H79V51ZM76 48H75V47H74V48H72H71V47H70V46H69V44H70H71V43H70V42H68V43H66V44H65V45H64V46H63V48H66V47H67V46H69V47H70V48V49H69V51H70H72V50H74V49H75H76V48ZM51 58V57H49V58H46V60H47V62H48V64H49V66V67H50V66H52V65H53V64H52V62H51V60H50V59H49V58H51ZM51 58V59H53V60H54V61H56V60H55V59H54V58H51Z" fill="white"/>
</svg>
