<svg width="100" height="100" viewBox="0 0 100 100" fill="none" xmlns="http://www.w3.org/2000/svg">
<path fill-rule="evenodd" clip-rule="evenodd" d="M40 42H38V43H40V42ZM51 43H49V44H51V43ZM52 44H53V45H52V44ZM41 47H40V48H41V47ZM47 47H48V48H47V47ZM52 49V48H50V49H52Z" fill="#DED5DE"/>
<path fill-rule="evenodd" clip-rule="evenodd" d="M41 43H39V44H41V43ZM48 44H47V45H48V44ZM49 44H51V43H53V44H52V45H49V44ZM41 47H42H43V49H42V48H41V47ZM44 47H46V49V50H45V49H44V47ZM49 49V50H47V48H49H50V49H49Z" fill="white"/>
<path fill-rule="evenodd" clip-rule="evenodd" d="M48 47H49V48H48V47ZM42 48H41V49H42V48ZM44 48H43V49H44V50H45V49H44V48ZM47 48H46V50H47V48ZM50 49H49V50H50V49Z" fill="#837B83"/>
<path fill-rule="evenodd" clip-rule="evenodd" d="M52 32H51V33H49V34H48V35V36H49V35H50V34H51V33H52V32ZM42 34H41V33H40V34V35H42V36H43V35H42V34ZM36 35H38V36H39V37H37V36H36V35ZM39 37H40V38H39V37ZM35 39H36V40H35V39ZM36 40H37V41H36V40ZM33 45H35V46H33V45ZM42 41V40H40V41H41V42H43V41H42ZM53 36H55V37H54V38H52V37H53V36ZM55 36H56V35H55V36ZM56 39H58V40H57V41H55V40H56V39ZM46 42H47V41H48V40H51V41H50V42H48V43H46V42ZM44 37H43V38H44V37ZM58 45H57V46H58V45Z" fill="#D5D5AC"/>
<path fill-rule="evenodd" clip-rule="evenodd" d="M43 30H41V31H43V30ZM43 32H42V33H43V34H44V33H43V32ZM38 33H39V34H38V33ZM35 37H34V38H33V39H34V38H35V37ZM37 38H38V39H37V38ZM16 40H17V41H16V40ZM17 42H18V43H17V42ZM21 40H20V41H19V43H21V41V40ZM24 41H23V40H22V43H23V42H24V43H25V42H24V41ZM20 47H23V48H20V47ZM23 46V47H24H25V48H26V49H27V48H28V46H29V45H30V44H31V42H30V44H29V45H28V46H26V45H24V46H23ZM23 46H22V45H23V46ZM21 50H22V51H21V50ZM23 51V52H22V51H23ZM23 51V50H25V51H26V53H24V51H23ZM29 50H30V52H29V50ZM30 53H29V54H30V53ZM31 47H32V49H31V47ZM34 46H33V47H34V48H35V47H34V46ZM33 54H32V55H33V57H34V55H33V54ZM35 57H36V58H35V57ZM35 59H34V60H35V59ZM41 51H42V52H41V51ZM45 50H44V51H45V50ZM47 46H48V47H47V46ZM54 44H53V45H54V44ZM54 42H55V43H54V42ZM50 42H49V43H50V42ZM47 40H48V41H47V40ZM47 41V42H46V41H47ZM33 40H32V41H33V40ZM35 42H36V43H35V42ZM38 41H37V42H38V41ZM37 44H38V45H37V44ZM40 46H37V47H40V46ZM32 51H34V52H32V51ZM42 37H43V39H42V37ZM49 30H46V31H49V30ZM51 30H53V31H51V30ZM53 34H52V35H51V36H52V35H53V34ZM56 38H55V39H56V38ZM56 38H57V37H56V38ZM60 32H58V33H59V34H61V33H60V32ZM63 35H62V37H63V35ZM64 40H65V41H64V40ZM63 42V41H64V42H63ZM63 42V43H62V42H63ZM58 44H57V45H56V46H57V45H58V44ZM40 61H37V62H39V63H40V64H38V65H39V66H37V67H39V68H40V70H42V69H43H45V67H44V66H43V65H40V64H42V63H41V62H40V61ZM50 64V63H46V64H50ZM54 58H55V59H54V58ZM61 54H60V55H61V54ZM63 60H64V61H63V60ZM62 60H61V61H60V62H61V61H62V60ZM58 64V65H57H54V67H57V68H59V66H60V65H62V64H58ZM58 64H55V63H58V64ZM76 51H77V52H76V51ZM75 53V52H76V53H75ZM74 53H75V54H74V53ZM74 53H73V55H71V53H72V52H74V53ZM70 50V51H71V50H72V49H73H74V50H77V49H74V48H75V47H74V48H73V47H71V48H69V47V45H68V43H66V45H65V47H63V48H66V49H65V50H66V51V53H67V51H68V52H69V51H68V48H69V50H70ZM68 48H66V47H68V48ZM73 44H72V45H73V44ZM73 43V42H70V43H73ZM73 43V44H74V45H75V42H74V43H73ZM80 44H79V45H80V44ZM80 42H81V43H80V42ZM77 42H76V43V45H78V43H77V42Z" fill="#6A6A52"/>
<path fill-rule="evenodd" clip-rule="evenodd" d="M48 28H51V29H48V28ZM48 29V30H46V29H48ZM53 30H54V31H53V30ZM56 31H55V32H56V31ZM57 32H58V33H57V32ZM22 33H20V34H19V35H18V37H17V38H16V39H15V43H16V39H17V38H18V39H19H20V40H21V38H20V37H19V35H20V34H22V33ZM19 37V38H18V37H19ZM21 44V43H19V44H21ZM18 45H19V46H18V45ZM19 46H20V47H19V46ZM22 46H23V47H22V46ZM24 38H23V41H24V42H25V41H24V38ZM25 37H27V38H25V37ZM27 38H28V41H27V38ZM20 49H19V50H20V51H21V52H22V51H23V52H24V51H23V49H22V51H21V49H20ZM26 51H27V52H26V51ZM27 49V50H28V49H29V48H30V47H29V48H27V49ZM30 45H31V46H30V45ZM33 48H32V49H33V51H34V52H37V53H38V52H37V51H34V49H33V48ZM36 47H35V48H36V47ZM28 52H29V53H28V52ZM30 54H29V55H30V54ZM35 54H36V55H35V54ZM39 56V55H37V56H39ZM33 57H34V58H33V57ZM33 58V59H32V58H33ZM36 57H37V58H36V57ZM37 58H38V59H37V58ZM35 60V61H33V60H35ZM37 62H35V61H37V62ZM37 62H38V63H39V64H37V63V62ZM40 64H41V65H40V64ZM42 62H41V63H42V64H43V63H42V62ZM39 66V65H37V66H36V67H37V66H39ZM38 69V68H36V69H35V70H36V69H38ZM46 64H45V65H46V64ZM43 60H44V61H43V60ZM44 62V61H46V62H44ZM48 60H49V61H48V60ZM50 64H49V65H50V64ZM50 60H51V61H50V60ZM55 63H54V64H55V63ZM58 64V65H56V64H58ZM58 64V63H59V64H58ZM61 67V66H63V67H61ZM63 67H64V68H63V67ZM49 57H50V58H49V57ZM52 56H50V57H52V56ZM52 56H54V55H52V56ZM53 59H52V60H53V59ZM53 59H54V58H53V59ZM56 60H55V61H56V60ZM58 59H59V60H58V59ZM62 61H61V62H62V61ZM62 61H63V60H62V61ZM65 59H64V60H65V59ZM61 58H62V59H61V58ZM62 58V56H63V58H62ZM64 55H65V56H64V55ZM66 54H65V55H66V54ZM66 54H67V53H66V54ZM63 52H62V53H61V54H62V53H63V52ZM60 54H59V53H55V52H51V53H50V54H51V53H55V54H59V55H60V54ZM62 50H61V51H62V50ZM67 51H68V52H67V51ZM67 47H66V48H67V47ZM62 47H63V48H62V47ZM63 49V48H65V49H63ZM69 50H70V52H69V50ZM71 53H70V55H71V53ZM73 53H74V54H73V53ZM74 54H75V55H74V54ZM74 53H75V51H74V53ZM77 52H76V53H77V52ZM77 52H78V51H77V52ZM75 48H74V49H75V48ZM77 48H78V49H77V48ZM78 48V47H79V48H78ZM76 45H78V46H76V45ZM69 43H68V42V41H67V42H66V43H68V45H69V46H70V45H69V43ZM69 43H70V40H72V39H70V40H69V43ZM73 43H72V44H73V43ZM73 40H74V43H73V40ZM77 40H76V42H77V41H79V40H80V41H81V45H82V41H81V40H80V39H79V37H78V36H77V35H75V36H74V37H73V38H74V37H75V36H77V37H78V39H77V40ZM78 39H79V40H78V39ZM65 39H66V40H65V39ZM65 38V39H62V38H65ZM63 36H64V37H63V36ZM62 34H61V36H62V34ZM56 34H54V35H53V36H54V35H56V34ZM52 36H51V37H52V36ZM58 38V39H56V38H58ZM55 39H56V40H55V39ZM58 41H59V42H58V41ZM57 42H56V43H57V42ZM58 44H59V45H58V44ZM59 47V45H60V47H59ZM56 46H57V47H56V46ZM55 46H54V48H55V46ZM50 42H52V43H50V42ZM53 47H49V48H53V47ZM51 49H52V50H51V49ZM49 50H48V51H49V50ZM45 50H46V51H45V50ZM47 52H46V53H47V52ZM43 52H44V53H43V52ZM43 52H42V51H43V52ZM43 49H44V50H43V49ZM44 48V47H46V48H47V47V46H40V47H39V48H40V49H41V48H40V47H43V48H44ZM37 45H38V46H37V45ZM49 43H47V44H46V42H45V44H46V45H47V44H49V43ZM42 43H43V44H42V43ZM42 42V43H40V42H42ZM40 42H39V41H40V42ZM44 38H43V39H44V38ZM35 41H36V42H35V41ZM32 41H31V44H32V41ZM34 38H35V39H34V38ZM37 37H36V35H37V34H36V33H37V32H38V31H39V30H42V29H39V30H38V31H37V32H36V33H35V34H34V35H33V36H34V35H35V37H36V38H37V37ZM35 35V34H36V35H35ZM38 34H39V35H38V34ZM40 36H39V35H40V36ZM40 36V37H41V36H40ZM40 33H41V32H43V33H44V32H43V31H44V30H43V31H41V32H40V33ZM40 33H39V34H40V33ZM45 34H44V35H45V34ZM48 33H49V34H48V33ZM46 34H48V35H46V34ZM50 32H49V33H50V32ZM50 31H51V32H50V31Z" fill="#4A4131"/>
<path fill-rule="evenodd" clip-rule="evenodd" d="M51 29H52V30H51V29ZM51 30V31H50V30H51ZM41 31H40V32H39V33H40V32H41V31ZM37 33H36V34H35V35H34V37H35V35H36V34H37V33ZM19 35H20V36H24V37V38H23V39H22V38H21V37H19V36V35ZM18 38V37H19V38H18ZM17 39V38H18V39H17ZM17 39V40H16V39H17ZM19 41H18V42H19V41ZM19 41V39H20V41H19ZM25 39H24V40V41H27V40H25V39ZM23 42H24V43V45H22V46H21H20V45H18V44H17V43H19V44H20H21V43H23V42ZM17 43H16V41H17V43ZM25 43H26V44H27V46H26V45H25V43ZM21 50V49H20V48H23V47H25V48H26V49H27V51H25V50H23V49H22V50H21ZM29 51H28V52H29V53H30V54H33H34V53H33V52H32V50H31V48V46H30V48H29V50H30V52H29V51ZM28 44H29V45H28V44ZM29 44V43H30V44H29ZM30 41H31V42H30V41ZM33 41H32V42H33V41ZM32 39H33V40H32V39ZM38 43H39V44H38V43ZM45 44H44V45H45V44ZM32 55H33V56V58H31V56H32V55ZM36 52H37V54H36V52ZM39 54H38V55H39V56H38V58H39V60H38V59H37V58H36V59H37V60H38V61H39H40V62H42V63H43V65H45V64H46V63H48H50V65H54V63H55H60V61H61V60H63H64V59H65V57H66V55H65V54H66V52H65V51H64V50H63V48H62V49H61V50H62V52H61V53H60V54H61V55H59V54H58V55H59V57H58H57V58H55V59H53V61H55V62H54H51V61H50V60V59H49V58V57H50V58H52V57H50V56H51V55H52V54H51V55H50H49V56H47V55H45V54H41V55H40H39V54ZM58 60V61H55V60H58ZM61 59H58V60H61V59ZM64 57V58H63V59H61V58H62V57V56H63V57H64ZM64 57H65V55H64V56V57ZM62 53H63V52H62V53ZM62 53V54H61V53H62ZM39 58V56H40V58H39ZM49 60V61H48V60H49ZM46 61H48V62H44V61H43V60H44V59H45V58H47H48V59H46V60H45V61H46ZM55 57V56H53V57H55ZM64 66V65H60V66H59V69H61H63V67H64V69H66V67H65V66H64ZM63 67H61V66H63V67ZM35 69V71H33V69H34V68H35V67H39V68H40V69V71H36V69H38V68H36V69H35ZM44 51H43V52H44V51ZM49 50H50V51H49V50ZM55 53H54V54H55V53ZM57 52H58V53H57V52ZM58 52V51H59V52H58ZM59 46H58V47H57V48H59V47V46ZM64 45H65V46V47H62V46H64V45ZM63 45V44H66V43V42H67V41H66V42H65V43H62V44V45H63ZM73 44H74V45H75H76V46H77H78V45H80V46H79V47H77V48H75V47H73V45V44ZM80 45V43H81V45H80ZM79 43H78V41H77V43H78V44H79V43ZM80 42H81V41H80V40H79V39H78V37H77V38H76H73V40H74V41H75V40H76V39H77H78V40H79V41H80V42ZM70 46H71V45H72V47H71V48H70V46ZM77 50H74V49H72V50H71V51H70V53H72V52H74V51H75V52H76V51H77V50ZM63 37H64V38H63V37ZM61 34H60V35H61V34ZM56 36H57V37H56V36ZM56 37V38H55V37H56Z" fill="#948B7B"/>
<path fill-rule="evenodd" clip-rule="evenodd" d="M51 29H48V30H49V31H44H43V32H44V33H45V34H48V33H49V32H50V33H51V34H50V35H49V36H48V35H44V34H43V33H42V32H41V34H42V35H41V37H40V36H39V35H38V34H37V35H38V36H39V37H38H37V36H36V37H37V38H38V39H37H36V38H35V39H34V41H33V42H32V44H31V45V47H32V48H33V49H32H31V50H32V51H33V49H34V51H37V52H38V54H39V55H41V54H43H45V55H47V56H49V55H50V53H51V54H52V55H54V56H55V57H52V58H50V59H53V58H55H57V57H58H59V55H58V54H54V53H52H51V52H55V53H57V52H58V51H60V52H59V53V54H60V53H61V52H62V51H60V50H61V49H62V48V46H64V45H66V44H63V45H62V42H63V43H65V42H66V41H64V40H65V39H64H62V38H63V37H62V36H61V35H60V34H59V33H58H57V32H56H55V31H54H53H52V32H53V33H52H51V32H50V30H51V29ZM59 39V38H58V36H57V35H56V34H54V33H53V34H52V35H51V36V37H52V38H54V37H55V38V41H56H57V40H58V39H59ZM58 42V41H59V39H60V42H58ZM58 42V43H57H56V42H57H58ZM55 36H56V37H55V36ZM55 36H54V35H55V36ZM52 37H53V36H52V37ZM64 41H63V42H64V41ZM36 41V43H35V42H34V41H35H36ZM36 40V41H37V42H38V44H37V47H39V48H40V49H42V50H44V51H42H41V52H43V53H45H47V52H44V51H47H50V50H51H52V49H53V48H55V47V46H54V47H48V46H44H38V44H43V43H42V42H43V41H42V40H40V41H37V40H36ZM40 41V42H41V41H40ZM36 40V39H35V40H36ZM39 37H40V38H39V37ZM42 35V36H43V35H42ZM57 44H58H59V45H58V46H57V47H56V46V45H57V44ZM57 47H58V46H59V45H60V47H59V48H57V47ZM34 47V48H36V47H35H34ZM34 47V46H35V45H33V47H34ZM39 30H40H41V31H40V32H39V33H38V31H39V30ZM44 44V45H45V44H46V45H48H54V43H55V42H51H50V41H51V40H48H47V41H46V42H45V44H44ZM46 44H47V43H46V44ZM22 34H20V36H22H23V35H22V34ZM19 39H17V41H19V39ZM25 38H24V39H25V40H27V38H25ZM30 45H29V47H30V45ZM28 49H29V51H28V49ZM32 54V56H31V57H30V56V54H32ZM34 53V54H33V55H34V57V58H33V59H35V60H37V59H36V58H35V57H37V58H38V56H37V55H35V54H36V52H34H33V53H34ZM70 40H73V42H70V40ZM77 36H75V37H74V38H75H77V36ZM78 41H80V43H78V41ZM65 50H66V52H65V51H64V50H63V49H64H65V50ZM45 59H44V61H45V60H46V59H48V58H46H45V59ZM53 60V61H51V60H53ZM32 38H33V39H32V38ZM29 42H30V43H29V42ZM28 43H29V44H28V43ZM49 42H48V43H49V42ZM42 37H44V39H42V37Z" fill="#B4B49C"/>
<path fill-rule="evenodd" clip-rule="evenodd" d="M52 28H51V29H52V30H53V29H52V28ZM42 29H43V30H42V29ZM44 30H46V31H44V30ZM25 36H24V35H23V34H22V35H23V36H24V38H25V36ZM22 38H21V37H20V38H21V43H22V40H23V39H22V38ZM25 41H26H27V42H26V43H25V41ZM24 45V43H25V45H24ZM24 45V46H23V45H24ZM28 43H27H26V44H27V46H28V48H29V46H28V43ZM29 42V43H28V42H29ZM30 41V42H29V41H30ZM32 38V41H31H30V40H31V38H32ZM32 38V37H33V36H34V38H33H32ZM19 47H20V49H19V47ZM20 46V45H19V46H20ZM20 46V47H22V46H20ZM34 39H33V41H34V42H35V41H34V39ZM28 50H27V52H26V53H24V52H22V53H24V54H26V53H27V52H28V50ZM28 53H29V55H28V53ZM30 57H29V55H30V57ZM31 58H30V57H31V58ZM32 59H31V58H32V59ZM32 59H34V60H32V59ZM38 60H35V61H38V60ZM39 58V60H38V58H39ZM39 58V56H40V58H39ZM37 53H38V55H37H36V54H37V53ZM33 69H32V71H33V72H41V71H42V70H45V69H46V67H45V65H44H43V64H41V65H43V66H44V67H45V69H42V70H40V71H36V70H35V71H33V69ZM34 68H33V69H34V68ZM35 67V68H34V67H35ZM35 67V66H36V67H35ZM46 61H48V62H46V61ZM52 60V59H50V58H49V59H50V60H52ZM54 65V64H56V65H54ZM54 67H53V66H50V65H54V66V67ZM57 68H54V67H57V68ZM66 69V70H58V69H57V68H59V69H63V68H64V69H66ZM66 67H67V69H66V67ZM65 66H66V67H65V66ZM64 65H65V66H64V65ZM62 64H64V65H62V64ZM62 64H59V63H60V62H61V63H62V64ZM64 62V61H65V60H66V57H67V54H66V57H65V56H64V57H63V58H62V59H63V58H64V57H65V60H64V61H62V62H64ZM59 60V59H61V60H59ZM56 60V61H58V60H56ZM73 55V56H71V55H73ZM73 55V54H74V55H73ZM75 48V49H77V51H78V49H77V48H78V47H77V48H75ZM70 43H72V44V45H71V44H70V43ZM70 46V45H71V46H70ZM69 48V46H70V48H69ZM68 48H69V51H68V48ZM68 48H67V47H68V48ZM73 47H72V45H73V47ZM73 47H74V48H73V47ZM67 40H65V41H67V40ZM54 43V42H52V43H53V44H54V43ZM46 50H48V51H46V50ZM46 53V52H44V53H46ZM37 32H38V34H37V32ZM54 33H53V32H52V31H51V32H52V33H53V35H52V36H53V35H54V33ZM57 36H58V38H57V36ZM57 36H56V35H57V36ZM59 39H58V38H59V39ZM59 39H60V42H59V39ZM56 31H60V32H56V31ZM61 33H60V32H61V33ZM62 34H61V33H62V34ZM63 35H62V34H63V35ZM63 35H64V36H63V35ZM73 38H72V40H73V38ZM75 40H76V45H75V42H74V41H75V40ZM76 40H77V39H76V40ZM67 52H70V53V54H69V53H67V52ZM55 62V61H51V62H55ZM46 64H49V65H46V64ZM18 41H17V42H18V43H19V42H18V41ZM17 43H16V44H17V45H18V44H17V43ZM36 37H35V38H36V39H37V38H36V37ZM30 44H31V45H30V44ZM43 49H42V50H43V49ZM41 43H42V44H41V43ZM39 41H38V42H39V41ZM39 34H40V35H39V34ZM40 35H41V36H40V35ZM45 33H44V34H45V35H46V34H45V33ZM55 30H54V31H55V30ZM48 44H49V45H48V44ZM51 49H50V50H51V49ZM52 48H53V49H52V48ZM53 48V47H54V48H53ZM58 42H57V43H58V42ZM65 37H64V38H65V37ZM79 43H80V44H79V43ZM79 44V45H78V44H79ZM80 45H81V46H80V45ZM80 46V47H79V46H80ZM75 53H76V54H75V53ZM65 48H66V49H65V48ZM61 50H60V51H59V52H58V53H59V52H60V51H61V50ZM52 56H53V57H52V56ZM52 55V56H51V55H52ZM51 55H50V54H51V55ZM39 62H38V63H39V64H40V63H39V62Z" fill="black"/>
</svg>
