<svg width="100" height="100" viewBox="0 0 100 100" fill="none" xmlns="http://www.w3.org/2000/svg">
<path fill-rule="evenodd" clip-rule="evenodd" d="M39 32H38V33H39V32ZM36 38H35V39H36V38ZM35 40H36V41H35V40ZM40 48H39V49H38V51H39V50H40V48ZM43 49H41V51H42V52H43V51V50H44V51H45V53H46V52H47V53H48V51H49V49H48H47H46V50H45H44V49H43ZM44 47H45V48H44V47ZM45 47V46H46V47H45ZM44 44H45V45H44V44ZM48 45H47V46H48V47H50V46H51V45H49V46H48V45ZM51 49H50V52H51V51H53V52H54H55V51H54V50H53V49H54H55V50H57V49H58V46H57V45H55V44H52V45H53V46H52V47H53V46H54V48H52V49H51ZM58 37H57V40H58V41H59H60H61V39H60V38H59V37H58ZM66 35H65V38H66V35ZM65 43H66V45H65V43ZM67 55V54H65V55H67ZM63 49H65V50H63V49ZM63 50V51H62V50H63Z" fill="#CDDEEE"/>
<path fill-rule="evenodd" clip-rule="evenodd" d="M60 37H59V38H60V37ZM36 42H35V43H36V42ZM37 46V45H35V46V47H36V46H37ZM40 47H38V48H40V47ZM40 49H41V50H40V49ZM44 50H43V51H44V52H45V51H44V50ZM45 45H44V47H45V46H47V45H48V46H49V45H52V46H53V45H52V44H53H55V45H57V46H58V48H59V44H58V42H59V41H58V40H57V38H56V40H55V41H54V42H53V43H51V44H49H48H47H45V45ZM50 49H49V50H50V49ZM48 51H49V52H48V51ZM54 49H53V50H54V51H55V50H54V49ZM66 45H65V46H66V45ZM62 51H63V53H62V51ZM65 54H64V55H65V54ZM68 50H69V51H68V50ZM68 50H66V49H68V50Z" fill="#9CACBD"/>
<path fill-rule="evenodd" clip-rule="evenodd" d="M58 42H60V43H61V45H60V46H61V47H60V49H59V44H58V42ZM52 45H51V46H52V45ZM41 50H40V51H41V50ZM63 50H65V51H64V52V53V55H67V51H66V50H68V51H69V55H68V56H63V55H62V53H63V52V51V50ZM66 46H65V48H66V46Z" fill="#8394A4"/>
<path fill-rule="evenodd" clip-rule="evenodd" d="M59 36H60V37H59V36ZM60 37H61V39H60V37ZM35 38H34V40H33V42H34H35V41H34V40H35V38ZM35 43H34V44H33V45H34V44H35V43ZM37 49H36V50H37V51H38V52H39V51H38V49H39V48H38H37V49ZM41 51H40V52H41V51ZM43 51H44V52H43V51ZM45 53H44V52H45V53ZM45 53H46V54H45V53ZM53 51H52V52H53V53H54V52H53V51ZM56 50H55V49H54V50H55V51H56V50ZM51 43H50V44H51V43ZM49 50H50V52H49V50ZM59 48H58V50H59V48ZM61 50H62V55H61V50ZM63 56H62V55H63V56ZM63 56H64V57H63V56ZM63 49H62V50H63V49ZM63 49V48H65V49H63ZM70 50H69V53H70V50ZM66 48H67V49H66V48ZM65 51H64V54H65H67V53V51H66V53H65V51Z" fill="#525A6A"/>
<path fill-rule="evenodd" clip-rule="evenodd" d="M37 32H38V33H37V32ZM38 33H39V34H38V33ZM65 38H66V43H65V38ZM47 35H48V36H47V35ZM48 35H49V36H52V35H51V34H48V35ZM36 39H35V40H34V41H35V42H36V41H35V40H36V39ZM34 44H35V43H37V44H38H40H41V43H43V44H44V48H45V47H46V46H48V47H50V46H52V47H53V46H54V48H53H52V49H50H48H46V50H44V49H40V47H38V48H37V49H36V46H37V45H35H34V44Z" fill="white"/>
<path fill-rule="evenodd" clip-rule="evenodd" d="M58 21H59V27H58V21ZM57 28H58V36H57V28ZM57 36V38H56V36H57ZM58 36H59V37H58V36ZM56 39H55V40H54V41H53V42H52V43H53V42H54V41H55V40H56V39ZM50 43H49V44H50V43ZM43 41H44V42H43V41ZM42 42H41V43H37V42H36V43H37V44H41V43H42V42ZM35 42H34V43H35V42ZM33 38H34V39H33V38ZM30 40V39H33V40H30ZM27 41V40H30V41H27ZM26 42V41H27V42H26ZM26 42V43H25V42H26ZM40 33H39V34H40V33ZM48 35H49V36H48V35ZM40 50H39V51H40V50ZM31 47H32V48H31V47ZM31 49H30V50H31V49ZM29 51H30V52H29V51ZM20 57H19V55H18V57H19V58H20V59H21V58H20V57ZM28 59H27V60H28V59ZM29 58V59H28V58H29ZM29 58H30V54H29V58ZM42 51H41V52H42V53H43V52H42V51ZM47 52H46V53H47V54H48V53H49V52H48V53H47V52ZM50 52H51V53H50V52ZM51 52V51H52V52H51ZM55 51H56V52V53H54V52H55V51ZM56 51H57V53H58V49H57V50H56V51ZM59 49H60V50H59V49ZM61 47H60V49H61V50H62V49H61V47ZM61 46H62V47H61V46ZM61 45V46H60V45H61ZM61 43H62V45H61V43ZM61 41V43H60V41H61ZM61 41V39H62V41H61ZM66 33H67V34V35H65V34H66V33ZM68 37H66V36H67V35H69V36H68V37ZM74 37V38H68V37H70V36H71V37H74ZM75 36V37H74V36H75ZM75 36V32H76V36H75ZM68 48H67V49H68V50H69V49H70V47H71V44H72V41H73V39H72V41H71V44H70V47H69V49H68V48ZM69 55H68V56H64V57H68V56H69V55ZM69 55V53H70V55H69ZM57 58H58V59H57V58ZM58 59H59V60H58V59ZM61 61H62V62H61V61ZM63 63H62V62H63V63ZM63 68V63H64V68H63ZM62 69V68H63V69H62ZM60 70V69H62V70H60ZM60 70V71H59V70H60ZM63 74H64V75H63V74ZM61 76V75H63V76H61ZM53 76H61V77H53V76ZM52 74H53V76H52V74ZM51 72H52V74H51V72ZM51 72H50V70H51V72ZM53 65H52V66H53V65ZM50 64H51V65H50V64ZM43 64V63H50V64H43ZM42 65V64H43V65H42ZM41 66V65H42V66H41ZM41 66V67H40V66H41ZM42 71H43V72H42V71ZM43 77H42V78H43V77ZM43 77V73H44V77H43ZM36 77H37V78H41V79H33V78H36V77ZM30 77H32V76H33V77V78H30V77ZM30 77H29V76H30V77ZM34 71H33V72H34V71ZM30 65H31V66H30V65ZM32 68H31V66H32V68ZM32 68V70H33V68H32ZM22 59H24V60H22V59ZM24 60H26V61H24V60ZM38 51H37V53H38V51ZM35 47H36V49H35V47ZM35 47H34V45H35V47ZM63 33H62V35H63V33ZM66 48H65V53H66V48ZM56 54H57V57H56V54ZM55 66H54V68H55V66ZM41 68H42V70H41V68Z" fill="black"/>
<path fill-rule="evenodd" clip-rule="evenodd" d="M43 19H42V20H43V19ZM59 20H58V21H59V20ZM68 27H67V28H68V29H69V28H68V27ZM71 28H70V29H71V28ZM72 29H73V30H72V29ZM73 30H74V31H73V30ZM63 30H64V33H63V30ZM65 34H64V35H65V34ZM56 35H57V36H56V35ZM57 36H58V37H57V36ZM56 38H55V39H56V38ZM59 41H60V42H59V41ZM25 43H26V44H25V43ZM24 45V44H25V45H24ZM24 45V46H23V45H24ZM34 46H32V47H34V46ZM30 48H31V49H30V48ZM30 50H29V51H30V50ZM28 52H29V54H28V52ZM18 54H19V55H18V54ZM19 56H20V57H19V56ZM22 57H21V59H22V57ZM23 58H24V59H23V58ZM27 58H26V60H27V58ZM23 47H22V48H23V47ZM37 53H38V55H37V53ZM33 60H32V61H31V62H32V61H33V60ZM31 63H30V65H31V63ZM33 70H34V71H33V70ZM33 72H32V73H31V74H32V73H33V72ZM30 75H29V76H30V75ZM36 76H37V77H36V76ZM42 77H41V78H42V77ZM42 72H43V73H42V72ZM42 70H41V71H42V70ZM40 67H41V68H40V67ZM52 64H51V65H52V64ZM53 65H54V66H53V65ZM54 67H53V68H54V67ZM51 68H52V69H51V68ZM51 69V70H50V69H51ZM57 75H58V76H57V75ZM62 74H61V75H62V74ZM63 73H64V74H63V73ZM63 72V73H61V72H63ZM61 72H60V71H61V72ZM61 60H60V61H61V60ZM56 57H57V58H56V57ZM57 53H56V54H57V53ZM62 35H63V36H62V35ZM64 37H63V41H62V42H63V45H64V37ZM70 36H69V37H70V36ZM69 34H70V35H69V34ZM73 35H72V36H73V35ZM67 32H68V33H67V32ZM57 27H58V28H57V27ZM51 24H52V25H51V24ZM51 24H50V23H51V24ZM43 21H44V22H43V21ZM46 22H49V23H46V22ZM37 32H36V34H35V38H36V34H37V32ZM43 41H42V42H43V41ZM44 40H46V41H44V40ZM46 40V39H47V40H46ZM47 43H49V44H47V43ZM52 42H51V43H52V42Z" fill="#5A4129"/>
<path fill-rule="evenodd" clip-rule="evenodd" d="M41 17H40V18H41V19H42V18H41V17ZM38 24H39V26H38V24ZM37 30H36V32H37V30ZM46 38H47V39H46V38ZM43 42H42V43H43V44H44V43H43V42ZM23 46H24V47H23V46ZM22 48H21V49H20V50H21V49H22V48ZM20 51H19V52H18V54H19V52H20V51ZM37 55H36V57H35V58H34V59H33V60H34V59H35V58H36V57H37V55ZM32 62H31V63H32V62ZM31 73H30V74H29V75H30V74H31V73ZM32 75H33V76H32V75ZM33 75V74H34V75H33ZM37 75H38V76H37V75ZM27 56H28V57H27V56ZM27 57V58H26V57H27ZM47 43H46V44H47V43ZM43 20H42V21H43V20ZM44 22H46V23H44V22ZM50 23H49V24H50V23ZM51 25H52V26H51V25ZM53 23H52V25H53V23ZM54 22V23H53V22H54ZM55 21H54V22H55V21ZM56 20V21H55V20H56ZM56 20V19H58V20H56ZM56 23H57V25H56V23ZM56 25V28H55V29H54V28H53V27H54V26H55V25H56ZM62 36H63V37H62V36ZM64 33H63V34H64V33ZM64 28H65V29H64V28ZM65 28V27H67V28H65ZM67 31H68V32H67V31ZM70 28H69V29H70V28ZM71 29H72V30H71V29ZM75 31H74V32H75V31ZM73 34H74V35H73V34ZM71 33H70V34H71V33ZM68 36H69V37H68V36ZM64 45H63V46H64V45ZM59 60H60V61H59V60ZM53 68H52V69H53V68ZM53 75H54V76H53V75ZM57 73H56V74H57V75H58V74H57V73ZM61 73H60V74H61V73ZM61 68H62V69H61V68ZM62 68V67H63V68H62Z" fill="#8B6231"/>
<path fill-rule="evenodd" clip-rule="evenodd" d="M39 31H38V32H39V31ZM39 34H40V35H39V34ZM39 36H38V37H37V39H36V42H37V43H38V42H37V39H38V37H39V36ZM32 65H33V67H32V65ZM33 67H34V68H33V67ZM56 67H55V68H56V67ZM46 35H47V36H46V35ZM48 34H47V35H48V34ZM48 34H50V33H48V34ZM52 34H51V35H52V34ZM66 35H67V36H66V35ZM72 36H71V37H72V36Z" fill="#6A5200"/>
<path fill-rule="evenodd" clip-rule="evenodd" d="M39 18H40V21H39V18ZM39 22H38V24H39V22ZM38 26H39V27H38V26ZM37 29V27H38V29H37ZM37 29V30H36V29H37ZM40 35H39V36H40V35ZM26 56H27V57H26V56ZM34 74H35V75H34V74ZM43 23H41V24H43V23ZM43 23H44V22H43V23ZM54 28H53V29H54V30H55V29H56V28H55V29H54V28ZM55 24H56V25H55V24ZM56 25H57V26H56V25ZM57 22H56V23H57V22ZM69 29H68V30H69V29Z" fill="#A4835A"/>
<path fill-rule="evenodd" clip-rule="evenodd" d="M39 21H40V22H39V21ZM37 31H38V32H37V31ZM38 33H37V34H38V35H39V34H38V33ZM37 38H36V39H37V38ZM20 50H21V51H20V50ZM21 54H20V55H19V56H20V55H21V54ZM21 56H22V57H21V56ZM21 57V58H20V57H21ZM24 56H23V58H22V59H23V58H24V56ZM40 32H39V33H40V32ZM45 37H46V38H45V37ZM51 33H50V34H51V33ZM52 41H53V42H52V41ZM44 42H43V43H44V44H46V43H48H50H51V42H50V41H48V40H46V41H44V42ZM41 24H40V25H39V26H40V25H41V24ZM49 23H48V24H49V23ZM57 33H56V31H55V29H56V26H57V21H58V27H57V29V31V33ZM64 29H65V30H64V29ZM64 34H63V35H64V36H65V35H64V34ZM67 33V32H66H65V31H64V32V34H66V33H67ZM69 35V33H67V35H69ZM72 36V35H71V34H70V35H69V36H72ZM72 36V37H74V36H72ZM68 30H69V31H68V30ZM72 30H71V32H70V33H71V32H72V30ZM74 31H73V32H74V31ZM73 33H74V34H73V33ZM73 39V38H71V39H73ZM71 40H72V41H71V40ZM68 38V37H66V38V39H67V38H68ZM65 37H64V42H65V37ZM61 41H62V42H63V47H62V46H61V45H62V43H61V41ZM62 47V49H61V47H62ZM60 61H61V62H60V61ZM63 63H62V64H63V63ZM55 66H56V67H55V66ZM61 73H60V74H59V73H58V72H56V73H54V74H52V72H51V69H53V68H56V67H58V68H61V69H60V70H59V71H60V72H61V73ZM61 73H63V74V75H62V74H61V73ZM60 75H61V76H60V75ZM45 62H44V63H45V62ZM42 63H43V64H42V63ZM42 64V65H41V64H42ZM32 64H33V65H32V64ZM33 67H32V68H33V70H34V72V74H36V73H37V72H40V73H42V74H43V73H42V72V71H41V68H40V67V66H39V67H38V66H36V67H34V68H33V67Z" fill="#B49420"/>
<path fill-rule="evenodd" clip-rule="evenodd" d="M57 20H56V21H55V22H54V23H53V24H54V23H55V22H56V21H57V20ZM46 24H41V25H40V26H39V27H38V30H39V31H42V30H44V29H46V28H47V25H46V24ZM39 36H42V39H39V40H38V37H39V36ZM66 28H67H68V29H67V30H66V28ZM69 29H70V31H69V29ZM73 30H72V31H73V30Z" fill="#FFEE73"/>
<path fill-rule="evenodd" clip-rule="evenodd" d="M58 20H57V21H58V20ZM50 24H51V25H50V24ZM66 31H65V32H66V31ZM64 35H63V37H64H65V36H64V35ZM64 46H63V47H62V49H63V48H64H65V47H64V46ZM21 49H22V50H21V49ZM22 55H21V56H22V55ZM24 58H26V60H24V58ZM33 72H34V74H33H32V73H33V72ZM32 77V76H30V77H32ZM33 77H36V78H33V77ZM37 77V78H39V77H37ZM40 77H41V78H40V77ZM41 76H40V75H38V74H37H36V73H37V72H40V73H42V74H43V77H42H41V76ZM54 74H53V75H54V76H56H57V74H58V76H60V75H61V74H60H59V73H58V72H56V73H54V74ZM56 73H57V74H56V73ZM29 54H28V57H27V59H28V58H29V54ZM32 65H31V66H32V65ZM33 66H36V67H33V66ZM37 57V55H38V52H39V55H40V56H41V57H43V58H45V59H51V58H53V57H52V56H51V55H50H49V54H48V53H49V52H50V53H51V52H53V53H54H56V58H57V59H58V60H59V61H60V62H62V64H63V67H62V68H58V67H56V66H54V65H52V64H50V63H45V62H44V63H43H42V64H41V66H39V67H38V66H36V65H38V64H39V63H40V58H39V57H37ZM36 58V57H37V58H36ZM36 58V59H35V58H36ZM56 53V51H57V53H56ZM69 33H70V34H69V33ZM73 34H71V35H73V36H75V35H73V34ZM73 32H75V33H73V32ZM71 39H72V40H71V43V44H70V45V46H69V45H68V44H67V43H66V39H67V38H71V39ZM52 28H53V29H52V28ZM53 30V29H54V30H53ZM55 31H54V30H55V31ZM55 31V33H54V35H52V37H51V38H50V39H48V38H47V37H46V38H44V40H43V41H44V40H46V38H47V40H48V41H50V42H52V41H54V40H55V38H56V35H57V33H56V31H55ZM42 41H41V42H38V41H37V42H38V43H41V42H42V41ZM36 37H37V38H36V37ZM34 39H33V40H30V41H29H28H27V42H28V43H29V44H30V46H31V47H32V46H33H34V45H33V44H34V42H33V41V40H34V39Z" fill="#DEBD41"/>
<path fill-rule="evenodd" clip-rule="evenodd" d="M40 18H41V19H42V21H43V23H42H41V24H40V25H39V22H40V19V18ZM56 22H55V23H54V24H53V25H52V26H51V25H50V24H48V23H46H43V24H46V25H47V28H46V29H44V30H42V31H40H39V30H38V29H37V31H38H39V32H40V36H42V39H41H39V40H38V39H37V41H38V42H39H41V41H43V40H44V39V38H45V37H47V38H48V39H50V38H51V37H52V36H46V35H47V34H48V33H50H51V34H52V35H54V33H55V31H54V30H53V29H52V28H53V27H54V26H55V24H56V22ZM56 22V21H57V22H56ZM66 28H65V30H64V31H66V32H67V31H68V33H70V32H71V34H73V32V31H72V32H71V29H70V31H68V29H67V30H66V28ZM74 33H75V35H74V33ZM26 42H28V43H29V44H30V46H31V48H30V50H29V52H28V55V56H26V58H24V56H23V58H22V55H21V54H20V55H19V52H20V51H21V50H22V48H23V47H24V46V45H25V44H26V42ZM20 55H21V57H20V55ZM39 58V57H37V58H36V59H34V60H33V61H32V63H31V65H32V64H33V66H36V65H38V64H39V63H40V58H39ZM30 76V74H32H33V75H32V76H30ZM38 75V74H37H35V75H33V77H35H36V76H37V77H38H39V78H40V77H41V76H40V75H38ZM38 75H37V76H38V75ZM40 51H39V55H40V56H41V57H42H43V58H45V59H49H51V58H52H53V57H52V56H51V55H49V54H47V53H46V54H45V53H44V52H43V53H42V52H40V51ZM64 42H65V47H64V42ZM67 43H66V48H67H68V49H69V48V47H70V46H69V45H68V44H67V43ZM36 34V37H38V36H39V35H38V34H36Z" fill="#F6DE00"/>
</svg>
