<svg width="100" height="100" viewBox="0 0 100 100" fill="none" xmlns="http://www.w3.org/2000/svg">
<path d="M51 24H50V25H51V24Z" fill="#7B3129"/>
<path d="M50 25H49V26H50V25Z" fill="#7B3129"/>
<path d="M47 26H46V27H47V26Z" fill="#7B3129"/>
<path d="M48 26H47V27H48V26Z" fill="#7B3129"/>
<path d="M49 26H48V27H49V26Z" fill="#7B3129"/>
<path d="M49 27H48V28H49V27Z" fill="#7B3129"/>
<path d="M50 27H49V28H50V27Z" fill="#7B3129"/>
<path d="M51 27H50V28H51V27Z" fill="#7B3129"/>
<path d="M51 28H50V29H51V28Z" fill="#7B3129"/>
<path d="M51 29H50V30H51V29Z" fill="#7B3129"/>
<path d="M46 27H45V28H46V27Z" fill="#7B3129"/>
<path d="M46 28H45V29H46V28Z" fill="#7B3129"/>
<path d="M43 33H42V34H43V33Z" fill="#7B3129"/>
<path d="M43 34H42V35H43V34Z" fill="#7B3129"/>
<path d="M43 35H42V36H43V35Z" fill="#7B3129"/>
<path d="M42 36H41V37H42V36Z" fill="#7B3129"/>
<path d="M42 37H41V38H42V37Z" fill="#7B3129"/>
<path d="M52 25H51V26H52V25Z" fill="#7B3129"/>
<path d="M53 26H52V27H53V26Z" fill="#7B3129"/>
<path d="M54 25H53V26H54V25Z" fill="#7B3129"/>
<path d="M55 25H54V26H55V25Z" fill="#7B3129"/>
<path d="M55 26H54V27H55V26Z" fill="#7B3129"/>
<path d="M53 28H52V29H53V28Z" fill="#7B3129"/>
<path d="M52 30H51V31H52V30Z" fill="#7B3129"/>
<path d="M53 31H52V32H53V31Z" fill="#7B3129"/>
<path d="M54 30H53V31H54V30Z" fill="#7B3129"/>
<path d="M55 32H54V33H55V32Z" fill="#7B3129"/>
<path d="M54 32H53V33H54V32Z" fill="#7B3129"/>
<path d="M54 33H53V34H54V33Z" fill="#7B3129"/>
<path d="M55 34H54V35H55V34Z" fill="#7B3129"/>
<path d="M55 35H54V36H55V35Z" fill="#7B3129"/>
<path d="M56 36H55V37H56V36Z" fill="#7B3129"/>
<path d="M56 37H55V38H56V37Z" fill="#7B3129"/>
<path d="M56 38H55V39H56V38Z" fill="#7B3129"/>
<path d="M56 39H55V40H56V39Z" fill="#7B3129"/>
<path d="M56 40H55V41H56V40Z" fill="#7B3129"/>
<path d="M55 41H54V42H55V41Z" fill="#7B3129"/>
<path d="M55 42H54V43H55V42Z" fill="#7B3129"/>
<path d="M55 43H54V44H55V43Z" fill="#7B3129"/>
<path d="M62 36H61V37H62V36Z" fill="#7B3129"/>
<path d="M62 37H61V38H62V37Z" fill="#7B3129"/>
<path d="M62 38H61V39H62V38Z" fill="#7B3129"/>
<path d="M62 39H61V40H62V39Z" fill="#7B3129"/>
<path d="M62 40H61V41H62V40Z" fill="#7B3129"/>
<path d="M62 41H61V42H62V41Z" fill="#7B3129"/>
<path d="M62 42H61V43H62V42Z" fill="#7B3129"/>
<path d="M61 43H60V44H61V43Z" fill="#7B3129"/>
<path d="M57 28H56V29H57V28Z" fill="#7B3129"/>
<path d="M58 29H57V30H58V29Z" fill="#7B3129"/>
<path d="M59 30H58V31H59V30Z" fill="#7B3129"/>
<path d="M68 45H67V46H68V45Z" fill="#10414A"/>
<path d="M69 45H68V46H69V45Z" fill="#10414A"/>
<path d="M70 45H69V46H70V45Z" fill="#10414A"/>
<path d="M77 48H76V49H77V48Z" fill="#10414A"/>
<path d="M76 49H75V50H76V49Z" fill="#10414A"/>
<path d="M73 51H72V52H73V51Z" fill="#10414A"/>
<path d="M72 51H71V52H72V51Z" fill="#10414A"/>
<path d="M72 48H71V49H72V48Z" fill="#10414A"/>
<path d="M75 47H74V48H75V47Z" fill="#10414A"/>
<path d="M63 43H62V44H63V43Z" fill="#10414A"/>
<path d="M66 42H65V43H66V42Z" fill="#10414A"/>
<path d="M65 44H64V45H65V44Z" fill="#10414A"/>
<path d="M67 50H66V51H67V50Z" fill="#10414A"/>
<path d="M68 51H67V52H68V51Z" fill="#10414A"/>
<path d="M64 52H63V53H64V52Z" fill="#10414A"/>
<path d="M63 50H62V51H63V50Z" fill="#10414A"/>
<path d="M59 52H58V53H59V52Z" fill="#10414A"/>
<path d="M60 53H59V54H60V53Z" fill="#10414A"/>
<path d="M62 46H61V47H62V46Z" fill="#10414A"/>
<path d="M61 47H60V48H61V47Z" fill="#10414A"/>
<path d="M60 47H59V48H60V47Z" fill="#10414A"/>
<path d="M59 47H58V48H59V47Z" fill="#10414A"/>
<path d="M58 47H57V48H58V47Z" fill="#10414A"/>
<path d="M57 47H56V48H57V47Z" fill="#10414A"/>
<path d="M57 48H56V49H57V48Z" fill="#10414A"/>
<path d="M56 48H55V49H56V48Z" fill="#10414A"/>
<path d="M56 49H55V50H56V49Z" fill="#10414A"/>
<path d="M56 50H55V51H56V50Z" fill="#10414A"/>
<path d="M56 52H55V53H56V52Z" fill="#10414A"/>
<path d="M56 53H55V54H56V53Z" fill="#10414A"/>
<path d="M57 45H56V46H57V45Z" fill="#10414A"/>
<path d="M58 45H57V46H58V45Z" fill="#10414A"/>
<path d="M59 44H58V45H59V44Z" fill="#10414A"/>
<path d="M60 44H59V45H60V44Z" fill="#10414A"/>
<path d="M61 44H60V45H61V44Z" fill="#10414A"/>
<path d="M62 44H61V45H62V44Z" fill="#10414A"/>
<path d="M55 48H54V49H55V48Z" fill="#10414A"/>
<path d="M54 48H53V49H54V48Z" fill="#10414A"/>
<path d="M54 45H53V46H54V45Z" fill="#10414A"/>
<path d="M54 44H53V45H54V44Z" fill="#10414A"/>
<path d="M53 43H52V44H53V43Z" fill="#10414A"/>
<path d="M53 46H52V47H53V46Z" fill="#10414A"/>
<path d="M52 46H51V47H52V46Z" fill="#10414A"/>
<path d="M51 47H50V48H51V47Z" fill="#10414A"/>
<path d="M50 47H49V48H50V47Z" fill="#10414A"/>
<path d="M50 49H49V50H50V49Z" fill="#10414A"/>
<path d="M51 49H50V50H51V49Z" fill="#10414A"/>
<path d="M48 50H47V51H48V50Z" fill="#10414A"/>
<path d="M48 49H47V50H48V49Z" fill="#10414A"/>
<path d="M47 49H46V50H47V49Z" fill="#10414A"/>
<path d="M47 48H46V49H47V48Z" fill="#10414A"/>
<path d="M49 44H48V45H49V44Z" fill="#10414A"/>
<path d="M49 43H48V44H49V43Z" fill="#10414A"/>
<path d="M50 41H49V42H50V41Z" fill="#10414A"/>
<path d="M49 40H48V41H49V40Z" fill="#10414A"/>
<path d="M48 40H47V41H48V40Z" fill="#10414A"/>
<path d="M47 40H46V41H47V40Z" fill="#10414A"/>
<path d="M46 41H45V42H46V41Z" fill="#10414A"/>
<path d="M45 42H44V43H45V42Z" fill="#10414A"/>
<path d="M45 39H44V40H45V39Z" fill="#10414A"/>
<path d="M44 38H43V39H44V38Z" fill="#10414A"/>
<path d="M43 38H42V39H43V38Z" fill="#10414A"/>
<path d="M42 38H41V39H42V38Z" fill="#10414A"/>
<path d="M42 39H41V40H42V39Z" fill="#10414A"/>
<path d="M42 40H41V41H42V40Z" fill="#10414A"/>
<path d="M41 44H40V45H41V44Z" fill="#10414A"/>
<path d="M42 45H41V46H42V45Z" fill="#10414A"/>
<path d="M43 46H42V47H43V46Z" fill="#10414A"/>
<path d="M43 47H42V48H43V47Z" fill="#10414A"/>
<path d="M41 49H40V50H41V49Z" fill="#10414A"/>
<path d="M40 50H39V51H40V50Z" fill="#10414A"/>
<path d="M39 50H38V51H39V50Z" fill="#10414A"/>
<path d="M38 50H37V51H38V50Z" fill="#10414A"/>
<path d="M38 49H37V50H38V49Z" fill="#10414A"/>
<path d="M37 49H36V50H37V49Z" fill="#10414A"/>
<path d="M38 47H37V48H38V47Z" fill="#10414A"/>
<path d="M37 47H36V48H37V47Z" fill="#10414A"/>
<path d="M36 47H35V48H36V47Z" fill="#10414A"/>
<path d="M35 47H34V48H35V47Z" fill="#10414A"/>
<path d="M35 46H34V47H35V46Z" fill="#10414A"/>
<path d="M36 43H35V44H36V43Z" fill="#10414A"/>
<path d="M32 42H31V43H32V42Z" fill="#10414A"/>
<path d="M31 42H30V43H31V42Z" fill="#10414A"/>
<path d="M30 41H29V42H30V41Z" fill="#10414A"/>
<path d="M29 41H28V42H29V41Z" fill="#10414A"/>
<path d="M28 40H27V41H28V40Z" fill="#10414A"/>
<path d="M27 40H26V41H27V40Z" fill="#10414A"/>
<path d="M27 38H26V39H27V38Z" fill="#10414A"/>
<path d="M26 38H25V39H26V38Z" fill="#10414A"/>
<path d="M25 38H24V39H25V38Z" fill="#10414A"/>
<path d="M22 40H21V41H22V40Z" fill="#10414A"/>
<path d="M24 42H23V43H24V42Z" fill="#10414A"/>
<path d="M24 43H23V44H24V43Z" fill="#10414A"/>
<path d="M23 43H22V44H23V43Z" fill="#10414A"/>
<path d="M22 44H21V45H22V44Z" fill="#10414A"/>
<path d="M25 47H24V48H25V47Z" fill="#10414A"/>
<path d="M25 46H24V47H25V46Z" fill="#10414A"/>
<path d="M26 46H25V47H26V46Z" fill="#10414A"/>
<path d="M26 45H25V46H26V45Z" fill="#10414A"/>
<path d="M27 45H26V46H27V45Z" fill="#10414A"/>
<path d="M28 49H27V50H28V49Z" fill="#10414A"/>
<path d="M29 48H28V49H29V48Z" fill="#10414A"/>
<path d="M30 48H29V49H30V48Z" fill="#10414A"/>
<path d="M30 49H29V50H30V49Z" fill="#10414A"/>
<path d="M30 50H29V51H30V50Z" fill="#10414A"/>
<path d="M31 48H30V49H31V48Z" fill="#10414A"/>
<path d="M33 49H32V50H33V49Z" fill="#10414A"/>
<path d="M31 51H30V52H31V51Z" fill="#10414A"/>
<path d="M32 51H31V52H32V51Z" fill="#10414A"/>
<path d="M31 47H30V48H31V47Z" fill="#10414A"/>
<path d="M35 42H34V43H35V42Z" fill="#10414A"/>
<path d="M41 37H40V38H41V37Z" fill="#10414A"/>
<path d="M40 37H39V38H40V37Z" fill="#10414A"/>
<path d="M39 37H38V38H39V37Z" fill="#10414A"/>
<path d="M39 38H38V39H39V38Z" fill="#10414A"/>
<path d="M38 40H37V41H38V40Z" fill="#10414A"/>
<path d="M38 39H37V40H38V39Z" fill="#10414A"/>
<path d="M37 38H36V39H37V38Z" fill="#10414A"/>
<path d="M36 38H35V39H36V38Z" fill="#10414A"/>
<path d="M35 39H34V40H35V39Z" fill="#10414A"/>
<path d="M44 46H43V47H44V46Z" fill="#10414A"/>
<path d="M46 47H45V48H46V47Z" fill="#10414A"/>
<path d="M45 47H44V48H45V47Z" fill="#10414A"/>
<path d="M45 48H44V49H45V48Z" fill="#10414A"/>
<path d="M44 48H43V49H44V48Z" fill="#10414A"/>
<path d="M50 42H49V43H50V42Z" fill="#10414A"/>
<path d="M51 42H50V43H51V42Z" fill="#10414A"/>
<path d="M52 42H51V43H52V42Z" fill="#10414A"/>
<path d="M63 46H62V47H63V46Z" fill="#10414A"/>
<path d="M64 46H63V47H64V46Z" fill="#10414A"/>
<path d="M65 46H64V47H65V46Z" fill="#10414A"/>
<path d="M66 46H65V47H66V46Z" fill="#10414A"/>
<path d="M67 46H66V47H67V46Z" fill="#10414A"/>
<path d="M67 42H66V43H67V42Z" fill="#10414A"/>
<path d="M68 42H67V43H68V42Z" fill="#10414A"/>
<path d="M69 43H68V44H69V43Z" fill="#10414A"/>
<path d="M70 42H69V43H70V42Z" fill="#10414A"/>
<path d="M71 42H70V43H71V42Z" fill="#10414A"/>
<path d="M71 41H70V42H71V41Z" fill="#10414A"/>
<path d="M72 41H71V42H72V41Z" fill="#10414A"/>
<path d="M73 41H72V42H73V41Z" fill="#10414A"/>
<path d="M74 41H73V42H74V41Z" fill="#10414A"/>
<path d="M74 42H73V43H74V42Z" fill="#10414A"/>
<path d="M75 42H74V43H75V42Z" fill="#10414A"/>
<path d="M76 42H75V43H76V42Z" fill="#10414A"/>
<path d="M77 42H76V43H77V42Z" fill="#10414A"/>
<path d="M78 43H77V44H78V43Z" fill="#10414A"/>
<path d="M79 43H78V44H79V43Z" fill="#10414A"/>
<path d="M78 45H77V46H78V45Z" fill="#10414A"/>
<path d="M79 46H78V47H79V46Z" fill="#10414A"/>
<path d="M48 41H47V42H48V41Z" fill="#7BD573"/>
<path d="M47 41H46V42H47V41Z" fill="#7BD573"/>
<path d="M46 42H45V43H46V42Z" fill="#7BD573"/>
<path d="M44 39H43V40H44V39Z" fill="#7BD573"/>
<path d="M43 39H42V40H43V39Z" fill="#7BD573"/>
<path d="M41 38H40V39H41V38Z" fill="#7BD573"/>
<path d="M40 38H39V39H40V38Z" fill="#7BD573"/>
<path d="M37 39H36V40H37V39Z" fill="#7BD573"/>
<path d="M36 39H35V40H36V39Z" fill="#7BD573"/>
<path d="M35 40H34V41H35V40Z" fill="#7BD573"/>
<path d="M34 42H33V43H34V42Z" fill="#7BD573"/>
<path d="M33 42H32V43H33V42Z" fill="#7BD573"/>
<path d="M33 41H32V42H33V41Z" fill="#7BD573"/>
<path d="M32 41H31V42H32V41Z" fill="#7BD573"/>
<path d="M31 41H30V42H31V41Z" fill="#7BD573"/>
<path d="M30 40H29V41H30V40Z" fill="#7BD573"/>
<path d="M29 40H28V41H29V40Z" fill="#7BD573"/>
<path d="M27 39H26V40H27V39Z" fill="#7BD573"/>
<path d="M26 39H25V40H26V39Z" fill="#7BD573"/>
<path d="M23 40H22V41H23V40Z" fill="#7BD573"/>
<path d="M24 40H23V41H24V40Z" fill="#7BD573"/>
<path d="M24 41H23V42H24V41Z" fill="#7BD573"/>
<path d="M25 40H24V41H25V40Z" fill="#7BD573"/>
<path d="M25 41H24V42H25V41Z" fill="#7BD573"/>
<path d="M26 41H25V42H26V41Z" fill="#7BD573"/>
<path d="M27 41H26V42H27V41Z" fill="#7BD573"/>
<path d="M28 41H27V42H28V41Z" fill="#7BD573"/>
<path d="M26 42H25V43H26V42Z" fill="#7BD573"/>
<path d="M27 42H26V43H27V42Z" fill="#7BD573"/>
<path d="M28 42H27V43H28V42Z" fill="#7BD573"/>
<path d="M27 43H26V44H27V43Z" fill="#7BD573"/>
<path d="M28 43H27V44H28V43Z" fill="#7BD573"/>
<path d="M29 43H28V44H29V43Z" fill="#7BD573"/>
<path d="M30 44H29V45H30V44Z" fill="#7BD573"/>
<path d="M31 44H30V45H31V44Z" fill="#7BD573"/>
<path d="M32 44H31V45H32V44Z" fill="#7BD573"/>
<path d="M33 44H32V45H33V44Z" fill="#7BD573"/>
<path d="M33 45H32V46H33V45Z" fill="#7BD573"/>
<path d="M30 43H29V44H30V43Z" fill="#7BD573"/>
<path d="M29 42H28V43H29V42Z" fill="#7BD573"/>
<path d="M30 42H29V43H30V42Z" fill="#7BD573"/>
<path d="M31 43H30V44H31V43Z" fill="#7BD573"/>
<path d="M32 43H31V44H32V43Z" fill="#7BD573"/>
<path d="M72 42H71V43H72V42Z" fill="#7BD573"/>
<path d="M73 42H72V43H73V42Z" fill="#7BD573"/>
<path d="M72 43H71V44H72V43Z" fill="#7BD573"/>
<path d="M73 43H72V44H73V43Z" fill="#7BD573"/>
<path d="M75 43H74V44H75V43Z" fill="#7BD573"/>
<path d="M76 43H75V44H76V43Z" fill="#7BD573"/>
<path d="M77 43H76V44H77V43Z" fill="#7BD573"/>
<path d="M77 44H76V45H77V44Z" fill="#7BD573"/>
<path d="M78 44H77V45H78V44Z" fill="#7BD573"/>
<path d="M77 46H76V47H77V46Z" fill="#7BD573"/>
<path d="M78 46H77V47H78V46Z" fill="#7BD573"/>
<path d="M77 47H76V48H77V47Z" fill="#7BD573"/>
<path d="M76 46H75V47H76V46Z" fill="#7BD573"/>
<path d="M75.98 45H75.02C75.009 45 75 45.009 75 45.02V45.98C75 45.991 75.009 46 75.02 46H75.98C75.991 46 76 45.991 76 45.98V45.02C76 45.009 75.991 45 75.98 45Z" fill="#7BD573"/>
<path d="M74.98 45H74.02C74.009 45 74 45.009 74 45.02V45.98C74 45.991 74.009 46 74.02 46H74.98C74.991 46 75 45.991 75 45.98V45.02C75 45.009 74.991 45 74.98 45Z" fill="#7BD573"/>
<path d="M73.98 45H73.02C73.009 45 73 45.009 73 45.02V45.98C73 45.991 73.009 46 73.02 46H73.98C73.991 46 74 45.991 74 45.98V45.02C74 45.009 73.991 45 73.98 45Z" fill="#7BD573"/>
<path d="M74 46H73V47H74V46Z" fill="#7BD573"/>
<path d="M74 47H73V48H74V47Z" fill="#7BD573"/>
<path d="M74 48H73V49H74V48Z" fill="#7BD573"/>
<path d="M73 46H72V47H73V46Z" fill="#7BD573"/>
<path d="M73 47H72V48H73V47Z" fill="#7BD573"/>
<path d="M72 46H71V47H72V46Z" fill="#7BD573"/>
<path d="M71 46H70V47H71V46Z" fill="#7BD573"/>
<path d="M70 46H69V47H70V46Z" fill="#7BD573"/>
<path d="M69 46H68V47H69V46Z" fill="#7BD573"/>
<path d="M70 47H69V48H70V47Z" fill="#7BD573"/>
<path d="M69 47H68V48H69V47Z" fill="#7BD573"/>
<path d="M70 48H69V49H70V48Z" fill="#7BD573"/>
<path d="M69 48H68V49H69V48Z" fill="#7BD573"/>
<path d="M70 49H69V50H70V49Z" fill="#7BD573"/>
<path d="M69 49H68V50H69V49Z" fill="#7BD573"/>
<path d="M68 47H67V48H68V47Z" fill="#7BD573"/>
<path d="M67 47H66V48H67V47Z" fill="#7BD573"/>
<path d="M68 48H67V49H68V48Z" fill="#7BD573"/>
<path d="M68 49H67V50H68V49Z" fill="#7BD573"/>
<path d="M70 50H69V51H70V50Z" fill="#7BD573"/>
<path d="M71 48H70V49H71V48Z" fill="#7BD573"/>
<path d="M71 49H70V50H71V49Z" fill="#7BD573"/>
<path d="M71 50H70V51H71V50Z" fill="#7BD573"/>
<path d="M70 51H69V52H70V51Z" fill="#7BD573"/>
<path d="M71 51H70V52H71V51Z" fill="#7BD573"/>
<path d="M72 49H71V50H72V49Z" fill="#7BD573"/>
<path d="M72 50H71V51H72V50Z" fill="#7BD573"/>
<path d="M69 50H68V51H69V50Z" fill="#7BD573"/>
<path d="M72 47H71V48H72V47Z" fill="#7BD573"/>
<path d="M73 48H72V49H73V48Z" fill="#7BD573"/>
<path d="M74 49H73V50H74V49Z" fill="#7BD573"/>
<path d="M75 48H74V49H75V48Z" fill="#7BD573"/>
<path d="M75 49H74V50H75V49Z" fill="#7BD573"/>
<path d="M75 46H74V47H75V46Z" fill="#7BD573"/>
<path d="M76 47H75V48H76V47Z" fill="#7BD573"/>
<path d="M78 47H77V48H78V47Z" fill="#7BD573"/>
<path d="M72 44H71V45H72V44Z" fill="#7BD573"/>
<path d="M71 43H70V44H71V43Z" fill="#7BD573"/>
<path d="M71 44H70V45H71V44Z" fill="#7BD573"/>
<path d="M70 44H69V45H70V44Z" fill="#7BD573"/>
<path d="M73 44H72V45H73V44Z" fill="#7BD573"/>
<path d="M74 44H73V45H74V44Z" fill="#7BD573"/>
<path d="M71 45H70V46H71V45Z" fill="#317B52"/>
<path d="M72 45H71V46H72V45Z" fill="#317B52"/>
<path d="M71 47H70V48H71V47Z" fill="#317B52"/>
<path d="M75 44H74V45H75V44Z" fill="#317B52"/>
<path d="M76 44H75V45H76V44Z" fill="#317B52"/>
<path d="M77 45H76V46H77V45Z" fill="#317B52"/>
<path d="M67 49H66V50H67V49Z" fill="#317B52"/>
<path d="M68 50H67V51H68V50Z" fill="#317B52"/>
<path d="M69 51H68V52H69V51Z" fill="#317B52"/>
<path d="M67 51H66V52H67V51Z" fill="#317B52"/>
<path d="M66 50H65V51H66V50Z" fill="#317B52"/>
<path d="M66 52H65V53H66V52Z" fill="#317B52"/>
<path d="M65 51H64V52H65V51Z" fill="#317B52"/>
<path d="M64 50H63V51H64V50Z" fill="#317B52"/>
<path d="M65 49H64V50H65V49Z" fill="#317B52"/>
<path d="M66 48H65V49H66V48Z" fill="#317B52"/>
<path d="M65 47H64V48H65V47Z" fill="#317B52"/>
<path d="M64 48H63V49H64V48Z" fill="#317B52"/>
<path d="M63 47H62V48H63V47Z" fill="#317B52"/>
<path d="M62 47H61V48H62V47Z" fill="#317B52"/>
<path d="M65 45H64V46H65V45Z" fill="#317B52"/>
<path d="M66 43H65V44H66V43Z" fill="#317B52"/>
<path d="M64 45H63V46H64V45Z" fill="#317B52"/>
<path d="M63 45H62V46H63V45Z" fill="#317B52"/>
<path d="M62 45H61V46H62V45Z" fill="#317B52"/>
<path d="M58 46H57V47H58V46Z" fill="#317B52"/>
<path d="M57 46H56V47H57V46Z" fill="#317B52"/>
<path d="M55 46H54V47H55V46Z" fill="#317B52"/>
<path d="M54 46H53V47H54V46Z" fill="#317B52"/>
<path d="M55 47H54V48H55V47Z" fill="#317B52"/>
<path d="M54 47H53V48H54V47Z" fill="#317B52"/>
<path d="M53 47H52V48H53V47Z" fill="#317B52"/>
<path d="M52 47H51V48H52V47Z" fill="#317B52"/>
<path d="M53 48H52V49H53V48Z" fill="#317B52"/>
<path d="M52 48H51V49H52V48Z" fill="#317B52"/>
<path d="M51 48H50V49H51V48Z" fill="#317B52"/>
<path d="M50 48H49V49H50V48Z" fill="#317B52"/>
<path d="M51 46H50V47H51V46Z" fill="#317B52"/>
<path d="M50 46H49V47H50V46Z" fill="#317B52"/>
<path d="M51 45H50V46H51V45Z" fill="#317B52"/>
<path d="M50 45H49V46H50V45Z" fill="#317B52"/>
<path d="M49 46H48V47H49V46Z" fill="#317B52"/>
<path d="M49 45H48V46H49V45Z" fill="#317B52"/>
<path d="M48 46H47V47H48V46Z" fill="#317B52"/>
<path d="M48 45H47V46H48V45Z" fill="#317B52"/>
<path d="M47 46H46V47H47V46Z" fill="#317B52"/>
<path d="M49 47H48V48H49V47Z" fill="#317B52"/>
<path d="M48 47H47V48H48V47Z" fill="#317B52"/>
<path d="M49 48H48V49H49V48Z" fill="#317B52"/>
<path d="M49 49H48V50H49V49Z" fill="#317B52"/>
<path d="M48 48H47V49H48V48Z" fill="#317B52"/>
<path d="M47 47H46V48H47V47Z" fill="#317B52"/>
<path d="M46 48H45V49H46V48Z" fill="#317B52"/>
<path d="M44 47H43V48H44V47Z" fill="#317B52"/>
<path d="M43 48H42V49H43V48Z" fill="#317B52"/>
<path d="M42 48H41V49H42V48Z" fill="#317B52"/>
<path d="M41 48H40V49H41V48Z" fill="#317B52"/>
<path d="M40 48H39V49H40V48Z" fill="#317B52"/>
<path d="M39 48H38V49H39V48Z" fill="#317B52"/>
<path d="M42 47H41V48H42V47Z" fill="#317B52"/>
<path d="M41 47H40V48H41V47Z" fill="#317B52"/>
<path d="M40 47H39V48H40V47Z" fill="#317B52"/>
<path d="M39 47H38V48H39V47Z" fill="#317B52"/>
<path d="M42 46H41V47H42V46Z" fill="#317B52"/>
<path d="M41 46H40V47H41V46Z" fill="#317B52"/>
<path d="M40 46H39V47H40V46Z" fill="#317B52"/>
<path d="M39 46H38V47H39V46Z" fill="#317B52"/>
<path d="M38 46H37V47H38V46Z" fill="#317B52"/>
<path d="M37 46H36V47H37V46Z" fill="#317B52"/>
<path d="M36 46H35V47H36V46Z" fill="#317B52"/>
<path d="M37 45H36V46H37V45Z" fill="#317B52"/>
<path d="M36 45H35V46H36V45Z" fill="#317B52"/>
<path d="M35 45H34V46H35V45Z" fill="#317B52"/>
<path d="M34 46H33V47H34V46Z" fill="#317B52"/>
<path d="M34 47H33V48H34V47Z" fill="#317B52"/>
<path d="M33 46H32V47H33V46Z" fill="#317B52"/>
<path d="M33 47H32V48H33V47Z" fill="#317B52"/>
<path d="M32 46H31V47H32V46Z" fill="#317B52"/>
<path d="M31 46H30V47H31V46Z" fill="#317B52"/>
<path d="M32 47H31V48H32V47Z" fill="#317B52"/>
<path d="M33 48H32V49H33V48Z" fill="#317B52"/>
<path d="M32 48H31V49H32V48Z" fill="#317B52"/>
<path d="M32 49H31V50H32V49Z" fill="#317B52"/>
<path d="M31 49H30V50H31V49Z" fill="#317B52"/>
<path d="M32 50H31V51H32V50Z" fill="#317B52"/>
<path d="M31 50H30V51H31V50Z" fill="#317B52"/>
<path d="M30 47H29V48H30V47Z" fill="#317B52"/>
<path d="M29 47H28V48H29V47Z" fill="#317B52"/>
<path d="M28 48H27V49H28V48Z" fill="#317B52"/>
<path d="M27 48H26V49H27V48Z" fill="#317B52"/>
<path d="M28 47H27V48H28V47Z" fill="#317B52"/>
<path d="M27 47H26V48H27V47Z" fill="#317B52"/>
<path d="M26 48H25V49H26V48Z" fill="#317B52"/>
<path d="M26 47H25V48H26V47Z" fill="#317B52"/>
<path d="M25 45H24V46H25V45Z" fill="#317B52"/>
<path d="M25 42H24V43H25V42Z" fill="#317B52"/>
<path d="M26 40H25V41H26V40Z" fill="#317B52"/>
<path d="M33 43H32V44H33V43Z" fill="#317B52"/>
<path d="M34 43H33V44H34V43Z" fill="#317B52"/>
<path d="M32 40H31V41H32V40Z" fill="#317B52"/>
<path d="M31 40H30V41H31V40Z" fill="#317B52"/>
<path d="M33 40H32V41H33V40Z" fill="#317B52"/>
<path d="M29 39H28V40H29V39Z" fill="#317B52"/>
<path d="M28 39H27V40H28V39Z" fill="#317B52"/>
<path d="M30 39H29V40H30V39Z" fill="#317B52"/>
<path d="M24 39H23V40H24V39Z" fill="#317B52"/>
<path d="M23 39H22V40H23V39Z" fill="#317B52"/>
<path d="M25 39H24V40H25V39Z" fill="#317B52"/>
<path d="M28 46H27V47H28V46Z" fill="#317B52"/>
<path d="M27 46H26V47H27V46Z" fill="#317B52"/>
<path d="M40 45H39V46H40V45Z" fill="#317B52"/>
<path d="M41 45H40V46H41V45Z" fill="#317B52"/>
<path d="M39 45H38V46H39V45Z" fill="#317B52"/>
<path d="M38 45H37V46H38V45Z" fill="#317B52"/>
<path d="M37 44H36V45H37V44Z" fill="#317B52"/>
<path d="M36 44H35V45H36V44Z" fill="#317B52"/>
<path d="M40 44H39V45H40V44Z" fill="#317B52"/>
<path d="M39 44H38V45H39V44Z" fill="#317B52"/>
<path d="M38 44H37V45H38V44Z" fill="#317B52"/>
<path d="M37 43H36V44H37V43Z" fill="#317B52"/>
<path d="M40 43H39V44H40V43Z" fill="#317B52"/>
<path d="M39 43H38V44H39V43Z" fill="#317B52"/>
<path d="M38 43H37V44H38V43Z" fill="#317B52"/>
<path d="M37 42H36V43H37V42Z" fill="#317B52"/>
<path d="M40 42H39V43H40V42Z" fill="#317B52"/>
<path d="M39 42H38V43H39V42Z" fill="#317B52"/>
<path d="M38 42H37V43H38V42Z" fill="#317B52"/>
<path d="M37 41H36V42H37V41Z" fill="#317B52"/>
<path d="M37 40H36V41H37V40Z" fill="#317B52"/>
<path d="M36 42H35V43H36V42Z" fill="#317B52"/>
<path d="M36 41H35V42H36V41Z" fill="#317B52"/>
<path d="M35 41H34V42H35V41Z" fill="#317B52"/>
<path d="M40 41H39V42H40V41Z" fill="#317B52"/>
<path d="M39 41H38V42H39V41Z" fill="#317B52"/>
<path d="M40 40H39V41H40V40Z" fill="#317B52"/>
<path d="M40 39H39V40H40V39Z" fill="#317B52"/>
<path d="M41 43H40V44H41V43Z" fill="#317B52"/>
<path d="M41 42H40V43H41V42Z" fill="#317B52"/>
<path d="M41 41H40V42H41V41Z" fill="#317B52"/>
<path d="M42 43H41V44H42V43Z" fill="#317B52"/>
<path d="M42 44H41V45H42V44Z" fill="#317B52"/>
<path d="M42 42H41V43H42V42Z" fill="#317B52"/>
<path d="M42 41H41V42H42V41Z" fill="#317B52"/>
<path d="M43 43H42V44H43V43Z" fill="#317B52"/>
<path d="M43 42H42V43H43V42Z" fill="#317B52"/>
<path d="M43 41H42V42H43V41Z" fill="#317B52"/>
<path d="M44 43H43V44H44V43Z" fill="#317B52"/>
<path d="M43 44H42V45H43V44Z" fill="#317B52"/>
<path d="M44 44H43V45H44V44Z" fill="#317B52"/>
<path d="M45 43H44V44H45V43Z" fill="#317B52"/>
<path d="M45 44H44V45H45V44Z" fill="#317B52"/>
<path d="M46 43H45V44H46V43Z" fill="#317B52"/>
<path d="M46 44H45V45H46V44Z" fill="#317B52"/>
<path d="M47 43H46V44H47V43Z" fill="#317B52"/>
<path d="M48 43H47V44H48V43Z" fill="#317B52"/>
<path d="M48 42H47V43H48V42Z" fill="#317B52"/>
<path d="M49 42H48V43H49V42Z" fill="#317B52"/>
<path d="M47 44H46V45H47V44Z" fill="#317B52"/>
<path d="M43 45H42V46H43V45Z" fill="#317B52"/>
<path d="M44 45H43V46H44V45Z" fill="#317B52"/>
<path d="M44 42H43V43H44V42Z" fill="#317B52"/>
<path d="M44 41H43V42H44V41Z" fill="#317B52"/>
<path d="M43 40H42V41H43V40Z" fill="#317B52"/>
<path d="M44 40H43V41H44V40Z" fill="#317B52"/>
<path d="M41 40H40V41H41V40Z" fill="#317B52"/>
<path d="M41 39H40V40H41V39Z" fill="#317B52"/>
<path d="M39 40H38V41H39V40Z" fill="#317B52"/>
<path d="M38 41H37V42H38V41Z" fill="#317B52"/>
<path d="M40 49H39V50H40V49Z" fill="#317B52"/>
<path d="M39 49H38V50H39V49Z" fill="#317B52"/>
<path d="M38 48H37V49H38V48Z" fill="#317B52"/>
<path d="M37 48H36V49H37V48Z" fill="#317B52"/>
<path d="M47 45H46V46H47V45Z" fill="#317B52"/>
<path d="M46 46H45V47H46V46Z" fill="#317B52"/>
<path d="M46 45H45V46H46V45Z" fill="#317B52"/>
<path d="M45 46H44V47H45V46Z" fill="#317B52"/>
<path d="M45 45H44V46H45V45Z" fill="#317B52"/>
<path d="M51 44H50V45H51V44Z" fill="#317B52"/>
<path d="M52 45H51V46H52V45Z" fill="#317B52"/>
<path d="M52 44H51V45H52V44Z" fill="#317B52"/>
<path d="M53 45H52V46H53V45Z" fill="#317B52"/>
<path d="M53 44H52V45H53V44Z" fill="#317B52"/>
<path d="M50 44H49V45H50V44Z" fill="#317B52"/>
<path d="M61 46H60V47H61V46Z" fill="#317B52"/>
<path d="M60 45H59V46H60V45Z" fill="#317B52"/>
<path d="M59 45H58V46H59V45Z" fill="#317B52"/>
<path d="M64 44H63V45H64V44Z" fill="#317B52"/>
<path d="M63 44H62V45H63V44Z" fill="#317B52"/>
<path d="M62 48H61V49H62V48Z" fill="#317B52"/>
<path d="M63 49H62V50H63V49Z" fill="#317B52"/>
<path d="M63 51H62V52H63V51Z" fill="#317B52"/>
<path d="M63 52H62V53H63V52Z" fill="#317B52"/>
<path d="M63 53H62V54H63V53Z" fill="#317B52"/>
<path d="M62 51H61V52H62V51Z" fill="#317B52"/>
<path d="M62 50H61V51H62V50Z" fill="#317B52"/>
<path d="M62 52H61V53H62V52Z" fill="#317B52"/>
<path d="M61 51H60V52H61V51Z" fill="#317B52"/>
<path d="M61 50H60V51H61V50Z" fill="#317B52"/>
<path d="M61 52H60V53H61V52Z" fill="#317B52"/>
<path d="M60 51H59V52H60V51Z" fill="#317B52"/>
<path d="M60 50H59V51H60V50Z" fill="#317B52"/>
<path d="M61 49H60V50H61V49Z" fill="#317B52"/>
<path d="M60 49H59V50H60V49Z" fill="#317B52"/>
<path d="M61 48H60V49H61V48Z" fill="#317B52"/>
<path d="M60 48H59V49H60V48Z" fill="#317B52"/>
<path d="M59 51H58V52H59V51Z" fill="#317B52"/>
<path d="M59 50H58V51H59V50Z" fill="#317B52"/>
<path d="M59 49H58V50H59V49Z" fill="#317B52"/>
<path d="M59 48H58V49H59V48Z" fill="#317B52"/>
<path d="M58 51H57V52H58V51Z" fill="#317B52"/>
<path d="M58 50H57V51H58V50Z" fill="#317B52"/>
<path d="M58 49H57V50H58V49Z" fill="#317B52"/>
<path d="M57 51H56V52H57V51Z" fill="#317B52"/>
<path d="M58 52H57V53H58V52Z" fill="#317B52"/>
<path d="M57 52H56V53H57V52Z" fill="#317B52"/>
<path d="M58 53H57V54H58V53Z" fill="#317B52"/>
<path d="M57 53H56V54H57V53Z" fill="#317B52"/>
<path d="M59 53H58V54H59V53Z" fill="#317B52"/>
<path d="M58 54H57V55H58V54Z" fill="#317B52"/>
<path d="M59 54H58V55H59V54Z" fill="#317B52"/>
<path d="M56 51H55V52H56V51Z" fill="#317B52"/>
<path d="M57 50H56V51H57V50Z" fill="#317B52"/>
<path d="M57 49H56V50H57V49Z" fill="#317B52"/>
<path d="M55 49H54V50H55V49Z" fill="#317B52"/>
<path d="M58 48H57V49H58V48Z" fill="#317B52"/>
<path d="M60 52H59V53H60V52Z" fill="#317B52"/>
<path d="M62 53H61V54H62V53Z" fill="#317B52"/>
<path d="M74 43H73V44H74V43Z" fill="#62AD59"/>
<path d="M73 45H72V46H73V45Z" fill="#62AD59"/>
<path d="M70 43H69V44H70V43Z" fill="#62AD59"/>
<path d="M69 44H68V45H69V44Z" fill="#62AD59"/>
<path d="M68 44H67V45H68V44Z" fill="#62AD59"/>
<path d="M68 43H67V44H68V43Z" fill="#62AD59"/>
<path d="M67 43H66V44H67V43Z" fill="#62AD59"/>
<path d="M67 44H66V45H67V44Z" fill="#62AD59"/>
<path d="M66 44H65V45H66V44Z" fill="#62AD59"/>
<path d="M66 45H65V46H66V45Z" fill="#62AD59"/>
<path d="M67 45H66V46H67V45Z" fill="#62AD59"/>
<path d="M68 46H67V47H68V46Z" fill="#62AD59"/>
<path d="M66 47H65V48H66V47Z" fill="#62AD59"/>
<path d="M67 48H66V49H67V48Z" fill="#62AD59"/>
<path d="M66 49H65V50H66V49Z" fill="#62AD59"/>
<path d="M65 48H64V49H65V48Z" fill="#62AD59"/>
<path d="M64 47H63V48H64V47Z" fill="#62AD59"/>
<path d="M63 48H62V49H63V48Z" fill="#62AD59"/>
<path d="M62 49H61V50H62V49Z" fill="#62AD59"/>
<path d="M49 41H48V42H49V41Z" fill="#62AD59"/>
<path d="M51 43H50V44H51V43Z" fill="#62AD59"/>
<path d="M52 43H51V44H52V43Z" fill="#62AD59"/>
<path d="M47 42H46V43H47V42Z" fill="#62AD59"/>
<path d="M39 39H38V40H39V39Z" fill="#62AD59"/>
<path d="M36 40H35V41H36V40Z" fill="#62AD59"/>
<path d="M32 45H31V46H32V45Z" fill="#62AD59"/>
<path d="M35 44H34V45H35V44Z" fill="#62AD59"/>
<path d="M31 45H30V46H31V45Z" fill="#62AD59"/>
<path d="M30 45H29V46H30V45Z" fill="#62AD59"/>
<path d="M29 45H28V46H29V45Z" fill="#62AD59"/>
<path d="M30 46H29V47H30V46Z" fill="#62AD59"/>
<path d="M29 46H28V47H29V46Z" fill="#62AD59"/>
<path d="M28 45H27V46H28V45Z" fill="#62AD59"/>
<path d="M29 44H28V45H29V44Z" fill="#62AD59"/>
<path d="M28 44H27V45H28V44Z" fill="#62AD59"/>
<path d="M27 44H26V45H27V44Z" fill="#62AD59"/>
<path d="M26 44H25V45H26V44Z" fill="#62AD59"/>
<path d="M25 44H24V45H25V44Z" fill="#62AD59"/>
<path d="M26 43H25V44H26V43Z" fill="#62AD59"/>
<path d="M25 43H24V44H25V43Z" fill="#62AD59"/>
<path d="M24 44H23V45H24V44Z" fill="#62AD59"/>
<path d="M23 44H22V45H23V44Z" fill="#62AD59"/>
<path d="M23 45H22V46H23V45Z" fill="#62AD59"/>
<path d="M24 45H23V46H24V45Z" fill="#62AD59"/>
<path d="M64 49H63V50H64V49Z" fill="#62AD59"/>
<path d="M65 50H64V51H65V50Z" fill="#62AD59"/>
<path d="M66 51H65V52H66V51Z" fill="#62AD59"/>
<path d="M65 52H64V53H65V52Z" fill="#62AD59"/>
<path d="M64 51H63V52H64V51Z" fill="#62AD59"/>
<path d="M45 60H44V61H45V60Z" fill="#D5415A"/>
<path d="M45 61H44V62H45V61Z" fill="#D5415A"/>
<path d="M45 62H44V63H45V62Z" fill="#D5415A"/>
<path d="M44 63H43V64H44V63Z" fill="#D5415A"/>
<path d="M43 62H42V63H43V62Z" fill="#D5415A"/>
<path d="M32 59H31V60H32V59Z" fill="#D5415A"/>
<path d="M32 60H31V61H32V60Z" fill="#D5415A"/>
<path d="M58 73H57V74H58V73Z" fill="white"/>
<path d="M56 73H55V74H56V73Z" fill="white"/>
<path d="M54 72H53V73H54V72Z" fill="white"/>
<path d="M46 66H45V67H46V66Z" fill="white"/>
<path d="M32 65H31V66H32V65Z" fill="white"/>
<path d="M29 71H28V72H29V71Z" fill="white"/>
<path d="M27 70H26V71H27V70Z" fill="white"/>
<path d="M46 59H45V60H46V59Z" fill="white"/>
<path d="M46 60H45V61H46V60Z" fill="white"/>
<path d="M46 61H45V62H46V61Z" fill="white"/>
<path d="M46 62H45V63H46V62Z" fill="white"/>
<path d="M47 60H46V61H47V60Z" fill="white"/>
<path d="M47 61H46V62H47V61Z" fill="white"/>
<path d="M47 62H46V63H47V62Z" fill="white"/>
<path d="M46 63H45V64H46V63Z" fill="white"/>
<path d="M72 68H71V69H72V68Z" fill="white"/>
<path d="M70 69H69V70H70V69Z" fill="white"/>
<path d="M67 69H66V70H67V69Z" fill="white"/>
<path d="M33 62H32V63H33V62Z" fill="white"/>
<path d="M54 29H53V30H54V29Z" fill="#101010"/>
<path d="M55 31H54V32H55V31Z" fill="#101010"/>
<path d="M56 33H55V34H56V33Z" fill="#101010"/>
<path d="M56 34H55V35H56V34Z" fill="#101010"/>
<path d="M60 31H59V32H60V31Z" fill="#101010"/>
<path d="M60 32H59V33H60V32Z" fill="#101010"/>
<path d="M61 33H60V34H61V33Z" fill="#101010"/>
<path d="M61 34H60V35H61V34Z" fill="#101010"/>
<path d="M61 35H60V36H61V35Z" fill="#101010"/>
<path d="M56 35H55V36H56V35Z" fill="#101010"/>
<path d="M45 40H44V41H45V40Z" fill="#101010"/>
<path d="M45 41H44V42H45V41Z" fill="#101010"/>
<path d="M49 50H48V51H49V50Z" fill="#101010"/>
<path d="M52 49H51V50H52V49Z" fill="#101010"/>
<path d="M53 49H52V50H53V49Z" fill="#101010"/>
<path d="M54 49H53V50H54V49Z" fill="#101010"/>
<path d="M55 45H54V46H55V45Z" fill="#101010"/>
<path d="M56 46H55V47H56V46Z" fill="#101010"/>
<path d="M56 47H55V48H56V47Z" fill="#101010"/>
<path d="M59 46H58V47H59V46Z" fill="#101010"/>
<path d="M60 46H59V47H60V46Z" fill="#101010"/>
<path d="M61 45H60V46H61V45Z" fill="#101010"/>
<path d="M64 43H63V44H64V43Z" fill="#101010"/>
<path d="M65 43H64V44H65V43Z" fill="#101010"/>
<path d="M79 44H78V45H79V44Z" fill="#101010"/>
<path d="M79 47H78V48H79V47Z" fill="#101010"/>
<path d="M78 48H77V49H78V48Z" fill="#101010"/>
<path d="M76 48H75V49H76V48Z" fill="#101010"/>
<path d="M75 50H74V51H75V50Z" fill="#101010"/>
<path d="M74 50H73V51H74V50Z" fill="#101010"/>
<path d="M73 50H72V51H73V50Z" fill="#101010"/>
<path d="M71 52H70V53H71V52Z" fill="#101010"/>
<path d="M71 60H70V61H71V60Z" fill="#101010"/>
<path d="M71 61H70V62H71V61Z" fill="#101010"/>
<path d="M71 62H70V63H71V62Z" fill="#101010"/>
<path d="M72 63H71V64H72V63Z" fill="#101010"/>
<path d="M72 64H71V65H72V64Z" fill="#101010"/>
<path d="M72 65H71V66H72V65Z" fill="#101010"/>
<path d="M63 66H62V67H63V66Z" fill="#101010"/>
<path d="M63 67H62V68H63V67Z" fill="#101010"/>
<path d="M62 64H61V65H62V64Z" fill="#101010"/>
<path d="M62 65H61V66H62V65Z" fill="#101010"/>
<path d="M65 67H64V68H65V67Z" fill="#101010"/>
<path d="M65 68H64V69H65V68Z" fill="#101010"/>
<path d="M62 70H61V71H62V70Z" fill="#101010"/>
<path d="M62 71H61V72H62V71Z" fill="#101010"/>
<path d="M70 71V70H69V71H70Z" fill="#101010"/>
<path d="M69 71V70H68V71H69Z" fill="#101010"/>
<path d="M60 74V73H59V74H60Z" fill="#101010"/>
<path d="M59 74V73H58V74H59Z" fill="#101010"/>
<path d="M55 74V73H54V74H55Z" fill="#101010"/>
<path d="M55 71V70H54V71H55Z" fill="#101010"/>
<path d="M53 69V68H52V69H53Z" fill="#101010"/>
<path d="M46 71V70H45V71H46Z" fill="#101010"/>
<path d="M45 71V70H44V71H45Z" fill="#101010"/>
<path d="M44 71V70H43V71H44Z" fill="#101010"/>
<path d="M43 71V70H42V71H43Z" fill="#101010"/>
<path d="M42 71V70H41V71H42Z" fill="#101010"/>
<path d="M41 71V70H40V71H41Z" fill="#101010"/>
<path d="M40 71V70H39V71H40Z" fill="#101010"/>
<path d="M45 66V65H44V66H45Z" fill="#101010"/>
<path d="M46 66V65H45V66H46Z" fill="#101010"/>
<path d="M44 66V65H43V66H44Z" fill="#101010"/>
<path d="M43 66V65H42V66H43Z" fill="#101010"/>
<path d="M42 66V65H41V66H42Z" fill="#101010"/>
<path d="M31 65V64H30V65H31Z" fill="#101010"/>
<path d="M30 64V63H29V64H30Z" fill="#101010"/>
<path d="M33 61V60H32V61H33Z" fill="#101010"/>
<path d="M33 62V61H32V62H33Z" fill="#101010"/>
<path d="M44 61V60H43V61H44Z" fill="#101010"/>
<path d="M44 62V61H43V62H44Z" fill="#101010"/>
<path d="M44 63V62H43V63H44Z" fill="#101010"/>
<path d="M38 70V69H37V70H38Z" fill="#101010"/>
<path d="M37 70V69H36V70H37Z" fill="#101010"/>
<path d="M31 73V72H30V73H31Z" fill="#101010"/>
<path d="M35 68V67H34V68H35Z" fill="#101010"/>
<path d="M36 69V68H35V69H36Z" fill="#101010"/>
<path d="M36 71V70H35V71H36Z" fill="#101010"/>
<path d="M30 73V72H29V73H30Z" fill="#101010"/>
<path d="M29 73V72H28V73H29Z" fill="#101010"/>
<path d="M28 73V72H27V73H28Z" fill="#101010"/>
<path d="M28 72V71H27V72H28Z" fill="#101010"/>
<path d="M27 72V71H26V72H27Z" fill="#101010"/>
<path d="M54 74V73H53V74H54Z" fill="#101010"/>
<path d="M57 75V74H56V75H57Z" fill="#101010"/>
<path d="M58 75V74H57V75H58Z" fill="#101010"/>
<path d="M66 70V69H65V70H66Z" fill="#101010"/>
<path d="M67 71V70H66V71H67Z" fill="#101010"/>
<path d="M68 70V69H67V70H68Z" fill="#101010"/>
<path d="M72 70V69H71V70H72Z" fill="#101010"/>
<path d="M56 75V74H55V75H56Z" fill="#101010"/>
<path d="M63 68H62V69H63V68Z" fill="#101010"/>
<path d="M63 69H62V70H63V69Z" fill="#101010"/>
<path d="M73 66H72V67H73V66Z" fill="#101010"/>
<path d="M73 67H72V68H73V67Z" fill="#101010"/>
<path d="M73 68H72V69H73V68Z" fill="#101010"/>
<path d="M70 52H69V53H70V52Z" fill="#101010"/>
<path d="M68 52H67V53H68V52Z" fill="#101010"/>
<path d="M67 52H66V53H67V52Z" fill="#101010"/>
<path d="M66 53H65V54H66V53Z" fill="#101010"/>
<path d="M65 53H64V54H65V53Z" fill="#101010"/>
<path d="M64 53H63V54H64V53Z" fill="#101010"/>
<path d="M63 54H62V55H63V54Z" fill="#101010"/>
<path d="M62 54H61V55H62V54Z" fill="#101010"/>
<path d="M59 55H58V56H59V55Z" fill="#101010"/>
<path d="M60 54H59V55H60V54Z" fill="#101010"/>
<path d="M61 53H60V54H61V53Z" fill="#101010"/>
<path d="M58 55H57V56H58V55Z" fill="#101010"/>
<path d="M53 54H52V55H53V54Z" fill="#101010"/>
<path d="M52 54H51V55H52V54Z" fill="#101010"/>
<path d="M51 54H50V55H51V54Z" fill="#101010"/>
<path d="M53 53H52V54H53V53Z" fill="#101010"/>
<path d="M52 53H51V54H52V53Z" fill="#101010"/>
<path d="M53 52H52V53H53V52Z" fill="#101010"/>
<path d="M53 51H52V52H53V51Z" fill="#101010"/>
<path d="M55 54H54V55H55V54Z" fill="#101010"/>
<path d="M55 53H54V54H55V53Z" fill="#101010"/>
<path d="M55 52H54V53H55V52Z" fill="#101010"/>
<path d="M55 51H54V52H55V51Z" fill="#101010"/>
<path d="M55 50H54V51H55V50Z" fill="#101010"/>
<path d="M57 54H56V55H57V54Z" fill="#101010"/>
<path d="M52 52H51V53H52V52Z" fill="#101010"/>
<path d="M51 53H50V54H51V53Z" fill="#101010"/>
<path d="M50 54H49V55H50V54Z" fill="#101010"/>
<path d="M73 49H72V50H73V49Z" fill="#101010"/>
<path d="M34 40H33V41H34V40Z" fill="#101010"/>
<path d="M23 41H22V42H23V41Z" fill="#101010"/>
<path d="M22 41H21V42H22V41Z" fill="#101010"/>
<path d="M23 46H22V47H23V46Z" fill="#101010"/>
<path d="M22 45H21V46H22V45Z" fill="#101010"/>
<path d="M24 46H23V47H24V46Z" fill="#101010"/>
<path d="M25 48H24V49H25V48Z" fill="#101010"/>
<path d="M26 49H25V50H26V49Z" fill="#101010"/>
<path d="M27 49H26V50H27V49Z" fill="#101010"/>
<path d="M33 50H32V51H33V50Z" fill="#101010"/>
<path d="M34 48H33V49H34V48Z" fill="#101010"/>
<path d="M35 48H34V49H35V48Z" fill="#101010"/>
<path d="M36 48H35V49H36V48Z" fill="#101010"/>
<path d="M36 49H35V50H36V49Z" fill="#101010"/>
<path d="M42 49H41V50H42V49Z" fill="#101010"/>
<path d="M43 49H42V50H43V49Z" fill="#101010"/>
<path d="M44 49H43V50H44V49Z" fill="#101010"/>
<path d="M45 49H44V50H45V49Z" fill="#101010"/>
<path d="M46 49H45V50H46V49Z" fill="#101010"/>
<path d="M48 44H47V45H48V44Z" fill="#101010"/>
<path d="M50 43H49V44H50V43Z" fill="#101010"/>
<path d="M33 51H32V52H33V51Z" fill="#101010"/>
<path d="M33 52H32V53H33V52Z" fill="#101010"/>
<path d="M33 53H32V54H33V53Z" fill="#101010"/>
<path d="M34 41H33V42H34V41Z" fill="#101010"/>
<path d="M35 43H34V44H35V43Z" fill="#101010"/>
<path d="M34 44H33V45H34V44Z" fill="#101010"/>
<path d="M34 45H33V46H34V45Z" fill="#101010"/>
<path d="M48 28H47V29H48V28Z" fill="#FB7B7B"/>
<path d="M49 28H48V29H49V28Z" fill="#FB7B7B"/>
<path d="M49 29H48V30H49V29Z" fill="#FB7B7B"/>
<path d="M51 30H50V31H51V30Z" fill="#FB7B7B"/>
<path d="M53 27H52V28H53V27Z" fill="#FB7B7B"/>
<path d="M54 28H53V29H54V28Z" fill="#FB7B7B"/>
<path d="M55 28H54V29H55V28Z" fill="#FB7B7B"/>
<path d="M56 28H55V29H56V28Z" fill="#FB7B7B"/>
<path d="M55 29H54V30H55V29Z" fill="#FB7B7B"/>
<path d="M56 29H55V30H56V29Z" fill="#FB7B7B"/>
<path d="M55 30H54V31H55V30Z" fill="#FB7B7B"/>
<path d="M56 30H55V31H56V30Z" fill="#FB7B7B"/>
<path d="M57 29H56V30H57V29Z" fill="#FB7B7B"/>
<path d="M57 30H56V31H57V30Z" fill="#FB7B7B"/>
<path d="M56 31H55V32H56V31Z" fill="#FB7B7B"/>
<path d="M57 31H56V32H57V31Z" fill="#FB7B7B"/>
<path d="M56 32H55V33H56V32Z" fill="#FB7B7B"/>
<path d="M57 32H56V33H57V32Z" fill="#FB7B7B"/>
<path d="M58 31H57V32H58V31Z" fill="#FB7B7B"/>
<path d="M58 32H57V33H58V32Z" fill="#FB7B7B"/>
<path d="M57 33H56V34H57V33Z" fill="#FB7B7B"/>
<path d="M58 33H57V34H58V33Z" fill="#FB7B7B"/>
<path d="M57 34H56V35H57V34Z" fill="#FB7B7B"/>
<path d="M57 35H56V36H57V35Z" fill="#FB7B7B"/>
<path d="M58 34H57V35H58V34Z" fill="#FB7B7B"/>
<path d="M59 31H58V32H59V31Z" fill="#FB7B7B"/>
<path d="M59 32H58V33H59V32Z" fill="#FB7B7B"/>
<path d="M51 31H50V32H51V31Z" fill="#FB7B7B"/>
<path d="M52 31H51V32H52V31Z" fill="#FB7B7B"/>
<path d="M51 32H50V33H51V32Z" fill="#FB7B7B"/>
<path d="M52 32H51V33H52V32Z" fill="#FB7B7B"/>
<path d="M51 33H50V34H51V33Z" fill="#FB7B7B"/>
<path d="M52 33H51V34H52V33Z" fill="#FB7B7B"/>
<path d="M51 34H50V35H51V34Z" fill="#FB7B7B"/>
<path d="M52 34H51V35H52V34Z" fill="#FB7B7B"/>
<path d="M51 35H50V36H51V35Z" fill="#FB7B7B"/>
<path d="M52 35H51V36H52V35Z" fill="#FB7B7B"/>
<path d="M51 36H50V37H51V36Z" fill="#FB7B7B"/>
<path d="M50 33H49V34H50V33Z" fill="#FB7B7B"/>
<path d="M50 34H49V35H50V34Z" fill="#FB7B7B"/>
<path d="M50 35H49V36H50V35Z" fill="#FB7B7B"/>
<path d="M50 36H49V37H50V36Z" fill="#FB7B7B"/>
<path d="M49 34H48V35H49V34Z" fill="#FB7B7B"/>
<path d="M49 35H48V36H49V35Z" fill="#FB7B7B"/>
<path d="M49 36H48V37H49V36Z" fill="#FB7B7B"/>
<path d="M48 35H47V36H48V35Z" fill="#FB7B7B"/>
<path d="M48 36H47V37H48V36Z" fill="#FB7B7B"/>
<path d="M47 35H46V36H47V35Z" fill="#FB7B7B"/>
<path d="M47 36H46V37H47V36Z" fill="#FB7B7B"/>
<path d="M51 37H50V38H51V37Z" fill="#FB7B7B"/>
<path d="M50 37H49V38H50V37Z" fill="#FB7B7B"/>
<path d="M49 37H48V38H49V37Z" fill="#FB7B7B"/>
<path d="M48 37H47V38H48V37Z" fill="#FB7B7B"/>
<path d="M47 37H46V38H47V37Z" fill="#FB7B7B"/>
<path d="M46 35H45V36H46V35Z" fill="#FB7B7B"/>
<path d="M46 36H45V37H46V36Z" fill="#FB7B7B"/>
<path d="M45 35H44V36H45V35Z" fill="#FB7B7B"/>
<path d="M45 36H44V37H45V36Z" fill="#FB7B7B"/>
<path d="M44 33H43V34H44V33Z" fill="#FB7B7B"/>
<path d="M44 34H43V35H44V34Z" fill="#FB7B7B"/>
<path d="M44 35H43V36H44V35Z" fill="#FB7B7B"/>
<path d="M45 34H44V35H45V34Z" fill="#FB7B7B"/>
<path d="M52 36H51V37H52V36Z" fill="#FB7B7B"/>
<path d="M53 32H52V33H53V32Z" fill="#FB7B7B"/>
<path d="M53 33H52V34H53V33Z" fill="#FB7B7B"/>
<path d="M53 34H52V35H53V34Z" fill="#FB7B7B"/>
<path d="M53 35H52V36H53V35Z" fill="#FB7B7B"/>
<path d="M53 36H52V37H53V36Z" fill="#FB7B7B"/>
<path d="M54 34H53V35H54V34Z" fill="#FB7B7B"/>
<path d="M54 35H53V36H54V35Z" fill="#FB7B7B"/>
<path d="M54 36H53V37H54V36Z" fill="#FB7B7B"/>
<path d="M47 27H46V28H47V27Z" fill="#FCACA4"/>
<path d="M47 28H46V29H47V28Z" fill="#FCACA4"/>
<path d="M47 29H46V30H47V29Z" fill="#FCACA4"/>
<path d="M47 30H46V31H47V30Z" fill="#FCACA4"/>
<path d="M47 31H46V32H47V31Z" fill="#FCACA4"/>
<path d="M47 32H46V33H47V32Z" fill="#FCACA4"/>
<path d="M47 33H46V34H47V33Z" fill="#FCACA4"/>
<path d="M47 34H46V35H47V34Z" fill="#FCACA4"/>
<path d="M46 30H45V31H46V30Z" fill="#FCACA4"/>
<path d="M46 31H45V32H46V31Z" fill="#FCACA4"/>
<path d="M46 32H45V33H46V32Z" fill="#FCACA4"/>
<path d="M46 33H45V34H46V33Z" fill="#FCACA4"/>
<path d="M45 31H44V32H45V31Z" fill="#FCACA4"/>
<path d="M45 32H44V33H45V32Z" fill="#FCACA4"/>
<path d="M45 33H44V34H45V33Z" fill="#FCACA4"/>
<path d="M46 34H45V35H46V34Z" fill="#FCACA4"/>
<path d="M48 30H47V31H48V30Z" fill="#FCACA4"/>
<path d="M48 29H47V30H48V29Z" fill="#FCACA4"/>
<path d="M48 31H47V32H48V31Z" fill="#FCACA4"/>
<path d="M48 32H47V33H48V32Z" fill="#FCACA4"/>
<path d="M48 33H47V34H48V33Z" fill="#FCACA4"/>
<path d="M49 30H48V31H49V30Z" fill="#FCACA4"/>
<path d="M49 31H48V32H49V31Z" fill="#FCACA4"/>
<path d="M49 32H48V33H49V32Z" fill="#FCACA4"/>
<path d="M50 30H49V31H50V30Z" fill="#FCACA4"/>
<path d="M50 31H49V32H50V31Z" fill="#FCACA4"/>
<path d="M50 28H49V29H50V28Z" fill="#FCACA4"/>
<path d="M50 29H49V30H50V29Z" fill="#FCACA4"/>
<path d="M54 26H53V27H54V26Z" fill="#FCACA4"/>
<path d="M54 27H53V28H54V27Z" fill="#FCACA4"/>
<path d="M55 27H54V28H55V27Z" fill="#FCACA4"/>
<path d="M50 32H49V33H50V32Z" fill="#FCACA4"/>
<path d="M49 33H48V34H49V33Z" fill="#FCACA4"/>
<path d="M48 34H47V35H48V34Z" fill="#FCACA4"/>
<path d="M48 27H47V28H48V27Z" fill="#D5415A"/>
<path d="M46 29H45V30H46V29Z" fill="#D5415A"/>
<path d="M45 30H44V31H45V30Z" fill="#D5415A"/>
<path d="M44 31H43V32H44V31Z" fill="#D5415A"/>
<path d="M44 32H43V33H44V32Z" fill="#D5415A"/>
<path d="M43 36H42V37H43V36Z" fill="#D5415A"/>
<path d="M44 36H43V37H44V36Z" fill="#D5415A"/>
<path d="M43 37H42V38H43V37Z" fill="#D5415A"/>
<path d="M44 37H43V38H44V37Z" fill="#D5415A"/>
<path d="M45 37H44V38H45V37Z" fill="#D5415A"/>
<path d="M46 37H45V38H46V37Z" fill="#D5415A"/>
<path d="M45 38H44V39H45V38Z" fill="#D5415A"/>
<path d="M46 38H45V39H46V38Z" fill="#D5415A"/>
<path d="M47 38H46V39H47V38Z" fill="#D5415A"/>
<path d="M48 38H47V39H48V38Z" fill="#D5415A"/>
<path d="M49 38H48V39H49V38Z" fill="#D5415A"/>
<path d="M50 38H49V39H50V38Z" fill="#D5415A"/>
<path d="M51 38H50V39H51V38Z" fill="#D5415A"/>
<path d="M52 38H51V39H52V38Z" fill="#D5415A"/>
<path d="M52 37H51V38H52V37Z" fill="#D5415A"/>
<path d="M53 37H52V38H53V37Z" fill="#D5415A"/>
<path d="M54 37H53V38H54V37Z" fill="#D5415A"/>
<path d="M55 37H54V38H55V37Z" fill="#D5415A"/>
<path d="M55 36H54V37H55V36Z" fill="#D5415A"/>
<path d="M55 33H54V34H55V33Z" fill="#D5415A"/>
<path d="M54 31H53V32H54V31Z" fill="#D5415A"/>
<path d="M53 30H52V31H53V30Z" fill="#D5415A"/>
<path d="M53 29H52V30H53V29Z" fill="#D5415A"/>
<path d="M52 29H51V30H52V29Z" fill="#D5415A"/>
<path d="M52 28H51V29H52V28Z" fill="#D5415A"/>
<path d="M52 27H51V28H52V27Z" fill="#D5415A"/>
<path d="M52 26H51V27H52V26Z" fill="#D5415A"/>
<path d="M51 26H50V27H51V26Z" fill="#D5415A"/>
<path d="M51 25H50V26H51V25Z" fill="#D5415A"/>
<path d="M50 26H49V27H50V26Z" fill="#D5415A"/>
<path d="M56 27H55V28H56V27Z" fill="#D5415A"/>
<path d="M58 30H57V31H58V30Z" fill="#D5415A"/>
<path d="M53 38H52V39H53V38Z" fill="#D5415A"/>
<path d="M54 38H53V39H54V38Z" fill="#D5415A"/>
<path d="M55 38H54V39H55V38Z" fill="#D5415A"/>
<path d="M46 39H45V40H46V39Z" fill="#D5415A"/>
<path d="M46 40H45V41H46V40Z" fill="#D5415A"/>
<path d="M47 39H46V40H47V39Z" fill="#D5415A"/>
<path d="M48 39H47V40H48V39Z" fill="#D5415A"/>
<path d="M49 39H48V40H49V39Z" fill="#D5415A"/>
<path d="M50 39H49V40H50V39Z" fill="#D5415A"/>
<path d="M50 40H49V41H50V40Z" fill="#D5415A"/>
<path d="M51 39H50V40H51V39Z" fill="#D5415A"/>
<path d="M52 39H51V40H52V39Z" fill="#D5415A"/>
<path d="M53 39H52V40H53V39Z" fill="#D5415A"/>
<path d="M54 39H53V40H54V39Z" fill="#D5415A"/>
<path d="M55 39H54V40H55V39Z" fill="#D5415A"/>
<path d="M51 40H50V41H51V40Z" fill="#D5415A"/>
<path d="M52 40H51V41H52V40Z" fill="#D5415A"/>
<path d="M53 40H52V41H53V40Z" fill="#D5415A"/>
<path d="M54 40H53V41H54V40Z" fill="#D5415A"/>
<path d="M51 41H50V42H51V41Z" fill="#D5415A"/>
<path d="M52 41H51V42H52V41Z" fill="#D5415A"/>
<path d="M53 41H52V42H53V41Z" fill="#D5415A"/>
<path d="M54 41H53V42H54V41Z" fill="#D5415A"/>
<path d="M53 42H52V43H53V42Z" fill="#D5415A"/>
<path d="M54 42H53V43H54V42Z" fill="#D5415A"/>
<path d="M54 43H53V44H54V43Z" fill="#D5415A"/>
<path d="M55 40H54V41H55V40Z" fill="#D5415A"/>
<path d="M55 44H54V45H55V44Z" fill="#D5415A"/>
<path d="M56 44H55V45H56V44Z" fill="#D5415A"/>
<path d="M56 45H55V46H56V45Z" fill="#D5415A"/>
<path d="M57 44H56V45H57V44Z" fill="#D5415A"/>
<path d="M58 44H57V45H58V44Z" fill="#D5415A"/>
<path d="M56 43H55V44H56V43Z" fill="#D5415A"/>
<path d="M57 43H56V44H57V43Z" fill="#D5415A"/>
<path d="M58 43H57V44H58V43Z" fill="#D5415A"/>
<path d="M56 42H55V43H56V42Z" fill="#D5415A"/>
<path d="M57 42H56V43H57V42Z" fill="#D5415A"/>
<path d="M58 42H57V43H58V42Z" fill="#D5415A"/>
<path d="M56 41H55V42H56V41Z" fill="#D5415A"/>
<path d="M57 41H56V42H57V41Z" fill="#D5415A"/>
<path d="M58 41H57V42H58V41Z" fill="#D5415A"/>
<path d="M57 40H56V41H57V40Z" fill="#D5415A"/>
<path d="M58 40H57V41H58V40Z" fill="#D5415A"/>
<path d="M57 39H56V40H57V39Z" fill="#D5415A"/>
<path d="M58 39H57V40H58V39Z" fill="#D5415A"/>
<path d="M57 38H56V39H57V38Z" fill="#D5415A"/>
<path d="M58 38H57V39H58V38Z" fill="#D5415A"/>
<path d="M57 37H56V38H57V37Z" fill="#D5415A"/>
<path d="M58 37H57V38H58V37Z" fill="#D5415A"/>
<path d="M57 36H56V37H57V36Z" fill="#D5415A"/>
<path d="M58 36H57V37H58V36Z" fill="#D5415A"/>
<path d="M58 35H57V36H58V35Z" fill="#D5415A"/>
<path d="M59 43H58V44H59V43Z" fill="#D5415A"/>
<path d="M59 42H58V43H59V42Z" fill="#D5415A"/>
<path d="M59 41H58V42H59V41Z" fill="#D5415A"/>
<path d="M59 40H58V41H59V40Z" fill="#D5415A"/>
<path d="M59 39H58V40H59V39Z" fill="#D5415A"/>
<path d="M59 38H58V39H59V38Z" fill="#D5415A"/>
<path d="M59 37H58V38H59V37Z" fill="#D5415A"/>
<path d="M59 36H58V37H59V36Z" fill="#D5415A"/>
<path d="M59 35H58V36H59V35Z" fill="#D5415A"/>
<path d="M60 43H59V44H60V43Z" fill="#D5415A"/>
<path d="M60 42H59V43H60V42Z" fill="#D5415A"/>
<path d="M60 41H59V42H60V41Z" fill="#D5415A"/>
<path d="M60 40H59V41H60V40Z" fill="#D5415A"/>
<path d="M60 39H59V40H60V39Z" fill="#D5415A"/>
<path d="M60 38H59V39H60V38Z" fill="#D5415A"/>
<path d="M60 37H59V38H60V37Z" fill="#D5415A"/>
<path d="M60 36H59V37H60V36Z" fill="#D5415A"/>
<path d="M61 42H60V43H61V42Z" fill="#D5415A"/>
<path d="M61 41H60V42H61V41Z" fill="#D5415A"/>
<path d="M61 40H60V41H61V40Z" fill="#D5415A"/>
<path d="M61 39H60V40H61V39Z" fill="#D5415A"/>
<path d="M61 38H60V39H61V38Z" fill="#D5415A"/>
<path d="M61 37H60V38H61V37Z" fill="#D5415A"/>
<path d="M61 36H60V37H61V36Z" fill="#D5415A"/>
<path d="M60 35H59V36H60V35Z" fill="#D5415A"/>
<path d="M59 34H58V35H59V34Z" fill="#D5415A"/>
<path d="M60 34H59V35H60V34Z" fill="#D5415A"/>
<path d="M59 33H58V34H59V33Z" fill="#D5415A"/>
<path d="M60 33H59V34H60V33Z" fill="#D5415A"/>
<path d="M32 61H31V62H32V61Z" fill="#FB7B7B"/>
<path d="M32 62H31V63H32V62Z" fill="#FB7B7B"/>
<path d="M45 63H44V64H45V63Z" fill="#FB7B7B"/>
<path d="M43 63H42V64H43V63Z" fill="#FB7B7B"/>
<path d="M61 54H60V55H61V54Z" fill="#209483"/>
<path d="M33 54H32V55H33V54Z" fill="#209483"/>
<path d="M34 52H33V53H34V52Z" fill="#209483"/>
<path d="M35 51H34V52H35V51Z" fill="#209483"/>
<path d="M39 51H38V52H39V51Z" fill="#209483"/>
<path d="M40 51H39V52H40V51Z" fill="#209483"/>
<path d="M41 51H40V52H41V51Z" fill="#209483"/>
<path d="M39 52H38V53H39V52Z" fill="#209483"/>
<path d="M40 52H39V53H40V52Z" fill="#209483"/>
<path d="M41 52H40V53H41V52Z" fill="#209483"/>
<path d="M38 53H37V54H38V53Z" fill="#209483"/>
<path d="M38 52H37V53H38V52Z" fill="#209483"/>
<path d="M39 53H38V54H39V53Z" fill="#209483"/>
<path d="M37 54H36V55H37V54Z" fill="#209483"/>
<path d="M38 54H37V55H38V54Z" fill="#209483"/>
<path d="M40 53H39V54H40V53Z" fill="#209483"/>
<path d="M39 56H38V57H39V56Z" fill="#209483"/>
<path d="M40 56H39V57H40V56Z" fill="#209483"/>
<path d="M39 57H38V58H39V57Z" fill="#209483"/>
<path d="M40 57H39V58H40V57Z" fill="#209483"/>
<path d="M38 58H37V59H38V58Z" fill="#209483"/>
<path d="M38 57H37V58H38V57Z" fill="#209483"/>
<path d="M31 70H30V71H31V70Z" fill="#209483"/>
<path d="M31 69H30V70H31V69Z" fill="#209483"/>
<path d="M32 70H31V71H32V70Z" fill="#209483"/>
<path d="M32 69H31V70H32V69Z" fill="#209483"/>
<path d="M33 70H32V71H33V70Z" fill="#209483"/>
<path d="M31 71H30V72H31V71Z" fill="#209483"/>
<path d="M32 71H31V72H32V71Z" fill="#209483"/>
<path d="M33 71H32V72H33V71Z" fill="#209483"/>
<path d="M33 69H32V70H33V69Z" fill="#209483"/>
<path d="M33 68H32V69H33V68Z" fill="#209483"/>
<path d="M34 70H33V71H34V70Z" fill="#209483"/>
<path d="M34 69H33V70H34V69Z" fill="#209483"/>
<path d="M34 68H33V69H34V68Z" fill="#209483"/>
<path d="M34 67H33V68H34V67Z" fill="#209483"/>
<path d="M35 69H34V70H35V69Z" fill="#209483"/>
<path d="M36 69H35V70H36V69Z" fill="#209483"/>
<path d="M36 67H35V68H36V67Z" fill="#209483"/>
<path d="M37 67H36V68H37V67Z" fill="#209483"/>
<path d="M38 67H37V68H38V67Z" fill="#209483"/>
<path d="M39 67H38V68H39V67Z" fill="#209483"/>
<path d="M40 67H39V68H40V67Z" fill="#209483"/>
<path d="M41 67H40V68H41V67Z" fill="#209483"/>
<path d="M42 67H41V68H42V67Z" fill="#209483"/>
<path d="M43 67H42V68H43V67Z" fill="#209483"/>
<path d="M44 67H43V68H44V67Z" fill="#209483"/>
<path d="M41 66H40V67H41V66Z" fill="#209483"/>
<path d="M42 66H41V67H42V66Z" fill="#209483"/>
<path d="M43 66H42V67H43V66Z" fill="#209483"/>
<path d="M44 66H43V67H44V66Z" fill="#209483"/>
<path d="M45 67H44V68H45V67Z" fill="#209483"/>
<path d="M38 68H37V69H38V68Z" fill="#209483"/>
<path d="M39 68H38V69H39V68Z" fill="#209483"/>
<path d="M40 68H39V69H40V68Z" fill="#209483"/>
<path d="M41 68H40V69H41V68Z" fill="#209483"/>
<path d="M42 68H41V69H42V68Z" fill="#209483"/>
<path d="M43 68H42V69H43V68Z" fill="#209483"/>
<path d="M44 68H43V69H44V68Z" fill="#209483"/>
<path d="M45 68H44V69H45V68Z" fill="#209483"/>
<path d="M40 69H39V70H40V69Z" fill="#209483"/>
<path d="M41 69H40V70H41V69Z" fill="#209483"/>
<path d="M42 69H41V70H42V69Z" fill="#209483"/>
<path d="M43 69H42V70H43V69Z" fill="#209483"/>
<path d="M44 69H43V70H44V69Z" fill="#209483"/>
<path d="M45 69H44V70H45V69Z" fill="#209483"/>
<path d="M46 68H45V69H46V68Z" fill="#209483"/>
<path d="M47 68H46V69H47V68Z" fill="#209483"/>
<path d="M48 68H47V69H48V68Z" fill="#209483"/>
<path d="M49 68H48V69H49V68Z" fill="#209483"/>
<path d="M47 67H46V68H47V67Z" fill="#209483"/>
<path d="M48 67H47V68H48V67Z" fill="#209483"/>
<path d="M49 67H48V68H49V67Z" fill="#209483"/>
<path d="M49 66H48V67H49V66Z" fill="#209483"/>
<path d="M50 66H49V67H50V66Z" fill="#209483"/>
<path d="M51 66H50V67H51V66Z" fill="#209483"/>
<path d="M50 67H49V68H50V67Z" fill="#209483"/>
<path d="M51 67H50V68H51V67Z" fill="#209483"/>
<path d="M48 65H47V66H48V65Z" fill="#209483"/>
<path d="M49 65H48V66H49V65Z" fill="#209483"/>
<path d="M50 65H49V66H50V65Z" fill="#209483"/>
<path d="M50 64H49V65H50V64Z" fill="#209483"/>
<path d="M51 64H50V65H51V64Z" fill="#209483"/>
<path d="M52 64H51V65H52V64Z" fill="#209483"/>
<path d="M53 63H52V64H53V63Z" fill="#209483"/>
<path d="M54 63H53V64H54V63Z" fill="#209483"/>
<path d="M55 63H54V64H55V63Z" fill="#209483"/>
<path d="M53 64H52V65H53V64Z" fill="#209483"/>
<path d="M54 64H53V65H54V64Z" fill="#209483"/>
<path d="M55 64H54V65H55V64Z" fill="#209483"/>
<path d="M54 62H53V63H54V62Z" fill="#209483"/>
<path d="M55 62H54V63H55V62Z" fill="#209483"/>
<path d="M56 62H55V63H56V62Z" fill="#209483"/>
<path d="M54 61H53V62H54V61Z" fill="#209483"/>
<path d="M55 61H54V62H55V61Z" fill="#209483"/>
<path d="M56 61H55V62H56V61Z" fill="#209483"/>
<path d="M56 64H55V65H56V64Z" fill="#209483"/>
<path d="M51 65H50V66H51V65Z" fill="#209483"/>
<path d="M52 65H51V66H52V65Z" fill="#209483"/>
<path d="M52 66H51V67H52V66Z" fill="#209483"/>
<path d="M53 65H52V66H53V65Z" fill="#209483"/>
<path d="M54 65H53V66H54V65Z" fill="#209483"/>
<path d="M55 65H54V66H55V65Z" fill="#209483"/>
<path d="M56 65H55V66H56V65Z" fill="#209483"/>
<path d="M54 66H53V67H54V66Z" fill="#209483"/>
<path d="M55 66H54V67H55V66Z" fill="#209483"/>
<path d="M54 67H53V68H54V67Z" fill="#209483"/>
<path d="M53 67H52V68H53V67Z" fill="#209483"/>
<path d="M55 67H54V68H55V67Z" fill="#209483"/>
<path d="M54 68H53V69H54V68Z" fill="#209483"/>
<path d="M55 68H54V69H55V68Z" fill="#209483"/>
<path d="M56 66H55V67H56V66Z" fill="#209483"/>
<path d="M56 63H55V64H56V63Z" fill="#209483"/>
<path d="M54 60H53V61H54V60Z" fill="#209483"/>
<path d="M55 60H54V61H55V60Z" fill="#209483"/>
<path d="M56 60H55V61H56V60Z" fill="#209483"/>
<path d="M53 59H52V60H53V59Z" fill="#209483"/>
<path d="M54 59H53V60H54V59Z" fill="#209483"/>
<path d="M55 59H54V60H55V59Z" fill="#209483"/>
<path d="M53 58H52V59H53V58Z" fill="#209483"/>
<path d="M54 58H53V59H54V58Z" fill="#209483"/>
<path d="M55 58H54V59H55V58Z" fill="#209483"/>
<path d="M52 57H51V58H52V57Z" fill="#209483"/>
<path d="M53 57H52V58H53V57Z" fill="#209483"/>
<path d="M54 57H53V58H54V57Z" fill="#209483"/>
<path d="M55 57H54V58H55V57Z" fill="#209483"/>
<path d="M51 56H50V57H51V56Z" fill="#209483"/>
<path d="M52 56H51V57H52V56Z" fill="#209483"/>
<path d="M50 55H49V56H50V55Z" fill="#209483"/>
<path d="M51 55H50V56H51V55Z" fill="#209483"/>
<path d="M53 56H52V57H53V56Z" fill="#209483"/>
<path d="M54 56H53V57H54V56Z" fill="#209483"/>
<path d="M54 55H53V56H54V55Z" fill="#209483"/>
<path d="M54 54H53V55H54V54Z" fill="#209483"/>
<path d="M54 53H53V54H54V53Z" fill="#209483"/>
<path d="M54 52H53V53H54V52Z" fill="#209483"/>
<path d="M54 51H53V52H54V51Z" fill="#209483"/>
<path d="M54 50H53V51H54V50Z" fill="#209483"/>
<path d="M55 56H54V57H55V56Z" fill="#209483"/>
<path d="M56 59H55V60H56V59Z" fill="#209483"/>
<path d="M56 58H55V59H56V58Z" fill="#209483"/>
<path d="M56 57H55V58H56V57Z" fill="#209483"/>
<path d="M56 56H55V57H56V56Z" fill="#209483"/>
<path d="M56 55H55V56H56V55Z" fill="#209483"/>
<path d="M57 62H56V63H57V62Z" fill="#209483"/>
<path d="M57 61H56V62H57V61Z" fill="#209483"/>
<path d="M57 64H56V65H57V64Z" fill="#209483"/>
<path d="M57 65H56V66H57V65Z" fill="#209483"/>
<path d="M57 63H56V64H57V63Z" fill="#209483"/>
<path d="M57 60H56V61H57V60Z" fill="#209483"/>
<path d="M57 59H56V60H57V59Z" fill="#209483"/>
<path d="M57 58H56V59H57V58Z" fill="#209483"/>
<path d="M57 57H56V58H57V57Z" fill="#209483"/>
<path d="M57 56H56V57H57V56Z" fill="#209483"/>
<path d="M58 62H57V63H58V62Z" fill="#209483"/>
<path d="M58 61H57V62H58V61Z" fill="#209483"/>
<path d="M58 64H57V65H58V64Z" fill="#209483"/>
<path d="M58 63H57V64H58V63Z" fill="#209483"/>
<path d="M58 60H57V61H58V60Z" fill="#209483"/>
<path d="M58 59H57V60H58V59Z" fill="#209483"/>
<path d="M58 58H57V59H58V58Z" fill="#209483"/>
<path d="M58 57H57V58H58V57Z" fill="#209483"/>
<path d="M58 56H57V57H58V56Z" fill="#209483"/>
<path d="M59 62H58V63H59V62Z" fill="#209483"/>
<path d="M59 61H58V62H59V61Z" fill="#209483"/>
<path d="M59 64H58V65H59V64Z" fill="#209483"/>
<path d="M59 63H58V64H59V63Z" fill="#209483"/>
<path d="M59 60H58V61H59V60Z" fill="#209483"/>
<path d="M59 59H58V60H59V59Z" fill="#209483"/>
<path d="M59 58H58V59H59V58Z" fill="#209483"/>
<path d="M60 62H59V63H60V62Z" fill="#209483"/>
<path d="M60 61H59V62H60V61Z" fill="#209483"/>
<path d="M60 63H59V64H60V63Z" fill="#209483"/>
<path d="M60 60H59V61H60V60Z" fill="#209483"/>
<path d="M60 59H59V60H60V59Z" fill="#209483"/>
<path d="M61 61H60V62H61V61Z" fill="#209483"/>
<path d="M61 60H60V61H61V60Z" fill="#209483"/>
<path d="M61 59H60V60H61V59Z" fill="#209483"/>
<path d="M62 61H61V62H62V61Z" fill="#209483"/>
<path d="M62 60H61V61H62V60Z" fill="#209483"/>
<path d="M62 63H61V64H62V63Z" fill="#209483"/>
<path d="M62 62H61V63H62V62Z" fill="#209483"/>
<path d="M63 61H62V62H63V61Z" fill="#209483"/>
<path d="M63 63H62V64H63V63Z" fill="#209483"/>
<path d="M63 64H62V65H63V64Z" fill="#209483"/>
<path d="M63 62H62V63H63V62Z" fill="#209483"/>
<path d="M64 63H63V64H64V63Z" fill="#209483"/>
<path d="M64 62H63V63H64V62Z" fill="#209483"/>
<path d="M65 63H64V64H65V63Z" fill="#209483"/>
<path d="M65 64H64V65H65V64Z" fill="#209483"/>
<path d="M65 65H64V66H65V65Z" fill="#209483"/>
<path d="M65 66H64V67H65V66Z" fill="#209483"/>
<path d="M66 63H65V64H66V63Z" fill="#209483"/>
<path d="M66 64H65V65H66V64Z" fill="#209483"/>
<path d="M66 65H65V66H66V65Z" fill="#209483"/>
<path d="M66 66H65V67H66V66Z" fill="#209483"/>
<path d="M67 63H66V64H67V63Z" fill="#209483"/>
<path d="M67 64H66V65H67V64Z" fill="#209483"/>
<path d="M67 65H66V66H67V65Z" fill="#209483"/>
<path d="M67 66H66V67H67V66Z" fill="#209483"/>
<path d="M66 67H65V68H66V67Z" fill="#209483"/>
<path d="M66 68H65V69H66V68Z" fill="#209483"/>
<path d="M59 72H58V73H59V72Z" fill="#209483"/>
<path d="M58 72H57V73H58V72Z" fill="#209483"/>
<path d="M56 72H55V73H56V72Z" fill="#209483"/>
<path d="M55 72H54V73H55V72Z" fill="#209483"/>
<path d="M60 68H59V69H60V68Z" fill="#209483"/>
<path d="M59 68H58V69H59V68Z" fill="#209483"/>
<path d="M60 67H59V68H60V67Z" fill="#209483"/>
<path d="M59 67H58V68H59V67Z" fill="#209483"/>
<path d="M61 66H60V67H61V66Z" fill="#209483"/>
<path d="M61 67H60V68H61V67Z" fill="#209483"/>
<path d="M60 66H59V67H60V66Z" fill="#209483"/>
<path d="M67 67H66V68H67V67Z" fill="#209483"/>
<path d="M68 64H67V65H68V64Z" fill="#209483"/>
<path d="M68 65H67V66H68V65Z" fill="#209483"/>
<path d="M68 66H67V67H68V66Z" fill="#209483"/>
<path d="M68 67H67V68H68V67Z" fill="#209483"/>
<path d="M68 68H67V69H68V68Z" fill="#209483"/>
<path d="M69 65H68V66H69V65Z" fill="#209483"/>
<path d="M69 66H68V67H69V66Z" fill="#209483"/>
<path d="M69 67H68V68H69V67Z" fill="#209483"/>
<path d="M70 65H69V66H70V65Z" fill="#209483"/>
<path d="M70 66H69V67H70V66Z" fill="#209483"/>
<path d="M70 67H69V68H70V67Z" fill="#209483"/>
<path d="M71 65H70V66H71V65Z" fill="#209483"/>
<path d="M71 64H70V65H71V64Z" fill="#209483"/>
<path d="M70 60H69V61H70V60Z" fill="#209483"/>
<path d="M64 54H63V55H64V54Z" fill="#209483"/>
<path d="M65 54H64V55H65V54Z" fill="#209483"/>
<path d="M66 54H65V55H66V54Z" fill="#209483"/>
<path d="M64 55H63V56H64V55Z" fill="#209483"/>
<path d="M65 55H64V56H65V55Z" fill="#209483"/>
<path d="M66 55H65V56H66V55Z" fill="#209483"/>
<path d="M67 55H66V56H67V55Z" fill="#209483"/>
<path d="M64 56H63V57H64V56Z" fill="#209483"/>
<path d="M63 55H62V56H63V55Z" fill="#209483"/>
<path d="M62 55H61V56H62V55Z" fill="#209483"/>
<path d="M63 56H62V57H63V56Z" fill="#209483"/>
<path d="M64 57H63V58H64V57Z" fill="#209483"/>
<path d="M63 57H62V58H63V57Z" fill="#209483"/>
<path d="M65 56H64V57H65V56Z" fill="#209483"/>
<path d="M66 56H65V57H66V56Z" fill="#209483"/>
<path d="M71 66H70V67H71V66Z" fill="#209483"/>
<path d="M72 66H71V67H72V66Z" fill="#209483"/>
<path d="M71 67H70V68H71V67Z" fill="#209483"/>
<path d="M64 65H63V66H64V65Z" fill="#209483"/>
<path d="M65 62H64V63H65V62Z" fill="#209483"/>
<path d="M62 59H61V60H62V59Z" fill="#209483"/>
<path d="M60 58H59V59H60V58Z" fill="#209483"/>
<path d="M59 57H58V58H59V57Z" fill="#209483"/>
<path d="M59 56H58V57H59V56Z" fill="#209483"/>
<path d="M57 55H56V56H57V55Z" fill="#209483"/>
<path d="M56 54H55V55H56V54Z" fill="#209483"/>
<path d="M46 69H45V70H46V69Z" fill="#209483"/>
<path d="M35 68H34V69H35V68Z" fill="#209483"/>
<path d="M39 58H38V59H39V58Z" fill="#209483"/>
<path d="M42 51H41V52H42V51Z" fill="#209483"/>
<path d="M34 62H33V63H34V62Z" fill="#209483"/>
<path d="M34 64H33V65H34V64Z" fill="#209483"/>
<path d="M37 64H36V65H37V64Z" fill="#209483"/>
<path d="M40 61H39V62H40V61Z" fill="#209483"/>
<path d="M41 59H40V60H41V59Z" fill="#209483"/>
<path d="M42 58H41V59H42V58Z" fill="#209483"/>
<path d="M42 62H41V63H42V62Z" fill="#209483"/>
<path d="M40 65H39V66H40V65Z" fill="#209483"/>
<path d="M48 62H47V63H48V62Z" fill="#209483"/>
<path d="M47 58H46V59H47V58Z" fill="#209483"/>
<path d="M45 58H44V59H45V58Z" fill="#209483"/>
<path d="M47 50H46V51H47V50Z" fill="#209483"/>
<path d="M49 54H48V55H49V54Z" fill="#209483"/>
<path d="M51 52H50V53H51V52Z" fill="#209483"/>
<path d="M52 51H51V52H52V51Z" fill="#209483"/>
<path d="M31 63H30V64H31V63Z" fill="#209483"/>
<path d="M30 65H29V66H30V65Z" fill="#209483"/>
<path d="M29 66H28V67H29V66Z" fill="#209483"/>
<path d="M28 67H27V68H28V67Z" fill="#209483"/>
<path d="M28 70H27V71H28V70Z" fill="#209483"/>
<path d="M69 60H68V61H69V60Z" fill="#5ACDBD"/>
<path d="M69 59H68V60H69V59Z" fill="#5ACDBD"/>
<path d="M69 58H68V59H69V58Z" fill="#5ACDBD"/>
<path d="M68 60H67V61H68V60Z" fill="#5ACDBD"/>
<path d="M68 61H67V62H68V61Z" fill="#5ACDBD"/>
<path d="M68 59H67V60H68V59Z" fill="#5ACDBD"/>
<path d="M68 58H67V59H68V58Z" fill="#5ACDBD"/>
<path d="M68 57H67V58H68V57Z" fill="#5ACDBD"/>
<path d="M67 60H66V61H67V60Z" fill="#5ACDBD"/>
<path d="M67 61H66V62H67V61Z" fill="#5ACDBD"/>
<path d="M67 59H66V60H67V59Z" fill="#5ACDBD"/>
<path d="M67 58H66V59H67V58Z" fill="#5ACDBD"/>
<path d="M67 57H66V58H67V57Z" fill="#5ACDBD"/>
<path d="M67 56H66V57H67V56Z" fill="#5ACDBD"/>
<path d="M66 60H65V61H66V60Z" fill="#5ACDBD"/>
<path d="M66 61H65V62H66V61Z" fill="#5ACDBD"/>
<path d="M67 62H66V63H67V62Z" fill="#5ACDBD"/>
<path d="M66 62H65V63H66V62Z" fill="#5ACDBD"/>
<path d="M66 59H65V60H66V59Z" fill="#5ACDBD"/>
<path d="M66 58H65V59H66V58Z" fill="#5ACDBD"/>
<path d="M66 57H65V58H66V57Z" fill="#5ACDBD"/>
<path d="M65 60H64V61H65V60Z" fill="#5ACDBD"/>
<path d="M65 61H64V62H65V61Z" fill="#5ACDBD"/>
<path d="M65 59H64V60H65V59Z" fill="#5ACDBD"/>
<path d="M65 58H64V59H65V58Z" fill="#5ACDBD"/>
<path d="M64 60H63V61H64V60Z" fill="#5ACDBD"/>
<path d="M64 61H63V62H64V61Z" fill="#5ACDBD"/>
<path d="M64 59H63V60H64V59Z" fill="#5ACDBD"/>
<path d="M63 60H62V61H63V60Z" fill="#5ACDBD"/>
<path d="M63 59H62V60H63V59Z" fill="#5ACDBD"/>
<path d="M53 61H52V62H53V61Z" fill="#5ACDBD"/>
<path d="M53 62H52V63H53V62Z" fill="#5ACDBD"/>
<path d="M53 60H52V61H53V60Z" fill="#5ACDBD"/>
<path d="M57 67H56V68H57V67Z" fill="#5ACDBD"/>
<path d="M56 67H55V68H56V67Z" fill="#5ACDBD"/>
<path d="M57 68H56V69H57V68Z" fill="#5ACDBD"/>
<path d="M57 66H56V67H57V66Z" fill="#5ACDBD"/>
<path d="M58 67H57V68H58V67Z" fill="#5ACDBD"/>
<path d="M58 68H57V69H58V68Z" fill="#5ACDBD"/>
<path d="M58 66H57V67H58V66Z" fill="#5ACDBD"/>
<path d="M58 65H57V66H58V65Z" fill="#5ACDBD"/>
<path d="M59 65H58V66H59V65Z" fill="#5ACDBD"/>
<path d="M60 65H59V66H60V65Z" fill="#5ACDBD"/>
<path d="M61 65H60V66H61V65Z" fill="#5ACDBD"/>
<path d="M60 64H59V65H60V64Z" fill="#5ACDBD"/>
<path d="M61 64H60V65H61V64Z" fill="#5ACDBD"/>
<path d="M59 66H58V67H59V66Z" fill="#5ACDBD"/>
<path d="M58 70H57V71H58V70Z" fill="#5ACDBD"/>
<path d="M58 71H57V72H58V71Z" fill="#5ACDBD"/>
<path d="M58 69H57V70H58V69Z" fill="#5ACDBD"/>
<path d="M57 70H56V71H57V70Z" fill="#5ACDBD"/>
<path d="M57 71H56V72H57V71Z" fill="#5ACDBD"/>
<path d="M57 72H56V73H57V72Z" fill="#5ACDBD"/>
<path d="M57 69H56V70H57V69Z" fill="#5ACDBD"/>
<path d="M56 70H55V71H56V70Z" fill="#5ACDBD"/>
<path d="M56 71H55V72H56V71Z" fill="#5ACDBD"/>
<path d="M55 71H54V72H55V71Z" fill="#5ACDBD"/>
<path d="M56 69H55V70H56V69Z" fill="#5ACDBD"/>
<path d="M59 70H58V71H59V70Z" fill="#5ACDBD"/>
<path d="M59 71H58V72H59V71Z" fill="#5ACDBD"/>
<path d="M59 69H58V70H59V69Z" fill="#5ACDBD"/>
<path d="M60 70H59V71H60V70Z" fill="#5ACDBD"/>
<path d="M60 71H59V72H60V71Z" fill="#5ACDBD"/>
<path d="M60 72H59V73H60V72Z" fill="#5ACDBD"/>
<path d="M60 69H59V70H60V69Z" fill="#5ACDBD"/>
<path d="M61 70H60V71H61V70Z" fill="#5ACDBD"/>
<path d="M61 71H60V72H61V71Z" fill="#5ACDBD"/>
<path d="M61 69H60V70H61V69Z" fill="#5ACDBD"/>
<path d="M62 68H61V69H62V68Z" fill="#5ACDBD"/>
<path d="M62 69H61V70H62V69Z" fill="#5ACDBD"/>
<path d="M62 67H61V68H62V67Z" fill="#5ACDBD"/>
<path d="M62 66H61V67H62V66Z" fill="#5ACDBD"/>
<path d="M61 68H60V69H61V68Z" fill="#5ACDBD"/>
<path d="M52 61H51V62H52V61Z" fill="#5ACDBD"/>
<path d="M52 62H51V63H52V62Z" fill="#5ACDBD"/>
<path d="M52 63H51V64H52V63Z" fill="#5ACDBD"/>
<path d="M52 60H51V61H52V60Z" fill="#5ACDBD"/>
<path d="M52 59H51V60H52V59Z" fill="#5ACDBD"/>
<path d="M52 58H51V59H52V58Z" fill="#5ACDBD"/>
<path d="M51 61H50V62H51V61Z" fill="#5ACDBD"/>
<path d="M51 62H50V63H51V62Z" fill="#5ACDBD"/>
<path d="M51 63H50V64H51V63Z" fill="#5ACDBD"/>
<path d="M51 60H50V61H51V60Z" fill="#5ACDBD"/>
<path d="M51 59H50V60H51V59Z" fill="#5ACDBD"/>
<path d="M51 58H50V59H51V58Z" fill="#5ACDBD"/>
<path d="M50 61H49V62H50V61Z" fill="#5ACDBD"/>
<path d="M50 62H49V63H50V62Z" fill="#5ACDBD"/>
<path d="M50 63H49V64H50V63Z" fill="#5ACDBD"/>
<path d="M50 60H49V61H50V60Z" fill="#5ACDBD"/>
<path d="M50 59H49V60H50V59Z" fill="#5ACDBD"/>
<path d="M50 58H49V59H50V58Z" fill="#5ACDBD"/>
<path d="M49 61H48V62H49V61Z" fill="#5ACDBD"/>
<path d="M49 62H48V63H49V62Z" fill="#5ACDBD"/>
<path d="M49 63H48V64H49V63Z" fill="#5ACDBD"/>
<path d="M48 63H47V64H48V63Z" fill="#5ACDBD"/>
<path d="M47 63H46V64H47V63Z" fill="#5ACDBD"/>
<path d="M49 64H48V65H49V64Z" fill="#5ACDBD"/>
<path d="M48 64H47V65H48V64Z" fill="#5ACDBD"/>
<path d="M47 64H46V65H47V64Z" fill="#5ACDBD"/>
<path d="M46 64H45V65H46V64Z" fill="#5ACDBD"/>
<path d="M45 64H44V65H45V64Z" fill="#5ACDBD"/>
<path d="M44 64H43V65H44V64Z" fill="#5ACDBD"/>
<path d="M43 64H42V65H43V64Z" fill="#5ACDBD"/>
<path d="M42 64H41V65H42V64Z" fill="#5ACDBD"/>
<path d="M41 64H40V65H41V64Z" fill="#5ACDBD"/>
<path d="M40 64H39V65H40V64Z" fill="#5ACDBD"/>
<path d="M39 64H38V65H39V64Z" fill="#5ACDBD"/>
<path d="M38 64H37V65H38V64Z" fill="#5ACDBD"/>
<path d="M42 63H41V64H42V63Z" fill="#5ACDBD"/>
<path d="M41 63H40V64H41V63Z" fill="#5ACDBD"/>
<path d="M40 63H39V64H40V63Z" fill="#5ACDBD"/>
<path d="M39 63H38V64H39V63Z" fill="#5ACDBD"/>
<path d="M38 63H37V64H38V63Z" fill="#5ACDBD"/>
<path d="M41 62H40V63H41V62Z" fill="#5ACDBD"/>
<path d="M42 61H41V62H42V61Z" fill="#5ACDBD"/>
<path d="M40 62H39V63H40V62Z" fill="#5ACDBD"/>
<path d="M39 62H38V63H39V62Z" fill="#5ACDBD"/>
<path d="M38 62H37V63H38V62Z" fill="#5ACDBD"/>
<path d="M39 61H38V62H39V61Z" fill="#5ACDBD"/>
<path d="M38 61H37V62H38V61Z" fill="#5ACDBD"/>
<path d="M39 60H38V61H39V60Z" fill="#5ACDBD"/>
<path d="M38 60H37V61H38V60Z" fill="#5ACDBD"/>
<path d="M39 59H38V60H39V59Z" fill="#5ACDBD"/>
<path d="M40 60H39V61H40V60Z" fill="#5ACDBD"/>
<path d="M40 59H39V60H40V59Z" fill="#5ACDBD"/>
<path d="M40 58H39V59H40V58Z" fill="#5ACDBD"/>
<path d="M41 57H40V58H41V57Z" fill="#5ACDBD"/>
<path d="M41 56H40V57H41V56Z" fill="#5ACDBD"/>
<path d="M38 56H37V57H38V56Z" fill="#5ACDBD"/>
<path d="M39 54H38V55H39V54Z" fill="#5ACDBD"/>
<path d="M37 53H36V54H37V53Z" fill="#5ACDBD"/>
<path d="M38 51H37V52H38V51Z" fill="#5ACDBD"/>
<path d="M41 50H40V51H41V50Z" fill="#5ACDBD"/>
<path d="M42 52H41V53H42V52Z" fill="#5ACDBD"/>
<path d="M34 51H33V52H34V51Z" fill="#5ACDBD"/>
<path d="M34 50H33V51H34V50Z" fill="#5ACDBD"/>
<path d="M33 55H32V56H33V55Z" fill="#5ACDBD"/>
<path d="M34 55H33V56H34V55Z" fill="#5ACDBD"/>
<path d="M33 56H32V57H33V56Z" fill="#5ACDBD"/>
<path d="M34 56H33V57H34V56Z" fill="#5ACDBD"/>
<path d="M33 57H32V58H33V57Z" fill="#5ACDBD"/>
<path d="M33 58H32V59H33V58Z" fill="#5ACDBD"/>
<path d="M34 57H33V58H34V57Z" fill="#5ACDBD"/>
<path d="M35 56H34V57H35V56Z" fill="#5ACDBD"/>
<path d="M35 57H34V58H35V57Z" fill="#5ACDBD"/>
<path d="M35 58H34V59H35V58Z" fill="#5ACDBD"/>
<path d="M35 59H34V60H35V59Z" fill="#5ACDBD"/>
<path d="M35 60H34V61H35V60Z" fill="#5ACDBD"/>
<path d="M35 61H34V62H35V61Z" fill="#5ACDBD"/>
<path d="M34 60H33V61H34V60Z" fill="#5ACDBD"/>
<path d="M34 61H33V62H34V61Z" fill="#5ACDBD"/>
<path d="M35 63H34V64H35V63Z" fill="#5ACDBD"/>
<path d="M34 63H33V64H34V63Z" fill="#5ACDBD"/>
<path d="M37 63H36V64H37V63Z" fill="#5ACDBD"/>
<path d="M36 63H35V64H36V63Z" fill="#5ACDBD"/>
<path d="M35 62H34V63H35V62Z" fill="#5ACDBD"/>
<path d="M37 62H36V63H37V62Z" fill="#5ACDBD"/>
<path d="M36 62H35V63H36V62Z" fill="#5ACDBD"/>
<path d="M37 61H36V62H37V61Z" fill="#5ACDBD"/>
<path d="M36 61H35V62H36V61Z" fill="#5ACDBD"/>
<path d="M37 60H36V61H37V60Z" fill="#5ACDBD"/>
<path d="M36 60H35V61H36V60Z" fill="#5ACDBD"/>
<path d="M37 59H36V60H37V59Z" fill="#5ACDBD"/>
<path d="M36 59H35V60H36V59Z" fill="#5ACDBD"/>
<path d="M37 58H36V59H37V58Z" fill="#5ACDBD"/>
<path d="M36 58H35V59H36V58Z" fill="#5ACDBD"/>
<path d="M37 57H36V58H37V57Z" fill="#5ACDBD"/>
<path d="M36 57H35V58H36V57Z" fill="#5ACDBD"/>
<path d="M36 64H35V65H36V64Z" fill="#5ACDBD"/>
<path d="M35 64H34V65H35V64Z" fill="#5ACDBD"/>
<path d="M35 65H34V66H35V65Z" fill="#5ACDBD"/>
<path d="M34 65H33V66H34V65Z" fill="#5ACDBD"/>
<path d="M37 65H36V66H37V65Z" fill="#5ACDBD"/>
<path d="M36 65H35V66H36V65Z" fill="#5ACDBD"/>
<path d="M39 65H38V66H39V65Z" fill="#5ACDBD"/>
<path d="M38 65H37V66H38V65Z" fill="#5ACDBD"/>
<path d="M33 63H32V64H33V63Z" fill="#5ACDBD"/>
<path d="M33 64H32V65H33V64Z" fill="#5ACDBD"/>
<path d="M33 66H32V67H33V66Z" fill="#5ACDBD"/>
<path d="M33 67H32V68H33V67Z" fill="#5ACDBD"/>
<path d="M32 67H31V68H32V67Z" fill="#5ACDBD"/>
<path d="M32 68H31V69H32V68Z" fill="#5ACDBD"/>
<path d="M31 67H30V68H31V67Z" fill="#5ACDBD"/>
<path d="M31 68H30V69H31V68Z" fill="#5ACDBD"/>
<path d="M30 67H29V68H30V67Z" fill="#5ACDBD"/>
<path d="M31 66H30V67H31V66Z" fill="#5ACDBD"/>
<path d="M30 66H29V67H30V66Z" fill="#5ACDBD"/>
<path d="M30 68H29V69H30V68Z" fill="#5ACDBD"/>
<path d="M29 67H28V68H29V67Z" fill="#5ACDBD"/>
<path d="M29 68H28V69H29V68Z" fill="#5ACDBD"/>
<path d="M30 69H29V70H30V69Z" fill="#5ACDBD"/>
<path d="M29 69H28V70H29V69Z" fill="#5ACDBD"/>
<path d="M28 69H27V70H28V69Z" fill="#5ACDBD"/>
<path d="M32 63H31V64H32V63Z" fill="#5ACDBD"/>
<path d="M31 61H30V62H31V61Z" fill="#5ACDBD"/>
<path d="M31 62H30V63H31V62Z" fill="#5ACDBD"/>
<path d="M46 50H45V51H46V50Z" fill="#5ACDBD"/>
<path d="M44 50H43V51H44V50Z" fill="#5ACDBD"/>
<path d="M41 58H40V59H41V58Z" fill="#5ACDBD"/>
<path d="M38 59H37V60H38V59Z" fill="#5ACDBD"/>
<path d="M49 60H48V61H49V60Z" fill="#5ACDBD"/>
<path d="M49 59H48V60H49V59Z" fill="#5ACDBD"/>
<path d="M49 58H48V59H49V58Z" fill="#5ACDBD"/>
<path d="M51 57H50V58H51V57Z" fill="#5ACDBD"/>
<path d="M50 57H49V58H50V57Z" fill="#5ACDBD"/>
<path d="M49 57H48V58H49V57Z" fill="#5ACDBD"/>
<path d="M50 56H49V57H50V56Z" fill="#5ACDBD"/>
<path d="M49 56H48V57H49V56Z" fill="#5ACDBD"/>
<path d="M49 55H48V56H49V55Z" fill="#5ACDBD"/>
<path d="M48 59H47V60H48V59Z" fill="#5ACDBD"/>
<path d="M48 58H47V59H48V58Z" fill="#5ACDBD"/>
<path d="M48 57H47V58H48V57Z" fill="#5ACDBD"/>
<path d="M48 56H47V57H48V56Z" fill="#5ACDBD"/>
<path d="M48 55H47V56H48V55Z" fill="#5ACDBD"/>
<path d="M47 57H46V58H47V57Z" fill="#5ACDBD"/>
<path d="M47 56H46V57H47V56Z" fill="#5ACDBD"/>
<path d="M47 55H46V56H47V55Z" fill="#5ACDBD"/>
<path d="M46 57H45V58H46V57Z" fill="#5ACDBD"/>
<path d="M46 56H45V57H46V56Z" fill="#5ACDBD"/>
<path d="M46 55H45V56H46V55Z" fill="#5ACDBD"/>
<path d="M45 57H44V58H45V57Z" fill="#5ACDBD"/>
<path d="M45 56H44V57H45V56Z" fill="#5ACDBD"/>
<path d="M45 55H44V56H45V55Z" fill="#5ACDBD"/>
<path d="M48 54H47V55H48V54Z" fill="#5ACDBD"/>
<path d="M47 54H46V55H47V54Z" fill="#5ACDBD"/>
<path d="M46 54H45V55H46V54Z" fill="#5ACDBD"/>
<path d="M48 53H47V54H48V53Z" fill="#5ACDBD"/>
<path d="M47 53H46V54H47V53Z" fill="#5ACDBD"/>
<path d="M48 52H47V53H48V52Z" fill="#5ACDBD"/>
<path d="M47 52H46V53H47V52Z" fill="#5ACDBD"/>
<path d="M48 51H47V52H48V51Z" fill="#5ACDBD"/>
<path d="M49 53H48V54H49V53Z" fill="#5ACDBD"/>
<path d="M49 52H48V53H49V52Z" fill="#5ACDBD"/>
<path d="M49 51H48V52H49V51Z" fill="#5ACDBD"/>
<path d="M50 52H49V53H50V52Z" fill="#5ACDBD"/>
<path d="M50 51H49V52H50V51Z" fill="#5ACDBD"/>
<path d="M51 51H50V52H51V51Z" fill="#5ACDBD"/>
<path d="M50 50H49V51H50V50Z" fill="#5ACDBD"/>
<path d="M51 50H50V51H51V50Z" fill="#5ACDBD"/>
<path d="M52 50H51V51H52V50Z" fill="#5ACDBD"/>
<path d="M53 50H52V51H53V50Z" fill="#5ACDBD"/>
<path d="M47 51H46V52H47V51Z" fill="#5ACDBD"/>
<path d="M46 53H45V54H46V53Z" fill="#5ACDBD"/>
<path d="M45 54H44V55H45V54Z" fill="#5ACDBD"/>
<path d="M44 57H43V58H44V57Z" fill="#5ACDBD"/>
<path d="M44 56H43V57H44V56Z" fill="#5ACDBD"/>
<path d="M44 55H43V56H44V55Z" fill="#5ACDBD"/>
<path d="M43 57H42V58H43V57Z" fill="#5ACDBD"/>
<path d="M44 58H43V59H44V58Z" fill="#5ACDBD"/>
<path d="M43 58H42V59H43V58Z" fill="#5ACDBD"/>
<path d="M43 59H42V60H43V59Z" fill="#5ACDBD"/>
<path d="M43 56H42V57H43V56Z" fill="#5ACDBD"/>
<path d="M43 55H42V56H43V55Z" fill="#5ACDBD"/>
<path d="M42 57H41V58H42V57Z" fill="#5ACDBD"/>
<path d="M42 56H41V57H42V56Z" fill="#5ACDBD"/>
<path d="M42 55H41V56H42V55Z" fill="#5ACDBD"/>
<path d="M64 58H63V59H64V58Z" fill="#5ACDBD"/>
<path d="M65 57H64V58H65V57Z" fill="#5ACDBD"/>
<path d="M42 50H41V51H42V50Z" fill="#83E6D5"/>
<path d="M43 50H42V51H43V50Z" fill="#83E6D5"/>
<path d="M43 51H42V52H43V51Z" fill="#83E6D5"/>
<path d="M45 50H44V51H45V50Z" fill="#83E6D5"/>
<path d="M44 51H43V52H44V51Z" fill="#83E6D5"/>
<path d="M45 51H44V52H45V51Z" fill="#83E6D5"/>
<path d="M46 51H45V52H46V51Z" fill="#83E6D5"/>
<path d="M43 52H42V53H43V52Z" fill="#83E6D5"/>
<path d="M44 52H43V53H44V52Z" fill="#83E6D5"/>
<path d="M45 52H44V53H45V52Z" fill="#83E6D5"/>
<path d="M43 53H42V54H43V53Z" fill="#83E6D5"/>
<path d="M44 53H43V54H44V53Z" fill="#83E6D5"/>
<path d="M43 54H42V55H43V54Z" fill="#83E6D5"/>
<path d="M42 53H41V54H42V53Z" fill="#83E6D5"/>
<path d="M42 54H41V55H42V54Z" fill="#83E6D5"/>
<path d="M41 53H40V54H41V53Z" fill="#83E6D5"/>
<path d="M41 54H40V55H41V54Z" fill="#83E6D5"/>
<path d="M41 55H40V56H41V55Z" fill="#83E6D5"/>
<path d="M42 59H41V60H42V59Z" fill="#83E6D5"/>
<path d="M42 60H41V61H42V60Z" fill="#83E6D5"/>
<path d="M41 60H40V61H41V60Z" fill="#83E6D5"/>
<path d="M34 58H33V59H34V58Z" fill="#83E6D5"/>
<path d="M34 59H33V60H34V59Z" fill="#83E6D5"/>
<path d="M41 61H40V62H41V61Z" fill="#83E6D5"/>
<path d="M40 54H39V55H40V54Z" fill="#83E6D5"/>
<path d="M40 55H39V56H40V55Z" fill="#83E6D5"/>
<path d="M39 55H38V56H39V55Z" fill="#83E6D5"/>
<path d="M38 55H37V56H38V55Z" fill="#83E6D5"/>
<path d="M37 55H36V56H37V55Z" fill="#83E6D5"/>
<path d="M36 55H35V56H36V55Z" fill="#83E6D5"/>
<path d="M37 56H36V57H37V56Z" fill="#83E6D5"/>
<path d="M36 56H35V57H36V56Z" fill="#83E6D5"/>
<path d="M36 54H35V55H36V54Z" fill="#83E6D5"/>
<path d="M35 54H34V55H35V54Z" fill="#83E6D5"/>
<path d="M35 55H34V56H35V55Z" fill="#83E6D5"/>
<path d="M36 53H35V54H36V53Z" fill="#83E6D5"/>
<path d="M35 53H34V54H35V53Z" fill="#83E6D5"/>
<path d="M34 54H33V55H34V54Z" fill="#83E6D5"/>
<path d="M34 53H33V54H34V53Z" fill="#83E6D5"/>
<path d="M36 52H35V53H36V52Z" fill="#83E6D5"/>
<path d="M35 52H34V53H35V52Z" fill="#83E6D5"/>
<path d="M37 51H36V52H37V51Z" fill="#83E6D5"/>
<path d="M37 52H36V53H37V52Z" fill="#83E6D5"/>
<path d="M36 51H35V52H36V51Z" fill="#83E6D5"/>
<path d="M37 50H36V51H37V50Z" fill="#83E6D5"/>
<path d="M36 50H35V51H36V50Z" fill="#83E6D5"/>
<path d="M35 49H34V50H35V49Z" fill="#83E6D5"/>
<path d="M35 50H34V51H35V50Z" fill="#83E6D5"/>
<path d="M34 49H33V50H34V49Z" fill="#83E6D5"/>
<path d="M44 54H43V55H44V54Z" fill="#83E6D5"/>
<path d="M45 53H44V54H45V53Z" fill="#83E6D5"/>
<path d="M46 52H45V53H46V52Z" fill="#83E6D5"/>
<path d="M67 54H66V55H67V54Z" fill="#10414A"/>
<path d="M68 55H67V56H68V55Z" fill="#10414A"/>
<path d="M68 56H67V57H68V56Z" fill="#10414A"/>
<path d="M70 58H69V59H70V58Z" fill="#10414A"/>
<path d="M70 59H69V60H70V59Z" fill="#10414A"/>
<path d="M70 61H69V62H70V61Z" fill="#10414A"/>
<path d="M70 62H69V63H70V62Z" fill="#10414A"/>
<path d="M70 63H69V64H70V63Z" fill="#10414A"/>
<path d="M70 64H69V65H70V64Z" fill="#10414A"/>
<path d="M69 61H68V62H69V61Z" fill="#10414A"/>
<path d="M69 62H68V63H69V62Z" fill="#10414A"/>
<path d="M69 63H68V64H69V63Z" fill="#10414A"/>
<path d="M68 62H67V63H68V62Z" fill="#10414A"/>
<path d="M69 57H68V58H69V57Z" fill="#10414A"/>
<path d="M71 63H70V64H71V63Z" fill="#10414A"/>
<path d="M68 63H67V64H68V63Z" fill="#10414A"/>
<path d="M62 57H61V58H62V57Z" fill="#10414A"/>
<path d="M62 58H61V59H62V58Z" fill="#10414A"/>
<path d="M63 58H62V59H63V58Z" fill="#10414A"/>
<path d="M61 57H60V58H61V57Z" fill="#10414A"/>
<path d="M60 57H59V58H60V57Z" fill="#10414A"/>
<path d="M61 58H60V59H61V58Z" fill="#10414A"/>
<path d="M61 62H60V63H61V62Z" fill="#10414A"/>
<path d="M61 63H60V64H61V63Z" fill="#10414A"/>
<path d="M69 68H68V69H69V68Z" fill="#10414A"/>
<path d="M69 69H68V70H69V69Z" fill="#10414A"/>
<path d="M71 68H70V69H71V68Z" fill="#10414A"/>
<path d="M70 68H69V69H70V68Z" fill="#10414A"/>
<path d="M67 68H66V69H67V68Z" fill="#10414A"/>
<path d="M64 64H63V65H64V64Z" fill="#10414A"/>
<path d="M63 65H62V66H63V65Z" fill="#10414A"/>
<path d="M64 66H63V67H64V66Z" fill="#10414A"/>
<path d="M61 72H60V73H61V72Z" fill="#10414A"/>
<path d="M57 73H56V74H57V73Z" fill="#10414A"/>
<path d="M53 72H52V73H53V72Z" fill="#10414A"/>
<path d="M54 71H53V72H54V71Z" fill="#10414A"/>
<path d="M55 69H54V70H55V69Z" fill="#10414A"/>
<path d="M54 69H53V70H54V69Z" fill="#10414A"/>
<path d="M52 68H51V69H52V68Z" fill="#10414A"/>
<path d="M51 68H50V69H51V68Z" fill="#10414A"/>
<path d="M49 69H48V70H49V69Z" fill="#10414A"/>
<path d="M48 69H47V70H48V69Z" fill="#10414A"/>
<path d="M48 66H47V67H48V66Z" fill="#10414A"/>
<path d="M47 66H46V67H47V66Z" fill="#10414A"/>
<path d="M46 67H45V68H46V67Z" fill="#10414A"/>
<path d="M47 69H46V70H47V69Z" fill="#10414A"/>
<path d="M40 66H39V67H40V66Z" fill="#10414A"/>
<path d="M33 65H32V66H33V65Z" fill="#10414A"/>
<path d="M32 64H31V65H32V64Z" fill="#10414A"/>
<path d="M31 65H30V66H31V65Z" fill="#10414A"/>
<path d="M32 66H31V67H32V66Z" fill="#10414A"/>
<path d="M28 68H27V69H28V68Z" fill="#10414A"/>
<path d="M27 69H26V70H27V69Z" fill="#10414A"/>
<path d="M39 66H38V67H39V66Z" fill="#10414A"/>
<path d="M45 59H44V60H45V59Z" fill="#10414A"/>
<path d="M46 58H45V59H46V58Z" fill="#10414A"/>
<path d="M47 59H46V60H47V59Z" fill="#10414A"/>
<path d="M44 59H43V60H44V59Z" fill="#10414A"/>
<path d="M38 66H37V67H38V66Z" fill="#10414A"/>
<path d="M37 66H36V67H37V66Z" fill="#10414A"/>
<path d="M36 66H35V67H36V66Z" fill="#10414A"/>
<path d="M37 68H36V69H37V68Z" fill="#10414A"/>
<path d="M39 69H38V70H39V69Z" fill="#10414A"/>
<path d="M41 65H40V66H41V65Z" fill="#10414A"/>
<path d="M35 66H34V67H35V66Z" fill="#10414A"/>
<path d="M34 66H33V67H34V66Z" fill="#10414A"/>
<path d="M30 70H29V71H30V70Z" fill="#10414A"/>
<path d="M26 70H25V71H26V70Z" fill="#10414A"/>
<path d="M26 71H25V72H26V71Z" fill="#10414A"/>
<path d="M30 61H29V62H30V61Z" fill="#10414A"/>
<path d="M30 62H29V63H30V62Z" fill="#10414A"/>
<path d="M31 59H30V60H31V59Z" fill="#10414A"/>
<path d="M31 60H30V61H31V60Z" fill="#10414A"/>
<path d="M32 57H31V58H32V57Z" fill="#10414A"/>
<path d="M32 58H31V59H32V58Z" fill="#10414A"/>
<path d="M33 59H32V60H33V59Z" fill="#10414A"/>
<path d="M31 58H30V59H31V58Z" fill="#10414A"/>
<path d="M32 55H31V56H32V55Z" fill="#10414A"/>
<path d="M50 53H49V54H50V53Z" fill="#10414A"/>
<path d="M52 55H51V56H52V55Z" fill="#10414A"/>
<path d="M53 55H52V56H53V55Z" fill="#10414A"/>
<path d="M55 55H54V56H55V55Z" fill="#10414A"/>
<path d="M32 56H31V57H32V56Z" fill="#10414A"/>
<path d="M29 70H28V71H29V70Z" fill="#10414A"/>
<path d="M33 72H32V73H33V72Z" fill="#10414A"/>
<path d="M34 71H33V72H34V71Z" fill="#10414A"/>
<path d="M30 71H29V72H30V71Z" fill="#10414A"/>
<path d="M35 70H34V71H35V70Z" fill="#10414A"/>
<path d="M32 72H31V73H32V72Z" fill="#10414A"/>
<path d="M50 68H49V69H50V68Z" fill="#10414A"/>
<path d="M45 66H44V67H45V66Z" fill="#10414A"/>
<path d="M47 65H46V66H47V65Z" fill="#10414A"/>
<path d="M48 61H47V62H48V61Z" fill="#10414A"/>
<path d="M48 60H47V61H48V60Z" fill="#10414A"/>
<path d="M43 61H42V62H43V61Z" fill="#10414A"/>
<path d="M43 60H42V61H43V60Z" fill="#10414A"/>
<path d="M56 68H55V69H56V68Z" fill="#10414A"/>
<path d="M53 66H52V67H53V66Z" fill="#10414A"/>
<path d="M52 67H51V68H52V67Z" fill="#10414A"/>
<path d="M72 67H71V68H72V67Z" fill="#10414A"/>
<path d="M71 69H70V70H71V69Z" fill="#10414A"/>
<path d="M61 55H60V56H61V55Z" fill="#10414A"/>
<path d="M61 56H60V57H61V56Z" fill="#10414A"/>
<path d="M62 56H61V57H62V56Z" fill="#10414A"/>
<path d="M60 55H59V56H60V55Z" fill="#10414A"/>
<path d="M60 56H59V57H60V56Z" fill="#10414A"/>
<path d="M69 64H68V65H69V64Z" fill="#10414A"/>
</svg>
