<svg width="100" height="100" viewBox="0 0 100 100" fill="none" xmlns="http://www.w3.org/2000/svg">
<path fill-rule="evenodd" clip-rule="evenodd" d="M41 35H42V36H41V35ZM50 35H51V36H50V35ZM51 36V40H52V36H51Z" fill="white"/>
<path fill-rule="evenodd" clip-rule="evenodd" d="M42 36H41V37H42V36ZM51 36H50V37H51V36ZM48 43H50V45H48V44H45V43H48Z" fill="#EE5252"/>
<path fill-rule="evenodd" clip-rule="evenodd" d="M50 36H49V38H50V40H51V37H50V36ZM42 37H41V40H42V37ZM45 43H44V45H45V46H46V47H49V46H50V45H51V43H50V45H49V46H46V45H45V43Z" fill="#B40000"/>
<path fill-rule="evenodd" clip-rule="evenodd" d="M48 44H45V45H46V46H49V45H48V44Z" fill="#FF838B"/>
<path fill-rule="evenodd" clip-rule="evenodd" d="M47 26H49V27H47V26ZM46 28V27H47V28H46ZM46 28V29H45V28H46ZM49 29H48V30H49V29ZM50 28V29H49V28H50ZM50 28V27H51V28H50Z" fill="#EEE68B"/>
<path fill-rule="evenodd" clip-rule="evenodd" d="M51 27H53V28H51V27ZM47 30H48V31H47V30ZM48 27H47V28H48V27ZM45 29H46V30H45V29ZM45 30V31H44V30H45ZM43 28H44V29H43V28ZM43 29V34H42V29H43Z" fill="#CDBD62"/>
<path fill-rule="evenodd" clip-rule="evenodd" d="M50 26H49V27H48V28H46V29V30H45V31H44V34H45V33H46V30H47V29H48V28H49V27H50V26ZM44 29H43V30H44V29ZM48 31H47V34H48V32H49V31H50V30H53V31H54V29H53V28H50V29H49V30H48V31Z" fill="#AC9C5A"/>
<path fill-rule="evenodd" clip-rule="evenodd" d="M47 25H50V26H47V25ZM44 30H45V28H46V27H47V26H45V27H43V28H42V29H41V32H42V29H43V28H44V30ZM44 30V32H43V30H44ZM50 27V26H53V27H50ZM49 28V27H50V28H49ZM48 29V28H49V29H48ZM47 30V29H48V30H47ZM47 30V32H46V30H47ZM53 28H54V29H53V28ZM53 31H54V32H53V31ZM46 33H45V34H46V33Z" fill="#6A5220"/>
<path fill-rule="evenodd" clip-rule="evenodd" d="M54 27H53V28H54V27ZM49 31H50V32H49V31ZM49 32V33H48V32H49ZM50 31V30H53V31H50ZM43 34H42V32H41V34H42V35H43V34ZM44 34V32H43V34H44ZM44 34H45V35H44V34ZM29 41H28V42H29V41ZM33 48H32V49H28V50H32V49H33V48ZM34 45H33V48H34V46H36V45H34ZM37 46H38V47H37V46ZM38 47H39V48H38V47ZM41 49H42V50H41V49ZM42 51H41V52H42V51ZM42 53H43V54H42V53ZM40 55H39V56H40V55ZM39 57H40V58H39V57ZM52 53H51V54H52V53ZM52 53H53V52H52V53ZM43 66H42V67H41V69H42V67H43V66ZM40 70H41V71H40V70ZM53 66H52V67H53V66ZM38 73H39V74H38V73ZM30 74H38V75H30V74ZM30 74H29V72H30V74ZM55 67H54V68H55V69H56V68H55V67ZM58 72H57V73H58V74H64V73H65V71H64V73H58V72ZM63 69H64V70H63V69ZM62 68H63V69H62V68ZM62 68H61V67H62V68ZM59 62H58V60H57V62H58V63H59V62ZM60 47H61V48H60V47ZM57 48H60V49H57V48ZM66 49H65V47V46H62V47H64V49H65V50H66V51H70V50H66V49ZM69 42H70V43H69V42ZM51 46H50V47H51V46ZM44 45H45V46H44V45ZM45 46H46V48H45V46ZM44 44V45H43V44H41V43H44V44ZM41 42V43H40H39V41H40V42H41ZM51 42H50V43H51V42ZM51 41H52V42H51V41ZM53 44H54V45H53V44ZM55 43H54V44H55V43ZM56 42V43H55V42H56ZM57 41H58V37H57V35H56V37H57V41ZM57 41V42H56V41H57ZM48 34H47V32H46V35H47H48V34ZM55 33H56V34H55V33ZM54 29H55V32H54V29ZM49 38H50V40H49V38ZM49 48V47H47V48H49ZM71 48H72V50H71V48ZM56 55H55V57H56V59H57V57H56V55ZM50 65V66H46V65H50ZM33 67H32V69H33V67ZM34 64H35V66H34V64ZM27 47H26V49H27V47Z" fill="black"/>
<path fill-rule="evenodd" clip-rule="evenodd" d="M44 34H43V35V40V41H42V40H41V39H40V41H41V42H42H50V41H49V40H48V36H49V35H50V34H49H48V35H46V34H45V35H44V34ZM45 41V40H46V41H45ZM32 39H35V40H36V41H33V42H30V40H32V39ZM30 42V43V44H29V45H25V44H26V43H27V42H30ZM52 35H51V36H52V35ZM55 46H52V47H51V48H54V47H55V46ZM63 41H62V42H63H65V43H66H68V45H69V46H73V45H72V44H71V43H68V41H66V40H65H63V41Z" fill="#ACD5C5"/>
<path fill-rule="evenodd" clip-rule="evenodd" d="M52 34H50V35H49V36H48V40H49V36H50V35H52V34ZM29 40H30V41H29V40ZM25 47H26V48H25V47ZM25 47H24V45H25V47ZM27 49H28V50H27V49ZM32 47H31V46H30V49H31V48H32V47ZM33 44H32V45H33V44ZM37 40H38V41H37V40ZM37 46H36V47H37V46ZM39 47H40V48H39V47ZM40 48H41V49H40V48ZM40 43H41V44H40V43ZM42 50H41V51H42V50ZM42 52H43V53H42V52ZM40 54H39V55H40V54ZM40 54H41V52H40V54ZM46 47H47V48H46V47ZM50 47H49V48H50V47ZM51 45H52V46H51V45ZM52 42H51V43H52V42ZM56 43H55V44H56V43ZM56 43V42H59V43H56ZM60 41H61V42H60V41ZM58 47H57V48H58V47ZM61 47H62V48H61V47ZM54 52H53V53H54V52ZM65 45H66V46H65V45ZM67 48H66V49H67V50H68V47H67V48ZM68 41H69V42H68V41ZM71 50H70V51H71V50ZM72 48H73V49H72V48ZM73 48V46H74V48H73ZM40 58H39V59H38V61H37V62H36V63H35V64H36V63H37V62H38V61H39V59H40V58ZM34 66H33V67H34V66ZM33 68H34V69H33V68ZM31 70V69H33V70H31ZM30 71V70H31V71H30ZM30 71V72H29V71H30ZM31 73H30V74H31V73ZM38 72H39V73H38V72ZM39 72V71H40V72H39ZM40 69H41V70H40V69ZM44 66H43V67H44V66ZM45 65H46V66H45V65ZM54 66H53V67H54V66ZM55 69H56V70H55V69ZM57 71H56V70H57V71ZM57 71H58V72H57V71ZM65 70H64V71H65V70ZM62 69H63V70H62V69ZM62 69H61V68H62V69ZM61 66H62V67H61V66ZM60 64H61V66H60V64ZM60 64H59V63H60V64ZM56 59H57V60H56V59ZM47 42H44V43H47V42ZM52 36H53V38H52V36ZM56 49H57V51H56V49ZM55 51H56V55H55V51ZM52 55H54V56H52V55ZM51 58V57H49V58H51ZM52 58H54V59H52V58ZM43 47H42V49H43V47Z" fill="#294A52"/>
<path fill-rule="evenodd" clip-rule="evenodd" d="M55 32H56V33H55V32ZM53 35H52V36H53V35ZM52 38H53V39H52V38ZM42 40H43V41H42V40ZM27 41H28V42H27V41ZM26 43V42H27V43H26ZM25 44V43H26V44H25ZM25 44V45H24V44H25ZM33 44H34V45H33V44ZM27 48H28V49H27V48ZM44 42H43V43H44V42ZM46 40H45V41H46V40ZM49 42H50V43H49V42ZM53 44H52V45H53V44ZM57 34H56V35H57V34ZM59 41H60V42H59V41ZM65 45H64V46H65V45ZM70 42H71V43H70V42ZM72 44H71V43H72V44ZM73 45H72V44H73V45ZM73 45H74V46H73V45ZM70 49H71V50H70V49ZM42 53H41V54H42V53ZM51 55H52V56H51V55ZM52 58H51V59H52V58ZM35 64H36V65H35V64ZM64 70H63V71H61V70H62V69H61V66H60V64H59V63H58V62H57V60H56V62H55V63H54V64H52V65H50V66H52H54V67H55V68H56V70H57V71H58V73H63H64V70ZM42 56H39V57H42V56ZM30 39H32V40H30V39ZM35 38H32V39H35V40H37V39H35V38ZM40 40H38V41H40V40ZM42 35H43V37H42V35ZM41 34H40V39H41V34ZM52 40H53V42H52V40ZM63 40H61V41H63V40ZM63 39H66V40H63V39ZM66 40V41H68V40H66Z" fill="#5A7B6A"/>
<path fill-rule="evenodd" clip-rule="evenodd" d="M39 41H38V43V44H36V46H38V47H40V48H41V49H42V48V47H43V49H45H46V48H45V46H44V45H43V44H40V43H39V41ZM27 45H25V47H27V48H28V49H29H30V47H29V46H28V45H27ZM31 48H32V49H31V48ZM41 41H40V42H41V43H43V42H41V41ZM49 42H47V43H49V42ZM50 41H51V42H50V41ZM50 46H49V47H50V46ZM56 44H54V45H56H57V46H56V47H57H58V48H60V47H62V45H60V43V42H59V43H56V44ZM67 49H66V50H67V49ZM68 48H69V47H70V46H73V48H71V49H70V50H68V48ZM56 48H57V49H56V48ZM56 50H54V51H51H47V53H46V54H47V55H48V57H51V58H54V59H52V60H51V62H46V61H43V60H41V59H39V61H38V62H39V63H40V65H39V66H38V67H37V68H35V67H34V68H35V69H34V71H37V72H39V71H40V69H41V67H42V66H45V65H46H52V64H54V63H55V62H56V58V57H55V56V55V53V52V51H56V50ZM54 56V55H52H51V56H54ZM52 54H51V53H52V54ZM52 53V52H54V53H52ZM42 54H43V55H42V54ZM41 55H42V56H41V55ZM63 71V70H61V71H63Z" fill="#73A4A4"/>
<path fill-rule="evenodd" clip-rule="evenodd" d="M53 31H50V32H49V33H48V34H49H50H52V35H53V39H52V40H49V41H52V40H53V41V42H52V43H51V44V45H50V46H51V47H50V48H47H46V49H43H42V52H41V53H42V52H43V55H42V54H41H40V56H41V55H42V57H40V59H41V60H43V61H46V62H48H51V60H52V59H51V58H49V57H48V55H47V54H46V53H47V51H54V50H56V48H57V47H56V46H57V45H52V44H54V43H55V42H56V41H57V37H56V34H55V32H53V31ZM52 46V47H51V48H54V47H55V46H52ZM52 46V45H51V46H52ZM42 34H41V35H42V34ZM42 37H43V40H42V37ZM37 40H36V41H33V42H32H30V41H29V42H30V44H29V45H28V46H29V47H30V46H31V47H32V48H33V45H32V44H33H34V45H36V44H38V41H37V40ZM61 41H62V42H65V43H68V45H69V46H70V47H69V48H68V47H67V48H66V49H65V46H66V45H65H64V46H62V45H60V42H61V41ZM68 43V42H69V43H68ZM40 63H39V62H37V63H36V65H35V66H34V67H33V68H34V69H33V70H31V71H30V73H31V74H37H38V72H37V71H34V69H35V68H37V67H38V66H39V65H40V63ZM35 68H34V67H35V68Z" fill="#94BDBD"/>
</svg>
