<svg width="100" height="100" viewBox="0 0 100 100" fill="none" xmlns="http://www.w3.org/2000/svg">
<path fill-rule="evenodd" clip-rule="evenodd" d="M62 31H63V33H62V31ZM53 41H54V42H53V41ZM51 47V46H52V45H53V42H52V43H51H50V45H49V48H50V50H51V51H52V49H51V48H52V47H51ZM51 47H50V48H51V47ZM57 42H56V43H55H54V45H55V44H56V43H57V42ZM43 44H42V45H43V44ZM39 47H38V48H39V47ZM41 51H42V52H41V51ZM44 52H43V53H44V54H45V55H46V54H45V53H44V52ZM46 56H47V57H46V56ZM48 58H47V59H48V58ZM47 62H48V63H47V62ZM45 73H44V74H45V73ZM45 75H46V76H45V75ZM46 76H47V77H46V76ZM37 76H38V77H37V76ZM56 50V49H54V50H56ZM60 41H59V43H60H61V42H60V41ZM62 45V44H60V45H61V46H62V47H64V48H66V47H65V46H64V45H62ZM69 48H67V49H69V48ZM59 34H58V35H59V34Z" fill="#CDCDD5"/>
<path fill-rule="evenodd" clip-rule="evenodd" d="M62 29H60V32H59V35H58V36H60V35H61V38H60V42H61V43H62V44H65V45H64V46H65V47H66V48H69V46H66H65V45H68V43H67V42H66V41H65V40H64V33H62V32V31H63V30H62V29ZM62 33V35H61V33H62ZM58 40H56V41H54V42H53V44H54V43H56V44H55V45H53V46H52V48H51V49H52H56V50H52V51H51V52H52H53V53H55V54H58H59V53H58V52V51H57V50V49H56V46V45V44H57V43H56V42H58V41H59V40H58ZM41 42H39V43H38V47H39V49H40V50H42V49H43V45H42V43H41V42ZM40 46V45H41V46H40ZM40 51H41V52H40V51ZM43 53H41V52H43V53ZM44 54H43V53H44V54ZM45 55H44V54H45V55ZM46 57H45V55H46V57ZM47 59H46V57H47V59ZM47 62V59H48V62H47ZM46 65V62H47V65H46ZM45 69V65H46V69H45ZM45 73H44V69H45V73ZM46 75H45V73H46V75ZM47 76H46V75H47V76ZM47 76H48V77H47V76ZM32 58H31V62H32V65H33V67H34V68H35V69H36V70H37V72H38V75H37V76H36V77H37V76H38V75H39V72H38V70H37V69H36V68H35V67H34V65H33V62H32V58Z" fill="white"/>
<path fill-rule="evenodd" clip-rule="evenodd" d="M63 29H62V30H63V33H64V35H65V33H64V30H63V29ZM61 33H62V35H61V33ZM61 35V36H60V35H61ZM64 39H65V40H64V39ZM51 42H52V43H51V42ZM54 44H53V45H52V46H51V47H50V48H49V50H50V51H51V50H50V48H51V47H52V46H53V45H54V44ZM52 49V50H54V49H52ZM39 51H40V52H39V51ZM32 61H33V62H32V61ZM33 64H34V65H33V64ZM35 66H34V67H35V66ZM38 71H39V72H38V71ZM39 75H38V76H39V75ZM62 44V43H60V44H62ZM65 45V44H62V45H65ZM68 43V45H65V46H70V45H69V43H68ZM68 43V42H67V43H68Z" fill="#8B8BA4"/>
<path fill-rule="evenodd" clip-rule="evenodd" d="M62 28H60V29H62V28ZM59 30H60V32H59V30ZM59 32V34H58V32H59ZM57 35H58V37H57V35ZM57 39H58V40H57V39ZM56 40H54V41H56V40ZM52 41H53V42H52V41ZM51 42H50V43H49V45H48V49H49V45H50V43H51V42ZM56 47H57V49H56V47ZM57 49H58V50H57V49ZM58 51H59V53H58V51ZM59 53H60V54H59V53ZM40 52H41V53H40V52ZM43 54H41V53H43V54ZM44 55H43V54H44V55ZM45 57H44V55H45V57ZM46 59H45V57H46V59ZM46 62V59H47V62H46ZM45 65V62H46V65H45ZM44 69V65H45V69H44ZM44 74H43V69H44V74ZM45 76H44V74H45V76ZM46 77H45V76H46V77ZM46 77H48V78H46V77ZM32 59H33V61H32V59ZM33 62H34V64H33V62ZM35 65H34V66H35V65ZM35 67H36V68H35V67ZM37 69H36V68H37V69ZM38 70H37V69H38V70ZM38 70H39V71H38V70ZM39 72H40V76H39V72ZM38 77V76H39V77H38ZM38 77V78H36V77H38ZM51 52V53H53V52H51ZM54 53H55V54H54V53ZM57 42H58V43H57V42ZM59 41H58V42H59V41ZM59 41V39H60V41H59ZM64 35H65V39H64V35ZM66 41H65V39H66V41ZM66 41H67V42H66V41ZM70 46H69V49H70V46Z" fill="#525262"/>
<path fill-rule="evenodd" clip-rule="evenodd" d="M39 22H40V24H41V26V27H42V30H38V27V26H39V24V22ZM33 28H34V29H35V30H37V32H35V31H34V30H33V28Z" fill="#FFEEA4"/>
<path fill-rule="evenodd" clip-rule="evenodd" d="M41 26H42V27H41V26ZM42 28H43V30H44V32H43V34H42V35H37V34H36V33H35V32H36H37V31H39V30H42V28ZM47 64H48H49V65H51V66H53V69V70H52V69H51V68H50V69H49V70H48V67H47V64Z" fill="#FFDE29"/>
<path fill-rule="evenodd" clip-rule="evenodd" d="M47 27H46V28H45V29H44V32H43V34H46V32V30H47V27ZM35 29H36V30H35V29ZM37 29H38V30H39V31H38H37V29ZM36 34H37V35H36V34ZM48 63H47V64H48H49V65H51V66H53V65H54V66H55V67H56V68H57V67V66V64H58V65H59H60V64H59V63H58V62H57V61H56V60H54V61H51V62H48V63Z" fill="#C5AC73"/>
<path fill-rule="evenodd" clip-rule="evenodd" d="M40 21H39V22H38V26H37V29H36V28H34V27H32V28V30H33V31H34V32H35V31H34V30H33V28H34V29H36V30H37V29H38V26H39V22H40V24H41V26H42V28H43V30H44V29H45V28H46V27H48V26H46V27H45V28H44H43V26H42V24H41V22H40V21ZM47 30H46V31H47V30ZM46 65H47V67H46V65ZM47 67H48V70H47V67ZM50 68H51V69H50V68ZM52 70H51V69H52V70ZM53 70V71H52V70H53ZM53 70V69H54V70H53ZM53 65H54V66H53V65ZM55 67H54V66H55V67ZM56 68H55V67H56V68ZM56 68H57V66H58V68V69H56V68ZM60 65H59V66H60V65Z" fill="#7B6252"/>
<path fill-rule="evenodd" clip-rule="evenodd" d="M34 51H31V52H29V54H31V53H34V51Z" fill="#FFE6C5"/>
<path fill-rule="evenodd" clip-rule="evenodd" d="M62 25H60V26H59V27H58V28H59V27H60V26H62V25ZM42 34H44V35H42V34ZM43 37H42H41V35H42V36H43V37ZM45 37V38H43V37H45ZM45 37V35H46V36H47V37H46H45ZM39 35H36V36H39V35ZM34 39H35V40H34V39ZM33 41V40H34V41H33ZM32 43V41H33V43H32ZM31 45V43H32V45H31ZM31 45V46H30V45H31ZM31 50H34V51H31V50ZM29 52V51H31V52H29ZM29 52V53H28V52H29ZM34 51H35V52H34V51ZM32 55H31V56H32V57H33V56H32V55ZM37 57H36V58H37V57ZM41 61H40V62H41V61ZM55 58H56V59H55V58ZM56 58V57H57V58H56ZM51 41H52V42H51V41ZM52 38H51V39H52V38ZM49 34H50V35H49V34ZM54 36H53V37H54V36ZM53 38H54V39H53V38ZM54 40H53V41H54V40ZM56 39H57V40H56V39Z" fill="#BD2052"/>
<path fill-rule="evenodd" clip-rule="evenodd" d="M61 26H62V27H61V26ZM61 27V28H60V27H61ZM58 28H59V29H58V28ZM58 29V30H57V29H58ZM55 33H56V34H55V33ZM44 34H49V35H44V34ZM41 35H39V36H41V35ZM35 36H36V37H35V36ZM35 37V39H34V37H35ZM31 46H30V47H29V49H30V47H31V46ZM36 51H35V52H36V53H37V54H38V53H37V52H36V51ZM31 53H34V54H31V53ZM31 54V55H30V54H31ZM31 56H32V57H31V56ZM35 60V59H34V58H33V57H32V59H33V61H34V62H35V61H37V60H38V57H37V55H36V54H35V55H36V57H37V60H35ZM35 60V61H34V60H35ZM40 57H39V58H40V57ZM41 60H46V61H44V62H43V61H41V60ZM43 62V63H41V62H43ZM38 62H39V63H38V62ZM48 61H51V62H48V61ZM51 59H48V60H51V59ZM53 58H51V59H53V58ZM56 56V57H55V59H54V58H53V57H54V54H55V56H56ZM57 56H56V55H57V56ZM57 56H58V57H57V56ZM52 61V60H54V61H52ZM47 50H46V51H47V50ZM45 46H46V47H45V46ZM49 36H47V37H49V38H51V37H49V36ZM53 35H50V36H53V35ZM45 38H46V39H45V38ZM46 40V39H47V40H46ZM49 41H48V40H47V43H46V44H47V43H48V42H49V41ZM49 41H51V40H53V39H51V40H49V41ZM54 38V39H56V38H54ZM58 39H59V40H58V39ZM59 36H58V37H59V36ZM60 43H59V45H60V43ZM60 46H61V47H60V46ZM58 48H57V49H58V48ZM62 47H64V48H62V47ZM64 48H67V49H64V48ZM68 49H71V50H68V49ZM71 50V51H72V50H71Z" fill="#830041"/>
<path fill-rule="evenodd" clip-rule="evenodd" d="M58 29H59H60V30H59V32H58V35H57V37H56V33H57V31H58V29ZM39 38H36V39H35V40H36V39H39V38ZM41 41H39V42H38V43H37V47H38V43H39V42H41V43H42V44H43V43H42V42H41V41ZM59 42H58V44H57V48H58V51H60V46H61V48H62V49H64V50H68V51H71V50H68V49H64V48H62V46H61V45H60H59V42ZM52 53H53V54H54V57H53V58H51V59H48V58H47V56H48H49V55H51V54H52V53ZM51 59H53V58H54V59V60H52V61H48V60H51V59ZM30 55H31V56H30V55ZM36 57V58H37V60H36H35V59H34V57H36ZM41 61V62H43V61H41ZM44 62V61H46V62H44ZM55 57H56V58H55V57ZM56 56V57H57V56H58V55H57V56H56ZM56 56H55V55H56V56ZM40 57H41H45V59H46V60H45H41V58H40V57ZM47 49H45V50H47V49ZM40 50H42V51H40V50ZM39 49H40V50H39V49ZM39 49H38V48H39V49ZM43 49H42V50H43V49ZM43 49H44V45H43V49Z" fill="#BD4141"/>
<path fill-rule="evenodd" clip-rule="evenodd" d="M60 26H61V27H60V26ZM60 27V29H59V27H60ZM50 35H49V37H45V38H42V39H40V40H39V41H37V42H36V43V44H35V47H34V49H33V50H34V51H36V52H37V53H38V54H39V55V56H40V57H44V55H43V54H41V53H40V52H39V51H40V50H39V49H38V47H37V44V43H38V42H39V41H40H41V42H42V43H43V45H44V46V49H43V50H42V52H44V53H45V54H46V56H49V55H51V54H52V53H51V52H50V51H49V50H48V47H47V48H46V49H47V50V51H46V50H45V49V46H46V45V43H47V40H48V41H49V40H51V38H52V39H53V38H56V37H53V36H51H50V35ZM46 39H47V40H46V39ZM46 39V38H45V39H46ZM51 38H49V37H50H51V38ZM40 60H39V61H40V60ZM50 42H49V43H50V42ZM48 44H49V45H48V44ZM59 38H58V39H59V38Z" fill="#F66218"/>
<path fill-rule="evenodd" clip-rule="evenodd" d="M45 35H43H42V36H43V37H41V36H36V37H35V39H36V40H34V41H33V43H32V45H31V47H30V50V51H31V50H33V49H34V47H35V44H36V43V42H37V41H39V40H40V39H42V38H43V37H45V35ZM36 39V38H39V39H36ZM36 53V52H34V54H36V55H37V57H38V58V60H37V61H35V60H34V61H35V62H37H39V60H40V58H39V56H38V54H37V53H36ZM29 54H30V55H29V54ZM46 35H49V36H46V35ZM46 46H47V43H48V42H49V44H48V47H47V48H46V46ZM51 41V42H49V41H51ZM53 40V41H51V40H53ZM56 39V40H53V39H56ZM58 38H56V39H58V38ZM58 38V37H60V38H58Z" fill="#FF9C62"/>
<path fill-rule="evenodd" clip-rule="evenodd" d="M47 27H48V30H47V27ZM35 32H34V33H35V35H36V33H35V32ZM47 31H46V34H47V31ZM57 30H58V31H57V30ZM57 31V33H56V31H57ZM54 36H55V34H56V36V37H54V36ZM56 37H58V38H56V37ZM60 38H59V39H60V38ZM60 37H59V36H60H61V38H60V37ZM57 43H58V44H57V43ZM57 44V47H56V44H57ZM29 49H30V51H29V49ZM29 53H28V55H29V56H30V57H31V58H32V57H31V56H30V55H29V53ZM35 54H31V55H32V56H33V57V58H34V57H36V55H35V54ZM39 54H38V56H39V57H40V56H39V54ZM41 58H40V61H39V62H40V61H41V58ZM38 62H35V63H38V62ZM43 62H45V63H43V62ZM49 70H48V71H49V70ZM49 70H50V69H49V70ZM54 66H53V69H54V66ZM57 64H58V65H59V66H57V65V64ZM60 64H61V66H60V64ZM59 63H60V64H59V63ZM58 62H59V63H58V62ZM58 62V61H57V60H56V59H57V58H58V57H57V58H56V59H54V60H56V61H57V62H58ZM58 50H57V51H58V50ZM53 53H54V54H53V53ZM51 51H50V50H49V49H48V50H49V51H50V52H51V51ZM40 45H41V46H40V45ZM46 47H45V49H46V47ZM46 44H47V46H46V44ZM62 48H61V47H60V51H59V53H60V51H61V49H62V50H64V51H68V52H72V51H68V50H64V49H62V48ZM58 55V56H59V55H60V54H55V55H58Z" fill="black"/>
</svg>
