<svg width="100" height="100" viewBox="0 0 100 100" fill="none" xmlns="http://www.w3.org/2000/svg">
<path fill-rule="evenodd" clip-rule="evenodd" d="M35 25H34V27H35V28H36H37V26H36V25H35ZM33 28H34V29H33V28ZM66 40H67H69V43H67V42H66V40ZM26 56H25V57H24V60H25V59H26V56ZM36 63H37V62H38V64H39V65H38V66H37V65H36V63ZM45 68H44V69H45V70H47V68H48V67H47H46V66H45V67V68ZM74 63H73V64H74V63ZM70 63H71V64H72V67H71V66H70V63Z" fill="#EE1800"/>
<path fill-rule="evenodd" clip-rule="evenodd" d="M55 23H54V24H55V23ZM57 24H58V25H57V24ZM50 30H51V31H50V30ZM51 31H52V32H51V31ZM46 35H45V36H46V37H47V36H46V35ZM50 40H51V41H50V40ZM38 44H39V45H38V44ZM32 49H33V50H32V49ZM32 50V51H31V50H32ZM32 54H31V55H32V54ZM36 49H37V50H36V49ZM37 50H38V51H37V50ZM51 50H50V51H51V50ZM55 58H56V59H55V58ZM56 59H57V60H56V59ZM56 54H55V55H56V54ZM56 54H57V53H56V54ZM60 59H61V60H60V59ZM61 59V58H62V59H61ZM61 54H62V55H61V54ZM61 53V54H60V53H61ZM51 36H50V37H51V36ZM51 36H52V35H51V36ZM47 30H46V31H45V32H46V31H47V30ZM40 35H39V36H40V35Z" fill="#D5D5D5"/>
<path fill-rule="evenodd" clip-rule="evenodd" d="M55 24H56V25H55V24ZM40 34H42V35H40V34ZM42 35H43V36H42V35ZM41 37H42V38H41V37ZM53 39H51V40H53V41H54V40H53V39ZM39 44V43H41V44H39ZM41 44H42V45H41V44ZM38 46H39V47H38V46ZM40 46H41V47H40V46ZM51 52H50V53H51V52ZM52 52H53V53H52V52ZM53 49H51V50H53V51H54V50H53V49ZM63 63H62V64H63V65H62V67H63V65H65V64H63V63ZM50 42H51V43H50V42ZM53 42H52V43H53V42ZM40 37H39V38H40V37ZM59 25H57V26H59V25Z" fill="#B4B4B4"/>
<path fill-rule="evenodd" clip-rule="evenodd" d="M57 23H58V24H57V23ZM57 24V26H56V24H57ZM59 25H58V24H59V25ZM59 26V25H60V26H59ZM59 26V27H58V26H59ZM55 24H54V25H55V24ZM36 29H38V30H40V31H41V32H39V31H37V30H36V29ZM39 34H40V35H39V34ZM39 35V36H38V35H39ZM43 36H42V37H43V36ZM51 39H50V40H49V41H50V40H51V39ZM53 41H54V42H53V41ZM38 43H39V44H38V43ZM38 44V45H37V44H38ZM42 45H41V46H42V45ZM53 51H54V52H53V51ZM50 50H49V51H50V50ZM50 50H51V49H50V50ZM62 64H61V65H62V64ZM63 65H64V66H63V65ZM64 66H65V67H64V66ZM38 38H39V39H38V38ZM36 37H38V38H36V37ZM34 36H36V37H34V36ZM34 36H33V35H34V36ZM56 27V28H54V27H56ZM60 36H63V37H60V36ZM63 38V37H66V38H67V39H65V38H63ZM61 43V42H59V43H60V44H62V45H64V44H63V43H61ZM67 53H70V54H72V55H69V54H67V53ZM67 59H68V60H69V61H70V62H72V63H70H69V62H68V61H67V59ZM52 65H53V67H52V65ZM52 67V69H51V67H52ZM49 60H50V61H49V60ZM48 61H47V62H46V64H45V66H46V64H47V62H48V61ZM37 61H38V60H39V59H40V58H41V60H40V61H39V62H38H37V61ZM40 53V54H38V55H37H36V56H34V55H35V54H37V53H38H40ZM25 55H26V54H27V53H28V54V55H27V56H25V55ZM25 48H24V49H26V48H28V47H29V46H27V47H25V48Z" fill="#8B8B8B"/>
<path fill-rule="evenodd" clip-rule="evenodd" d="M34 24H35V25H34V24ZM33 27V25H34V27H33ZM33 27V29H32V27H33ZM31 31H30V33H29V35H30V33H31V31ZM33 34H34V35H33V34ZM34 36V35H35V36H34ZM34 37H32V36H34V37ZM36 38H34V37H36V38ZM36 38H37V39H36V38ZM41 36H40V37H41V36ZM42 37H43V38H42V37ZM27 45H28V46H27V45ZM25 47V46H27V47H25ZM24 48V47H25V48H24ZM22 49V48H24V49H22ZM21 50V49H22V50H21ZM21 50V54H20V50H21ZM27 48H26V49H27V48ZM23 53H24V54H23V53ZM28 52H27V53H26V54H25V55H23V56H22V57H21V58H22V57H23V56H25V55H26V54H27V53H28V52ZM25 60H24V61H25V60ZM27 55H28V56H27V55ZM28 55V54H29V55H28ZM30 57H31V59H30V57ZM31 59H32V60H31V59ZM34 55V56H32V55H34ZM35 54V55H34V54H35ZM37 53V54H35V53H37ZM37 53V52H39V53H37ZM40 53H41V54H40V53ZM37 55H36V56H37V55ZM40 57H41V58H40V57ZM40 58V59H39V58H40ZM39 61H40V62H39V61ZM36 61H35V62H34V63H35V62H36V61ZM43 70H42V71H43V70ZM46 64H47V65H46V64ZM48 62H47V63H48V62ZM48 62H49V60H48V62ZM51 60H50V61H51V60ZM51 65V64H53V65H51ZM53 67H52V66H51V67H50V69H49V71H50V69H51V67H52V68H53V67ZM49 73H48V74H49V73ZM61 63H62V64H61V63ZM63 64V65H62V64H63ZM63 64V63H64V64H63ZM66 66H65V67H64V68H65V67H66V66ZM70 63H69V62H68V61H67V62H68V63H69V64H70V63ZM70 61H71V62H70V61ZM70 60V61H69V60H70ZM68 58H69V59H68H67V60H66V58H67V57H68V58ZM75 55H74V54H72V53H70V52H67V53H66V54H67V53H70V54H72V55H74V58H75V55ZM70 55H69V54H68V55H69V56H70V55ZM53 52H54V53H53V52ZM52 51H51V52H52V51ZM49 51H50V52H49V51ZM42 46H41V47H42V46ZM39 45H40V46H39V45ZM38 45H37V46H38V45ZM38 36H39V37H38V36ZM37 25H36V26H37V25ZM36 28H37V29H36V28ZM50 41H49V42H50V41ZM51 41H52V42H51V41ZM54 42H53V43H54V42ZM61 44H62V45H61V44ZM68 45H67V44H65V43H63V42H61V43H63V44H65V45H67V47H68V45ZM60 43H59V44H60V43ZM58 41H59V40H61V41H60V42H58V41ZM70 39H71V41H70V39ZM70 38V39H68V38H70ZM68 37V38H66V37H68ZM66 36V37H63V36H66ZM63 35V36H61V35H63ZM61 37H63V38H61V37ZM65 38H64V39H65V38ZM60 36H58V37H60V36ZM56 26H58V27H56H55V25H56V26Z" fill="#524A4A"/>
<path fill-rule="evenodd" clip-rule="evenodd" d="M54 22H56V23H54V22ZM54 25H53V23H54V25ZM54 25H55V26H54V25ZM56 23H57V24H56V23ZM57 27H56V28H57V27ZM59 35H61V36H59V35ZM61 37V38H64V39H66H67V40H66V41V42H65V41H64H63V40H61H59V41H58V42H59V44H60H61V45H63H64V46H63V47V48H62V47H60V46H58V45H57V44H56V39H57V37H61ZM63 48H64V49H63V48ZM66 42H67V43H66V42ZM60 41H61V42H60V41ZM28 45H29V46H28V45ZM28 48H27V49H25V52H24V53H25V52H27V51H28V48ZM30 56H29V55H28V56H26V59H25V60H26V59H28V58H29V57H30V56ZM23 61H22V58H21V61H22V62H23V61ZM32 60H31V61H32V60ZM33 63H34V65H33V63ZM34 65H35V67H34V65ZM36 61H37V62H36V61ZM38 60V58H37V59H36V58H35V56H37V55H38V54H39H41V53H42V55H43V60V61H42V63H41V64H40V65H39V64H38V62H40V60H41V57H40V58H39V60H38ZM41 53H39V52H41V53ZM38 60V61H37V60H38ZM48 60H47V61H46V62H45V64H44V66H43V68H42V70H43V71H44V72H46V71H44V70H43V68H44V66H45V64H46V62H47V61H48V60ZM49 71H48V73H49V74H50V75H52V74H50V73H49V71ZM46 65H47V63H48V62H49V61H51V60H53V61H55V63H56V67H55V69H54V70H53H52V68H53V67V64H50V65H49V66H48V67H46V65ZM62 66H61V67H62V68H63V67H62V66ZM66 64H65V63H64V64H65V66H66V64ZM70 66H68V65H67V64H66V62H65V55H66V54H67H68V55H69V56H70V58H69V57H68V56H67H66V57H67V58H66V60H67V62H68V63H69V64H70V66ZM70 66V67H71V66H70ZM70 58V59H71V58H70ZM74 63H75V66H74V63ZM72 62H74V63H72V62ZM72 62H71V61H72V62ZM74 58H75V59H74V58ZM67 47H66V49H67V47ZM70 41H69V43H70V41ZM33 29H35V30H33V29ZM35 31V30H37V31H35ZM34 32H35V33H36H37V34H38H39V35H38V37H37H36V36H35V35H34V32ZM39 34V33H40V32H41V31H40V30H38V29H37V26H38V27H40V28H42V29H43H44V30H43V31H42V32V33H41V34H39ZM38 38V37H39V38H38ZM37 46H38V47H37V46ZM50 52H49V53H50V52ZM49 42H50V43H49V42ZM32 35H30V36H32V35Z" fill="#393131"/>
<path fill-rule="evenodd" clip-rule="evenodd" d="M35 27H33V28H34V29H35V30H36V29V28H35V27ZM68 38H67V40H68H69V41H70V39H69H68V38ZM23 56H25V57H24V61H22V57H23V56ZM35 62V63H34V65H35V67H37V65H36V63H37V62H35ZM44 66H45V68H44V66ZM44 68V69H45V70H46V71H45H44V70H43V68H44ZM71 63H73V64H74V68H72V64H71V63Z" fill="#FF8B4A"/>
<path fill-rule="evenodd" clip-rule="evenodd" d="M33 31H31V33H32V34H33H34V32H33V31ZM30 34H31V35H30V34ZM25 49H24V50H23V53H24V52H25V49ZM35 56H34V57H33V59H34V60H35V59H36V58H35V57V56ZM51 71H50V72H51V73H53V71H54V70H53H52V69H51V70V71ZM74 55H73V56H74V55ZM71 56H72V59H71V58H70V55H71V56ZM63 46H64H66V49H64V48H63V46Z" fill="#2983AC"/>
<path fill-rule="evenodd" clip-rule="evenodd" d="M32 33H30V34H31V35H32V36H33V35V34H32V33ZM64 44H65V45H66H67V47H66V46H64V45V44ZM22 49H24V50H23V54H21V50H22V49ZM32 56V57H31V59H32V61H34V59H33V57H34V56H32ZM50 69H51V71H50V69ZM50 71V72H51V73H52V74H51H50V73H49V71H50ZM71 55H73V56H74V60H72V56H71V55Z" fill="#52CDF6"/>
<path fill-rule="evenodd" clip-rule="evenodd" d="M56 23H55V24H56V23ZM52 40H53V41H52V40ZM33 43H32V44H31V45H30V46H31V47H32V48H33V47H34V46H35V45H34V44H33V43ZM40 44H41V45H40V44ZM38 51H37V50H36V49H33V50H32V51H31V54H32V55H34V54H35V53H37V52H38V51ZM33 53V52H34V53H33ZM53 50H52V51H53V50ZM54 49H55V48H56V47H57V48H58V49H59V50H58V51H57V52H56V51H55V50H54V49ZM59 58V57H60V58H59ZM61 59V58H62V57V55H61V54H60V53H57V54H56V55H55V58H56V59H57V60H60V59H61ZM47 30H50V31H51V32H52V35H51V36H50V37H47V36H46V35H45V34V32H46V31H47V30ZM48 34H47V33H48V34ZM42 35H41V36H42V35Z" fill="white"/>
<path fill-rule="evenodd" clip-rule="evenodd" d="M36 24H35V25H36V24ZM37 25H38V26H37V25ZM40 27H38V26H40V27ZM42 28H40V27H42V28ZM42 28H43V29H42V28ZM33 30H31V31H33V32H35V33H37V34H39V33H40V32H39V31H37V32H35V31H33V30ZM37 32V33H39V32H37ZM39 39V38H40V37H41V38H42V40H41V39H39ZM43 42H42V40H43V42ZM44 43H43V42H44V43ZM45 44H44V43H45V44ZM47 45H45V44H47V45ZM47 45H53V46H47V45ZM41 36H42V37H41V36ZM40 36V35H41V36H40ZM40 36H39V37H40V36ZM51 40H52V41H51V40ZM51 42H50V41H51V42ZM52 42V43H53V44H50V43H51V42H52ZM52 42H53V41H52V42ZM27 51H28V52H27V51ZM25 53V52H27V53H25ZM25 53V54H24V53H25ZM21 54H23V55H21V54ZM28 60V59H29V58H30V57H29V58H28V59H26V60H25V61H26V60H28ZM32 62V61H34V62H32ZM35 60V61H34V60H35ZM35 60V59H37V58H38V60H37H35ZM37 68V67H38V66H40V65H41V64H42V63H43V61H44V57H45V56H46V54H47V47H46V54H45V56H43V57V61H42V63H41V64H40V65H38V66H37V67H35V68H37ZM23 61H24V62H23V61ZM31 56H32V57H31V56ZM34 52H33V53H34V52ZM42 54H43V55H42V54ZM46 70H47V71H46V70ZM48 68H47V70H48V68ZM49 66V68H48V66H49ZM50 65V66H49V65H50ZM51 65V64H50V65H51ZM51 65H52V66H51V65ZM56 67H55V69H54V71H53V73H52V74H53V73H54V71H55V69H56V67ZM56 63V67H57V64H60V65H61V66H62V65H61V63H63V62H61V63H60H57H56ZM56 63H55V61H56V63ZM53 60V61H55V60H53ZM53 60V59H49V60H53ZM63 66H64V68H63V66ZM64 66H65V65H64V66ZM66 62H65V55H66V53H67V52H66V53H65V55H64V62H65V64H66V65H67V66H68V67H70V68H72V69H74V68H75V66H74V68H72V67H70V66H68V65H67V64H66V62ZM75 59H74V60H72V59H70V58H69V57H68V56H66V57H68V58H69V59H68V60H69V59H70V60H72V61H74V60H75V59ZM60 57H59V58H60V57ZM52 53H53V54H50V53H51V52H52V53ZM52 51H53V52H52V51ZM51 51V50H52V51H51ZM51 51H50V52H51V51ZM40 47H41V48H38V47H39V46H40V47ZM40 45H41V46H40V45ZM39 45V44H40V45H39ZM39 45H38V46H39V45ZM69 43H67V44H69V43ZM63 41H65V42H63V41ZM63 41H61V40H63V41ZM65 43V42H66V43H65ZM64 49H66V50H64V49ZM62 48V47H60V46H58V45H57V44H56V39H57V37H58V36H57V37H56V39H55V44H54V45H57V46H58V47H60V48H62ZM62 48V49H63V48H62ZM54 28H56V29H54V28ZM54 27V28H53V27H54ZM54 27V26H55V27H54ZM59 27H57V28H59V27ZM59 26H60V27H59V26ZM38 38H37V39H38V38ZM47 33H48V34H47V33Z" fill="#101010"/>
<path fill-rule="evenodd" clip-rule="evenodd" d="M53 27H47V28H45V29H44V30H43V31H42V33H41V34H42V33H43V31H44V30H45V29H47V30H50V29H47V28H53V27ZM56 29H57V30H56V29ZM58 31H57V30H58V31ZM59 33H58V31H59V33ZM59 33H60V35H59V33ZM37 41H41V42H37V41ZM43 43H41V42H43V43ZM44 44H43V43H44V44ZM45 45H44V44H45V45ZM45 45H46V47H45V45ZM36 48H33V49H36V48ZM29 50H28V54H29V56H30V57H31V56H32V55H31V51H30V54H29V50ZM31 55H30V56H31V55ZM37 49H38V50H37V49ZM39 51H38V52H39V51ZM48 54H47V58H48V60H49V58H48V54ZM55 55H54V59H55V60H56V61H61V60H62V59H63V55H62V59H61V60H56V59H55V55ZM60 62H61V63H60V62ZM62 61H63V62H62V61ZM63 61V60H64V61H63ZM62 53H61V54H62V53ZM57 52H60V53H57V52ZM65 50H64V51H65V53H66V51H65V50ZM53 32H52V35H53V32ZM44 32H45V35H44V32ZM50 37H47V38H50V37ZM51 30H52V31H51V30Z" fill="#5A8362"/>
<path fill-rule="evenodd" clip-rule="evenodd" d="M51 28H54V29H51V28ZM51 29V30H50V29H51ZM54 29H56V30H57V31H58V33H59V36H57V37H56V36V33H55V31V30H54V29ZM42 38H43V40H42V38ZM43 40H44V41H45H46V42H47H49V43H50V44H52V45H50H47V44H45V43H44V42H43V40ZM37 41H34V42H32V43H31V44H30V45H29V47H28V50H29V47H30V45H31V44H32V43H34V42H37V41ZM33 48H32V49H31V50H30V51H31V50H32V49H33V48ZM31 55H30V56H31V55ZM38 42H41V43H38V42ZM41 43H43V44H44V45H45V47H46V54H45V56H43V54H42V50H41V47H42V44H41V43ZM37 48H36V49H37V48ZM38 50H39V51H38V50ZM48 51H47V54H48V51ZM49 49V51H48V49H49ZM50 48H49V49H50V48ZM51 47V48H50V47H51ZM53 46H51V47H53V46ZM53 46H57V45H53V46ZM54 54H55V55H54V54ZM56 53H55V54H56V53ZM56 53H57V52H56V53ZM61 52H60V53H61V52ZM56 63V61H60H61V60H62V59H63V55H62V51V50H61V48H62V49H64V51H65V55H64V59V60H63V61H62V62H60V63H56ZM55 40H54V42H55V40ZM55 38H56V39H55V38ZM52 31H53V32H52V31ZM53 35H52V36H51V37H50V38H51V37H52V36H53V35ZM46 37H47V38H46V37ZM45 36H46V37H45V36ZM45 36H44V35H45V36ZM45 31H44V32H45V31ZM46 30V31H45V30H46ZM46 30H47V29H46V30Z" fill="#8BB4A4"/>
<path fill-rule="evenodd" clip-rule="evenodd" d="M48 28H47V29H48V28ZM45 29H46V30H45V29ZM44 31V30H45V31H44ZM44 31V32H43V31H44ZM43 33H42V35H43V33ZM43 39H44V40H43V39ZM44 40H45V41H44V40ZM46 41H49V42H46V41ZM38 42H34V43H38V42ZM29 47H30V48H29V47ZM29 53H30V54H29V53ZM41 48H40V49H41V48ZM41 50H42V51H41V50ZM53 29H54V30H53V29ZM54 30H55V31H54V30ZM55 33H56V34H55V33ZM56 37H55V38H56V37ZM54 39H55V40H54V39ZM55 42H54V43H53V44H52V45H53H54V44H55V42ZM49 49H50V50H49V49ZM51 48H50V49H51V48ZM51 48H52V47H51V48ZM54 46H53V47H54V46ZM57 46H58V47H57V46ZM60 47H59V48H60V49H61V48H60V47ZM62 50H61V51H62V50ZM55 52H56V53H55V54H54V56H53V55H51V54H53V53H54V51H55V52ZM49 58H50V59H49V58ZM49 58H48V57H49V58Z" fill="#B4D5BD"/>
<path fill-rule="evenodd" clip-rule="evenodd" d="M51 28H48V29H51V30H52V31H53V34V36H52V37H51V38H50H49H46V37H45V36H44V32H43V39H44V40H45V41H49V40H50V39H51H53V40H54V39H55V37H56V34H55V31H54V30H53V29H51V28ZM35 43H37H38V44H37V46V47H38V48H39H40V49H41V51H42V53H41V52H39V50H38V49H37V48H34H33V47H34V46H35V45H34V44H33V43H35ZM31 46H30V48H29V53H30V50H31V49H32V47H31V46ZM48 51H49V53H50V54H51V55H53V56H54V59H55V60H53V59H51H50V58H49V57H48V53V51ZM55 60H56V61H55V60ZM61 51H62V53H61V52H58H57V51H58V50H59V49H58V48H57V47H59V48H60V49H61V50V51ZM54 50H53V49H51V48H52V47H54V46H57V47H56V48H55V49H54V50ZM55 51H54V50H55V51ZM55 51H56V52H55V51Z" fill="#D5F6DE"/>
</svg>
