<svg width="100" height="100" viewBox="0 0 100 100" fill="none" xmlns="http://www.w3.org/2000/svg">
<path fill-rule="evenodd" clip-rule="evenodd" d="M46 39H44V40H43V41H44V40H46V39ZM44 45H45V46H44V45ZM45 45V44H46V45H45ZM49 44H50V45H49V44ZM50 45H51V46H50V45ZM50 49H51V50H50V49ZM50 50V51H49V50H50ZM45 50H46V51H45V50ZM45 50H44V49H45V50ZM44 56H45V57H44V56ZM47 56H46V57H47V56ZM46 58H47V59H46V58ZM45 58H44V59H45V58ZM54 52H55V53H54V52ZM55 54H54V55H55V54ZM56 52H57V53H56V52ZM57 54H56V55H57V54Z" fill="#D5D5D5"/>
<path fill-rule="evenodd" clip-rule="evenodd" d="M42 39H43V40H42V39ZM42 40V41H43V42H42H41V40H42ZM47 39H46V40H47V39ZM53 52H54V53H53V52ZM54 52V51H55V52H54ZM43 56H44V57H43V56ZM44 56V55H45V56H44Z" fill="#B4B4B4"/>
<path fill-rule="evenodd" clip-rule="evenodd" d="M44 38H47V39H44V38ZM44 39V40H43V39H44ZM40 41H41V42H40V41ZM41 42H43V43H41V42ZM47 40H46V41H47V40Z" fill="#8B8B8B"/>
<path fill-rule="evenodd" clip-rule="evenodd" d="M43 40H42V41H43V40ZM45 46H44V49H45V50H46V51H47H49V50H50V49H51V46H50V45H49V44H46V45H45V46ZM47 48V47H46V48H47Z" fill="white"/>
<path fill-rule="evenodd" clip-rule="evenodd" d="M47 39H48V40H47V39ZM46 40H44V41H43V42H45V41H46V40ZM40 42H41V43H40V42ZM49 42H46V43H49V42ZM42 45H43V46H42V45ZM41 48V46H42V48H41ZM41 48V49H40V48H41ZM40 53H38V54H36V56H38V55H39V54H40V53ZM40 58V60H38V58H40ZM44 57H43V59H44V60H47V59H48V56H47V55H45V56V58H46V56H47V59H44V57ZM49 59H52V60H49V59ZM57 55H54V53H53V55H54V56H57V55ZM57 52V51H55V52V54H56V52H57ZM57 52V55H58V52H57ZM63 45H64V47H63H62V48H60V49H59V48H57V47H56V46V44H57V43H58V42H60V41H61V43H60H59V44H58V46H59V47H60H61V46H63V45Z" fill="#524A4A"/>
<path fill-rule="evenodd" clip-rule="evenodd" d="M64 39H62V40H60V41H58V42H57V43H56V44H55V47H56V48H57V49H59V48H57V47H56V44H57V43H58V42H60V41H62V40H64V41H65V40H64V39ZM40 49H41V51H40V49ZM38 52H40V53H38V52ZM36 54V53H38V54H36ZM34 55V54H36V55H34ZM34 55V57H33V55H34ZM41 54V55H39V54H41ZM43 57H42V56H40V57H38V58H36V59H35V61H36V59H38V58H40V59H42H43V57ZM62 42H61V43H59V44H58V46H59V47H61V46H63V45H65V44H67V45H68V44H67V43H65V44H63V45H61V46H59V44H61V43H62V42ZM64 46H65V47H64V46ZM63 47H62V48H63V47ZM60 48H61V49H60V48Z" fill="#393131"/>
<path fill-rule="evenodd" clip-rule="evenodd" d="M47 40H48V41H47V40ZM47 41V42H46V43H44V44H41V43H43V42H45V41H47ZM61 43H63V44H61V43ZM61 44V45H60V46H59V45V44H61ZM64 42V43H63V42H64ZM64 42V41H65V42H64ZM41 51H40V54H41V55H38V56H36V57H34V58H36V57H38V56H41H42V57H43V56H42V54H41V51ZM42 60V59H40V60H38V61H36V62H38V61H40V60H42ZM49 59V60H47V59H49ZM54 58H52V59H54V58ZM55 57H54V58H55V57ZM55 57V56H56V57H55ZM52 43H54V44H52V43ZM52 43H49V42H52V43ZM54 44H55V45H54V44ZM46 47H47V48H46V47ZM45 57H44V58H45V59H46V58H47V57H46V58H45V57ZM54 53H55V54H54V53ZM56 54V55H55V54H56ZM56 54V53H57V54H56ZM57 48H56V49H57V50V52H58V50H62V49H64V48H66V47H67V46H68V45H67V46H66V47H63V48H61V49H57V48Z" fill="#101010"/>
<path fill-rule="evenodd" clip-rule="evenodd" d="M44 43H46V44H44V43ZM44 44V45H43V44H44ZM44 48H43V49H44V48ZM44 50H45V51H44V50ZM49 51H46V52H49V51ZM50 50H51V51H50V50ZM52 46H51V49H52V46ZM50 44H51V45H50V44ZM56 47H55V48H56V47Z" fill="#5A8362"/>
<path fill-rule="evenodd" clip-rule="evenodd" d="M51 43H50V44H51V43ZM43 45H44V46H43V45ZM43 46V48H42V46H43Z" fill="#D5F6DE"/>
<path fill-rule="evenodd" clip-rule="evenodd" d="M51 43H52V44H53V46H54V49H53V51H52V52H51V53H50H49V54H46V53H45H44V52H43V51H42V48H43V50H44V51H45V52H46H49H50V51H51V50H52V49V46V45H51V43ZM52 59V58H48V59H52Z" fill="#B4D5BD"/>
<path fill-rule="evenodd" clip-rule="evenodd" d="M50 43H46V44H50V43ZM45 44H44V45H45V44ZM43 46H44V48H43V46ZM44 49H43V50H44V49ZM45 51H46V52H45V51ZM50 51H49V52H50V51ZM51 49H52V50H51V49ZM52 45H51V46H52V45ZM53 44H54V45H55V48H56V49H57V51H54V52H53V53V55H54V56H55V57H54V58H48V56H47V55H46H44V56H42V54H41V48H42V51H43V52H44V53H46V54H47H48H49V53H51V52H52V51H53V49H54V48V46H53V44Z" fill="#8BB4A4"/>
<path fill-rule="evenodd" clip-rule="evenodd" d="M67 44H65V45H64V46H65V47H66V46H67V44ZM36 55H34V57H36V55Z" fill="#EE1800"/>
<path fill-rule="evenodd" clip-rule="evenodd" d="M64 40H62V41H61V42H62V43H63V42H64V40ZM38 59H36V61H38V59Z" fill="#2983AC"/>
</svg>
