<svg width="100" height="100" viewBox="0 0 100 100" fill="none" xmlns="http://www.w3.org/2000/svg">
<rect x="21" y="64" width="1" height="1" fill="#D9D9D9"/>
<path fill-rule="evenodd" clip-rule="evenodd" d="M21 65H22V67H21V65ZM20 67H21V68H20V67ZM20 67H19V66H20V67ZM29 75H30V76H29V75ZM32 76H31V77H32V76ZM46 82H47V83H46V82ZM50 83H49V84H50V83ZM51 81H52V82H51V81ZM52 75H51V76H52V75Z" fill="white"/>
<path fill-rule="evenodd" clip-rule="evenodd" d="M28 75H29V76H28V75ZM29 76H30V77H29V76ZM32 77H31V78H32V77ZM47 83H48V84H47V83ZM48 84H50V85H48V84ZM51 83V82H53V83H51ZM52 76H51V77H52V76Z" fill="#626262"/>
<path fill-rule="evenodd" clip-rule="evenodd" d="M15 68H16V69H17H18V71H17V72H16V73H15V74H14V75H13V73H14V71H15V68ZM13 75V76H12V75H13ZM30 72H29V74H30V73H31V75H32V74H33V72H34V71H33V72H32V71H31H30V72ZM32 72V73H31V72H32ZM46 79H45V80H46V79ZM47 77H46V79H47V82H48V83H49V82H48V79H49V77H48V74H47V77ZM47 77H48V79H47V77ZM51 77H50V80H51V77Z" fill="#B48B62"/>
<path fill-rule="evenodd" clip-rule="evenodd" d="M23 63H22V64H23V63ZM16 68H17V69H16V68ZM19 69H18V70H19V69ZM18 71H19V72H18V71ZM17 73V72H18V73H17ZM17 73V74H16V73H17ZM15 74H14V75H13V76H12V77H13V76H14V75H15V74ZM29 71H28V72H29V71ZM28 73H29V74H30V75H29H28V73ZM31 75H32V76H31V75ZM35 70H31V71H32V72H33V71H34V72H35V71V70ZM45 80H46V82H45V80ZM49 79H48V82H49V79ZM50 80H51V81H50V80ZM49 77V78H50V77V73H48H47V74H48V77H49ZM51 74H52V75H51V74Z" fill="#8B624A"/>
<path fill-rule="evenodd" clip-rule="evenodd" d="M22 63H21V64H20V65H19V66H18V68H17V67H15V68H17V69H19V70H20V69H19V68V66H20V65H21V64H22V63ZM15 70H14V71H15V70ZM13 72H14V73H13V72ZM13 73V75H12V73H13ZM12 76H11V78H12V76ZM15 73H16V74H15V73ZM16 75V74H17V75H16ZM16 75V76H15V75H16ZM27 71H28V73H27V71ZM31 70H28V71H31V70ZM31 70H33V69H31V70ZM32 72H31V73H30V74H31V73H32V72ZM34 72H33V73H34V72ZM35 71H36V72H35V71ZM50 72H48V73H50V77H51V79H52V77H51V73H50V72ZM49 78H50V81H49V78ZM50 81H51V82H50V81ZM47 82H48V83H47V82ZM47 79V82H46V79H47ZM47 79H48V77H47V79ZM45 79H44V80H45V79Z" fill="#523929"/>
<path fill-rule="evenodd" clip-rule="evenodd" d="M12 20H11V21H10V22H11V21H12V20ZM12 23H11V26H10V28H11V31H12V28H11V26H12V23ZM6 31H7V34H6V31ZM8 39H7V34H8V39ZM8 39H9V41H8V39ZM93 36H92V37H93V36ZM91 38H92V39H91V38ZM90 42H89V44H88V45H87V46H85V47H87V46H88V45H89V44H90V42ZM83 47H82V48H83V47ZM79 48H80V49H79V48ZM78 51V50H76V51H73V52H72V53H70V54H72V53H73V52H76V51H78ZM69 54H68V55H69V54ZM65 56H66V57H65V56ZM61 57H60V58H61V57ZM56 58H57V59H56V58ZM55 59H54V60H55V59ZM51 60H52V61H51V60ZM49 61H50V62H49V61ZM48 62H47V63H46V64H47V63H48V62ZM44 64H43V65H40V66H43V65H44V64ZM30 65H31V67H30V65ZM31 68V67H32V68H31ZM31 68V69H30V68H31ZM27 66H28V68H27V66ZM34 66H33V67H34V66ZM34 69H35V70H34V69ZM37 70H36V71H37V70ZM39 71H42V72H39V71ZM42 71V70H43V71H42ZM46 72H47V73H46V72ZM51 69H50V70H51V69ZM52 62H51V63H52V62ZM87 39H88V40H87V39ZM86 40H87V41H86V40ZM85 39H86V40H85V39ZM85 39H84V38H85V39ZM83 40H84V41H83V40ZM81 41H83V42H81V41ZM79 42H81V43H79V42ZM77 44V43H79V44H77ZM76 45V44H77V45H76ZM75 45H76V47H75V45ZM74 44H75V45H74V44ZM73 44V43H74V44H73ZM72 46V44H73V46H72ZM71 47V46H72V47H71ZM71 47H70H68V48H67V49H66V50H63V51H62V52H61V53H59V52H56V53H55V54H54V55H53V56H54V55H55V54H56V53H59V54H61V53H62V52H63V51H66V50H67V49H68V48H70V49H71V47ZM52 53H53V54H52V53ZM51 54H52V55H51V54ZM50 55H51V57H50V55ZM49 57H50V58H49V57ZM48 58H49V59H48V58ZM48 58V57H46V58H44V59H43V60H42V61H43V60H44V59H46V58H48ZM44 56H42V55H37V56H35V57H37V56H42V57H44V56ZM29 54H31V55H29V54ZM31 55H32V57H31V55ZM33 57H34V58H33V57ZM32 58H31V59H32V58ZM28 60H31V61H28V60ZM28 59V60H27V59H28ZM27 59H26V58H27V59ZM27 61H28V62H27V61ZM19 52H20V53H19V52ZM18 51H19V52H18V51ZM18 51V50H17V51H18ZM16 49H15V50H16V49ZM21 47H22V48H21V47ZM21 47H20V45H21V47ZM17 44H18V45H17V44ZM13 46H12V47H13V46ZM14 43H15V42H16V43V44H14V43ZM16 41H17V42H16V41ZM16 41V40H14V39H15V38H14V39H13V40H14V41H16ZM13 36H14V37H13V36ZM10 43H9V44H10V43ZM11 32H10V35H11V36H12V35H11V32ZM8 25H9V26H8V25ZM8 28H7V29H8V28Z" fill="#734110"/>
<path fill-rule="evenodd" clip-rule="evenodd" d="M9 22H10V23H9V22ZM9 23V25H8V23H9ZM8 26H7V28H8V26ZM6 29H7V31H6V29ZM9 41H8V43H9V41ZM9 44H10V45H9V44ZM12 45H11V46H12V45ZM12 47H13V48H12V47ZM14 49H13V48H14V49ZM14 49H15V50H14V49ZM17 50H16V51H17V52H18V51H17V50ZM21 65H20V67H19V68H20V67H21V65ZM15 68H14V70H15V68ZM13 71H14V72H13V71ZM12 75H11V76H12V75ZM12 77H13V78H12V77ZM14 76H13V77H14V76ZM15 75V76H14V75H15ZM15 75V74H16V75H15ZM16 72H17V73H16V72ZM18 73H17V74H18V73ZM18 72V73H19V72H20V71H23V70H25V69H26V68H27V67H26V68H25V69H23V70H18V71H17V72H18ZM18 72H19V71H18V72ZM25 60H24V61H25V62H27V61H28V60H27V59H26V58H25V59H26V60H27V61H25V60ZM28 66H30V67V68H29V67H28V66ZM31 69V70H29V69H31ZM30 71H29V72H28V73H27V75H28V73H29V72H30V71ZM30 74H31V77H30V74ZM33 74H32V77H33V74ZM34 73V74H33V73H34ZM34 73V72H35V73H34ZM35 70H36V71H35V70ZM36 71H39V72H36V71ZM34 69H33V68H32V69H33V70H34V69ZM33 65H31V66H33V65ZM30 59H31V60H30V59ZM33 57H32V58H33V57ZM34 56H35V57H34V56ZM42 71H44V72H46V73H43V72H42V71ZM46 77V73H47V77H46ZM46 77V79H45V77H46ZM44 80H45V82H44V80ZM46 83H45V82H46V83ZM46 83H47V84H46V83ZM49 83H48V84H49V83ZM49 83H50V81H49V83ZM52 79H51V81H52V82H53V81H52V79ZM53 74H52V73H51V72H50V71H51V70H50V71H49V72H50V73H51V74H52V76H53V74ZM44 56H45V57H44V56ZM45 57H46V58H45V57ZM44 64H46V65H44V64ZM49 62H48V63H49V62ZM50 61H52V62H50V61ZM53 63H52V67H51V69H52V67H53V63ZM54 60H52V61H54V60ZM55 59H56V60H55V59ZM60 58H57V59H60V58ZM61 57H65V58H61V57ZM67 56H66V57H67V56ZM67 56H68V55H67V56ZM70 54H69V55H70V54ZM78 49H80V50H78V49ZM83 48H80V49H83V48ZM83 48H85V47H83V48ZM91 41H90V42H91V41ZM91 41H92V39H91V41ZM93 37H92V38H93V37Z" fill="black"/>
<path fill-rule="evenodd" clip-rule="evenodd" d="M86 41H84V43H83V44H82V43H80V44H79V47H80V46H82V45H84V44H86V43H87V42H86V41ZM73 46H74V47H75V49H74V50H72V48H73V46ZM69 50H71V51H70V52H68V51H69V50ZM35 57H38H39V58H40V60H38V61H35V60H34V58H35V57Z" fill="#FFEE62"/>
<path fill-rule="evenodd" clip-rule="evenodd" d="M54 27H52V28H51V31V33H52V31H53V30H54V29H55V28H54V27ZM46 29H47V30H46V29ZM47 30H48V32H50V33H48V35H47V37V38H46V37H45V35V34H46V33H47V30ZM78 37H80V39V40H79V39H78V37ZM26 48H27V49H26V48ZM26 49V51V52H27V54H25V56H24V57H23V58H22V57H21V58H20V57H19V55H22V56H23V55H24V53H25V52V51H24V49H26ZM15 57H17V59H16V60H17H18V61H17V64H16V65H15V66H14V63H15V60H14V58H15V57ZM71 44H69V46H68V47H70V46H71V44ZM63 49H61V50H60V51H59V52H60V51H62V50H63V49ZM42 40H44V39H45V40V41H46V42H47V41H48V39H49V38H51V39H50V40H53V41H51V42H50V43H49V44H46H45V45H43V44H42V40ZM51 38V37H53V38H51Z" fill="#FFD562"/>
<path fill-rule="evenodd" clip-rule="evenodd" d="M57 25H58V26V28H56V26H57V25ZM55 29H56V28H55V27H54V28H55V29ZM55 29V30H54V29H55ZM52 27H51V28H50V30H51V28H52V27ZM46 28H44V30H46V31H47V30H46V28ZM47 32H46V33H47V32ZM58 34V35H57V36H55V35H56V34H58ZM53 36H54V37H53V36ZM18 38H20V40H19V43V44H18V43H17V41H16V40H17H18V38ZM26 47H28V48H26V47ZM26 49H25V48H26V49ZM26 49H27V50H26V49ZM27 51H26V52H27V51ZM25 54H26V55H25V54ZM24 57H23V58H22V57H21V58H22V59H23V58H24V57ZM16 56H19V57H20V59H19V61H18V60H16V59H17V57H16V56ZM18 61V62H17V61H18ZM44 50H43V49H42V51H43V52H44V50ZM45 45H44V46H45V45ZM45 45H46V44H45V45ZM42 40H41V43H42V40ZM47 45V44H49V45H47ZM49 44V43H50V44H49ZM51 41H52V42H51V41ZM54 40H53V41H54V40ZM50 39H51V40H50V39ZM51 38V37H50V36H48V35H49V34H52V33H51V31H50V33H49H48V35H47V36V38H46V39H45V41H46V42H47V41H48V39H49V38H50H51ZM51 38V39H52V38H51ZM53 43H52V44H51V46H52V45H53V43ZM53 31H52V32H53V31ZM59 52V51H60V52H62V51H63V50H64V49H63V48H62V49H63V50H62V51H60V50H59V49H58V51H57V52H59ZM67 47H68V48H67V47ZM71 46H70V47H71V46ZM68 44H69V46H68V44ZM71 43H69V44H71V45H72V43H71ZM76 37H75V39H76V41H77V42H79V41H80V40H81V38H80V40H79V39H78V38H76V37ZM80 36H78V37H80V36ZM82 39H83V41H82V39ZM85 37V36H84V37H83V39H84V38H85V39H86V37H85Z" fill="#FFA44A"/>
<path fill-rule="evenodd" clip-rule="evenodd" d="M59 23H60V25H59V28H60V31H58V29H57V30H56V31H55V32H54V34V35H55V36H57V35H58V34H56V33H59V34H60V35H59V36H58V37H56V40H58V41H59V42H58V43H56V42H55V43H54V44H56V47H55V48H53V47V46H52V45H53V44V43H52V44H51V45V46H52V47H51V49H50V50H48H47V49H48V48H49V47H50V45H49V44H50V42H52V41H54V40H52H51V39H52V38H53V37H54V36H53V37H50V36H49H48V35H49V34H52V32H53V30H55V29H56V28H58V24H59V23ZM50 28V26H49V25H50H51V24H53V26H55V25V24H56V25H57V26H56V28H55V27H53H51V28H50ZM50 30V28H49V30H48V29H47V28H46V27H45V26H44V27H43V30H44V31H45V32V34H44V37H45V38H44V39H41V40H40V43H41V44H42V45H43V46V48H42V47H41V46H40V47H39V50H40V51H41V53H42V54H43V55H44V56H46V55H45V54H46V53H47V51H46V52H45V50V48H46V47H48V46H49V45H48H47V44H46V45H45V46H44V45H43V44H42V43H41V40H44V39H46V38V37H45V34H46V32H47V31H46V30H44V28H45H46V29H47V30H48V32H49H50V31H51V30H50ZM50 30V31H49V30H50ZM56 34V35H55V34H56ZM15 28H13V29V30H14V29H15V28ZM14 32H15V33H16V34H15V35H14V36H13H12V34H13V33H14V32ZM14 39V40H16H18V38H20V40H19V43H20V44H18V43H17V42H16V44H17H18V45H20V44H21V47H23V45H24V44H23H21V43H20V40H21V37H20V36V34H19V36H18V38H16V39H14ZM29 45H27V46H26V47H27H28V48H29V47H30V46H29V45ZM25 48H24V49H23V51H24V53H23V54H22V53H20V54H19V55H18V56H19V55H20H22V56H23V55H24V53H25V51H24V49H25V48ZM26 50H27V51H26V50ZM27 54V51H28V52H29V53H28V54H27ZM14 66H15V65H16V64H17V62H18V61H19V59H20V58H22V59H23V58H24V56H25V55H26V54H27V56H26V57H27V58H26H25V60H24V61H23H22H21V62H19V64H18V66H16V67H15H14V66ZM14 63V66H13V63H14ZM14 60H15V63H14V60ZM14 58V60H13V58H14ZM15 57V58H14V57H15ZM15 57V56H16V57H15ZM31 52H30V54H31V55H32H33V54H32V53H31V52ZM35 55H36V56H35V55ZM43 50H44V52H43V51H42V50V49H43V50ZM67 34H66V35V37H68V35H67V34ZM48 54H49H50V53H51V55H50V56H49V55H48V54ZM51 53V52H52V53H51ZM54 51H55V50H56H57V49H58V51H57V52H56V53H55V54H54V51ZM59 49H58V48H59V49ZM61 49V50H59V49H61ZM62 48V49H61V48H62ZM63 48H62V47H63V48ZM64 49H63V48H64V49ZM68 44V47H67V48V49H66V50H64V49H65V48H66V45H67V44H68ZM69 43V44H68V43H69ZM69 43V42H70V40H71V41H72V42H73V44H72V43H71H70H69ZM61 52V53H59V52H61ZM53 61H52V62H53V61ZM72 45H71V46H72V45ZM75 43H74V44H75V45H76V44H77V43H79V42H81V41H82V40H80V41H79V42H77V41H76V39H75V37H76V38H78V37H77V36H76V35H75V37H74V38H73V39H74V40H75V41H76V42H75V43ZM78 35H79V36H78V35ZM81 37H80V38H81V37ZM83 39H82V37V36H84V37H83V39ZM85 36H84V35H85V36ZM86 37H85V36H86V37ZM87 39H88V38H89V37H90V36H89V35V34H88V35H87V37H86V39V40H87V39Z" fill="#EE6239"/>
<path fill-rule="evenodd" clip-rule="evenodd" d="M59 15H56V16H57V17H58V19H59V21H58V22H57V24H56V25H58V24H59V23H60V25H59V28H60V31H58V30V29H57V30H56V31H55V32H54V34V35H55V34H56V33H59V34H60V35H59V36H58V37H60V36H61V35H62V33V32H61V31H64V30H65V29H66V27H65V25H64H63V24H62V22H63V19H62V17H61V16H60H59V15ZM18 17H16V18H15V19H13V20H12V21H11V22H12V24V26H11V28H12V31H11V33V34V35H12V34H13V33H14V31H13V28H14H16V27H17V26H18V24H16V25H15V26H14V24H15V21H17V19H18V17ZM14 36V38H15V39H16V38H17H18V37H17V36H15V35H14V36ZM21 34H22V36H21V37H20V36V34H19V33H20V32H21V33V34ZM21 37H22V40H21V37ZM16 31H17V32H16V31ZM16 32V33H15V32H16ZM19 35H18V36H19V35ZM19 43H20V44H19V43ZM20 44H21V45H20V44ZM22 43H24V44H22V43ZM25 45V44H24V45H23V46V47H22V49H23H24V48H26V46H27V45H29V46H30V47H29V48H27V50V51H28V52H29V53H28V54H27V56H26V57H27V56H28V54H29H30V52H31V53H32V54H33V55H32V57H34V56H35V55H36V56H37V55H39V53V52H38V53H37V54H36V53V52H34V53H33V52H32V51H29V50H30V48H33V47H34V44H33V45H30V44H29V42H28V44H27V45H25ZM25 45H24V46H25V45ZM24 43V42H25V43H24ZM23 51H24V53H23V51ZM23 53V54H22V53H23ZM53 61H54V62H53V61ZM53 62V63H52V62H53ZM41 53H42V54H41V53ZM42 54H43V55H44V56H43H42V54ZM49 58V57H50V56H49V55H48V54H50V53V50H52V49V48H53V46H52V47H51V49H50V50H47V49H48V48H49V47H50V45H49V46H48V47H47H46V48H45V51V52H46V51H47V53H46V54H45V55H46V56H45V57H48V58H49ZM41 46H42V45H43V48H42V47H41V46ZM51 53H52V54H51V53ZM54 55V53V51H55V50H53V51H52V53H53V55H54ZM57 48H56V50H57V49H58V47H57V48ZM57 43H56V42H55V43H54V44H55H56V45H57V43ZM56 37H57V38H56V37ZM50 30H49V29V28H50V26H49V27H47V26H46H45V27H46V28H47V29H48V30H49V31H50V30ZM63 46H64V47H66V48H65V49H64V48H63V46ZM68 43H67V44H68V43ZM68 43V41H69V39H70V42H69V43H68ZM73 42H74V41H73V40V39H74V40H75V41H76V42H75V43H73V42ZM76 35H77V34H78H79V33H80V35H81V37H80V36H79V35H78V37H77V36H76V35ZM81 37H82V40H81V37ZM83 35H84V36H83V35ZM86 34H85V36H86V37H87V35H88V34H89V36H90V37H89V38H88V39H89V38H90V37H91V36H93V33H92V31H93V29H92V28H91V29V30H90V29H89V31H88V33H87V35H86V34Z" fill="#D50808"/>
<path fill-rule="evenodd" clip-rule="evenodd" d="M12 22H10V23H9V26H8V28V29H7V34H8V29H9V28H10V29H11V28H10V26H11V23H12V22ZM9 33H10V34H9V33ZM11 31H10V32H11V31ZM12 36H13V37H12V36ZM13 37H14V38H13V37ZM13 43H14V44H13V43ZM13 45H12V46H13V45ZM16 44H17V45H16V44ZM14 47H13V48H14V49H16V50H18V51H19V52H20V53H21H23V49H21V48H19V47H18H16V48H14V47ZM29 54H28V55V56H27V59H28V60H30V59H31V60V61H32V60H33V59H34V58H35V57H34V58H32V57H31V55H30H29V54ZM32 58V59H31V58H32ZM22 64H23V65H22V64ZM29 61H28V62H29V61ZM29 65H30V66H29V65ZM31 67H30V68H31V69H32V68H33V69H34H35V70H37V71H42V70H43V71H44V72H47V73H48V72H49V71H50V70V69H51V67H52V63H51V62H49V61H51V60H53H54V59H56V58H60V57H62H65V56H67V55H68V54H67H65H64V55H62V56H61V54H62V53H61V54H60V55H58V56H56V55V54H57V53H56V54H55V55H54V56H53V55V54H52V55H51V57H50V58H49V59H48V58H46V59H44V60H43V61H41V63H40V64H39V65H36V66H35H34V67H33V66H31V67ZM47 63V62H49V63H47ZM46 64V63H47V64H46ZM43 65V64H46V65H43ZM43 65H40V66H43V65ZM31 67H32V68H31V67ZM45 57H44V58H45V57ZM67 50H66V52H67V50ZM70 53H69V54H70V53ZM71 52H72V53H71V52ZM71 49H70V50H71V49ZM72 46H73V48H72V46ZM79 44H77V45H79V44ZM82 42H83V43H82V42ZM84 39H83V40H84V39ZM87 40H88V42H87V40ZM88 40V39H89V40H88ZM90 40H91V41H90V40ZM89 43H88V44H89V43Z" fill="#DE9410"/>
<path fill-rule="evenodd" clip-rule="evenodd" d="M10 28H9V29H8V31V33V34V35V39H9V43H10V45H11H13V47H14V48H16V47H19V48H21V49H22V48H21V47H20V45H16V44H13V43H15V42H16V41H15H14V40H13V39H14V38H13V37H12V36H11V35H10V34H9V33H10V31H11V29H10V28ZM18 66H16V67H17V68H18V67V66ZM18 66V64H19V62H21V61H25V62H29V61H32V60H33V59H34V60H35V61H38V60H40V58H39V57H37V56H40H42V57H44V59H43V60H42V61H41V62V63H40V64H39V65H36V66H33V65H29V66H27V67H26V68H25V69H23V70H20V69H19V68H20H21V67H22V65H23V63H21V64H20V65H19V66H18ZM56 54H57V53H59V54H60V55H58V56H56V54ZM67 52H66V51H63V52H62V54H61V56H62V55H64V54H69V53H71V52H73V51H76V50H78V49H79V48H82V47H85V46H87V45H88V44V43H89V42H90V40H91V38H92V37V36H91V37H90V38H89V40H88V42H87V41H86V40H85V39H84V41H83V43H82V42H81V43H82V44H83V43H84V41H85H86V42H87V43H86V44H84V45H82V46H80V47H79V45H76V47H75V45H74V44H73V46H74V47H75V49H74V50H72V47H71V51H70V52H69H68V51H69V50H70V49V48H68V49H67V51V52ZM80 43H79V44H80V43Z" fill="#FFC54A"/>
</svg>
