<svg width="100" height="100" viewBox="0 0 100 100" fill="none" xmlns="http://www.w3.org/2000/svg">
<path fill-rule="evenodd" clip-rule="evenodd" d="M65 37H66V38H65V37ZM28 48H29V49H28V48ZM30 51H29V49H30V51ZM31 51H30V52H29V53H28V51V50H26V51H27V53H26V52H25V53H24V54H27V56H28V57H29H30H31V56H32V55H33V56H36V55H34V54H32V53H31V51ZM31 51V48H32V49H33H34V50H33V51H32H31ZM27 54V53H28V54H27ZM36 53H35V54H36V53ZM37 64H39V65H38V66H36V65H37V64ZM63 64H64V65H63V64ZM63 64H61V63H63V64ZM68 37H67V38H68V37ZM66 39H67V40H66V39ZM69 40V41H67V40H69ZM70 40H69V39H70V40ZM71 40V41H70V40H71ZM71 40V39H72V40H71ZM72 37H71V38H72V37ZM75 39H76V40H75V39ZM75 41H73H72V43H71V44H70V45H68V46H70V47H73V45H75V44H73H72V43H73V42H75V41ZM77 42H76V43H77V42ZM64 43H65V44H64V43ZM68 43H67V44H68V43ZM64 45H67V46H64V45ZM46 44H45V45H46V46H49V47H54V49H55V50H56V54H55V55H54V56H50V55H49V54H48V55H45V56H46V57H47V58H54V57H55H56V56H57V54H58V50H57V48H56V47H55V46H54V45H49H46V44ZM42 51H41V53H42V51Z" fill="#D9D9D9"/>
<path fill-rule="evenodd" clip-rule="evenodd" d="M46 34H44V35H45V37H44V38H45V37H46V35V34ZM50 35H52V36V38H51V36H50V35ZM51 38V39H50V38H51ZM66 43H65V44H64V45H65V44H66V45H70V44H71V42V41H70V42H69V41H68V42V44H66V43ZM30 46H28V47H29V49H30V47V46ZM27 48H25V49H26V50H27V49V48ZM24 51H25V52H24V51ZM34 47H32V48H33V49H34V48V47ZM32 51H31V53H32V51ZM34 53H35V54H34V53ZM35 54H36V55H35V54ZM37 63H38V64H37V65H36V63H37ZM62 62H63H64V64H63V63H62V62ZM66 37H67V38H66V37ZM67 38H68V40H67V38ZM65 38H66V39H65V38ZM70 37H69V39H70V40H71V39H72V38H71V37H70ZM71 38V39H70V38H71ZM75 39H73V40V41H74V40H75V41H76V40H75V39ZM75 42H76V43H75V42ZM75 44H74V43H75V44ZM75 44V45H77V44V43H76V44H75ZM43 49H44V48H45V46V45H46V46H49V47H50H54V48H50V49H49V50H48V54V55H44V54H43V49Z" fill="white"/>
<path fill-rule="evenodd" clip-rule="evenodd" d="M48 29H50V30H51V32H50V33H47V32H46V30H48V29Z" fill="#FFEEEE"/>
<path fill-rule="evenodd" clip-rule="evenodd" d="M54 29H55V31H54V34H55V38H54V39H53V38V34H51V35H50V38V40H49V41H45V40H44V41H45V42H48V43H44V42H43V41V37H42V35H43V33H44V32H45V31H46V32H47V33H46H45V34H44V35V37V38H45H47V33H50V32H51V30H50V29H54ZM50 40H51V39H53V40H52V42H50V40ZM64 47H63V48H64V49H68V48H64V47ZM36 49H37V50V51H36V52H33V51H35V50H36V49ZM39 62H38V63H39V64H40V63H41V62H42V61H41V60H40V61H39V62ZM59 58H61V60H62V62H60V60H59V58Z" fill="#FFCDCD"/>
<path fill-rule="evenodd" clip-rule="evenodd" d="M42 43H43V44H42V43ZM43 44H44V47H43V48V49H41V50H40V48H39V47H37V46H39H42V45H43V44ZM44 54H41V55H43V56H44V58H43V59H41V60H43V61H45V60H46V57H45V56V55H44V54ZM40 55H39V56H38V57H39V56H40V55ZM40 58V59H38V58H40ZM53 48H54V49H53V48ZM55 50H54V49H55V50ZM50 55H53V54H54V53H55V50H56V54H55V55H54V56H53H50V55ZM50 55H49V54H50V55ZM54 60H57V59H58V58H59V57H60V55H59V54H58V56H57V57H56V58H54V60ZM62 49H61V47V46H62H63V45H62V44H61V43H60V46H59V47H58H57V48H58V49H59V50H62V49Z" fill="#BD4A73"/>
<path fill-rule="evenodd" clip-rule="evenodd" d="M41 41H38V42H37V43H36V47H37V48H36V49H35V50H34V51H35V50H36V49H37V48H39V50H40V48H39V47H37V43H38V42H41V41ZM44 44H45V45H44V44ZM41 49H42V51H41V49ZM43 47V48H45V47H43ZM54 44H56V45H54V44ZM57 43H56V44H57V43ZM61 43H57V42H61V43ZM62 44H61V43H62V44ZM62 44H63V45H62V44ZM62 46H61V47H62V46ZM63 46H64V47H63V46ZM64 47H68V48H64V47ZM69 49H70V50H69V49ZM69 50V51H68V50H69ZM63 50H64V51H63V50ZM62 50H59V51H62V50ZM59 54H60V55H59V54ZM60 55H61V56H60V55ZM59 57H60V58H59V57ZM58 59H57V60H58V59ZM54 60H55V61H54V60ZM46 56H45V57H46V60H45V61H46V60H47V57H46V56ZM41 53H42V54H41V53ZM41 54V55H40V54H41ZM38 57H39V58H38V57ZM38 58V59H41V60H38H37V58H38ZM42 62H41V63H42V62ZM42 62V60H43V61H44V62H43H42Z" fill="#733139"/>
<path fill-rule="evenodd" clip-rule="evenodd" d="M43 24H42H41H39V25H41V26H42V27H43V28H44V29H45V28H44V26H43V24ZM65 27H61V28H60V29H58V30H56V31H58H60V30H62V29H64V30H65V31H69V30H67V29H66V28H65V27ZM70 36H72V37H70V36ZM72 37H73V38H72V37ZM74 38H76V39H74V38ZM76 39H77V40H76V39ZM74 42H73V43H72V42H71V43H72V44H73V43H74V42ZM54 45H55V46H54V45ZM55 46H56V47H55V46ZM31 46H30V47H31V46ZM27 49H28V50H27V49ZM31 50H30V51H29H28V53H27V54H26V55H27V54H28V53H29V52H30V51H31V50ZM23 51H24V52H23V51ZM26 51H27V52H26V51ZM33 46H34V47H33V46ZM34 47H35V48H34V47ZM33 53H34V54H33V53ZM43 50H42V53H43V50ZM34 70H37V71H34V70ZM38 73H37V74H38V75H39V74H41V73H42V72H41H39V73H38ZM65 70V71H66V70H67V69H64V70H63V71H60V72H63H64V70H65ZM61 64H60V65H61V64ZM69 46H70V47H69V46ZM74 45H73V46H74V45ZM77 42H78V43H77V42ZM69 41H70V42H69V41ZM69 39H68V40H69V39Z" fill="#628BBD"/>
<path fill-rule="evenodd" clip-rule="evenodd" d="M39 23H41V24H39V23ZM37 25V24H39V25H37ZM37 26V25H36V26H35V28H36H37V27H38V28H39V27H38V26H37ZM37 26V27H36V26H37ZM44 25H43V26H44V27H45V26H44V25ZM65 26H61V27H60V28H58V29H55V30H58V29H60V28H61V27H65V28H66V29H67V28H66V27H65V26ZM54 31H55V32H54V31ZM56 34H55V35H56V34ZM56 36H57V37H56V36ZM57 37H59V38H57V37ZM56 47H57V48H56V47ZM58 49H57V48H58V49ZM58 49H59V50H58V49ZM58 54H57V55H58V54ZM48 58H47V59H48V58ZM37 69H34V70H33V71H34V70H37V69ZM35 71H36V72H35V71ZM37 75H36V76H37V75ZM39 74H40V75H39V74ZM42 72V71H43V70H42V71H40V72H42ZM53 58H54V59H53V58ZM58 68H59V69H58V68ZM59 69H60V70H59V69ZM62 70H63V71H62V70ZM65 71H64V72H65V71ZM68 72H69V73H68V72ZM65 68H64V69H65V68ZM65 34H64V35H65V34ZM66 32H67V33H66V32ZM41 31H40V32H41V31ZM43 53H42V54H43V53Z" fill="#10314A"/>
<path fill-rule="evenodd" clip-rule="evenodd" d="M55 28H48V29H46V30H45V31H44V32H43V33H42V34H43V33H44V32H45V31H46V30H48V29H55V28ZM46 33H45V34H46V37H45V38H46V37H47V34H46V33ZM51 34H52V35H51V34ZM52 38V35H53V38H52ZM52 38V39H51V38H52ZM41 35H42V36H41V35ZM41 38H40V39H41V38ZM60 40H59V41H60V40ZM58 58H59V59H58V58ZM39 60H38V61H39V60ZM42 63H41V64H40V65H41V64H42V63ZM39 66H38V69H39V66ZM39 70H40V71H39V70ZM42 70H41V71H42V70ZM42 70H43V69H42V70ZM43 67H42V66H41V67H42V68H43V67ZM59 67H58V68H59V67ZM59 67H60V65H59V67ZM63 67H62V69H63V67ZM63 67H64V66H63V67ZM59 61H58V62H59V61ZM50 42H51V43H50V42ZM50 42H49V40H50V42ZM46 43H45V44H46V45H47V44H46V43ZM45 40H44V41H45V42H46V41H45V40Z" fill="#6A3931"/>
<rect x="49" y="50" width="2" height="2" fill="#D9D9D9"/>
<path fill-rule="evenodd" clip-rule="evenodd" d="M41 23H43V24H41V23ZM43 24H44V25H43V24ZM62 29H64V30H65V31H69V32H65V34H64V33H62V34V35H61V34H60H59V35H60V36H59V37H57V36H56V35V34H55V31V30H56V31H60V30H62V29ZM69 36H70V37H69V36ZM68 37H69V39H68V37ZM68 37H66V36H68V37ZM74 38H72V39H74V38ZM77 41H76V42H77V41ZM66 42V43H64V42H66ZM64 43V44H63V43H64ZM66 43H67V44H66V43ZM28 45H30V46H28V45ZM27 47V46H28V47H27ZM25 48V47H27V48H25ZM25 48V49H24V48H25ZM25 50H26V51H25V50ZM32 51H33V52H32V51ZM36 53V52H34V53H36ZM36 53V54H37V53H36ZM33 53H32V54H33V53ZM32 55H33V56H32V55ZM31 57H30V58H31V57ZM23 52H24V53H23V52ZM27 52H26V53H27V52ZM29 50H28V51H29V50ZM30 49H31V50H30V49ZM32 47H31V48H32V47ZM32 46H33V47H32V46ZM35 48H34V49H35V48ZM35 63H36V64H35V63ZM38 63V62H36V63H38ZM39 64V63H38V64H39ZM39 64V65H38V66H40V65V64H39ZM44 70H43V71H42V73H43V72H44V70ZM40 71H39V70H38V71H37V72H35V71H33V72V73H34V75H37H38V74H37V72H38V71H39V72H40V71ZM58 69H59V70H60H62V71H60V72H58V70V69ZM62 70V69H63V70H62ZM61 72H64H65V71H66V70H68V72V73H67V74H64V73H61V72ZM61 65H60V64H61V65ZM61 63V64H62V65H61V66H60V65H59V64H60V63H61ZM62 62V63H61V62H62ZM62 62H64V61H62V62ZM67 45H68V46H67V45ZM68 46H69V47H68V46ZM72 47H73V48H72V47ZM74 46H73V47H74V46ZM74 46H75V45H74V46ZM74 43H73V44H74V43ZM74 43H75V42H74V43ZM77 43H78V44H77V43ZM71 40H72V41H71V40ZM70 40H69V41H70V40ZM66 40H67V41H66V40ZM36 26H37V27H36V26ZM40 28V29H39V27H38V26H37V25H41V26H42V27H43V28H44V29H45V28H46V30H45V31H44V32H43V33H42V32H41V28H40ZM45 28V27H44V28H45Z" fill="#104A73"/>
<path fill-rule="evenodd" clip-rule="evenodd" d="M46 33H47V34H46V33ZM43 37H42V38H43V37ZM42 40H43V42H42V40ZM43 42H44V43H43V42ZM37 48H39V51H38V52H37V53H36V52V51H37V48ZM47 37H46V38H47V37ZM53 34H52V35H53V34ZM50 39H51V40H50V39ZM53 38H52V39H53V38ZM61 47H62V46H63V47V48H64V49H68V47H70V48H71V49H70H69V50H64H63V49H61V47ZM58 59H59V60H60V62H61V63H59V62V61H58V59ZM40 60H39V61H40V60ZM41 60H42V61H41V60ZM41 63H40V64H41V63ZM41 66V67H42V70H41V71H40V70H39V66H41ZM62 70V69V67H63V65H61V66H60V67H59V69H60V70H62ZM46 43V44H48H50H51H53H56V43H57V42H59V40H60V37H59V38H57V37H56V36H55V38H54V39H55V40H56V42H55V43H53V42H51V43H50V42H48V43H46Z" fill="#DEA4A4"/>
<path fill-rule="evenodd" clip-rule="evenodd" d="M67 38H66V39H67V38ZM42 41V40H43V38H41V40V41H42ZM38 42H42V43V44H43V45H42V46H37V43H38V42ZM29 47H28V48H29V47ZM25 49H26V50H25V49ZM24 52H25V53H24V52ZM32 48H33V49H32V48ZM35 54H34V55H35V54ZM39 56H40V55H43V56H44V58H43V59H40V58H39V56ZM52 40H53V39H55V40H56V42H55V43H53V42H52V40ZM56 44H57V43H60V46H59V47H57V46H56V44ZM65 44H66V45H65V44ZM70 38H71V39H70V38ZM75 40H74V41H75V40ZM75 43H76V44H75V43ZM49 50H48V54H49H50V55H53V54H54V53H55V50H54V49H53V48H50V49H49V50ZM49 50H51V52H49V50Z" fill="#FF5A6A"/>
<path fill-rule="evenodd" clip-rule="evenodd" d="M46 27H45V28H46V29H47V28H46V27ZM39 28H38V29H39V30H40V31H41V28H40V29H39V28ZM42 32H41V33H42V32ZM42 34H43V35H42V34ZM42 36H41V38H42V36ZM40 39H41V41H40V39ZM42 42H41V41H42V42ZM43 43H42V42H43V43ZM43 43H45V44H43V43ZM44 45H45V47H44V45ZM45 35H44V37H45V35ZM50 36H51V38H50V36ZM55 32H54V34H55V32ZM55 35H56V36H55V35ZM61 34H59V35H60V36H59V37H60V40H61V37H60V36H63V35V34H64V33H63H62V35H61V34ZM66 32H65V35H66V32ZM67 29H69V30H67V29ZM69 30H70V33H69H67V32H69V30ZM60 41H59V42H60V41ZM65 36H66V37H65V36ZM65 39H64V37H65V39ZM65 39H66V41H65V39ZM68 41H67V43H68V41ZM71 41H72V42H71V41ZM72 41V39H73V41H72ZM76 40H77V41H76V40ZM76 41V42H75V41H76ZM77 44H78V45H77V44ZM77 45V46H75V45H77ZM70 47H71H72V49H71V48H70V47ZM71 49V50H70V49H71ZM67 46H64V44H63V46H64V47H67V46ZM63 49H62V50H63V49ZM68 50V51H64V50H68ZM56 45H55V46H56V47H57V46H56V45ZM54 44H47V45H54V44ZM46 41H49V42H46V41ZM58 49H57V50H58V54H59V50H58V49ZM61 56H60V58H61V60H62V61H63V60H62V58H61V56ZM64 62H65V65H64V62ZM63 65H64V66H63V65ZM63 65H62V64H63V65ZM64 68H63V70H64V71H65V70H64V68ZM67 69V68H65V69H67ZM68 70V69H67V70H68ZM68 70V72H69V70H68ZM67 73H68V74H67V73ZM64 74H67V75H64V74ZM61 73H64V74H61V73ZM58 72H61V73H58V72ZM58 72H57V69H58V72ZM60 63H59V62H58V63H59V64H60V63ZM58 60H55V61H58V60ZM53 59H54V60H53V59ZM48 59V58H53V59H48ZM47 60V59H48V60H47ZM46 61V60H47V61H46ZM46 61V62H44V61H46ZM56 58V57H57V56H58V55H57V56H56V57H54V58H56ZM41 64H42V65V66H40V65H41V64ZM42 68H43V69H42V68ZM44 70H43V69H44V70ZM44 72V70H45V72H44ZM43 73V72H44V73H43ZM41 74V73H43V74H41ZM41 74V75H40V74H41ZM39 75V76H37V75H39ZM36 75H34V73H33V71H32V73H33V75H34V76H36V75ZM36 71H37V72H36V71ZM38 71H39V72V73H37V72H38V71ZM38 70V71H37V70H38ZM38 70V69H39V70H38ZM38 66H36V64H35V66H36V67H38V66ZM39 61H38V62H39V61ZM43 48H44V49H43V48ZM43 49V50H42V49H43ZM39 50H40H41V53H40V51H39V50ZM38 51H39V52H38V51ZM38 52V53H37V52H38ZM36 54H37V56H36V54ZM36 56V57H33V56H36ZM31 56H32V57H31V56ZM30 57H28V56H27V55H26V54H24V53H23V54H24V55H26V56H27V57H28V58H30V57ZM24 49H25V51H24V49ZM25 51H26V52H25V51ZM27 47H28V49H27V47ZM28 49H29V50H28V49ZM30 47H31V49H30V47ZM35 49H34V50H33V51H34V50H35V49ZM34 53V52H32V53H34Z" fill="#101010"/>
</svg>
