<svg width="100" height="100" viewBox="0 0 100 100" fill="none" xmlns="http://www.w3.org/2000/svg">
<path fill-rule="evenodd" clip-rule="evenodd" d="M42 56H41V57H42V56ZM42 58H41V59H42V58ZM39 58H40V59H39V58ZM49 57H48V58H49V57ZM48 59H49V60H48V59ZM47 59H46V60H47V59Z" fill="#D5D5D5"/>
<path fill-rule="evenodd" clip-rule="evenodd" d="M40 56H39V57H40V56ZM47 57H46V58H47V57ZM49 58H50V60H49V58ZM49 60V61H47V60H49ZM43 57H42V59H40V60H42V59H43V57Z" fill="#9C8BA4"/>
<path fill-rule="evenodd" clip-rule="evenodd" d="M69 43H68V44H69V43ZM69 45H70V46H69V45ZM70 46H71V47H70V46ZM36 55H37V56H36V58H37V59H36H35V53H36V55ZM35 61V59H34V61H33V62H32V63H33V62H34V63H35V62H36V65H37V62H36V61H37H38V62H39V66H40V63H41V62H40H39V61H38V59H37V60H36V61H35ZM35 61V62H34V61H35ZM37 56H38H39V58H38V57H37V56ZM30 64H31V65H30V64ZM26 66H27V67H26V66ZM25 69V67H26V69H25ZM23 70H24V69H25V71H24H23V70ZM23 70H22V69H23V70ZM27 66H29V65H27V66ZM34 64H33V65H32V66H33V65H34V64ZM32 67H31V68H32V67ZM29 68H30V69H29V68ZM31 70H30V69H31V70ZM31 70H32V69H33V71H32H31V70ZM42 59H43V60H42V59ZM42 60V61H40V60H42ZM46 60V59V58H45V57H44V58H43V59H45V60H46ZM47 61V60H46V61H47ZM49 61H47V62H49V61ZM50 60H49V61H50V60ZM50 60H51V59H54V58H50V59V60ZM38 66H37V67H38V68H39V69H40H41V67H40V68H39V67H38V66ZM59 73H58V74H57V76H56V78H55V77H54V78H55V79H57V78V76H58V74H59V73ZM59 73H60V72H59V73ZM53 75H54V76H53V75ZM61 70H60V71H61V70ZM61 70H62V69H61V70ZM63 67H62V68H63V67ZM63 67H64V66H63V67ZM66 64H65V62H64V65H65H66V68H67V65H66V64ZM65 70H66V71H65V70ZM64 72V71H65V72H64ZM64 73V72H63V73V74H67V73H68V71H69V69H70V68H69V69H68V71H67V73H64ZM72 68H73V69H72V68ZM73 70V71H71V70V69H72V70H73ZM74 69V70H73V69H74ZM75 68V69H74V68H75ZM75 68V66H76V68H75ZM72 63H73V64H72V63ZM73 64H74V66H73V64ZM74 60H73V59H72V58V57H73V56H74V55H73V56H72V57H70V58H71V59H72V60H73V61H74V60ZM67 59V60H66V59H64V58H69V59H67ZM69 61V60H68H67V62H68V63H69V62H70V61H69ZM69 61H68V62H69V61ZM45 63H51V64H45V63Z" fill="#101010"/>
<path fill-rule="evenodd" clip-rule="evenodd" d="M40 56H41V57H42V58H41V59H40V58H39V57H40V56ZM47 58H46V59H47V60H48V59H49V58H48V57H47V58Z" fill="#FFF6FF"/>
<path fill-rule="evenodd" clip-rule="evenodd" d="M30 49H33V50H30V49ZM30 50V51H29V50H30ZM34 51H33V50H34V51ZM34 51H35V53H34V51ZM62 55H63V56H62V55ZM58 55V54H62V55H58ZM56 56V55H58V56H56ZM55 57V56H56V57H55ZM55 57V58H54V57H55ZM63 56H64V58H63V56ZM42 56H43V57H42V56ZM42 56H39V55H42V56ZM43 57H44V58H43V57ZM40 59H39V58H38V57H37V56H36V58H37V59H38H39V60H40V59ZM41 62H42V63H41V62ZM42 63H45V64H42V63ZM34 63H33V64H34V63ZM30 64H29V65H30V66H29V68H30V66H31V67H32V66H31V65H30V64ZM23 68H22V63H21V68H22V69H23V68ZM32 68H33V69H32V68ZM31 63H32V64H31V63ZM40 66H39V67H40V66ZM45 57H46V58H45V57ZM49 57H46V56H49V57ZM49 57V58H50V57H49ZM66 63H65V64H66V65H67V64H66V63ZM67 68H66V69H65V70H66V69H67V68ZM70 67H69V68H70V67ZM70 64H69V63H70V64ZM70 64V67H71V64H70ZM71 61H70V60H71V59V58H69V59H67V60H66V59H65H64V62H65V61H66H67V60H69V61H70V62H71V63H72V62H71V61ZM75 60H74V61H75V66H76V61H75V60ZM63 65H64V66H63V65ZM62 68H61V69H62V68ZM59 71H60V72H59V71ZM55 76H54V77H55V76ZM73 66H74V68H73V66ZM54 73H53V70H52V62H53V60H54V59H51V60H52V62H51V70H52V73H53V75H54V73ZM28 51H27V52H28V51ZM22 58H23V59H22V58ZM38 62H39V64H38V66H37V62H36V61H38V62Z" fill="#621000"/>
<path fill-rule="evenodd" clip-rule="evenodd" d="M60 24H61V25H60V24ZM61 25H62V26H61V25ZM39 38H40V39H39V38ZM38 40V39H39V40H38ZM36 42V41H37V40H38V41V42H36ZM35 43H36V42H35V43ZM35 43V44H33V43H35ZM29 48H30V49H29V48ZM62 27H63V28H62V27ZM64 30H63V28H64V30ZM65 32H64V30H65V32ZM66 35H65V32H66V35ZM66 35H67V38H66V35ZM69 42H68V39H67V42H68V43H69V42ZM69 44H70V45H69V44ZM72 47H71V48H72V49H73V51H74V55H75V51H74V49H73V48H72V47ZM72 56H71V57H72V56ZM69 57H70V58H69V57Z" fill="#7B0808"/>
<path fill-rule="evenodd" clip-rule="evenodd" d="M47 32H46V33H47V32ZM55 34H56V35H55V34ZM52 34V33H55V34H52ZM52 34V36H51V34H52ZM40 37H41V38H40V37ZM40 39H39V40H40V39ZM37 43H38V44H37V43ZM38 46V44H39V46H38ZM35 46H38V47H35V46ZM34 45H35V46H34V45ZM34 45H33V44H34V45ZM42 40H41V41H42V40ZM45 38H46V39H45V38ZM46 40H45V41H46V40ZM41 47H42V48H41V47ZM45 47H44V48H45V47ZM49 48H50V49H49V48ZM51 42H50V43H51V42ZM54 42H55V43H54V42ZM55 50H54V51H55V52H56V51H55V50ZM55 50H58V49H55V50ZM59 51H58V52H59V51ZM42 37H44V38H42V37ZM54 44H51V45H54V44ZM45 51V50H43V51H45ZM29 51H30V53H29V54H28V55H27H26V56H25V57H24V55H25V54H26V53H27V52H28V51H29ZM24 57V59H23V57H24ZM58 56H57H56V57H55V58H54V63H53V69H54V71H55V68H56V64H57V61H58V56Z" fill="#FF8352"/>
<path fill-rule="evenodd" clip-rule="evenodd" d="M63 37H66V40H63V39H62V38H63V37ZM65 44H62V45H61V46H62V47H65V46H66V45H65V44ZM69 49H70V48H72V49H73V50H72V51H71H69V49Z" fill="#D5CD31"/>
<path fill-rule="evenodd" clip-rule="evenodd" d="M61 29H63V30H64V31H63V32H60V30H61V29ZM44 30H46V31H47V32H46V33H44V32H43V31H44V30ZM40 38H41V37H42V38H45V39H46V40H45V41H42V40H40V38ZM52 34H55V36H52V34ZM51 42H54V43H55V44H54H51H50V43H51V42ZM56 50H55V51H56V52H58V51H59V50H58H56ZM49 48V49H50V50H49V51H45V50H42V49H41V48H42V47H44V48H45H49ZM38 44H37V43H35V44H34V45H35V46H38V44Z" fill="#FFD552"/>
<path fill-rule="evenodd" clip-rule="evenodd" d="M52 23H56V24H57V26H56V27H55V28H53V29H48V28H47V26H48V25H49V24H52V23ZM41 51H39V50H37V49H36V47H35V46H34V45H32V46H31H30V48H31V49H33V50H34V51H37V52H41V51Z" fill="#FF6A6A"/>
<path fill-rule="evenodd" clip-rule="evenodd" d="M52 22H57V23H52V22ZM59 24H57V23H59V24ZM59 24H60V25H59V24ZM63 26H62V27H63V26ZM64 33H61V34H60V36H59V40V44V46H60V48H61V49H62V50H63V51V53H62H61V54H62V55H63V56H64V58H69V57H71V56H73V55H74V53V51H73V50H72V51H69V49H70V48H71V47H70V46H69V44H68V42H67V40H62V38H63V37H66V36V35H65V34H64V33ZM63 47H62V46H61V45H62V44H65V45H66V46H65V47H63ZM33 44H31V45H30V46H29V48H30V46H31V45H33V44ZM35 51H36V52H37V53H39H42V54H47V55H56V56H55V57H54V58H50V57H49V56H47H46V57H43V56H42V55H39V56H37V55H36V53H35V51ZM66 38H67V39H66V38ZM51 23H49V24H47V25H46V26H45V27H44V29H43V31H42V33H41V35H40V37H39V38H40V37H41V35H42V33H43V31H44V29H45V27H46V26H47V25H49V24H51V23ZM39 40H38V41H39V40Z" fill="#BD3141"/>
<path fill-rule="evenodd" clip-rule="evenodd" d="M29 50H28V51H29V50ZM27 52H26V53H25V54H24V55H23V57H22V58H23V57H24V55H25V54H26V53H27V52ZM23 59H22V60H21V63H22V60H23V59ZM24 64H25V62H26V60H27V59H28V58H29V57H30V56H31V54H32V51H31V50H32H33V51H34V53H35V59H34V61H33V62H32V63H31V64H30H29V65H28H27V66H26V67H25V69H24V64ZM31 66V64H32V63H33V65H32V66H31ZM31 66V68H32V70H31V69H30V66H31ZM34 62V63H33V62H34ZM35 61H36V60H37V59H36H35V61ZM35 61V62H34V61H35ZM38 59H39V60H40V61H43V62H46V61H47V62H49V61H50V60H52V61V62H51V63H42V62H40H39V61H38V59ZM45 60H46V61H45V60ZM45 60H44V59H45V60ZM39 64H38V67H39V68H40V67H39V64ZM67 61H65V63H66V64H67V66H68V64H67V63H68V62H67V61ZM67 69H66V70H67V71H65V72H64V73H65H67V71H68V70H67V69ZM73 69H72V70H73V69ZM74 68V69H73V68H74ZM74 68V64H73V63H72V62H71V61H70V60H71V59H72V60H73V61H74H75V68H74ZM59 55H62V56H63V58H64V65H63V67H62V68H61V70H60V71H59V73H58V74H57V76H56H55V71H56V66H57V62H58V59H59V56H58V55H59Z" fill="#B44139"/>
<path fill-rule="evenodd" clip-rule="evenodd" d="M30 50H31V51H32V54H31V56H30V57H29V58H28V59H27V60H26V62H25V64H24V70H23V68H22V60H23V59H24V57H25V56H26V55H27H28V54H29V53H30V50ZM58 56H59V59H58V56ZM67 63H69V64H70V67H69V69H68V70H67V66H68V64H67V63ZM67 70V71H66V70H67ZM58 61H57V62H58V61ZM56 64H57V66H56V64ZM56 68H55V71H54V69H53V63H54V60H53V62H52V70H53V73H54V76H55V78H56V76H55V71H56V68ZM46 61H45V60H44V59H43V60H42V61H43V62H46V61Z" fill="#DE6A31"/>
<path fill-rule="evenodd" clip-rule="evenodd" d="M56 23H57V24H56V23ZM37 52V53H42V54H47V55H58V54H61V53H63V52V50H62V49H61V48H60V46H59V36H60V34H61V33H63H64V34H65V32H64V31H63V32H60V30H61V29H62H63V28H62V26H61V25H60H59V24H57V26H56V27H55V28H53V29H48V28H47V26H48V25H47V26H46V27H45V29H44V30H45H46V31H47V33H44V32H43V33H42V35H41V37H42H44V38H46V41H42H41V40H39V41H38V42H36V43H38V44H39V46H38V47H36V49H37V50H39V51H41V52H37ZM37 52H36V51H37V52ZM41 47H42H45V48H50V50H49V51H43V50H42V49H41V47ZM50 44H51V45H54V44H55V42H50V44ZM55 35V36H51V34H52V33H55V34H56V35H55ZM55 50V49H57H58V50H59V52H55V51H54V50H55ZM62 39H63V40H62V39ZM31 45H32V46H31V45ZM30 48H31V49H30V48ZM67 39H66V40H67V39ZM52 23H51V24H52V23Z" fill="#EE3131"/>
</svg>
