<svg width="100" height="100" viewBox="0 0 100 100" fill="none" xmlns="http://www.w3.org/2000/svg">
<path fill-rule="evenodd" clip-rule="evenodd" d="M41 47H40V50H37V49H36V50H37V51H40V50H41V47ZM49 52H50V53H49V52ZM53 53V54H50V53H53ZM53 53V50H54V53H53ZM45 56H44V57H45V56ZM46 57H47V58H46V57ZM45 58H44V59H45V58ZM40 56H41V57H40V56ZM41 57V58H42V57H41Z" fill="#C8C8C8"/>
<path fill-rule="evenodd" clip-rule="evenodd" d="M40 45H37V46H36V47H35V50H36V51H37V52H40V51H41V50H42V47H41V46H40V45ZM40 47V46H37V47H36V50H37V51H40V50H41V47H40ZM40 47V48H39V47H40ZM40 50H39V49H40V50ZM37 50V49H38V50H37ZM49 49H50V50H49V49ZM49 53H48V50H49V53ZM50 53H49V54H50V55H53V54H54V53H55V50H54V49H53V48H50V49H53V50H52V51H53V50H54V53H53V52H52V53H53V54H50V53ZM50 53H51V52H50V53ZM47 56H46V57H44V58H46V57H47V56ZM41 56H42V57H41V56ZM41 56H40V55H41V56ZM42 57H43V58H42V57Z" fill="#585858"/>
<path fill-rule="evenodd" clip-rule="evenodd" d="M40 46H39V47H40V46ZM36 47H37V49H36V47ZM49 50H50V52H49V50ZM52 49H53V50H52V49ZM46 58H45V59H46V58Z" fill="#A0A0C8"/>
<path fill-rule="evenodd" clip-rule="evenodd" d="M37 46H39V48H37V46ZM50 49H52V51H50V49ZM47 55H46V56H47V55Z" fill="#F8F0F8"/>
<path fill-rule="evenodd" clip-rule="evenodd" d="M40 54H41V55H40V54ZM41 55H42V56H41V55ZM46 56H45V57H46V56Z" fill="#F8F0F8"/>
<path fill-rule="evenodd" clip-rule="evenodd" d="M47 36H46V37H45V38H44V39H42V40H40V41H36V42H40V41H42V40H44V39H45V38H46V37H47V36ZM54 41H55V42H54V41ZM54 41H53V39H54V41ZM56 43H55V42H56V43ZM57 44H56V43H57V44ZM59 45H57V44H59V45ZM62 45V46H59V45H62ZM63 44V45H62V44H63ZM64 42V44H63V42H64ZM64 42V38H65V42H64ZM37 48H40V49H39V50H38V49H37V48ZM50 51H53V52H52V53H51V52H50V51ZM29 61H28V63H29V64H31V63V61H32V60H33V59H34V58H35V57H36V59H37V60H38V59H37V55H38V54H37H36V56H35V57H34V58H33V59H32V60H31H30V63H29V61ZM40 57H41V58H40V57ZM40 57H39V55H40V57ZM43 58V59H41V58H43ZM43 58V57H42V55H43V56H44V58H43ZM52 67H49V68H52V67ZM54 66V67H52V66H54ZM54 66H55V65H54V66ZM56 64V65H58V64H59V63H60V62H61V61H62V59H63V57H64V52H63V51H62V52H63V57H62V59H61V61H60V62H59V63H58V64H56ZM69 63H70V64H69V63ZM70 63H71V60H70V63ZM70 58H69V57H68V55H70V54H68V53H65V54H66V55H67V57H68V58H69V59H70V58ZM67 55V54H68V55H67ZM70 52H71V53H70V52ZM70 51V52H68V51H70ZM73 58H72V56H71V58H72V59H73H74V56H73V58Z" fill="#101010"/>
<path fill-rule="evenodd" clip-rule="evenodd" d="M43 31H42V32H43V33H45V34H46V36H47V34H46V33H45V32H43V31ZM35 40H36V41H35V40ZM35 40H34V37H35V40ZM62 35H63V36H62V35ZM63 36H64V38H63V36ZM52 36H53V39H52V36Z" fill="#602828"/>
<path fill-rule="evenodd" clip-rule="evenodd" d="M42 31H39V32H37V33H36V34H35V36H34V37H35V36H36V34H37V33H39V32H42V31ZM37 40H36V41H37H40V38H41V37H43V38V39H44V38H45V37H46V34H45V35H43H42V36H41V37H39V38H37V40ZM54 35H53V36H54V35ZM56 34V35H54V34H56ZM60 34V33H56V34H60ZM60 34H62V35H60V34ZM54 37H53V39H54V41H55V42H56V41H58V44H59V45H61H62V44H63V41H62V39H63V38V37V36H62V37H61V38H59V39H56V38H55H54V37ZM59 43V41H61V43H59Z" fill="#B84040"/>
<path fill-rule="evenodd" clip-rule="evenodd" d="M43 33H42V34H43V33ZM37 37H35V38H37V37ZM37 34H40V36H37V34ZM56 36H55V38H56H57V37H58V35H57H56V36Z" fill="#F8D050"/>
<path fill-rule="evenodd" clip-rule="evenodd" d="M42 32H40H39V33H37V34H36V36H35V37H36H37V38H39V37H41V36H42V35H43V34H42V32ZM37 34H39H40V36H39H37V34ZM54 36H53V37H54V38H55V36H56V35H58V37H57V38H56V39H59V38H61V37H62V35H60V34H56V35H55H54V36Z" fill="#F06868"/>
<path fill-rule="evenodd" clip-rule="evenodd" d="M43 32H42V33H43V35H45V33H43V32ZM35 38H37V40H35V38ZM41 38H40V40H41H42V41H44V40H42V39H43V37H42H41V38ZM55 42H54V43H55V44H56V43H57V44H58V43V41H56V43H55V42ZM61 41H59V43H61V41ZM63 38H64V42H63V41H62V39H63V38Z" fill="#C0B020"/>
<path fill-rule="evenodd" clip-rule="evenodd" d="M44 39H47V40H44V39ZM41 41H40V42H39V43H38V45H39V43H40V44H41V43H43V42H41V41ZM41 42V43H40V42H41ZM36 51H37V53H36V51ZM38 54H37V53H38V54ZM38 54H40V55H38V54ZM28 59H30V60H28V59ZM55 46H54V47H55V49H56V52H57V49H56V47H55V46ZM61 46H62V47H61V46ZM62 47H63V51H62V47ZM58 45H59V47H58V45ZM59 47H60V50H59V47ZM50 56H52V57H50V56ZM47 58V57H50V58H47ZM46 59V58H47V59H46ZM44 59H46V60H44V59ZM44 59H43V58H44V59ZM56 65H55V66H56V65Z" fill="#382810"/>
<path fill-rule="evenodd" clip-rule="evenodd" d="M52 38H47V39H52V38ZM45 40H44V41H42V42H49V43H51V44H53V45H54V46H55V45H57V44H55V43H54V41H53V43H51V42H49V41H45V40ZM54 44H53V43H54V44ZM54 44H55V45H54V44ZM43 43H46V44H43V43ZM43 44V45H40V44H43ZM49 45H46V44H49V45ZM51 46H49V45H51V46ZM52 47H51V46H52V47ZM53 48H52V47H53V48ZM53 48H54V49H53V48ZM35 46H36V47H35V46ZM41 53H40V54H41V53ZM27 54H26V58H27V61H28V58H27V54ZM37 55H38V56H37V55ZM38 57H39V59H38V57ZM44 55H43V56H44V55ZM46 54H47V55H46V54ZM47 55H48V57H47V55ZM65 49H67V50H65V49ZM64 51V50H65V51H64ZM64 52H63V51H64V52ZM64 52H66V53H64V52ZM67 50H68V51H67V50ZM71 52H72V53H71V52ZM73 55H72V53H73V55ZM73 55H74V56H73V55ZM69 59H70V60H69V59ZM65 57H64V58H65V59H67V61H68V63H69V61H68V59H67V58H65V57ZM70 54H71V56H70V54ZM59 50H62V51H59V50ZM57 52V51H59V52H57ZM55 53V52H57V53H55ZM54 54V53H55V54H54ZM53 55V54H54V55H53ZM52 57V55H53V57H52ZM51 59V57H52V59H51ZM51 63H50V59H51V63ZM52 63H51V64H50V66H49V67H50V66H51V64H52V63ZM54 63H52V62H54V63ZM55 64H54V63H55V64ZM55 64H56V65H55V64Z" fill="#704818"/>
<path fill-rule="evenodd" clip-rule="evenodd" d="M43 44H46V45H49V46V47H48V48H46V49H42V47H43V46H42V47H41V46H40V45H43V44ZM46 47V46H45V47H46ZM33 47H34H35V48H34V49H33V50H32V52H31V53H30V55H29V56H28V53H29V51H30V50H31V49H32V48H33V47ZM43 55V53H41V55H43ZM52 64H53V65H52V64ZM55 60H54V61H56V60H58V59H59V58H60V56H61V54H62V52V51H61V52H60V53H59V54H58V55H57V56H56V58H55V60Z" fill="#F8A860"/>
<path fill-rule="evenodd" clip-rule="evenodd" d="M46 40H45V41H46V40ZM41 41H42V42H41V41ZM41 43V42H40V43H39V45H40V43H41ZM43 43V44H41V43H43ZM43 43V42H44V43H43ZM35 46H33V47H31V48H30V49H29V50H28V52H27V54H28V52H29V50H30V49H31V48H33V47H35V46ZM35 53H36H37V54H36V56H35V57H34V58H33V59H32V60H30V59H28V58H30V57H32V56H33V55H34V54H35V53ZM28 58H27V57H28V58ZM37 53V52H39V53H40V54H38V53H37ZM38 55H39V57H38V59H37V56H38V55ZM41 52H44V53H41V52ZM47 54H44V53H47V54ZM47 54H50V55H52V56H50V57H48V55H47V54ZM44 49H43V50H44V49ZM46 50H47V51H46V50ZM49 48H48V49H49V48ZM48 42H49V43H48V42ZM55 44H54V45H53V44H49V45H51V46H52V47H53V48H54V50H55V52H56V49H57V51H59V49V47H60V50H62V47H61V46H59V47H58V45H55V44ZM55 47V48V49H56V47H55ZM55 47V45H54V46V47H55ZM52 60H51V63H52V62H54V63H55V64H54V65H53V66H54V65H55V64H57H58V63H59V62H60V61H61V59H62V58H61V59H60V60H59V61H58H57V62H55H54V61H52V60ZM52 66H51V67H52V66ZM63 56H62V57H63V56ZM66 55H67V56H66V55ZM66 56V57H68V58H69V59V60H70V63H69V61H68V59H67V58H65V57H64V56H66ZM72 55H73V58H72V56H71V54H68V53H66V52H64V51H65V50H67V51H68V52H70V53H71H72V55Z" fill="#B06020"/>
<path fill-rule="evenodd" clip-rule="evenodd" d="M47 39H53V41V42V43H51V42H49V41H47H46V40H47V39ZM51 43V44H46V43H44V42H48V43H51ZM53 43H54V44H53V43ZM43 46H42V47H43V46ZM31 48H32V49H31V48ZM30 50V49H31V50H30ZM30 50V51H29V50H30ZM29 52H28V53H29V52ZM27 54H28V56H29V55H30V53H31V52H32V50H33V49H34V48H35V50H36V53H35V54H34V55H33V56H32V57H31H30V58H29H28V57H27V54ZM30 61V60H28V61H29V63H30V61ZM45 46H46V47H45V46ZM66 56H67V57H66V56ZM66 56H65H64V53H65V54H66V56ZM51 66H50V67H51V66ZM52 64H51V66H52H53V65H54V63H53H52V64ZM52 65H53V64H52V65ZM39 52H40V51H41V50H42V49H43V50H44V49H46V48H48V49H49V50H48V51V52V53H49V54H47V53H44V52H41V53H39V52ZM44 53V54H46V56H44V55H43V53H44ZM49 49V48H48V47H49V46H50H51V47H52V48H51H50V49H49ZM46 50H47V51H46V50ZM52 59H51V60H52V61H54V62H57V61H58H59V60H60V59H61V58H62V56H63V52H62V54H61V56H60V58H59V59H58V60H56V61H54V60H55V58H56V57V56H57V55H58V54H59V53H60V52H61V51H60H59V52H58H57V53H55V54H54V55H53V57H52V59Z" fill="#E08028"/>
</svg>
