<svg width="100" height="100" viewBox="0 0 100 100" fill="none" xmlns="http://www.w3.org/2000/svg">
<path fill-rule="evenodd" clip-rule="evenodd" d="M47 38H44V39H43V42H44V39H47V38ZM49 41H48V43H49V44H50V45H52V44H50L50 43H49V41ZM68 51H69V53H68V51ZM64 54V53H68V54H64ZM62 55V54H64V55H62ZM60 58V56H62V55H60V54H59V53H58V54H59V58H60ZM61 58H60V61H59V62H56V61H54V62H56V63H59V62H60V61H61V58ZM65 57V58H61V57H65ZM65 57V56H68V57H65ZM38 58H37V59H38V60H39V61H40V62H42V63H44V64H45V63H44V62H42V61H40V60H39V59H38V58ZM47 64V65H49V64H47ZM53 60V61H51V60H53ZM51 60H50V59H51L51 60ZM39 39H42V40V41H41V40H39V39ZM39 40V41H38V40H39ZM43 67H44V68H43V67ZM43 68V69H39V68H43ZM45 69H44V68H45V69ZM46 70H45V69H46V70ZM48 70V71H46V70H48ZM51 69V70H48V69H51ZM51 69L51 68H55V69H51Z" fill="#101010"/>
<path fill-rule="evenodd" clip-rule="evenodd" d="M38 40H35V41H33V42H36V43H38V44H39V43H38V42V41V40ZM34 44H35V45H34V44ZM35 45H38V46H35V45ZM48 67H51V68H48V67Z" fill="#EE6241"/>
<path fill-rule="evenodd" clip-rule="evenodd" d="M36 39H34V40H33V41H35V40H36V39Z" fill="#FFAC73"/>
<path fill-rule="evenodd" clip-rule="evenodd" d="M34 38H36V39H34V38ZM33 40V39H34V40H33ZM33 40V43H32V40H33ZM36 39H38V40H36V39ZM38 41H39V43H38V41ZM34 43H36V44H38V45H35V44H34V43ZM51 69V68H52V67H53V66H52V65H50V66H48V67H47V68H48V67H51V68H49V69H51ZM44 65H45V64H46V65V66V67H43V66H44V65Z" fill="#BD2920"/>
<path fill-rule="evenodd" clip-rule="evenodd" d="M41 40H40V41H41V40ZM43 66H42V67H41V68H42V67H43V66ZM45 68H46V69H45V68ZM47 68V67H46V68H47ZM48 69H49V68H47V69V70H48V69ZM42 40H43V42H42V40Z" fill="white"/>
<path fill-rule="evenodd" clip-rule="evenodd" d="M40 66H41V67H40V66ZM40 67V68H39V67H40ZM54 67H53V68H54V67Z" fill="#BDBDBD"/>
<path fill-rule="evenodd" clip-rule="evenodd" d="M41 66H42V67H41V66ZM41 67V68H40V67H41ZM42 67H43V68H42V67ZM52 67H53V68H52V67ZM47 68H46V70H47V68Z" fill="#838383"/>
<path fill-rule="evenodd" clip-rule="evenodd" d="M48 36V35H49V36V37H47V36H48ZM49 38V37H50V38H49ZM49 38V39H47V38H49ZM54 46H52V45H54V46ZM56 47H54V46H56V47ZM57 48H56V47H57V48ZM57 51V48H58V50H59V53H58V51H57ZM56 53H57V51H56V50H55V49H54V50H55V51H56V53ZM54 57H55V54H56V53H54V52H53V53H54V54V57ZM52 57H54V58H52V57ZM51 56H52V57H51V56ZM51 56H50V55H51V56ZM46 51H45V49H46V51ZM45 55V51H44V55H45ZM46 57V55H45V57H46ZM47 58V57H46V58H47ZM48 59H47V58H48V59ZM50 59V60H48V59H50ZM50 59V58H51V59H50ZM53 61H54V62H53V61ZM54 63V62H56V63H54ZM53 64V63H54V64H53ZM53 66H52V64H53V66ZM54 67H53V66H54V67ZM54 67H55V68H54V67ZM45 63H46V64H45V63ZM44 65V64H45V65H44ZM40 66V65H44L44 66H40ZM39 67V66H40V67H39ZM39 67V68H38V67H39ZM46 67V66V65V64H47V65V66H48V67H46ZM46 67V68H44V67H46ZM50 64H49V66H50V64ZM44 39H43V38H44V39ZM44 42V39H45V40H46V41H47V44H46V45H45V46H44V47H43V45H44V43H43V42H44ZM43 39V40H42V39H43ZM40 41H39V40H40V41ZM40 41H42V42H40V41ZM36 44H38V43H36V42H34H33V45H34V46H35V47H38V46H35V45H34V43H36V44Z" fill="#412918"/>
<path fill-rule="evenodd" clip-rule="evenodd" d="M42 30H44V31V32H46V33V34H48V35H45V34V33H43V32V31H42V30ZM41 32V31H42V32H41ZM39 33V32H41V33H39ZM38 34V33H39V34H38ZM37 36V34H38V36H37ZM37 36V38H36V36H37ZM43 33V34H42V33H43ZM42 36V35H45V36H42ZM42 36V37H40V36H42ZM37 47H36V52H35V57H36V58H37H38V57V56H37V57H36V52H37V47ZM39 58V59H41V58H39ZM42 59V58H44V59H42ZM44 58V57H45V58H44ZM52 64H50V65H52V64ZM52 64V63H53V64H52ZM64 49H66V50H64V49ZM63 51H64V50H63V49H60V50H59V51H60V50H63V51ZM61 52V51H63V52H61ZM60 53H61V52H60V53ZM60 53V54H59V53H60ZM66 50H68V51H66V50ZM47 39H48V41H47V39ZM46 63H47V64H46V63ZM60 57H61V58H60V57ZM67 54H66V55H67V56H68V55H67V54Z" fill="#734A31"/>
<path fill-rule="evenodd" clip-rule="evenodd" d="M37 33H36V34H35V36H34V38H35V36H36V34H37V33ZM47 39H46H45V40H46V41H47V43V44H46V45H45V46H44V47H42V48V49H43V50H44V51H45V50V49H46V48H47V47H48V46H49V45H50V44H49V43H48V41H47V39ZM39 39H38V38H40V37H38V38H36V39H38V40H39V39ZM39 41H40V42H39V41ZM57 48H56V47H55H54V46H53V47H54V49H53V50H52V52H51V51H50V53H49V52H48H47V50H46V51H45V55H46V57H47V58H48V59H49H50V58H51H52V57H53H54V53H55H56V51H57V48ZM55 50H56V51H55V50ZM55 50V49H54V50H55ZM54 53H53V52H54V53ZM51 56H52V57H51V56ZM51 56V55H50V56H51ZM60 51H61V52H60V53H59V51H60ZM62 55H61H60V53H61V52H62H63V51H64V52H65V53H64V54H63H62V55ZM62 55H65V57H62H60V56H62V55Z" fill="#A4625A"/>
<path fill-rule="evenodd" clip-rule="evenodd" d="M43 31H42V32H41V33H40H39V34H38V36H37V38H38V37H39H40V36H41H42V35H43H44H45V33H44H43V31ZM43 33V34H42V33H43ZM46 36H47V37H46V36ZM53 47H54V49H53V50H52L52 52H51V51H50V53H49V52H48H47V50H46V48H47V47H48V46H49V45H50H51H52L52 46H53V47ZM63 50H60V51H63V50ZM65 52V53H68V52V51H66V50H64V51V52H65ZM66 54V55H67V56H65V55H64V54H66ZM57 57H58V58H57V57ZM59 60H58V58H59V60ZM59 60H60V61H59V60ZM56 59H55V60H56V61H57V62H58V61H57V60H56V59ZM40 55H41V57H40V55ZM41 57H42V58H41V57ZM38 54H37V56H38V54ZM38 58H39V59H38V58Z" fill="#CD835A"/>
<path fill-rule="evenodd" clip-rule="evenodd" d="M36 34H37V36H36V34ZM36 36V38H35V36H36ZM43 43H42H41H40V42H39V45H38V47H39H40H41V46H42V45H43V43ZM40 37H42V38H40V37ZM37 52H36V56H37V54H38V57H39H40V55H41V56H42V57H43V56H44V50H43H42V51H41H40V52H39H38V51H37V52ZM56 56H55V58H56V59H57H58V58H59V55H58V53H57V54H56V56ZM58 58H57V57H58V58ZM45 35H47V36H46V37H42V36H45V35Z" fill="#FFEE9C"/>
<path fill-rule="evenodd" clip-rule="evenodd" d="M48 35H47V36H48V35ZM49 37H42V38H38V39H43V38H49V37ZM43 42H40V43H43V45H42V46H41V47H37V51H38V52H40V51H41H42V50H43V49H42V47H43V45H44V43H43V42ZM39 44H38V45H39V44ZM37 56H36V57H37V56ZM38 57H41V58H38V57ZM42 58H41V59H39V60H40V61H42V62H44V63H47V64H52V63H54V62H53V61H56V62H57V61H58V62H59V61V60H60V58H59V60H58V59H56V58H55V57H54V58H51V60H48V59H47V58H46V57H45V55H44V56H43V57H42V56H41V57H42V58ZM44 58H45V57H44V58ZM44 58H43H42V59H44V58ZM56 60H55V59H56V60ZM56 60V61H57V60H56ZM51 60V61H53V60H51ZM58 54H59V55H58V54ZM58 51H57V53H56V54H55V56H56V54H57V53H58V51Z" fill="#E6BD62"/>
</svg>
