<svg width="100" height="100" viewBox="0 0 100 100" fill="none" xmlns="http://www.w3.org/2000/svg">
<path fill-rule="evenodd" clip-rule="evenodd" d="M50 41H49V43H48V44H47V45H49V44H50V43V41Z" fill="#C5C5C5"/>
<path fill-rule="evenodd" clip-rule="evenodd" d="M37 36H38V38H37V36ZM37 38V40H36V38H37ZM45 40H44V43H45V44H46V45H47V44H48V43H49V42V41H50V40H49V39H48V38H46V39H45V40ZM47 41H48V42H47V41Z" fill="white"/>
<path fill-rule="evenodd" clip-rule="evenodd" d="M42 31H46V32H49V35H48V36V37V38H47V37H44V36H41V35H40H39V34H40V33H41V32H42V31ZM36 40H37V41H36V40ZM35 43H36V45H35V43ZM55 45H53V46H55V45Z" fill="#F6D5C5"/>
<path fill-rule="evenodd" clip-rule="evenodd" d="M38 45H36V48H35V51H37V52H38V53H39V52H40V51V50H41V48H42V47H41V46H38V45ZM34 48H33V49H32V51H33V52H34V51V49V48ZM44 62H45V61H46V60H47V59H48V58H49V57H50V56H51V55H52V56H53V57H54V58H55V59H54V60H53V61H52V62H51V63H50V64H49V65H48V66H47V65H46V64H45V63H44V62Z" fill="#8BD5EE"/>
<path fill-rule="evenodd" clip-rule="evenodd" d="M63 34H64H65V35H64V36H63V38H62V39V41H61V43V44H60V45V46H57V45H58V43H59V41H60V39H61V37H62V35H63V34ZM41 53H42V54H43V56H42V55H41V53Z" fill="#5ABDE6"/>
<path fill-rule="evenodd" clip-rule="evenodd" d="M64 36H63V37H64V36ZM62 38H63V39H62V38ZM62 41H61V42H62V41ZM35 45H36V48H35V45ZM32 50H31V52H32V53H33V54H34V52H33V51H32V50ZM37 51H36V52H37V51ZM40 52H39V53H40H41V51H42V49H43V47H42V48H41V50H40V52ZM45 53H42V54H43V56H44V54H45V56H46V55H47V54H48V53H47H46V54H45V53ZM39 57H40V58H39V57ZM40 58H42V59V60H41V59H40V58ZM45 63H44V65H45V67H46V68H47V67H48V66H47V65H46V64H45V63ZM59 55H52V56H53V57H54V58H55V59H62V58H61V57H60V56H59V55Z" fill="#08ACD5"/>
<path fill-rule="evenodd" clip-rule="evenodd" d="M65 35H64V37H63V39H62V42H61V44H60V46H59V47H60V48H61V50H62V48V46H63V44V42H64V39V38H65V35ZM35 45H34V50H35V45ZM35 51H34V53H35V51ZM35 54H36V55H35V54ZM38 54V53H36V54H38ZM38 54V56H39V57H40V58H42H43V57H42V56H41V55H40V54H38ZM45 56H44V57H45V56ZM43 52H45V53H43V52ZM45 51H46H47V50H48V49H49V50V51V53H46V52H45V51ZM45 51V50H44V49V48H43V49H42V51H41V52H43V51H44H45ZM45 65H44V66H45V65ZM48 67H49V65H50V64H51V63H52V62H53V61H54V60H55H57H59V59H60H62V58H63V61H62V63H60V64H57V65H55V66H53V67H51V68H49V69H48V67ZM61 57H62V58H61V57ZM60 56H61V57H60V56ZM60 56H59V55H60V56ZM58 54H57V55H58V54Z" fill="#0883A4"/>
<path fill-rule="evenodd" clip-rule="evenodd" d="M65 33H63V34H62V35H61V37H60V39H59V41H58V43H57V45H58V43H59V41H60V39H61V37H62V35H63V34H65V33ZM64 38H65V39H64V38ZM64 42H63V43H64V42ZM62 46H63V47H62V46ZM34 47H33V48H32V49H31V50H32V49H33V48H34V47ZM35 50H34V51H35V52H36V53H38V54H37V55H38V54H39V53H38V52H36V51H35V50ZM35 53H34V55H35V53ZM39 56H38V57H39V56ZM40 54H41V55H40V54ZM42 56H41V55H42V56ZM42 56H43V57H42V56ZM40 58H39V59H40V60H41V61H43V60H41V59H40V58ZM44 54H45V56H44V54ZM45 54V52H46V54H45ZM43 62H44V63H43V62ZM45 61V62H44V61H45ZM46 60H45V61H46V60ZM47 59V60H46V59H47ZM48 58H47V59H48V58ZM49 57V58H48V57H49ZM50 56H49V57H50V56ZM51 55V56H50V55H51ZM51 55V54H57V55H51ZM44 65H43V66H44V65ZM54 60H53V61H52V62H51V63H50V64H49V65H48V67H47V69H48V67H49V65H50V64H51V63H52V62H53V61H54V60ZM54 60H59V59H54V60ZM49 68H50V69H49V68ZM52 67H51V68H52V67ZM53 66H54V67H53V66ZM56 65H55V66H56V65ZM60 63H61V64H60V63ZM63 61H62V62H63V61ZM58 54H59V55H58V54ZM58 64H57V66H58V64Z" fill="#085A73"/>
<path fill-rule="evenodd" clip-rule="evenodd" d="M66 34H65V38H66V34ZM55 37H54V41H53V44H52V45H53V44H54V41H55V37ZM47 41H48V42H47V41ZM51 46H50V47H49V48H48V49H47V50H45V51H43V52H41V53H39V54H41V53H43V52H45V51H47V50H48V49H49V48H50V47H51V46ZM31 50H30V52H31V53H32V54H33V55H34V56H38V55H37V54H36V52H35V54H36V55H34V54H33V53H32V52H31V50ZM39 57H38V58H39V57ZM43 61H44V62H43V61ZM44 63H43V65H44V63ZM44 66H45V67H44V66ZM46 68H45V67H46V68ZM47 69H46V68H47V69ZM47 69H49V70H47V69ZM51 68H50V69H51V68ZM52 67H53V68H52V67ZM55 66H54V67H55V66ZM56 65H57V66H56V65ZM62 63H61V64H62V63ZM62 63H63V62H62V63ZM63 57H62V56H61V55H60V54H59V53H60V52H61V51H62V50H63V47H62V50H60V51V52H59V53H58V54H59V55H60V56H61V57H62V58H63V61H64V58H63V57ZM60 65V64H58V65H60ZM64 43H63V46H64V43ZM64 39H65V42H64V39Z" fill="black"/>
<path fill-rule="evenodd" clip-rule="evenodd" d="M51 32H50V33H51V34H52V35H53V37H54V35H53V34H52V33H51V32ZM37 35H38V36H37V35ZM36 38V36H37V38H36ZM35 43V38H36V43H35ZM35 43V45H34V43H35ZM52 45H51V46H52V45ZM58 46H59V47H58V46ZM60 48H59V47H60V48ZM60 48H61V50H60V48ZM60 51H59V52H60V51ZM43 56H44V58H43V56ZM43 58V60H42V58H43Z" fill="#7B2941"/>
<path fill-rule="evenodd" clip-rule="evenodd" d="M46 30H42V31H41V32H40V33H39V34H38V35H39V34H40V33H41V32H42V31H46V32H49V33H50V32H49V31H46V30ZM53 37H54V38V41H53V44H52V45H51V46H50V47H49V48H48V49H47V50H44V47H45V46H46V45H49V44H50V40H51V39H52V38H53V37ZM49 48H50V47H51V46H52V48H51V50H50V52H49V48ZM55 45H53V44H55V45ZM57 46H55V45H57V46ZM57 46H58V47H57V46ZM59 50H58V51H56V52H54V53H52V54H54H58V53H59V51H60V50H59ZM51 54H50V55H49H48V56H47H46V57H45H44V58H43V61H45V60H46V59H47V58H48V57H49V56H50V55H51V54Z" fill="#C5395A"/>
<path fill-rule="evenodd" clip-rule="evenodd" d="M51 33H50V34H49V36H48V39H49V40H51V39H52V38H53V35H52V34H51V33ZM44 43H45V44H46V46H45V47H44V48H43V47H42V46H43V44H44V43ZM46 56H45V57H46V56ZM59 48V47H53V46H52V47V48H51V50H50V52H49V53H48V54H47V55H46V56H48V55H50V54H52V53H54V52H56V51H58V50H59H60V48H59Z" fill="#FF6262"/>
<path fill-rule="evenodd" clip-rule="evenodd" d="M50 33H49V34H50V33ZM52 45H53V46H52V45ZM53 46H57V47H53V46ZM48 35H49V36H48V35ZM44 36H41V35H38V36V38H37V41H36V45H38V46H41V47H42V46H43V44H44V40H45V39H46V38H47V37H46H44V36Z" fill="#EEAC9C"/>
</svg>
