<svg width="100" height="100" viewBox="0 0 100 100" fill="none" xmlns="http://www.w3.org/2000/svg">
<path fill-rule="evenodd" clip-rule="evenodd" d="M37 29H38V30H39V32H40V34H39V35H38V32H37V29ZM44 48H39V49H38V52H39V53H43H44V52H45V49H44V48ZM39 49H40V51H39V49ZM43 51H42V49H43V51ZM54 32H53V33H54H55V34H56V31H55V29H54V32Z" fill="#FF945A"/>
<path fill-rule="evenodd" clip-rule="evenodd" d="M38 43H37V44H38V45H39V44H38V43ZM46 45H48V46H46V45ZM50 44H49V45H50V44Z" fill="#C5C5C5"/>
<path fill-rule="evenodd" clip-rule="evenodd" d="M29 35H28V37H29V35ZM39 46H40V47H39V46ZM46 47H47V48H46V47ZM32 62H31V64H32V65H36V64H37V63H38V61H37V63H36V64H32V62ZM61 66H60V68H61V69H64V68H65V67H66V66H67V64H66V63H65V64H66V66H65V67H64V68H61V66Z" fill="#7B7B7B"/>
<path fill-rule="evenodd" clip-rule="evenodd" d="M40 32H41V34H40V32ZM40 34V35H39V34H40ZM55 33H53V34H55V35H56V34H55V33ZM38 49H37V50H38V49ZM39 48H38V49H39V51H40V49H39V48ZM44 48V47H39V48H44ZM45 49V48H44V49H45ZM45 49V50H46V49H45ZM42 49H43V51H42V49Z" fill="#BD4A31"/>
<path fill-rule="evenodd" clip-rule="evenodd" d="M38 44H37V47H38H39V45H38V44ZM40 46H41V47H40V46ZM45 47H44V48H46V47V46H45V47ZM48 46H47V48H51V46V45V44H50V45H48V46Z" fill="white"/>
<path fill-rule="evenodd" clip-rule="evenodd" d="M54 23H55V24H54V23ZM54 24V25H53V24H54ZM57 25H56V26H55V25V24H57V25ZM58 27H57V25H58V27ZM58 27H59V29H58V27ZM32 43H33V44H32V43ZM33 46V45H32V44H31V45H29V44H28V43H27V41H26V43H27V44H28V45H29V46H32H33ZM33 48V46H34V48H33ZM32 49V48H33V49H32ZM32 49V50H31V49H32ZM34 41H33V43H34V41ZM34 41H35V40V39H34V40V41ZM33 51H34V52H33V51ZM32 53V52H33V53H32ZM31 54V53H32V54H31ZM31 54V55H32V56H30V55V54H31ZM39 57H38V58H37H34V57H35V56H34V57H33V58H32V59H31V62H32V59H37V60H38V59V58H39V57ZM42 63H41V61H40V63H41V64H42V63ZM42 61H43V62H42V61ZM52 25H51V24H50V25H49V26H48V28H47V27H46V26H45V25H44V26H45V27H44V28H45V27H46V28H47V29H48V28H49V26H50V25H51V26H52V25ZM43 30H44V31H43V30ZM44 31H45V32H44V31ZM36 25H38V26H36V25ZM36 26V27H35V26H36ZM38 27V26H39V27H38ZM39 27H40V28H39V27ZM34 29H35V31H34V29ZM35 31H36V34H35V31ZM33 36H36V37H33V36ZM38 42H36V43H38V44H39V45H40V46H41V47H42V46H41V45H42V44H41V45H40V44H39V43H38V42ZM44 44H43V46H44H46V45H44V44ZM49 45V44H51V43H52V42H51V43H49V44H47V45H49ZM59 33H60V35H59V33ZM61 30H59V31H61V30ZM63 31V30H61V29H64V30V31H63ZM63 31V32H66V33H62V32V31H63ZM65 36H69V37H65V36ZM69 37H70V38H69V37ZM22 30H24V31H22V30ZM25 32H24V31H25V32ZM25 32H26V33H25V32ZM26 34H25V35H24V38H23V39H24V38H25V35H26V34ZM32 70V71H30V70H32ZM30 71V73H29V71H30ZM37 51H38V52H37V51ZM38 53V52H39V53H38ZM39 54V53H44V54H39ZM45 52V53H44V52H45ZM45 52V50H46V52H45ZM53 62H52V63H53V64H54V63H55V62H56V61H55V62H54V63H53V62ZM57 56H56V57H57V58H56V60H57V62H58V60H57V58H58V57H57V56ZM62 57H61V58H62V57ZM63 60H64V61H63V60ZM65 58H64V60H65V58ZM68 57V58H65V57H68ZM68 56V57H69V56H68ZM68 56V55H67V56H68ZM63 63H62V65H63V63ZM68 69H69V70H68V69ZM70 75V74H68V75H70ZM70 75H71V76H70V75ZM61 49H60V50H61V51H60V52H62V51V50H61V49ZM64 43H65V46H64V43ZM65 46H66V48H65V46ZM73 51H74V52H73V51ZM75 50H74V51H75V50ZM75 46H76V50H75V46ZM74 44V42H73V41H71V40H68V41H66V42H68V41H71V42H73V44H74ZM74 44V46H75V44H74Z" fill="#5A3100"/>
<path fill-rule="evenodd" clip-rule="evenodd" d="M29 37H27V38H26V39H25V40H24V41H26V40H28V39H29V38V37ZM64 49H65V50H66V51H67V52H69V53H67H66V52H65V51H64V49ZM37 63H38H39V65H38V66H37V67H32V66H31V64H32V65H36V64H37V63ZM60 68H61V69H60V68ZM61 69H64V68H65V67H66V66H67H68V69H67V70H65V71H61V69Z" fill="#414141"/>
<path fill-rule="evenodd" clip-rule="evenodd" d="M45 26H44V27H45V26ZM40 28H41V29H40V28ZM42 30H41V29H42V30ZM43 30V31H42V30H43ZM43 30V28H44V30H43ZM18 32H17V33H16V34H15V36H14V40H15V41H16V42H21V41H24V42H26V41H28V40H29V39H30V40H31V41H34V40H31V39H30V35H29V34H27V33H26V34H27V35V37H26V38H25V39H23V40H21V41H16V40H15V36H16V34H17V33H18V32ZM25 39H26V38H27V37H28V35H29V39H28V40H26V41H24V40H25V39ZM34 37H33V38H34V39H35V40H36V39H35V38H34V37ZM47 29H48V30H47V29ZM52 26H51V27H52V26ZM64 35H65V36H64V35ZM65 35V33H66V35H65ZM69 38H68V39H67V40H68V39H69V38ZM66 42H65V43H66V42ZM63 43H64V44H63V43ZM63 48H62V44H63V48ZM66 50V49V48H64H63V51H64V52H65V53H66V54H65V55H62V54H61V52H60V51H59V52H60V54H61V55H62V56H65V55H67V54H70V53H73V52H69V51H67V50H66ZM66 50H65V49H64V51H65V52H66V53H69V52H67V51H66V50ZM46 46H47V47H46V46ZM40 45H39V46H40V45ZM37 50H38V51H37V50ZM32 50H31V51H32V52H33V51H32V50ZM43 62H42V63H43V64H44V65H45V66H46V65H47V64H48V65H49V66H50V67H51V66H52V62H51V61H50V62H51V66H50V65H49V64H48V63H47V62H46V63H47V64H46V65H45V64H44V63H43V62ZM56 62H57V63H56V62ZM59 64H58H57V63H58V62H59V64ZM60 69H59V64H60V65H61V66H60V69ZM61 71H60V69H61V71ZM65 71H61V72H63V73H64V74H65V77H66V78H72V77H73V76H74V73H73V72H72V71H70V70H69V71H70V72H72V73H73V76H72V77H71V76H70V77H66V74H65V73H64V72H65V71ZM67 70V71H65V70H67ZM68 69V70H67V69H68ZM68 66H69V69H68V66ZM67 64H68V66H67V64ZM66 64H67V63H66V62H64V61H63V62V63H64V64H65V66H64V67H61V68H64V67H65V66H66V64ZM66 64H65V63H66V64ZM59 57H58V58H59V59H60V58H61V57H60V58H59V57ZM38 65H39V66V67H37V66H38V65ZM32 68H37V67H32V66H31V62H30V66H31V67H32V68ZM30 69V68H32V69H30ZM28 70V69H30V70H28ZM28 73H27V70H28V73ZM30 74H28V73H30V74ZM33 74V75H30V74H33ZM35 73V74H33V73H35ZM36 71V73H35V71H36ZM37 70V71H36V70H37ZM39 69V70H37V69H39ZM39 69H40V67H39V69ZM39 63H40V65H39V63ZM39 63H38V61H37V60H40V61H39V63ZM36 63V61H37V63H36ZM36 63V64H33H32V62H33V63H36ZM37 35H36V37H37V35ZM59 29H58V31H59V33H60V31H59V29ZM34 55V56H32V55H34ZM62 58H63V60H62V58Z" fill="black"/>
<path fill-rule="evenodd" clip-rule="evenodd" d="M55 24H54V25H53V28H52V30H51V32H52V30H53V29H54V26H55V24ZM51 25H50V26H49V28H48V30H49V29H50V27H51V25ZM35 26H34V28H35V29H36V27H37V26H36V27H35V26ZM37 37H38V36H39V35H40H41V34H43V33H44V34H45V35V36H46V35H47V38H46V39H47V40H46H45H44V41H40V40H39H38V39H37V37Z" fill="#FFFFD5"/>
<path fill-rule="evenodd" clip-rule="evenodd" d="M18 32H21V33V34H20V35H18V34H17V33H18V32ZM69 42H70V41H71V42H72V43H73V44H72V45H71H70V44H69V42Z" fill="#E6B48B"/>
<path fill-rule="evenodd" clip-rule="evenodd" d="M54 27H55V29H54V27ZM55 29V31H56V29H55ZM35 28H34V29H35V28ZM22 31H20V32H21V34H20V35H19H18V34H16V36H15V38H16V39H18H19V38H20H21V36H22V35H23V32H22V31ZM66 42H67H68V41H70V42H69V44H70V45H72V44H74V45V47H73V48H70H69H68V47H67V46H66V42ZM72 42H73V43H72V42ZM29 70H28V71H29V70ZM30 69H35V70H34V71H33V72H31V71H32V70H30V69ZM66 73H65V74H66V76H68V74H70H71H72V73H71V72H70V71H68V72H66V73ZM62 62H63V63H62V64H60V62H59V61H60V60H62V62ZM35 61H34V60H35V61ZM32 61H34V62H36V61V59H35H34H32V61ZM35 55H34V56H35V55ZM35 55H36V54H35V55ZM36 40H35V41H36V40ZM31 41H33V43H32V44H31V45H30V44V43H31V41ZM37 43H36V46H37V43ZM39 47V48H37V47H39ZM50 48H45V49H50V48ZM51 43H52V48H51V43ZM42 43H41V44H42V43ZM43 42H44V44H43V42ZM44 42V41H45V42H44ZM53 38H54V39H53V38ZM54 38H55V37H54V38ZM57 41H56V42H57V41ZM57 41V40H58V41H57ZM56 37H57V38H56V37ZM57 38H58V39H57V38ZM54 40H53V41H54V42H55V41H54V40ZM36 34H37V35H36V34ZM36 28H38V29H36V28ZM39 30H38V29H39V30ZM39 30H40V32H39V30ZM42 33H41V34H42V33ZM50 32H51V33H50V32ZM54 30H53V32H54V30Z" fill="#CD8B5A"/>
<path fill-rule="evenodd" clip-rule="evenodd" d="M56 25H57V27H56V25ZM57 27H58V31H59V35H58H57V31H56V29H57V27ZM37 26H38V27H37V26ZM39 28H38V27H39V28ZM40 29H39V28H40V29ZM40 29H41V30H42V31H44V33H42H41V32H40V29ZM37 33H36V34H37V33ZM55 36H54V37H55V36ZM52 38H53V39H52V38ZM44 40H45V41H44V40ZM36 41H35V42H36V41ZM34 45H33V46H34V45ZM36 46H37V47H36V46ZM38 48H37V49H38V48ZM32 50H33V51H32V50ZM42 42H41V43H42V42ZM53 43H52V44H53V43ZM54 42H55V43H54V42ZM57 42H56V43H57V42ZM55 45H56V46H55V45ZM63 37H62V38H61V39H60V40H58V41H60V42H59V43H58V44H59V45H60V46H61V47H60H59H58V46H57H56V49H57V52V53H56V52H55V51H54V56H53V55H52V54H51V55H50V54H49V55H48V56H47V55H46V54V53H47V52V50H48V49H46V50V52H45V53H44V54H39V53H38V52H36V53H35H34V52H33V53H32V54H31V55H32H35V57H34V58H35H36H38V60H39H40V61H41V63H42V61H43V63H44V64H45V65H46V64H47V63H48V64H49V65H50V66H51V65V62H53V63H54V62H55V61H56V62H57V63H58V62H57V61V60H56V58H57V57H59V58H60V57H61H62V58H63V60H64V58H65V57H67H68V56H67V55H65V56H62V55H61V54H60V52H59V51H61V50H60V49H62H63V48H62V47V46V45V44H63V43H65V42H66V41H67H68V40H67V39H68V38H69V37H68H65V36H63V37ZM57 57H56V56H57V57ZM51 62V61H50V62H51ZM47 63V62H46V63H47ZM38 58V57H39V58H38ZM35 55H36V54H35V55ZM53 40H52V41H53V40ZM56 36H57V37H56V36ZM59 38H58V39H59V38ZM51 48H50V49H51V48ZM42 45H41V46H42V47H43H44V46H43V44H42V45ZM45 28H44V29H45V28ZM51 27H52V28H51V30H50V27H51ZM62 32H61V33V34H64V35H65V34H64V33H62V32ZM36 29H35V31H36V29ZM46 28H47V30H46V28Z" fill="#E6BD9C"/>
<path fill-rule="evenodd" clip-rule="evenodd" d="M54 26H56V27H57V29H55V27H54V26ZM36 27H38V28H36V27ZM39 29H38V28H39V29ZM39 29H40V30H39V29ZM35 41H34V42V43H33V44H32V45H34V48H33V49H32V50H33V51H34V53H36V52H37V47H36V42H35V41ZM48 56V55H49V54H50V55H51V54H52V55H53V56H54V55V54V53V51H55V52H56V53H57V49H56V46H58V47H61V46H60V45H59V44H58V43H59V42H60V41H59H57V43H56V40H60V39H61V38H62V37H63V36H64V34H65V33H64V34H61V32H62V31H63V30H61V31H60V32V34V35H56H55V34H53V33V32V30H54V29H53V30H52V32H51V33H50V30V29H49V30H46V27H45V29H44V31H45V32H44V34H45V36H46V35H47V36V38H46V39H47V40H45V41V42H44V41H41H40V40H38V39H37V38V37H38V36H39V35H38V32H37V29H36V33H37V37H34V38H35V39H36V41H37V42H38V43H39V44H40V45H41V42H42V44H43V42H44V43V45H46V44H49V43H51V42H53V43V44H52V48H51V49H48V50H47V53H46V55H47V56H48ZM56 46H55V45H56V46ZM52 41H53H54V43H55V40H52V41ZM52 39V38H54V36H55V39H52ZM56 36V39H59V38H57V37V36H56ZM41 34H40V35H41V34ZM42 33H43V34H42V33Z" fill="#FFE6B4"/>
<path fill-rule="evenodd" clip-rule="evenodd" d="M54 23H53V24H54V23ZM33 25H35V26H34V28H33V26V25ZM22 30H20V31H18V32H20V31H22V32H23V35H22V36H21V38H19V39H16V38H15V40H16V41H19H21V40H22H23V38H24V39H25V38H26V37H27V34H26V33H25V32H24V31H22V30ZM25 35V34H26V35H25ZM25 35H24V38H25V35ZM27 41H28V40H29V39H30V40H31V43H30V45H29V44H28V43H27V41ZM36 41H37V42H36V41ZM52 25H53V28H52V25ZM51 30V28H52V30H51ZM51 30V32H50V30H51ZM57 31H56V35H57V31ZM44 46H45V47H44V46ZM47 44H46V45H47V44ZM52 42H53V43H52V42ZM55 38H54V39H55V38ZM54 40H55V41H54V40ZM57 38H56V39H57V38ZM56 40H57V41H56V40ZM37 59H36V61H37V59ZM34 60H35V61H34V60ZM34 61V62H36V63H33V62H32V61H34ZM39 67H37V68H32V69H35V70H34V71H33V72H31V71H30V70H29V71H28V73H29V71H30V72V74H33V73H35V71H36V70H37V69H39V67ZM57 58H58H59V59H60V58H62V60H60V61H59V62H58V60H57V58ZM60 64H59V62H60V64ZM60 64H62V65H63V63H64V64H65V66H64V67H61V65H60V64ZM62 60H63V62H62V60ZM67 71V70H69V71H68V72H66V73H64V72H65V71H67ZM66 76V77H68H70V75H71V77H72V76H73V73H72V72H71V73H72V74H70V75H68V76H66ZM62 52H61V54H62V55H65V54H66V53H65V52H64V51H63V49H62H61V50H62V51V52ZM64 44H63V46V48H65V46H66V50H67V51H68H69V52H73V51H74V50H75V46H74V47H73V48H68V47H67V46H66V43H65V46H64V44Z" fill="#9C6A6A"/>
</svg>
