<svg width="100" height="100" viewBox="0 0 100 100" fill="none" xmlns="http://www.w3.org/2000/svg">
<rect x="41" y="35" width="1" height="2" fill="#DE7B31"/>
<path fill-rule="evenodd" clip-rule="evenodd" d="M48 20H49V21H48V20ZM47 23V21H48V23H47ZM47 23V26H46V23H47ZM60 47H59V50H60V53H61V50H60V47ZM24 50H25V51H24V50ZM23 54H24V56H23V54ZM27 52H26V53H27V54H28V55H29V56H30V55H29V54H28V53H27V52ZM35 62H34V60H33V58H32V60H33V62H34V63H35V64H36V65H37V64H36V63H35V62ZM38 65H39V66H38V65ZM41 66H40V67H41V66ZM45 66H46V68H45V66ZM45 65V66H44V64H45H50V65H45ZM44 70H43V72H42V73H40V74H38V75H34V74H33V73H32V74H33V75H34V76H38V75H40V74H42V73H43V72H44V70ZM44 70V69H45V70H44ZM59 64H58V67H59V70H60V67H59V64ZM61 64H59V63V62H60V63H61V64ZM63 65H61V64H63V65ZM70 65H63V66H70V65ZM72 64H70V65H72V64ZM73 63H72V64H73V63ZM74 62H73V63H74V62ZM74 57H75V62H74V57ZM73 55H74V57H73V55ZM72 55H73V54H72V55ZM72 55H71V56H72V55ZM61 55V58H62V55H64V54H68V53H64V54H61V55ZM61 59H60V61H61V59ZM61 71H60V76H61V71ZM55 66H54V71H55V66ZM55 77H56V78H57V77H58V78H59V79H54V78H55V77ZM59 78V77H60V78H59ZM70 54H69V55H70V54ZM61 44H62V45H61V44ZM63 43H62V44H63V43ZM63 43H64V42H63V43ZM65 40H64V41H65V40ZM64 31H65V32H64V31ZM70 25H69V26H70V25ZM71 24H72V25H71V24ZM57 32H56V30H55V32H56V33H57V34H58V37H59V34H60V33H57V32ZM46 35H47V36H46V35ZM35 41H34V42H35V41ZM35 43H36V44H35V43ZM37 45H36V46H37V45ZM42 29H43V30H42V29ZM41 29V28H42V29H41ZM41 29H40V31H41H42V30H41V29ZM52 32H51V31H52V32ZM51 30V31H50V33H51V34H53V33H54V31H53V30H51ZM63 32H61V33H63V32ZM32 55H31V57H32V55Z" fill="black"/>
<path fill-rule="evenodd" clip-rule="evenodd" d="M67 26H65V27H63V28H62V30H61V32H63V31H65V30H67V29H65V28H66V27H67V26ZM50 36H51V35H52H54V36H55V37H54V38H52V39H50V36ZM38 31H39V34H38V36H37V33H38V31ZM13 27H14V30H15V33H16V35H17V37H18V38H17V39H16V40H15V38H14V34H13V27ZM17 40H16V41H17V42H18V41H19V42H20V41H19V40H20V39H19V38H18V39H17V40ZM18 40V41H17V40H18ZM18 40V39H19V40H18Z" fill="#FFDE5A"/>
<path fill-rule="evenodd" clip-rule="evenodd" d="M67 24H70V25H68V26H65V27H63V28H62V30H61V32H59V30H60V28H61V27H62V26H64V25H67V24ZM16 32H15V33H16V32ZM17 34H16V35H17V34ZM17 36H18V37H17V36ZM18 38H17V39H16V40H15V42H16V45H17V47H18V49H19V51H20V52H21V54H22V55H23V54V51H24V49H25V51H26V52H27V53H28V54H30V55H31V54H30V53H29V51H28V49H27V47H26V44H25V42V41H24V40V38H23V40H22V41H21V40H20H19V39H18V38ZM18 40V39H17V40H16V41H17V42H18V41H19V42H20V41H19V40H18ZM18 40V41H17V40H18ZM52 38H54V37H55V39H54V40H52V38ZM65 28H66V29H65V28ZM39 34H38V35H39V34Z" fill="#FFBD00"/>
<path fill-rule="evenodd" clip-rule="evenodd" d="M73 59H74V61V62H73V63H72V64H70V65H65H63V64H62H61V63H60V61H62V62H63V63H65V64H69V63H71V62H72V61H73V59Z" fill="#393941"/>
<path fill-rule="evenodd" clip-rule="evenodd" d="M49 19H47V20H45V21H43V22H42V23V24H41V25V27H43V25H44V24V23H45V22H46V21H48V20H49V19ZM72 23H63V24H60V25H58V26H57V27H58V28H60V27H61V26H63V25H67V24H72V23ZM66 28H67V29H66V28ZM69 30H68V31H69V33H68V34H69V33H70V31H69V30ZM59 32H60V33H59V32ZM63 37H62H61V38H60H59V39H58V40H59H60V41H61H62V40H63V39H64V38H63V37ZM38 70H37V71H35V72H36V73H34V72H33V73H34V74H36V73H37V74H38V73H40V71H38V70ZM38 73V72H37V73H38ZM55 74H54V76H55V75H56V77H57V75H58H59V76H58V77H59V76H60V72H59H58V73H57H56V72H55V74ZM59 29H60V30H59V29ZM38 30H39V31H38V30ZM37 34H36V35H37V34ZM35 39V40H34V39V37H36V38H37V39H36H35ZM30 54H29V55H30V56H31V55H30V54ZM29 50H28V51H29V50ZM23 51H24V52H23V51ZM28 48H27V49H28V48ZM26 46H27V47H26V46ZM26 43H25V44H26V43ZM24 40H25V41H24V40ZM24 37H23V38H22V40H21V39H20V38H19V36H18V34H17V32H16V30H15V27H14V26H13V27H12V34H13V38H14V42H15V43H16V42H15V38H14V34H13V27H14V30H15V32H16V34H17V36H18V38H19V39H20V40H21V41H22V40H23V38H24V37Z" fill="#8B6210"/>
<path fill-rule="evenodd" clip-rule="evenodd" d="M41 43H40V44H41V43ZM37 46H38V47H37V46ZM37 48H36V50H37V48ZM36 51H35V55H36V51ZM44 43H45V44H44V43ZM49 47H48V48H49V47ZM49 49H50V50H49V49ZM37 56H36V58H37V56ZM41 60V61H39V60H41ZM45 61H42V62H45V61Z" fill="#E6BD83"/>
<path fill-rule="evenodd" clip-rule="evenodd" d="M51 26H52V27H51V26ZM54 28H52V27H54V28ZM54 28H55V29H54V28ZM45 34H44V35H45V34ZM56 39H58V40H56V39ZM54 41V40H56V41H54ZM54 41V42H53V41H54ZM36 44H37V45H36V44ZM37 46H36V48H35V49H36V48H37V46ZM33 53H34V54H33V53ZM33 54V57H32V54H33ZM36 50H35V51H36V50ZM39 60H38V61H39V62H40V61H39V60ZM42 62H41V63H42V62ZM49 62H50V63H49V62ZM49 57H48V58H49V57ZM55 67H56V68H55V67ZM59 67H58V68H59V67ZM57 56H58H60V55H61V56V58H58V57H57V56ZM61 53H60V50H59V51H58V52H56V53H58H59H60V54H61V53ZM59 46H58V47H59V46ZM44 27H43V28H42V29H43V28H44V27ZM41 28H40V29H39V30H40V29H41V28ZM38 39H37V41H38V39Z" fill="#944141"/>
<path fill-rule="evenodd" clip-rule="evenodd" d="M41 33H40V34H41V33ZM49 34H48V35H49V34ZM35 39H36V40H35V39ZM60 40H59V41H60V40ZM55 52H56V53H55V52ZM58 51H57V52H58V51ZM59 55H60V56H59V55ZM57 56H56V57H57V56ZM48 56H49V57H48V56ZM49 56V54H50V56H49ZM38 62H40V63H42V64H44V65V66H45V67V68H44V67H42V66H40V65H38V64H36V63H38V62ZM41 72H42V73H41V72ZM47 63H45V64H47V63ZM50 63H51V64H50V63ZM51 64H52V65H51V64ZM58 62H59V63H58V62ZM58 68V63H57V64H56H55V65H53V66H55V67H56V68H57H58ZM58 68H59V69H58V68Z" fill="#BD5A31"/>
<path fill-rule="evenodd" clip-rule="evenodd" d="M51 27H52V28H51V27ZM39 30H40V31H39V30ZM37 32H38V33H37V32ZM38 38H37V39H36V40H35V42H36V44H37H38V43H39V41H38H37V39H38V38ZM51 30H50V31H51V30ZM53 30H54V31H53V30ZM54 33H53V34H54V33ZM50 33H51V34H50V33ZM53 41H52V42H53V41ZM54 40H53V41H54V42H55V41H54V40ZM54 40H55H56V39H57H58V34H57V33H56V35H55V39H54V40ZM50 53H51V54H50V53ZM61 42H60V43H59V44H58V45H57V46H55V49H56V52H57V51H58H59V47H58V46H59H60V45H61V44H62V43V42H61ZM58 57H57V58V60H56V61H55V62H50V61H49V62H48V61H46V62H42V63H47V64H49V63V62H50V63H51V64H52V65H55V64H57V63H58V62H59V61H60V58H58V57ZM60 53H56V54H57V55V56H59V55H61V54H60V53ZM58 68H55V69H58V70H59V69H58V68ZM58 73V72H56V73H58ZM41 67H44V69V70H43V72H42V70V69H41V67ZM41 71H40V72H41V71ZM38 61H39V62H38V63H35V62H34V60H35V59H36V58H37V59V60H38V61Z" fill="#DE7B31"/>
<path fill-rule="evenodd" clip-rule="evenodd" d="M47 21H46V22H45V23H44V25H43V27H44V26H46V23H47V21ZM33 39H34V40H33V39ZM56 28H57V27H58V28H59H60V29H59V33H58H57V32H56V28ZM61 27V28H60V27H61ZM61 27V26H62V27H61ZM63 25H64V26H63V25ZM68 26H67V27H66V28H67V27H68V26ZM68 29H67V30H68V29ZM65 30H66V31H65V30ZM69 32H68V33H66V34H68V33H69V32ZM59 38H58V39H59V38ZM60 37H61V38H60V37ZM61 37V36H62V37H61ZM63 37H64V38H63V37ZM62 42V43H63V42V41H64V40V39H63V40H62V41H61V42H62ZM60 71H59V72H60V71ZM55 75H56V76H55V75ZM55 76V78H54V76H55ZM57 77H56V78H57V77ZM58 77H59V78H58V77ZM59 75H57V76H59V75ZM41 72H40V73H38V74H37V75H38V74H40V73H41V72ZM34 75V74H36V75H34ZM36 72H35V71H34V72H35V73H36V72ZM32 54H31V53H30V51H29V53H30V54H31V55H32V54ZM29 49H28V50H29V49ZM27 47H28V48H27V47ZM25 49H24V50H25V49ZM25 51H26V52H25V51ZM23 55H22V54H21V52H20V51H19V49H18V47H17V45H16V43H15V45H16V47H17V49H18V51H19V52H20V54H21V55H22V56H23V55ZM24 52H23V54H24V52ZM27 44H26V46H27V44ZM25 41H26V43H25V41ZM25 37H24V40H25V37Z" fill="#734131"/>
<path fill-rule="evenodd" clip-rule="evenodd" d="M42 29H41V30H42V29ZM52 31H51V32H52V31Z" fill="#FFEED5"/>
<path fill-rule="evenodd" clip-rule="evenodd" d="M41 43H44V44H46V45H47V46H48V47V48H49V50H50V54H49V56H48V59V60H47V61H41V60H38V59H37V56H36V50H37V47H38V45H39V44H41V43Z" fill="#FFEED5"/>
<path fill-rule="evenodd" clip-rule="evenodd" d="M51 18H47V19H45V20H43V21H42V22H41V24H40V27H41V28H43V27H41V24H42V22H43V21H45V20H47V19H49V20H50V19H51V18ZM45 32V33H43V32H45ZM44 34H41V35H44V34ZM36 35H37V38H36V37H34V36H36V35ZM34 37V39H33V37H34ZM64 36V37H62V36H64ZM64 37H65V40H64V37ZM35 49H36V50H35V49ZM34 51H35V52H34V51ZM34 52V53H33V52H34ZM32 57H33V58H32V57ZM49 58H48V62H49V58ZM54 71H55V74H54V71ZM54 74V78H53V74H54ZM42 63H45V64H42V63ZM37 69V70H35V71H37V70H39V69H40V68H41V67H42V66H41V67H40V68H39V69H37ZM37 73H36V75H37V73ZM37 73V72H38V73H37ZM51 65H53V66H51V65ZM50 64H51V65H50V64ZM50 64H49V63H50V64ZM53 66H54V67H53V66ZM60 37H58V38H60V37ZM45 38H43V37H42V38H43V39H45V38ZM46 37H47V36H48V35H47V36H46V35H45V36H46V37ZM46 37H45V38H46V37ZM44 26H51V27H44V26ZM56 28H55V30H56V28ZM57 26V28H56V26H57ZM58 25V26H57V25H58ZM58 25H60V24H63V23H72V24H74V23H72V22H63V23H60V24H58V25ZM68 30H66V31H68V32H69V31H68V30ZM37 31H38V32H37V31ZM37 33H36V34H37V33ZM34 40H35V41H34V40ZM36 42H35V43H36V42ZM60 32H61V33H60V32ZM64 31H63V32H64V31ZM68 25H69V26H68V25ZM71 24H70V25H71V24ZM64 41H63V42H64V41ZM60 45H61V46H60V45ZM60 46V47H59V46H60ZM60 58H61V59H60V58ZM60 61H59V62H60V61ZM58 63H59V64H58V63ZM60 70H59V71H60V70ZM59 76H60V77H59V76ZM58 76H57V77H58V76ZM55 76H56V77H55V76ZM40 62H41V63H40V62ZM38 64H37V65H38V64ZM39 65H40V66H39V65ZM44 68H45V69H44V68ZM33 71H34V72H33V71ZM33 73H32V72H33V73ZM34 73V74H33V73H34ZM34 73H35V72H34V73Z" fill="#5A2929"/>
<path fill-rule="evenodd" clip-rule="evenodd" d="M44 27H51V28H54V29H55V32H56V35H55V36H54V35H51V36H50V39H52V40H53V41H52V42H55V41H56V40H57H58H59V41H60H61V42H60V43H59V44H58V45H57V46H56H55V49H56V52H55V53H56V54H57V56H56V57H57V60H56V61H55V62H50V61H49V56H50V54H51V53H50V52V49H49V47H48V46H47V45H46V44H45V43H40V44H39V45H38V46H37V44H38V43H39V41H38V38H37V36H38V35H39V31H40H42V30H43V28H44V27ZM45 38V39H43V38H42V37H41V34H45V35H48V36H47V37H46V38H45ZM48 35V34H49V35H48ZM41 34H40V33H41V34ZM50 32V33V34H54V30H50V32ZM45 32H43V33H45V32ZM35 52H34V54H33V60H34H35V59H36V55H35V52ZM41 68H40V69H39V70H38V71H39H41V72H42V71V69H41V68ZM55 69H58V70H59V72H58H55V69ZM42 61H40V62H42V61ZM48 60H47V61H48V60ZM45 61H46V62H45V61ZM38 59H37V60H38V59Z" fill="#F6AC29"/>
<path fill-rule="evenodd" clip-rule="evenodd" d="M42 35H43H45V36H46V37H45V38H43V37H42V35Z" fill="#BD1808"/>
</svg>
