<svg width="100" height="100" viewBox="0 0 100 100" fill="none" xmlns="http://www.w3.org/2000/svg">
<path fill-rule="evenodd" clip-rule="evenodd" d="M66 31H65V38H64V41H63V43H62V45H61V46H62V45H63V43H64V41H65V38H66V31ZM53 48H52V49H49V50H52V49H53V48ZM53 48H54V45H53V48ZM49 56H48V57H47V58H46V59H45V60H44V61H41V62H44V61H45V60H46V59H47V58H48V57H49V56ZM34 60H35V61H34V60ZM34 63H33V62V61H34V62V63ZM35 63V64H34V63H35ZM36 63H35V62H36V63ZM36 63H37V64H36V63ZM47 66H48V67H47V66ZM47 66H45V65H47V66ZM49 66V65H48V66H49ZM50 66H49V67H50V66ZM51 64H50V66H51V64ZM52 63H51V64H52V63ZM53 61H52V63H53V61ZM54 58H53V61H54V58ZM54 58H55V56H54V58ZM61 58H62V59H61V58ZM61 61H60V59H61V61ZM62 61V62H61V61H62ZM63 61H62V60H63V61ZM64 61V62H63V61H64ZM65 60V61H64V60H65ZM65 56H66V60H65V56ZM64 54H65V56H64V54ZM64 54H63V50H64V54ZM41 53H39V54H40V57H39V58H41V57H42V54H41V53Z" fill="#101010"/>
<path fill-rule="evenodd" clip-rule="evenodd" d="M64 27H63V28H64V31H65V28H64V27ZM62 41H61V43H60V45H61V43H62V41ZM62 41V37H63V41H62ZM62 46H61V47H62V49H63V50H64V49H63V47H62V46ZM55 55H54V56H55V55ZM36 57H37V58H36V57ZM35 59V58H36V59H35ZM35 59V60H34V59H35ZM37 62H38V63H37V62ZM39 61H38V62H39V61ZM39 61H40V60H39V61ZM57 55H58V56H57V55ZM60 57H58V56H60V57ZM60 57H61V58H60V57ZM61 29H62V30H61V29ZM57 30H61V31H57V30ZM57 30H56V29H57V30ZM50 42H51V43H50V42ZM50 42H49V41H50V42ZM47 43H48V44H47V43ZM49 49H48V50H49V49ZM44 47H45V48H44V47ZM43 48H42V49H41V50H42V49H43V48ZM36 46H35V48H36V46ZM36 44V42H35V41H33V42H35V44H36ZM36 44V46H37V44H39V43H45V42H39V43H37V44H36ZM54 43H53V45H54V43ZM47 60H48V62H47V60ZM48 60V57H49V60H48Z" fill="#4A2941"/>
<path fill-rule="evenodd" clip-rule="evenodd" d="M42 49H43V50H42V49ZM44 49H46V51H44V49ZM39 54H38V55H37H36V56H37V57H38H39V54Z" fill="white"/>
<path fill-rule="evenodd" clip-rule="evenodd" d="M41 50H42V51H41V50ZM43 50H44V51H43V50ZM43 59V57H41V59H43Z" fill="#E65A73"/>
<path fill-rule="evenodd" clip-rule="evenodd" d="M44 48H43V50H42V51H43V50H44V48Z" fill="#A41839"/>
<path fill-rule="evenodd" clip-rule="evenodd" d="M30 47H31V48H30V47ZM31 48H32V49H31V48ZM34 53H33V54H34V55H38V54H39V53H38V54H34V53ZM41 60H40V58H39V60H40V61H41V60ZM53 51H54V52H53V51ZM50 53V52H53V53H50ZM50 53V54H48V53H50ZM62 60H61V61H62V60ZM62 60H63V59H62V60ZM54 58H56V59H54V58ZM56 58V57H58V58H56ZM42 55H43V57H42V55Z" fill="#624A08"/>
<path fill-rule="evenodd" clip-rule="evenodd" d="M34 42H35V43H34V42ZM32 46H30V47H32V48H33V47H32V46ZM48 53H46V54H48V53ZM41 59H43V60H41V59ZM43 59V57H44V59H43ZM36 60H35V61H34V62H35V61H36V60ZM46 64H45V65H46V64ZM47 63H46V64H47V65H48V64H47V63ZM47 63H48V62H47V63ZM49 51H46V52H49V51ZM49 51H53V50H49V51ZM50 42H49V43H48V44H50V45H51V44V43H50V42ZM64 58H63V59H64V60H63V61H64V60H65V59H64V58Z" fill="#A47308"/>
<path fill-rule="evenodd" clip-rule="evenodd" d="M34 43H35V44H34V43ZM35 44H36V46H35V44ZM50 44H48V46H49V47H50H51V45H50V44Z" fill="#E6CD73"/>
<path fill-rule="evenodd" clip-rule="evenodd" d="M38 51H39V52H38V51ZM35 52H36V53H35V52ZM42 53H41V54H42V55H43V54H42V53ZM46 51H45V52H46V51ZM45 53H46V54H45V53ZM50 52H49V53H50V52ZM43 56H44V57H43V56ZM42 60H41V58H40V60H41V61H42V60ZM48 62H49V63H48V62ZM49 63H50V64H49V63ZM61 59H62V60H61V59ZM63 59V58H62V59H63ZM64 59H63V60H64V59ZM64 59H65V57H64V59ZM58 56H57V55H56V56H55V58H56V57H57H58V56ZM36 61H35V62H34V63H35V62H36V63H37V61H36ZM48 54H47V57H48V54Z" fill="#CDAC62"/>
<path fill-rule="evenodd" clip-rule="evenodd" d="M31 47H32V48H31V47ZM32 48H33V49H32V48ZM38 53V54H34V53H36V52H39V51H45V52H49V53H45V54H47V56V58H46V59H45V60H44V61H42V60H43V59H44V58V56H43V54H42V53H38ZM49 52V51H53V52H49ZM49 63H47V64H46V65H47V66H48V65H49V66H50V65V64H49V63ZM48 65H47V64H48V65Z" fill="#EEDEB4"/>
<path fill-rule="evenodd" clip-rule="evenodd" d="M44 48H45V49H44V48ZM36 55H35V56H36V57H37V58H39V57H37V56H36V55Z" fill="#CDCDCD"/>
<rect x="39" y="54" width="1" height="3" fill="#5A5A5A"/>
<path fill-rule="evenodd" clip-rule="evenodd" d="M62 25H60V26H58V27H60V28H61V29H62V28H61V27H60V26H62V27H63V26H62V25ZM63 31H62V30H61V31H62V33H63V37H64V33H63V31ZM39 41H38V40H37V39H34V40H33V41H34V40H37V41H38V43H39V41ZM48 44H47V46H48V47H49V48H51V47H52V43H53V41H52V40H51V41H52V43H51V47H49V46H48V44ZM63 41H62V43H61V45H59V44H55V45H54V46H55V45H59V46H61V45H62V43H63V41ZM63 28H64V29H63V28ZM49 42H48V43H49V42ZM46 47H45V48H46V47ZM43 47H44V48H43V47ZM41 50H40V51H41V50ZM35 51H36V52H35V51ZM34 52H33V49H35V48H33V49H32V52H33V53H34V52ZM36 59H35V60H36V61H37V62H38V61H39V58H36V59ZM63 49H62V51H61V53H60V54H59V55H58V56H59H60V57H61V58H62H63H64V57H65V56H64V54H63V49ZM57 54H56V55H57V54ZM49 55H50V57H49V55ZM58 29H57V30H58V29ZM55 28H56V29H55V28ZM34 42H33V44H34V46H35V44H34V42Z" fill="#8B4A8B"/>
<path fill-rule="evenodd" clip-rule="evenodd" d="M56 24H60V25H56V24ZM55 26V25H56V26H55ZM55 26V28H54V26H55ZM61 26H62V27H63V29H64V31H65V38H64V41H63V37H64V33H63V31H62V28H61V27H60V26H61ZM61 28V30H59H58V29H59V28H61ZM37 40H36V44H37V43H38V41H37V40ZM35 48H36V46H38V47H40H41V46H42H43V45H44V44H45V45H46V44H47V46H48V47H49V48H51V47H52V43H53V48H52V49H49H48V50H49V51H48H47H46V49H45V48H46V47H45H44H43V48H42V49H41V50H40V51H38V52H36V51H35V50H33V49H35V48ZM35 51V52V53H34V52H33V51H35ZM52 49H53V48H54V46H55V45H59V46H61V47H62V51H61V53H60V54H59V55H57V54H56V55V56H55V55H54V56H53V55H51V56H50V55H49V56H48V54H49H50V53H51H53V52H54V51H53V50H52V49ZM52 43V41H51H50V42H51V43H52ZM46 42H45V44H46V42ZM47 41H46V42H47V41ZM48 40H47V41H48V40ZM48 40H51V39H48V40ZM53 60H52V61H51V62H50H49V63H50V64H51V63H52V62V61H53V60Z" fill="#B473BD"/>
<path fill-rule="evenodd" clip-rule="evenodd" d="M60 25H58H56V26H55V28H56V29H58H59V28H60V27H58V26H60V25ZM34 40H36V41V42H35V41H34V40ZM35 51V50H33V51H35ZM41 46V47H38V46H37V44H39V43H45V44H44V45H43V46H41ZM46 44V45H45V44H46ZM46 44V42H47V41H48V40H49H51V41H49V42H48V43H47V44H46ZM53 55H51V56H50V57H49V60H48V62H49H51V61H52V60H53V58H54V56H53V55Z" fill="#D59CD5"/>
</svg>
