<svg width="100" height="100" viewBox="0 0 100 100" fill="none" xmlns="http://www.w3.org/2000/svg">
<path fill-rule="evenodd" clip-rule="evenodd" d="M54 34H53V35H54V34ZM50 35H51V36H50V35ZM49 37V36H50V37H49ZM49 37V38H48V37H49ZM39 38H40V39H39V38ZM39 39V40H38V39H39ZM40 39H41V40H40V39ZM57 35H58V36H57V35ZM57 36V37H56V36H57ZM57 38H58V39H57V38ZM56 42H55V43H51V44H55V43H56V42ZM56 42H57V40H56V42ZM47 56H46V57H45V58H46V57H47V56ZM47 59H46V60H45V61H46V60H47V61H49V60H50V59H51V58H50V59H49V60H47V59ZM52 56H51V57H52V56ZM52 59H53V60H52V59ZM52 60V61H51V60H52ZM53 62V60H54V62H53ZM53 62V63H50V62H53ZM34 61V62H33V61H32V60H34V61ZM34 59H37V60H34V59ZM32 58H34V59H32V58ZM31 57H32V58H31V57ZM30 55H31V57H30V55ZM29 53H30V55H29V53ZM27 53V52H29V53H27ZM27 53V54H26V53H27ZM34 62V63H36V62H34ZM31 61H32V62H31V61ZM35 56H34V57H35V56ZM41 72H40V73H41V74H44V75H45V74H46V73H49V72H51V71H52V70H58V71H59V72H60V71H59V70H61V69H51V70V71H49V72H46V73H45V74H44V73V72H43V73H41V72ZM36 55V54H35V52H34V51H31V50H34V49H35V46H36V45H37V46V47H38V50H39V51H38V53H37V54V55H36ZM31 50H30V48H31V50ZM64 71H63V72H64V71ZM61 74H62V73H63V75H62H61V74ZM66 74H65V75H66H67V73H68V74H69H70V72H69V73H68V72H67V73H66V74ZM69 60H70V61H69V63H68V56H69V60ZM67 66H68V63H67V65H66V67H64V68H65V69H67V68H66V67H67V66ZM71 59H70V60H71V59ZM72 58V59H71V58H72ZM73 57H72V58H73V57ZM74 55H73V57H74V55ZM75 53V55H74V53H75ZM75 53V51H76V53H75ZM68 54H69V55H68V54ZM67 52H68V54H67V52ZM67 51V52H66V51H67ZM67 51V50H68V51H67ZM25 43H23V44H25V45H27V44H25V43ZM28 49V48H26V49H28ZM49 69V68H47V69H49ZM49 44H45V45H49V44ZM48 52H45V53H48V52ZM47 48H50V49H47V48ZM45 47H42V48H45V47ZM51 53H54V54H51V53ZM28 61H30V62H28V61ZM76 46H77V50H76V46Z" fill="#101010"/>
<path fill-rule="evenodd" clip-rule="evenodd" d="M31 43H30V44H31V43ZM31 46H30V47H31V46ZM32 47H33V48H32V47ZM35 47H34V48H35V47ZM34 52H35V53H34V52ZM33 53H32V54H33V53ZM35 54H36V55H35V54ZM36 44H35V46H36V44Z" fill="#B4B4B4"/>
<path fill-rule="evenodd" clip-rule="evenodd" d="M43 38H41V40H43V38ZM30 47H31V46H30V44H31V43H34V44H35V47H34V48H35V49H34V50H33H32H31V48H30V47ZM33 48V47H32V48H33ZM32 51H33H34V53H35V55H36V56H35H34H32V55H31V54V51H32ZM33 54V53H32V54H33ZM39 39H40V40H39V39Z" fill="white"/>
<path fill-rule="evenodd" clip-rule="evenodd" d="M55 32H51V33H55V32ZM29 33H28V35H29V37H30V34H29V33ZM57 33H58V34H57V33ZM58 34H59V35H58V34ZM47 34H48V35H47V34ZM47 35V36H46V35H47ZM48 34H50V33H48V34ZM34 39H33V40H34V39ZM48 39H47V40H48V39ZM48 39H49V38H48V39ZM52 35H51V36H52V35ZM52 35H53V34H52V35ZM55 34H54V35H55V34ZM57 37H58V38H57V37ZM58 39H57V40H58V39ZM62 41H63V42H62V41ZM62 43H61V42H62V43ZM62 43H63V44H62V43ZM64 46H63V47H64V49H65V50H67V49H65V47H64V46ZM64 46V44H65V46H64ZM51 47H52V48H51V47ZM51 47H49V46H51V47ZM51 48V49H50V48H51ZM46 48H47V49H46V48ZM46 48H45V47H46V48ZM56 52H57V53H56V52ZM56 52H54V51H56V52ZM56 53V54H54V53H56ZM60 38H61V39H62V40H61H60V38ZM50 52V53H48V52H50ZM50 53V54H51V53H50ZM42 47H40V48H42V47ZM44 52H45V53H44V52ZM51 43H50V44H51V43ZM67 54H68V55H67V54ZM68 55H69V56H68V55ZM61 68H64V69H61V68ZM45 41H50V42H45V41Z" fill="#6A3900"/>
<path fill-rule="evenodd" clip-rule="evenodd" d="M60 26H63V27H60V26ZM65 27H64V28H65V27ZM66 28H67V29H66V28ZM73 30H72V31H73V30ZM73 32H74V33H73V32ZM74 33H75V34H74V33ZM71 50H72V51H74V52H71V51V50ZM71 54H70H69V53H70V52H71V54ZM72 55H71V54H72V55ZM72 55H73V57H72V55ZM74 52H75V53H74V52ZM73 47H72V50H73V49H75V51H76V49H75V48H73V47ZM73 47H74V42H73V47ZM48 55H51V56H49V57H47V56H48V55ZM29 58H31V59V61H30V59H29V58ZM29 59V61H28V59H29ZM34 59H33V60H34V61H35V60H34V59ZM41 71H40V72H41V73H42V72H41V71ZM42 70V71H41V70H42ZM42 70V69H45V70H42ZM44 71H45V72H44V71ZM50 62H49V61H47V60H48V58H47V60H46V61H47V62H49V63H50V62ZM51 59H50V60H51V59ZM52 61H53V62H52V61ZM51 57H53V58H51V57ZM53 58H54V60H53V58ZM44 58H45V60H44V58ZM63 71H62V70H61V71H62V73H63H64V74H65V73H64V72H63V71ZM69 70H70V72H69V70ZM68 69H69V70H68V69ZM68 69H67V68H68V69ZM60 73H61V74H60V73ZM60 73H59V72H60V73ZM69 59H70V60H69V59ZM70 57V56H69V57H70ZM70 57V59H71V57H70ZM70 31H71V32H70V31ZM72 33H71V34H72V33ZM57 27H58V28H57V27ZM57 28V29H56V28H57ZM73 36H72V39H73V36ZM48 40V41H53V40H54V39V37V36V35H52V36H50V37H49V39H48V40ZM76 35H75H74V36H75V38H76V46H77V38H76V35ZM67 70H66V73H67V70ZM32 35H33V37H31V35V34H32V35Z" fill="#945210"/>
<path fill-rule="evenodd" clip-rule="evenodd" d="M29 40H30V41H29V40ZM29 41V42H28V41H29ZM33 42H31V43H33V42ZM47 68H45V67H43V66H44V65H45V64H44V65H43V66H42V65H41V64H40V65H39V63H38V65H39V66H40V65H41V66H42V67H43V68H45V69H47V68ZM23 54V55H25V54H26V53H25V52H24V53H23V54ZM24 53H25V54H24V53ZM21 42H22V43H21V42ZM22 43H23V44H22V43ZM24 47H25V48H24V47ZM25 48H26V49H25V48ZM30 52H29V53H30V52ZM33 56H34V57H33V56ZM36 56H35V57H36V56ZM43 52H44V53H43V52ZM36 61H35V62H36V63H37V62H36V61ZM50 68H49V69H50V70H51V69H50V68ZM27 43H28V46H27V43ZM29 47H28V51H29V47Z" fill="#835A29"/>
<path fill-rule="evenodd" clip-rule="evenodd" d="M26 41H22V42H26V43H29V46H25V47H30V46V43H31V42H30V43H29V42H26V41ZM33 42H34V43H33V42ZM34 43H35V44H34V43ZM38 43H39V44H38V43ZM39 43V42H41V43H39ZM37 46H38V47H37V46ZM39 49H38V50H39V49ZM38 51H39V52H38V51ZM38 53H37V54H38V53ZM36 55H37V56H36V55ZM33 56H32V55H31V56H32V57H33V56ZM28 50H27V51H25V52H27V51H28V50ZM30 50H31V51V52H29V51H30V50ZM40 57H39V58H37V59H39V58H40V57ZM42 52H43V53H42V52ZM47 47H46V48H47V47ZM47 50H48V51H47V50ZM51 52H50V53H51V52ZM47 57H48V58H47V57ZM40 45H39V46H40V45ZM36 61H37V62H36V61ZM37 62H38V63H37V62ZM41 63H42V64H41V63ZM47 63H46V64H47V65H49V64V63H48V64H47V63ZM55 61H54V62H55V63H56V62H55V61ZM58 63H57V64H56V65H57V64H58V63ZM60 67H59V68H58V69H60V68V67ZM43 48H41V49H43V48ZM45 44H42V45H45V44ZM46 43H50V44H46V43Z" fill="#A48331"/>
<path fill-rule="evenodd" clip-rule="evenodd" d="M41 30H42V31H41V30ZM40 33V31H41V33H40ZM38 33H39H40V34H39V35H38V33ZM37 33V32H38V33H37ZM36 34V33H37V34H36ZM35 36H36V34H35V33H33V32H29V33H33V34H35V36ZM33 37V36H35V37H33ZM30 39V34H31V37H33V38H31V39H30ZM30 39V40H29V39H30ZM56 32H55V33H56V34H57V33H56V32ZM57 37H56V38H57V37ZM40 38H41V39H40V38ZM41 38H43V37H41V38ZM32 40H33V41H32V40ZM38 39H37V40H38V39ZM47 39H46V40H47V39ZM49 44H50V45H49V44ZM49 46H48V47H49V46ZM54 42H55V43H54V42ZM56 40H55V36H56V35H55H54V40H55V41H56V40ZM56 40H57V39H56V40ZM58 38H59V39H58V38ZM59 38V37H61V38H59ZM63 40H62V41H61V42H62V41H63V40ZM62 43H61V44H62V43ZM50 32H51V33H50V32ZM48 33H47V32H44V33H42V34H44V33H47V34H48V33ZM52 42V41H50V42H52ZM52 51H54V52H52V51ZM52 51H48V50H52V51ZM43 45H40V46H43V45ZM43 49H46V50H43V49ZM63 43H64V45H63V43ZM64 67V68H62H61V69H60V68V67H58V65H57V64H58V63H57H56V62H55V61H54V58H55V57H56V55H57V54H60V53H61V52H60V50H62V48H64V49H65V50H66H67V51H66V52H67V55H68V63H67V65H66V67H64ZM45 42H41V43H45V42ZM40 40H43V41H40V40Z" fill="#A47329"/>
<path fill-rule="evenodd" clip-rule="evenodd" d="M65 25H64H59V26H57V27H56V28H57V27H59V26H64V27H65H66V28H67H68V29H69V30H70V31H71V33H72V36H73V39H74V45H75V43H76V38H75V36H74H73V35H74V33H73H72V32H73V31H72H71V29H70V28H69V27H68H67V26H66H65V25ZM51 56H49V57H48V60H49V58H51V60H52V59H53V58H52H51V56ZM46 58H45V60H46V58ZM46 58V57H47V58H46ZM29 59H30V61H29V59ZM31 59H32V61H31V59ZM34 61H35V62H34V61ZM62 71H61V74H62V71ZM65 71H66V74H65V71ZM69 71H68V73H69V71Z" fill="#FFCD9C"/>
<path fill-rule="evenodd" clip-rule="evenodd" d="M59 24H65V25H59V24ZM59 26V25H57V26H56V27H55V29H56V27H57V26H59ZM59 27V26H60V27H59ZM59 27V28H58V27H59ZM67 26H65V25H67V26ZM69 27H67V26H69V27ZM70 28H69V27H70V28ZM71 29H70V28H71V29ZM71 29H72V31H71V29ZM70 30H69V29H68V28H67V29H68V30H69V32H70V34H71V36H72V34H71V32H70V30ZM75 43H76V45V48V49H75V48H74H73V47H74V45H75V43ZM74 52V51H73H72V50H73V49H75V51V52H74ZM72 55H74V52H72H71V54H69V56H70V57H69V59H70V57H71V58H72V55ZM72 55H71V54H72V55ZM31 58H32V59H31V58ZM32 59H33V60H32V59ZM47 58H46V59H47V58ZM49 58H50V59H49V58ZM53 60H52V61H51V60H49V62H51H52V61H53V60ZM44 72H45V71H44V72ZM46 72V73H45V74H44V72H43V73H42V72H41V71H42V70H44H45V69H49H50V70H51V71H50H49V72H46ZM59 70H60H61V73H60V71H59V70ZM61 70V69H62H64V68H65V69H66H67H68V70H69V71H68V72H67V70H66V71H65V73H64V71H62V70H61ZM64 26H63V27H64V26ZM65 27H66V28H65V27ZM74 31H73V32H72V33H73V32H74V31ZM75 34H74V35H73V36H74V35H75V34ZM74 39H73V42H74V39Z" fill="#C58352"/>
<path fill-rule="evenodd" clip-rule="evenodd" d="M30 39H33V40H32V41H33V40H34V41H37V42H38V43V44H39V43H42H45V42H54V43H46V44H42V45H39V46H48V47H51V48H47V47H40V48H41V49H43V50H47V51H52V52H56V53H51V52H43H42V53H45V54H44V55H42V56H41H39H38V55H37V54H38V52H39V48H38V47V46H37V45H36V44H35V43H34V42H33H29V41H31V40H30V39ZM29 43H28V45H29V43Z" fill="#F6F6A4"/>
<path fill-rule="evenodd" clip-rule="evenodd" d="M22 42H26V43H27V44H25V43H22V42ZM30 42H29V43H30V42ZM38 42H39V43H38V42ZM39 48H38V49H39V48ZM28 45H29V46H28V45ZM28 47H25V48H28V47ZM29 47H30V51H29V47ZM27 52V51H29V52H27ZM25 53V52H27V53H25ZM25 53V54H24V53H25ZM30 52H31V55H30V52ZM32 56H31V57H32V58H34V59H36H37V60H35V61H37V62H38V63H39V65H40V64H41V65H42V66H43V67H44H45V68H50V69H58V68H59V67H58V65H56V64H57V63H56H55V62H53V63H49V62H47V61H46H45V60H44V58H45V57H46V54H44V55H42V56H40H39H38V55H37V56H36V57H34H32V56ZM47 64V65H49V63H48V64H47ZM47 64V63H46V64H47ZM44 65H43V66H44V65ZM44 65H45V64H44V65ZM41 64H42V63H41V64ZM39 58H37V59H39V58ZM39 58H40V57H39V58Z" fill="#EECD73"/>
<path fill-rule="evenodd" clip-rule="evenodd" d="M43 31H42V33H43V31ZM45 33H44V34H45V33ZM33 34H32V35H33V36H34V35H33V34ZM31 40H30V41H31V40ZM37 34H36V35H37V34ZM38 38H39V39H38V38ZM41 37H40V38H41V37ZM42 34H43V35H42V34ZM46 34H47V35H46V34ZM50 35H49V36H48H46H44V37H43V40V41H40V40H37V41H38V42H45V41H48V40H46V39H48V37H49V36H50V35ZM51 34H52V35H51V34ZM56 33H54V34H55V35H56V36H55V40H53V41H52V42H56V43H55V44H50V45H43V46H51V47H52V48H51V49H46V48H43V49H46V50H52V51H55H56V52H57V53H56V54H50V53H45V54H46V56H48V55H51V56H52V57H53V58H55V57H56V55H57V54H60V53H61V52H60V51V50H62V48H64V47H63V46H64V45H63V44H61V41H62V40H61H60V39V38H59V39H58V40H57V42H56V41H55V40H56V39H57V38H56V36H57V35H58V34H56V33Z" fill="#C59439"/>
<path fill-rule="evenodd" clip-rule="evenodd" d="M42 31H41V33H40V34H39V35H38V33H37V35H36V36H35V35V34H33V33H29V34H33V35H34V36H35V37H34H33V38H31V39H33H34V41H37V42H38V41H37V39H38V38H40V37H43H44V36H46V34H47V33H45V34H43V35H42V31ZM47 35H48V34H50V33H54V34H51V35H49V36H47V35Z" fill="#DEB44A"/>
<path fill-rule="evenodd" clip-rule="evenodd" d="M30 47H31V48H30V47ZM33 48H32V50H33V48ZM35 48H34V49H35V48ZM33 51H32V53H33V51Z" fill="#737373"/>
</svg>
