<svg width="100" height="100" viewBox="0 0 100 100" fill="none" xmlns="http://www.w3.org/2000/svg">
<path fill-rule="evenodd" clip-rule="evenodd" d="M41 46H42V47H41V46ZM41 47V48H40V47H41ZM33 47H32V48H33V47ZM28 55H27V58H26V57H25V58H26V60H27V58H28V59H29V61H30V62H31V59H30V58H29V55H28ZM33 50H34V51H33V50ZM37 52H34V53H37V52ZM42 60H43V59H44V58H45V56H46V55H47H48V57H47V58V59H46V60H45V61H42V60ZM46 61V62H45V61H46ZM46 61H47H48V60H49V59H50V57H49H48V59H47V60H46V61ZM62 68H61V69H60V71H61H62V68ZM64 68H63V72H64V71H65V70H66V69H65V68H64Z" fill="white"/>
<path fill-rule="evenodd" clip-rule="evenodd" d="M44 44H42V45H44V44ZM30 45H31V46H30V45ZM31 47H30V48H31V49H32V51H33V49H32V48H31V47ZM27 54H29V55H27V54ZM29 55H30V56H29V55ZM25 57H24V58H25V57ZM25 57V56H27V57V58H26V57H25ZM25 59H26V61H25V59ZM27 62H26V61H27V62ZM29 62V63H27V62H29ZM29 61H30V62H29V61ZM29 61H28V60H29V61ZM41 61H40V63H41V61ZM42 60V61H41V60H42ZM43 59H42V60H43V59ZM44 58V59H43V58H44ZM44 58V57H45V58H44ZM46 54H47V55H46V54ZM49 56H48V57H49V56ZM47 58H48V59H47V58ZM60 69H59V70H60V69ZM62 69H63V70H62V69ZM62 67H60V68H62V67ZM63 67H65V68H63V67ZM65 68H66V69H65V68ZM35 54H36V55H35V54ZM42 51H40V52H42V51ZM42 51H43V50H42V51ZM43 48H42V49H43V48ZM43 48H44V47H43V48Z" fill="#525252"/>
<path fill-rule="evenodd" clip-rule="evenodd" d="M40 46H41V47H40V46ZM33 51H34V53H33V51ZM34 53H35V54H34V53ZM26 55H27V56H26V55ZM27 58H28V60H27V58ZM25 58H24V59H25V58ZM35 67H36V68H35V67ZM37 66H36V67H37V66ZM38 65V66H37V65H38ZM38 65V64H39V65H38ZM43 61H45V62H43V61ZM46 60H45V61H46V62H47V61H46V60ZM46 60H47V59H46V60ZM48 57H47V58H48V57ZM49 59H50V60H49V59ZM63 68H62V69H63V68Z" fill="#8B8B8B"/>
<path fill-rule="evenodd" clip-rule="evenodd" d="M32 35H30V36V40H31V43H30V45H31V43H32V40H31V36H32V37H33V36H32V35ZM34 38H33V39H34V38ZM26 49H28V50H26V49ZM25 51V50H26V51H25ZM24 53V51H25V53H24ZM24 53V54H23V53H24ZM30 50H29V51H30V50ZM34 40H35V41H34V40ZM36 37H35V39H36V37ZM36 37H37V36H36V37ZM43 40H42V41H43V40ZM44 38V40H43V38H44ZM45 37H44V38H45V37ZM45 37H47V36H45V37ZM50 35H49V36H50V35ZM48 39H49V40H48V39ZM47 42H46V45H47V42ZM48 43H49V44H48V43ZM53 49H51V50H53V49ZM44 54H45V55H44V54ZM39 54H38V55H39V56H40V55H39V54ZM37 55H36V56H37V55ZM35 57H36V59H35V57ZM36 59H37V60H36V59ZM50 62V63H48V62H50ZM55 61H54V62H55V61ZM55 58H56V60H55V58ZM56 60H57V61H56V60ZM60 63H62V64H60V63ZM67 56H66V55H65V56H66V57H67V56ZM67 59H66V60H67V59ZM73 55H74V56H73V55ZM75 54H74V55H75V54ZM75 54H76V53H75V54ZM72 52H70V53H72V52ZM67 51H69V52H67V51ZM67 50H66V51H67V50Z" fill="#5A4A00"/>
<path fill-rule="evenodd" clip-rule="evenodd" d="M38 39H39V40H38V39ZM42 41H43V42H42V41ZM46 42H45V43H46V42ZM38 48H39V49H38V48ZM36 56H35V57H36V56ZM44 53H45V54H44V53ZM46 52H45V53H46V52ZM48 51H46V52H48V51ZM49 50V51H48V50H49ZM49 50V49H51V50H49ZM48 54H47V55H48V56H49V57H50V58H51V57H50V56H49V55H48V54ZM64 49H63V50H64V49ZM63 52H64V53H63V52ZM65 54H64V53H65V54ZM65 54H66V55H65V54ZM70 51H69V52H70V51ZM72 52H76V53H72V52ZM56 56H55V58H56V56Z" fill="#947B00"/>
<path fill-rule="evenodd" clip-rule="evenodd" d="M54 24H55V29H54V25H53V24H54ZM52 26V25H53V26H52ZM51 27V26H52V27H51ZM51 27V28H50V29H49V26H50V27H51ZM56 29H55V30H54V31H58V32H60V31H63V30H60V31H58V30H56V29ZM57 28V29H56V28H57ZM59 27V28H57V27H59ZM59 27V26H62V27V28H61V27H59ZM57 35H60V36H57V35ZM57 35H56V34H57V35ZM57 36V37H56V36H57ZM64 36H69V37V38H68V37H64V36ZM64 37V38H62V37H64ZM68 38V39H67V38H68ZM69 41H66V42H69V41ZM68 46V45H70V46H68ZM70 46H71V47H70V46ZM54 47H53V48H54V47ZM37 60H36V61H37V62H38V63H37V64H36V65H35V66H34V67H33V68H34V67H35V66H36V65H37V64H42V63H39V62H38V61H37V60ZM38 68H39V69H38V68ZM45 66H44V67H45V66ZM40 66H41V68H40V66ZM40 65V66H38V65H40ZM47 62H46V64H47V62ZM58 66H59V69H58V66ZM56 49H61V50H56V49ZM64 48H61V49H64V50H67V49H64V48ZM66 47V48H64V47H66ZM66 46H65V45H66V46ZM63 44H65V45H63V44ZM63 44H59V43H63V44ZM66 46V47H67V46H66ZM60 38H61V41H60V40H55V41H52V40H54V39H60V38ZM52 41V42H51V41H52ZM60 41V42H59V41H60ZM62 32H63V33H62V32ZM65 42H64V43H65V42ZM51 32H52V33H51V32ZM45 26H44V27H43V28H42V30H43V28H44V27H45V26ZM47 26V30H46V26H45V25H47V26ZM39 30H38V31H37V32H38V31H39V30ZM36 34H35V35H34V37H35V35H36V34ZM39 33H41V34H39V33ZM41 33V32H43V33H41ZM47 35H49V36H47V35ZM49 35V34H51V35H49ZM62 34H63V36H62V34Z" fill="#4A3910"/>
<path fill-rule="evenodd" clip-rule="evenodd" d="M46 45H44V47V48H43V49H39V50H38V51H37V52V53H35V54H38V53H39V55H40V56V57H41V58H42V59H43V58H44V57V56V55V53H45V52H46V51H48V50H49V49H50V48H49V47H46V45ZM45 49H46V47H45V49ZM44 50H45V49H44V50ZM42 51H44V50H43H42V51ZM40 52V53H39V52H40ZM40 52H42V51H40V52ZM54 54H55V56V58V59V60H56V61H54V62H48V61H50V60H51V59H52V58H53V56H54V54ZM30 56H29V58H30V56ZM26 58H25V59H26V58ZM28 59H29V60H28V59ZM29 62H27V61H26V60H28V61H29V62ZM29 62H30V63H29V62ZM34 67H35V68H34V67ZM36 67V68H35V69H38V68H40V67V66H37V65H38V64H37V65H36V66H35V67H36ZM36 67V66H37V67H36ZM41 61V62H43V61H41ZM61 68H60V69H61V68ZM61 71H62V72H61V71ZM41 47H42V48H41V47Z" fill="#DED5B4"/>
<path fill-rule="evenodd" clip-rule="evenodd" d="M34 39H32V41H34V39ZM42 40H41V41H42V40ZM44 42H45V43H46V45H44V43V42ZM30 48H31V49H30V48ZM30 52V50H31V49H32V51H31V52H30ZM30 52V54H31V56H30V55H29V52H30ZM38 55H39V56H38V55ZM40 57H39V58H40V59H39V60H37V61H38V62H39V63H40V62V61H41V60H42V59H41V58H40V57ZM42 63V64H39V65H40V66H41V67V68H42V67H44V66H47V65V64H46V63H42ZM49 55H50V56H49V55ZM54 51V54H53V56H52V58H51V57H50V56H51V53H52H53V51H54ZM55 51H54V50H53V49H51V48H53H54V49H55V51ZM66 56H67V57H69V56H72V55H74V54H73V53H70V52H67V51H65V50H63V49H61V50H59H58H57H56V51H55V56H56V60H57V62H59V63H62V64H61H60V66H59V68H60V67H61V66H65V68H66V69H67V68V66H66V64H65V63H64V62H65V60H66V56ZM65 54H66V55V56H65V54ZM64 53H65V54H64V53ZM64 53H63V54V57H62V58H58V57H57V56H56V54H57V53H58V52H59V51H62V52H64V53ZM41 44H42V45H41V44ZM39 41H40V42H39V41Z" fill="#D5AC20"/>
<path fill-rule="evenodd" clip-rule="evenodd" d="M54 25H53V26H52V28H51V30H52V29H53V27H54V25ZM45 26H46V29H45V30H44V31H43V28H44V27H45V26ZM39 31H38V32H37V33H36V35H35V37H34V39H35V37H36V36H37V35H38V34H39V31ZM43 33H41V34H40V40H39V41H40H41V40H42V37H43V33ZM48 28H47V31H48V29H49V27H48V28ZM55 31H57V32H56V33H55V34H54V35H53V36H51V38H50V35H51V34H52V33H53V32H55V31Z" fill="#AC8331"/>
<path fill-rule="evenodd" clip-rule="evenodd" d="M39 35H38V36H37V37H36V39H35V41H32V43H31V45H32V46H33V50H34V51V52H37V51H38V50H39V49H38V48H39V46H40V45H41V44H42H44V42H47V41H48V40V39H49V38V37V36H47V37H45V38H44V40H43V42H42V41H41H40V42H39H38V41V39H39V37V35ZM32 36H31V40H32V39H33V37H32V36ZM31 49H29V50H27H26V51H25V53H24V57H25V56H26V55H27V54H29V50H31V49ZM36 56H37V55H38V56H39V58H40V59H39V60H38H37V59H36V56ZM45 53H46V52H48V51H49V50H53V52V53H51V54V55V56H50V55H48V54H46V55H45V53ZM57 54H56V56H57V57H58V58H59H60H61H62V57H63V52H62V51H61H60H59V52H58V53H57V54ZM73 53H75V54H73V53ZM65 67V66H61V67H62V68H63V67H65Z" fill="#F6D520"/>
<path fill-rule="evenodd" clip-rule="evenodd" d="M48 26H49V27H48V26ZM48 27V28H47V27H48ZM45 29H46V36H45V31H44V30H45V29ZM42 30H43V32H42H41V31H42V30ZM43 32H44V38H43V40H42V37H43V32ZM36 32H37V33H36V32ZM36 33V34H35V33H36ZM26 40H27H28V41H30V42H31V43H30V45H28V44H27V42H26V40ZM52 27H51V28H50V31H49V29H48V31H47V33H48V34H47V35H49V34H50V33H51V34H52V33H53V32H52V31H54V32H55V31H54V29V27H53V29H52V30H51V28H52V27ZM52 32V33H51V32H52ZM48 33V31H49V33H48ZM60 27H61V30H60V31H59H58V30H57H56V29H57V28H58H59V27H60ZM57 34H58V32H60V31H63V32H62V34H61V35H57V34ZM56 37V34H57V32H56V33H55V34H54V35H53V36H51V38H50V39H49V41H48V42H47V44H48V46H55V47H54V48H55V49H61V48H63H64V49H69V48H70H71V47H70V46H68V45H66V44H68V43H69V42H65V41H66V40H67V39V38H68V37H67H64V38H63V39H62V38H61V37H62V36H57V37H56ZM55 38V37H56V38H55ZM52 41V40H53V39H54V38H55V39H60V38H61V39H62V40H61V41H60V40H59H55V41H52ZM50 42H52V41H51H50V42ZM49 43H48V44H49V43ZM49 43H50V42H49V43ZM63 43H60V41H59V42V43H58V44H57V45H55V46H57V45H58V44H63V45H64H65V46H66V47H65H64V48H66V47H67V46H66V45H65V44H63V43ZM63 43H65V42H63V43Z" fill="#8B6218"/>
<path fill-rule="evenodd" clip-rule="evenodd" d="M62 28H61V30H62V28ZM41 29H42V31H41V29ZM41 31V33H39V31V30H40V31H41ZM40 34H39H38V35H37V36H38V35H39V40H38V42H39V40H40V34ZM33 37H34V38H33V37ZM25 39H26H28V40H26V42H25V39ZM27 44H26V42H27V44ZM28 45H27V44H28V45ZM30 46H28V45H30V46ZM32 48H31V47H30V46H31V45H32V46H33V47H32V48ZM32 48H33V49H32V48ZM30 41H28V40H30V41ZM30 41H31V42H30V41ZM29 48H30V49H29V48ZM29 49V50H28V49H29ZM30 51H29V52H30V54H31V56H30V59H31V62H30V63H29V64H30H31V63H32V59H31V56H32V54H31V52H32V51H31V52H30V51ZM24 54H23V57H24V54ZM35 39H34V40H35V39ZM45 31H43V32H44V37H45V32V31ZM47 30H46V36H47V34H48V33H49V31H50V29H49V31H48V33H47V30ZM51 33H50V34H51V33ZM54 29H55V30H54V29ZM58 31H57V34H58V31ZM52 31H54V32H52V31ZM63 30H64V34H63H62V33H63V30ZM62 36H61H60V35H61V34H62V36ZM62 37V36H63V37H62ZM62 38H61V37H62V38ZM62 39V38H63V39H62ZM62 39V40H61V39H62ZM56 35H57V36H56V35ZM56 37H55V38H54V39H53V40H54V39H55V38H56V37ZM50 41H51V42H50V41ZM50 42V43H49V42H50ZM48 40H49V41H48V40ZM48 41V42H47V41H48ZM47 44H48V45V46H49H53H55V47H53V48H51V49H50V48H49V47H48H46V45H47V44ZM45 49V47H46V49H45ZM44 50V49H45V50H44ZM44 50V51H43V50H44ZM57 45V46H55V45H57ZM58 44V45H57V44H58ZM59 43V44H58V43H59ZM59 43V42H60V43H59ZM40 52H39V53H38V54H36V55H38V54H39V53H40V52ZM43 48V47H44V45H42V47V48H40V46H41V45H40V46H39V49H40H42V48H43ZM39 56H40V57H39V56ZM41 58H40V57H41V58ZM41 58H42V59H41V58ZM48 61H47V62H48V61ZM50 60H48V61H50V60ZM52 58H50V59V60H51V59H52V58ZM53 56H52V58H53V56ZM54 54H53V56H54V54ZM54 51V54H55V51H56V49H55V48H54V49H55V51H54ZM54 51V50H53V51H54ZM64 42H63V43H64V42ZM65 41H66V42H65V41ZM67 40H66V41H67V40ZM67 40H68V39H67V40ZM70 42H69V43H68V44H66V45H68V44H69V43H70V42ZM72 47H71V48H69V49H67V50H69V49H71V48H72V47ZM65 50H66V51H65V50ZM73 55H72V56H69V57H66V58V59H67V58H69V57H72V56H73V55ZM65 62H64V63H65V64H66V66H67V69H66V70H65V71H64V72H63V70H62V72H61V71H60V70H59V71H60V72H61V73H64V72H65V71H66V70H67V69H68V66H67V64H66V63H65V62ZM65 62H66V60H65V62ZM59 68H60V69H59V68ZM35 69V68H33V69H35ZM35 69V70H38V69H35ZM44 67V68H42V67H44ZM42 68V69H39V68H42ZM47 67V66H48V64H47V66H45V67H47ZM57 62V61H55V62H57ZM59 63H60V66H59V63ZM59 63V62H57V63H59ZM46 55H45H44V57H45V56H46V55ZM46 62H41V63H46V62ZM54 63V62H50V63H54ZM50 36H49V39H50V36Z" fill="#101010"/>
</svg>
