<svg width="100" height="100" viewBox="0 0 100 100" fill="none" xmlns="http://www.w3.org/2000/svg">
<path fill-rule="evenodd" clip-rule="evenodd" d="M32 50H31V51H30V54H31V57H32V56H33V54H34V52H33V50H32ZM32 53V52H33V53H32ZM32 53H31V54H32V53ZM40 63H41V65H40V66H39H38V65H39V64H40V63ZM65 72H64V73H65V72ZM67 73H68V75H67V73ZM69 75V76H68V75H69ZM69 75V73H70V75H69ZM73 72H72V73H73V72Z" fill="#DEDEDE"/>
<path fill-rule="evenodd" clip-rule="evenodd" d="M33 52H32V53H31V54H30V56H29V59H28V62H29V59H30V56H31V54H32V53H33V52ZM34 79H33V81H34V79ZM35 76V79H34V76H35ZM36 75H35V76H36V75ZM37 74V75H36V74H37ZM38 73H37V74H38V73ZM40 72V73H38V72H40ZM43 71V72H40V71H43ZM45 70V71H43V70H45ZM46 69V70H45V69H46ZM47 68H46V69H47V68ZM48 66H47V68H48V66ZM49 65H48V66H49V65ZM49 65V64H51V65H49Z" fill="#BDBDBD"/>
<path fill-rule="evenodd" clip-rule="evenodd" d="M33 56H32V57H31V59H30V60H29V62H28V68H29V62H30V60H31V59H32V57H33V56ZM34 81H33V82H34V81ZM34 79V81H35V79H36V77H37V76H39V75H42V74H44V73H47V72H50V71V69H51V67H52V66H51V67H50V69H49V71H47V72H44V73H42V74H39V75H37V76H36V77H35V79H34ZM34 75H33V79H34V75ZM35 73H34V75H35V73ZM36 72V73H35V72H36ZM37 71H36V72H37V71ZM38 70V71H37V70H38ZM40 69V70H38V69H40ZM43 68V69H40V68H43ZM44 67V68H43V67H44ZM45 66H44V67H45V66ZM46 65V66H45V65H46ZM47 64H46V65H47V64ZM49 63H47V64H49V63ZM49 63H51V62H49V63Z" fill="#737373"/>
<path fill-rule="evenodd" clip-rule="evenodd" d="M43 50H42V51H41V53H42V52H43V50ZM30 53H29V56H28V58H27V66H28V59H29V60H30V59H31V56H30V53ZM30 56V59H29V56H30ZM35 75H34V76H35V77H36V76H37V75H38H39V74H40H42V73H44V72H47V71H49V69H50V67H51V66H52V64H51V63H49V64H47V65H46V66H45V67H44V68H43V69H40V70H38V71H37V72H36V73H35V75ZM36 75H35V76H36V75ZM37 74V75H36V74H37ZM38 73V74H37V73H38ZM40 72V73H39H38V72H40ZM43 71V72H42H40V71H43ZM45 70V71H43V70H45ZM46 69H45V70H46V69ZM47 68H46V69H47V68ZM48 66H47V68H48V67V66ZM49 65V66H48V65H49ZM49 65V64H51V65H49ZM65 73H64V75H65V74H66V72H65V73ZM69 72H68V75H69V72ZM71 72H72V73H73V75H72V74H71V72Z" fill="white"/>
<path fill-rule="evenodd" clip-rule="evenodd" d="M49 22H48V23H47V24H46V26H45V28H46V26H47V24H48V23H49V22ZM41 40H42V41V42H41V43H40V44H38V43H39V42H40V41H41V40ZM38 44V45H39V47H38V48H37V49H35V48H34V46H35V45V41H36V45H37V44H38ZM30 50H29V51H28V53H27V56H26V58H25V64H26V66H27V68H28V66H27V64H26V58H27V56H28V53H29V51H30V50ZM44 64H45V65V66H44V67H42V68H39V67H41V66H43V65H44V64ZM37 69V68H39V69H37ZM37 69V70H36V71H34V70H35V69H37ZM34 72H33V73H34V72ZM33 74H32V77H33V74ZM50 52H49V54H50V55H52V54H53V52H52V51H50V52ZM58 32H59V31H60V30H62V29H64V30H63V31H61V32H60V33V34H59V33H58V32ZM64 29V28H66V29H64ZM67 27H68V28H67V27ZM63 53H62V55H61V58H63V57H64V56H65V54H66V52H67V51H68V49H67V50H66V51H65V52H64V56H63V55V53ZM65 68H66V67H68V68H69V69H70V70H69V71H68H66V70H65V68Z" fill="#BDE673"/>
<path fill-rule="evenodd" clip-rule="evenodd" d="M48 24H47V26H46V28H45V31H44V34H43V43H44V34H45V31H46V28H47V26H48V24ZM52 30H51V31H52V30ZM53 30H52V29H53V30ZM53 30V36H54V30H53ZM53 45H54V46H53V45ZM54 43H53V41H54V43ZM55 43V45H54V43H55ZM55 41V43H56V41H57V40H58V39H59V38H58V39H57V40H56V41H55ZM55 39V41H54V39H55ZM56 37V39H55V37H56ZM57 36V37H56V36H57ZM58 35V36H57V35H58ZM58 35V34H59V35H58ZM61 32H60V33H61V32ZM63 31V32H61V31H63ZM65 30V31H63V30H65ZM67 29H65V30H67V32H66V34H65V35H64V36H65V35H66V34H67V32H68V30H69V29H70V28H67V29ZM67 29H68V30H67V29Z" fill="#9C8B31"/>
<path fill-rule="evenodd" clip-rule="evenodd" d="M49 24H48V26H47V28H46V31H45V33V34H44V35H45V34H46V35H47V34H48V33H49V32H50V31V28H49V26V24ZM47 34H46V33H47V34ZM61 34H60V35H61V36H62V35H63V36H64V35H65V34H66V32H67V30H68V29H67V30H65V31H63V32H61V34ZM62 34V35H61V34H62ZM63 34H64V35H63V34Z" fill="#FFF6D5"/>
<path fill-rule="evenodd" clip-rule="evenodd" d="M52 30H53V37H52V39H51V41H50V43H49V44H48V42H49V39H50V35H51V31H52V30ZM47 34H48V33H49V32H50V35H49V39H48V42H47V44H46V45H45V44H44V35H45V34H46V35H47V34ZM47 34H46V33H47V34ZM52 45H53V47H52V45ZM54 43H53V45H54V47H56V46H59V45H61V44H62V43H63V42H64V40H65V39H66V37H67V36H65V37H62V36H63V35H64V34H63V35H62V34H61V33H60V34H59V35H58V36H57V37H56V39H55V41H54V43ZM55 43V41H56V43H55ZM57 40V41H56V40H57ZM58 39V40H57V39H58ZM60 38H62V37H61H60V38ZM60 38H58V39H60V38ZM55 43V45H54V43H55ZM61 35V34H60V35H61ZM61 35V36H62V35H61ZM62 52V53H61V55H60V57H59V56H58V54H59V53H60V52H62ZM64 61H65V60H66V62H65H64V61Z" fill="#E6D5AC"/>
<path fill-rule="evenodd" clip-rule="evenodd" d="M47 44H49V45H47V44ZM46 47V48H44V49H43V50H44V49H46V48H48V49H47V50H48V51H49V50H50V51H51V50H50V49H52V48H50V47H49V48H48V47H46ZM40 48H41V49H40V48ZM40 49V52H39V49H40ZM35 49H34V52H35V49ZM39 53H38V54H39V53ZM36 57H37V58H36V57ZM42 55H41V57H42V56H43V55H44V54H45V53H44H43V54H42V55ZM48 52H49V53H48V52ZM49 55H48V56H49V55ZM50 57H51V58H50V57ZM54 57H53V58H54V57ZM55 55H56V56H55V55ZM56 52H55V53H56V52ZM53 50H54V51H53V50ZM58 47H56V49H57V53V54H58V53H59V49H60V51H62V52H63V51V49H60V48H59V49H58V47ZM65 49H64V51H65V50H66V49H65ZM64 54H63V56H64V54ZM47 53H46V55H47V53ZM65 71H66V72H65V71ZM66 72H68V73H66V72ZM69 72H71V73H69V72ZM71 72V71H72V72H71ZM41 62H42V61H43V60H44V58H45V56H47V57H48H49V58H48V61H47H46V62H45V63H44V64H43V65H42V63H41V62ZM53 59V61H51V59H53Z" fill="#5A9C4A"/>
<path fill-rule="evenodd" clip-rule="evenodd" d="M68 27H69V28H68V27ZM67 28H66V29H67V28ZM64 29H65V30H64V29ZM57 33H58H59V34H58V35H57V36H56V37H55V39H54V41H53V43H52V45H51V47H50V43H51V41H52V39H53V37H54V36H55V35H56V34H57V33ZM52 48H51V47H52V48ZM55 51V50H54V49H52V48H54H55V49H56V51H55ZM55 51V53H56V55H55V57H53V58H51V57H50H49V55H48V53H49V54H50V55H52V54H53V52H52V51H51V50H53V51H55ZM61 46H59V47V48H60V49H62V47H61V46ZM33 48H31V49H29V50H30V51H29V53H28V56H27V58H26V64H27V58H28V56H29V53H30V51H31V50H33V48ZM34 48H35V49H34V48ZM37 49H35V54H34V57H35V58H36V57H37V58H39V57H40V56H41V54H42V53H43H46V52H47V50H46V49H47V48H46V47H49V46H46H45V45H44V44H43V43H42V42H41V43H40V44H39H38V45H39V46V47H38V48H37V49ZM38 53V54H39V53H42V52H43V50H44V49H46V48H44V49H42V50H41V51H40V50V49H41V48H40V49H39V53H38ZM37 57V56H38V57H37ZM33 77H32V79H33V77ZM33 73H34V75H33V73ZM36 71H35H34V73H35V72H36V71ZM37 70H36V71H37V70ZM37 70H38V69H37V70ZM40 68H39V69H40V68ZM42 67H43V68H42V67ZM46 63H45V65H46V64H47V63H49V62H51V63H52V62H51V61H48V62H47H46V63ZM65 70H66V71H65V70ZM66 72V71H69V70H70V69H69V68H68V67H66V68H65V65H64V63H66V62H68V64H69V66H70V68H71V70H72V71H71V72H69H66ZM66 52H67V54H66V52ZM65 54H66V58H65V60H64V61H61V60H59V59H58V57H59V58H60V57H61V58H63V57H64V56H65V54ZM50 51H49V52H50V51ZM63 47H64V48H65V49H64H63V47ZM45 28H44V30H43V33H42V39H43V34H44V31H45V28ZM36 42H37V44H36V42Z" fill="#8BCD73"/>
<path fill-rule="evenodd" clip-rule="evenodd" d="M49 21H48V22H47V23H46V24H45V26H44V28H43V30H42V33H41V39H42V33H43V30H44V28H45V26H46V24H47V23H48V24H49V23H48V22H49V21ZM35 40H36V41H35V40ZM34 46V41H35V46H34ZM34 52V46H33V47H31V48H29V49H28V51H27V53H26V56H25V58H24V64H25V66H26V68H27V69H28V68H27V66H26V64H25V58H26V56H27V53H28V51H29V49H31V48H33V52H34ZM34 54V52H35V54H34ZM34 54V57H33V54H34ZM37 42H36V41H37V42ZM39 42H38H37V44H36V45H37V44H38V43H39V42ZM39 42V41H40V42H39ZM49 44H50V45H49V44ZM51 47H50V48H51V47ZM52 45V47H51V45H52ZM52 45H53V43H52V45ZM43 49H42V50H41V51H40V52H39V53H40V52H41V51H42V50H43V49ZM43 53H42V54H41V55H42V54H43V53ZM40 56H41V57H40V56ZM43 60H42V61H41V62H40V63H39V64H38V65H37V66H38V67H39V66H38V65H39V64H40V63H41V65H40V66H41V65H42V63H41V62H42V61H43V60ZM44 58H43V60H44V58ZM45 56V58H44V56H45ZM45 56H46V55H45V56ZM35 69H34V70H33V72H32V74H31V79H32V82H33V79H32V74H33V72H34V70H35V69ZM38 56H37V57H38V56ZM48 56H47V57H48V56ZM50 59H51V60H50V59ZM52 63H51V64H52V63ZM56 55H57V56H56V55ZM59 56H58V57H59V58H60V57H59V56ZM66 62H65V63H66V62ZM66 62H67V61H66V62ZM59 53H58V54H59V53ZM59 49H58V47H59V49ZM59 49V53H60V49H59ZM54 50H55V51H54V50ZM54 49V50H50V49H54ZM62 46H61V47H62V49H63V51H64V52H65V51H66V50H67V49H69V48H67V49H66V50H65V51H64V49H63V47H62V46ZM48 58H49V60H48V58ZM64 62H63V65H64V72H63V75H64V72H65V65H64V62ZM66 73H67V75H66V73ZM67 75H68V76H67V75ZM70 73H71V74H70V73ZM71 74H72V75H71V74ZM57 33H56V34H57V33ZM58 32V33H57V32H58ZM58 32H59V31H60V30H62V29H64V28H67V27H69V28H70V27H69V26H67V27H64V28H62V29H60V30H59V31H58V32Z" fill="#415A20"/>
<path fill-rule="evenodd" clip-rule="evenodd" d="M50 22H49V28H50V35H49V39H48V42H47V44H46V45H45V44H44V43H43V39H42H41V40H40V41H41V40H42V43H43V44H44V45H45V46H49V47H48V48H47V49H46V50H47V52H46V53H45V54H44V55H43V56H42V57H39V58H35V57H34V58H35V59H39V58H42V57H43V56H44V55H45H46V56H48V57H49V58H50V59H53V61H51V60H48V61H46V62H45V63H44V64H43V65H41V66H39V67H37V68H35V69H37V68H39V67H41V66H43V65H44V64H45V63H46V62H48V61H51V62H52V66H53V62V61H54V58H55V57H57V59H58V60H59V61H61V62H64V63H65V62H64V61H65V60H66V61H67V62H68V64H69V66H70V68H71V70H72V72H73V75H72V76H74V75V72H73V70H72V68H71V66H70V64H69V62H68V61H67V60H66V58H67V54H68V51H69V49H68V51H67V54H66V58H65V60H64V61H61V60H59V59H58V54H57V49H56V48V47H59V46H61H62V47H64V48H65V49H66V48H65V47H64V46H62V44H63V43H64V42H65V40H66V39H67V37H68V36V35H65V36H62V37H60V38H59V39H60V38H62V37H65V36H67V37H66V39H65V40H64V42H63V43H62V44H61V45H59V46H56V47H54V46H53V47H52V48H55V49H56V51H55V52H56V55H57V56H55V57H54V58H53H50V57H49V56H48V55V52H49V51H50V50H49V51H48V50H47V49H48V48H49V47H50V45H49H47V44H48V42H49V39H50V35H51V28H50V22ZM46 55V53H47V55H46ZM41 52H40V53H41V52ZM50 43H49V44H50V43ZM51 41V43H50V41H51ZM52 39H51V41H52V39ZM53 37V39H52V37H53ZM54 36H53V37H54V36ZM55 35V36H54V35H55ZM55 35V34H56V35H55ZM63 51H64V54H63V53H62V52H63V51ZM62 52H60V51H62V52ZM61 55V53H62V55H61ZM61 55V57H60V55H61ZM71 74H70V75H69V76H68V77H69V76H70V75H71V74ZM65 74H66V75H65V74ZM65 75V76H63V75H65Z" fill="#101010"/>
</svg>
