<svg width="100" height="100" viewBox="0 0 100 100" fill="none" xmlns="http://www.w3.org/2000/svg">
<path fill-rule="evenodd" clip-rule="evenodd" d="M38 39H39V40H38V39ZM34 45H35V47H34V45ZM48 40H47V41H48V40ZM47 46H48V47V49H46V47H47V46Z" fill="white"/>
<path fill-rule="evenodd" clip-rule="evenodd" d="M38 47H41V48H38V47ZM40 49H41V50H40V49ZM44 48H43V49H44V48ZM43 51H44V52H43V51ZM43 52V53H42V52H43Z" fill="#D5735A"/>
<path fill-rule="evenodd" clip-rule="evenodd" d="M44 47H41V48H40V49H41V48H44V47ZM44 49H45V52H44V49ZM43 53V52H44V53H43ZM38 53H43V54H38V53ZM37 52H38V53H37V52ZM37 49H36V52H37V49ZM37 49V48H38V49H37Z" fill="#8B3120"/>
<path fill-rule="evenodd" clip-rule="evenodd" d="M41 48H43V49H44V51H43V52H42V53H38V52H37V49H38V48H40V50H41V48Z" fill="#FFACAC"/>
<path fill-rule="evenodd" clip-rule="evenodd" d="M35 42H38V43H35V42ZM35 43V44H34V43H35ZM35 49H36V50H35V49ZM38 47H37V48H38V47ZM39 47V46H41V47H39ZM41 44H40V45H41V44ZM51 44H50V45H51V46H52V48H53V46H52V45H51V44ZM51 49H52V50H51V49ZM49 51H48V52H49V51Z" fill="#6A5A10"/>
<path fill-rule="evenodd" clip-rule="evenodd" d="M35 43H36V44H35V43ZM38 43H39V44H38V43ZM42 46H41V47H42V46ZM41 44H43V45H41V44ZM50 43H45V44H50V43ZM45 51H48V52H45V51ZM51 50H50V51H51V50Z" fill="#B49441"/>
<path fill-rule="evenodd" clip-rule="evenodd" d="M39 44H40V45H39V44ZM39 46H37V47H39V46ZM37 48H36V49H37V48ZM44 44H43V45H44V44ZM44 47H45V48H44V47ZM50 44H49V45H50V44ZM50 46H52V49H51V50H50V51H48V50H49V49V47H50V46Z" fill="#DEC573"/>
<path fill-rule="evenodd" clip-rule="evenodd" d="M36 43H38V44H39V45H42H44V44H49V45H47V46H46V47H42V46H39H38H36V45H35V44H36V43ZM50 46H51V45H49V46V47H50V46Z" fill="#F6E6BD"/>
<path fill-rule="evenodd" clip-rule="evenodd" d="M47 31H46V32H47V31ZM39 38H38V39H39V38ZM48 41H47V42H48V41ZM47 40H48V41H49V42H50V41V40H49V39H47V40ZM36 47H37V48H36V47ZM34 48H35V49H34V48ZM34 48H33V46H34V48ZM45 48H44V49H45V51H46V49H45V48ZM51 50H52V51H51V50ZM51 51V52H49V51H51ZM52 50H53V48H52V50ZM39 41V40H37V41H39ZM39 43H42V44H39V43ZM47 33H49V34H47V33ZM49 47H48V50H49V47ZM56 39H55V41H56V39ZM56 42H57V47H56V42ZM58 48H57V50H58V48ZM58 51H59V52H58V51ZM60 53H59V54H60V55H61V54H60V53ZM62 48H61V47H60V48H61V49H62V50H64V49H62V48ZM65 50H66V51H65V50ZM68 51H67V52H68V51ZM72 46H71V47H72V46ZM75 54H76V55H75V54ZM76 55H79V56H76V55ZM62 55H65V56H62V55ZM83 50H82V53H83V50ZM80 54H81V55H80V54ZM71 53H74V54H71V53ZM70 56V54H71V56H70ZM70 56V62H69V56H70ZM69 63H68V64H67V65H68V64H69V63ZM71 71H70V72H71V71ZM71 71V67H72V71H71ZM68 72H69V73H68V72ZM62 72H61V73H62V72ZM59 71H60V72H59V71ZM58 71V70H59V71H58ZM55 72V71H58V72H55ZM46 72H55V73H46V72ZM43 71H46V72H43V71ZM41 70H43V71H41V70ZM40 69H41V70H40V69ZM38 69V68H40V69H38ZM37 70V69H38V70H37ZM37 70V71H35V70H37ZM55 68H56V69H55V68ZM67 73V74H63V73H67ZM34 71H31V72H34V71Z" fill="#101010"/>
<path fill-rule="evenodd" clip-rule="evenodd" d="M45 28H44V29H43V30H44V29H45V31H46V29H45V28ZM46 32H47V33H46V32ZM50 33H49V34H50V35H52V36H53V37H54V39H55V37H54V36H53V35H52V34H50V33ZM50 38H51V39H50V38ZM50 38H49V37H50V38ZM38 39H37V37H38V36H39V35H40V34H39V35H38V36H37V37H36V39H37V40H38V39ZM35 41H36V42H35V41ZM34 44H33V46H34V44ZM35 45H36V46H35V45ZM36 46H37V47H36V46ZM49 46H48V47H49V46ZM45 48H46V49H45V48ZM48 51V50H46V51H48ZM46 52V53H44V52H46ZM39 55H38V56H37V58H36V64H37V58H38V56H39V55ZM37 65H38V66H37V65ZM34 70H35V71H34V70ZM39 67H38V68H39V67ZM30 70H31V71H30V70ZM29 68H30V70H29V68ZM29 68H28V66H29V68ZM35 48H36V49H35V48ZM38 41H39V42H38V41ZM40 39H39V40H40V39ZM40 42H41V43H40V42ZM48 42H47V40H46V42H47V43H48H49V41H48V42ZM42 33H41V34H42V33ZM42 33V31H43V33H42ZM56 41H55V42H56V41ZM56 47H57V48H56V47ZM58 50H57V51H58V50ZM58 52H59V53H58V52ZM62 55H61V56H62V55ZM65 54H66V55H65V54ZM67 53H66V54H67V53ZM67 53H68V52H67V53ZM67 50H66V51H67V50ZM64 49H65V50H64V49ZM61 46H60V47H61V46ZM62 44H63V45H62V44ZM64 42H63V43H64V42ZM69 42H70V43H69V42ZM70 43H71V44H70V43ZM71 45H72V46H71V45ZM72 46H73V47H72V46ZM71 47H70V48H71V47ZM80 46H79V47H80V48H81V49H82V50H83V49H82V48H81V47H80V46ZM82 51H81V52H82V51ZM82 53H83V54H82V53ZM82 54V55H81V54H82ZM74 53H75V54H74V53ZM78 45H74V46H78V45ZM79 53H80V55H79V53ZM69 62H68V63H69V62ZM63 63V64H61V63H63ZM67 65H63V64H67V65ZM70 66V65H67V66H70ZM70 66V67H71V66H70ZM67 67H68V68H67V67ZM70 69H69V72H70V69ZM67 70H68V73H67V70ZM55 67H54V68H55V67ZM58 69V70H56V69H58ZM61 71H60V72H61V71ZM62 72H63V73H62V72ZM68 41H64V42H68V41Z" fill="#415283"/>
<path fill-rule="evenodd" clip-rule="evenodd" d="M43 30H44V31H43V30ZM43 33H42V34H43V33ZM40 34H41V35H40V34ZM38 37H37V38H38V37ZM38 37H40V36H38V37ZM39 38H40V39H39V38ZM36 39H37V40H36V39ZM36 40V41H35V40H36ZM38 41H37V42H38V43H39V42H38V41ZM42 42H41V43H42V42ZM44 43H45V44H44V43ZM46 46H47V47H46V46ZM46 47V48H45V47H46ZM47 46H49V45H47V46ZM47 49H48V50H47V49ZM40 54H39V55H40V54ZM36 64H37V65H36V64ZM37 66H38V67H37V66ZM38 68H37V69H36V70H37V69H38V68ZM30 67H29V68H30V67ZM32 66V67H30V66H32ZM32 66H34V65H32V66ZM28 65H29V66H28V65ZM53 50H52V51H53V50ZM54 49V50H53V49H54ZM54 49V48H55V49H54ZM34 44H35V45H34V44ZM40 40H39V41H40V40ZM48 34H47V35H48V34ZM46 38H47V39H46V38ZM61 45H60V46H61V45ZM62 44V45H61V44H62ZM63 44V43H62V44H63ZM65 45V44H63V45H65ZM65 45H67V46H65V45ZM62 48H63V49H62V48ZM61 55H60V56H61V57H62V62H61V63H60V62H59V63H60V64H61V63H62H63V64H62V65H63V64H68V63V62H69V57V56H70V54H69V55H68V56H67V54H68V53H67V54H66V55H65V56H62H61V55ZM67 56H66V57H67V56ZM66 49H65V50H66V49ZM68 44H69V45H68V44ZM66 43V44H68V43H69V42H68V43H66ZM66 43V42H64V43H66ZM70 44H71V45H70V44ZM70 48H69V49H70V48ZM73 46H74V47H73V46ZM79 46H78V47H79V46ZM81 49H82V50H81V49ZM80 50H81V51H80V50ZM78 50V49H80V50H78ZM78 51H76V50H78V51ZM79 52H78V51H79V52ZM79 52H80V53H79V52ZM81 53H82V54H81V53ZM66 65H67V66H66V65ZM69 67H68V68H69V69H70V68H69V67ZM67 69H66V68H64V69H66V70H67V69ZM66 72H67V73H66V72ZM57 68H56V67H55V68H56V69H57V68ZM54 66H53V67H54V66ZM31 63H34V64H31V63ZM34 63V62H36V63H34ZM29 64H31V65H29V64ZM49 52H46V53H49V52ZM49 37H47V38H49V37ZM74 53V52H72V53H74ZM55 70H58V71H55V70ZM55 71V72H53V71H55Z" fill="#949CB4"/>
<path fill-rule="evenodd" clip-rule="evenodd" d="M44 29H45V31V35H46V36H47V35H50H52V38H53V39H54V43H53V45H51V44H50V39H51V38H50V37H47V38H46V43H45H44V44H43V43H42V42H41H40V43H39V41H40V38H41V37H40V36H39V35H40H41V34H43V31H44V29ZM38 38V37H40V38H38ZM38 38V39H37V38H38ZM47 38H50V39H47V38ZM65 43H63V44H65V45H62V46H61V47H62H63V48H65H66V49H67V50H68V52H70V51H76V50H77H78V49H77V48H78H79V47H78V46H74V47H71V48H70V49H68V47H67V46H68V45H67V44H65V43ZM67 45H65V46H67V45ZM34 64H36V67H34V68H32V69H30V67H32V66H34V65H32V66H29V65H31V64H34ZM57 65H56V67H57V68H58V69H60V70H61H62V71H64H66H67V70H66V69H68V70H69V69H68V68H67V67H69V68H71V67H70V66H67H66V65H64H61V64H57V65ZM66 69H64V68H66V69ZM36 40H37V42H36V40ZM37 58V65H38V67H40V68H41V69H44V68H46V67H47V66H48V65H49V64H50V60H48V59H46V58H44V57H43V56H42V55H39V56H38V58H37Z" fill="#E6E6F6"/>
<path fill-rule="evenodd" clip-rule="evenodd" d="M45 31H46V33H47V36H46V35H45V31ZM48 34H50V35H48V34ZM53 36H52V38H53V39H54V42V43H53V45H52V46H53V48V49H54V50H53V51H51V52H49V53H43V54H42H40V55H42V56H43V57H44V58H46V59H48V60H50V64H49V65H48V66H47V67H46V68H44V69H43H41V68H40V67H39V68H40V69H41V70H43V71H46V72H53V71H55V70H56V69H55V68H54V67H56V68H57V69H58V70H59V71H61V72H63V73H66V72H67V71H66H63H62V70H60V69H58V68H57V67H56V66V65H57V64H59H60V63H61V62H62V57H61V56H60V54H59V53H58V52V51H57V50V48H56V43V42H55V39H54V37H53V36ZM60 63V62H59V63H60ZM54 67V66H53V67H54ZM54 49H55V48H54V49ZM34 63V64H36V63H34ZM30 66H29V67H30V66ZM30 69H31H32V68H34V67H36V65H37V67H38V68H37V69H36V70H34V71H31V70H30V69ZM68 70H69V72H68V70ZM68 69V70H67V69H68ZM68 69H69V68H68V69ZM71 68H70V71H71V68ZM61 64H62V65H61V64ZM41 37H40V38H41V37ZM42 43H43V44H42V43ZM47 42H46V43H47V42ZM46 39H47V40H46V39ZM50 39H49V40H50V39ZM49 42H50V43H49V42ZM47 49H46V50H47V49ZM35 46H36V47V48H34V47H35V46ZM62 45H61V46H62V45ZM65 43H66V44H65V43ZM68 43H69H70H71V44H70V45H71V47H70V48H69V49H68V47H67V46H68V45H69V44H68V43ZM68 43H66V42H68V43ZM68 44V45H67V44H68ZM66 49H67V50H66V49ZM63 48H66V49H63V48ZM63 48V47H61V48H63ZM67 50H68V51H67V50ZM66 56H67V57H66V56ZM68 54H67V56H68V55H69V54H71V53H72V52H74V53H75V54H76V55H79V52H80V54H81V53H82V52H81V51H82V50H81V48H80V47H79V48H77V49H79H80V50H78V51H76H75H74H70V52H68V54ZM78 51H79V52H78V51ZM80 50V51H81V50H80Z" fill="#D5CDEE"/>
</svg>
