<svg width="100" height="100" viewBox="0 0 100 100" fill="none" xmlns="http://www.w3.org/2000/svg">
<path fill-rule="evenodd" clip-rule="evenodd" d="M45 32H44V33H43V34H42V35H43H44H45V34H46V33H45V32ZM51 33H50V34H51V33ZM43 54H44V55H43V54ZM44 55H45V56H44V55ZM44 58H45V59H44V58ZM44 59V60H43V59H44ZM39 65H40V66H39V65ZM23 66H24V68H23V66ZM43 66H42V67H43V66ZM41 68H42V69H41V68ZM63 68H62V67H61V68H59V69H63V68Z" fill="#D5CDCD"/>
<path fill-rule="evenodd" clip-rule="evenodd" d="M53 29H49V30H46V31H44V32H43V33H42V34H41V36H42V34H43V33H44V32H46V31H49V30H53V29ZM23 65H21V66H20V67H21V66H23V65ZM22 68H23V69H22V68ZM41 66H40V68H41V66ZM42 69H43V70H42V69ZM61 66H59V67H58V69H59V67H61V66ZM46 34H45V35H46V34Z" fill="#6A6262"/>
<path fill-rule="evenodd" clip-rule="evenodd" d="M46 34H52V35H46V34ZM55 36H52V35H55V36ZM58 37H55V36H58V37ZM60 38H58V37H60V38ZM61 39H60V38H61V39ZM62 40H61V39H62V40ZM63 42H62V40H63V42ZM63 42H64V44H63V42ZM45 35H42V36H45V35ZM43 49H44V50H43V49ZM29 53H30V54H29V53ZM29 54V55H28V54H29ZM29 56H30V57H29V56ZM26 63H25V64H26V65H27V66H29V65H27V64H26V63ZM23 64H24V65H23V64ZM19 67H20V69H19V67ZM23 70H20V69H23V70ZM31 71H23V70H29V68H30V70H31V71ZM33 72H31V71H33V72ZM41 72V73H33V72H41ZM42 70V71H41V72H45V73H52V72H55V71H58V70H60V71H65V70H67V69H68V68H69V66H70V63H69V66H68V68H67V69H65V70H60V69H58V70H55V71H52V72H45V71H43V70H42ZM41 69H42V70H41V69ZM41 69H40V68H41V69ZM30 64H32V63H35V64H34V65H30V64ZM42 56H41V57H42V56ZM43 60H44V61H43V60ZM39 64H37V65H39V64ZM32 66H33V67H32V66ZM33 69H32V70H33V69ZM37 70H39V71H37V70ZM45 61H46V62H45V61ZM46 62H47V64H49V65H45V64H46V62ZM51 65H50V66H51V65ZM48 52H47V54H48V55H49V56H51V55H52V54H53V52H52V54H51V55H49V54H48V52ZM59 64H60V66H59V64ZM62 46H63V47H62V46ZM62 47V48H60V47H62ZM66 54H67V55H66V54ZM68 57H67V58H68V57ZM68 59H69V61H68V59ZM70 58V59H69V58H70ZM71 57H70V58H71V57ZM72 55V57H71V55H72ZM73 53H72V55H73V53ZM74 50V53H73V50H74ZM74 50V45H75V50H74Z" fill="#101010"/>
<path fill-rule="evenodd" clip-rule="evenodd" d="M34 56H37V57H34V56ZM39 58H37V57H39V58ZM40 59H39V58H40V59ZM40 59H41V60H40V59ZM28 59H27V60H26V61H25V63H26V61H27V60H28V59ZM31 61H30V62H31V61ZM33 61H34V62H33V61ZM32 63H31V64H32V63ZM29 64H30V65H29V64ZM30 65H32V66H31V67H30V68H29V67V66H30V65ZM35 64H34V65H33V66H34V65H35V64ZM35 64H37V63H35V64ZM33 67H32V68H31V69H33V70H34V71H37V70H34V69H33V68V67ZM39 70V71H40V70H41V69H39V70ZM39 64H40V65H39V64ZM40 65H41V66H40V65ZM45 62H46V63H45V62ZM45 62H44V61H45V62ZM42 60H43V61H42V60Z" fill="#8B5A18"/>
<path fill-rule="evenodd" clip-rule="evenodd" d="M32 56H34V57H32V56ZM32 57V58H31V57H32ZM42 59H41V60H42V59ZM32 62H35V63H32V62ZM31 63H30V64H31V63ZM32 65H33V66H32V65ZM32 66V67V68H30V67H31V66H32ZM33 70H34V71H33V70ZM46 63H45V62H44V61H42V62H40V63H37V64H40V65H42V64H44H45H46V63ZM42 70V71H41V72H37V71H40V70H42ZM27 64H29V65H27V64Z" fill="#DEA462"/>
<path fill-rule="evenodd" clip-rule="evenodd" d="M30 57H31V58H30V57ZM30 58V59H28V58H30ZM34 61H35V62H34V61ZM35 62H36V63H35V62ZM36 57H37V58H36V57ZM39 58H38V59H39V60H40V59H39V58ZM42 61H41V62H42V61ZM39 62H40V63H39V62ZM31 68H30V69V70H31V71H33V72H37V71H33V70H32V69H31V68ZM31 61H32V62V63H30V64H26V63V62H27V63H29V62H31V61Z" fill="#EEC58B"/>
<path fill-rule="evenodd" clip-rule="evenodd" d="M52 30H49V31H46V32H45V33H46V34H49H50V33H52V31H53V30H52ZM29 54H31V55H32V57H31H30V56H29V54ZM29 56V57H30V58H29H28V56H29ZM30 65H29V66H30V65ZM23 66H21V67H20V69H21H22V68H23V66ZM38 65H39V66H38V65ZM42 66H41V68H42V69H44V67H42V66ZM61 67H59V68H61V67ZM40 55H39V58H40V59H42V60H43V59H44V58H45V56H44V55H43V54H40V55ZM41 56V57H42V56H41Z" fill="white"/>
<path fill-rule="evenodd" clip-rule="evenodd" d="M32 57H36V58H38V59H39V60H41H42V61H41V62H39V63H36V62H35V61H33V62H32V61H30V62H29V63H27V62H26V61H27V60H28V59H29H30V58H32V57Z" fill="#FFE6B4"/>
<path fill-rule="evenodd" clip-rule="evenodd" d="M64 44H63V45H62V46H63V45H64V44ZM32 47H33V48H32V47ZM33 48H34V49H33V48ZM28 51H27V53H28V54H29V53H28V51ZM28 58H27V59H28V58ZM25 64H24V65H25V64ZM40 48H42V49H40V48ZM42 49H43V50H42V49ZM44 49H45V51H44V49ZM48 51H47V52H48V51ZM50 51H48V50H50V51ZM50 51V52H51V51H50ZM48 47H50V48H48V47ZM51 49H50V48H51V49ZM52 50H51V49H52V50ZM52 50H53V52H52V50ZM41 65H42V66H41V65ZM45 64H44V65H45V64ZM49 64H50V65H49V64ZM52 65H51V66H52V65ZM49 56H50V57H49V56ZM50 57H51V60H50V57ZM54 70H55V71H54V70ZM60 63H59V64H60V63ZM60 63H61V61H60V63ZM70 61H69V63H70V61ZM68 58H69V59H68V58ZM68 56H67V55H66V56H67V57H68V56ZM66 53H65V52H64V51H63V52H64V53H65V54H66V53Z" fill="#7B2031"/>
<path fill-rule="evenodd" clip-rule="evenodd" d="M58 29H56V30H58V29ZM55 35H56V36H55V35ZM32 47H30V48H32V47ZM27 50H28V51H27V50ZM31 52H30V53H31V52ZM28 56H27V58H28V56ZM38 48H40V49H38V48ZM48 47H46V48H45V49H46V48H48V47ZM61 48V49H59V48H61ZM59 48H58V47H59V48ZM62 50H61V49H62V50ZM62 50H63V51H62V50ZM44 64H42V65H44V64ZM52 64H53V65H52V64ZM51 48H52V49H51V48ZM62 59H63V60H62V59ZM62 60V61H61V60H62ZM60 30H62V31H60V30ZM65 31H63V32H65V31ZM74 42H75V45H74V42ZM74 39H73V37H72V36H71V35H70V34H69V33H68V34H69V35H70V36H71V37H72V39H73V41H74V39ZM67 32H66V33H67V32Z" fill="#AC4152"/>
<path fill-rule="evenodd" clip-rule="evenodd" d="M54 30H53V31H52V33H51V34H52V33H53V31H54V30ZM50 46H45V47H44V48H46V47H50V48H53V47H54V46H53H50ZM39 49H37H36V50H35H34V51H32V52H31V53H32V54H35V53H37V52H38V51H39V49Z" fill="#FFA4A4"/>
<path fill-rule="evenodd" clip-rule="evenodd" d="M54 30H58V31H62V32H65V33H66H67V34H68H69V35H70V36H71V37H72V39H73V41H72V42H71V43H68V42H66V41H64V40H63V39H62H61V38H60V37H59V36H56V35H53V34H52V33H53V31H54V30ZM44 47H42V49H39V51H38V52H37V53H35V54H33H32V53H31V54H32V55H33V56H35H37V57H38V55H39V54H40V53H42H44V54H45V51H44V50H42V49H44H45V48H44V47ZM31 48H29V49H28V51H29H30V50H31V48ZM25 64H26V65H27V67H26V68H24V66H23V65H24H25V64ZM33 67H35H37V68H38V70H37H35V69H33V67ZM44 65H43V67H44V69H48V68H49V66H48V65H44ZM65 60V61H66V62H65V63H63V62H62V61H63V60H65ZM47 51V50H46V48H50V50H48V51H47ZM50 56H51V55H52V54H53V50H52V48H53V47H57V48H59V49H60V50H61V51H62V53H63V55H62V57H61V58H59V59H51V57H50V56Z" fill="#FF8394"/>
<path fill-rule="evenodd" clip-rule="evenodd" d="M53 29H56V30H53V29ZM58 30H60V31H58V30ZM53 34H52V35H53V34ZM58 36H59V37H58V36ZM63 31H62V32H63V31ZM65 32H66V33H65V32ZM68 33H67V34H68V33ZM62 39H63V40H62V39ZM68 43V42H66V41H64V40H63V42H64V43V45H63V47H62V48H61V49H60V50H61V51H62V53H63V55H62V57H61V58H59V59H51V60H50V57H49V55H51V54H52V50H51V49H50V51H48V52V54H47V50H46V49H45V50V54H44V53H40V54H39V55H38V57H39V55H40V54H44V55H45V59H44V61H45H46V62H47V64H49H50V65H48V66H49V67V68H48V69H45H43V71H45V72H52V71H54V70H58V67H59V64V63H60V66H61V67H62V68H63V69H60V70H65V69H67V68H68V66H69V63V61H68V58H70V57H71V55H72V53H73V52V50H74V43V42V41H72V42H71V43H68ZM67 56H68V58H67V56ZM66 54H67V56H66V54ZM65 53H66V54H65V53ZM64 52H65V53H64V52ZM63 51H62V50H63V51ZM63 51H64V52H63V51ZM61 61V63H60V61H61ZM62 60H61V61H62V62H63V63H65V62H66V61H65V60H63V59H62V60ZM62 60H63V61H62V60ZM52 65H50V66H52V65ZM52 65H53V64H52V65ZM50 51H51V52H50V51ZM48 54V55H49V54H48ZM62 50V49H61V50H62ZM28 49H27V50H28V49ZM29 48V49H28V48H29ZM29 48V47H30V48H29ZM30 53H31V54H30V53ZM32 55H31V54H32V55ZM32 55H33V56H32V55ZM30 52V53H28V51H30V50H31V48H33V49H34H36V50H34V51H32V52H30ZM36 49V48H38V49H36ZM29 55H28V56H29V55ZM42 65H43V66H42V65ZM35 69H34V70H35V69ZM26 67H27V66H29V70H27H23V68H26V67ZM40 69V66H38V65H37V64H35V65H34V66H33V67H34H37V68H38V69V70H39V69H40ZM42 47H40V48H42V47ZM45 46H42V47H45V46ZM54 46H45V45H54V46ZM57 47H54V46H57V47ZM57 47H58V48H57V47Z" fill="#DE627B"/>
</svg>
