<svg width="100" height="100" viewBox="0 0 100 100" fill="none" xmlns="http://www.w3.org/2000/svg">
<path d="M59 24H58V25H59V24Z" fill="#101010"/>
<path d="M59 25H58V26H59V25Z" fill="#101010"/>
<path d="M58 26H57V27H58V26Z" fill="#101010"/>
<path d="M57 27H56V28H57V27Z" fill="#101010"/>
<path d="M58 28H57V29H58V28Z" fill="#101010"/>
<path d="M58 29H57V30H58V29Z" fill="#101010"/>
<path d="M58 30H57V31H58V30Z" fill="#101010"/>
<path d="M57 31H56V32H57V31Z" fill="#101010"/>
<path d="M57 32H56V33H57V32Z" fill="#101010"/>
<path d="M56 33H55V34H56V33Z" fill="#101010"/>
<path d="M56 34H55V35H56V34Z" fill="#101010"/>
<path d="M56 35H55V36H56V35Z" fill="#101010"/>
<path d="M55 36H54V37H55V36Z" fill="#101010"/>
<path d="M55 37H54V38H55V37Z" fill="#101010"/>
<path d="M54 38H53V39H54V38Z" fill="#101010"/>
<path d="M54 42H53V43H54V42Z" fill="#101010"/>
<path d="M53 41H52V42H53V41Z" fill="#101010"/>
<path d="M54 43H53V44H54V43Z" fill="#101010"/>
<path d="M55 44H54V45H55V44Z" fill="#101010"/>
<path d="M56 45H55V46H56V45Z" fill="#101010"/>
<path d="M57 45H56V46H57V45Z" fill="#101010"/>
<path d="M58 46H57V47H58V46Z" fill="#101010"/>
<path d="M59 47H58V48H59V47Z" fill="#101010"/>
<path d="M53 45H52V46H53V45Z" fill="#101010"/>
<path d="M52 45H51V46H52V45Z" fill="#101010"/>
<path d="M51 46H50V47H51V46Z" fill="#101010"/>
<path d="M50 47H49V48H50V47Z" fill="#101010"/>
<path d="M50 48H49V49H50V48Z" fill="#101010"/>
<path d="M50 49H49V50H50V49Z" fill="#101010"/>
<path d="M50 50H49V51H50V50Z" fill="#101010"/>
<path d="M50 51H49V52H50V51Z" fill="#101010"/>
<path d="M48 49H47V50H48V49Z" fill="#101010"/>
<path d="M51 52H50V53H51V52Z" fill="#101010"/>
<path d="M51 53H50V54H51V53Z" fill="#101010"/>
<path d="M52 54H51V55H52V54Z" fill="#101010"/>
<path d="M48 46H47V47H48V46Z" fill="#101010"/>
<path d="M49 48H48V49H49V48Z" fill="#101010"/>
<path d="M47 47H46V48H47V47Z" fill="#101010"/>
<path d="M44 42H43V43H44V42Z" fill="#101010"/>
<path d="M44 41H43V42H44V41Z" fill="#101010"/>
<path d="M45 41H44V42H45V41Z" fill="#101010"/>
<path d="M45 42H44V43H45V42Z" fill="#101010"/>
<path d="M44 44H43V45H44V44Z" fill="#101010"/>
<path d="M54 45H53V46H54V45Z" fill="#101010"/>
<path d="M46 50H45V51H46V50Z" fill="#101010"/>
<path d="M46 51H45V52H46V51Z" fill="#101010"/>
<path d="M45 52H44V53H45V52Z" fill="#101010"/>
<path d="M45 50H44V51H45V50Z" fill="#101010"/>
<path d="M44 53H43V54H44V53Z" fill="#101010"/>
<path d="M42 54H41V55H42V54Z" fill="#101010"/>
<path d="M43 53H42V54H43V53Z" fill="#101010"/>
<path d="M47 50H46V51H47V50Z" fill="#101010"/>
<path d="M36 50H35V51H36V50Z" fill="#101010"/>
<path d="M36 51H35V52H36V51Z" fill="#101010"/>
<path d="M36 52H35V53H36V52Z" fill="#101010"/>
<path d="M35 50H34V51H35V50Z" fill="#101010"/>
<path d="M37 50H36V51H37V50Z" fill="#101010"/>
<path d="M38 51H37V52H38V51Z" fill="#101010"/>
<path d="M34 49H33V50H34V49Z" fill="#101010"/>
<path d="M32 48H31V49H32V48Z" fill="#101010"/>
<path d="M23 52H22V53H23V52Z" fill="#101010"/>
<path d="M24 53H23V54H24V53Z" fill="#101010"/>
<path d="M25 54H24V55H25V54Z" fill="#101010"/>
<path d="M25 55H24V56H25V55Z" fill="#101010"/>
<path d="M24 56H23V57H24V56Z" fill="#101010"/>
<path d="M25 57H24V58H25V57Z" fill="#101010"/>
<path d="M26 57H25V58H26V57Z" fill="#101010"/>
<path d="M27 57H26V58H27V57Z" fill="#101010"/>
<path d="M28 57H27V58H28V57Z" fill="#101010"/>
<path d="M29 57H28V58H29V57Z" fill="#101010"/>
<path d="M30 57H29V58H30V57Z" fill="#101010"/>
<path d="M31 57H30V58H31V57Z" fill="#101010"/>
<path d="M32 57H31V58H32V57Z" fill="#101010"/>
<path d="M33 57H32V58H33V57Z" fill="#101010"/>
<path d="M34 57H33V58H34V57Z" fill="#101010"/>
<path d="M35 53H34V54H35V53Z" fill="#101010"/>
<path d="M35 54H34V55H35V54Z" fill="#101010"/>
<path d="M35 55H34V56H35V55Z" fill="#101010"/>
<path d="M35 56H34V57H35V56Z" fill="#101010"/>
<path d="M35 57H34V58H35V57Z" fill="#101010"/>
<path d="M35 58H34V59H35V58Z" fill="#101010"/>
<path d="M35 59H34V60H35V59Z" fill="#101010"/>
<path d="M35 60H34V61H35V60Z" fill="#101010"/>
<path d="M36 61H35V62H36V61Z" fill="#101010"/>
<path d="M36 62H35V63H36V62Z" fill="#101010"/>
<path d="M36 63H35V64H36V63Z" fill="#101010"/>
<path d="M37 64H36V65H37V64Z" fill="#101010"/>
<path d="M37 65H36V66H37V65Z" fill="#101010"/>
<path d="M38 66H37V67H38V66Z" fill="#101010"/>
<path d="M33 70H32V71H33V70Z" fill="#101010"/>
<path d="M34 71H33V72H34V71Z" fill="#101010"/>
<path d="M34 72H33V73H34V72Z" fill="#101010"/>
<path d="M43 70H42V71H43V70Z" fill="#101010"/>
<path d="M43 71H42V72H43V71Z" fill="#101010"/>
<path d="M42 72H41V73H42V72Z" fill="#101010"/>
<path d="M42 73H41V74H42V73Z" fill="#101010"/>
<path d="M41 74H40V75H41V74Z" fill="#101010"/>
<path d="M41 75H40V76H41V75Z" fill="#101010"/>
<path d="M32 74H31V75H32V74Z" fill="#101010"/>
<path d="M33 73H32V74H33V73Z" fill="#101010"/>
<path d="M32 75H31V76H32V75Z" fill="#101010"/>
<path d="M33 75H32V76H33V75Z" fill="#101010"/>
<path d="M34 76H33V77H34V76Z" fill="#101010"/>
<path d="M35 76H34V77H35V76Z" fill="#101010"/>
<path d="M36 76H35V77H36V76Z" fill="#101010"/>
<path d="M38 76H37V77H38V76Z" fill="#101010"/>
<path d="M39 76H38V77H39V76Z" fill="#101010"/>
<path d="M40 76H39V77H40V76Z" fill="#101010"/>
<path d="M61 77H60V78H61V77Z" fill="#101010"/>
<path d="M62 77H61V78H62V77Z" fill="#101010"/>
<path d="M58 77H57V78H58V77Z" fill="#101010"/>
<path d="M59 77H58V78H59V77Z" fill="#101010"/>
<path d="M44 70H43V71H44V70Z" fill="#101010"/>
<path d="M45 70H44V71H45V70Z" fill="#101010"/>
<path d="M46 71H45V72H46V71Z" fill="#101010"/>
<path d="M47 71H46V72H47V71Z" fill="#101010"/>
<path d="M48 71H47V72H48V71Z" fill="#101010"/>
<path d="M49 71H48V72H49V71Z" fill="#101010"/>
<path d="M50 71H49V72H50V71Z" fill="#101010"/>
<path d="M52 70H51V71H52V70Z" fill="#101010"/>
<path d="M53 71H52V72H53V71Z" fill="#101010"/>
<path d="M54 72H53V73H54V72Z" fill="#101010"/>
<path d="M55 73H54V74H55V73Z" fill="#101010"/>
<path d="M56 74H55V75H56V74Z" fill="#101010"/>
<path d="M56 75H55V76H56V75Z" fill="#101010"/>
<path d="M57 76H56V77H57V76Z" fill="#101010"/>
<path d="M60 76H59V77H60V76Z" fill="#101010"/>
<path d="M64 76H63V77H64V76Z" fill="#101010"/>
<path d="M65 76H64V77H65V76Z" fill="#101010"/>
<path d="M65 75H64V76H65V75Z" fill="#101010"/>
<path d="M64 74H63V75H64V74Z" fill="#101010"/>
<path d="M64 73H63V74H64V73Z" fill="#101010"/>
<path d="M64 72H63V73H64V72Z" fill="#101010"/>
<path d="M63 71H62V72H63V71Z" fill="#101010"/>
<path d="M63 70H62V71H63V70Z" fill="#101010"/>
<path d="M63 69H62V70H63V69Z" fill="#101010"/>
<path d="M67 68H66V69H67V68Z" fill="#101010"/>
<path d="M68 68H67V69H68V68Z" fill="#101010"/>
<path d="M69 67H68V68H69V67Z" fill="#101010"/>
<path d="M70 66H69V67H70V66Z" fill="#101010"/>
<path d="M71 66H70V67H71V66Z" fill="#101010"/>
<path d="M72 65H71V66H72V65Z" fill="#101010"/>
<path d="M73 64H72V65H73V64Z" fill="#101010"/>
<path d="M74 63H73V64H74V63Z" fill="#101010"/>
<path d="M75 62H74V63H75V62Z" fill="#101010"/>
<path d="M76 61H75V62H76V61Z" fill="#101010"/>
<path d="M76 60H75V61H76V60Z" fill="#101010"/>
<path d="M77 59H76V60H77V59Z" fill="#101010"/>
<path d="M77 58H76V59H77V58Z" fill="#101010"/>
<path d="M78 57H77V58H78V57Z" fill="#101010"/>
<path d="M78 56H77V57H78V56Z" fill="#101010"/>
<path d="M78 55H77V56H78V55Z" fill="#101010"/>
<path d="M72 48H71V49H72V48Z" fill="#101010"/>
<path d="M73 48H72V49H73V48Z" fill="#101010"/>
<path d="M74 47H73V48H74V47Z" fill="#101010"/>
<path d="M75 46H74V47H75V46Z" fill="#101010"/>
<path d="M76 45H75V46H76V45Z" fill="#101010"/>
<path d="M62 68H61V69H62V68Z" fill="#101010"/>
<path d="M62 67H61V68H62V67Z" fill="#101010"/>
<path d="M61 66H60V67H61V66Z" fill="#101010"/>
<path d="M61 65H60V66H61V65Z" fill="#101010"/>
<path d="M60 64H59V65H60V64Z" fill="#101010"/>
<path d="M59 63H58V64H59V63Z" fill="#101010"/>
<path d="M63 77H62V78H63V77Z" fill="#101010"/>
<path d="M37 75H36V76H37V75Z" fill="#101010"/>
<path d="M39 67H38V68H39V67Z" fill="#101010"/>
<path d="M40 68H39V69H40V68Z" fill="#101010"/>
<path d="M41 69H40V70H41V69Z" fill="#101010"/>
<path d="M42 69H41V70H42V69Z" fill="#101010"/>
<path d="M31 47H30V48H31V47Z" fill="#101010"/>
<path d="M31 46H30V47H31V46Z" fill="#101010"/>
<path d="M31 45H30V46H31V45Z" fill="#101010"/>
<path d="M32 44H31V45H32V44Z" fill="#101010"/>
<path d="M32 43H31V44H32V43Z" fill="#101010"/>
<path d="M31 41H30V42H31V41Z" fill="#101010"/>
<path d="M34 41H33V42H34V41Z" fill="#101010"/>
<path d="M33 22H32V23H33V22Z" fill="#101010"/>
<path d="M34 23H33V24H34V23Z" fill="#101010"/>
<path d="M34 24H33V25H34V24Z" fill="#101010"/>
<path d="M35 25H34V26H35V25Z" fill="#101010"/>
<path d="M35 26H34V27H35V26Z" fill="#101010"/>
<path d="M35 27H34V28H35V27Z" fill="#101010"/>
<path d="M36 28H35V29H36V28Z" fill="#101010"/>
<path d="M36 29H35V30H36V29Z" fill="#101010"/>
<path d="M36 30H35V31H36V30Z" fill="#101010"/>
<path d="M36 31H35V32H36V31Z" fill="#101010"/>
<path d="M43 30H42V31H43V30Z" fill="#101010"/>
<path d="M44 30H43V31H44V30Z" fill="#101010"/>
<path d="M45 30H44V31H45V30Z" fill="#101010"/>
<path d="M46 31H45V32H46V31Z" fill="#101010"/>
<path d="M47 31H46V32H47V31Z" fill="#101010"/>
<path d="M35 42H34V43H35V42Z" fill="#101010"/>
<path d="M34 43H33V44H34V43Z" fill="#101010"/>
<path d="M31 40H30V41H31V40Z" fill="#101010"/>
<path d="M32 42H31V43H32V42Z" fill="#101010"/>
<path d="M39 51H38V52H39V51Z" fill="#101010"/>
<path d="M40 51H39V52H40V51Z" fill="#101010"/>
<path d="M41 51H40V52H41V51Z" fill="#101010"/>
<path d="M42 51H41V52H42V51Z" fill="#101010"/>
<path d="M43 51H42V52H43V51Z" fill="#101010"/>
<path d="M44 51H43V52H44V51Z" fill="#101010"/>
<path d="M53 55H52V56H53V55Z" fill="#101010"/>
<path d="M54 55H53V56H54V55Z" fill="#101010"/>
<path d="M57 56H56V57H57V56Z" fill="#101010"/>
<path d="M58 56H57V57H58V56Z" fill="#101010"/>
<path d="M59 56H58V57H59V56Z" fill="#101010"/>
<path d="M60 56H59V57H60V56Z" fill="#101010"/>
<path d="M57 62H56V63H57V62Z" fill="#101010"/>
<path d="M58 62H57V63H58V62Z" fill="#101010"/>
<path d="M61 55H60V56H61V55Z" fill="#101010"/>
<path d="M62 55H61V56H62V55Z" fill="#101010"/>
<path d="M62 56H61V57H62V56Z" fill="#101010"/>
<path d="M62 57H61V58H62V57Z" fill="#101010"/>
<path d="M62 58H61V59H62V58Z" fill="#101010"/>
<path d="M62 59H61V60H62V59Z" fill="#101010"/>
<path d="M62 60H61V61H62V60Z" fill="#101010"/>
<path d="M61 61H60V62H61V61Z" fill="#101010"/>
<path d="M61 62H60V63H61V62Z" fill="#101010"/>
<path d="M61 63H60V64H61V63Z" fill="#101010"/>
<path d="M64 53H63V54H64V53Z" fill="#101010"/>
<path d="M65 52H64V53H65V52Z" fill="#101010"/>
<path d="M63 54H62V55H63V54Z" fill="#101010"/>
<path d="M30 25H29V26H30V25Z" fill="#29416A"/>
<path d="M30 26H29V27H30V26Z" fill="#29416A"/>
<path d="M48 30H47V31H48V30Z" fill="#29416A"/>
<path d="M48 31H47V32H48V31Z" fill="#29416A"/>
<path d="M49 28H48V29H49V28Z" fill="#29416A"/>
<path d="M59 23H58V24H59V23Z" fill="#29416A"/>
<path d="M49 29H48V30H49V29Z" fill="#29416A"/>
<path d="M29 27H28V28H29V27Z" fill="#29416A"/>
<path d="M29 28H28V29H29V28Z" fill="#29416A"/>
<path d="M29 29H28V30H29V29Z" fill="#29416A"/>
<path d="M30 30H29V31H30V30Z" fill="#29416A"/>
<path d="M30 31H29V32H30V31Z" fill="#29416A"/>
<path d="M30 32H29V33H30V32Z" fill="#29416A"/>
<path d="M30 33H29V34H30V33Z" fill="#29416A"/>
<path d="M31 34H30V35H31V34Z" fill="#29416A"/>
<path d="M30 37H29V38H30V37Z" fill="#29416A"/>
<path d="M29 34H28V35H29V34Z" fill="#29416A"/>
<path d="M29 35H28V36H29V35Z" fill="#29416A"/>
<path d="M29 36H28V37H29V36Z" fill="#29416A"/>
<path d="M31 38H30V39H31V38Z" fill="#29416A"/>
<path d="M31 39H30V40H31V39Z" fill="#29416A"/>
<path d="M32 36H31V37H32V36Z" fill="#29416A"/>
<path d="M32 37H31V38H32V37Z" fill="#29416A"/>
<path d="M33 34H32V35H33V34Z" fill="#29416A"/>
<path d="M34 33H33V34H34V33Z" fill="#29416A"/>
<path d="M35 32H34V33H35V32Z" fill="#29416A"/>
<path d="M36 32H35V33H36V32Z" fill="#29416A"/>
<path d="M37 31H36V32H37V31Z" fill="#29416A"/>
<path d="M38 31H37V32H38V31Z" fill="#29416A"/>
<path d="M39 30H38V31H39V30Z" fill="#29416A"/>
<path d="M40 30H39V31H40V30Z" fill="#29416A"/>
<path d="M41 30H40V31H41V30Z" fill="#29416A"/>
<path d="M42 30H41V31H42V30Z" fill="#29416A"/>
<path d="M44 40H43V41H44V40Z" fill="#29416A"/>
<path d="M43 41H42V42H43V41Z" fill="#29416A"/>
<path d="M42 42H41V43H42V42Z" fill="#29416A"/>
<path d="M45 40H44V41H45V40Z" fill="#29416A"/>
<path d="M46 39H45V40H46V39Z" fill="#29416A"/>
<path d="M47 40H46V41H47V40Z" fill="#29416A"/>
<path d="M48 42H47V43H48V42Z" fill="#29416A"/>
<path d="M49 39H48V40H49V39Z" fill="#29416A"/>
<path d="M50 40H49V41H50V40Z" fill="#29416A"/>
<path d="M51 40H50V41H51V40Z" fill="#29416A"/>
<path d="M52 40H51V41H52V40Z" fill="#29416A"/>
<path d="M52 41H51V42H52V41Z" fill="#29416A"/>
<path d="M52 42H51V43H52V42Z" fill="#29416A"/>
<path d="M52 43H51V44H52V43Z" fill="#29416A"/>
<path d="M51 44H50V45H51V44Z" fill="#29416A"/>
<path d="M51 45H50V46H51V45Z" fill="#29416A"/>
<path d="M55 46H54V47H55V46Z" fill="#29416A"/>
<path d="M56 46H55V47H56V46Z" fill="#29416A"/>
<path d="M57 47H56V48H57V47Z" fill="#29416A"/>
<path d="M58 48H57V49H58V48Z" fill="#29416A"/>
<path d="M59 48H58V49H59V48Z" fill="#29416A"/>
<path d="M60 48H59V49H60V48Z" fill="#29416A"/>
<path d="M61 48H60V49H61V48Z" fill="#29416A"/>
<path d="M62 48H61V49H62V48Z" fill="#29416A"/>
<path d="M63 48H62V49H63V48Z" fill="#29416A"/>
<path d="M64 51H63V52H64V51Z" fill="#29416A"/>
<path d="M65 51H64V52H65V51Z" fill="#29416A"/>
<path d="M68 46H67V47H68V46Z" fill="#29416A"/>
<path d="M68 45H67V46H68V45Z" fill="#29416A"/>
<path d="M76 44H75V45H76V44Z" fill="#29416A"/>
<path d="M76 43H75V44H76V43Z" fill="#29416A"/>
<path d="M76 42H75V43H76V42Z" fill="#29416A"/>
<path d="M76 50H75V51H76V50Z" fill="#29416A"/>
<path d="M77 52H76V53H77V52Z" fill="#29416A"/>
<path d="M78 53H77V54H78V53Z" fill="#29416A"/>
<path d="M78 54H77V55H78V54Z" fill="#29416A"/>
<path d="M76 49H75V50H76V49Z" fill="#29416A"/>
<path d="M76 48H75V49H76V48Z" fill="#29416A"/>
<path d="M75 47H74V48H75V47Z" fill="#29416A"/>
<path d="M69 47H68V48H69V47Z" fill="#29416A"/>
<path d="M71 48H70V49H71V48Z" fill="#29416A"/>
<path d="M70 48H69V49H70V48Z" fill="#29416A"/>
<path d="M73 56H72V57H73V56Z" fill="#29416A"/>
<path d="M74 56H73V57H74V56Z" fill="#29416A"/>
<path d="M65 69H64V70H65V69Z" fill="#29416A"/>
<path d="M64 70H63V71H64V70Z" fill="#29416A"/>
<path d="M66 69H65V70H66V69Z" fill="#29416A"/>
<path d="M72 56H71V57H72V56Z" fill="#29416A"/>
<path d="M52 72H51V73H52V72Z" fill="#29416A"/>
<path d="M53 72H52V73H53V72Z" fill="#29416A"/>
<path d="M51 72H50V73H51V72Z" fill="#29416A"/>
<path d="M55 62H54V63H55V62Z" fill="#29416A"/>
<path d="M56 62H55V63H56V62Z" fill="#29416A"/>
<path d="M54 62H53V63H54V62Z" fill="#29416A"/>
<path d="M56 56H55V57H56V56Z" fill="#29416A"/>
<path d="M55 55H54V56H55V55Z" fill="#29416A"/>
<path d="M53 63H52V64H53V63Z" fill="#29416A"/>
<path d="M52 64H51V65H52V64Z" fill="#29416A"/>
<path d="M52 65H51V66H52V65Z" fill="#29416A"/>
<path d="M51 66H50V67H51V66Z" fill="#29416A"/>
<path d="M51 67H50V68H51V67Z" fill="#29416A"/>
<path d="M51 68H50V69H51V68Z" fill="#29416A"/>
<path d="M51 69H50V70H51V69Z" fill="#29416A"/>
<path d="M40 75H39V76H40V75Z" fill="#29416A"/>
<path d="M34 75H33V76H34V75Z" fill="#29416A"/>
<path d="M35 73H34V74H35V73Z" fill="#29416A"/>
<path d="M33 69H32V70H33V69Z" fill="#29416A"/>
<path d="M33 68H32V69H33V68Z" fill="#29416A"/>
<path d="M33 67H32V68H33V67Z" fill="#29416A"/>
<path d="M34 66H33V67H34V66Z" fill="#29416A"/>
<path d="M34 65H33V66H34V65Z" fill="#29416A"/>
<path d="M35 64H34V65H35V64Z" fill="#29416A"/>
<path d="M63 76H62V77H63V76Z" fill="#29416A"/>
<path d="M71 55H70V56H71V55Z" fill="#29416A"/>
<path d="M70 49H69V50H70V49Z" fill="#29416A"/>
<path d="M57 54H56V55H57V54Z" fill="#29416A"/>
<path d="M58 54H57V55H58V54Z" fill="#29416A"/>
<path d="M57 53H56V54H57V53Z" fill="#29416A"/>
<path d="M59 53H58V54H59V53Z" fill="#29416A"/>
<path d="M63 49H62V50H63V49Z" fill="#29416A"/>
<path d="M63 50H62V51H63V50Z" fill="#29416A"/>
<path d="M61 49H60V50H61V49Z" fill="#29416A"/>
<path d="M50 46H49V47H50V46Z" fill="#29416A"/>
<path d="M48 47H47V48H48V47Z" fill="#29416A"/>
<path d="M48 48H47V49H48V48Z" fill="#29416A"/>
<path d="M47 49H46V50H47V49Z" fill="#29416A"/>
<path d="M46 48H45V49H46V48Z" fill="#29416A"/>
<path d="M45 48H44V49H45V48Z" fill="#29416A"/>
<path d="M44 48H43V49H44V48Z" fill="#29416A"/>
<path d="M43 48H42V49H43V48Z" fill="#29416A"/>
<path d="M41 49H40V50H41V49Z" fill="#29416A"/>
<path d="M40 49H39V50H40V49Z" fill="#29416A"/>
<path d="M39 49H38V50H39V49Z" fill="#29416A"/>
<path d="M38 49H37V50H38V49Z" fill="#29416A"/>
<path d="M38 47H37V48H38V47Z" fill="#29416A"/>
<path d="M37 49H36V50H37V49Z" fill="#29416A"/>
<path d="M36 49H35V50H36V49Z" fill="#29416A"/>
<path d="M35 49H34V50H35V49Z" fill="#29416A"/>
<path d="M34 48H33V49H34V48Z" fill="#29416A"/>
<path d="M33 47H32V48H33V47Z" fill="#29416A"/>
<path d="M33 49H32V50H33V49Z" fill="#29416A"/>
<path d="M32 49H31V50H32V49Z" fill="#29416A"/>
<path d="M31 49H30V50H31V49Z" fill="#29416A"/>
<path d="M30 50H29V51H30V50Z" fill="#29416A"/>
<path d="M29 50H28V51H29V50Z" fill="#29416A"/>
<path d="M28 50H27V51H28V50Z" fill="#29416A"/>
<path d="M27 50H26V51H27V50Z" fill="#29416A"/>
<path d="M26 51H25V52H26V51Z" fill="#29416A"/>
<path d="M25 51H24V52H25V51Z" fill="#29416A"/>
<path d="M24 51H23V52H24V51Z" fill="#29416A"/>
<path d="M27 54H26V55H27V54Z" fill="#29416A"/>
<path d="M28 55H27V56H28V55Z" fill="#29416A"/>
<path d="M29 54H28V55H29V54Z" fill="#29416A"/>
<path d="M29 53H28V54H29V53Z" fill="#29416A"/>
<path d="M35 44H34V45H35V44Z" fill="#29416A"/>
<path d="M35 43H34V44H35V43Z" fill="#29416A"/>
<path d="M35 41H34V42H35V41Z" fill="#29416A"/>
<path d="M34 40H33V41H34V40Z" fill="#29416A"/>
<path d="M33 39H32V40H33V39Z" fill="#29416A"/>
<path d="M53 39H52V40H53V39Z" fill="#29416A"/>
<path d="M48 43H47V44H48V43Z" fill="#29416A"/>
<path d="M33 35H32V36H33V35Z" fill="#29416A"/>
<path d="M44 45H43V46H44V45Z" fill="#946262"/>
<path d="M45 45H44V46H45V45Z" fill="#946262"/>
<path d="M55 45H54V46H55V45Z" fill="#946262"/>
<path d="M57 46H56V47H57V46Z" fill="#946262"/>
<path d="M58 47H57V48H58V47Z" fill="#946262"/>
<path d="M58 57H57V58H58V57Z" fill="#946262"/>
<path d="M59 57H58V58H59V57Z" fill="#946262"/>
<path d="M60 57H59V58H60V57Z" fill="#946262"/>
<path d="M61 57H60V58H61V57Z" fill="#946262"/>
<path d="M61 56H60V57H61V56Z" fill="#946262"/>
<path d="M60 58H59V59H60V58Z" fill="#946262"/>
<path d="M60 59H59V60H60V59Z" fill="#946262"/>
<path d="M61 60H60V61H61V60Z" fill="#946262"/>
<path d="M60 61H59V62H60V61Z" fill="#946262"/>
<path d="M59 58H58V59H59V58Z" fill="#946262"/>
<path d="M58 58H57V59H58V58Z" fill="#946262"/>
<path d="M59 59H58V60H59V59Z" fill="#946262"/>
<path d="M59 60H58V61H59V60Z" fill="#946262"/>
<path d="M35 45H34V46H35V45Z" fill="#946262"/>
<path d="M34 44H33V45H34V44Z" fill="#946262"/>
<path d="M44 44V45H45V44H44Z" fill="#6A4A18"/>
<path d="M44 43V44H45V43H44Z" fill="#6A4A18"/>
<path d="M53 44V45H54V44H53Z" fill="#6A4A18"/>
<path d="M60 58V59H61V58H60Z" fill="#6A4A18"/>
<path d="M60 59V60H61V59H60Z" fill="#6A4A18"/>
<path d="M59 60V61H60V60H59Z" fill="#6A4A18"/>
<path d="M58 61V62H59V61H58Z" fill="#6A4A18"/>
<path d="M57 60V61H58V60H57Z" fill="#6A4A18"/>
<path d="M57 59V60H58V59H57Z" fill="#6A4A18"/>
<path d="M56 58V59H57V58H56Z" fill="#6A4A18"/>
<path d="M56 57V58H57V57H56Z" fill="#6A4A18"/>
<path d="M54 56V57H55V56H54Z" fill="#6A4A18"/>
<path d="M54 57V58H55V57H54Z" fill="#6A4A18"/>
<path d="M54 58V59H55V58H54Z" fill="#6A4A18"/>
<path d="M54 59V60H55V59H54Z" fill="#6A4A18"/>
<path d="M53 59V60H54V59H53Z" fill="#6A4A18"/>
<path d="M52 59V60H53V59H52Z" fill="#6A4A18"/>
<path d="M51 60V61H52V60H51Z" fill="#6A4A18"/>
<path d="M40 54V55H41V54H40Z" fill="#6A4A18"/>
<path d="M39 53V54H40V53H39Z" fill="#6A4A18"/>
<path d="M38 52V53H39V52H38Z" fill="#6A4A18"/>
<path d="M54 60V61H55V60H54Z" fill="#6A4A18"/>
<path d="M55 61V62H56V61H55Z" fill="#6A4A18"/>
<path d="M59 62V63H60V62H59Z" fill="#6A4A18"/>
<path d="M59 63V64H60V63H59Z" fill="#6A4A18"/>
<path d="M42 68H41V69H42V68Z" fill="#8B5A20"/>
<path d="M47 67H46V68H47V67Z" fill="#8B5A20"/>
<path d="M48 67H47V68H48V67Z" fill="#8B5A20"/>
<path d="M49 68H48V69H49V68Z" fill="#8B5A20"/>
<path d="M50 68H49V69H50V68Z" fill="#8B5A20"/>
<path d="M37 51H36V52H37V51Z" fill="#AC8B62"/>
<path d="M37 52H36V53H37V52Z" fill="#AC8B62"/>
<path d="M38 52H37V53H38V52Z" fill="#AC8B62"/>
<path d="M36 53H35V54H36V53Z" fill="#AC8B62"/>
<path d="M39 53H38V54H39V53Z" fill="#AC8B62"/>
<path d="M41 55H40V56H41V55Z" fill="#AC8B62"/>
<path d="M41 56H40V57H41V56Z" fill="#AC8B62"/>
<path d="M41 57H40V58H41V57Z" fill="#AC8B62"/>
<path d="M41 58H40V59H41V58Z" fill="#AC8B62"/>
<path d="M42 59H41V60H42V59Z" fill="#AC8B62"/>
<path d="M42 60H41V61H42V60Z" fill="#AC8B62"/>
<path d="M39 61H38V62H39V61Z" fill="#AC8B62"/>
<path d="M40 61H39V62H40V61Z" fill="#AC8B62"/>
<path d="M41 61H40V62H41V61Z" fill="#AC8B62"/>
<path d="M42 61H41V62H42V61Z" fill="#AC8B62"/>
<path d="M43 61H42V62H43V61Z" fill="#AC8B62"/>
<path d="M43 62H42V63H43V62Z" fill="#AC8B62"/>
<path d="M43 63H42V64H43V63Z" fill="#AC8B62"/>
<path d="M43 64H42V65H43V64Z" fill="#AC8B62"/>
<path d="M44 61H43V62H44V61Z" fill="#AC8B62"/>
<path d="M45 61H44V62H45V61Z" fill="#AC8B62"/>
<path d="M46 61H45V62H46V61Z" fill="#AC8B62"/>
<path d="M47 61H46V62H47V61Z" fill="#AC8B62"/>
<path d="M48 60H47V61H48V60Z" fill="#AC8B62"/>
<path d="M49 60H48V61H49V60Z" fill="#AC8B62"/>
<path d="M50 60H49V61H50V60Z" fill="#AC8B62"/>
<path d="M51 60H50V61H51V60Z" fill="#AC8B62"/>
<path d="M43 54H42V55H43V54Z" fill="#AC8B62"/>
<path d="M46 52H45V53H46V52Z" fill="#AC8B62"/>
<path d="M47 52H46V53H47V52Z" fill="#AC8B62"/>
<path d="M47 51H46V52H47V51Z" fill="#AC8B62"/>
<path d="M48 51H47V52H48V51Z" fill="#AC8B62"/>
<path d="M48 50H47V51H48V50Z" fill="#AC8B62"/>
<path d="M49 50H48V51H49V50Z" fill="#AC8B62"/>
<path d="M49 49H48V50H49V49Z" fill="#AC8B62"/>
<path d="M49 52H48V53H49V52Z" fill="#AC8B62"/>
<path d="M49 51H48V52H49V51Z" fill="#AC8B62"/>
<path d="M48 53H47V54H48V53Z" fill="#AC8B62"/>
<path d="M48 52H47V53H48V52Z" fill="#AC8B62"/>
<path d="M49 54H48V55H49V54Z" fill="#AC8B62"/>
<path d="M49 53H48V54H49V53Z" fill="#AC8B62"/>
<path d="M50 53H49V54H50V53Z" fill="#AC8B62"/>
<path d="M50 52H49V53H50V52Z" fill="#AC8B62"/>
<path d="M50 55H49V56H50V55Z" fill="#AC8B62"/>
<path d="M50 54H49V55H50V54Z" fill="#AC8B62"/>
<path d="M51 55H50V56H51V55Z" fill="#AC8B62"/>
<path d="M51 54H50V55H51V54Z" fill="#AC8B62"/>
<path d="M51 57H50V58H51V57Z" fill="#AC8B62"/>
<path d="M51 56H50V57H51V56Z" fill="#AC8B62"/>
<path d="M52 56H51V57H52V56Z" fill="#AC8B62"/>
<path d="M52 55H51V56H52V55Z" fill="#AC8B62"/>
<path d="M52 58H51V59H52V58Z" fill="#AC8B62"/>
<path d="M52 59H51V60H52V59Z" fill="#AC8B62"/>
<path d="M52 57H51V58H52V57Z" fill="#AC8B62"/>
<path d="M53 57H52V58H53V57Z" fill="#AC8B62"/>
<path d="M53 56H52V57H53V56Z" fill="#AC8B62"/>
<path d="M54 57H53V58H54V57Z" fill="#AC8B62"/>
<path d="M53 58H52V59H53V58Z" fill="#AC8B62"/>
<path d="M54 58H53V59H54V58Z" fill="#AC8B62"/>
<path d="M53 60H52V61H53V60Z" fill="#AC8B62"/>
<path d="M54 60H53V61H54V60Z" fill="#AC8B62"/>
<path d="M54 61H53V62H54V61Z" fill="#AC8B62"/>
<path d="M55 61H54V62H55V61Z" fill="#AC8B62"/>
<path d="M52 61H51V62H52V61Z" fill="#AC8B62"/>
<path d="M53 61H52V62H53V61Z" fill="#AC8B62"/>
<path d="M52 62H51V63H52V62Z" fill="#AC8B62"/>
<path d="M53 62H52V63H53V62Z" fill="#AC8B62"/>
<path d="M51 63H50V64H51V63Z" fill="#AC8B62"/>
<path d="M51 62H50V63H51V62Z" fill="#AC8B62"/>
<path d="M51 65H50V66H51V65Z" fill="#AC8B62"/>
<path d="M51 64H50V65H51V64Z" fill="#AC8B62"/>
<path d="M50 66H49V67H50V66Z" fill="#AC8B62"/>
<path d="M50 67H49V68H50V67Z" fill="#AC8B62"/>
<path d="M49 67H48V68H49V67Z" fill="#AC8B62"/>
<path d="M51 70H50V71H51V70Z" fill="#AC8B62"/>
<path d="M50 70H49V71H50V70Z" fill="#AC8B62"/>
<path d="M49 70H48V71H49V70Z" fill="#AC8B62"/>
<path d="M48 70H47V71H48V70Z" fill="#AC8B62"/>
<path d="M47 70H46V71H47V70Z" fill="#AC8B62"/>
<path d="M46 70H45V71H46V70Z" fill="#AC8B62"/>
<path d="M50 69H49V70H50V69Z" fill="#AC8B62"/>
<path d="M49 69H48V70H49V69Z" fill="#AC8B62"/>
<path d="M48 69H47V70H48V69Z" fill="#AC8B62"/>
<path d="M47 69H46V70H47V69Z" fill="#AC8B62"/>
<path d="M46 69H45V70H46V69Z" fill="#AC8B62"/>
<path d="M45 69H44V70H45V69Z" fill="#AC8B62"/>
<path d="M44 69H43V70H44V69Z" fill="#AC8B62"/>
<path d="M43 69H42V70H43V69Z" fill="#AC8B62"/>
<path d="M46 66H45V67H46V66Z" fill="#AC8B62"/>
<path d="M45 66H44V67H45V66Z" fill="#AC8B62"/>
<path d="M44 66H43V67H44V66Z" fill="#AC8B62"/>
<path d="M44 65H43V66H44V65Z" fill="#AC8B62"/>
<path d="M43 67H42V68H43V67Z" fill="#AC8B62"/>
<path d="M41 68H40V69H41V68Z" fill="#AC8B62"/>
<path d="M39 66H38V67H39V66Z" fill="#AC8B62"/>
<path d="M38 65H37V66H38V65Z" fill="#AC8B62"/>
<path d="M37 63H36V64H37V63Z" fill="#AC8B62"/>
<path d="M36 59H35V60H36V59Z" fill="#AC8B62"/>
<path d="M36 60H35V61H36V60Z" fill="#AC8B62"/>
<path d="M37 60H36V61H37V60Z" fill="#AC8B62"/>
<path d="M38 60H37V61H38V60Z" fill="#AC8B62"/>
<path d="M48 68H47V69H48V68Z" fill="#AC8B62"/>
<path d="M47 68H46V69H47V68Z" fill="#AC8B62"/>
<path d="M46 68H45V69H46V68Z" fill="#AC8B62"/>
<path d="M50 65H49V66H50V65Z" fill="#AC8B62"/>
<path d="M52 63H51V64H52V63Z" fill="#AC8B62"/>
<path d="M54 56H53V57H54V56Z" fill="#AC8B62"/>
<path d="M37 53H36V54H37V53Z" fill="#DEC58B"/>
<path d="M38 53H37V54H38V53Z" fill="#DEC58B"/>
<path d="M36 54H35V55H36V54Z" fill="#DEC58B"/>
<path d="M37 54H36V55H37V54Z" fill="#DEC58B"/>
<path d="M38 54H37V55H38V54Z" fill="#DEC58B"/>
<path d="M39 54H38V55H39V54Z" fill="#DEC58B"/>
<path d="M40 54H39V55H40V54Z" fill="#DEC58B"/>
<path d="M36 55H35V56H36V55Z" fill="#DEC58B"/>
<path d="M37 55H36V56H37V55Z" fill="#DEC58B"/>
<path d="M38 55H37V56H38V55Z" fill="#DEC58B"/>
<path d="M39 55H38V56H39V55Z" fill="#DEC58B"/>
<path d="M40 55H39V56H40V55Z" fill="#DEC58B"/>
<path d="M36 56H35V57H36V56Z" fill="#DEC58B"/>
<path d="M37 56H36V57H37V56Z" fill="#DEC58B"/>
<path d="M38 56H37V57H38V56Z" fill="#DEC58B"/>
<path d="M39 56H38V57H39V56Z" fill="#DEC58B"/>
<path d="M40 56H39V57H40V56Z" fill="#DEC58B"/>
<path d="M36 57H35V58H36V57Z" fill="#DEC58B"/>
<path d="M37 57H36V58H37V57Z" fill="#DEC58B"/>
<path d="M38 57H37V58H38V57Z" fill="#DEC58B"/>
<path d="M39 57H38V58H39V57Z" fill="#DEC58B"/>
<path d="M40 57H39V58H40V57Z" fill="#DEC58B"/>
<path d="M36 58H35V59H36V58Z" fill="#DEC58B"/>
<path d="M37 58H36V59H37V58Z" fill="#DEC58B"/>
<path d="M38 58H37V59H38V58Z" fill="#DEC58B"/>
<path d="M39 58H38V59H39V58Z" fill="#DEC58B"/>
<path d="M40 58H39V59H40V58Z" fill="#DEC58B"/>
<path d="M42 55H41V56H42V55Z" fill="#DEC58B"/>
<path d="M42 56H41V57H42V56Z" fill="#DEC58B"/>
<path d="M42 57H41V58H42V57Z" fill="#DEC58B"/>
<path d="M42 58H41V59H42V58Z" fill="#DEC58B"/>
<path d="M43 55H42V56H43V55Z" fill="#DEC58B"/>
<path d="M43 56H42V57H43V56Z" fill="#DEC58B"/>
<path d="M43 57H42V58H43V57Z" fill="#DEC58B"/>
<path d="M43 58H42V59H43V58Z" fill="#DEC58B"/>
<path d="M43 59H42V60H43V59Z" fill="#DEC58B"/>
<path d="M43 60H42V61H43V60Z" fill="#DEC58B"/>
<path d="M44 55H43V56H44V55Z" fill="#DEC58B"/>
<path d="M44 56H43V57H44V56Z" fill="#DEC58B"/>
<path d="M44 57H43V58H44V57Z" fill="#DEC58B"/>
<path d="M44 58H43V59H44V58Z" fill="#DEC58B"/>
<path d="M44 59H43V60H44V59Z" fill="#DEC58B"/>
<path d="M44 60H43V61H44V60Z" fill="#DEC58B"/>
<path d="M45 55H44V56H45V55Z" fill="#DEC58B"/>
<path d="M45 56H44V57H45V56Z" fill="#DEC58B"/>
<path d="M45 57H44V58H45V57Z" fill="#DEC58B"/>
<path d="M45 58H44V59H45V58Z" fill="#DEC58B"/>
<path d="M45 59H44V60H45V59Z" fill="#DEC58B"/>
<path d="M45 60H44V61H45V60Z" fill="#DEC58B"/>
<path d="M46 55H45V56H46V55Z" fill="#DEC58B"/>
<path d="M46 56H45V57H46V56Z" fill="#DEC58B"/>
<path d="M46 57H45V58H46V57Z" fill="#DEC58B"/>
<path d="M46 58H45V59H46V58Z" fill="#DEC58B"/>
<path d="M46 59H45V60H46V59Z" fill="#DEC58B"/>
<path d="M46 60H45V61H46V60Z" fill="#DEC58B"/>
<path d="M47 55H46V56H47V55Z" fill="#DEC58B"/>
<path d="M47 56H46V57H47V56Z" fill="#DEC58B"/>
<path d="M47 57H46V58H47V57Z" fill="#DEC58B"/>
<path d="M47 58H46V59H47V58Z" fill="#DEC58B"/>
<path d="M47 59H46V60H47V59Z" fill="#DEC58B"/>
<path d="M48 55H47V56H48V55Z" fill="#DEC58B"/>
<path d="M44 54H43V55H44V54Z" fill="#DEC58B"/>
<path d="M45 54H44V55H45V54Z" fill="#DEC58B"/>
<path d="M46 54H45V55H46V54Z" fill="#DEC58B"/>
<path d="M47 54H46V55H47V54Z" fill="#DEC58B"/>
<path d="M45 53H44V54H45V53Z" fill="#DEC58B"/>
<path d="M46 53H45V54H46V53Z" fill="#DEC58B"/>
<path d="M47 53H46V54H47V53Z" fill="#DEC58B"/>
<path d="M48 54H47V55H48V54Z" fill="#DEC58B"/>
<path d="M48 56H47V57H48V56Z" fill="#DEC58B"/>
<path d="M48 57H47V58H48V57Z" fill="#DEC58B"/>
<path d="M48 58H47V59H48V58Z" fill="#DEC58B"/>
<path d="M48 59H47V60H48V59Z" fill="#DEC58B"/>
<path d="M49 55H48V56H49V55Z" fill="#DEC58B"/>
<path d="M49 56H48V57H49V56Z" fill="#DEC58B"/>
<path d="M49 57H48V58H49V57Z" fill="#DEC58B"/>
<path d="M49 58H48V59H49V58Z" fill="#DEC58B"/>
<path d="M49 59H48V60H49V59Z" fill="#DEC58B"/>
<path d="M50 56H49V57H50V56Z" fill="#DEC58B"/>
<path d="M50 57H49V58H50V57Z" fill="#DEC58B"/>
<path d="M50 58H49V59H50V58Z" fill="#DEC58B"/>
<path d="M50 59H49V60H50V59Z" fill="#DEC58B"/>
<path d="M51 58H50V59H51V58Z" fill="#DEC58B"/>
<path d="M51 59H50V60H51V59Z" fill="#DEC58B"/>
<path d="M48 61H47V62H48V61Z" fill="#DEC58B"/>
<path d="M49 61H48V62H49V61Z" fill="#DEC58B"/>
<path d="M50 61H49V62H50V61Z" fill="#DEC58B"/>
<path d="M48 62H47V63H48V62Z" fill="#DEC58B"/>
<path d="M49 62H48V63H49V62Z" fill="#DEC58B"/>
<path d="M50 62H49V63H50V62Z" fill="#DEC58B"/>
<path d="M48 63H47V64H48V63Z" fill="#DEC58B"/>
<path d="M49 63H48V64H49V63Z" fill="#DEC58B"/>
<path d="M50 63H49V64H50V63Z" fill="#DEC58B"/>
<path d="M48 64H47V65H48V64Z" fill="#DEC58B"/>
<path d="M49 64H48V65H49V64Z" fill="#DEC58B"/>
<path d="M48 65H47V66H48V65Z" fill="#DEC58B"/>
<path d="M49 65H48V66H49V65Z" fill="#DEC58B"/>
<path d="M48 66H47V67H48V66Z" fill="#DEC58B"/>
<path d="M47 62H46V63H47V62Z" fill="#DEC58B"/>
<path d="M47 63H46V64H47V63Z" fill="#DEC58B"/>
<path d="M47 64H46V65H47V64Z" fill="#DEC58B"/>
<path d="M47 65H46V66H47V65Z" fill="#DEC58B"/>
<path d="M46 62H45V63H46V62Z" fill="#DEC58B"/>
<path d="M46 63H45V64H46V63Z" fill="#DEC58B"/>
<path d="M46 64H45V65H46V64Z" fill="#DEC58B"/>
<path d="M46 65H45V66H46V65Z" fill="#DEC58B"/>
<path d="M45 62H44V63H45V62Z" fill="#DEC58B"/>
<path d="M45 63H44V64H45V63Z" fill="#DEC58B"/>
<path d="M45 64H44V65H45V64Z" fill="#DEC58B"/>
<path d="M44 62H43V63H44V62Z" fill="#DEC58B"/>
<path d="M44 63H43V64H44V63Z" fill="#DEC58B"/>
<path d="M44 64H43V65H44V64Z" fill="#DEC58B"/>
<path d="M45 65H44V66H45V65Z" fill="#DEC58B"/>
<path d="M47 66H46V67H47V66Z" fill="#DEC58B"/>
<path d="M49 66H48V67H49V66Z" fill="#DEC58B"/>
<path d="M45 67H44V68H45V67Z" fill="#DEC58B"/>
<path d="M44 67H43V68H44V67Z" fill="#DEC58B"/>
<path d="M46 67H45V68H46V67Z" fill="#DEC58B"/>
<path d="M44 68H43V69H44V68Z" fill="#DEC58B"/>
<path d="M43 68H42V69H43V68Z" fill="#DEC58B"/>
<path d="M45 68H44V69H45V68Z" fill="#DEC58B"/>
<path d="M41 67H40V68H41V67Z" fill="#DEC58B"/>
<path d="M40 67H39V68H40V67Z" fill="#DEC58B"/>
<path d="M42 67H41V68H42V67Z" fill="#DEC58B"/>
<path d="M41 66H40V67H41V66Z" fill="#DEC58B"/>
<path d="M40 66H39V67H40V66Z" fill="#DEC58B"/>
<path d="M42 66H41V67H42V66Z" fill="#DEC58B"/>
<path d="M40 65H39V66H40V65Z" fill="#DEC58B"/>
<path d="M39 65H38V66H39V65Z" fill="#DEC58B"/>
<path d="M41 65H40V66H41V65Z" fill="#DEC58B"/>
<path d="M39 64H38V65H39V64Z" fill="#DEC58B"/>
<path d="M38 64H37V65H38V64Z" fill="#DEC58B"/>
<path d="M40 64H39V65H40V64Z" fill="#DEC58B"/>
<path d="M39 63H38V64H39V63Z" fill="#DEC58B"/>
<path d="M38 63H37V64H38V63Z" fill="#DEC58B"/>
<path d="M40 63H39V64H40V63Z" fill="#DEC58B"/>
<path d="M38 62H37V63H38V62Z" fill="#DEC58B"/>
<path d="M37 62H36V63H37V62Z" fill="#DEC58B"/>
<path d="M38 61H37V62H38V61Z" fill="#DEC58B"/>
<path d="M37 61H36V62H37V61Z" fill="#DEC58B"/>
<path d="M39 62H38V63H39V62Z" fill="#DEC58B"/>
<path d="M41 62H40V63H41V62Z" fill="#DEC58B"/>
<path d="M40 62H39V63H40V62Z" fill="#DEC58B"/>
<path d="M42 62H41V63H42V62Z" fill="#DEC58B"/>
<path d="M41 63H40V64H41V63Z" fill="#DEC58B"/>
<path d="M42 63H41V64H42V63Z" fill="#DEC58B"/>
<path d="M41 64H40V65H41V64Z" fill="#DEC58B"/>
<path d="M42 64H41V65H42V64Z" fill="#DEC58B"/>
<path d="M42 65H41V66H42V65Z" fill="#DEC58B"/>
<path d="M43 65H42V66H43V65Z" fill="#DEC58B"/>
<path d="M43 66H42V67H43V66Z" fill="#DEC58B"/>
<path d="M50 64H49V65H50V64Z" fill="#DEC58B"/>
<path d="M51 61H50V62H51V61Z" fill="#DEC58B"/>
<path d="M47 60H46V61H47V60Z" fill="#DEC58B"/>
<path d="M37 59H36V60H37V59Z" fill="#DEC58B"/>
<path d="M38 59H37V60H38V59Z" fill="#DEC58B"/>
<path d="M39 59H38V60H39V59Z" fill="#DEC58B"/>
<path d="M40 59H39V60H40V59Z" fill="#DEC58B"/>
<path d="M39 60H38V61H39V60Z" fill="#DEC58B"/>
<path d="M40 60H39V61H40V60Z" fill="#DEC58B"/>
<path d="M41 59H40V60H41V59Z" fill="#DEC58B"/>
<path d="M41 60H40V61H41V60Z" fill="#DEC58B"/>
<path d="M40 52H39V53H40V52Z" fill="#30414A"/>
<path d="M41 52H40V53H41V52Z" fill="#30414A"/>
<path d="M41 53H40V54H41V53Z" fill="#30414A"/>
<path d="M42 53H41V54H42V53Z" fill="#30414A"/>
<path d="M42 52H41V53H42V52Z" fill="#30414A"/>
<path d="M43 52H42V53H43V52Z" fill="#30414A"/>
<path d="M44 52H43V53H44V52Z" fill="#30414A"/>
<path d="M45 51H44V52H45V51Z" fill="#30414A"/>
<path d="M58 22H57V23H58V22Z" fill="#627BC5"/>
<path d="M50 27H49V28H50V27Z" fill="#627BC5"/>
<path d="M44 31H43V32H44V31Z" fill="#627BC5"/>
<path d="M45 31H44V32H45V31Z" fill="#627BC5"/>
<path d="M46 32H45V33H46V32Z" fill="#627BC5"/>
<path d="M47 32H46V33H47V32Z" fill="#627BC5"/>
<path d="M47 33H46V34H47V33Z" fill="#627BC5"/>
<path d="M47 34H46V35H47V34Z" fill="#627BC5"/>
<path d="M48 37H47V38H48V37Z" fill="#627BC5"/>
<path d="M40 41H39V42H40V41Z" fill="#627BC5"/>
<path d="M40 42H39V43H40V42Z" fill="#627BC5"/>
<path d="M42 48H41V49H42V48Z" fill="#627BC5"/>
<path d="M36 47H35V48H36V47Z" fill="#627BC5"/>
<path d="M42 49H41V50H42V49Z" fill="#627BC5"/>
<path d="M43 49H42V50H43V49Z" fill="#627BC5"/>
<path d="M44 49H43V50H44V49Z" fill="#627BC5"/>
<path d="M45 49H44V50H45V49Z" fill="#627BC5"/>
<path d="M46 49H45V50H46V49Z" fill="#627BC5"/>
<path d="M40 50H39V51H40V50Z" fill="#627BC5"/>
<path d="M41 50H40V51H41V50Z" fill="#627BC5"/>
<path d="M38 50H37V51H38V50Z" fill="#627BC5"/>
<path d="M39 50H38V51H39V50Z" fill="#627BC5"/>
<path d="M42 50H41V51H42V50Z" fill="#627BC5"/>
<path d="M43 50H42V51H43V50Z" fill="#627BC5"/>
<path d="M44 50H43V51H44V50Z" fill="#627BC5"/>
<path d="M30 56H29V57H30V56Z" fill="#627BC5"/>
<path d="M31 56H30V57H31V56Z" fill="#627BC5"/>
<path d="M28 56H27V57H28V56Z" fill="#627BC5"/>
<path d="M27 56H26V57H27V56Z" fill="#627BC5"/>
<path d="M27 55H26V56H27V55Z" fill="#627BC5"/>
<path d="M26 55H25V56H26V55Z" fill="#627BC5"/>
<path d="M26 54H25V55H26V54Z" fill="#627BC5"/>
<path d="M29 56H28V57H29V56Z" fill="#627BC5"/>
<path d="M32 56H31V57H32V56Z" fill="#627BC5"/>
<path d="M33 56H32V57H33V56Z" fill="#627BC5"/>
<path d="M34 56H33V57H34V56Z" fill="#627BC5"/>
<path d="M30 55H29V56H30V55Z" fill="#627BC5"/>
<path d="M31 55H30V56H31V55Z" fill="#627BC5"/>
<path d="M29 55H28V56H29V55Z" fill="#627BC5"/>
<path d="M32 55H31V56H32V55Z" fill="#627BC5"/>
<path d="M33 55H32V56H33V55Z" fill="#627BC5"/>
<path d="M34 55H33V56H34V55Z" fill="#627BC5"/>
<path d="M30 54H29V55H30V54Z" fill="#627BC5"/>
<path d="M31 54H30V55H31V54Z" fill="#627BC5"/>
<path d="M32 54H31V55H32V54Z" fill="#627BC5"/>
<path d="M33 54H32V55H33V54Z" fill="#627BC5"/>
<path d="M34 54H33V55H34V54Z" fill="#627BC5"/>
<path d="M30 53H29V54H30V53Z" fill="#627BC5"/>
<path d="M31 53H30V54H31V53Z" fill="#627BC5"/>
<path d="M32 53H31V54H32V53Z" fill="#627BC5"/>
<path d="M33 53H32V54H33V53Z" fill="#627BC5"/>
<path d="M34 53H33V54H34V53Z" fill="#627BC5"/>
<path d="M33 52H32V53H33V52Z" fill="#627BC5"/>
<path d="M34 52H33V53H34V52Z" fill="#627BC5"/>
<path d="M34 51H33V52H34V51Z" fill="#627BC5"/>
<path d="M35 52H34V53H35V52Z" fill="#627BC5"/>
<path d="M35 51H34V52H35V51Z" fill="#627BC5"/>
<path d="M34 50H33V51H34V50Z" fill="#627BC5"/>
<path d="M45 39H44V40H45V39Z" fill="#627BC5"/>
<path d="M32 46H31V47H32V46Z" fill="#627BC5"/>
<path d="M32 45H31V46H32V45Z" fill="#627BC5"/>
<path d="M33 45H32V46H33V45Z" fill="#627BC5"/>
<path d="M32 41H31V42H32V41Z" fill="#627BC5"/>
<path d="M32 40H31V41H32V40Z" fill="#627BC5"/>
<path d="M32 39H31V40H32V39Z" fill="#627BC5"/>
<path d="M32 38H31V39H32V38Z" fill="#627BC5"/>
<path d="M34 32H33V33H34V32Z" fill="#627BC5"/>
<path d="M34 31H33V32H34V31Z" fill="#627BC5"/>
<path d="M34 30H33V31H34V30Z" fill="#627BC5"/>
<path d="M34 29H33V30H34V29Z" fill="#627BC5"/>
<path d="M34 28H33V29H34V28Z" fill="#627BC5"/>
<path d="M33 27H32V28H33V27Z" fill="#627BC5"/>
<path d="M33 26H32V27H33V26Z" fill="#627BC5"/>
<path d="M33 25H32V26H33V25Z" fill="#627BC5"/>
<path d="M32 24H31V25H32V24Z" fill="#627BC5"/>
<path d="M32 47H31V48H32V47Z" fill="#627BC5"/>
<path d="M41 43H40V44H41V43Z" fill="#627BC5"/>
<path d="M43 42H42V43H43V42Z" fill="#627BC5"/>
<path d="M43 43H42V44H43V43Z" fill="#627BC5"/>
<path d="M49 40H48V41H49V40Z" fill="#627BC5"/>
<path d="M48 41H47V42H48V41Z" fill="#627BC5"/>
<path d="M49 41H48V42H49V41Z" fill="#627BC5"/>
<path d="M49 42H48V43H49V42Z" fill="#627BC5"/>
<path d="M49 43H48V44H49V43Z" fill="#627BC5"/>
<path d="M50 41H49V42H50V41Z" fill="#627BC5"/>
<path d="M50 42H49V43H50V42Z" fill="#627BC5"/>
<path d="M50 43H49V44H50V43Z" fill="#627BC5"/>
<path d="M49 44H48V45H49V44Z" fill="#627BC5"/>
<path d="M50 44H49V45H50V44Z" fill="#627BC5"/>
<path d="M49 45H48V46H49V45Z" fill="#627BC5"/>
<path d="M48 44H47V45H48V44Z" fill="#627BC5"/>
<path d="M48 45H47V46H48V45Z" fill="#627BC5"/>
<path d="M47 45H46V46H47V45Z" fill="#627BC5"/>
<path d="M47 46H46V47H47V46Z" fill="#627BC5"/>
<path d="M46 46H45V47H46V46Z" fill="#627BC5"/>
<path d="M45 46H44V47H45V46Z" fill="#627BC5"/>
<path d="M46 47H45V48H46V47Z" fill="#627BC5"/>
<path d="M49 46H48V47H49V46Z" fill="#627BC5"/>
<path d="M49 47H48V48H49V47Z" fill="#627BC5"/>
<path d="M54 46H53V47H54V46Z" fill="#627BC5"/>
<path d="M53 46H52V47H53V46Z" fill="#627BC5"/>
<path d="M52 46H51V47H52V46Z" fill="#627BC5"/>
<path d="M52 47H51V48H52V47Z" fill="#627BC5"/>
<path d="M51 47H50V48H51V47Z" fill="#627BC5"/>
<path d="M51 48H50V49H51V48Z" fill="#627BC5"/>
<path d="M51 49H50V50H51V49Z" fill="#627BC5"/>
<path d="M51 50H50V51H51V50Z" fill="#627BC5"/>
<path d="M51 51H50V52H51V51Z" fill="#627BC5"/>
<path d="M52 50H51V51H52V50Z" fill="#627BC5"/>
<path d="M52 51H51V52H52V51Z" fill="#627BC5"/>
<path d="M52 52H51V53H52V52Z" fill="#627BC5"/>
<path d="M52 53H51V54H52V53Z" fill="#627BC5"/>
<path d="M53 51H52V52H53V51Z" fill="#627BC5"/>
<path d="M53 52H52V53H53V52Z" fill="#627BC5"/>
<path d="M53 53H52V54H53V53Z" fill="#627BC5"/>
<path d="M54 51H53V52H54V51Z" fill="#627BC5"/>
<path d="M54 52H53V53H54V52Z" fill="#627BC5"/>
<path d="M54 53H53V54H54V53Z" fill="#627BC5"/>
<path d="M53 54H52V55H53V54Z" fill="#627BC5"/>
<path d="M54 54H53V55H54V54Z" fill="#627BC5"/>
<path d="M55 52H54V53H55V52Z" fill="#627BC5"/>
<path d="M55 53H54V54H55V53Z" fill="#627BC5"/>
<path d="M55 54H54V55H55V54Z" fill="#627BC5"/>
<path d="M56 52H55V53H56V52Z" fill="#627BC5"/>
<path d="M57 52H56V53H57V52Z" fill="#627BC5"/>
<path d="M56 53H55V54H56V53Z" fill="#627BC5"/>
<path d="M56 54H55V55H56V54Z" fill="#627BC5"/>
<path d="M56 55H55V56H56V55Z" fill="#627BC5"/>
<path d="M57 55H56V56H57V55Z" fill="#627BC5"/>
<path d="M58 55H57V56H58V55Z" fill="#627BC5"/>
<path d="M59 55H58V56H59V55Z" fill="#627BC5"/>
<path d="M60 55H59V56H60V55Z" fill="#627BC5"/>
<path d="M59 54H58V55H59V54Z" fill="#627BC5"/>
<path d="M60 54H59V55H60V54Z" fill="#627BC5"/>
<path d="M61 54H60V55H61V54Z" fill="#627BC5"/>
<path d="M62 54H61V55H62V54Z" fill="#627BC5"/>
<path d="M60 53H59V54H60V53Z" fill="#627BC5"/>
<path d="M61 53H60V54H61V53Z" fill="#627BC5"/>
<path d="M62 53H61V54H62V53Z" fill="#627BC5"/>
<path d="M60 52H59V53H60V52Z" fill="#627BC5"/>
<path d="M61 52H60V53H61V52Z" fill="#627BC5"/>
<path d="M62 52H61V53H62V52Z" fill="#627BC5"/>
<path d="M61 51H60V52H61V51Z" fill="#627BC5"/>
<path d="M60 49H59V50H60V49Z" fill="#627BC5"/>
<path d="M57 48H56V49H57V48Z" fill="#627BC5"/>
<path d="M56 47H55V48H56V47Z" fill="#627BC5"/>
<path d="M62 51H61V52H62V51Z" fill="#627BC5"/>
<path d="M63 51H62V52H63V51Z" fill="#627BC5"/>
<path d="M50 45H49V46H50V45Z" fill="#627BC5"/>
<path d="M51 41H50V42H51V41Z" fill="#627BC5"/>
<path d="M51 42H50V43H51V42Z" fill="#627BC5"/>
<path d="M51 43H50V44H51V43Z" fill="#627BC5"/>
<path d="M34 73H33V74H34V73Z" fill="#627BC5"/>
<path d="M35 74H34V75H35V74Z" fill="#627BC5"/>
<path d="M36 74H35V75H36V74Z" fill="#627BC5"/>
<path d="M37 74H36V75H37V74Z" fill="#627BC5"/>
<path d="M38 74H37V75H38V74Z" fill="#627BC5"/>
<path d="M39 74H38V75H39V74Z" fill="#627BC5"/>
<path d="M40 74H39V75H40V74Z" fill="#627BC5"/>
<path d="M36 73H35V74H36V73Z" fill="#627BC5"/>
<path d="M37 73H36V74H37V73Z" fill="#627BC5"/>
<path d="M38 73H37V74H38V73Z" fill="#627BC5"/>
<path d="M39 73H38V74H39V73Z" fill="#627BC5"/>
<path d="M40 73H39V74H40V73Z" fill="#627BC5"/>
<path d="M35 72H34V73H35V72Z" fill="#627BC5"/>
<path d="M36 72H35V73H36V72Z" fill="#627BC5"/>
<path d="M37 72H36V73H37V72Z" fill="#627BC5"/>
<path d="M38 72H37V73H38V72Z" fill="#627BC5"/>
<path d="M39 72H38V73H39V72Z" fill="#627BC5"/>
<path d="M35 71H34V72H35V71Z" fill="#627BC5"/>
<path d="M36 71H35V72H36V71Z" fill="#627BC5"/>
<path d="M37 71H36V72H37V71Z" fill="#627BC5"/>
<path d="M38 71H37V72H38V71Z" fill="#627BC5"/>
<path d="M39 71H38V72H39V71Z" fill="#627BC5"/>
<path d="M37 70H36V71H37V70Z" fill="#627BC5"/>
<path d="M38 70H37V71H38V70Z" fill="#627BC5"/>
<path d="M39 70H38V71H39V70Z" fill="#627BC5"/>
<path d="M40 70H39V71H40V70Z" fill="#627BC5"/>
<path d="M38 69H37V70H38V69Z" fill="#627BC5"/>
<path d="M39 69H38V70H39V69Z" fill="#627BC5"/>
<path d="M39 68H38V69H39V68Z" fill="#627BC5"/>
<path d="M40 69H39V70H40V69Z" fill="#627BC5"/>
<path d="M41 70H40V71H41V70Z" fill="#627BC5"/>
<path d="M40 71H39V72H40V71Z" fill="#627BC5"/>
<path d="M41 71H40V72H41V71Z" fill="#627BC5"/>
<path d="M42 70H41V71H42V70Z" fill="#627BC5"/>
<path d="M42 71H41V72H42V71Z" fill="#627BC5"/>
<path d="M60 65H59V66H60V65Z" fill="#627BC5"/>
<path d="M60 66H59V67H60V66Z" fill="#627BC5"/>
<path d="M60 67H59V68H60V67Z" fill="#627BC5"/>
<path d="M60 68H59V69H60V68Z" fill="#627BC5"/>
<path d="M61 67H60V68H61V67Z" fill="#627BC5"/>
<path d="M61 68H60V69H61V68Z" fill="#627BC5"/>
<path d="M59 69H58V70H59V69Z" fill="#627BC5"/>
<path d="M60 69H59V70H60V69Z" fill="#627BC5"/>
<path d="M61 69H60V70H61V69Z" fill="#627BC5"/>
<path d="M62 69H61V70H62V69Z" fill="#627BC5"/>
<path d="M59 70H58V71H59V70Z" fill="#627BC5"/>
<path d="M60 70H59V71H60V70Z" fill="#627BC5"/>
<path d="M61 70H60V71H61V70Z" fill="#627BC5"/>
<path d="M62 70H61V71H62V70Z" fill="#627BC5"/>
<path d="M59 71H58V72H59V71Z" fill="#627BC5"/>
<path d="M60 71H59V72H60V71Z" fill="#627BC5"/>
<path d="M61 71H60V72H61V71Z" fill="#627BC5"/>
<path d="M62 71H61V72H62V71Z" fill="#627BC5"/>
<path d="M59 72H58V73H59V72Z" fill="#627BC5"/>
<path d="M60 72H59V73H60V72Z" fill="#627BC5"/>
<path d="M61 72H60V73H61V72Z" fill="#627BC5"/>
<path d="M62 72H61V73H62V72Z" fill="#627BC5"/>
<path d="M59 73H58V74H59V73Z" fill="#627BC5"/>
<path d="M60 73H59V74H60V73Z" fill="#627BC5"/>
<path d="M61 73H60V74H61V73Z" fill="#627BC5"/>
<path d="M62 73H61V74H62V73Z" fill="#627BC5"/>
<path d="M59 74H58V75H59V74Z" fill="#627BC5"/>
<path d="M60 74H59V75H60V74Z" fill="#627BC5"/>
<path d="M61 74H60V75H61V74Z" fill="#627BC5"/>
<path d="M62 74H61V75H62V74Z" fill="#627BC5"/>
<path d="M63 72H62V73H63V72Z" fill="#627BC5"/>
<path d="M63 73H62V74H63V73Z" fill="#627BC5"/>
<path d="M63 74H62V75H63V74Z" fill="#627BC5"/>
<path d="M59 75H58V76H59V75Z" fill="#627BC5"/>
<path d="M58 71H57V72H58V71Z" fill="#627BC5"/>
<path d="M58 72H57V73H58V72Z" fill="#627BC5"/>
<path d="M58 73H57V74H58V73Z" fill="#627BC5"/>
<path d="M58 74H57V75H58V74Z" fill="#627BC5"/>
<path d="M58 75H57V76H58V75Z" fill="#627BC5"/>
<path d="M57 71H56V72H57V71Z" fill="#627BC5"/>
<path d="M57 72H56V73H57V72Z" fill="#627BC5"/>
<path d="M57 73H56V74H57V73Z" fill="#627BC5"/>
<path d="M56 72H55V73H56V72Z" fill="#627BC5"/>
<path d="M55 72H54V73H55V72Z" fill="#627BC5"/>
<path d="M56 73H55V74H56V73Z" fill="#627BC5"/>
<path d="M57 74H56V75H57V74Z" fill="#627BC5"/>
<path d="M57 75H56V76H57V75Z" fill="#627BC5"/>
<path d="M60 75H59V76H60V75Z" fill="#627BC5"/>
<path d="M61 75H60V76H61V75Z" fill="#627BC5"/>
<path d="M62 75H61V76H62V75Z" fill="#627BC5"/>
<path d="M40 72H39V73H40V72Z" fill="#627BC5"/>
<path d="M41 72H40V73H41V72Z" fill="#627BC5"/>
<path d="M41 73H40V74H41V73Z" fill="#627BC5"/>
<path d="M70 51H69V52H70V51Z" fill="#627BC5"/>
<path d="M70 50H69V51H70V50Z" fill="#627BC5"/>
<path d="M71 54H70V55H71V54Z" fill="#627BC5"/>
<path d="M71 53H70V54H71V53Z" fill="#627BC5"/>
<path d="M72 52H71V53H72V52Z" fill="#627BC5"/>
<path d="M73 51H72V52H73V51Z" fill="#627BC5"/>
<path d="M74 51H73V52H74V51Z" fill="#627BC5"/>
<path d="M75 51H74V52H75V51Z" fill="#627BC5"/>
<path d="M76 41H75V42H76V41Z" fill="#627BC5"/>
<path d="M75 40H74V41H75V40Z" fill="#627BC5"/>
<path d="M75 39H74V40H75V39Z" fill="#627BC5"/>
<path d="M68 44H67V45H68V44Z" fill="#627BC5"/>
<path d="M73 43H72V44H73V43Z" fill="#627BC5"/>
<path d="M76 51H75V52H76V51Z" fill="#627BC5"/>
<path d="M75 55H74V56H75V55Z" fill="#627BC5"/>
<path d="M32 23H31V24H32V23Z" fill="white"/>
<path d="M49 32H48V33H49V32Z" fill="white"/>
<path d="M48.98 31H48.02C48.009 31 48 31.009 48 31.02V31.98C48 31.991 48.009 32 48.02 32H48.98C48.991 32 49 31.991 49 31.98V31.02C49 31.009 48.991 31 48.98 31Z" fill="white"/>
<path d="M48.98 30H48.02C48.009 30 48 30.009 48 30.02V30.98C48 30.991 48.009 31 48.02 31H48.98C48.991 31 49 30.991 49 30.98V30.02C49 30.009 48.991 30 48.98 30Z" fill="white"/>
<path d="M49.98 31H49.02C49.009 31 49 31.009 49 31.02V31.98C49 31.991 49.009 32 49.02 32H49.98C49.991 32 50 31.991 50 31.98V31.02C50 31.009 49.991 31 49.98 31Z" fill="white"/>
<path d="M49.98 30H49.02C49.009 30 49 30.009 49 30.02V30.98C49 30.991 49.009 31 49.02 31H49.98C49.991 31 50 30.991 50 30.98V30.02C50 30.009 49.991 30 49.98 30Z" fill="white"/>
<path d="M49.98 29H49.02C49.009 29 49 29.009 49 29.02V29.98C49 29.991 49.009 30 49.02 30H49.98C49.991 30 50 29.991 50 29.98V29.02C50 29.009 49.991 29 49.98 29Z" fill="white"/>
<path d="M49.98 28H49.02C49.009 28 49 28.009 49 28.02V28.98C49 28.991 49.009 29 49.02 29H49.98C49.991 29 50 28.991 50 28.98V28.02C50 28.009 49.991 28 49.98 28Z" fill="white"/>
<path d="M50.98 28H50.02C50.009 28 50 28.009 50 28.02V28.98C50 28.991 50.009 29 50.02 29H50.98C50.991 29 51 28.991 51 28.98V28.02C51 28.009 50.991 28 50.98 28Z" fill="white"/>
<path d="M50.98 27H50.02C50.009 27 50 27.009 50 27.02V27.98C50 27.991 50.009 28 50.02 28H50.98C50.991 28 51 27.991 51 27.98V27.02C51 27.009 50.991 27 50.98 27Z" fill="white"/>
<path d="M51.98 27H51.02C51.009 27 51 27.009 51 27.02V27.98C51 27.991 51.009 28 51.02 28H51.98C51.991 28 52 27.991 52 27.98V27.02C52 27.009 51.991 27 51.98 27Z" fill="white"/>
<path d="M51.98 26H51.02C51.009 26 51 26.009 51 26.02V26.98C51 26.991 51.009 27 51.02 27H51.98C51.991 27 52 26.991 52 26.98V26.02C52 26.009 51.991 26 51.98 26Z" fill="white"/>
<path d="M52.98 26H52.02C52.009 26 52 26.009 52 26.02V26.98C52 26.991 52.009 27 52.02 27H52.98C52.991 27 53 26.991 53 26.98V26.02C53 26.009 52.991 26 52.98 26Z" fill="white"/>
<path d="M52.98 25H52.02C52.009 25 52 25.009 52 25.02V25.98C52 25.991 52.009 26 52.02 26H52.98C52.991 26 53 25.991 53 25.98V25.02C53 25.009 52.991 25 52.98 25Z" fill="white"/>
<path d="M53.98 25H53.02C53.009 25 53 25.009 53 25.02V25.98C53 25.991 53.009 26 53.02 26H53.98C53.991 26 54 25.991 54 25.98V25.02C54 25.009 53.991 25 53.98 25Z" fill="white"/>
<path d="M53.98 24H53.02C53.009 24 53 24.009 53 24.02V24.98C53 24.991 53.009 25 53.02 25H53.98C53.991 25 54 24.991 54 24.98V24.02C54 24.009 53.991 24 53.98 24Z" fill="white"/>
<path d="M54.98 24H54.02C54.009 24 54 24.009 54 24.02V24.98C54 24.991 54.009 25 54.02 25H54.98C54.991 25 55 24.991 55 24.98V24.02C55 24.009 54.991 24 54.98 24Z" fill="white"/>
<path d="M55.98 23H55.02C55.009 23 55 23.009 55 23.02V23.98C55 23.991 55.009 24 55.02 24H55.98C55.991 24 56 23.991 56 23.98V23.02C56 23.009 55.991 23 55.98 23Z" fill="white"/>
<path d="M56.98 23H56.02C56.009 23 56 23.009 56 23.02V23.98C56 23.991 56.009 24 56.02 24H56.98C56.991 24 57 23.991 57 23.98V23.02C57 23.009 56.991 23 56.98 23Z" fill="white"/>
<path d="M57.98 23H57.02C57.009 23 57 23.009 57 23.02V23.98C57 23.991 57.009 24 57.02 24H57.98C57.991 24 58 23.991 58 23.98V23.02C58 23.009 57.991 23 57.98 23Z" fill="white"/>
<path d="M32 22H31V23H32V22Z" fill="white"/>
<path d="M31 22H30V23H31V22Z" fill="white"/>
<path d="M31 23H30V24H31V23Z" fill="white"/>
<path d="M31 24H30V25H31V24Z" fill="white"/>
<path d="M31 25H30V26H31V25Z" fill="white"/>
<path d="M31 26H30V27H31V26Z" fill="white"/>
<path d="M30 27H29V28H30V27Z" fill="white"/>
<path d="M30 28H29V29H30V28Z" fill="white"/>
<path d="M30 29H29V30H30V29Z" fill="white"/>
<path d="M31 30H30V31H31V30Z" fill="white"/>
<path d="M31 31H30V32H31V31Z" fill="white"/>
<path d="M31 32H30V33H31V32Z" fill="white"/>
<path d="M31 33H30V34H31V33Z" fill="white"/>
<path d="M30 34H29V35H30V34Z" fill="white"/>
<path d="M30 35H29V36H30V35Z" fill="white"/>
<path d="M33 43H32V44H33V43Z" fill="white"/>
<path d="M34 42H33V43H34V42Z" fill="white"/>
<path d="M44 43H43V44H44V43Z" fill="white"/>
<path d="M46 42H45V43H46V42Z" fill="white"/>
<path d="M46 43H45V44H46V43Z" fill="white"/>
<path d="M46 44H45V45H46V44Z" fill="white"/>
<path d="M46 45H45V46H46V45Z" fill="white"/>
<path d="M47 48H46V49H47V48Z" fill="white"/>
<path d="M58 52H57V53H58V52Z" fill="white"/>
<path d="M61 50H60V51H61V50Z" fill="white"/>
<path d="M62 49H61V50H62V49Z" fill="white"/>
<path d="M64 48H63V49H64V48Z" fill="white"/>
<path d="M64 49H63V50H64V49Z" fill="white"/>
<path d="M64 50H63V51H64V50Z" fill="white"/>
<path d="M65 48H64V49H65V48Z" fill="white"/>
<path d="M65 49H64V50H65V49Z" fill="white"/>
<path d="M65 50H64V51H65V50Z" fill="white"/>
<path d="M66 48H65V49H66V48Z" fill="white"/>
<path d="M67 48H66V49H67V48Z" fill="white"/>
<path d="M65 47H64V48H65V47Z" fill="white"/>
<path d="M66 47H65V48H66V47Z" fill="white"/>
<path d="M67 47H66V48H67V47Z" fill="white"/>
<path d="M65 46H64V47H65V46Z" fill="white"/>
<path d="M66 46H65V47H66V46Z" fill="white"/>
<path d="M67 46H66V47H67V46Z" fill="white"/>
<path d="M65 45H64V46H65V45Z" fill="white"/>
<path d="M66 45H65V46H66V45Z" fill="white"/>
<path d="M67 45H66V46H67V45Z" fill="white"/>
<path d="M65 44H64V45H65V44Z" fill="white"/>
<path d="M66 44H65V45H66V44Z" fill="white"/>
<path d="M67 44H66V45H67V44Z" fill="white"/>
<path d="M65 43H64V44H65V43Z" fill="white"/>
<path d="M66 43H65V44H66V43Z" fill="white"/>
<path d="M67 43H66V44H67V43Z" fill="white"/>
<path d="M65 42H64V43H65V42Z" fill="white"/>
<path d="M66 42H65V43H66V42Z" fill="white"/>
<path d="M67 42H66V43H67V42Z" fill="white"/>
<path d="M66 41H65V42H66V41Z" fill="white"/>
<path d="M67 41H66V42H67V41Z" fill="white"/>
<path d="M68 41H67V42H68V41Z" fill="white"/>
<path d="M69 41H68V42H69V41Z" fill="white"/>
<path d="M67 40H66V41H67V40Z" fill="white"/>
<path d="M68 40H67V41H68V40Z" fill="white"/>
<path d="M69 40H68V41H69V40Z" fill="white"/>
<path d="M68 39H67V40H68V39Z" fill="white"/>
<path d="M69 39H68V40H69V39Z" fill="white"/>
<path d="M70 39H69V40H70V39Z" fill="white"/>
<path d="M70 38H69V39H70V38Z" fill="white"/>
<path d="M71 38H70V39H71V38Z" fill="white"/>
<path d="M72 38H71V39H72V38Z" fill="white"/>
<path d="M71 39H70V40H71V39Z" fill="white"/>
<path d="M72 39H71V40H72V39Z" fill="white"/>
<path d="M73 39H72V40H73V39Z" fill="white"/>
<path d="M70 40H69V41H70V40Z" fill="white"/>
<path d="M71 40H70V41H71V40Z" fill="white"/>
<path d="M72 40H71V41H72V40Z" fill="white"/>
<path d="M73 40H72V41H73V40Z" fill="white"/>
<path d="M74 40H73V41H74V40Z" fill="white"/>
<path d="M73 41H72V42H73V41Z" fill="white"/>
<path d="M74 41H73V42H74V41Z" fill="white"/>
<path d="M74 42H73V43H74V42Z" fill="white"/>
<path d="M75 42H74V43H75V42Z" fill="white"/>
<path d="M75 41H74V42H75V41Z" fill="white"/>
<path d="M74 43H73V44H74V43Z" fill="white"/>
<path d="M75 43H74V44H75V43Z" fill="white"/>
<path d="M74 44H73V45H74V44Z" fill="white"/>
<path d="M75 44H74V45H75V44Z" fill="white"/>
<path d="M72 45H71V46H72V45Z" fill="white"/>
<path d="M73 45H72V46H73V45Z" fill="white"/>
<path d="M73 44H72V45H73V44Z" fill="white"/>
<path d="M72 44H71V45H72V44Z" fill="white"/>
<path d="M72 43H71V44H72V43Z" fill="white"/>
<path d="M71 45H70V46H71V45Z" fill="white"/>
<path d="M71 44H70V45H71V44Z" fill="white"/>
<path d="M71 43H70V44H71V43Z" fill="white"/>
<path d="M70 45H69V46H70V45Z" fill="white"/>
<path d="M70 44H69V45H70V44Z" fill="white"/>
<path d="M69 44H68V45H69V44Z" fill="white"/>
<path d="M70 43H69V44H70V43Z" fill="white"/>
<path d="M71 42H70V43H71V42Z" fill="white"/>
<path d="M68 42H67V43H68V42Z" fill="white"/>
<path d="M66 49H65V50H66V49Z" fill="white"/>
<path d="M66 50H65V51H66V50Z" fill="white"/>
<path d="M25 52H24V53H25V52Z" fill="white"/>
<path d="M24 52H23V53H24V52Z" fill="white"/>
<path d="M33 44H32V45H33V44Z" fill="white"/>
<path d="M72 53H71V54H72V53Z" fill="white"/>
<path d="M73 53H72V54H73V53Z" fill="white"/>
<path d="M73 54H72V55H73V54Z" fill="white"/>
<path d="M74 53H73V54H74V53Z" fill="white"/>
<path d="M74 54H73V55H74V54Z" fill="white"/>
<path d="M74 52H73V53H74V52Z" fill="white"/>
<path d="M75 52H74V53H75V52Z" fill="white"/>
<path d="M75 53H74V54H75V53Z" fill="white"/>
<path d="M76 53H75V54H76V53Z" fill="white"/>
<path d="M76 54H75V55H76V54Z" fill="white"/>
<path d="M77 54H76V55H77V54Z" fill="white"/>
<path d="M77 55H76V56H77V55Z" fill="white"/>
<path d="M76 55H75V56H76V55Z" fill="white"/>
<path d="M76 56H75V57H76V56Z" fill="white"/>
<path d="M75 56H74V57H75V56Z" fill="white"/>
<path d="M75 57H74V58H75V57Z" fill="white"/>
<path d="M75 58H74V59H75V58Z" fill="white"/>
<path d="M74 57H73V58H74V57Z" fill="white"/>
<path d="M73 57H72V58H73V57Z" fill="white"/>
<path d="M73 58H72V59H73V58Z" fill="white"/>
<path d="M74 58H73V59H74V58Z" fill="white"/>
<path d="M73 59H72V60H73V59Z" fill="white"/>
<path d="M74 59H73V60H74V59Z" fill="white"/>
<path d="M76 57H75V58H76V57Z" fill="white"/>
<path d="M63 68H62V69H63V68Z" fill="#BDC5E6"/>
<path d="M64 68H63V69H64V68Z" fill="#BDC5E6"/>
<path d="M51 71H50V72H51V71Z" fill="#BDC5E6"/>
<path d="M52 71H51V72H52V71Z" fill="#BDC5E6"/>
<path d="M65 68H64V69H65V68Z" fill="#BDC5E6"/>
<path d="M66 68H65V69H66V68Z" fill="#BDC5E6"/>
<path d="M65 67H64V68H65V67Z" fill="#BDC5E6"/>
<path d="M66 67H65V68H66V67Z" fill="#BDC5E6"/>
<path d="M67 67H66V68H67V67Z" fill="#BDC5E6"/>
<path d="M68 67H67V68H68V67Z" fill="#BDC5E6"/>
<path d="M67 66H66V67H67V66Z" fill="#BDC5E6"/>
<path d="M68 66H67V67H68V66Z" fill="#BDC5E6"/>
<path d="M68 65H67V66H68V65Z" fill="#BDC5E6"/>
<path d="M69 65H68V66H69V65Z" fill="#BDC5E6"/>
<path d="M69 64H68V65H69V64Z" fill="#BDC5E6"/>
<path d="M70 63H69V64H70V63Z" fill="#BDC5E6"/>
<path d="M69 62H68V63H69V62Z" fill="#BDC5E6"/>
<path d="M68 63H67V64H68V63Z" fill="#BDC5E6"/>
<path d="M67 64H66V65H67V64Z" fill="#BDC5E6"/>
<path d="M66 64H65V65H66V64Z" fill="#BDC5E6"/>
<path d="M66 65H65V66H66V65Z" fill="#BDC5E6"/>
<path d="M65 64H64V65H65V64Z" fill="#BDC5E6"/>
<path d="M65 65H64V66H65V65Z" fill="#BDC5E6"/>
<path d="M64 64H63V65H64V64Z" fill="#BDC5E6"/>
<path d="M65 63H64V64H65V63Z" fill="#BDC5E6"/>
<path d="M64 63H63V64H64V63Z" fill="#BDC5E6"/>
<path d="M66 62H65V63H66V62Z" fill="#BDC5E6"/>
<path d="M66 61H65V62H66V61Z" fill="#BDC5E6"/>
<path d="M67 60H66V61H67V60Z" fill="#BDC5E6"/>
<path d="M68 58H67V59H68V58Z" fill="#BDC5E6"/>
<path d="M69 56H68V57H69V56Z" fill="#BDC5E6"/>
<path d="M70 53H69V54H70V53Z" fill="#BDC5E6"/>
<path d="M71 50H70V51H71V50Z" fill="#BDC5E6"/>
<path d="M71 49H70V50H71V49Z" fill="#BDC5E6"/>
<path d="M72 49H71V50H72V49Z" fill="#BDC5E6"/>
<path d="M73 47H72V48H73V47Z" fill="#BDC5E6"/>
<path d="M71 47H70V48H71V47Z" fill="#BDC5E6"/>
<path d="M70 47H69V48H70V47Z" fill="#BDC5E6"/>
<path d="M69 46H68V47H69V46Z" fill="#BDC5E6"/>
<path d="M69 48H68V49H69V48Z" fill="#BDC5E6"/>
<path d="M72 55H71V56H72V55Z" fill="#BDC5E6"/>
<path d="M74 55H73V56H74V55Z" fill="#BDC5E6"/>
<path d="M76 59H75V60H76V59Z" fill="#BDC5E6"/>
<path d="M77 57H76V58H77V57Z" fill="#BDC5E6"/>
<path d="M64 47H63V48H64V47Z" fill="#BDC5E6"/>
<path d="M48 32H47V33H48V32Z" fill="#BDC5E6"/>
<path d="M48 33H47V34H48V33Z" fill="#BDC5E6"/>
<path d="M48 34H47V35H48V34Z" fill="#BDC5E6"/>
<path d="M48 35H47V36H48V35Z" fill="#BDC5E6"/>
<path d="M48 36H47V37H48V36Z" fill="#BDC5E6"/>
<path d="M49 35H48V36H49V35Z" fill="#BDC5E6"/>
<path d="M49 36H48V37H49V36Z" fill="#BDC5E6"/>
<path d="M49 37H48V38H49V37Z" fill="#BDC5E6"/>
<path d="M49 38H48V39H49V38Z" fill="#BDC5E6"/>
<path d="M50 37H49V38H50V37Z" fill="#BDC5E6"/>
<path d="M50 38H49V39H50V38Z" fill="#BDC5E6"/>
<path d="M50 39H49V40H50V39Z" fill="#BDC5E6"/>
<path d="M46 40H45V41H46V40Z" fill="#BDC5E6"/>
<path d="M46 41H45V42H46V41Z" fill="#BDC5E6"/>
<path d="M47 41H46V42H47V41Z" fill="#BDC5E6"/>
<path d="M47 42H46V43H47V42Z" fill="#BDC5E6"/>
<path d="M47 43H46V44H47V43Z" fill="#BDC5E6"/>
<path d="M53 42H52V43H53V42Z" fill="#BDC5E6"/>
<path d="M53 43H52V44H53V43Z" fill="#BDC5E6"/>
<path d="M53 44H52V45H53V44Z" fill="#BDC5E6"/>
<path d="M52 44H51V45H52V44Z" fill="#BDC5E6"/>
<path d="M47 44H46V45H47V44Z" fill="#BDC5E6"/>
<path d="M51 37H50V38H51V37Z" fill="#BDC5E6"/>
<path d="M51 38H50V39H51V38Z" fill="#BDC5E6"/>
<path d="M51 39H50V40H51V39Z" fill="#BDC5E6"/>
<path d="M52 37H51V38H52V37Z" fill="#BDC5E6"/>
<path d="M54 35H53V36H54V35Z" fill="#BDC5E6"/>
<path d="M55 35H54V36H55V35Z" fill="#BDC5E6"/>
<path d="M55 32H54V33H55V32Z" fill="#BDC5E6"/>
<path d="M56 32H55V33H56V32Z" fill="#BDC5E6"/>
<path d="M54 27H53V28H54V27Z" fill="#BDC5E6"/>
<path d="M53 28H52V29H53V28Z" fill="#BDC5E6"/>
<path d="M51 29H50V30H51V29Z" fill="#BDC5E6"/>
<path d="M50 32H49V33H50V32Z" fill="#BDC5E6"/>
<path d="M55 27H54V28H55V27Z" fill="#BDC5E6"/>
<path d="M55 26H54V27H55V26Z" fill="#BDC5E6"/>
<path d="M56 26H55V27H56V26Z" fill="#BDC5E6"/>
<path d="M56 25H55V26H56V25Z" fill="#BDC5E6"/>
<path d="M57 25H56V26H57V25Z" fill="#BDC5E6"/>
<path d="M57 26H56V27H57V26Z" fill="#BDC5E6"/>
<path d="M57 24H56V25H57V24Z" fill="#BDC5E6"/>
<path d="M58 24H57V25H58V24Z" fill="#BDC5E6"/>
<path d="M58 25H57V26H58V25Z" fill="#BDC5E6"/>
<path d="M56 31H55V32H56V31Z" fill="#BDC5E6"/>
<path d="M56 30H55V31H56V30Z" fill="#BDC5E6"/>
<path d="M57 30H56V31H57V30Z" fill="#BDC5E6"/>
<path d="M57 29H56V30H57V29Z" fill="#BDC5E6"/>
<path d="M57 28H56V29H57V28Z" fill="#BDC5E6"/>
<path d="M52 38H51V39H52V38Z" fill="#BDC5E6"/>
<path d="M52 39H51V40H52V39Z" fill="#BDC5E6"/>
<path d="M53 36H52V37H53V36Z" fill="#BDC5E6"/>
<path d="M53 37H52V38H53V37Z" fill="#BDC5E6"/>
<path d="M54 37H53V38H54V37Z" fill="#BDC5E6"/>
<path d="M53 38H52V39H53V38Z" fill="#BDC5E6"/>
<path d="M65 62H64V63H65V62Z" fill="#BDC5E6"/>
<path d="M64 65H63V66H64V65Z" fill="#BDC5E6"/>
<path d="M63 64H62V65H63V64Z" fill="#BDC5E6"/>
<path d="M63 65H62V66H63V65Z" fill="#BDC5E6"/>
<path d="M64 66H63V67H64V66Z" fill="#BDC5E6"/>
<path d="M63 66H62V67H63V66Z" fill="#BDC5E6"/>
<path d="M62 65H61V66H62V65Z" fill="#BDC5E6"/>
<path d="M62 66H61V67H62V66Z" fill="#BDC5E6"/>
<path d="M70 65H69V66H70V65Z" fill="#BDC5E6"/>
<path d="M69 66H68V67H69V66Z" fill="#BDC5E6"/>
<path d="M71 65H70V66H71V65Z" fill="#BDC5E6"/>
<path d="M64 69H63V70H64V69Z" fill="#BDC5E6"/>
<path d="M33 23H32V24H33V23Z" fill="#BDC5E6"/>
<path d="M33 24H32V25H33V24Z" fill="#BDC5E6"/>
<path d="M32 25H31V26H32V25Z" fill="#BDC5E6"/>
<path d="M32 26H31V27H32V26Z" fill="#BDC5E6"/>
<path d="M32 27H31V28H32V27Z" fill="#BDC5E6"/>
<path d="M34 25H33V26H34V25Z" fill="#BDC5E6"/>
<path d="M34 26H33V27H34V26Z" fill="#BDC5E6"/>
<path d="M34 27H33V28H34V27Z" fill="#BDC5E6"/>
<path d="M35 28H34V29H35V28Z" fill="#BDC5E6"/>
<path d="M35 29H34V30H35V29Z" fill="#BDC5E6"/>
<path d="M35 30H34V31H35V30Z" fill="#BDC5E6"/>
<path d="M35 31H34V32H35V31Z" fill="#BDC5E6"/>
<path d="M32 28H31V29H32V28Z" fill="#BDC5E6"/>
<path d="M31 28H30V29H31V28Z" fill="#BDC5E6"/>
<path d="M31 29H30V30H31V29Z" fill="#BDC5E6"/>
<path d="M32 29H31V30H32V29Z" fill="#BDC5E6"/>
<path d="M33 29H32V30H33V29Z" fill="#BDC5E6"/>
<path d="M32 30H31V31H32V30Z" fill="#BDC5E6"/>
<path d="M33 30H32V31H33V30Z" fill="#BDC5E6"/>
<path d="M32 31H31V32H32V31Z" fill="#BDC5E6"/>
<path d="M33 31H32V32H33V31Z" fill="#BDC5E6"/>
<path d="M32 32H31V33H32V32Z" fill="#BDC5E6"/>
<path d="M33 32H32V33H33V32Z" fill="#BDC5E6"/>
<path d="M32 33H31V34H32V33Z" fill="#BDC5E6"/>
<path d="M32 34H31V35H32V34Z" fill="#BDC5E6"/>
<path d="M32 35H31V36H32V35Z" fill="#BDC5E6"/>
<path d="M33 40H32V41H33V40Z" fill="#BDC5E6"/>
<path d="M33 41H32V42H33V41Z" fill="#BDC5E6"/>
<path d="M33 42H32V43H33V42Z" fill="#BDC5E6"/>
<path d="M33 48H32V49H33V48Z" fill="#BDC5E6"/>
<path d="M34 45H33V46H34V45Z" fill="#BDC5E6"/>
<path d="M31 35H30V36H31V35Z" fill="#BDC5E6"/>
<path d="M31 36H30V37H31V36Z" fill="#BDC5E6"/>
<path d="M25 53H24V54H25V53Z" fill="#BDC5E6"/>
<path d="M27 53H26V54H27V53Z" fill="#BDC5E6"/>
<path d="M28 53H27V54H28V53Z" fill="#BDC5E6"/>
<path d="M58 53H57V54H58V53Z" fill="#BDC5E6"/>
<path d="M59 52H58V53H59V52Z" fill="#BDC5E6"/>
<path d="M62 50H61V51H62V50Z" fill="#BDC5E6"/>
<path d="M64 52H63V53H64V52Z" fill="#BDC5E6"/>
<path d="M63 52H62V53H63V52Z" fill="#BDC5E6"/>
<path d="M63 53H62V54H63V53Z" fill="#BDC5E6"/>
<path d="M56 57H55V58H56V57Z" fill="#BDC5E6"/>
<path d="M56 58H55V59H56V58Z" fill="#BDC5E6"/>
<path d="M56 59H55V60H56V59Z" fill="#BDC5E6"/>
<path d="M56 60H55V61H56V60Z" fill="#BDC5E6"/>
<path d="M57 59H56V60H57V59Z" fill="#BDC5E6"/>
<path d="M57 60H56V61H57V60Z" fill="#BDC5E6"/>
<path d="M57 61H56V62H57V61Z" fill="#BDC5E6"/>
<path d="M58 61H57V62H58V61Z" fill="#BDC5E6"/>
<path d="M59 62H58V63H59V62Z" fill="#BDC5E6"/>
<path d="M28 54H27V55H28V54Z" fill="#BDC5E6"/>
<path d="M26 56H25V57H26V56Z" fill="#BDC5E6"/>
<path d="M25 56H24V57H25V56Z" fill="#BDC5E6"/>
<path d="M31 37H30V38H31V37Z" fill="#BDC5E6"/>
<path d="M30 36H29V37H30V36Z" fill="#BDC5E6"/>
<path d="M33 33H32V34H33V33Z" fill="#BDC5E6"/>
<path d="M33 28H32V29H33V28Z" fill="#BDC5E6"/>
<path d="M49 33H48V34H49V33Z" fill="#D5EEF6"/>
<path d="M49 34H48V35H49V34Z" fill="#D5EEF6"/>
<path d="M51 33H50V34H51V33Z" fill="#D5EEF6"/>
<path d="M51 34H50V35H51V34Z" fill="#D5EEF6"/>
<path d="M51 35H50V36H51V35Z" fill="#D5EEF6"/>
<path d="M51 36H50V37H51V36Z" fill="#D5EEF6"/>
<path d="M52 33H51V34H52V33Z" fill="#D5EEF6"/>
<path d="M52 34H51V35H52V34Z" fill="#D5EEF6"/>
<path d="M52 35H51V36H52V35Z" fill="#D5EEF6"/>
<path d="M52 30H51V31H52V30Z" fill="#D5EEF6"/>
<path d="M52 31H51V32H52V31Z" fill="#D5EEF6"/>
<path d="M52 32H51V33H52V32Z" fill="#D5EEF6"/>
<path d="M53 33H52V34H53V33Z" fill="#D5EEF6"/>
<path d="M53 34H52V35H53V34Z" fill="#D5EEF6"/>
<path d="M53 35H52V36H53V35Z" fill="#D5EEF6"/>
<path d="M53 30H52V31H53V30Z" fill="#D5EEF6"/>
<path d="M53 29H52V30H53V29Z" fill="#D5EEF6"/>
<path d="M53 31H52V32H53V31Z" fill="#D5EEF6"/>
<path d="M53 32H52V33H53V32Z" fill="#D5EEF6"/>
<path d="M54 31H53V32H54V31Z" fill="#D5EEF6"/>
<path d="M54 32H53V33H54V32Z" fill="#D5EEF6"/>
<path d="M54 33H53V34H54V33Z" fill="#D5EEF6"/>
<path d="M54 34H53V35H54V34Z" fill="#D5EEF6"/>
<path d="M55 33H54V34H55V33Z" fill="#D5EEF6"/>
<path d="M55 34H54V35H55V34Z" fill="#D5EEF6"/>
<path d="M54 28H53V29H54V28Z" fill="#D5EEF6"/>
<path d="M54 29H53V30H54V29Z" fill="#D5EEF6"/>
<path d="M54 30H53V31H54V30Z" fill="#D5EEF6"/>
<path d="M55 31H54V32H55V31Z" fill="#D5EEF6"/>
<path d="M55 28H54V29H55V28Z" fill="#D5EEF6"/>
<path d="M55 29H54V30H55V29Z" fill="#D5EEF6"/>
<path d="M56 28H55V29H56V28Z" fill="#D5EEF6"/>
<path d="M56 29H55V30H56V29Z" fill="#D5EEF6"/>
<path d="M55 30H54V31H55V30Z" fill="#D5EEF6"/>
<path d="M52 36H51V37H52V36Z" fill="#D5EEF6"/>
<path d="M66 40H65V41H66V40Z" fill="#D5EEF6"/>
<path d="M67 39H66V40H67V39Z" fill="#D5EEF6"/>
<path d="M69 38H68V39H69V38Z" fill="#D5EEF6"/>
<path d="M74 39H73V40H74V39Z" fill="#D5EEF6"/>
<path d="M72 42H71V43H72V42Z" fill="#D5EEF6"/>
<path d="M70 42H69V43H70V42Z" fill="#D5EEF6"/>
<path d="M69 43H68V44H69V43Z" fill="#D5EEF6"/>
<path d="M69 45H68V46H69V45Z" fill="#D5EEF6"/>
<path d="M70 46H69V47H70V46Z" fill="#D5EEF6"/>
<path d="M71 46H70V47H71V46Z" fill="#D5EEF6"/>
<path d="M72 46H71V47H72V46Z" fill="#D5EEF6"/>
<path d="M73 46H72V47H73V46Z" fill="#D5EEF6"/>
<path d="M74 46H73V47H74V46Z" fill="#D5EEF6"/>
<path d="M74 45H73V46H74V45Z" fill="#D5EEF6"/>
<path d="M75 45H74V46H75V45Z" fill="#D5EEF6"/>
<path d="M74 48H73V49H74V48Z" fill="#D5EEF6"/>
<path d="M75 48H74V49H75V48Z" fill="#D5EEF6"/>
<path d="M74 49H73V50H74V49Z" fill="#D5EEF6"/>
<path d="M75 49H74V50H75V49Z" fill="#D5EEF6"/>
<path d="M74 50H73V51H74V50Z" fill="#D5EEF6"/>
<path d="M73 49H72V50H73V49Z" fill="#D5EEF6"/>
<path d="M73 50H72V51H73V50Z" fill="#D5EEF6"/>
<path d="M72 50H71V51H72V50Z" fill="#D5EEF6"/>
<path d="M72 51H71V52H72V51Z" fill="#D5EEF6"/>
<path d="M71 51H70V52H71V51Z" fill="#D5EEF6"/>
<path d="M71 52H70V53H71V52Z" fill="#D5EEF6"/>
<path d="M68 47H67V48H68V47Z" fill="#D5EEF6"/>
<path d="M68 48H67V49H68V48Z" fill="#D5EEF6"/>
<path d="M67 49H66V50H67V49Z" fill="#D5EEF6"/>
<path d="M68 49H67V50H68V49Z" fill="#D5EEF6"/>
<path d="M69 49H68V50H69V49Z" fill="#D5EEF6"/>
<path d="M67 50H66V51H67V50Z" fill="#D5EEF6"/>
<path d="M68 50H67V51H68V50Z" fill="#D5EEF6"/>
<path d="M69 50H68V51H69V50Z" fill="#D5EEF6"/>
<path d="M67 51H66V52H67V51Z" fill="#D5EEF6"/>
<path d="M68 51H67V52H68V51Z" fill="#D5EEF6"/>
<path d="M69 51H68V52H69V51Z" fill="#D5EEF6"/>
<path d="M67 52H66V53H67V52Z" fill="#D5EEF6"/>
<path d="M66 51H65V52H66V51Z" fill="#D5EEF6"/>
<path d="M66 52H65V53H66V52Z" fill="#D5EEF6"/>
<path d="M68 52H67V53H68V52Z" fill="#D5EEF6"/>
<path d="M67 53H66V54H67V53Z" fill="#D5EEF6"/>
<path d="M66 53H65V54H66V53Z" fill="#D5EEF6"/>
<path d="M68 53H67V54H68V53Z" fill="#D5EEF6"/>
<path d="M67 54H66V55H67V54Z" fill="#D5EEF6"/>
<path d="M66 54H65V55H66V54Z" fill="#D5EEF6"/>
<path d="M68 54H67V55H68V54Z" fill="#D5EEF6"/>
<path d="M67 55H66V56H67V55Z" fill="#D5EEF6"/>
<path d="M66 55H65V56H66V55Z" fill="#D5EEF6"/>
<path d="M65 53H64V54H65V53Z" fill="#D5EEF6"/>
<path d="M65 54H64V55H65V54Z" fill="#D5EEF6"/>
<path d="M65 55H64V56H65V55Z" fill="#D5EEF6"/>
<path d="M64 54H63V55H64V54Z" fill="#D5EEF6"/>
<path d="M64 55H63V56H64V55Z" fill="#D5EEF6"/>
<path d="M64 56H63V57H64V56Z" fill="#D5EEF6"/>
<path d="M63 55H62V56H63V55Z" fill="#D5EEF6"/>
<path d="M63 56H62V57H63V56Z" fill="#D5EEF6"/>
<path d="M63 57H62V58H63V57Z" fill="#D5EEF6"/>
<path d="M62 61H61V62H62V61Z" fill="#D5EEF6"/>
<path d="M62 62H61V63H62V62Z" fill="#D5EEF6"/>
<path d="M63 61H62V62H63V61Z" fill="#D5EEF6"/>
<path d="M63 62H62V63H63V62Z" fill="#D5EEF6"/>
<path d="M61 64H60V65H61V64Z" fill="#D5EEF6"/>
<path d="M62 64H61V65H62V64Z" fill="#D5EEF6"/>
<path d="M66 63H65V64H66V63Z" fill="#D5EEF6"/>
<path d="M67 63H66V64H67V63Z" fill="#D5EEF6"/>
<path d="M67 62H66V63H67V62Z" fill="#D5EEF6"/>
<path d="M68 62H67V63H68V62Z" fill="#D5EEF6"/>
<path d="M67 61H66V62H67V61Z" fill="#D5EEF6"/>
<path d="M68 61H67V62H68V61Z" fill="#D5EEF6"/>
<path d="M68 59H67V60H68V59Z" fill="#D5EEF6"/>
<path d="M69 59H68V60H69V59Z" fill="#D5EEF6"/>
<path d="M68 60H67V61H68V60Z" fill="#D5EEF6"/>
<path d="M69 60H68V61H69V60Z" fill="#D5EEF6"/>
<path d="M69 61H68V62H69V61Z" fill="#D5EEF6"/>
<path d="M70 59H69V60H70V59Z" fill="#D5EEF6"/>
<path d="M70 60H69V61H70V60Z" fill="#D5EEF6"/>
<path d="M63 59H62V60H63V59Z" fill="#D5EEF6"/>
<path d="M63 60H62V61H63V60Z" fill="#D5EEF6"/>
<path d="M64 59H63V60H64V59Z" fill="#D5EEF6"/>
<path d="M64 60H63V61H64V60Z" fill="#D5EEF6"/>
<path d="M65 59H64V60H65V59Z" fill="#D5EEF6"/>
<path d="M65 60H64V61H65V60Z" fill="#D5EEF6"/>
<path d="M66 58H65V59H66V58Z" fill="#D5EEF6"/>
<path d="M66 59H65V60H66V59Z" fill="#D5EEF6"/>
<path d="M67 56H66V57H67V56Z" fill="#D5EEF6"/>
<path d="M67 57H66V58H67V57Z" fill="#D5EEF6"/>
<path d="M66 56H65V57H66V56Z" fill="#D5EEF6"/>
<path d="M66 57H65V58H66V57Z" fill="#D5EEF6"/>
<path d="M65 56H64V57H65V56Z" fill="#D5EEF6"/>
<path d="M65 57H64V58H65V57Z" fill="#D5EEF6"/>
<path d="M64 57H63V58H64V57Z" fill="#D5EEF6"/>
<path d="M64 58H63V59H64V58Z" fill="#D5EEF6"/>
<path d="M64 61H63V62H64V61Z" fill="#D5EEF6"/>
<path d="M63 58H62V59H63V58Z" fill="#D5EEF6"/>
<path d="M65 58H64V59H65V58Z" fill="#D5EEF6"/>
<path d="M68 55H67V56H68V55Z" fill="#D5EEF6"/>
<path d="M70 54H69V55H70V54Z" fill="#D5EEF6"/>
<path d="M70 55H69V56H70V55Z" fill="#D5EEF6"/>
<path d="M70 56H69V57H70V56Z" fill="#D5EEF6"/>
<path d="M71 56H70V57H71V56Z" fill="#D5EEF6"/>
<path d="M71 57H70V58H71V57Z" fill="#D5EEF6"/>
<path d="M70 57H69V58H70V57Z" fill="#D5EEF6"/>
<path d="M69 57H68V58H69V57Z" fill="#D5EEF6"/>
<path d="M71 58H70V59H71V58Z" fill="#D5EEF6"/>
<path d="M72 57H71V58H72V57Z" fill="#D5EEF6"/>
<path d="M73 52H72V53H73V52Z" fill="#D5EEF6"/>
<path d="M76 52H75V53H76V52Z" fill="#D5EEF6"/>
<path d="M77 53H76V54H77V53Z" fill="#D5EEF6"/>
<path d="M73 55H72V56H73V55Z" fill="#D5EEF6"/>
<path d="M72 54H71V55H72V54Z" fill="#D5EEF6"/>
<path d="M77 56H76V57H77V56Z" fill="#D5EEF6"/>
<path d="M76 58H75V59H76V58Z" fill="#D5EEF6"/>
<path d="M72 58H71V59H72V58Z" fill="#D5EEF6"/>
<path d="M72 59H71V60H72V59Z" fill="#D5EEF6"/>
<path d="M72 60H71V61H72V60Z" fill="#D5EEF6"/>
<path d="M72 61H71V62H72V61Z" fill="#D5EEF6"/>
<path d="M72 62H71V63H72V62Z" fill="#D5EEF6"/>
<path d="M72 63H71V64H72V63Z" fill="#D5EEF6"/>
<path d="M73 60H72V61H73V60Z" fill="#D5EEF6"/>
<path d="M73 61H72V62H73V61Z" fill="#D5EEF6"/>
<path d="M73 62H72V63H73V62Z" fill="#D5EEF6"/>
<path d="M74 60H73V61H74V60Z" fill="#D5EEF6"/>
<path d="M74 61H73V62H74V61Z" fill="#D5EEF6"/>
<path d="M74 62H73V63H74V62Z" fill="#D5EEF6"/>
<path d="M75 59H74V60H75V59Z" fill="#D5EEF6"/>
<path d="M75 60H74V61H75V60Z" fill="#D5EEF6"/>
<path d="M75 61H74V62H75V61Z" fill="#D5EEF6"/>
<path d="M73 63H72V64H73V63Z" fill="#D5EEF6"/>
<path d="M72 64H71V65H72V64Z" fill="#D5EEF6"/>
<path d="M71 61H70V62H71V61Z" fill="#D5EEF6"/>
<path d="M71 62H70V63H71V62Z" fill="#D5EEF6"/>
<path d="M71 63H70V64H71V63Z" fill="#D5EEF6"/>
<path d="M71 64H70V65H71V64Z" fill="#D5EEF6"/>
<path d="M70 64H69V65H70V64Z" fill="#D5EEF6"/>
<path d="M70 58H69V59H70V58Z" fill="#D5EEF6"/>
<path d="M69 58H68V59H69V58Z" fill="#D5EEF6"/>
<path d="M69 52H68V53H69V52Z" fill="#D5EEF6"/>
<path d="M75 50H74V51H75V50Z" fill="#D5EEF6"/>
<path d="M72 47H71V48H72V47Z" fill="#D5EEF6"/>
<path d="M36 64H35V65H36V64Z" fill="#ACC5FF"/>
<path d="M36 65H35V66H36V65Z" fill="#ACC5FF"/>
<path d="M35 65H34V66H35V65Z" fill="#ACC5FF"/>
<path d="M36 66H35V67H36V66Z" fill="#ACC5FF"/>
<path d="M35 66H34V67H35V66Z" fill="#ACC5FF"/>
<path d="M36 67H35V68H36V67Z" fill="#ACC5FF"/>
<path d="M35 67H34V68H35V67Z" fill="#ACC5FF"/>
<path d="M36 68H35V69H36V68Z" fill="#ACC5FF"/>
<path d="M54 64H53V65H54V64Z" fill="#ACC5FF"/>
<path d="M55 64H54V65H55V64Z" fill="#ACC5FF"/>
<path d="M53 65H52V66H53V65Z" fill="#ACC5FF"/>
<path d="M35 33H34V34H35V33Z" fill="#ACC5FF"/>
<path d="M35 34H34V35H35V34Z" fill="#ACC5FF"/>
<path d="M36 34H35V35H36V34Z" fill="#ACC5FF"/>
<path d="M34 34H33V35H34V34Z" fill="#ACC5FF"/>
<path d="M35 35H34V36H35V35Z" fill="#ACC5FF"/>
<path d="M36 35H35V36H36V35Z" fill="#ACC5FF"/>
<path d="M34 35H33V36H34V35Z" fill="#ACC5FF"/>
<path d="M35 36H34V37H35V36Z" fill="#ACC5FF"/>
<path d="M36 36H35V37H36V36Z" fill="#ACC5FF"/>
<path d="M34 36H33V37H34V36Z" fill="#ACC5FF"/>
<path d="M33 36H32V37H33V36Z" fill="#ACC5FF"/>
<path d="M35 37H34V38H35V37Z" fill="#ACC5FF"/>
<path d="M34 37H33V38H34V37Z" fill="#ACC5FF"/>
<path d="M54 65H53V66H54V65Z" fill="#ACC5FF"/>
<path d="M55 65H54V66H55V65Z" fill="#ACC5FF"/>
<path d="M56 65H55V66H56V65Z" fill="#ACC5FF"/>
<path d="M53 66H52V67H53V66Z" fill="#ACC5FF"/>
<path d="M54 66H53V67H54V66Z" fill="#ACC5FF"/>
<path d="M55 66H54V67H55V66Z" fill="#ACC5FF"/>
<path d="M56 66H55V67H56V66Z" fill="#ACC5FF"/>
<path d="M53 67H52V68H53V67Z" fill="#ACC5FF"/>
<path d="M54 67H53V68H54V67Z" fill="#ACC5FF"/>
<path d="M55 67H54V68H55V67Z" fill="#ACC5FF"/>
<path d="M56 67H55V68H56V67Z" fill="#ACC5FF"/>
<path d="M53 68H52V69H53V68Z" fill="#ACC5FF"/>
<path d="M52 66H51V67H52V66Z" fill="#ACC5FF"/>
<path d="M52 67H51V68H52V67Z" fill="#ACC5FF"/>
<path d="M52 68H51V69H52V68Z" fill="#ACC5FF"/>
<path d="M54 68H53V69H54V68Z" fill="#ACC5FF"/>
<path d="M55 68H54V69H55V68Z" fill="#ACC5FF"/>
<path d="M53 69H52V70H53V69Z" fill="#ACC5FF"/>
<path d="M54 69H53V70H54V69Z" fill="#ACC5FF"/>
<path d="M55 69H54V70H55V69Z" fill="#ACC5FF"/>
<path d="M56 68H55V69H56V68Z" fill="#ACC5FF"/>
<path d="M35 68H34V69H35V68Z" fill="#ACC5FF"/>
<path d="M34 67H33V68H34V67Z" fill="#ACC5FF"/>
<path d="M34 68H33V69H34V68Z" fill="#ACC5FF"/>
<path d="M35 69H34V70H35V69Z" fill="#ACC5FF"/>
<path d="M34 69H33V70H34V69Z" fill="#ACC5FF"/>
<path d="M32 21H31V22H32V21Z" fill="#8BACF6"/>
<path d="M31 21H30V22H31V21Z" fill="#8BACF6"/>
<path d="M57 22H56V23H57V22Z" fill="#8BACF6"/>
<path d="M56 22H55V23H56V22Z" fill="#8BACF6"/>
<path d="M55 23H54V24H55V23Z" fill="#8BACF6"/>
<path d="M54 23H53V24H54V23Z" fill="#8BACF6"/>
<path d="M53 24H52V25H53V24Z" fill="#8BACF6"/>
<path d="M52 25H51V26H52V25Z" fill="#8BACF6"/>
<path d="M51 26H50V27H51V26Z" fill="#8BACF6"/>
<path d="M30 22H29V23H30V22Z" fill="#8BACF6"/>
<path d="M30 23H29V24H30V23Z" fill="#8BACF6"/>
<path d="M30 24H29V25H30V24Z" fill="#8BACF6"/>
<path d="M31 27H30V28H31V27Z" fill="#8BACF6"/>
<path d="M51 30H50V31H51V30Z" fill="#8BACF6"/>
<path d="M51 31H50V32H51V31Z" fill="#8BACF6"/>
<path d="M52 28H51V29H52V28Z" fill="#8BACF6"/>
<path d="M53 27H52V28H53V27Z" fill="#8BACF6"/>
<path d="M54 26H53V27H54V26Z" fill="#8BACF6"/>
<path d="M55 25H54V26H55V25Z" fill="#8BACF6"/>
<path d="M56 24H55V25H56V24Z" fill="#8BACF6"/>
<path d="M56 27H55V28H56V27Z" fill="#8BACF6"/>
<path d="M52 29H51V30H52V29Z" fill="#8BACF6"/>
<path d="M51 32H50V33H51V32Z" fill="#8BACF6"/>
<path d="M50 33H49V34H50V33Z" fill="#8BACF6"/>
<path d="M50 34H49V35H50V34Z" fill="#8BACF6"/>
<path d="M50 35H49V36H50V35Z" fill="#8BACF6"/>
<path d="M50 36H49V37H50V36Z" fill="#8BACF6"/>
<path d="M64 42H63V43H64V42Z" fill="#8BACF6"/>
<path d="M64 43H63V44H64V43Z" fill="#8BACF6"/>
<path d="M65 40H64V41H65V40Z" fill="#8BACF6"/>
<path d="M66 39H65V40H66V39Z" fill="#8BACF6"/>
<path d="M67 38H66V39H67V38Z" fill="#8BACF6"/>
<path d="M68 38H67V39H68V38Z" fill="#8BACF6"/>
<path d="M68 37H67V38H68V37Z" fill="#8BACF6"/>
<path d="M69 37H68V38H69V37Z" fill="#8BACF6"/>
<path d="M70 37H69V38H70V37Z" fill="#8BACF6"/>
<path d="M71 37H70V38H71V37Z" fill="#8BACF6"/>
<path d="M72 37H71V38H72V37Z" fill="#8BACF6"/>
<path d="M70 41H69V42H70V41Z" fill="#8BACF6"/>
<path d="M69 42H68V43H69V42Z" fill="#8BACF6"/>
<path d="M68 43H67V44H68V43Z" fill="#8BACF6"/>
<path d="M70 52H69V53H70V52Z" fill="#8BACF6"/>
<path d="M75 54H74V55H75V54Z" fill="#8BACF6"/>
<path d="M71 41H70V42H71V41Z" fill="#8BACF6"/>
<path d="M72 41H71V42H72V41Z" fill="#8BACF6"/>
<path d="M73 42H72V43H73V42Z" fill="#8BACF6"/>
<path d="M73 38H72V39H73V38Z" fill="#8BACF6"/>
<path d="M74 38H73V39H74V38Z" fill="#8BACF6"/>
<path d="M65 41H64V42H65V41Z" fill="#8BACF6"/>
<path d="M64 44H63V45H64V44Z" fill="#8BACF6"/>
<path d="M64 45H63V46H64V45Z" fill="#8BACF6"/>
<path d="M64 46H63V47H64V46Z" fill="#8BACF6"/>
<path d="M69 53H68V54H69V53Z" fill="#8BACF6"/>
<path d="M69 54H68V55H69V54Z" fill="#8BACF6"/>
<path d="M69 55H68V56H69V55Z" fill="#8BACF6"/>
<path d="M68 56H67V57H68V56Z" fill="#8BACF6"/>
<path d="M68 57H67V58H68V57Z" fill="#8BACF6"/>
<path d="M67 58H66V59H67V58Z" fill="#8BACF6"/>
<path d="M67 59H66V60H67V59Z" fill="#8BACF6"/>
<path d="M66 60H65V61H66V60Z" fill="#8BACF6"/>
<path d="M65 61H64V62H65V61Z" fill="#8BACF6"/>
<path d="M64 62H63V63H64V62Z" fill="#8BACF6"/>
<path d="M63 63H62V64H63V63Z" fill="#8BACF6"/>
<path d="M62 63H61V64H62V63Z" fill="#8BACF6"/>
<path d="M64 67H63V68H64V67Z" fill="#8BACF6"/>
<path d="M63 67H62V68H63V67Z" fill="#8BACF6"/>
<path d="M64 75H63V76H64V75Z" fill="#8BACF6"/>
<path d="M63 75H62V76H63V75Z" fill="#8BACF6"/>
<path d="M62 76H61V77H62V76Z" fill="#8BACF6"/>
<path d="M61 76H60V77H61V76Z" fill="#8BACF6"/>
<path d="M59 76H58V77H59V76Z" fill="#8BACF6"/>
<path d="M58 76H57V77H58V76Z" fill="#8BACF6"/>
<path d="M54 70H53V71H54V70Z" fill="#8BACF6"/>
<path d="M53 70H52V71H53V70Z" fill="#8BACF6"/>
<path d="M55 71H54V72H55V71Z" fill="#8BACF6"/>
<path d="M54 71H53V72H54V71Z" fill="#8BACF6"/>
<path d="M39 75H38V76H39V75Z" fill="#8BACF6"/>
<path d="M38 75H37V76H38V75Z" fill="#8BACF6"/>
<path d="M36 75H35V76H36V75Z" fill="#8BACF6"/>
<path d="M35 75H34V76H35V75Z" fill="#8BACF6"/>
<path d="M34 74H33V75H34V74Z" fill="#8BACF6"/>
<path d="M33 74H32V75H33V74Z" fill="#8BACF6"/>
<path d="M35 70H34V71H35V70Z" fill="#8BACF6"/>
<path d="M36 70H35V71H36V70Z" fill="#8BACF6"/>
<path d="M36 69H35V70H36V69Z" fill="#8BACF6"/>
<path d="M37 69H36V70H37V69Z" fill="#8BACF6"/>
<path d="M37 68H36V69H37V68Z" fill="#8BACF6"/>
<path d="M37 67H36V68H37V67Z" fill="#8BACF6"/>
<path d="M38 68H37V69H38V68Z" fill="#8BACF6"/>
<path d="M38 67H37V68H38V67Z" fill="#8BACF6"/>
<path d="M37 66H36V67H37V66Z" fill="#8BACF6"/>
<path d="M34 70H33V71H34V70Z" fill="#8BACF6"/>
<path d="M56 70H55V71H56V70Z" fill="#8BACF6"/>
<path d="M56 71H55V72H56V71Z" fill="#8BACF6"/>
<path d="M55 70H54V71H55V70Z" fill="#8BACF6"/>
<path d="M58 70H57V71H58V70Z" fill="#8BACF6"/>
<path d="M57 70H56V71H57V70Z" fill="#8BACF6"/>
<path d="M57 69H56V70H57V69Z" fill="#8BACF6"/>
<path d="M58 69H57V70H58V69Z" fill="#8BACF6"/>
<path d="M56 69H55V70H56V69Z" fill="#8BACF6"/>
<path d="M58 68H57V69H58V68Z" fill="#8BACF6"/>
<path d="M59 68H58V69H59V68Z" fill="#8BACF6"/>
<path d="M57 68H56V69H57V68Z" fill="#8BACF6"/>
<path d="M58 67H57V68H58V67Z" fill="#8BACF6"/>
<path d="M59 67H58V68H59V67Z" fill="#8BACF6"/>
<path d="M57 67H56V68H57V67Z" fill="#8BACF6"/>
<path d="M58 66H57V67H58V66Z" fill="#8BACF6"/>
<path d="M59 66H58V67H59V66Z" fill="#8BACF6"/>
<path d="M57 66H56V67H57V66Z" fill="#8BACF6"/>
<path d="M58 65H57V66H58V65Z" fill="#8BACF6"/>
<path d="M59 65H58V66H59V65Z" fill="#8BACF6"/>
<path d="M57 65H56V66H57V65Z" fill="#8BACF6"/>
<path d="M58 64H57V65H58V64Z" fill="#8BACF6"/>
<path d="M59 64H58V65H59V64Z" fill="#8BACF6"/>
<path d="M57 64H56V65H57V64Z" fill="#8BACF6"/>
<path d="M57 63H56V64H57V63Z" fill="#8BACF6"/>
<path d="M58 63H57V64H58V63Z" fill="#8BACF6"/>
<path d="M56 63H55V64H56V63Z" fill="#8BACF6"/>
<path d="M55 63H54V64H55V63Z" fill="#8BACF6"/>
<path d="M54 63H53V64H54V63Z" fill="#8BACF6"/>
<path d="M53 64H52V65H53V64Z" fill="#8BACF6"/>
<path d="M52 69H51V70H52V69Z" fill="#8BACF6"/>
<path d="M56 64H55V65H56V64Z" fill="#8BACF6"/>
<path d="M66 66H65V67H66V66Z" fill="#8BACF6"/>
<path d="M67 65H66V66H67V65Z" fill="#8BACF6"/>
<path d="M68 64H67V65H68V64Z" fill="#8BACF6"/>
<path d="M69 63H68V64H69V63Z" fill="#8BACF6"/>
<path d="M65 66H64V67H65V66Z" fill="#8BACF6"/>
<path d="M71 59H70V60H71V59Z" fill="#8BACF6"/>
<path d="M71 60H70V61H71V60Z" fill="#8BACF6"/>
<path d="M70 61H69V62H70V61Z" fill="#8BACF6"/>
<path d="M70 62H69V63H70V62Z" fill="#8BACF6"/>
<path d="M63 47H62V48H63V47Z" fill="#8BACF6"/>
<path d="M54 36H53V37H54V36Z" fill="#8BACF6"/>
<path d="M26 53H25V54H26V53Z" fill="#8BACF6"/>
<path d="M26 52H25V53H26V52Z" fill="#8BACF6"/>
<path d="M27 52H26V53H27V52Z" fill="#8BACF6"/>
<path d="M27 51H26V52H27V51Z" fill="#8BACF6"/>
<path d="M28 52H27V53H28V52Z" fill="#8BACF6"/>
<path d="M28 51H27V52H28V51Z" fill="#8BACF6"/>
<path d="M29 52H28V53H29V52Z" fill="#8BACF6"/>
<path d="M29 51H28V52H29V51Z" fill="#8BACF6"/>
<path d="M30 52H29V53H30V52Z" fill="#8BACF6"/>
<path d="M30 51H29V52H30V51Z" fill="#8BACF6"/>
<path d="M31 52H30V53H31V52Z" fill="#8BACF6"/>
<path d="M31 51H30V52H31V51Z" fill="#8BACF6"/>
<path d="M32 52H31V53H32V52Z" fill="#8BACF6"/>
<path d="M32 51H31V52H32V51Z" fill="#8BACF6"/>
<path d="M31 50H30V51H31V50Z" fill="#8BACF6"/>
<path d="M32 50H31V51H32V50Z" fill="#8BACF6"/>
<path d="M33 51H32V52H33V51Z" fill="#8BACF6"/>
<path d="M33 50H32V51H33V50Z" fill="#8BACF6"/>
<path d="M53 47H52V48H53V47Z" fill="#8BACF6"/>
<path d="M52 48H51V49H52V48Z" fill="#8BACF6"/>
<path d="M45 47H44V48H45V47Z" fill="#8BACF6"/>
<path d="M44 47H43V48H44V47Z" fill="#8BACF6"/>
<path d="M43 47H42V48H43V47Z" fill="#8BACF6"/>
<path d="M42 47H41V48H42V47Z" fill="#8BACF6"/>
<path d="M41 47H40V48H41V47Z" fill="#8BACF6"/>
<path d="M40 47H39V48H40V47Z" fill="#8BACF6"/>
<path d="M39 47H38V48H39V47Z" fill="#8BACF6"/>
<path d="M41 48H40V49H41V48Z" fill="#8BACF6"/>
<path d="M40 48H39V49H40V48Z" fill="#8BACF6"/>
<path d="M39 48H38V49H39V48Z" fill="#8BACF6"/>
<path d="M38 48H37V49H38V48Z" fill="#8BACF6"/>
<path d="M37 48H36V49H37V48Z" fill="#8BACF6"/>
<path d="M37 47H36V48H37V47Z" fill="#8BACF6"/>
<path d="M36 48H35V49H36V48Z" fill="#8BACF6"/>
<path d="M35 48H34V49H35V48Z" fill="#8BACF6"/>
<path d="M35 47H34V48H35V47Z" fill="#8BACF6"/>
<path d="M34 47H33V48H34V47Z" fill="#8BACF6"/>
<path d="M33 46H32V47H33V46Z" fill="#8BACF6"/>
<path d="M34 46H33V47H34V46Z" fill="#8BACF6"/>
<path d="M35 46H34V47H35V46Z" fill="#8BACF6"/>
<path d="M36 46H35V47H36V46Z" fill="#8BACF6"/>
<path d="M37 46H36V47H37V46Z" fill="#8BACF6"/>
<path d="M38 46H37V47H38V46Z" fill="#8BACF6"/>
<path d="M39 46H38V47H39V46Z" fill="#8BACF6"/>
<path d="M40 46H39V47H40V46Z" fill="#8BACF6"/>
<path d="M41 46H40V47H41V46Z" fill="#8BACF6"/>
<path d="M42 46H41V47H42V46Z" fill="#8BACF6"/>
<path d="M43 46H42V47H43V46Z" fill="#8BACF6"/>
<path d="M44 46H43V47H44V46Z" fill="#8BACF6"/>
<path d="M43 45H42V46H43V45Z" fill="#8BACF6"/>
<path d="M42 45H41V46H42V45Z" fill="#8BACF6"/>
<path d="M41 45H40V46H41V45Z" fill="#8BACF6"/>
<path d="M40 45H39V46H40V45Z" fill="#8BACF6"/>
<path d="M39 45H38V46H39V45Z" fill="#8BACF6"/>
<path d="M38 45H37V46H38V45Z" fill="#8BACF6"/>
<path d="M37 45H36V46H37V45Z" fill="#8BACF6"/>
<path d="M36 45H35V46H36V45Z" fill="#8BACF6"/>
<path d="M43 44H42V45H43V44Z" fill="#8BACF6"/>
<path d="M42 44H41V45H42V44Z" fill="#8BACF6"/>
<path d="M42 43H41V44H42V43Z" fill="#8BACF6"/>
<path d="M41 44H40V45H41V44Z" fill="#8BACF6"/>
<path d="M40 44H39V45H40V44Z" fill="#8BACF6"/>
<path d="M39 44H38V45H39V44Z" fill="#8BACF6"/>
<path d="M38 44H37V45H38V44Z" fill="#8BACF6"/>
<path d="M37 44H36V45H37V44Z" fill="#8BACF6"/>
<path d="M36 44H35V45H36V44Z" fill="#8BACF6"/>
<path d="M40 43H39V44H40V43Z" fill="#8BACF6"/>
<path d="M39 43H38V44H39V43Z" fill="#8BACF6"/>
<path d="M38 43H37V44H38V43Z" fill="#8BACF6"/>
<path d="M37 43H36V44H37V43Z" fill="#8BACF6"/>
<path d="M36 43H35V44H36V43Z" fill="#8BACF6"/>
<path d="M39 42H38V43H39V42Z" fill="#8BACF6"/>
<path d="M38 42H37V43H38V42Z" fill="#8BACF6"/>
<path d="M37 42H36V43H37V42Z" fill="#8BACF6"/>
<path d="M36 42H35V43H36V42Z" fill="#8BACF6"/>
<path d="M39 41H38V42H39V41Z" fill="#8BACF6"/>
<path d="M38 41H37V42H38V41Z" fill="#8BACF6"/>
<path d="M37 41H36V42H37V41Z" fill="#8BACF6"/>
<path d="M36 41H35V42H36V41Z" fill="#8BACF6"/>
<path d="M39 40H38V41H39V40Z" fill="#8BACF6"/>
<path d="M38 40H37V41H38V40Z" fill="#8BACF6"/>
<path d="M37 40H36V41H37V40Z" fill="#8BACF6"/>
<path d="M36 40H35V41H36V40Z" fill="#8BACF6"/>
<path d="M39 39H38V40H39V39Z" fill="#8BACF6"/>
<path d="M38 39H37V40H38V39Z" fill="#8BACF6"/>
<path d="M37 39H36V40H37V39Z" fill="#8BACF6"/>
<path d="M36 39H35V40H36V39Z" fill="#8BACF6"/>
<path d="M39 38H38V39H39V38Z" fill="#8BACF6"/>
<path d="M38 38H37V39H38V38Z" fill="#8BACF6"/>
<path d="M37 38H36V39H37V38Z" fill="#8BACF6"/>
<path d="M36 38H35V39H36V38Z" fill="#8BACF6"/>
<path d="M35 40H34V41H35V40Z" fill="#8BACF6"/>
<path d="M35 39H34V40H35V39Z" fill="#8BACF6"/>
<path d="M35 38H34V39H35V38Z" fill="#8BACF6"/>
<path d="M34 39H33V40H34V39Z" fill="#8BACF6"/>
<path d="M34 38H33V39H34V38Z" fill="#8BACF6"/>
<path d="M33 38H32V39H33V38Z" fill="#8BACF6"/>
<path d="M33 37H32V38H33V37Z" fill="#8BACF6"/>
<path d="M39 37H38V38H39V37Z" fill="#8BACF6"/>
<path d="M38 37H37V38H38V37Z" fill="#8BACF6"/>
<path d="M37 37H36V38H37V37Z" fill="#8BACF6"/>
<path d="M39 36H38V37H39V36Z" fill="#8BACF6"/>
<path d="M38 36H37V37H38V36Z" fill="#8BACF6"/>
<path d="M37 36H36V37H37V36Z" fill="#8BACF6"/>
<path d="M39 35H38V36H39V35Z" fill="#8BACF6"/>
<path d="M38 35H37V36H38V35Z" fill="#8BACF6"/>
<path d="M37 35H36V36H37V35Z" fill="#8BACF6"/>
<path d="M39 34H38V35H39V34Z" fill="#8BACF6"/>
<path d="M38 34H37V35H38V34Z" fill="#8BACF6"/>
<path d="M37 34H36V35H37V34Z" fill="#8BACF6"/>
<path d="M39 33H38V34H39V33Z" fill="#8BACF6"/>
<path d="M38 33H37V34H38V33Z" fill="#8BACF6"/>
<path d="M37 33H36V34H37V33Z" fill="#8BACF6"/>
<path d="M36 33H35V34H36V33Z" fill="#8BACF6"/>
<path d="M39 32H38V33H39V32Z" fill="#8BACF6"/>
<path d="M39 31H38V32H39V31Z" fill="#8BACF6"/>
<path d="M40 40H39V41H40V40Z" fill="#8BACF6"/>
<path d="M40 39H39V40H40V39Z" fill="#8BACF6"/>
<path d="M40 38H39V39H40V38Z" fill="#8BACF6"/>
<path d="M40 37H39V38H40V37Z" fill="#8BACF6"/>
<path d="M40 36H39V37H40V36Z" fill="#8BACF6"/>
<path d="M40 35H39V36H40V35Z" fill="#8BACF6"/>
<path d="M40 34H39V35H40V34Z" fill="#8BACF6"/>
<path d="M40 33H39V34H40V33Z" fill="#8BACF6"/>
<path d="M40 32H39V33H40V32Z" fill="#8BACF6"/>
<path d="M40 31H39V32H40V31Z" fill="#8BACF6"/>
<path d="M41 40H40V41H41V40Z" fill="#8BACF6"/>
<path d="M41 39H40V40H41V39Z" fill="#8BACF6"/>
<path d="M41 38H40V39H41V38Z" fill="#8BACF6"/>
<path d="M41 37H40V38H41V37Z" fill="#8BACF6"/>
<path d="M41 36H40V37H41V36Z" fill="#8BACF6"/>
<path d="M41 35H40V36H41V35Z" fill="#8BACF6"/>
<path d="M41 34H40V35H41V34Z" fill="#8BACF6"/>
<path d="M41 33H40V34H41V33Z" fill="#8BACF6"/>
<path d="M41 32H40V33H41V32Z" fill="#8BACF6"/>
<path d="M41 31H40V32H41V31Z" fill="#8BACF6"/>
<path d="M42 40H41V41H42V40Z" fill="#8BACF6"/>
<path d="M42 39H41V40H42V39Z" fill="#8BACF6"/>
<path d="M41 42H40V43H41V42Z" fill="#8BACF6"/>
<path d="M41 41H40V42H41V41Z" fill="#8BACF6"/>
<path d="M42 41H41V42H42V41Z" fill="#8BACF6"/>
<path d="M42 38H41V39H42V38Z" fill="#8BACF6"/>
<path d="M42 37H41V38H42V37Z" fill="#8BACF6"/>
<path d="M42 36H41V37H42V36Z" fill="#8BACF6"/>
<path d="M42 35H41V36H42V35Z" fill="#8BACF6"/>
<path d="M42 34H41V35H42V34Z" fill="#8BACF6"/>
<path d="M42 33H41V34H42V33Z" fill="#8BACF6"/>
<path d="M42 32H41V33H42V32Z" fill="#8BACF6"/>
<path d="M42 31H41V32H42V31Z" fill="#8BACF6"/>
<path d="M43 40H42V41H43V40Z" fill="#8BACF6"/>
<path d="M43 39H42V40H43V39Z" fill="#8BACF6"/>
<path d="M43 38H42V39H43V38Z" fill="#8BACF6"/>
<path d="M43 37H42V38H43V37Z" fill="#8BACF6"/>
<path d="M43 36H42V37H43V36Z" fill="#8BACF6"/>
<path d="M43 35H42V36H43V35Z" fill="#8BACF6"/>
<path d="M43 34H42V35H43V34Z" fill="#8BACF6"/>
<path d="M43 33H42V34H43V33Z" fill="#8BACF6"/>
<path d="M43 32H42V33H43V32Z" fill="#8BACF6"/>
<path d="M44 39H43V40H44V39Z" fill="#8BACF6"/>
<path d="M44 38H43V39H44V38Z" fill="#8BACF6"/>
<path d="M44 37H43V38H44V37Z" fill="#8BACF6"/>
<path d="M44 36H43V37H44V36Z" fill="#8BACF6"/>
<path d="M44 35H43V36H44V35Z" fill="#8BACF6"/>
<path d="M44 34H43V35H44V34Z" fill="#8BACF6"/>
<path d="M44 33H43V34H44V33Z" fill="#8BACF6"/>
<path d="M44 32H43V33H44V32Z" fill="#8BACF6"/>
<path d="M45 38H44V39H45V38Z" fill="#8BACF6"/>
<path d="M45 37H44V38H45V37Z" fill="#8BACF6"/>
<path d="M45 36H44V37H45V36Z" fill="#8BACF6"/>
<path d="M45 35H44V36H45V35Z" fill="#8BACF6"/>
<path d="M45 34H44V35H45V34Z" fill="#8BACF6"/>
<path d="M45 33H44V34H45V33Z" fill="#8BACF6"/>
<path d="M46 38H45V39H46V38Z" fill="#8BACF6"/>
<path d="M46 37H45V38H46V37Z" fill="#8BACF6"/>
<path d="M46 36H45V37H46V36Z" fill="#8BACF6"/>
<path d="M46 35H45V36H46V35Z" fill="#8BACF6"/>
<path d="M47 38H46V39H47V38Z" fill="#8BACF6"/>
<path d="M47 37H46V38H47V37Z" fill="#8BACF6"/>
<path d="M47 36H46V37H47V36Z" fill="#8BACF6"/>
<path d="M47 39H46V40H47V39Z" fill="#8BACF6"/>
<path d="M48 40H47V41H48V40Z" fill="#8BACF6"/>
<path d="M48 39H47V40H48V39Z" fill="#8BACF6"/>
<path d="M48 38H47V39H48V38Z" fill="#8BACF6"/>
<path d="M47 35H46V36H47V35Z" fill="#8BACF6"/>
<path d="M46 34H45V35H46V34Z" fill="#8BACF6"/>
<path d="M46 33H45V34H46V33Z" fill="#8BACF6"/>
<path d="M45 32H44V33H45V32Z" fill="#8BACF6"/>
<path d="M43 31H42V32H43V31Z" fill="#8BACF6"/>
<path d="M38 32H37V33H38V32Z" fill="#8BACF6"/>
<path d="M37 32H36V33H37V32Z" fill="#8BACF6"/>
<path d="M36 37H35V38H36V37Z" fill="#8BACF6"/>
<path d="M52 49H51V50H52V49Z" fill="#8BACF6"/>
<path d="M53 48H52V49H53V48Z" fill="#8BACF6"/>
<path d="M53 49H52V50H53V49Z" fill="#8BACF6"/>
<path d="M53 50H52V51H53V50Z" fill="#8BACF6"/>
<path d="M54 47H53V48H54V47Z" fill="#8BACF6"/>
<path d="M54 48H53V49H54V48Z" fill="#8BACF6"/>
<path d="M54 49H53V50H54V49Z" fill="#8BACF6"/>
<path d="M54 50H53V51H54V50Z" fill="#8BACF6"/>
<path d="M55 47H54V48H55V47Z" fill="#8BACF6"/>
<path d="M55 48H54V49H55V48Z" fill="#8BACF6"/>
<path d="M55 49H54V50H55V49Z" fill="#8BACF6"/>
<path d="M55 50H54V51H55V50Z" fill="#8BACF6"/>
<path d="M55 51H54V52H55V51Z" fill="#8BACF6"/>
<path d="M56 48H55V49H56V48Z" fill="#8BACF6"/>
<path d="M56 49H55V50H56V49Z" fill="#8BACF6"/>
<path d="M56 50H55V51H56V50Z" fill="#8BACF6"/>
<path d="M56 51H55V52H56V51Z" fill="#8BACF6"/>
<path d="M57 49H56V50H57V49Z" fill="#8BACF6"/>
<path d="M57 50H56V51H57V50Z" fill="#8BACF6"/>
<path d="M57 51H56V52H57V51Z" fill="#8BACF6"/>
<path d="M58 49H57V50H58V49Z" fill="#8BACF6"/>
<path d="M58 50H57V51H58V50Z" fill="#8BACF6"/>
<path d="M58 51H57V52H58V51Z" fill="#8BACF6"/>
<path d="M59 49H58V50H59V49Z" fill="#8BACF6"/>
<path d="M59 50H58V51H59V50Z" fill="#8BACF6"/>
<path d="M59 51H58V52H59V51Z" fill="#8BACF6"/>
<path d="M60 50H59V51H60V50Z" fill="#8BACF6"/>
<path d="M60 51H59V52H60V51Z" fill="#8BACF6"/>
</svg>
